G04 (created by PCBNEW (2013-09-06 BZR 4312)-stable) date K 13 nov   2013 22:22:55 EET*
%MOIN*%
G04 Gerber Fmt 3.4, Leading zero omitted, Abs format*
%FSLAX34Y34*%
G01*
G70*
G90*
G04 APERTURE LIST*
%ADD10C,0.000787*%
%ADD11C,0.001000*%
%ADD12C,0.005000*%
%ADD13C,0.005906*%
%ADD14C,0.000100*%
G04 APERTURE END LIST*
G54D10*
G54D11*
X49213Y-56692D02*
G75*
G03X49213Y-56692I0J0D01*
G74*
G01*
X49211Y-56692D02*
X49213Y-56692D01*
X49212Y-56691D02*
X49212Y-56693D01*
X43307Y-55118D02*
X39370Y-51181D01*
X55118Y-55118D02*
X43307Y-55118D01*
G54D12*
X51497Y-49778D02*
X51521Y-49802D01*
X51592Y-49826D01*
X51640Y-49826D01*
X51711Y-49802D01*
X51759Y-49754D01*
X51783Y-49707D01*
X51807Y-49611D01*
X51807Y-49540D01*
X51783Y-49445D01*
X51759Y-49397D01*
X51711Y-49350D01*
X51640Y-49326D01*
X51592Y-49326D01*
X51521Y-49350D01*
X51497Y-49373D01*
X50997Y-49778D02*
X51021Y-49802D01*
X51092Y-49826D01*
X51140Y-49826D01*
X51211Y-49802D01*
X51259Y-49754D01*
X51283Y-49707D01*
X51307Y-49611D01*
X51307Y-49540D01*
X51283Y-49445D01*
X51259Y-49397D01*
X51211Y-49350D01*
X51140Y-49326D01*
X51092Y-49326D01*
X51021Y-49350D01*
X50997Y-49373D01*
X50235Y-49564D02*
X50164Y-49588D01*
X50140Y-49611D01*
X50116Y-49659D01*
X50116Y-49730D01*
X50140Y-49778D01*
X50164Y-49802D01*
X50211Y-49826D01*
X50402Y-49826D01*
X50402Y-49326D01*
X50235Y-49326D01*
X50188Y-49350D01*
X50164Y-49373D01*
X50140Y-49421D01*
X50140Y-49469D01*
X50164Y-49516D01*
X50188Y-49540D01*
X50235Y-49564D01*
X50402Y-49564D01*
X49807Y-49588D02*
X49807Y-49826D01*
X49973Y-49326D02*
X49807Y-49588D01*
X49640Y-49326D01*
X49473Y-49635D02*
X49092Y-49635D01*
X48878Y-49802D02*
X48807Y-49826D01*
X48688Y-49826D01*
X48640Y-49802D01*
X48616Y-49778D01*
X48592Y-49730D01*
X48592Y-49683D01*
X48616Y-49635D01*
X48640Y-49611D01*
X48688Y-49588D01*
X48783Y-49564D01*
X48830Y-49540D01*
X48854Y-49516D01*
X48878Y-49469D01*
X48878Y-49421D01*
X48854Y-49373D01*
X48830Y-49350D01*
X48783Y-49326D01*
X48664Y-49326D01*
X48592Y-49350D01*
X48402Y-49683D02*
X48164Y-49683D01*
X48450Y-49826D02*
X48283Y-49326D01*
X48116Y-49826D01*
X47616Y-49326D02*
X47307Y-49326D01*
X47473Y-49516D01*
X47402Y-49516D01*
X47354Y-49540D01*
X47330Y-49564D01*
X47307Y-49611D01*
X47307Y-49730D01*
X47330Y-49778D01*
X47354Y-49802D01*
X47402Y-49826D01*
X47545Y-49826D01*
X47592Y-49802D01*
X47616Y-49778D01*
X47092Y-49778D02*
X47069Y-49802D01*
X47092Y-49826D01*
X47116Y-49802D01*
X47092Y-49778D01*
X47092Y-49826D01*
X46759Y-49326D02*
X46711Y-49326D01*
X46664Y-49350D01*
X46640Y-49373D01*
X46616Y-49421D01*
X46592Y-49516D01*
X46592Y-49635D01*
X46616Y-49730D01*
X46640Y-49778D01*
X46664Y-49802D01*
X46711Y-49826D01*
X46759Y-49826D01*
X46807Y-49802D01*
X46830Y-49778D01*
X46854Y-49730D01*
X46878Y-49635D01*
X46878Y-49516D01*
X46854Y-49421D01*
X46830Y-49373D01*
X46807Y-49350D01*
X46759Y-49326D01*
G54D11*
X59055Y-51181D02*
X55118Y-55118D01*
X59055Y-39370D02*
X59055Y-51181D01*
X55118Y-35433D02*
X59055Y-39370D01*
X43307Y-35433D02*
X55118Y-35433D01*
X39370Y-39370D02*
X43307Y-35433D01*
X39370Y-51181D02*
X39370Y-39370D01*
G54D13*
X41535Y-48818D02*
X41732Y-48818D01*
X41535Y-48818D02*
X41141Y-48818D01*
X41141Y-48818D02*
X41141Y-41732D01*
X41141Y-41732D02*
X41732Y-41732D01*
X43307Y-48818D02*
X43897Y-48818D01*
X43897Y-48818D02*
X43897Y-41732D01*
X43897Y-41732D02*
X43307Y-41732D01*
X56889Y-41535D02*
X56692Y-41535D01*
X56889Y-41535D02*
X57283Y-41535D01*
X57283Y-41535D02*
X57283Y-48622D01*
X57283Y-48622D02*
X56692Y-48622D01*
X55118Y-41535D02*
X54527Y-41535D01*
X54527Y-41535D02*
X54527Y-48622D01*
X54527Y-48622D02*
X55118Y-48622D01*
G54D14*
G36*
X46825Y-48812D02*
X46866Y-48790D01*
X46959Y-48732D01*
X47090Y-48646D01*
X47245Y-48542D01*
X47401Y-48437D01*
X47530Y-48351D01*
X47619Y-48293D01*
X47657Y-48272D01*
X47677Y-48279D01*
X47751Y-48315D01*
X47859Y-48371D01*
X47921Y-48404D01*
X48020Y-48446D01*
X48069Y-48455D01*
X48077Y-48441D01*
X48113Y-48366D01*
X48170Y-48237D01*
X48244Y-48066D01*
X48329Y-47866D01*
X48420Y-47651D01*
X48512Y-47431D01*
X48599Y-47221D01*
X48676Y-47033D01*
X48738Y-46880D01*
X48778Y-46773D01*
X48793Y-46727D01*
X48789Y-46718D01*
X48739Y-46670D01*
X48653Y-46605D01*
X48467Y-46454D01*
X48283Y-46224D01*
X48171Y-45963D01*
X48134Y-45674D01*
X48166Y-45405D01*
X48271Y-45146D01*
X48451Y-44914D01*
X48669Y-44741D01*
X48925Y-44632D01*
X49211Y-44597D01*
X49487Y-44628D01*
X49751Y-44732D01*
X49983Y-44909D01*
X50080Y-45022D01*
X50216Y-45257D01*
X50293Y-45510D01*
X50301Y-45574D01*
X50290Y-45850D01*
X50208Y-46115D01*
X50062Y-46353D01*
X49859Y-46547D01*
X49834Y-46565D01*
X49740Y-46635D01*
X49677Y-46683D01*
X49628Y-46724D01*
X49980Y-47571D01*
X50036Y-47706D01*
X50132Y-47938D01*
X50218Y-48137D01*
X50285Y-48296D01*
X50332Y-48402D01*
X50353Y-48445D01*
X50355Y-48447D01*
X50386Y-48453D01*
X50451Y-48429D01*
X50569Y-48372D01*
X50647Y-48332D01*
X50737Y-48288D01*
X50778Y-48272D01*
X50812Y-48291D01*
X50899Y-48347D01*
X51025Y-48431D01*
X51176Y-48534D01*
X51320Y-48632D01*
X51453Y-48720D01*
X51550Y-48782D01*
X51597Y-48807D01*
X51604Y-48807D01*
X51646Y-48784D01*
X51722Y-48720D01*
X51838Y-48611D01*
X52001Y-48450D01*
X52026Y-48425D01*
X52160Y-48288D01*
X52269Y-48174D01*
X52342Y-48092D01*
X52369Y-48055D01*
X52369Y-48055D01*
X52345Y-48009D01*
X52284Y-47913D01*
X52196Y-47778D01*
X52088Y-47621D01*
X51808Y-47213D01*
X51962Y-46828D01*
X52009Y-46710D01*
X52069Y-46567D01*
X52114Y-46465D01*
X52137Y-46421D01*
X52179Y-46406D01*
X52284Y-46381D01*
X52437Y-46349D01*
X52619Y-46315D01*
X52792Y-46283D01*
X52949Y-46254D01*
X53062Y-46231D01*
X53113Y-46221D01*
X53125Y-46214D01*
X53136Y-46189D01*
X53142Y-46136D01*
X53146Y-46041D01*
X53148Y-45891D01*
X53148Y-45674D01*
X53148Y-45650D01*
X53146Y-45443D01*
X53143Y-45278D01*
X53137Y-45169D01*
X53130Y-45127D01*
X53129Y-45126D01*
X53080Y-45114D01*
X52970Y-45091D01*
X52813Y-45060D01*
X52626Y-45025D01*
X52615Y-45022D01*
X52428Y-44987D01*
X52272Y-44954D01*
X52163Y-44929D01*
X52117Y-44915D01*
X52107Y-44901D01*
X52070Y-44829D01*
X52016Y-44713D01*
X51954Y-44572D01*
X51894Y-44426D01*
X51841Y-44295D01*
X51806Y-44196D01*
X51795Y-44152D01*
X51796Y-44151D01*
X51824Y-44106D01*
X51888Y-44010D01*
X51978Y-43876D01*
X52087Y-43717D01*
X52095Y-43705D01*
X52202Y-43548D01*
X52289Y-43415D01*
X52347Y-43320D01*
X52369Y-43277D01*
X52368Y-43274D01*
X52333Y-43227D01*
X52252Y-43138D01*
X52138Y-43018D01*
X52000Y-42879D01*
X51956Y-42836D01*
X51803Y-42687D01*
X51697Y-42589D01*
X51631Y-42537D01*
X51599Y-42525D01*
X51598Y-42526D01*
X51550Y-42555D01*
X51451Y-42619D01*
X51316Y-42711D01*
X51156Y-42819D01*
X51145Y-42827D01*
X50988Y-42934D01*
X50857Y-43022D01*
X50764Y-43084D01*
X50723Y-43109D01*
X50716Y-43109D01*
X50652Y-43090D01*
X50540Y-43051D01*
X50402Y-42997D01*
X50257Y-42939D01*
X50125Y-42883D01*
X50025Y-42838D01*
X49978Y-42811D01*
X49977Y-42809D01*
X49960Y-42753D01*
X49933Y-42635D01*
X49900Y-42473D01*
X49863Y-42280D01*
X49857Y-42249D01*
X49822Y-42061D01*
X49792Y-41907D01*
X49770Y-41799D01*
X49759Y-41755D01*
X49733Y-41749D01*
X49640Y-41742D01*
X49500Y-41739D01*
X49331Y-41737D01*
X49152Y-41738D01*
X48978Y-41742D01*
X48829Y-41747D01*
X48723Y-41754D01*
X48679Y-41763D01*
X48677Y-41766D01*
X48661Y-41824D01*
X48635Y-41942D01*
X48602Y-42105D01*
X48565Y-42298D01*
X48558Y-42332D01*
X48523Y-42519D01*
X48492Y-42673D01*
X48469Y-42778D01*
X48457Y-42820D01*
X48440Y-42829D01*
X48363Y-42862D01*
X48238Y-42914D01*
X48082Y-42977D01*
X47721Y-43123D01*
X47280Y-42820D01*
X47239Y-42793D01*
X47080Y-42685D01*
X46950Y-42598D01*
X46859Y-42539D01*
X46821Y-42518D01*
X46818Y-42519D01*
X46774Y-42558D01*
X46687Y-42640D01*
X46567Y-42756D01*
X46428Y-42895D01*
X46325Y-42998D01*
X46203Y-43122D01*
X46126Y-43205D01*
X46084Y-43259D01*
X46069Y-43291D01*
X46073Y-43313D01*
X46101Y-43358D01*
X46166Y-43455D01*
X46257Y-43589D01*
X46365Y-43745D01*
X46453Y-43876D01*
X46549Y-44024D01*
X46612Y-44130D01*
X46633Y-44182D01*
X46628Y-44203D01*
X46597Y-44290D01*
X46544Y-44421D01*
X46478Y-44576D01*
X46324Y-44926D01*
X46095Y-44970D01*
X45956Y-44997D01*
X45762Y-45034D01*
X45576Y-45070D01*
X45285Y-45126D01*
X45275Y-46194D01*
X45320Y-46213D01*
X45363Y-46225D01*
X45471Y-46249D01*
X45624Y-46279D01*
X45805Y-46314D01*
X45960Y-46342D01*
X46115Y-46372D01*
X46227Y-46393D01*
X46276Y-46404D01*
X46289Y-46421D01*
X46328Y-46496D01*
X46383Y-46616D01*
X46445Y-46760D01*
X46507Y-46909D01*
X46562Y-47047D01*
X46600Y-47152D01*
X46615Y-47206D01*
X46593Y-47247D01*
X46535Y-47339D01*
X46449Y-47469D01*
X46343Y-47624D01*
X46237Y-47778D01*
X46148Y-47910D01*
X46086Y-48005D01*
X46060Y-48049D01*
X46073Y-48078D01*
X46135Y-48153D01*
X46251Y-48274D01*
X46425Y-48446D01*
X46453Y-48473D01*
X46591Y-48606D01*
X46708Y-48713D01*
X46789Y-48786D01*
X46825Y-48812D01*
X46825Y-48812D01*
G37*
G54D12*
X42620Y-49303D02*
X42620Y-49518D01*
X42634Y-49560D01*
X42662Y-49589D01*
X42705Y-49603D01*
X42734Y-49603D01*
X42491Y-49332D02*
X42477Y-49318D01*
X42448Y-49303D01*
X42377Y-49303D01*
X42348Y-49318D01*
X42334Y-49332D01*
X42320Y-49360D01*
X42320Y-49389D01*
X42334Y-49432D01*
X42505Y-49603D01*
X42320Y-49603D01*
X56070Y-49103D02*
X56070Y-49318D01*
X56084Y-49360D01*
X56112Y-49389D01*
X56155Y-49403D01*
X56184Y-49403D01*
X55798Y-49203D02*
X55798Y-49403D01*
X55870Y-49089D02*
X55941Y-49303D01*
X55755Y-49303D01*
M02*
