M48
INCH,TZ

T1C0.012
T2C0.030
T3C0.051
T4C0.073
T5C0.122
%
G90
G05
M72
T1
X39800Y-39800

X39800Y-40400

X39800Y-41000

X39800Y-41600

X39800Y-42200

X39800Y-42800

X39800Y-43400

X39800Y-44000

X39800Y-44600

X39800Y-45200

X39800Y-45800

X39800Y-46400

X39800Y-47000

X39800Y-47600

X39800Y-48200

X39800Y-48800

X39800Y-49400

X39800Y-50000

X39800Y-50600

X40000Y-39400

X40000Y-51200

X40400Y-39000

X40400Y-51600

X40500Y-47000

X40500Y-47750

X40500Y-48500

X40500Y-49500

X40750Y-50750

X40800Y-38600

X40800Y-52000

X41000Y-40000

X41000Y-41000

X41000Y-42000

X41000Y-50000

X41200Y-38200

X41200Y-52400

X41220Y-42918

X41220Y-43318

X41220Y-43718

X41500Y-39000

X41500Y-42500

X41500Y-51000

X41500Y-52000

X41540Y-47440

X41600Y-37800

X41600Y-52800

X41750Y-48250

X42000Y-37400

X42000Y-40000

X42000Y-41000

X42000Y-50000

X42000Y-53200

X42200Y-46470

X42200Y-46870

X42200Y-47270

X42200Y-47640

X42210Y-42920

X42210Y-43320

X42210Y-43720

X42210Y-44120

X42210Y-44520

X42320Y-44918

X42320Y-45318

X42320Y-45718

X42320Y-46068

X42400Y-37000

X42400Y-53600

X42500Y-39000

X42500Y-51000

X42500Y-52000

X42670Y-46268

X42670Y-46668

X42740Y-47470

X42760Y-43920

X42760Y-44320

X42760Y-47060

X42770Y-43520

X42770Y-44700

X42770Y-45100

X42770Y-45490

X42770Y-45900

X42780Y-43120

X42800Y-36600

X42800Y-54000

X43000Y-40000

X43000Y-41000

X43000Y-50000

X43200Y-36200

X43200Y-48200

X43200Y-54400

X43500Y-39000

X43500Y-51000

X43500Y-52000

X43600Y-35800

X43600Y-48400

X43600Y-49000

X43600Y-54800

X43730Y-47050

X43730Y-47440

X43770Y-43118

X43770Y-43518

X43770Y-43918

X44000Y-40000

X44000Y-41000

X44000Y-42500

X44000Y-50000

X44150Y-44500

X44200Y-35800

X44200Y-49000

X44500Y-39000

X44500Y-51000

X44500Y-52000

X44600Y-54800

X44750Y-41500

X44750Y-42000

X44750Y-43000

X44750Y-43750

X44800Y-35800

X44800Y-46600

X44800Y-48400

X45000Y-40000

X45000Y-47600

X45000Y-50000

X45200Y-48600

X45200Y-54800

X45300Y-46600

X45400Y-35800

X45450Y-46100

X45500Y-39000

X45500Y-41000

X45500Y-42000

X45500Y-43000

X45500Y-51000

X45500Y-52000

X45500Y-53000

X45500Y-54000

X45600Y-44400

X45600Y-47600

X45800Y-48600

X45800Y-54800

X46000Y-35800

X46000Y-40000

X46000Y-50000

X46200Y-43800

X46200Y-44400

X46400Y-40850

X46400Y-47600

X46400Y-48600

X46400Y-54800

X46500Y-41150

X46500Y-51000

X46500Y-52000

X46500Y-53000

X46500Y-54000

X46600Y-35800

X46600Y-47100

X46800Y-43600

X46800Y-44400

X46800Y-53500

X46800Y-54000

X46800Y-54500

X46900Y-47100

X47000Y-40000

X47000Y-48600

X47000Y-54800

X47200Y-35800

X47300Y-53300

X47500Y-49750

X47500Y-50250

X47500Y-50750

X47500Y-51250

X47500Y-51950

X47500Y-52900

X47600Y-54800

X47800Y-35800

X48000Y-40000

X48000Y-43200

X48000Y-49750

X48000Y-50250

X48000Y-50750

X48000Y-51250

X48000Y-51750

X48100Y-42300

X48200Y-54800

X48300Y-45550

X48300Y-52900

X48350Y-51950

X48400Y-35800

X48400Y-43600

X48450Y-42850

X48450Y-48000

X48500Y-49750

X48500Y-50250

X48500Y-50750

X48500Y-51250

X48500Y-51750

X48500Y-53300

X48750Y-44900

X48750Y-45300

X48800Y-54800

X48850Y-48200

X48950Y-42850

X48950Y-47000

X48950Y-47700

X49000Y-35800

X49000Y-40000

X49000Y-43200

X49000Y-43800

X49000Y-49750

X49000Y-50250

X49000Y-50750

X49000Y-51250

X49000Y-51750

X49000Y-53500

X49000Y-54000

X49000Y-54500

X49150Y-45300

X49200Y-38350

X49400Y-54800

X49450Y-38600

X49500Y-44150

X49500Y-49750

X49500Y-50250

X49500Y-50750

X49500Y-51250

X49500Y-51750

X49500Y-53000

X49600Y-35800

X49700Y-42300

X50000Y-40000

X50000Y-44000

X50000Y-49250

X50000Y-49750

X50000Y-50250

X50000Y-50750

X50000Y-51250

X50000Y-51750

X50000Y-54000

X50000Y-54800

X50200Y-35800

X50500Y-49250

X50500Y-49750

X50500Y-50250

X50500Y-50750

X50500Y-51250

X50500Y-53000

X50600Y-42400

X50600Y-44000

X50600Y-44600

X50600Y-54800

X50800Y-35800

X51000Y-48200

X51000Y-49050

X51000Y-49750

X51000Y-50250

X51000Y-50750

X51000Y-51250

X51000Y-54000

X51150Y-46950

X51200Y-54800

X51400Y-35800

X51500Y-53000

X51600Y-44000

X51600Y-44600

X51600Y-45200

X51700Y-48000

X51800Y-54800

X52000Y-35800

X52000Y-40000

X52000Y-54000

X52100Y-48000

X52200Y-44000

X52200Y-44600

X52200Y-45200

X52380Y-46060

X52400Y-54800

X52500Y-48000

X52500Y-49000

X52500Y-50000

X52500Y-51000

X52500Y-52000

X52500Y-53000

X52600Y-35800

X52600Y-46950

X52800Y-44000

X52800Y-44600

X52800Y-45200

X52800Y-47250

X53000Y-39000

X53000Y-40000

X53000Y-54000

X53000Y-54800

X53200Y-35800

X53350Y-47800

X53400Y-41800

X53400Y-42600

X53400Y-44000

X53400Y-44600

X53400Y-45200

X53400Y-47000

X53430Y-45670

X53500Y-48500

X53500Y-49500

X53500Y-50500

X53500Y-51500

X53500Y-52500

X53600Y-54800

X53800Y-35800

X53900Y-47300

X54000Y-39000

X54000Y-40000

X54000Y-42400

X54000Y-44000

X54000Y-44600

X54000Y-45200

X54200Y-54800

X54400Y-35800

X54400Y-41400

X54500Y-48250

X54500Y-49000

X54500Y-50000

X54500Y-51000

X54500Y-52000

X54720Y-46868

X54720Y-47268

X54800Y-54800

X55000Y-35800

X55000Y-39000

X55000Y-40000

X55000Y-42200

X55200Y-54400

X55400Y-36200

X55500Y-49250

X55500Y-50000

X55500Y-51000

X55500Y-52000

X55570Y-42918

X55570Y-43318

X55570Y-43718

X55570Y-44118

X55570Y-44518

X55570Y-44918

X55570Y-45268

X55570Y-45668

X55570Y-46068

X55570Y-46468

X55570Y-46868

X55570Y-47268

X55600Y-54000

X55800Y-36600

X56000Y-39000

X56000Y-40000

X56000Y-52500

X56000Y-53600

X56200Y-37000

X56270Y-42718

X56270Y-43118

X56270Y-43518

X56270Y-43918

X56270Y-44318

X56270Y-44718

X56270Y-45068

X56270Y-45468

X56270Y-46668

X56270Y-47068

X56270Y-47468

X56400Y-53200

X56500Y-49250

X56500Y-50000

X56500Y-51000

X56500Y-52000

X56600Y-37400

X56800Y-52800

X57000Y-37800

X57000Y-39000

X57000Y-40000

X57120Y-42718

X57120Y-43118

X57120Y-43518

X57120Y-43918

X57120Y-44318

X57120Y-44718

X57120Y-45868

X57120Y-46268

X57120Y-46668

X57120Y-47068

X57120Y-47468

X57200Y-52400

X57400Y-38200

X57500Y-48250

X57500Y-49000

X57500Y-50000

X57500Y-51000

X57600Y-52000

X57750Y-40250

X57750Y-41250

X57750Y-42250

X57750Y-43250

X57750Y-44250

X57750Y-45250

X57750Y-46250

X57750Y-47250

X57800Y-38600

X58000Y-51600

X58200Y-39000

X58400Y-51200

X58600Y-39400

X58600Y-40000

X58600Y-40600

X58600Y-41200

X58600Y-41800

X58600Y-42400

X58600Y-43000

X58600Y-43600

X58600Y-44200

X58600Y-44800

X58600Y-45400

X58600Y-46000

X58600Y-46600

X58600Y-47200

X58600Y-47800

X58600Y-48400

X58600Y-49000

X58600Y-49600

X58600Y-50200

X58600Y-50800

T2
X42504Y-41693

X42504Y-41693

X42504Y-48858

X42504Y-48858

X55921Y-41496

X55921Y-41496

X55921Y-48661

X55921Y-48661

T3
X42504Y-42303

X42504Y-42303

X42504Y-48248

X42504Y-48248

X55921Y-42106

X55921Y-42106

X55921Y-48051

X55921Y-48051

T4
X46600Y-38350

X51800Y-38350

T5
X44094Y-37008

X44094Y-53543

X54331Y-37008

X54331Y-53543

T0
M30
