G04 (created by PCBNEW (2013-09-06 BZR 4312)-stable) date K 13 nov   2013 22:22:55 EET*
%MOIN*%
G04 Gerber Fmt 3.4, Leading zero omitted, Abs format*
%FSLAX34Y34*%
G01*
G70*
G90*
G04 APERTURE LIST*
%ADD10C,0.000787*%
%ADD11C,0.001000*%
%ADD12R,0.081890X0.015748*%
%ADD13R,0.133858X0.051181*%
%ADD14C,0.196850*%
%ADD15C,0.093000*%
%ADD16C,0.150000*%
%ADD17R,0.023600X0.015700*%
%ADD18R,0.055000X0.035000*%
%ADD19R,0.015700X0.023600*%
%ADD20R,0.045000X0.025000*%
%ADD21R,0.045000X0.020000*%
%ADD22R,0.027559X0.070866*%
%ADD23R,0.043307X0.043307*%
%ADD24R,0.043307X0.086614*%
%ADD25R,0.035000X0.055000*%
%ADD26R,0.019685X0.062992*%
%ADD27R,0.062992X0.019685*%
%ADD28R,0.031496X0.062992*%
%ADD29C,0.020000*%
%ADD30C,0.032000*%
%ADD31C,0.016000*%
%ADD32C,0.010000*%
%ADD33C,0.012000*%
%ADD34C,0.008000*%
%ADD35C,0.006000*%
%ADD36C,0.005000*%
G04 APERTURE END LIST*
G54D10*
G54D11*
X49213Y-56692D02*
G75*
G03X49213Y-56692I0J0D01*
G74*
G01*
X49211Y-56692D02*
X49213Y-56692D01*
X49212Y-56691D02*
X49212Y-56693D01*
X43307Y-55118D02*
X39370Y-51181D01*
X55118Y-55118D02*
X43307Y-55118D01*
X59055Y-51181D02*
X55118Y-55118D01*
X59055Y-39370D02*
X59055Y-51181D01*
X55118Y-35433D02*
X59055Y-39370D01*
X43307Y-35433D02*
X55118Y-35433D01*
X39370Y-39370D02*
X43307Y-35433D01*
X39370Y-51181D02*
X39370Y-39370D01*
G54D12*
X41732Y-42913D03*
X41732Y-43307D03*
X41732Y-43700D03*
X41732Y-44094D03*
X41732Y-44488D03*
X41732Y-44881D03*
X41732Y-45275D03*
X41732Y-45669D03*
X41732Y-46062D03*
X41732Y-46456D03*
X41732Y-46850D03*
X41732Y-47244D03*
X41732Y-47637D03*
X43275Y-47440D03*
X43275Y-47047D03*
X43275Y-46653D03*
X43275Y-46259D03*
X43275Y-45866D03*
X43275Y-45472D03*
X43275Y-45078D03*
X43275Y-44685D03*
X43275Y-44291D03*
X43275Y-43897D03*
X43275Y-43503D03*
X43275Y-43110D03*
G54D13*
X42503Y-41692D03*
X42503Y-48858D03*
X42503Y-48858D03*
X42503Y-41692D03*
G54D12*
X56692Y-47440D03*
X56692Y-47047D03*
X56692Y-46653D03*
X56692Y-46259D03*
X56692Y-45866D03*
X56692Y-45472D03*
X56692Y-45078D03*
X56692Y-44685D03*
X56692Y-44291D03*
X56692Y-43897D03*
X56692Y-43503D03*
X56692Y-43110D03*
X56692Y-42716D03*
X55149Y-42913D03*
X55149Y-43307D03*
X55149Y-43700D03*
X55149Y-44094D03*
X55149Y-44488D03*
X55149Y-44881D03*
X55149Y-45275D03*
X55149Y-45669D03*
X55149Y-46062D03*
X55149Y-46456D03*
X55149Y-46850D03*
X55149Y-47244D03*
G54D13*
X55921Y-48661D03*
X55921Y-41496D03*
X55921Y-41496D03*
X55921Y-48661D03*
G54D14*
X44094Y-37007D03*
X54330Y-37007D03*
X54330Y-53543D03*
X44094Y-53543D03*
G54D15*
X46600Y-38350D03*
X51800Y-38350D03*
G54D16*
X49200Y-38350D03*
G54D17*
X48100Y-41773D03*
X48100Y-42127D03*
G54D18*
X48700Y-41825D03*
X48700Y-42575D03*
G54D19*
X46927Y-40850D03*
X46573Y-40850D03*
G54D17*
X49700Y-42827D03*
X49700Y-42473D03*
X48300Y-46077D03*
X48300Y-45723D03*
G54D18*
X48950Y-46275D03*
X48950Y-45525D03*
G54D19*
X47923Y-48000D03*
X48277Y-48000D03*
X47577Y-47400D03*
X47223Y-47400D03*
G54D20*
X45050Y-45800D03*
X45050Y-46400D03*
G54D19*
X40827Y-43950D03*
X40473Y-43950D03*
X40827Y-44850D03*
X40473Y-44850D03*
X40827Y-44400D03*
X40473Y-44400D03*
G54D17*
X49550Y-47927D03*
X49550Y-47573D03*
X50550Y-47927D03*
X50550Y-47573D03*
X50050Y-47927D03*
X50050Y-47573D03*
G54D19*
X40827Y-45300D03*
X40473Y-45300D03*
X40827Y-45750D03*
X40473Y-45750D03*
X40827Y-46200D03*
X40473Y-46200D03*
G54D21*
X50250Y-42900D03*
X50250Y-42400D03*
X50250Y-41900D03*
X50250Y-41400D03*
X52750Y-41400D03*
X52750Y-41900D03*
X52750Y-42400D03*
X52750Y-42900D03*
G54D22*
X47488Y-41598D03*
X46996Y-41598D03*
X46503Y-41598D03*
X46011Y-41598D03*
X46011Y-42701D03*
X46503Y-42701D03*
X46996Y-42701D03*
X47488Y-42701D03*
G54D23*
X47900Y-53459D03*
G54D24*
X47309Y-54050D03*
X48490Y-54050D03*
G54D25*
X48175Y-47350D03*
X48925Y-47350D03*
G54D26*
X47537Y-45548D03*
X47222Y-45548D03*
X46907Y-45548D03*
X46592Y-45548D03*
X46277Y-45548D03*
X45962Y-45548D03*
G54D27*
X45844Y-46100D03*
G54D26*
X45962Y-46651D03*
X46277Y-46651D03*
X46592Y-46651D03*
X46907Y-46651D03*
X47222Y-46651D03*
X47537Y-46651D03*
G54D27*
X47655Y-46100D03*
G54D28*
X50932Y-48649D03*
X50499Y-48649D03*
X50066Y-48649D03*
X49633Y-48649D03*
X49200Y-48649D03*
X48766Y-48649D03*
X48333Y-48649D03*
X47900Y-48649D03*
X47467Y-48649D03*
X47467Y-52350D03*
X47900Y-52350D03*
X48333Y-52350D03*
X48766Y-52350D03*
X49200Y-52350D03*
X49633Y-52350D03*
X50066Y-52350D03*
X50499Y-52350D03*
X50932Y-52350D03*
G54D29*
X43730Y-47440D03*
X43730Y-47050D03*
X41220Y-43718D03*
X41220Y-43318D03*
X41220Y-42918D03*
X57120Y-43518D03*
X57120Y-43118D03*
X57120Y-42718D03*
X54720Y-47268D03*
X54720Y-46868D03*
X56270Y-43518D03*
X56270Y-43118D03*
X56270Y-42718D03*
X55570Y-47268D03*
X55570Y-46868D03*
X42740Y-47470D03*
X42760Y-47060D03*
X42210Y-43720D03*
X42210Y-43320D03*
X42210Y-42920D03*
X42760Y-44320D03*
X42770Y-44700D03*
X42770Y-45100D03*
X42770Y-45490D03*
X42770Y-45900D03*
X42670Y-46268D03*
X42670Y-46668D03*
X55570Y-46468D03*
X55570Y-42918D03*
X49000Y-54500D03*
X49000Y-54000D03*
X49000Y-53500D03*
X48500Y-53300D03*
X48300Y-52900D03*
X46800Y-54500D03*
X46800Y-54000D03*
X46800Y-53500D03*
X47300Y-53300D03*
X47500Y-52900D03*
X47500Y-49750D03*
X51000Y-49750D03*
X51000Y-50250D03*
X51000Y-50750D03*
X51000Y-51250D03*
X50500Y-51250D03*
X50500Y-50750D03*
X50500Y-50250D03*
X50500Y-49750D03*
X50500Y-49250D03*
X50000Y-49250D03*
X50000Y-49750D03*
X50000Y-50250D03*
X50000Y-50750D03*
X50000Y-51250D03*
X50000Y-51750D03*
X49500Y-51750D03*
X49500Y-51250D03*
X49500Y-50750D03*
X49500Y-50250D03*
X49500Y-49750D03*
X47500Y-50250D03*
X47500Y-50750D03*
X47500Y-51250D03*
X48000Y-51750D03*
X48000Y-51250D03*
X48000Y-50750D03*
X48000Y-50250D03*
X48000Y-49750D03*
X48500Y-49750D03*
X48500Y-50250D03*
X48500Y-50750D03*
X48500Y-51250D03*
X48500Y-51750D03*
X49000Y-51750D03*
X49000Y-51250D03*
X49000Y-50750D03*
X49000Y-50250D03*
X49000Y-49750D03*
X51000Y-49050D03*
X47500Y-51950D03*
X44150Y-44500D03*
X53900Y-47300D03*
X53400Y-47000D03*
X54500Y-51000D03*
X54500Y-50000D03*
X54500Y-49000D03*
X54500Y-48250D03*
X51150Y-46950D03*
X52600Y-46950D03*
X53400Y-42600D03*
X53400Y-41800D03*
X54000Y-42400D03*
X54400Y-41400D03*
X55000Y-42200D03*
X54000Y-45200D03*
X54000Y-44600D03*
X54000Y-44000D03*
X53400Y-44000D03*
X53400Y-44600D03*
X53400Y-45200D03*
X52800Y-45200D03*
X52800Y-44600D03*
X52800Y-44000D03*
X52200Y-44000D03*
X52200Y-44600D03*
X52200Y-45200D03*
X51600Y-45200D03*
X51600Y-44600D03*
X51600Y-44000D03*
X50600Y-44600D03*
X50600Y-44000D03*
X50000Y-44000D03*
X48000Y-43200D03*
X49000Y-43200D03*
X49000Y-43800D03*
X48400Y-43600D03*
X44750Y-43750D03*
X46200Y-43800D03*
X46800Y-43600D03*
X46800Y-44400D03*
X46200Y-44400D03*
X45600Y-44400D03*
X44800Y-48400D03*
X46400Y-47600D03*
X45600Y-47600D03*
X45000Y-47600D03*
X47000Y-48600D03*
X46400Y-48600D03*
X45800Y-48600D03*
X45200Y-48600D03*
X44200Y-49000D03*
X43600Y-49000D03*
X43600Y-48400D03*
X43200Y-48200D03*
X41750Y-48250D03*
X40500Y-47000D03*
X40500Y-47750D03*
X40500Y-48500D03*
X40500Y-49500D03*
X40750Y-50750D03*
X44000Y-42500D03*
X44750Y-41500D03*
X44750Y-42000D03*
X44750Y-43000D03*
X45500Y-43000D03*
X45500Y-42000D03*
X45500Y-41000D03*
X41500Y-42500D03*
X41000Y-42000D03*
X41000Y-41000D03*
X42000Y-41000D03*
X43000Y-41000D03*
X44000Y-41000D03*
X41500Y-39000D03*
X42500Y-39000D03*
X43500Y-39000D03*
X44500Y-39000D03*
X45500Y-39000D03*
X56000Y-40000D03*
X55000Y-40000D03*
X54000Y-40000D03*
X53000Y-40000D03*
X52000Y-40000D03*
X41000Y-40000D03*
X42000Y-40000D03*
X43000Y-40000D03*
X44000Y-40000D03*
X45000Y-40000D03*
X46000Y-40000D03*
X47000Y-40000D03*
X48000Y-40000D03*
X49000Y-40000D03*
X50000Y-40000D03*
X53000Y-39000D03*
X54000Y-39000D03*
X55000Y-39000D03*
X56000Y-39000D03*
X57000Y-39000D03*
X57750Y-46250D03*
X57750Y-45250D03*
X57750Y-44250D03*
X57750Y-43250D03*
X57750Y-42250D03*
X57500Y-48250D03*
X57500Y-49000D03*
X57500Y-50000D03*
X57500Y-51000D03*
X57750Y-47250D03*
X57750Y-40250D03*
X57750Y-41250D03*
X57000Y-40000D03*
X55500Y-49250D03*
X56500Y-49250D03*
X56000Y-52500D03*
X56500Y-52000D03*
X56500Y-51000D03*
X56500Y-50000D03*
X55500Y-50000D03*
X55500Y-51000D03*
X55500Y-52000D03*
X53000Y-54000D03*
X52000Y-54000D03*
X51000Y-54000D03*
X50000Y-54000D03*
X49500Y-53000D03*
X50500Y-53000D03*
X51500Y-53000D03*
X54500Y-52000D03*
X53500Y-52500D03*
X53500Y-51500D03*
X53500Y-50500D03*
X53500Y-49500D03*
X53500Y-48500D03*
X52500Y-48000D03*
X52500Y-49000D03*
X52500Y-50000D03*
X52500Y-51000D03*
X52500Y-52000D03*
X52500Y-53000D03*
X44500Y-52000D03*
X43500Y-52000D03*
X42500Y-52000D03*
X41500Y-52000D03*
X41500Y-51000D03*
X42500Y-51000D03*
X43500Y-51000D03*
X44500Y-51000D03*
X45500Y-51000D03*
X45500Y-52000D03*
X45500Y-53000D03*
X45500Y-54000D03*
X46500Y-54000D03*
X46500Y-53000D03*
X46500Y-52000D03*
X46500Y-51000D03*
X46000Y-50000D03*
X45000Y-50000D03*
X44000Y-50000D03*
X43000Y-50000D03*
X42000Y-50000D03*
X41000Y-50000D03*
X58400Y-51200D03*
X58000Y-51600D03*
X57600Y-52000D03*
X57200Y-52400D03*
X56800Y-52800D03*
X56400Y-53200D03*
X56000Y-53600D03*
X55600Y-54000D03*
X55200Y-54400D03*
X54800Y-54800D03*
X40000Y-39400D03*
X40400Y-39000D03*
X40800Y-38600D03*
X41200Y-38200D03*
X41600Y-37800D03*
X42000Y-37400D03*
X42400Y-37000D03*
X42800Y-36600D03*
X43200Y-36200D03*
X43600Y-35800D03*
X43200Y-54400D03*
X42800Y-54000D03*
X42400Y-53600D03*
X42000Y-53200D03*
X41600Y-52800D03*
X41200Y-52400D03*
X40800Y-52000D03*
X40400Y-51600D03*
X40000Y-51200D03*
X39800Y-50600D03*
X43600Y-54800D03*
X39800Y-39800D03*
X39800Y-40400D03*
X39800Y-41000D03*
X39800Y-41600D03*
X39800Y-42200D03*
X39800Y-42800D03*
X39800Y-43400D03*
X39800Y-44000D03*
X39800Y-44600D03*
X39800Y-45200D03*
X39800Y-45800D03*
X39800Y-46400D03*
X39800Y-47000D03*
X39800Y-47600D03*
X39800Y-48200D03*
X39800Y-48800D03*
X39800Y-49400D03*
X39800Y-50000D03*
X54400Y-35800D03*
X53800Y-35800D03*
X53200Y-35800D03*
X52600Y-35800D03*
X52000Y-35800D03*
X51400Y-35800D03*
X50800Y-35800D03*
X50200Y-35800D03*
X49600Y-35800D03*
X49000Y-35800D03*
X48400Y-35800D03*
X47800Y-35800D03*
X47200Y-35800D03*
X46600Y-35800D03*
X46000Y-35800D03*
X45400Y-35800D03*
X44800Y-35800D03*
X44200Y-35800D03*
X55000Y-35800D03*
X55400Y-36200D03*
X55800Y-36600D03*
X56200Y-37000D03*
X56600Y-37400D03*
X57000Y-37800D03*
X57400Y-38200D03*
X57800Y-38600D03*
X58200Y-39000D03*
X58600Y-39400D03*
X58600Y-50800D03*
X58600Y-50200D03*
X58600Y-49600D03*
X58600Y-49000D03*
X58600Y-48400D03*
X58600Y-47800D03*
X58600Y-47200D03*
X58600Y-46600D03*
X58600Y-46000D03*
X58600Y-45400D03*
X58600Y-44800D03*
X58600Y-44200D03*
X58600Y-43600D03*
X58600Y-43000D03*
X58600Y-42400D03*
X58600Y-41800D03*
X58600Y-41200D03*
X58600Y-40600D03*
X58600Y-40000D03*
X44600Y-54800D03*
X45200Y-54800D03*
X45800Y-54800D03*
X46400Y-54800D03*
X47000Y-54800D03*
X47600Y-54800D03*
X48200Y-54800D03*
X48800Y-54800D03*
X49400Y-54800D03*
X50000Y-54800D03*
X50600Y-54800D03*
X51200Y-54800D03*
X51800Y-54800D03*
X52400Y-54800D03*
X53000Y-54800D03*
X53600Y-54800D03*
X54200Y-54800D03*
X46400Y-40850D03*
X46500Y-41150D03*
X50600Y-42400D03*
X49700Y-42300D03*
X48950Y-42850D03*
X48450Y-42850D03*
X48100Y-42300D03*
X45300Y-46600D03*
X44800Y-46600D03*
X45450Y-46100D03*
X46900Y-47100D03*
X46600Y-47100D03*
X48350Y-51950D03*
X51000Y-48200D03*
X48450Y-48000D03*
X48950Y-47700D03*
X48950Y-47000D03*
X49150Y-45300D03*
X48750Y-45300D03*
X48300Y-45550D03*
X41540Y-47440D03*
X42200Y-47640D03*
X43770Y-43918D03*
X43770Y-43518D03*
X43770Y-43118D03*
X57120Y-44718D03*
X57120Y-44318D03*
X57120Y-43918D03*
X57120Y-47468D03*
X57120Y-47068D03*
X57120Y-46668D03*
X56270Y-47468D03*
X56270Y-47068D03*
X56270Y-46668D03*
X56270Y-44718D03*
X56270Y-44318D03*
X56270Y-43918D03*
X42760Y-43920D03*
X42770Y-43520D03*
X42780Y-43120D03*
X42200Y-47270D03*
X49450Y-38600D03*
X48850Y-48200D03*
X49200Y-38350D03*
X42200Y-46870D03*
X42200Y-46470D03*
X42320Y-46068D03*
X42320Y-45718D03*
X42320Y-45318D03*
X42320Y-44918D03*
X42210Y-44520D03*
X42210Y-44120D03*
X56270Y-45068D03*
X56270Y-45468D03*
X57120Y-45868D03*
X53430Y-45670D03*
X52100Y-48000D03*
X49500Y-44150D03*
X48750Y-44900D03*
X55570Y-45668D03*
X51700Y-48000D03*
X52380Y-46060D03*
X55570Y-46068D03*
X55570Y-44918D03*
X55570Y-43718D03*
X55570Y-44518D03*
X55570Y-43318D03*
X55570Y-45268D03*
X55570Y-44118D03*
X53350Y-47800D03*
X52800Y-47250D03*
X57120Y-46268D03*
G54D30*
X47650Y-48000D02*
X44790Y-48000D01*
X44230Y-47440D02*
X44640Y-47850D01*
X47650Y-48000D02*
X47923Y-48000D01*
X44790Y-48000D02*
X44640Y-47850D01*
G54D31*
X56650Y-40550D02*
X56850Y-40550D01*
X51100Y-41250D02*
X51800Y-40550D01*
X51800Y-40550D02*
X56650Y-40550D01*
X49700Y-42827D02*
X49700Y-43100D01*
X51100Y-42900D02*
X51100Y-41500D01*
X50750Y-43250D02*
X51100Y-42900D01*
X49850Y-43250D02*
X50750Y-43250D01*
X49700Y-43100D02*
X49850Y-43250D01*
X51100Y-41500D02*
X51100Y-41250D01*
X57200Y-42209D02*
X56692Y-42716D01*
X57200Y-40900D02*
X57200Y-42209D01*
X56850Y-40550D02*
X57200Y-40900D01*
X56350Y-40850D02*
X56650Y-40850D01*
X56650Y-40850D02*
X56900Y-41100D01*
X56900Y-41100D02*
X56900Y-41850D01*
X56900Y-41850D02*
X56692Y-42057D01*
X56692Y-42057D02*
X56692Y-42716D01*
X51750Y-41100D02*
X51850Y-41000D01*
X49300Y-43300D02*
X49550Y-43550D01*
X48700Y-41825D02*
X49175Y-41825D01*
X49300Y-41950D02*
X49175Y-41825D01*
X49300Y-43250D02*
X49300Y-41950D01*
X51750Y-41100D02*
X51450Y-41400D01*
X51450Y-43000D02*
X51450Y-41400D01*
X50900Y-43550D02*
X51450Y-43000D01*
X49550Y-43550D02*
X50900Y-43550D01*
X49300Y-43250D02*
X49300Y-43300D01*
X52000Y-40850D02*
X56350Y-40850D01*
X56350Y-40850D02*
X56400Y-40850D01*
X51850Y-41000D02*
X52000Y-40850D01*
X50250Y-42900D02*
X49773Y-42900D01*
X49773Y-42900D02*
X49700Y-42827D01*
G54D32*
X46011Y-41598D02*
X46011Y-41961D01*
X47877Y-41773D02*
X48100Y-41773D01*
X47800Y-41850D02*
X47877Y-41773D01*
X47800Y-42000D02*
X47800Y-41850D01*
X47650Y-42150D02*
X47800Y-42000D01*
X46200Y-42150D02*
X47650Y-42150D01*
X46011Y-41961D02*
X46200Y-42150D01*
G54D33*
X49550Y-47573D02*
X49550Y-46300D01*
X49550Y-46300D02*
X49550Y-46350D01*
X49550Y-46350D02*
X49550Y-46300D01*
G54D31*
X50250Y-46400D02*
X50150Y-46300D01*
X54131Y-46868D02*
X53913Y-46650D01*
X50500Y-46650D02*
X53913Y-46650D01*
X50250Y-46400D02*
X50500Y-46650D01*
X48975Y-46300D02*
X48950Y-46275D01*
X50150Y-46300D02*
X49550Y-46300D01*
X49550Y-46300D02*
X48975Y-46300D01*
X48950Y-46275D02*
X48498Y-46275D01*
X48498Y-46275D02*
X48300Y-46077D01*
X47655Y-46100D02*
X48277Y-46100D01*
X48277Y-46100D02*
X48300Y-46077D01*
X47537Y-45548D02*
X47537Y-45981D01*
X47537Y-45981D02*
X47655Y-46100D01*
X48175Y-47350D02*
X48175Y-47375D01*
X48175Y-47375D02*
X47923Y-47627D01*
X47923Y-47627D02*
X47923Y-48000D01*
X48333Y-48649D02*
X47900Y-48649D01*
X47923Y-48000D02*
X47923Y-48627D01*
X47923Y-48627D02*
X47900Y-48649D01*
X43730Y-47050D02*
X43840Y-47050D01*
G54D30*
X43840Y-47050D02*
X44230Y-47440D01*
X43730Y-47440D02*
X44230Y-47440D01*
G54D31*
X43729Y-47440D02*
X43730Y-47440D01*
X43729Y-47440D02*
X43275Y-47440D01*
X43727Y-47047D02*
X43730Y-47050D01*
X43727Y-47047D02*
X43275Y-47047D01*
X55149Y-47244D02*
X54507Y-47244D01*
X54507Y-47244D02*
X54131Y-46868D01*
X41220Y-42918D02*
X40631Y-42918D01*
X40473Y-43077D02*
X40473Y-43477D01*
X40631Y-42918D02*
X40473Y-43077D01*
X41250Y-43307D02*
X40642Y-43307D01*
X40642Y-43307D02*
X40473Y-43477D01*
X40473Y-43477D02*
X40473Y-43950D01*
X40473Y-44400D02*
X40473Y-43950D01*
X40473Y-44850D02*
X40473Y-44400D01*
X40473Y-45300D02*
X40473Y-44850D01*
X40473Y-45750D02*
X40473Y-45300D01*
X40473Y-46200D02*
X40473Y-45750D01*
X45987Y-41623D02*
X46011Y-41598D01*
X54131Y-46868D02*
X54720Y-46868D01*
G54D33*
X48100Y-41773D02*
X48648Y-41773D01*
X48648Y-41773D02*
X48700Y-41825D01*
X47488Y-41598D02*
X47925Y-41598D01*
X47925Y-41598D02*
X48100Y-41773D01*
X41732Y-42913D02*
X41732Y-43700D01*
G54D31*
X41732Y-43700D02*
X41237Y-43700D01*
X41237Y-43700D02*
X41220Y-43718D01*
X41231Y-43307D02*
X41250Y-43307D01*
X41250Y-43307D02*
X41732Y-43307D01*
X41220Y-43318D02*
X41231Y-43307D01*
X41732Y-42913D02*
X41224Y-42913D01*
X41224Y-42913D02*
X41220Y-42918D01*
X43275Y-47047D02*
X43275Y-47250D01*
X43275Y-47250D02*
X43275Y-47440D01*
G54D32*
X43309Y-47047D02*
X43275Y-47047D01*
G54D31*
X56692Y-43503D02*
X57105Y-43503D01*
X57105Y-43503D02*
X57120Y-43518D01*
X57112Y-43110D02*
X56692Y-43110D01*
X57120Y-43118D02*
X57112Y-43110D01*
X56692Y-42716D02*
X57118Y-42716D01*
X57118Y-42716D02*
X57120Y-42718D01*
X55149Y-47244D02*
X54744Y-47244D01*
X54744Y-47244D02*
X54720Y-47268D01*
X54737Y-46850D02*
X55149Y-46850D01*
X54720Y-46868D02*
X54737Y-46850D01*
X56692Y-43503D02*
X56284Y-43503D01*
X56284Y-43503D02*
X56270Y-43518D01*
X56277Y-43110D02*
X56692Y-43110D01*
X56270Y-43118D02*
X56277Y-43110D01*
X56692Y-42716D02*
X56271Y-42716D01*
X56271Y-42716D02*
X56270Y-42718D01*
X56692Y-43503D02*
X56692Y-43110D01*
X56692Y-43110D02*
X56692Y-42716D01*
X56692Y-42716D02*
X56692Y-43110D01*
X55149Y-47244D02*
X55546Y-47244D01*
X55546Y-47244D02*
X55570Y-47268D01*
X55552Y-46850D02*
X55149Y-46850D01*
X55570Y-46868D02*
X55552Y-46850D01*
X43275Y-47440D02*
X42767Y-47442D01*
X42767Y-47442D02*
X42740Y-47470D01*
X42780Y-47039D02*
X43275Y-47047D01*
X42760Y-47060D02*
X42780Y-47039D01*
X42192Y-43702D02*
X41732Y-43700D01*
X42210Y-43720D02*
X42192Y-43702D01*
X41732Y-43307D02*
X42198Y-43308D01*
X42198Y-43308D02*
X42210Y-43320D01*
X41732Y-42913D02*
X42205Y-42915D01*
X42205Y-42915D02*
X42210Y-42920D01*
X41732Y-43700D02*
X41732Y-43307D01*
X41732Y-43307D02*
X41732Y-42913D01*
X55149Y-46850D02*
X55149Y-47050D01*
X55149Y-47050D02*
X55149Y-47244D01*
X43275Y-44291D02*
X42786Y-44293D01*
X42786Y-44293D02*
X42760Y-44320D01*
X42784Y-44685D02*
X42770Y-44700D01*
X42784Y-44685D02*
X43275Y-44685D01*
X42791Y-45078D02*
X42770Y-45100D01*
X42791Y-45078D02*
X43275Y-45078D01*
X43275Y-45472D02*
X42787Y-45472D01*
X42787Y-45472D02*
X42770Y-45490D01*
X42770Y-45490D02*
X42774Y-45494D01*
X43275Y-45866D02*
X42803Y-45866D01*
X42803Y-45866D02*
X42770Y-45900D01*
X42771Y-45898D02*
X42770Y-45900D01*
X42678Y-46259D02*
X43275Y-46259D01*
X42670Y-46268D02*
X42678Y-46259D01*
X43275Y-46653D02*
X42684Y-46653D01*
X42684Y-46653D02*
X42670Y-46668D01*
X55149Y-46456D02*
X55558Y-46456D01*
X55558Y-46456D02*
X55570Y-46468D01*
G54D33*
X52750Y-42900D02*
X55136Y-42900D01*
X55136Y-42900D02*
X55149Y-42913D01*
G54D31*
X55565Y-42913D02*
X55149Y-42913D01*
X55570Y-42918D02*
X55565Y-42913D01*
G54D34*
X49000Y-53500D02*
X49000Y-54000D01*
X48400Y-53000D02*
X48500Y-53300D01*
X48300Y-52900D02*
X48400Y-53000D01*
X46500Y-53000D02*
X47400Y-53000D01*
X46800Y-54000D02*
X46800Y-54500D01*
X47000Y-53300D02*
X46800Y-53500D01*
X47100Y-53300D02*
X47000Y-53300D01*
X47300Y-53300D02*
X47100Y-53300D01*
X47400Y-53000D02*
X47500Y-52900D01*
X51000Y-49050D02*
X51000Y-49750D01*
X49500Y-49750D02*
X49000Y-49750D01*
X51000Y-50250D02*
X51000Y-50750D01*
X51000Y-51250D02*
X50500Y-51250D01*
X50500Y-50750D02*
X50500Y-50250D01*
X50500Y-49750D02*
X50500Y-49250D01*
X50000Y-49250D02*
X50000Y-49750D01*
X50000Y-50250D02*
X50000Y-50750D01*
X50000Y-51250D02*
X50000Y-51750D01*
X49500Y-51750D02*
X49500Y-51250D01*
X49500Y-50750D02*
X49500Y-50250D01*
G54D33*
X50932Y-48649D02*
X50932Y-48982D01*
X50932Y-48982D02*
X51000Y-49050D01*
G54D34*
X47500Y-51250D02*
X47500Y-50750D01*
X48000Y-51250D02*
X48000Y-51750D01*
X48000Y-50250D02*
X48000Y-50750D01*
X48500Y-49750D02*
X48000Y-49750D01*
X48500Y-50750D02*
X48500Y-50250D01*
X48500Y-51750D02*
X48500Y-51250D01*
X49000Y-51250D02*
X49000Y-51750D01*
X49000Y-50250D02*
X49000Y-50750D01*
X47500Y-50250D02*
X47500Y-49750D01*
G54D33*
X47467Y-51982D02*
X47500Y-51950D01*
X47467Y-52350D02*
X47467Y-51982D01*
G54D34*
X53900Y-47300D02*
X53600Y-47000D01*
X53600Y-47000D02*
X53400Y-47000D01*
X54500Y-51000D02*
X54500Y-50000D01*
X52600Y-46950D02*
X51150Y-46950D01*
X53400Y-42600D02*
X53400Y-41800D01*
X54400Y-41600D02*
X54400Y-41400D01*
X55000Y-42200D02*
X54400Y-41600D01*
X50600Y-44000D02*
X51600Y-44000D01*
X54000Y-44600D02*
X54000Y-45200D01*
X53400Y-44000D02*
X54000Y-44000D01*
X53400Y-45200D02*
X53400Y-44600D01*
X52800Y-44600D02*
X52800Y-45200D01*
X52200Y-44000D02*
X52800Y-44000D01*
X52200Y-45200D02*
X52200Y-44600D01*
X51600Y-44600D02*
X51600Y-45200D01*
X50000Y-44000D02*
X50600Y-44000D01*
X49000Y-43800D02*
X48600Y-43800D01*
X48000Y-43200D02*
X49000Y-43200D01*
X48600Y-43800D02*
X48400Y-43600D01*
X46800Y-44400D02*
X46800Y-43600D01*
X45600Y-44400D02*
X46200Y-44400D01*
X45000Y-47600D02*
X45600Y-47600D01*
X47000Y-48600D02*
X46400Y-48600D01*
X45800Y-48600D02*
X45200Y-48600D01*
X43600Y-49000D02*
X44200Y-49000D01*
X43400Y-48400D02*
X43600Y-48400D01*
X43200Y-48200D02*
X43400Y-48400D01*
X41000Y-50000D02*
X40500Y-49500D01*
X40500Y-48500D02*
X40500Y-47750D01*
X44750Y-42000D02*
X44500Y-42000D01*
X44500Y-42000D02*
X44000Y-42500D01*
X44750Y-42000D02*
X44750Y-41500D01*
X45500Y-43000D02*
X44750Y-43000D01*
X45500Y-41000D02*
X45500Y-42000D01*
X41000Y-42000D02*
X41500Y-42500D01*
X42000Y-41000D02*
X41000Y-41000D01*
X44000Y-41000D02*
X43000Y-41000D01*
X45000Y-40000D02*
X45000Y-39500D01*
X42500Y-39000D02*
X41500Y-39000D01*
X44500Y-39000D02*
X43500Y-39000D01*
X45000Y-39500D02*
X45500Y-39000D01*
X52000Y-40000D02*
X50000Y-40000D01*
X57000Y-40000D02*
X56000Y-40000D01*
X55000Y-40000D02*
X54000Y-40000D01*
X53000Y-40000D02*
X52000Y-40000D01*
X43000Y-40000D02*
X42000Y-40000D01*
X45000Y-40000D02*
X44000Y-40000D01*
X47000Y-40000D02*
X46000Y-40000D01*
X49000Y-40000D02*
X48000Y-40000D01*
X57000Y-40000D02*
X57000Y-39000D01*
X54000Y-39000D02*
X53000Y-39000D01*
X56000Y-39000D02*
X55000Y-39000D01*
X57750Y-45250D02*
X57750Y-44250D01*
X57750Y-43250D02*
X57750Y-42250D01*
X56500Y-51000D02*
X57500Y-51000D01*
X57500Y-50000D02*
X57500Y-49000D01*
X57500Y-48250D02*
X57500Y-49000D01*
X57750Y-47250D02*
X57750Y-46250D01*
X57750Y-41250D02*
X57750Y-40250D01*
X56500Y-49250D02*
X55500Y-49250D01*
X56500Y-51000D02*
X56500Y-52000D01*
X55500Y-50000D02*
X56500Y-50000D01*
X55500Y-52000D02*
X55500Y-51000D01*
X53456Y-53543D02*
X53000Y-54000D01*
X52000Y-54000D02*
X51000Y-54000D01*
X50000Y-54000D02*
X49500Y-53500D01*
X49500Y-53500D02*
X49500Y-53000D01*
X50500Y-53000D02*
X51500Y-53000D01*
X54330Y-53543D02*
X53456Y-53543D01*
X54000Y-52000D02*
X54500Y-52000D01*
X53500Y-52500D02*
X54000Y-52000D01*
X53500Y-50500D02*
X53500Y-51500D01*
X53500Y-48500D02*
X53500Y-49500D01*
X52500Y-49000D02*
X52500Y-48000D01*
X52500Y-51000D02*
X52500Y-50000D01*
X52500Y-53000D02*
X52500Y-52000D01*
X44094Y-53543D02*
X44094Y-53094D01*
X42500Y-52000D02*
X43500Y-52000D01*
X41500Y-51000D02*
X41500Y-52000D01*
X43500Y-51000D02*
X42500Y-51000D01*
X45500Y-51000D02*
X44500Y-51000D01*
X45500Y-53000D02*
X45500Y-52000D01*
X46500Y-54000D02*
X45500Y-54000D01*
X46500Y-52000D02*
X46500Y-53000D01*
X46500Y-50500D02*
X46500Y-51000D01*
X46000Y-50000D02*
X46500Y-50500D01*
X44000Y-50000D02*
X45000Y-50000D01*
X42000Y-50000D02*
X43000Y-50000D01*
X44094Y-53094D02*
X41000Y-50000D01*
X54800Y-54800D02*
X54200Y-54800D01*
X58600Y-51000D02*
X58400Y-51200D01*
X58000Y-51600D02*
X57600Y-52000D01*
X57200Y-52400D02*
X56800Y-52800D01*
X56400Y-53200D02*
X56000Y-53600D01*
X55600Y-54000D02*
X55200Y-54400D01*
X40000Y-39400D02*
X40400Y-39000D01*
X40800Y-38600D02*
X41200Y-38200D01*
X41600Y-37800D02*
X42000Y-37400D01*
X42400Y-37000D02*
X42800Y-36600D01*
X43200Y-36200D02*
X43600Y-35800D01*
X43200Y-54400D02*
X42800Y-54000D01*
X42400Y-53600D02*
X42000Y-53200D01*
X41600Y-52800D02*
X41200Y-52400D01*
X40800Y-52000D02*
X40400Y-51600D01*
X40000Y-51200D02*
X39800Y-51000D01*
X39800Y-51000D02*
X39800Y-50600D01*
X44094Y-53543D02*
X44094Y-54305D01*
X44094Y-54305D02*
X43600Y-54800D01*
X39800Y-40400D02*
X39800Y-39800D01*
X39800Y-41600D02*
X39800Y-41000D01*
X39800Y-42800D02*
X39800Y-42200D01*
X39800Y-44000D02*
X39800Y-43400D01*
X39800Y-45200D02*
X39800Y-44600D01*
X39800Y-46400D02*
X39800Y-45800D01*
X39800Y-47600D02*
X39800Y-47000D01*
X39800Y-48800D02*
X39800Y-48200D01*
X39800Y-50000D02*
X39800Y-49400D01*
X53800Y-35800D02*
X54400Y-35800D01*
X52600Y-35800D02*
X53200Y-35800D01*
X51400Y-35800D02*
X52000Y-35800D01*
X50200Y-35800D02*
X50800Y-35800D01*
X49000Y-35800D02*
X49600Y-35800D01*
X47800Y-35800D02*
X48400Y-35800D01*
X46600Y-35800D02*
X47200Y-35800D01*
X45400Y-35800D02*
X46000Y-35800D01*
X44200Y-35800D02*
X44800Y-35800D01*
X55000Y-35800D02*
X55400Y-36200D01*
X55800Y-36600D02*
X56200Y-37000D01*
X56600Y-37400D02*
X57000Y-37800D01*
X57400Y-38200D02*
X57800Y-38600D01*
X58200Y-39000D02*
X58600Y-39400D01*
X58600Y-49600D02*
X58600Y-50200D01*
X58600Y-48400D02*
X58600Y-49000D01*
X58600Y-47200D02*
X58600Y-47800D01*
X58600Y-46000D02*
X58600Y-46600D01*
X58600Y-44800D02*
X58600Y-45400D01*
X58600Y-43600D02*
X58600Y-44200D01*
X58600Y-42400D02*
X58600Y-43000D01*
X58600Y-41200D02*
X58600Y-41800D01*
X58600Y-40000D02*
X58600Y-40600D01*
X58600Y-50800D02*
X58600Y-51000D01*
X45200Y-54800D02*
X44600Y-54800D01*
X46400Y-54800D02*
X45800Y-54800D01*
X47600Y-54800D02*
X47000Y-54800D01*
X48800Y-54800D02*
X48200Y-54800D01*
X50000Y-54800D02*
X49400Y-54800D01*
X51200Y-54800D02*
X50600Y-54800D01*
X52400Y-54800D02*
X51800Y-54800D01*
X53600Y-54800D02*
X53000Y-54800D01*
G54D33*
X46573Y-40850D02*
X46400Y-40850D01*
X46503Y-41598D02*
X46503Y-41153D01*
X46503Y-41153D02*
X46500Y-41150D01*
X50250Y-42400D02*
X50600Y-42400D01*
X49700Y-42473D02*
X49700Y-42300D01*
X48700Y-42575D02*
X48700Y-42600D01*
X48700Y-42600D02*
X48950Y-42850D01*
X48700Y-42600D02*
X48450Y-42850D01*
X48100Y-42127D02*
X48100Y-42300D01*
X45050Y-46400D02*
X45100Y-46400D01*
X45100Y-46400D02*
X45300Y-46600D01*
X45050Y-46400D02*
X45000Y-46400D01*
X45000Y-46400D02*
X44800Y-46600D01*
X45844Y-46100D02*
X45450Y-46100D01*
X46907Y-46651D02*
X46907Y-47092D01*
X46907Y-47092D02*
X46900Y-47100D01*
X46592Y-46651D02*
X46592Y-47092D01*
X46592Y-47092D02*
X46600Y-47100D01*
X48333Y-52350D02*
X48333Y-51966D01*
X48333Y-51966D02*
X48350Y-51950D01*
X50932Y-48649D02*
X50932Y-48267D01*
X50932Y-48267D02*
X51000Y-48200D01*
X48277Y-48000D02*
X48450Y-48000D01*
X48925Y-47350D02*
X48925Y-47675D01*
X48925Y-47675D02*
X48950Y-47700D01*
X48925Y-47350D02*
X48925Y-47025D01*
X48925Y-47025D02*
X48950Y-47000D01*
X48950Y-45525D02*
X48975Y-45525D01*
X49150Y-45350D02*
X49150Y-45300D01*
X48975Y-45525D02*
X49150Y-45350D01*
X48950Y-45525D02*
X48925Y-45525D01*
X48750Y-45350D02*
X48750Y-45300D01*
X48925Y-45525D02*
X48750Y-45350D01*
X48300Y-45723D02*
X48300Y-45550D01*
G54D31*
X41732Y-47450D02*
X41550Y-47450D01*
X41550Y-47450D02*
X41540Y-47440D01*
X41732Y-47637D02*
X41732Y-47450D01*
X41732Y-47450D02*
X41732Y-47244D01*
X41732Y-47637D02*
X42197Y-47637D01*
X42197Y-47637D02*
X42200Y-47640D01*
X43749Y-43897D02*
X43275Y-43897D01*
X43770Y-43918D02*
X43749Y-43897D01*
X43275Y-43503D02*
X43755Y-43503D01*
X43755Y-43503D02*
X43770Y-43518D01*
X43762Y-43110D02*
X43275Y-43110D01*
X43770Y-43118D02*
X43762Y-43110D01*
G54D32*
X41732Y-47244D02*
X41634Y-47244D01*
G54D31*
X57087Y-44685D02*
X56692Y-44685D01*
X57120Y-44718D02*
X57087Y-44685D01*
X56692Y-44291D02*
X57093Y-44291D01*
X57093Y-44291D02*
X57120Y-44318D01*
X57099Y-43897D02*
X56692Y-43897D01*
X57120Y-43918D02*
X57099Y-43897D01*
X57092Y-47440D02*
X56692Y-47440D01*
X57120Y-47468D02*
X57092Y-47440D01*
X56692Y-47047D02*
X57099Y-47047D01*
X57099Y-47047D02*
X57120Y-47068D01*
X57105Y-46653D02*
X56692Y-46653D01*
X57120Y-46668D02*
X57105Y-46653D01*
X56692Y-47440D02*
X56297Y-47440D01*
X56297Y-47440D02*
X56270Y-47468D01*
X56290Y-47047D02*
X56692Y-47047D01*
X56270Y-47068D02*
X56290Y-47047D01*
X56692Y-46653D02*
X56284Y-46653D01*
X56284Y-46653D02*
X56270Y-46668D01*
X56692Y-46653D02*
X56692Y-47047D01*
X56692Y-47047D02*
X56692Y-47440D01*
X56692Y-44685D02*
X56303Y-44685D01*
X56303Y-44685D02*
X56270Y-44718D01*
X56296Y-44291D02*
X56692Y-44291D01*
X56270Y-44318D02*
X56296Y-44291D01*
X56692Y-43897D02*
X56692Y-44291D01*
X56692Y-44291D02*
X56692Y-44685D01*
X56290Y-43897D02*
X56692Y-43897D01*
X56270Y-43918D02*
X56290Y-43897D01*
X42780Y-43899D02*
X43275Y-43897D01*
X42760Y-43920D02*
X42780Y-43899D01*
X43275Y-43503D02*
X42784Y-43505D01*
X42784Y-43505D02*
X42770Y-43520D01*
X42787Y-43112D02*
X43275Y-43110D01*
X42780Y-43120D02*
X42787Y-43112D01*
X41732Y-47244D02*
X42175Y-47245D01*
X42175Y-47245D02*
X42200Y-47270D01*
X47900Y-52350D02*
X47900Y-53458D01*
X47900Y-53458D02*
X47900Y-53459D01*
X49200Y-38350D02*
X49450Y-38600D01*
X48766Y-48649D02*
X48766Y-48283D01*
X48766Y-48283D02*
X48850Y-48200D01*
G54D33*
X47537Y-46651D02*
X47537Y-47360D01*
X47537Y-47360D02*
X47577Y-47400D01*
G54D31*
X45962Y-45548D02*
X45301Y-45548D01*
X45301Y-45548D02*
X45050Y-45800D01*
G54D33*
X46996Y-41598D02*
X46996Y-40919D01*
X46996Y-40919D02*
X46927Y-40850D01*
X47222Y-46651D02*
X47222Y-47399D01*
X47222Y-47399D02*
X47223Y-47400D01*
G54D31*
X50499Y-48649D02*
X50499Y-47977D01*
X50499Y-47977D02*
X50550Y-47927D01*
X50066Y-48649D02*
X50066Y-47943D01*
X50066Y-47943D02*
X50050Y-47927D01*
X49200Y-49000D02*
X49000Y-49200D01*
X43600Y-47800D02*
X43000Y-47800D01*
X49200Y-48649D02*
X49200Y-49000D01*
G54D34*
X42650Y-47800D02*
X43000Y-47800D01*
X42302Y-46852D02*
X42200Y-46852D01*
X42500Y-47650D02*
X42650Y-47800D01*
X42500Y-47050D02*
X42500Y-47650D01*
X42302Y-46852D02*
X42500Y-47050D01*
G54D31*
X44350Y-48550D02*
X43600Y-47800D01*
X45000Y-49200D02*
X44350Y-48550D01*
X49000Y-49200D02*
X45000Y-49200D01*
X49200Y-48649D02*
X49200Y-48277D01*
X49200Y-48277D02*
X49550Y-47927D01*
X42182Y-46852D02*
X42200Y-46852D01*
X42200Y-46870D02*
X42182Y-46852D01*
X42200Y-46852D02*
X41732Y-46850D01*
X44800Y-49500D02*
X41400Y-49500D01*
X41293Y-46456D02*
X41150Y-46600D01*
X40950Y-46800D02*
X41150Y-46600D01*
X40950Y-48400D02*
X40950Y-46800D01*
X41732Y-46456D02*
X41293Y-46456D01*
X49633Y-49000D02*
X49633Y-49066D01*
X49633Y-49000D02*
X49633Y-48649D01*
X49200Y-49500D02*
X44800Y-49500D01*
X49633Y-49066D02*
X49200Y-49500D01*
X40950Y-49050D02*
X40950Y-48400D01*
X41400Y-49500D02*
X40950Y-49050D01*
X41732Y-46456D02*
X42188Y-46458D01*
X42188Y-46458D02*
X42200Y-46470D01*
G54D35*
X43770Y-46470D02*
X43900Y-46470D01*
X43680Y-46470D02*
X43770Y-46470D01*
G54D33*
X44170Y-46470D02*
X43900Y-46470D01*
X44170Y-46470D02*
X44305Y-46605D01*
G54D32*
X41732Y-46062D02*
X41287Y-46062D01*
X41150Y-46200D02*
X40827Y-46200D01*
X41287Y-46062D02*
X41150Y-46200D01*
G54D33*
X46277Y-46651D02*
X46277Y-47072D01*
X44800Y-47100D02*
X44305Y-46605D01*
X44850Y-47150D02*
X44800Y-47100D01*
X46200Y-47150D02*
X44850Y-47150D01*
X46277Y-47072D02*
X46200Y-47150D01*
X44305Y-46605D02*
X44300Y-46600D01*
G54D35*
X43690Y-46470D02*
X43680Y-46470D01*
X43680Y-46470D02*
X42750Y-46470D01*
X42320Y-46260D02*
X42530Y-46470D01*
X42530Y-46470D02*
X42750Y-46470D01*
X42320Y-46260D02*
X42320Y-46062D01*
G54D31*
X42314Y-46062D02*
X42320Y-46062D01*
X42320Y-46062D02*
X41732Y-46062D01*
X42320Y-46068D02*
X42314Y-46062D01*
G54D35*
X42613Y-45696D02*
X42342Y-45696D01*
X42960Y-45696D02*
X42613Y-45696D01*
X42342Y-45696D02*
X42320Y-45718D01*
X42960Y-45696D02*
X43896Y-45696D01*
G54D33*
X44750Y-45200D02*
X44250Y-45700D01*
X44250Y-45700D02*
X43900Y-45700D01*
X44750Y-45200D02*
X45100Y-45200D01*
G54D35*
X43896Y-45696D02*
X43900Y-45700D01*
G54D33*
X45750Y-45000D02*
X45300Y-45000D01*
X45300Y-45000D02*
X45100Y-45200D01*
X46277Y-45077D02*
X46200Y-45000D01*
X46200Y-45000D02*
X45750Y-45000D01*
X46277Y-45077D02*
X46277Y-45548D01*
G54D35*
X42960Y-45696D02*
X42973Y-45696D01*
G54D33*
X45100Y-45200D02*
X45100Y-45200D01*
G54D32*
X41732Y-45669D02*
X41230Y-45669D01*
X41150Y-45750D02*
X40827Y-45750D01*
X41230Y-45669D02*
X41150Y-45750D01*
G54D31*
X41732Y-45669D02*
X42271Y-45669D01*
X42271Y-45669D02*
X42320Y-45718D01*
G54D35*
X42670Y-45295D02*
X42343Y-45295D01*
X42670Y-45295D02*
X42930Y-45295D01*
X42950Y-45295D02*
X42930Y-45295D01*
X42343Y-45295D02*
X42320Y-45318D01*
X42950Y-45295D02*
X43895Y-45295D01*
G54D33*
X44950Y-44950D02*
X44600Y-44950D01*
X44600Y-44950D02*
X44250Y-45300D01*
X44250Y-45300D02*
X43900Y-45300D01*
X45150Y-44750D02*
X45000Y-44900D01*
X45750Y-44750D02*
X45150Y-44750D01*
X46592Y-44992D02*
X46350Y-44750D01*
X46350Y-44750D02*
X45750Y-44750D01*
X46592Y-44992D02*
X46592Y-45548D01*
X45000Y-44900D02*
X44950Y-44950D01*
G54D35*
X43895Y-45295D02*
X43900Y-45300D01*
G54D32*
X41732Y-45275D02*
X40851Y-45275D01*
X40851Y-45275D02*
X40827Y-45300D01*
G54D35*
X42950Y-45295D02*
X42965Y-45295D01*
G54D31*
X42277Y-45275D02*
X41732Y-45275D01*
X42320Y-45318D02*
X42277Y-45275D01*
G54D35*
X42630Y-44900D02*
X42338Y-44900D01*
G54D33*
X44900Y-44600D02*
X44800Y-44700D01*
X46503Y-42701D02*
X46503Y-42996D01*
X46503Y-42996D02*
X44900Y-44600D01*
X44250Y-44900D02*
X43900Y-44900D01*
X44450Y-44700D02*
X44250Y-44900D01*
X44800Y-44700D02*
X44450Y-44700D01*
G54D35*
X42820Y-44900D02*
X42870Y-44900D01*
X42630Y-44900D02*
X42820Y-44900D01*
X42870Y-44900D02*
X43900Y-44900D01*
X42338Y-44900D02*
X42320Y-44918D01*
G54D32*
X41732Y-44881D02*
X40858Y-44881D01*
X40858Y-44881D02*
X40827Y-44850D01*
G54D31*
X41732Y-44881D02*
X42283Y-44881D01*
X42283Y-44881D02*
X42320Y-44918D01*
G54D35*
X43650Y-44120D02*
X43900Y-44120D01*
X42750Y-44120D02*
X43650Y-44120D01*
G54D33*
X45075Y-44025D02*
X45000Y-44100D01*
X46011Y-43088D02*
X46011Y-42701D01*
X45075Y-44025D02*
X46011Y-43088D01*
X44980Y-44120D02*
X45000Y-44100D01*
X43900Y-44120D02*
X44980Y-44120D01*
G54D32*
X41732Y-44488D02*
X41188Y-44488D01*
X41100Y-44400D02*
X40827Y-44400D01*
X41188Y-44488D02*
X41100Y-44400D01*
G54D35*
X42570Y-44150D02*
X42600Y-44120D01*
X42210Y-44510D02*
X42570Y-44150D01*
X42210Y-44510D02*
X42210Y-44520D01*
X42600Y-44120D02*
X42750Y-44120D01*
X42750Y-44120D02*
X42840Y-44120D01*
G54D34*
X46011Y-42701D02*
X45951Y-42701D01*
X46011Y-42701D02*
X46011Y-42511D01*
X41720Y-44500D02*
X41732Y-44488D01*
G54D31*
X42210Y-44520D02*
X42180Y-44490D01*
X42180Y-44490D02*
X41732Y-44488D01*
X43550Y-42150D02*
X45150Y-40550D01*
G54D34*
X42500Y-43950D02*
X42330Y-44120D01*
X42210Y-44120D02*
X42330Y-44120D01*
G54D31*
X43550Y-42150D02*
X43050Y-42650D01*
X49500Y-41400D02*
X50250Y-41400D01*
X48600Y-40500D02*
X46200Y-40500D01*
X49500Y-41400D02*
X48600Y-40500D01*
X46200Y-40500D02*
X45950Y-40500D01*
G54D34*
X42950Y-42750D02*
X43050Y-42650D01*
X42750Y-42750D02*
X42950Y-42750D01*
X42500Y-43000D02*
X42750Y-42750D01*
X42500Y-43900D02*
X42500Y-43000D01*
X42500Y-43900D02*
X42500Y-43950D01*
G54D31*
X45200Y-40500D02*
X45950Y-40500D01*
X45150Y-40550D02*
X45200Y-40500D01*
G54D32*
X41732Y-44094D02*
X41194Y-44094D01*
X41050Y-43950D02*
X40827Y-43950D01*
X41194Y-44094D02*
X41050Y-43950D01*
G54D34*
X42210Y-44120D02*
X42210Y-44081D01*
G54D31*
X41732Y-44094D02*
X42186Y-44096D01*
X42186Y-44096D02*
X42210Y-44120D01*
G54D34*
X55800Y-42700D02*
X55850Y-42750D01*
X55700Y-42600D02*
X55800Y-42700D01*
X56270Y-45068D02*
X56018Y-45068D01*
G54D33*
X53500Y-41400D02*
X52750Y-41400D01*
X54700Y-42600D02*
X55350Y-42600D01*
X53500Y-41400D02*
X54700Y-42600D01*
G54D34*
X55350Y-42600D02*
X55700Y-42600D01*
X55850Y-44900D02*
X56018Y-45068D01*
X55850Y-42750D02*
X55850Y-44900D01*
G54D31*
X56280Y-45078D02*
X56692Y-45078D01*
X56270Y-45068D02*
X56280Y-45078D01*
X56692Y-45472D02*
X56274Y-45472D01*
X56274Y-45472D02*
X56270Y-45468D01*
G54D33*
X55150Y-47550D02*
X50573Y-47550D01*
G54D34*
X55210Y-47490D02*
X55150Y-47550D01*
X55450Y-47490D02*
X55210Y-47490D01*
G54D33*
X50573Y-47550D02*
X50550Y-47573D01*
G54D34*
X55750Y-47400D02*
X55690Y-47460D01*
X56692Y-45866D02*
X56033Y-45866D01*
X55850Y-47300D02*
X55750Y-47400D01*
X55850Y-46050D02*
X55850Y-47300D01*
X56033Y-45866D02*
X55850Y-46050D01*
X55660Y-47490D02*
X55450Y-47490D01*
X55450Y-47490D02*
X55480Y-47490D01*
X55690Y-47460D02*
X55660Y-47490D01*
G54D31*
X57118Y-45866D02*
X56692Y-45866D01*
X57120Y-45868D02*
X57118Y-45866D01*
G54D33*
X52100Y-50300D02*
X52100Y-51500D01*
X53430Y-45669D02*
X53430Y-45670D01*
X52100Y-50300D02*
X52100Y-48000D01*
X50499Y-52000D02*
X50650Y-51850D01*
X50650Y-51850D02*
X51600Y-51850D01*
X50499Y-52000D02*
X50499Y-52350D01*
X51750Y-51850D02*
X51600Y-51850D01*
X52100Y-51500D02*
X51750Y-51850D01*
X53430Y-45669D02*
X53430Y-45680D01*
X53430Y-45680D02*
X53430Y-45669D01*
X47222Y-45548D02*
X47222Y-45027D01*
X47350Y-44900D02*
X48750Y-44900D01*
X47222Y-45027D02*
X47350Y-44900D01*
X47488Y-42701D02*
X47488Y-43388D01*
X51019Y-45669D02*
X49800Y-44450D01*
X51019Y-45669D02*
X53430Y-45669D01*
X53430Y-45669D02*
X55149Y-45669D01*
X49500Y-44150D02*
X49800Y-44450D01*
X48250Y-44150D02*
X49500Y-44150D01*
X47488Y-43388D02*
X48250Y-44150D01*
G54D34*
X55628Y-45668D02*
X55570Y-45668D01*
G54D31*
X55149Y-45669D02*
X55568Y-45669D01*
X55568Y-45669D02*
X55570Y-45668D01*
G54D33*
X51700Y-51100D02*
X51700Y-51350D01*
X50066Y-52350D02*
X50066Y-52033D01*
X50066Y-52033D02*
X50500Y-51600D01*
X51700Y-50200D02*
X51700Y-48000D01*
X51700Y-50200D02*
X51700Y-51100D01*
X50575Y-51525D02*
X50500Y-51600D01*
X51525Y-51525D02*
X50575Y-51525D01*
X51700Y-51350D02*
X51525Y-51525D01*
X46907Y-45548D02*
X46907Y-44892D01*
X47250Y-44550D02*
X48100Y-44550D01*
X46907Y-44892D02*
X47250Y-44550D01*
X52380Y-46060D02*
X52380Y-46062D01*
X52380Y-46062D02*
X52380Y-46060D01*
X52380Y-46060D02*
X52380Y-46062D01*
X46996Y-42701D02*
X46996Y-43446D01*
X50812Y-46062D02*
X49500Y-44750D01*
X50812Y-46062D02*
X52380Y-46062D01*
X52380Y-46062D02*
X52500Y-46062D01*
X52500Y-46062D02*
X55149Y-46062D01*
X49300Y-44550D02*
X49500Y-44750D01*
X48100Y-44550D02*
X49300Y-44550D01*
X46996Y-43446D02*
X48100Y-44550D01*
G54D31*
X55564Y-46062D02*
X55149Y-46062D01*
X55570Y-46068D02*
X55564Y-46062D01*
X55149Y-44881D02*
X55533Y-44881D01*
X55533Y-44881D02*
X55570Y-44918D01*
G54D33*
X52750Y-41900D02*
X52350Y-41900D01*
X52550Y-43700D02*
X52000Y-43150D01*
X52000Y-43150D02*
X52000Y-42450D01*
X52550Y-43700D02*
X55149Y-43700D01*
X52000Y-42250D02*
X52000Y-42450D01*
X52350Y-41900D02*
X52000Y-42250D01*
G54D31*
X55552Y-43700D02*
X55149Y-43700D01*
X55570Y-43718D02*
X55552Y-43700D01*
X55540Y-44488D02*
X55149Y-44488D01*
X55570Y-44518D02*
X55540Y-44488D01*
G54D33*
X55149Y-43307D02*
X52507Y-43307D01*
X52350Y-42400D02*
X52750Y-42400D01*
X52250Y-42500D02*
X52350Y-42400D01*
X52250Y-43050D02*
X52250Y-42500D01*
X52507Y-43307D02*
X52250Y-43050D01*
G54D31*
X55149Y-43307D02*
X55559Y-43307D01*
X55559Y-43307D02*
X55570Y-43318D01*
X55562Y-45275D02*
X55149Y-45275D01*
X55570Y-45268D02*
X55562Y-45275D01*
X55149Y-44094D02*
X55546Y-44094D01*
X55546Y-44094D02*
X55570Y-44118D01*
G54D33*
X50200Y-47250D02*
X50150Y-47250D01*
G54D34*
X55510Y-47640D02*
X55350Y-47800D01*
X55810Y-47640D02*
X55540Y-47640D01*
X56050Y-47200D02*
X56050Y-47400D01*
X56190Y-46259D02*
X56050Y-46400D01*
X56050Y-46400D02*
X56050Y-47200D01*
X56692Y-46259D02*
X56190Y-46259D01*
X56050Y-47400D02*
X55850Y-47600D01*
X55850Y-47600D02*
X55810Y-47640D01*
G54D33*
X54550Y-47800D02*
X55350Y-47800D01*
X53350Y-47800D02*
X54550Y-47800D01*
X50200Y-47250D02*
X52800Y-47250D01*
G54D34*
X55540Y-47640D02*
X55510Y-47640D01*
G54D33*
X50050Y-47350D02*
X50050Y-47573D01*
X50150Y-47250D02*
X50050Y-47350D01*
G54D31*
X56692Y-46259D02*
X57111Y-46259D01*
X57111Y-46259D02*
X57120Y-46268D01*
G54D10*
G36*
X44866Y-49320D02*
X44800Y-49320D01*
X41707Y-49320D01*
X41707Y-47772D01*
X41707Y-47662D01*
X41707Y-47612D01*
X41707Y-47502D01*
X41707Y-47379D01*
X41707Y-47269D01*
X41707Y-47219D01*
X41707Y-47109D01*
X41688Y-47090D01*
X41337Y-47090D01*
X41307Y-47090D01*
X41280Y-47101D01*
X41259Y-47122D01*
X41247Y-47150D01*
X41247Y-47200D01*
X41266Y-47219D01*
X41707Y-47219D01*
X41707Y-47269D01*
X41266Y-47269D01*
X41247Y-47287D01*
X41247Y-47337D01*
X41259Y-47365D01*
X41280Y-47386D01*
X41307Y-47397D01*
X41337Y-47397D01*
X41688Y-47397D01*
X41707Y-47379D01*
X41707Y-47502D01*
X41688Y-47484D01*
X41337Y-47484D01*
X41307Y-47484D01*
X41280Y-47495D01*
X41259Y-47516D01*
X41247Y-47544D01*
X41247Y-47594D01*
X41266Y-47612D01*
X41707Y-47612D01*
X41707Y-47662D01*
X41266Y-47662D01*
X41247Y-47681D01*
X41247Y-47731D01*
X41259Y-47759D01*
X41280Y-47780D01*
X41307Y-47791D01*
X41337Y-47791D01*
X41688Y-47791D01*
X41707Y-47772D01*
X41707Y-49320D01*
X41474Y-49320D01*
X41129Y-48975D01*
X41129Y-48400D01*
X41129Y-46874D01*
X41223Y-46780D01*
X41223Y-46791D01*
X41223Y-46948D01*
X41238Y-46985D01*
X41266Y-47013D01*
X41303Y-47028D01*
X41342Y-47028D01*
X41725Y-47028D01*
X41731Y-47029D01*
X42079Y-47031D01*
X42086Y-47038D01*
X42160Y-47069D01*
X42239Y-47069D01*
X42298Y-47045D01*
X42360Y-47107D01*
X42360Y-47649D01*
X42360Y-47650D01*
X42371Y-47703D01*
X42401Y-47748D01*
X42545Y-47892D01*
X42433Y-47892D01*
X42302Y-47946D01*
X42216Y-48032D01*
X42216Y-47731D01*
X42216Y-47681D01*
X42216Y-47594D01*
X42216Y-47544D01*
X42216Y-47337D01*
X42216Y-47287D01*
X42216Y-47200D01*
X42216Y-47150D01*
X42205Y-47122D01*
X42184Y-47101D01*
X42156Y-47090D01*
X42126Y-47090D01*
X41776Y-47090D01*
X41757Y-47109D01*
X41757Y-47219D01*
X42197Y-47219D01*
X42216Y-47200D01*
X42216Y-47287D01*
X42197Y-47269D01*
X41757Y-47269D01*
X41757Y-47379D01*
X41776Y-47397D01*
X42126Y-47397D01*
X42156Y-47397D01*
X42184Y-47386D01*
X42205Y-47365D01*
X42216Y-47337D01*
X42216Y-47544D01*
X42205Y-47516D01*
X42184Y-47495D01*
X42156Y-47484D01*
X42126Y-47484D01*
X41776Y-47484D01*
X41757Y-47502D01*
X41757Y-47612D01*
X42197Y-47612D01*
X42216Y-47594D01*
X42216Y-47681D01*
X42197Y-47662D01*
X41757Y-47662D01*
X41757Y-47772D01*
X41776Y-47791D01*
X42126Y-47791D01*
X42156Y-47791D01*
X42184Y-47780D01*
X42205Y-47759D01*
X42216Y-47731D01*
X42216Y-48032D01*
X42202Y-48046D01*
X42148Y-48177D01*
X42148Y-48318D01*
X42202Y-48449D01*
X42256Y-48502D01*
X41814Y-48502D01*
X41778Y-48518D01*
X41750Y-48546D01*
X41735Y-48582D01*
X41735Y-48622D01*
X41735Y-49133D01*
X41750Y-49170D01*
X41778Y-49198D01*
X41814Y-49213D01*
X41854Y-49213D01*
X43193Y-49213D01*
X43229Y-49198D01*
X43257Y-49170D01*
X43272Y-49133D01*
X43272Y-49094D01*
X43272Y-48582D01*
X43257Y-48546D01*
X43229Y-48518D01*
X43193Y-48502D01*
X43153Y-48502D01*
X42751Y-48502D01*
X42804Y-48449D01*
X42859Y-48319D01*
X42859Y-48177D01*
X42805Y-48047D01*
X42705Y-47946D01*
X42687Y-47939D01*
X42891Y-47939D01*
X42931Y-47965D01*
X43000Y-47979D01*
X43525Y-47979D01*
X44223Y-48676D01*
X44223Y-48676D01*
X44223Y-48676D01*
X44866Y-49320D01*
X44866Y-49320D01*
G37*
G54D36*
X44866Y-49320D02*
X44800Y-49320D01*
X41707Y-49320D01*
X41707Y-47772D01*
X41707Y-47662D01*
X41707Y-47612D01*
X41707Y-47502D01*
X41707Y-47379D01*
X41707Y-47269D01*
X41707Y-47219D01*
X41707Y-47109D01*
X41688Y-47090D01*
X41337Y-47090D01*
X41307Y-47090D01*
X41280Y-47101D01*
X41259Y-47122D01*
X41247Y-47150D01*
X41247Y-47200D01*
X41266Y-47219D01*
X41707Y-47219D01*
X41707Y-47269D01*
X41266Y-47269D01*
X41247Y-47287D01*
X41247Y-47337D01*
X41259Y-47365D01*
X41280Y-47386D01*
X41307Y-47397D01*
X41337Y-47397D01*
X41688Y-47397D01*
X41707Y-47379D01*
X41707Y-47502D01*
X41688Y-47484D01*
X41337Y-47484D01*
X41307Y-47484D01*
X41280Y-47495D01*
X41259Y-47516D01*
X41247Y-47544D01*
X41247Y-47594D01*
X41266Y-47612D01*
X41707Y-47612D01*
X41707Y-47662D01*
X41266Y-47662D01*
X41247Y-47681D01*
X41247Y-47731D01*
X41259Y-47759D01*
X41280Y-47780D01*
X41307Y-47791D01*
X41337Y-47791D01*
X41688Y-47791D01*
X41707Y-47772D01*
X41707Y-49320D01*
X41474Y-49320D01*
X41129Y-48975D01*
X41129Y-48400D01*
X41129Y-46874D01*
X41223Y-46780D01*
X41223Y-46791D01*
X41223Y-46948D01*
X41238Y-46985D01*
X41266Y-47013D01*
X41303Y-47028D01*
X41342Y-47028D01*
X41725Y-47028D01*
X41731Y-47029D01*
X42079Y-47031D01*
X42086Y-47038D01*
X42160Y-47069D01*
X42239Y-47069D01*
X42298Y-47045D01*
X42360Y-47107D01*
X42360Y-47649D01*
X42360Y-47650D01*
X42371Y-47703D01*
X42401Y-47748D01*
X42545Y-47892D01*
X42433Y-47892D01*
X42302Y-47946D01*
X42216Y-48032D01*
X42216Y-47731D01*
X42216Y-47681D01*
X42216Y-47594D01*
X42216Y-47544D01*
X42216Y-47337D01*
X42216Y-47287D01*
X42216Y-47200D01*
X42216Y-47150D01*
X42205Y-47122D01*
X42184Y-47101D01*
X42156Y-47090D01*
X42126Y-47090D01*
X41776Y-47090D01*
X41757Y-47109D01*
X41757Y-47219D01*
X42197Y-47219D01*
X42216Y-47200D01*
X42216Y-47287D01*
X42197Y-47269D01*
X41757Y-47269D01*
X41757Y-47379D01*
X41776Y-47397D01*
X42126Y-47397D01*
X42156Y-47397D01*
X42184Y-47386D01*
X42205Y-47365D01*
X42216Y-47337D01*
X42216Y-47544D01*
X42205Y-47516D01*
X42184Y-47495D01*
X42156Y-47484D01*
X42126Y-47484D01*
X41776Y-47484D01*
X41757Y-47502D01*
X41757Y-47612D01*
X42197Y-47612D01*
X42216Y-47594D01*
X42216Y-47681D01*
X42197Y-47662D01*
X41757Y-47662D01*
X41757Y-47772D01*
X41776Y-47791D01*
X42126Y-47791D01*
X42156Y-47791D01*
X42184Y-47780D01*
X42205Y-47759D01*
X42216Y-47731D01*
X42216Y-48032D01*
X42202Y-48046D01*
X42148Y-48177D01*
X42148Y-48318D01*
X42202Y-48449D01*
X42256Y-48502D01*
X41814Y-48502D01*
X41778Y-48518D01*
X41750Y-48546D01*
X41735Y-48582D01*
X41735Y-48622D01*
X41735Y-49133D01*
X41750Y-49170D01*
X41778Y-49198D01*
X41814Y-49213D01*
X41854Y-49213D01*
X43193Y-49213D01*
X43229Y-49198D01*
X43257Y-49170D01*
X43272Y-49133D01*
X43272Y-49094D01*
X43272Y-48582D01*
X43257Y-48546D01*
X43229Y-48518D01*
X43193Y-48502D01*
X43153Y-48502D01*
X42751Y-48502D01*
X42804Y-48449D01*
X42859Y-48319D01*
X42859Y-48177D01*
X42805Y-48047D01*
X42705Y-47946D01*
X42687Y-47939D01*
X42891Y-47939D01*
X42931Y-47965D01*
X43000Y-47979D01*
X43525Y-47979D01*
X44223Y-48676D01*
X44223Y-48676D01*
X44223Y-48676D01*
X44866Y-49320D01*
G54D10*
G36*
X44998Y-44275D02*
X44787Y-44487D01*
X44787Y-44487D01*
X44733Y-44540D01*
X44450Y-44540D01*
X44388Y-44552D01*
X44337Y-44587D01*
X44337Y-44587D01*
X44183Y-44740D01*
X43900Y-44740D01*
X43838Y-44752D01*
X43812Y-44770D01*
X43784Y-44770D01*
X43784Y-44744D01*
X43784Y-44586D01*
X43769Y-44549D01*
X43741Y-44522D01*
X43704Y-44506D01*
X43665Y-44506D01*
X43281Y-44506D01*
X43275Y-44505D01*
X42832Y-44505D01*
X42872Y-44489D01*
X42889Y-44472D01*
X43276Y-44470D01*
X43282Y-44469D01*
X43704Y-44469D01*
X43741Y-44454D01*
X43769Y-44426D01*
X43784Y-44389D01*
X43784Y-44350D01*
X43784Y-44249D01*
X43812Y-44249D01*
X43838Y-44267D01*
X43900Y-44279D01*
X44979Y-44279D01*
X44980Y-44279D01*
X44980Y-44279D01*
X44998Y-44275D01*
X44998Y-44275D01*
G37*
G54D36*
X44998Y-44275D02*
X44787Y-44487D01*
X44787Y-44487D01*
X44733Y-44540D01*
X44450Y-44540D01*
X44388Y-44552D01*
X44337Y-44587D01*
X44337Y-44587D01*
X44183Y-44740D01*
X43900Y-44740D01*
X43838Y-44752D01*
X43812Y-44770D01*
X43784Y-44770D01*
X43784Y-44744D01*
X43784Y-44586D01*
X43769Y-44549D01*
X43741Y-44522D01*
X43704Y-44506D01*
X43665Y-44506D01*
X43281Y-44506D01*
X43275Y-44505D01*
X42832Y-44505D01*
X42872Y-44489D01*
X42889Y-44472D01*
X43276Y-44470D01*
X43282Y-44469D01*
X43704Y-44469D01*
X43741Y-44454D01*
X43769Y-44426D01*
X43784Y-44389D01*
X43784Y-44350D01*
X43784Y-44249D01*
X43812Y-44249D01*
X43838Y-44267D01*
X43900Y-44279D01*
X44979Y-44279D01*
X44980Y-44279D01*
X44980Y-44279D01*
X44998Y-44275D01*
G54D10*
G36*
X46836Y-41145D02*
X46801Y-41160D01*
X46773Y-41188D01*
X46758Y-41224D01*
X46758Y-41264D01*
X46758Y-41972D01*
X46770Y-42000D01*
X46726Y-42000D01*
X46726Y-40982D01*
X46726Y-40953D01*
X46726Y-40893D01*
X46707Y-40875D01*
X46598Y-40875D01*
X46598Y-41024D01*
X46616Y-41043D01*
X46666Y-41043D01*
X46693Y-41031D01*
X46715Y-41010D01*
X46726Y-40982D01*
X46726Y-42000D01*
X46700Y-42000D01*
X46705Y-41995D01*
X46716Y-41968D01*
X46716Y-41642D01*
X46716Y-41555D01*
X46716Y-41229D01*
X46705Y-41202D01*
X46684Y-41180D01*
X46656Y-41169D01*
X46626Y-41169D01*
X46548Y-41169D01*
X46548Y-41024D01*
X46548Y-40875D01*
X46438Y-40875D01*
X46419Y-40893D01*
X46419Y-40953D01*
X46419Y-40982D01*
X46430Y-41010D01*
X46452Y-41031D01*
X46479Y-41043D01*
X46529Y-41043D01*
X46548Y-41024D01*
X46548Y-41169D01*
X46547Y-41169D01*
X46528Y-41188D01*
X46528Y-41573D01*
X46697Y-41573D01*
X46716Y-41555D01*
X46716Y-41642D01*
X46697Y-41623D01*
X46528Y-41623D01*
X46528Y-41631D01*
X46478Y-41631D01*
X46478Y-41623D01*
X46478Y-41573D01*
X46478Y-41188D01*
X46460Y-41169D01*
X46381Y-41169D01*
X46351Y-41169D01*
X46323Y-41180D01*
X46302Y-41202D01*
X46291Y-41229D01*
X46291Y-41555D01*
X46309Y-41573D01*
X46478Y-41573D01*
X46478Y-41623D01*
X46309Y-41623D01*
X46291Y-41642D01*
X46291Y-41968D01*
X46302Y-41995D01*
X46307Y-42000D01*
X46261Y-42000D01*
X46244Y-41983D01*
X46249Y-41972D01*
X46249Y-41933D01*
X46249Y-41224D01*
X46233Y-41188D01*
X46205Y-41160D01*
X46169Y-41145D01*
X46129Y-41145D01*
X45854Y-41145D01*
X45817Y-41160D01*
X45789Y-41188D01*
X45774Y-41224D01*
X45774Y-41264D01*
X45774Y-41972D01*
X45789Y-42009D01*
X45817Y-42037D01*
X45854Y-42052D01*
X45893Y-42052D01*
X45896Y-42052D01*
X45906Y-42067D01*
X46086Y-42247D01*
X45854Y-42247D01*
X45817Y-42262D01*
X45789Y-42290D01*
X45774Y-42327D01*
X45774Y-42366D01*
X45774Y-43075D01*
X45781Y-43092D01*
X44962Y-43912D01*
X44962Y-43912D01*
X44913Y-43960D01*
X43900Y-43960D01*
X43838Y-43972D01*
X43812Y-43990D01*
X43760Y-43990D01*
X43760Y-43941D01*
X43760Y-43853D01*
X43760Y-43803D01*
X43760Y-43597D01*
X43760Y-43547D01*
X43760Y-43460D01*
X43760Y-43410D01*
X43760Y-43203D01*
X43760Y-43153D01*
X43760Y-43066D01*
X43760Y-43016D01*
X43748Y-42989D01*
X43727Y-42967D01*
X43699Y-42956D01*
X43670Y-42956D01*
X43319Y-42956D01*
X43300Y-42975D01*
X43300Y-43085D01*
X43741Y-43085D01*
X43760Y-43066D01*
X43760Y-43153D01*
X43741Y-43135D01*
X43300Y-43135D01*
X43300Y-43245D01*
X43319Y-43263D01*
X43670Y-43263D01*
X43699Y-43263D01*
X43727Y-43252D01*
X43748Y-43231D01*
X43760Y-43203D01*
X43760Y-43410D01*
X43748Y-43382D01*
X43727Y-43361D01*
X43699Y-43350D01*
X43670Y-43350D01*
X43319Y-43350D01*
X43300Y-43368D01*
X43300Y-43478D01*
X43741Y-43478D01*
X43760Y-43460D01*
X43760Y-43547D01*
X43741Y-43528D01*
X43300Y-43528D01*
X43300Y-43638D01*
X43319Y-43657D01*
X43670Y-43657D01*
X43699Y-43657D01*
X43727Y-43646D01*
X43748Y-43625D01*
X43760Y-43597D01*
X43760Y-43803D01*
X43748Y-43776D01*
X43727Y-43755D01*
X43699Y-43743D01*
X43670Y-43743D01*
X43319Y-43743D01*
X43300Y-43762D01*
X43300Y-43872D01*
X43741Y-43872D01*
X43760Y-43853D01*
X43760Y-43941D01*
X43741Y-43922D01*
X43300Y-43922D01*
X43300Y-43930D01*
X43250Y-43930D01*
X43250Y-43922D01*
X43250Y-43872D01*
X43250Y-43762D01*
X43250Y-43638D01*
X43250Y-43528D01*
X43250Y-43478D01*
X43250Y-43368D01*
X43250Y-43245D01*
X43250Y-43135D01*
X43250Y-43085D01*
X43250Y-42975D01*
X43231Y-42956D01*
X42881Y-42956D01*
X42851Y-42956D01*
X42823Y-42967D01*
X42802Y-42989D01*
X42791Y-43016D01*
X42791Y-43066D01*
X42809Y-43085D01*
X43250Y-43085D01*
X43250Y-43135D01*
X42809Y-43135D01*
X42791Y-43153D01*
X42791Y-43203D01*
X42802Y-43231D01*
X42823Y-43252D01*
X42851Y-43263D01*
X42881Y-43263D01*
X43231Y-43263D01*
X43250Y-43245D01*
X43250Y-43368D01*
X43231Y-43350D01*
X42881Y-43350D01*
X42851Y-43350D01*
X42823Y-43361D01*
X42802Y-43382D01*
X42791Y-43410D01*
X42791Y-43460D01*
X42809Y-43478D01*
X43250Y-43478D01*
X43250Y-43528D01*
X42809Y-43528D01*
X42791Y-43547D01*
X42791Y-43597D01*
X42802Y-43625D01*
X42823Y-43646D01*
X42851Y-43657D01*
X42881Y-43657D01*
X43231Y-43657D01*
X43250Y-43638D01*
X43250Y-43762D01*
X43231Y-43743D01*
X42881Y-43743D01*
X42851Y-43743D01*
X42823Y-43755D01*
X42802Y-43776D01*
X42791Y-43803D01*
X42791Y-43853D01*
X42809Y-43872D01*
X43250Y-43872D01*
X43250Y-43922D01*
X42809Y-43922D01*
X42791Y-43941D01*
X42791Y-43990D01*
X42750Y-43990D01*
X42631Y-43990D01*
X42639Y-43950D01*
X42639Y-43900D01*
X42639Y-43057D01*
X42807Y-42889D01*
X42949Y-42889D01*
X42950Y-42889D01*
X42950Y-42889D01*
X43003Y-42878D01*
X43003Y-42878D01*
X43048Y-42848D01*
X43072Y-42825D01*
X43118Y-42815D01*
X43176Y-42776D01*
X43676Y-42276D01*
X43676Y-42276D01*
X43676Y-42276D01*
X45274Y-40679D01*
X45950Y-40679D01*
X46200Y-40679D01*
X46441Y-40679D01*
X46430Y-40689D01*
X46419Y-40717D01*
X46419Y-40746D01*
X46419Y-40806D01*
X46438Y-40825D01*
X46548Y-40825D01*
X46548Y-40817D01*
X46598Y-40817D01*
X46598Y-40825D01*
X46707Y-40825D01*
X46726Y-40806D01*
X46726Y-40746D01*
X46726Y-40717D01*
X46715Y-40689D01*
X46704Y-40679D01*
X46762Y-40679D01*
X46749Y-40712D01*
X46749Y-40751D01*
X46749Y-40987D01*
X46764Y-41024D01*
X46792Y-41052D01*
X46828Y-41067D01*
X46836Y-41067D01*
X46836Y-41145D01*
X46836Y-41145D01*
G37*
G54D36*
X46836Y-41145D02*
X46801Y-41160D01*
X46773Y-41188D01*
X46758Y-41224D01*
X46758Y-41264D01*
X46758Y-41972D01*
X46770Y-42000D01*
X46726Y-42000D01*
X46726Y-40982D01*
X46726Y-40953D01*
X46726Y-40893D01*
X46707Y-40875D01*
X46598Y-40875D01*
X46598Y-41024D01*
X46616Y-41043D01*
X46666Y-41043D01*
X46693Y-41031D01*
X46715Y-41010D01*
X46726Y-40982D01*
X46726Y-42000D01*
X46700Y-42000D01*
X46705Y-41995D01*
X46716Y-41968D01*
X46716Y-41642D01*
X46716Y-41555D01*
X46716Y-41229D01*
X46705Y-41202D01*
X46684Y-41180D01*
X46656Y-41169D01*
X46626Y-41169D01*
X46548Y-41169D01*
X46548Y-41024D01*
X46548Y-40875D01*
X46438Y-40875D01*
X46419Y-40893D01*
X46419Y-40953D01*
X46419Y-40982D01*
X46430Y-41010D01*
X46452Y-41031D01*
X46479Y-41043D01*
X46529Y-41043D01*
X46548Y-41024D01*
X46548Y-41169D01*
X46547Y-41169D01*
X46528Y-41188D01*
X46528Y-41573D01*
X46697Y-41573D01*
X46716Y-41555D01*
X46716Y-41642D01*
X46697Y-41623D01*
X46528Y-41623D01*
X46528Y-41631D01*
X46478Y-41631D01*
X46478Y-41623D01*
X46478Y-41573D01*
X46478Y-41188D01*
X46460Y-41169D01*
X46381Y-41169D01*
X46351Y-41169D01*
X46323Y-41180D01*
X46302Y-41202D01*
X46291Y-41229D01*
X46291Y-41555D01*
X46309Y-41573D01*
X46478Y-41573D01*
X46478Y-41623D01*
X46309Y-41623D01*
X46291Y-41642D01*
X46291Y-41968D01*
X46302Y-41995D01*
X46307Y-42000D01*
X46261Y-42000D01*
X46244Y-41983D01*
X46249Y-41972D01*
X46249Y-41933D01*
X46249Y-41224D01*
X46233Y-41188D01*
X46205Y-41160D01*
X46169Y-41145D01*
X46129Y-41145D01*
X45854Y-41145D01*
X45817Y-41160D01*
X45789Y-41188D01*
X45774Y-41224D01*
X45774Y-41264D01*
X45774Y-41972D01*
X45789Y-42009D01*
X45817Y-42037D01*
X45854Y-42052D01*
X45893Y-42052D01*
X45896Y-42052D01*
X45906Y-42067D01*
X46086Y-42247D01*
X45854Y-42247D01*
X45817Y-42262D01*
X45789Y-42290D01*
X45774Y-42327D01*
X45774Y-42366D01*
X45774Y-43075D01*
X45781Y-43092D01*
X44962Y-43912D01*
X44962Y-43912D01*
X44913Y-43960D01*
X43900Y-43960D01*
X43838Y-43972D01*
X43812Y-43990D01*
X43760Y-43990D01*
X43760Y-43941D01*
X43760Y-43853D01*
X43760Y-43803D01*
X43760Y-43597D01*
X43760Y-43547D01*
X43760Y-43460D01*
X43760Y-43410D01*
X43760Y-43203D01*
X43760Y-43153D01*
X43760Y-43066D01*
X43760Y-43016D01*
X43748Y-42989D01*
X43727Y-42967D01*
X43699Y-42956D01*
X43670Y-42956D01*
X43319Y-42956D01*
X43300Y-42975D01*
X43300Y-43085D01*
X43741Y-43085D01*
X43760Y-43066D01*
X43760Y-43153D01*
X43741Y-43135D01*
X43300Y-43135D01*
X43300Y-43245D01*
X43319Y-43263D01*
X43670Y-43263D01*
X43699Y-43263D01*
X43727Y-43252D01*
X43748Y-43231D01*
X43760Y-43203D01*
X43760Y-43410D01*
X43748Y-43382D01*
X43727Y-43361D01*
X43699Y-43350D01*
X43670Y-43350D01*
X43319Y-43350D01*
X43300Y-43368D01*
X43300Y-43478D01*
X43741Y-43478D01*
X43760Y-43460D01*
X43760Y-43547D01*
X43741Y-43528D01*
X43300Y-43528D01*
X43300Y-43638D01*
X43319Y-43657D01*
X43670Y-43657D01*
X43699Y-43657D01*
X43727Y-43646D01*
X43748Y-43625D01*
X43760Y-43597D01*
X43760Y-43803D01*
X43748Y-43776D01*
X43727Y-43755D01*
X43699Y-43743D01*
X43670Y-43743D01*
X43319Y-43743D01*
X43300Y-43762D01*
X43300Y-43872D01*
X43741Y-43872D01*
X43760Y-43853D01*
X43760Y-43941D01*
X43741Y-43922D01*
X43300Y-43922D01*
X43300Y-43930D01*
X43250Y-43930D01*
X43250Y-43922D01*
X43250Y-43872D01*
X43250Y-43762D01*
X43250Y-43638D01*
X43250Y-43528D01*
X43250Y-43478D01*
X43250Y-43368D01*
X43250Y-43245D01*
X43250Y-43135D01*
X43250Y-43085D01*
X43250Y-42975D01*
X43231Y-42956D01*
X42881Y-42956D01*
X42851Y-42956D01*
X42823Y-42967D01*
X42802Y-42989D01*
X42791Y-43016D01*
X42791Y-43066D01*
X42809Y-43085D01*
X43250Y-43085D01*
X43250Y-43135D01*
X42809Y-43135D01*
X42791Y-43153D01*
X42791Y-43203D01*
X42802Y-43231D01*
X42823Y-43252D01*
X42851Y-43263D01*
X42881Y-43263D01*
X43231Y-43263D01*
X43250Y-43245D01*
X43250Y-43368D01*
X43231Y-43350D01*
X42881Y-43350D01*
X42851Y-43350D01*
X42823Y-43361D01*
X42802Y-43382D01*
X42791Y-43410D01*
X42791Y-43460D01*
X42809Y-43478D01*
X43250Y-43478D01*
X43250Y-43528D01*
X42809Y-43528D01*
X42791Y-43547D01*
X42791Y-43597D01*
X42802Y-43625D01*
X42823Y-43646D01*
X42851Y-43657D01*
X42881Y-43657D01*
X43231Y-43657D01*
X43250Y-43638D01*
X43250Y-43762D01*
X43231Y-43743D01*
X42881Y-43743D01*
X42851Y-43743D01*
X42823Y-43755D01*
X42802Y-43776D01*
X42791Y-43803D01*
X42791Y-43853D01*
X42809Y-43872D01*
X43250Y-43872D01*
X43250Y-43922D01*
X42809Y-43922D01*
X42791Y-43941D01*
X42791Y-43990D01*
X42750Y-43990D01*
X42631Y-43990D01*
X42639Y-43950D01*
X42639Y-43900D01*
X42639Y-43057D01*
X42807Y-42889D01*
X42949Y-42889D01*
X42950Y-42889D01*
X42950Y-42889D01*
X43003Y-42878D01*
X43003Y-42878D01*
X43048Y-42848D01*
X43072Y-42825D01*
X43118Y-42815D01*
X43176Y-42776D01*
X43676Y-42276D01*
X43676Y-42276D01*
X43676Y-42276D01*
X45274Y-40679D01*
X45950Y-40679D01*
X46200Y-40679D01*
X46441Y-40679D01*
X46430Y-40689D01*
X46419Y-40717D01*
X46419Y-40746D01*
X46419Y-40806D01*
X46438Y-40825D01*
X46548Y-40825D01*
X46548Y-40817D01*
X46598Y-40817D01*
X46598Y-40825D01*
X46707Y-40825D01*
X46726Y-40806D01*
X46726Y-40746D01*
X46726Y-40717D01*
X46715Y-40689D01*
X46704Y-40679D01*
X46762Y-40679D01*
X46749Y-40712D01*
X46749Y-40751D01*
X46749Y-40987D01*
X46764Y-41024D01*
X46792Y-41052D01*
X46828Y-41067D01*
X46836Y-41067D01*
X46836Y-41145D01*
G54D10*
G36*
X47244Y-48259D02*
X47225Y-48278D01*
X47210Y-48314D01*
X47210Y-48354D01*
X47210Y-48984D01*
X47225Y-49020D01*
X45074Y-49020D01*
X44476Y-48423D01*
X44476Y-48423D01*
X44476Y-48423D01*
X43753Y-47699D01*
X44122Y-47699D01*
X44456Y-48033D01*
X44606Y-48183D01*
X44606Y-48183D01*
X44690Y-48239D01*
X44790Y-48259D01*
X47244Y-48259D01*
X47244Y-48259D01*
G37*
G54D36*
X47244Y-48259D02*
X47225Y-48278D01*
X47210Y-48314D01*
X47210Y-48354D01*
X47210Y-48984D01*
X47225Y-49020D01*
X45074Y-49020D01*
X44476Y-48423D01*
X44476Y-48423D01*
X44476Y-48423D01*
X43753Y-47699D01*
X44122Y-47699D01*
X44456Y-48033D01*
X44606Y-48183D01*
X44606Y-48183D01*
X44690Y-48239D01*
X44790Y-48259D01*
X47244Y-48259D01*
G54D10*
G36*
X47715Y-44390D02*
X47250Y-44390D01*
X47250Y-44390D01*
X47199Y-44400D01*
X47188Y-44402D01*
X47137Y-44437D01*
X47137Y-44437D01*
X46794Y-44779D01*
X46760Y-44831D01*
X46758Y-44841D01*
X46748Y-44892D01*
X46748Y-44892D01*
X46748Y-44973D01*
X46739Y-44931D01*
X46739Y-44931D01*
X46728Y-44914D01*
X46705Y-44879D01*
X46705Y-44879D01*
X46705Y-44879D01*
X46462Y-44637D01*
X46411Y-44602D01*
X46400Y-44600D01*
X46350Y-44590D01*
X46349Y-44590D01*
X45750Y-44590D01*
X45150Y-44590D01*
X45131Y-44594D01*
X46570Y-43154D01*
X46661Y-43154D01*
X46698Y-43139D01*
X46726Y-43111D01*
X46741Y-43075D01*
X46741Y-43035D01*
X46741Y-42327D01*
X46729Y-42299D01*
X46770Y-42299D01*
X46758Y-42327D01*
X46758Y-42366D01*
X46758Y-43075D01*
X46773Y-43111D01*
X46801Y-43139D01*
X46836Y-43154D01*
X46836Y-43446D01*
X46836Y-43446D01*
X46846Y-43496D01*
X46848Y-43507D01*
X46883Y-43558D01*
X47715Y-44390D01*
X47715Y-44390D01*
G37*
G54D36*
X47715Y-44390D02*
X47250Y-44390D01*
X47250Y-44390D01*
X47199Y-44400D01*
X47188Y-44402D01*
X47137Y-44437D01*
X47137Y-44437D01*
X46794Y-44779D01*
X46760Y-44831D01*
X46758Y-44841D01*
X46748Y-44892D01*
X46748Y-44892D01*
X46748Y-44973D01*
X46739Y-44931D01*
X46739Y-44931D01*
X46728Y-44914D01*
X46705Y-44879D01*
X46705Y-44879D01*
X46705Y-44879D01*
X46462Y-44637D01*
X46411Y-44602D01*
X46400Y-44600D01*
X46350Y-44590D01*
X46349Y-44590D01*
X45750Y-44590D01*
X45150Y-44590D01*
X45131Y-44594D01*
X46570Y-43154D01*
X46661Y-43154D01*
X46698Y-43139D01*
X46726Y-43111D01*
X46741Y-43075D01*
X46741Y-43035D01*
X46741Y-42327D01*
X46729Y-42299D01*
X46770Y-42299D01*
X46758Y-42327D01*
X46758Y-42366D01*
X46758Y-43075D01*
X46773Y-43111D01*
X46801Y-43139D01*
X46836Y-43154D01*
X46836Y-43446D01*
X46836Y-43446D01*
X46846Y-43496D01*
X46848Y-43507D01*
X46883Y-43558D01*
X47715Y-44390D01*
G54D10*
G36*
X49410Y-47750D02*
X49375Y-47764D01*
X49347Y-47792D01*
X49332Y-47828D01*
X49332Y-47868D01*
X49332Y-47890D01*
X49175Y-48048D01*
X49175Y-47639D01*
X49175Y-47610D01*
X49175Y-47393D01*
X49175Y-47306D01*
X49175Y-47089D01*
X49175Y-47060D01*
X49163Y-47032D01*
X49142Y-47011D01*
X49114Y-47000D01*
X48968Y-47000D01*
X48950Y-47018D01*
X48950Y-47325D01*
X49156Y-47325D01*
X49175Y-47306D01*
X49175Y-47393D01*
X49156Y-47375D01*
X48950Y-47375D01*
X48950Y-47681D01*
X48968Y-47700D01*
X49114Y-47700D01*
X49142Y-47688D01*
X49163Y-47667D01*
X49175Y-47639D01*
X49175Y-48048D01*
X49073Y-48150D01*
X49049Y-48185D01*
X49049Y-48160D01*
X49019Y-48087D01*
X48963Y-48031D01*
X48900Y-48004D01*
X48900Y-47681D01*
X48900Y-47375D01*
X48900Y-47325D01*
X48900Y-47018D01*
X48881Y-47000D01*
X48735Y-47000D01*
X48707Y-47011D01*
X48686Y-47032D01*
X48675Y-47060D01*
X48675Y-47089D01*
X48675Y-47306D01*
X48693Y-47325D01*
X48900Y-47325D01*
X48900Y-47375D01*
X48693Y-47375D01*
X48675Y-47393D01*
X48675Y-47610D01*
X48675Y-47639D01*
X48686Y-47667D01*
X48707Y-47688D01*
X48735Y-47700D01*
X48881Y-47700D01*
X48900Y-47681D01*
X48900Y-48004D01*
X48889Y-48000D01*
X48810Y-48000D01*
X48737Y-48030D01*
X48681Y-48086D01*
X48660Y-48135D01*
X48640Y-48156D01*
X48601Y-48214D01*
X48597Y-48235D01*
X48589Y-48235D01*
X48553Y-48250D01*
X48550Y-48253D01*
X48547Y-48250D01*
X48511Y-48235D01*
X48471Y-48235D01*
X48430Y-48235D01*
X48430Y-48132D01*
X48430Y-48103D01*
X48430Y-48043D01*
X48430Y-47956D01*
X48430Y-47896D01*
X48430Y-47867D01*
X48419Y-47839D01*
X48397Y-47818D01*
X48370Y-47807D01*
X48320Y-47807D01*
X48302Y-47825D01*
X48302Y-47975D01*
X48411Y-47975D01*
X48430Y-47956D01*
X48430Y-48043D01*
X48411Y-48025D01*
X48302Y-48025D01*
X48302Y-48174D01*
X48320Y-48193D01*
X48370Y-48193D01*
X48397Y-48181D01*
X48419Y-48160D01*
X48430Y-48132D01*
X48430Y-48235D01*
X48156Y-48235D01*
X48120Y-48250D01*
X48117Y-48253D01*
X48114Y-48250D01*
X48102Y-48245D01*
X48102Y-48186D01*
X48106Y-48183D01*
X48129Y-48148D01*
X48134Y-48160D01*
X48156Y-48181D01*
X48183Y-48193D01*
X48233Y-48193D01*
X48252Y-48174D01*
X48252Y-48025D01*
X48244Y-48025D01*
X48244Y-47975D01*
X48252Y-47975D01*
X48252Y-47825D01*
X48233Y-47807D01*
X48183Y-47807D01*
X48156Y-47818D01*
X48134Y-47839D01*
X48129Y-47851D01*
X48106Y-47816D01*
X48102Y-47813D01*
X48102Y-47724D01*
X48369Y-47724D01*
X48406Y-47709D01*
X48434Y-47681D01*
X48449Y-47644D01*
X48449Y-47605D01*
X48449Y-47055D01*
X48434Y-47018D01*
X48406Y-46990D01*
X48369Y-46975D01*
X48330Y-46975D01*
X47980Y-46975D01*
X47943Y-46990D01*
X47915Y-47018D01*
X47900Y-47055D01*
X47900Y-47094D01*
X47900Y-47395D01*
X47796Y-47500D01*
X47757Y-47558D01*
X47743Y-47627D01*
X47743Y-47627D01*
X47743Y-47740D01*
X47650Y-47740D01*
X46882Y-47740D01*
X46882Y-47022D01*
X46882Y-46676D01*
X46882Y-46626D01*
X46882Y-46279D01*
X46863Y-46261D01*
X46794Y-46261D01*
X46766Y-46272D01*
X46750Y-46289D01*
X46733Y-46272D01*
X46705Y-46261D01*
X46636Y-46261D01*
X46617Y-46279D01*
X46617Y-46626D01*
X46747Y-46626D01*
X46750Y-46623D01*
X46752Y-46626D01*
X46882Y-46626D01*
X46882Y-46676D01*
X46752Y-46676D01*
X46750Y-46678D01*
X46747Y-46676D01*
X46617Y-46676D01*
X46617Y-47022D01*
X46636Y-47041D01*
X46705Y-47041D01*
X46733Y-47029D01*
X46750Y-47013D01*
X46766Y-47029D01*
X46794Y-47041D01*
X46863Y-47041D01*
X46882Y-47022D01*
X46882Y-47740D01*
X44897Y-47740D01*
X44823Y-47666D01*
X44413Y-47256D01*
X44023Y-46866D01*
X43939Y-46810D01*
X43840Y-46790D01*
X43749Y-46808D01*
X43769Y-46788D01*
X43784Y-46752D01*
X43784Y-46712D01*
X43784Y-46599D01*
X43812Y-46599D01*
X43838Y-46617D01*
X43900Y-46629D01*
X44103Y-46629D01*
X44187Y-46712D01*
X44187Y-46712D01*
X44192Y-46717D01*
X44192Y-46717D01*
X44192Y-46717D01*
X44687Y-47212D01*
X44687Y-47212D01*
X44687Y-47212D01*
X44737Y-47262D01*
X44737Y-47262D01*
X44788Y-47297D01*
X44788Y-47297D01*
X44799Y-47299D01*
X44850Y-47309D01*
X44850Y-47309D01*
X44850Y-47309D01*
X46199Y-47309D01*
X46200Y-47309D01*
X46200Y-47309D01*
X46250Y-47299D01*
X46261Y-47297D01*
X46261Y-47297D01*
X46312Y-47262D01*
X46390Y-47185D01*
X46390Y-47185D01*
X46390Y-47185D01*
X46424Y-47133D01*
X46424Y-47133D01*
X46426Y-47123D01*
X46436Y-47072D01*
X46436Y-47072D01*
X46436Y-47072D01*
X46436Y-47045D01*
X46452Y-47030D01*
X46479Y-47041D01*
X46548Y-47041D01*
X46567Y-47022D01*
X46567Y-46676D01*
X46559Y-46676D01*
X46559Y-46626D01*
X46567Y-46626D01*
X46567Y-46279D01*
X46548Y-46261D01*
X46479Y-46261D01*
X46452Y-46272D01*
X46432Y-46251D01*
X46395Y-46236D01*
X46356Y-46236D01*
X46224Y-46236D01*
X46234Y-46213D01*
X46234Y-46183D01*
X46234Y-46143D01*
X46215Y-46125D01*
X45869Y-46125D01*
X45869Y-46132D01*
X45819Y-46132D01*
X45819Y-46125D01*
X45473Y-46125D01*
X45454Y-46143D01*
X45454Y-46183D01*
X45454Y-46213D01*
X45465Y-46240D01*
X45487Y-46262D01*
X45514Y-46273D01*
X45786Y-46273D01*
X45779Y-46279D01*
X45764Y-46316D01*
X45764Y-46355D01*
X45764Y-46985D01*
X45766Y-46990D01*
X45350Y-46990D01*
X45350Y-46539D01*
X45350Y-46443D01*
X45350Y-46356D01*
X45350Y-46260D01*
X45338Y-46232D01*
X45317Y-46211D01*
X45289Y-46200D01*
X45260Y-46200D01*
X45093Y-46200D01*
X45075Y-46218D01*
X45075Y-46375D01*
X45331Y-46375D01*
X45350Y-46356D01*
X45350Y-46443D01*
X45331Y-46425D01*
X45075Y-46425D01*
X45075Y-46581D01*
X45093Y-46600D01*
X45260Y-46600D01*
X45289Y-46600D01*
X45317Y-46588D01*
X45338Y-46567D01*
X45350Y-46539D01*
X45350Y-46990D01*
X45025Y-46990D01*
X45025Y-46581D01*
X45025Y-46425D01*
X45025Y-46375D01*
X45025Y-46218D01*
X45006Y-46200D01*
X44839Y-46200D01*
X44810Y-46200D01*
X44782Y-46211D01*
X44761Y-46232D01*
X44750Y-46260D01*
X44750Y-46356D01*
X44768Y-46375D01*
X45025Y-46375D01*
X45025Y-46425D01*
X44768Y-46425D01*
X44750Y-46443D01*
X44750Y-46539D01*
X44761Y-46567D01*
X44782Y-46588D01*
X44810Y-46600D01*
X44839Y-46600D01*
X45006Y-46600D01*
X45025Y-46581D01*
X45025Y-46990D01*
X44916Y-46990D01*
X44912Y-46987D01*
X44912Y-46987D01*
X44912Y-46987D01*
X44417Y-46492D01*
X44417Y-46492D01*
X44417Y-46492D01*
X44412Y-46487D01*
X44412Y-46487D01*
X44282Y-46357D01*
X44231Y-46322D01*
X44220Y-46320D01*
X44170Y-46310D01*
X44169Y-46310D01*
X43900Y-46310D01*
X43838Y-46322D01*
X43812Y-46340D01*
X43784Y-46340D01*
X43784Y-46318D01*
X43784Y-46161D01*
X43769Y-46124D01*
X43741Y-46096D01*
X43704Y-46081D01*
X43665Y-46081D01*
X43281Y-46081D01*
X43275Y-46080D01*
X42855Y-46080D01*
X42882Y-46069D01*
X42906Y-46045D01*
X43275Y-46045D01*
X43281Y-46044D01*
X43704Y-46044D01*
X43741Y-46029D01*
X43769Y-46001D01*
X43784Y-45964D01*
X43784Y-45925D01*
X43784Y-45825D01*
X43806Y-45825D01*
X43838Y-45847D01*
X43900Y-45859D01*
X44249Y-45859D01*
X44250Y-45859D01*
X44250Y-45859D01*
X44300Y-45849D01*
X44311Y-45847D01*
X44311Y-45847D01*
X44362Y-45812D01*
X44816Y-45359D01*
X45099Y-45359D01*
X45100Y-45359D01*
X45100Y-45359D01*
X45150Y-45349D01*
X45161Y-45347D01*
X45161Y-45347D01*
X45212Y-45312D01*
X45366Y-45159D01*
X45750Y-45159D01*
X45798Y-45159D01*
X45779Y-45177D01*
X45764Y-45214D01*
X45764Y-45253D01*
X45764Y-45369D01*
X45301Y-45369D01*
X45232Y-45383D01*
X45174Y-45421D01*
X45174Y-45421D01*
X45020Y-45575D01*
X44805Y-45575D01*
X44768Y-45590D01*
X44740Y-45618D01*
X44725Y-45655D01*
X44725Y-45694D01*
X44725Y-45944D01*
X44740Y-45981D01*
X44768Y-46009D01*
X44805Y-46024D01*
X44844Y-46024D01*
X45294Y-46024D01*
X45331Y-46009D01*
X45359Y-45981D01*
X45374Y-45944D01*
X45374Y-45905D01*
X45374Y-45729D01*
X45375Y-45728D01*
X45764Y-45728D01*
X45764Y-45883D01*
X45779Y-45920D01*
X45786Y-45926D01*
X45514Y-45926D01*
X45487Y-45937D01*
X45465Y-45959D01*
X45454Y-45986D01*
X45454Y-46016D01*
X45454Y-46056D01*
X45473Y-46075D01*
X45819Y-46075D01*
X45819Y-46067D01*
X45869Y-46067D01*
X45869Y-46075D01*
X46215Y-46075D01*
X46234Y-46056D01*
X46234Y-46016D01*
X46234Y-45986D01*
X46224Y-45963D01*
X46395Y-45963D01*
X46432Y-45948D01*
X46435Y-45945D01*
X46437Y-45948D01*
X46474Y-45963D01*
X46513Y-45963D01*
X46710Y-45963D01*
X46747Y-45948D01*
X46749Y-45945D01*
X46752Y-45948D01*
X46789Y-45963D01*
X46828Y-45963D01*
X47025Y-45963D01*
X47062Y-45948D01*
X47064Y-45945D01*
X47067Y-45948D01*
X47104Y-45963D01*
X47143Y-45963D01*
X47248Y-45963D01*
X47241Y-45981D01*
X47241Y-46021D01*
X47241Y-46218D01*
X47248Y-46236D01*
X47104Y-46236D01*
X47067Y-46251D01*
X47047Y-46272D01*
X47020Y-46261D01*
X46951Y-46261D01*
X46932Y-46279D01*
X46932Y-46626D01*
X46940Y-46626D01*
X46940Y-46676D01*
X46932Y-46676D01*
X46932Y-47022D01*
X46951Y-47041D01*
X47020Y-47041D01*
X47047Y-47030D01*
X47063Y-47045D01*
X47063Y-47222D01*
X47060Y-47225D01*
X47045Y-47262D01*
X47045Y-47301D01*
X47045Y-47537D01*
X47060Y-47574D01*
X47088Y-47602D01*
X47124Y-47617D01*
X47164Y-47617D01*
X47321Y-47617D01*
X47357Y-47602D01*
X47385Y-47574D01*
X47400Y-47539D01*
X47414Y-47574D01*
X47442Y-47602D01*
X47478Y-47617D01*
X47518Y-47617D01*
X47675Y-47617D01*
X47711Y-47602D01*
X47739Y-47574D01*
X47754Y-47537D01*
X47754Y-47498D01*
X47754Y-47262D01*
X47739Y-47225D01*
X47711Y-47197D01*
X47696Y-47191D01*
X47696Y-47045D01*
X47720Y-47022D01*
X47735Y-46985D01*
X47735Y-46946D01*
X47735Y-46316D01*
X47727Y-46297D01*
X47990Y-46297D01*
X48026Y-46282D01*
X48030Y-46279D01*
X48248Y-46279D01*
X48371Y-46401D01*
X48371Y-46401D01*
X48429Y-46440D01*
X48498Y-46454D01*
X48575Y-46454D01*
X48575Y-46469D01*
X48590Y-46506D01*
X48618Y-46534D01*
X48655Y-46549D01*
X48694Y-46549D01*
X49244Y-46549D01*
X49281Y-46534D01*
X49309Y-46506D01*
X49320Y-46479D01*
X49390Y-46479D01*
X49390Y-47404D01*
X49375Y-47410D01*
X49347Y-47438D01*
X49332Y-47474D01*
X49332Y-47514D01*
X49332Y-47671D01*
X49347Y-47707D01*
X49375Y-47735D01*
X49410Y-47750D01*
X49410Y-47750D01*
G37*
G54D36*
X49410Y-47750D02*
X49375Y-47764D01*
X49347Y-47792D01*
X49332Y-47828D01*
X49332Y-47868D01*
X49332Y-47890D01*
X49175Y-48048D01*
X49175Y-47639D01*
X49175Y-47610D01*
X49175Y-47393D01*
X49175Y-47306D01*
X49175Y-47089D01*
X49175Y-47060D01*
X49163Y-47032D01*
X49142Y-47011D01*
X49114Y-47000D01*
X48968Y-47000D01*
X48950Y-47018D01*
X48950Y-47325D01*
X49156Y-47325D01*
X49175Y-47306D01*
X49175Y-47393D01*
X49156Y-47375D01*
X48950Y-47375D01*
X48950Y-47681D01*
X48968Y-47700D01*
X49114Y-47700D01*
X49142Y-47688D01*
X49163Y-47667D01*
X49175Y-47639D01*
X49175Y-48048D01*
X49073Y-48150D01*
X49049Y-48185D01*
X49049Y-48160D01*
X49019Y-48087D01*
X48963Y-48031D01*
X48900Y-48004D01*
X48900Y-47681D01*
X48900Y-47375D01*
X48900Y-47325D01*
X48900Y-47018D01*
X48881Y-47000D01*
X48735Y-47000D01*
X48707Y-47011D01*
X48686Y-47032D01*
X48675Y-47060D01*
X48675Y-47089D01*
X48675Y-47306D01*
X48693Y-47325D01*
X48900Y-47325D01*
X48900Y-47375D01*
X48693Y-47375D01*
X48675Y-47393D01*
X48675Y-47610D01*
X48675Y-47639D01*
X48686Y-47667D01*
X48707Y-47688D01*
X48735Y-47700D01*
X48881Y-47700D01*
X48900Y-47681D01*
X48900Y-48004D01*
X48889Y-48000D01*
X48810Y-48000D01*
X48737Y-48030D01*
X48681Y-48086D01*
X48660Y-48135D01*
X48640Y-48156D01*
X48601Y-48214D01*
X48597Y-48235D01*
X48589Y-48235D01*
X48553Y-48250D01*
X48550Y-48253D01*
X48547Y-48250D01*
X48511Y-48235D01*
X48471Y-48235D01*
X48430Y-48235D01*
X48430Y-48132D01*
X48430Y-48103D01*
X48430Y-48043D01*
X48430Y-47956D01*
X48430Y-47896D01*
X48430Y-47867D01*
X48419Y-47839D01*
X48397Y-47818D01*
X48370Y-47807D01*
X48320Y-47807D01*
X48302Y-47825D01*
X48302Y-47975D01*
X48411Y-47975D01*
X48430Y-47956D01*
X48430Y-48043D01*
X48411Y-48025D01*
X48302Y-48025D01*
X48302Y-48174D01*
X48320Y-48193D01*
X48370Y-48193D01*
X48397Y-48181D01*
X48419Y-48160D01*
X48430Y-48132D01*
X48430Y-48235D01*
X48156Y-48235D01*
X48120Y-48250D01*
X48117Y-48253D01*
X48114Y-48250D01*
X48102Y-48245D01*
X48102Y-48186D01*
X48106Y-48183D01*
X48129Y-48148D01*
X48134Y-48160D01*
X48156Y-48181D01*
X48183Y-48193D01*
X48233Y-48193D01*
X48252Y-48174D01*
X48252Y-48025D01*
X48244Y-48025D01*
X48244Y-47975D01*
X48252Y-47975D01*
X48252Y-47825D01*
X48233Y-47807D01*
X48183Y-47807D01*
X48156Y-47818D01*
X48134Y-47839D01*
X48129Y-47851D01*
X48106Y-47816D01*
X48102Y-47813D01*
X48102Y-47724D01*
X48369Y-47724D01*
X48406Y-47709D01*
X48434Y-47681D01*
X48449Y-47644D01*
X48449Y-47605D01*
X48449Y-47055D01*
X48434Y-47018D01*
X48406Y-46990D01*
X48369Y-46975D01*
X48330Y-46975D01*
X47980Y-46975D01*
X47943Y-46990D01*
X47915Y-47018D01*
X47900Y-47055D01*
X47900Y-47094D01*
X47900Y-47395D01*
X47796Y-47500D01*
X47757Y-47558D01*
X47743Y-47627D01*
X47743Y-47627D01*
X47743Y-47740D01*
X47650Y-47740D01*
X46882Y-47740D01*
X46882Y-47022D01*
X46882Y-46676D01*
X46882Y-46626D01*
X46882Y-46279D01*
X46863Y-46261D01*
X46794Y-46261D01*
X46766Y-46272D01*
X46750Y-46289D01*
X46733Y-46272D01*
X46705Y-46261D01*
X46636Y-46261D01*
X46617Y-46279D01*
X46617Y-46626D01*
X46747Y-46626D01*
X46750Y-46623D01*
X46752Y-46626D01*
X46882Y-46626D01*
X46882Y-46676D01*
X46752Y-46676D01*
X46750Y-46678D01*
X46747Y-46676D01*
X46617Y-46676D01*
X46617Y-47022D01*
X46636Y-47041D01*
X46705Y-47041D01*
X46733Y-47029D01*
X46750Y-47013D01*
X46766Y-47029D01*
X46794Y-47041D01*
X46863Y-47041D01*
X46882Y-47022D01*
X46882Y-47740D01*
X44897Y-47740D01*
X44823Y-47666D01*
X44413Y-47256D01*
X44023Y-46866D01*
X43939Y-46810D01*
X43840Y-46790D01*
X43749Y-46808D01*
X43769Y-46788D01*
X43784Y-46752D01*
X43784Y-46712D01*
X43784Y-46599D01*
X43812Y-46599D01*
X43838Y-46617D01*
X43900Y-46629D01*
X44103Y-46629D01*
X44187Y-46712D01*
X44187Y-46712D01*
X44192Y-46717D01*
X44192Y-46717D01*
X44192Y-46717D01*
X44687Y-47212D01*
X44687Y-47212D01*
X44687Y-47212D01*
X44737Y-47262D01*
X44737Y-47262D01*
X44788Y-47297D01*
X44788Y-47297D01*
X44799Y-47299D01*
X44850Y-47309D01*
X44850Y-47309D01*
X44850Y-47309D01*
X46199Y-47309D01*
X46200Y-47309D01*
X46200Y-47309D01*
X46250Y-47299D01*
X46261Y-47297D01*
X46261Y-47297D01*
X46312Y-47262D01*
X46390Y-47185D01*
X46390Y-47185D01*
X46390Y-47185D01*
X46424Y-47133D01*
X46424Y-47133D01*
X46426Y-47123D01*
X46436Y-47072D01*
X46436Y-47072D01*
X46436Y-47072D01*
X46436Y-47045D01*
X46452Y-47030D01*
X46479Y-47041D01*
X46548Y-47041D01*
X46567Y-47022D01*
X46567Y-46676D01*
X46559Y-46676D01*
X46559Y-46626D01*
X46567Y-46626D01*
X46567Y-46279D01*
X46548Y-46261D01*
X46479Y-46261D01*
X46452Y-46272D01*
X46432Y-46251D01*
X46395Y-46236D01*
X46356Y-46236D01*
X46224Y-46236D01*
X46234Y-46213D01*
X46234Y-46183D01*
X46234Y-46143D01*
X46215Y-46125D01*
X45869Y-46125D01*
X45869Y-46132D01*
X45819Y-46132D01*
X45819Y-46125D01*
X45473Y-46125D01*
X45454Y-46143D01*
X45454Y-46183D01*
X45454Y-46213D01*
X45465Y-46240D01*
X45487Y-46262D01*
X45514Y-46273D01*
X45786Y-46273D01*
X45779Y-46279D01*
X45764Y-46316D01*
X45764Y-46355D01*
X45764Y-46985D01*
X45766Y-46990D01*
X45350Y-46990D01*
X45350Y-46539D01*
X45350Y-46443D01*
X45350Y-46356D01*
X45350Y-46260D01*
X45338Y-46232D01*
X45317Y-46211D01*
X45289Y-46200D01*
X45260Y-46200D01*
X45093Y-46200D01*
X45075Y-46218D01*
X45075Y-46375D01*
X45331Y-46375D01*
X45350Y-46356D01*
X45350Y-46443D01*
X45331Y-46425D01*
X45075Y-46425D01*
X45075Y-46581D01*
X45093Y-46600D01*
X45260Y-46600D01*
X45289Y-46600D01*
X45317Y-46588D01*
X45338Y-46567D01*
X45350Y-46539D01*
X45350Y-46990D01*
X45025Y-46990D01*
X45025Y-46581D01*
X45025Y-46425D01*
X45025Y-46375D01*
X45025Y-46218D01*
X45006Y-46200D01*
X44839Y-46200D01*
X44810Y-46200D01*
X44782Y-46211D01*
X44761Y-46232D01*
X44750Y-46260D01*
X44750Y-46356D01*
X44768Y-46375D01*
X45025Y-46375D01*
X45025Y-46425D01*
X44768Y-46425D01*
X44750Y-46443D01*
X44750Y-46539D01*
X44761Y-46567D01*
X44782Y-46588D01*
X44810Y-46600D01*
X44839Y-46600D01*
X45006Y-46600D01*
X45025Y-46581D01*
X45025Y-46990D01*
X44916Y-46990D01*
X44912Y-46987D01*
X44912Y-46987D01*
X44912Y-46987D01*
X44417Y-46492D01*
X44417Y-46492D01*
X44417Y-46492D01*
X44412Y-46487D01*
X44412Y-46487D01*
X44282Y-46357D01*
X44231Y-46322D01*
X44220Y-46320D01*
X44170Y-46310D01*
X44169Y-46310D01*
X43900Y-46310D01*
X43838Y-46322D01*
X43812Y-46340D01*
X43784Y-46340D01*
X43784Y-46318D01*
X43784Y-46161D01*
X43769Y-46124D01*
X43741Y-46096D01*
X43704Y-46081D01*
X43665Y-46081D01*
X43281Y-46081D01*
X43275Y-46080D01*
X42855Y-46080D01*
X42882Y-46069D01*
X42906Y-46045D01*
X43275Y-46045D01*
X43281Y-46044D01*
X43704Y-46044D01*
X43741Y-46029D01*
X43769Y-46001D01*
X43784Y-45964D01*
X43784Y-45925D01*
X43784Y-45825D01*
X43806Y-45825D01*
X43838Y-45847D01*
X43900Y-45859D01*
X44249Y-45859D01*
X44250Y-45859D01*
X44250Y-45859D01*
X44300Y-45849D01*
X44311Y-45847D01*
X44311Y-45847D01*
X44362Y-45812D01*
X44816Y-45359D01*
X45099Y-45359D01*
X45100Y-45359D01*
X45100Y-45359D01*
X45150Y-45349D01*
X45161Y-45347D01*
X45161Y-45347D01*
X45212Y-45312D01*
X45366Y-45159D01*
X45750Y-45159D01*
X45798Y-45159D01*
X45779Y-45177D01*
X45764Y-45214D01*
X45764Y-45253D01*
X45764Y-45369D01*
X45301Y-45369D01*
X45232Y-45383D01*
X45174Y-45421D01*
X45174Y-45421D01*
X45020Y-45575D01*
X44805Y-45575D01*
X44768Y-45590D01*
X44740Y-45618D01*
X44725Y-45655D01*
X44725Y-45694D01*
X44725Y-45944D01*
X44740Y-45981D01*
X44768Y-46009D01*
X44805Y-46024D01*
X44844Y-46024D01*
X45294Y-46024D01*
X45331Y-46009D01*
X45359Y-45981D01*
X45374Y-45944D01*
X45374Y-45905D01*
X45374Y-45729D01*
X45375Y-45728D01*
X45764Y-45728D01*
X45764Y-45883D01*
X45779Y-45920D01*
X45786Y-45926D01*
X45514Y-45926D01*
X45487Y-45937D01*
X45465Y-45959D01*
X45454Y-45986D01*
X45454Y-46016D01*
X45454Y-46056D01*
X45473Y-46075D01*
X45819Y-46075D01*
X45819Y-46067D01*
X45869Y-46067D01*
X45869Y-46075D01*
X46215Y-46075D01*
X46234Y-46056D01*
X46234Y-46016D01*
X46234Y-45986D01*
X46224Y-45963D01*
X46395Y-45963D01*
X46432Y-45948D01*
X46435Y-45945D01*
X46437Y-45948D01*
X46474Y-45963D01*
X46513Y-45963D01*
X46710Y-45963D01*
X46747Y-45948D01*
X46749Y-45945D01*
X46752Y-45948D01*
X46789Y-45963D01*
X46828Y-45963D01*
X47025Y-45963D01*
X47062Y-45948D01*
X47064Y-45945D01*
X47067Y-45948D01*
X47104Y-45963D01*
X47143Y-45963D01*
X47248Y-45963D01*
X47241Y-45981D01*
X47241Y-46021D01*
X47241Y-46218D01*
X47248Y-46236D01*
X47104Y-46236D01*
X47067Y-46251D01*
X47047Y-46272D01*
X47020Y-46261D01*
X46951Y-46261D01*
X46932Y-46279D01*
X46932Y-46626D01*
X46940Y-46626D01*
X46940Y-46676D01*
X46932Y-46676D01*
X46932Y-47022D01*
X46951Y-47041D01*
X47020Y-47041D01*
X47047Y-47030D01*
X47063Y-47045D01*
X47063Y-47222D01*
X47060Y-47225D01*
X47045Y-47262D01*
X47045Y-47301D01*
X47045Y-47537D01*
X47060Y-47574D01*
X47088Y-47602D01*
X47124Y-47617D01*
X47164Y-47617D01*
X47321Y-47617D01*
X47357Y-47602D01*
X47385Y-47574D01*
X47400Y-47539D01*
X47414Y-47574D01*
X47442Y-47602D01*
X47478Y-47617D01*
X47518Y-47617D01*
X47675Y-47617D01*
X47711Y-47602D01*
X47739Y-47574D01*
X47754Y-47537D01*
X47754Y-47498D01*
X47754Y-47262D01*
X47739Y-47225D01*
X47711Y-47197D01*
X47696Y-47191D01*
X47696Y-47045D01*
X47720Y-47022D01*
X47735Y-46985D01*
X47735Y-46946D01*
X47735Y-46316D01*
X47727Y-46297D01*
X47990Y-46297D01*
X48026Y-46282D01*
X48030Y-46279D01*
X48248Y-46279D01*
X48371Y-46401D01*
X48371Y-46401D01*
X48429Y-46440D01*
X48498Y-46454D01*
X48575Y-46454D01*
X48575Y-46469D01*
X48590Y-46506D01*
X48618Y-46534D01*
X48655Y-46549D01*
X48694Y-46549D01*
X49244Y-46549D01*
X49281Y-46534D01*
X49309Y-46506D01*
X49320Y-46479D01*
X49390Y-46479D01*
X49390Y-47404D01*
X49375Y-47410D01*
X49347Y-47438D01*
X49332Y-47474D01*
X49332Y-47514D01*
X49332Y-47671D01*
X49347Y-47707D01*
X49375Y-47735D01*
X49410Y-47750D01*
G54D10*
G36*
X54410Y-47390D02*
X52941Y-47390D01*
X52968Y-47363D01*
X52999Y-47289D01*
X52999Y-47210D01*
X52969Y-47137D01*
X52913Y-47081D01*
X52839Y-47050D01*
X52760Y-47050D01*
X52687Y-47080D01*
X52677Y-47090D01*
X50200Y-47090D01*
X50150Y-47090D01*
X50088Y-47102D01*
X50037Y-47137D01*
X50037Y-47137D01*
X49937Y-47237D01*
X49902Y-47288D01*
X49900Y-47299D01*
X49890Y-47350D01*
X49890Y-47350D01*
X49890Y-47404D01*
X49875Y-47410D01*
X49847Y-47438D01*
X49832Y-47474D01*
X49832Y-47514D01*
X49832Y-47671D01*
X49847Y-47707D01*
X49875Y-47735D01*
X49910Y-47750D01*
X49875Y-47764D01*
X49847Y-47792D01*
X49832Y-47828D01*
X49832Y-47868D01*
X49832Y-48025D01*
X49847Y-48061D01*
X49875Y-48089D01*
X49886Y-48094D01*
X49886Y-48236D01*
X49852Y-48250D01*
X49849Y-48253D01*
X49846Y-48250D01*
X49810Y-48235D01*
X49770Y-48235D01*
X49495Y-48235D01*
X49625Y-48104D01*
X49687Y-48104D01*
X49724Y-48089D01*
X49752Y-48061D01*
X49767Y-48025D01*
X49767Y-47985D01*
X49767Y-47828D01*
X49752Y-47792D01*
X49724Y-47764D01*
X49689Y-47749D01*
X49724Y-47735D01*
X49752Y-47707D01*
X49767Y-47671D01*
X49767Y-47631D01*
X49767Y-47474D01*
X49752Y-47438D01*
X49724Y-47410D01*
X49709Y-47404D01*
X49709Y-46479D01*
X50075Y-46479D01*
X50123Y-46526D01*
X50123Y-46526D01*
X50373Y-46776D01*
X50373Y-46776D01*
X50373Y-46776D01*
X50431Y-46815D01*
X50500Y-46829D01*
X50500Y-46829D01*
X50500Y-46829D01*
X53839Y-46829D01*
X54005Y-46994D01*
X54005Y-46994D01*
X54381Y-47370D01*
X54410Y-47390D01*
X54410Y-47390D01*
G37*
G54D36*
X54410Y-47390D02*
X52941Y-47390D01*
X52968Y-47363D01*
X52999Y-47289D01*
X52999Y-47210D01*
X52969Y-47137D01*
X52913Y-47081D01*
X52839Y-47050D01*
X52760Y-47050D01*
X52687Y-47080D01*
X52677Y-47090D01*
X50200Y-47090D01*
X50150Y-47090D01*
X50088Y-47102D01*
X50037Y-47137D01*
X50037Y-47137D01*
X49937Y-47237D01*
X49902Y-47288D01*
X49900Y-47299D01*
X49890Y-47350D01*
X49890Y-47350D01*
X49890Y-47404D01*
X49875Y-47410D01*
X49847Y-47438D01*
X49832Y-47474D01*
X49832Y-47514D01*
X49832Y-47671D01*
X49847Y-47707D01*
X49875Y-47735D01*
X49910Y-47750D01*
X49875Y-47764D01*
X49847Y-47792D01*
X49832Y-47828D01*
X49832Y-47868D01*
X49832Y-48025D01*
X49847Y-48061D01*
X49875Y-48089D01*
X49886Y-48094D01*
X49886Y-48236D01*
X49852Y-48250D01*
X49849Y-48253D01*
X49846Y-48250D01*
X49810Y-48235D01*
X49770Y-48235D01*
X49495Y-48235D01*
X49625Y-48104D01*
X49687Y-48104D01*
X49724Y-48089D01*
X49752Y-48061D01*
X49767Y-48025D01*
X49767Y-47985D01*
X49767Y-47828D01*
X49752Y-47792D01*
X49724Y-47764D01*
X49689Y-47749D01*
X49724Y-47735D01*
X49752Y-47707D01*
X49767Y-47671D01*
X49767Y-47631D01*
X49767Y-47474D01*
X49752Y-47438D01*
X49724Y-47410D01*
X49709Y-47404D01*
X49709Y-46479D01*
X50075Y-46479D01*
X50123Y-46526D01*
X50123Y-46526D01*
X50373Y-46776D01*
X50373Y-46776D01*
X50373Y-46776D01*
X50431Y-46815D01*
X50500Y-46829D01*
X50500Y-46829D01*
X50500Y-46829D01*
X53839Y-46829D01*
X54005Y-46994D01*
X54005Y-46994D01*
X54381Y-47370D01*
X54410Y-47390D01*
G54D10*
G36*
X55710Y-46726D02*
X55683Y-46699D01*
X55609Y-46668D01*
X55530Y-46668D01*
X55524Y-46670D01*
X55149Y-46670D01*
X54765Y-46670D01*
X54759Y-46668D01*
X54680Y-46668D01*
X54632Y-46688D01*
X54206Y-46688D01*
X54040Y-46523D01*
X53982Y-46484D01*
X53913Y-46470D01*
X53913Y-46470D01*
X50574Y-46470D01*
X50376Y-46273D01*
X50376Y-46273D01*
X50276Y-46173D01*
X50218Y-46134D01*
X50150Y-46120D01*
X50149Y-46120D01*
X49550Y-46120D01*
X49324Y-46120D01*
X49324Y-46080D01*
X49309Y-46043D01*
X49300Y-46034D01*
X49300Y-45714D01*
X49300Y-45568D01*
X49300Y-45481D01*
X49300Y-45335D01*
X49288Y-45307D01*
X49267Y-45286D01*
X49239Y-45275D01*
X49210Y-45275D01*
X48993Y-45275D01*
X48975Y-45293D01*
X48975Y-45500D01*
X49281Y-45500D01*
X49300Y-45481D01*
X49300Y-45568D01*
X49281Y-45550D01*
X48975Y-45550D01*
X48975Y-45756D01*
X48993Y-45775D01*
X49210Y-45775D01*
X49239Y-45775D01*
X49267Y-45763D01*
X49288Y-45742D01*
X49300Y-45714D01*
X49300Y-46034D01*
X49281Y-46015D01*
X49244Y-46000D01*
X49205Y-46000D01*
X48925Y-46000D01*
X48925Y-45756D01*
X48925Y-45550D01*
X48925Y-45500D01*
X48925Y-45293D01*
X48906Y-45275D01*
X48689Y-45275D01*
X48660Y-45275D01*
X48632Y-45286D01*
X48611Y-45307D01*
X48600Y-45335D01*
X48600Y-45481D01*
X48618Y-45500D01*
X48925Y-45500D01*
X48925Y-45550D01*
X48618Y-45550D01*
X48600Y-45568D01*
X48600Y-45714D01*
X48611Y-45742D01*
X48632Y-45763D01*
X48660Y-45775D01*
X48689Y-45775D01*
X48906Y-45775D01*
X48925Y-45756D01*
X48925Y-46000D01*
X48655Y-46000D01*
X48618Y-46015D01*
X48590Y-46043D01*
X48575Y-46080D01*
X48575Y-46095D01*
X48572Y-46095D01*
X48517Y-46040D01*
X48517Y-45978D01*
X48502Y-45942D01*
X48493Y-45932D01*
X48493Y-45816D01*
X48493Y-45766D01*
X48493Y-45679D01*
X48493Y-45629D01*
X48481Y-45602D01*
X48460Y-45580D01*
X48432Y-45569D01*
X48403Y-45569D01*
X48343Y-45569D01*
X48325Y-45588D01*
X48325Y-45698D01*
X48474Y-45698D01*
X48493Y-45679D01*
X48493Y-45766D01*
X48474Y-45748D01*
X48325Y-45748D01*
X48325Y-45857D01*
X48343Y-45876D01*
X48403Y-45876D01*
X48432Y-45876D01*
X48460Y-45865D01*
X48481Y-45843D01*
X48493Y-45816D01*
X48493Y-45932D01*
X48474Y-45914D01*
X48437Y-45899D01*
X48398Y-45899D01*
X48307Y-45899D01*
X48300Y-45897D01*
X48292Y-45899D01*
X48275Y-45899D01*
X48275Y-45857D01*
X48275Y-45748D01*
X48275Y-45698D01*
X48275Y-45588D01*
X48256Y-45569D01*
X48196Y-45569D01*
X48167Y-45569D01*
X48139Y-45580D01*
X48118Y-45602D01*
X48107Y-45629D01*
X48107Y-45679D01*
X48125Y-45698D01*
X48275Y-45698D01*
X48275Y-45748D01*
X48125Y-45748D01*
X48107Y-45766D01*
X48107Y-45816D01*
X48118Y-45843D01*
X48139Y-45865D01*
X48167Y-45876D01*
X48196Y-45876D01*
X48256Y-45876D01*
X48275Y-45857D01*
X48275Y-45899D01*
X48162Y-45899D01*
X48125Y-45914D01*
X48119Y-45920D01*
X48030Y-45920D01*
X48026Y-45917D01*
X47990Y-45902D01*
X47950Y-45902D01*
X47727Y-45902D01*
X47735Y-45883D01*
X47735Y-45844D01*
X47735Y-45214D01*
X47720Y-45177D01*
X47692Y-45149D01*
X47655Y-45134D01*
X47616Y-45134D01*
X47419Y-45134D01*
X47382Y-45149D01*
X47381Y-45150D01*
X47381Y-45093D01*
X47416Y-45059D01*
X48627Y-45059D01*
X48636Y-45068D01*
X48710Y-45099D01*
X48789Y-45099D01*
X48862Y-45069D01*
X48918Y-45013D01*
X48949Y-44939D01*
X48949Y-44860D01*
X48919Y-44787D01*
X48863Y-44731D01*
X48810Y-44709D01*
X49233Y-44709D01*
X49387Y-44862D01*
X49387Y-44862D01*
X50700Y-46175D01*
X50700Y-46175D01*
X50751Y-46210D01*
X50751Y-46210D01*
X50812Y-46222D01*
X52260Y-46222D01*
X52266Y-46228D01*
X52340Y-46259D01*
X52419Y-46259D01*
X52492Y-46229D01*
X52499Y-46222D01*
X52500Y-46222D01*
X54680Y-46222D01*
X54683Y-46226D01*
X54720Y-46241D01*
X54759Y-46241D01*
X55143Y-46241D01*
X55149Y-46242D01*
X55469Y-46242D01*
X55530Y-46267D01*
X55609Y-46267D01*
X55682Y-46237D01*
X55710Y-46209D01*
X55710Y-46326D01*
X55683Y-46299D01*
X55609Y-46268D01*
X55530Y-46268D01*
X55509Y-46277D01*
X55149Y-46277D01*
X55143Y-46278D01*
X54720Y-46278D01*
X54683Y-46293D01*
X54655Y-46321D01*
X54640Y-46358D01*
X54640Y-46397D01*
X54640Y-46555D01*
X54655Y-46591D01*
X54683Y-46619D01*
X54720Y-46634D01*
X54759Y-46634D01*
X55143Y-46634D01*
X55149Y-46636D01*
X55456Y-46636D01*
X55456Y-46637D01*
X55530Y-46667D01*
X55609Y-46667D01*
X55682Y-46637D01*
X55710Y-46609D01*
X55710Y-46726D01*
X55710Y-46726D01*
G37*
G54D36*
X55710Y-46726D02*
X55683Y-46699D01*
X55609Y-46668D01*
X55530Y-46668D01*
X55524Y-46670D01*
X55149Y-46670D01*
X54765Y-46670D01*
X54759Y-46668D01*
X54680Y-46668D01*
X54632Y-46688D01*
X54206Y-46688D01*
X54040Y-46523D01*
X53982Y-46484D01*
X53913Y-46470D01*
X53913Y-46470D01*
X50574Y-46470D01*
X50376Y-46273D01*
X50376Y-46273D01*
X50276Y-46173D01*
X50218Y-46134D01*
X50150Y-46120D01*
X50149Y-46120D01*
X49550Y-46120D01*
X49324Y-46120D01*
X49324Y-46080D01*
X49309Y-46043D01*
X49300Y-46034D01*
X49300Y-45714D01*
X49300Y-45568D01*
X49300Y-45481D01*
X49300Y-45335D01*
X49288Y-45307D01*
X49267Y-45286D01*
X49239Y-45275D01*
X49210Y-45275D01*
X48993Y-45275D01*
X48975Y-45293D01*
X48975Y-45500D01*
X49281Y-45500D01*
X49300Y-45481D01*
X49300Y-45568D01*
X49281Y-45550D01*
X48975Y-45550D01*
X48975Y-45756D01*
X48993Y-45775D01*
X49210Y-45775D01*
X49239Y-45775D01*
X49267Y-45763D01*
X49288Y-45742D01*
X49300Y-45714D01*
X49300Y-46034D01*
X49281Y-46015D01*
X49244Y-46000D01*
X49205Y-46000D01*
X48925Y-46000D01*
X48925Y-45756D01*
X48925Y-45550D01*
X48925Y-45500D01*
X48925Y-45293D01*
X48906Y-45275D01*
X48689Y-45275D01*
X48660Y-45275D01*
X48632Y-45286D01*
X48611Y-45307D01*
X48600Y-45335D01*
X48600Y-45481D01*
X48618Y-45500D01*
X48925Y-45500D01*
X48925Y-45550D01*
X48618Y-45550D01*
X48600Y-45568D01*
X48600Y-45714D01*
X48611Y-45742D01*
X48632Y-45763D01*
X48660Y-45775D01*
X48689Y-45775D01*
X48906Y-45775D01*
X48925Y-45756D01*
X48925Y-46000D01*
X48655Y-46000D01*
X48618Y-46015D01*
X48590Y-46043D01*
X48575Y-46080D01*
X48575Y-46095D01*
X48572Y-46095D01*
X48517Y-46040D01*
X48517Y-45978D01*
X48502Y-45942D01*
X48493Y-45932D01*
X48493Y-45816D01*
X48493Y-45766D01*
X48493Y-45679D01*
X48493Y-45629D01*
X48481Y-45602D01*
X48460Y-45580D01*
X48432Y-45569D01*
X48403Y-45569D01*
X48343Y-45569D01*
X48325Y-45588D01*
X48325Y-45698D01*
X48474Y-45698D01*
X48493Y-45679D01*
X48493Y-45766D01*
X48474Y-45748D01*
X48325Y-45748D01*
X48325Y-45857D01*
X48343Y-45876D01*
X48403Y-45876D01*
X48432Y-45876D01*
X48460Y-45865D01*
X48481Y-45843D01*
X48493Y-45816D01*
X48493Y-45932D01*
X48474Y-45914D01*
X48437Y-45899D01*
X48398Y-45899D01*
X48307Y-45899D01*
X48300Y-45897D01*
X48292Y-45899D01*
X48275Y-45899D01*
X48275Y-45857D01*
X48275Y-45748D01*
X48275Y-45698D01*
X48275Y-45588D01*
X48256Y-45569D01*
X48196Y-45569D01*
X48167Y-45569D01*
X48139Y-45580D01*
X48118Y-45602D01*
X48107Y-45629D01*
X48107Y-45679D01*
X48125Y-45698D01*
X48275Y-45698D01*
X48275Y-45748D01*
X48125Y-45748D01*
X48107Y-45766D01*
X48107Y-45816D01*
X48118Y-45843D01*
X48139Y-45865D01*
X48167Y-45876D01*
X48196Y-45876D01*
X48256Y-45876D01*
X48275Y-45857D01*
X48275Y-45899D01*
X48162Y-45899D01*
X48125Y-45914D01*
X48119Y-45920D01*
X48030Y-45920D01*
X48026Y-45917D01*
X47990Y-45902D01*
X47950Y-45902D01*
X47727Y-45902D01*
X47735Y-45883D01*
X47735Y-45844D01*
X47735Y-45214D01*
X47720Y-45177D01*
X47692Y-45149D01*
X47655Y-45134D01*
X47616Y-45134D01*
X47419Y-45134D01*
X47382Y-45149D01*
X47381Y-45150D01*
X47381Y-45093D01*
X47416Y-45059D01*
X48627Y-45059D01*
X48636Y-45068D01*
X48710Y-45099D01*
X48789Y-45099D01*
X48862Y-45069D01*
X48918Y-45013D01*
X48949Y-44939D01*
X48949Y-44860D01*
X48919Y-44787D01*
X48863Y-44731D01*
X48810Y-44709D01*
X49233Y-44709D01*
X49387Y-44862D01*
X49387Y-44862D01*
X50700Y-46175D01*
X50700Y-46175D01*
X50751Y-46210D01*
X50751Y-46210D01*
X50812Y-46222D01*
X52260Y-46222D01*
X52266Y-46228D01*
X52340Y-46259D01*
X52419Y-46259D01*
X52492Y-46229D01*
X52499Y-46222D01*
X52500Y-46222D01*
X54680Y-46222D01*
X54683Y-46226D01*
X54720Y-46241D01*
X54759Y-46241D01*
X55143Y-46241D01*
X55149Y-46242D01*
X55469Y-46242D01*
X55530Y-46267D01*
X55609Y-46267D01*
X55682Y-46237D01*
X55710Y-46209D01*
X55710Y-46326D01*
X55683Y-46299D01*
X55609Y-46268D01*
X55530Y-46268D01*
X55509Y-46277D01*
X55149Y-46277D01*
X55143Y-46278D01*
X54720Y-46278D01*
X54683Y-46293D01*
X54655Y-46321D01*
X54640Y-46358D01*
X54640Y-46397D01*
X54640Y-46555D01*
X54655Y-46591D01*
X54683Y-46619D01*
X54720Y-46634D01*
X54759Y-46634D01*
X55143Y-46634D01*
X55149Y-46636D01*
X55456Y-46636D01*
X55456Y-46637D01*
X55530Y-46667D01*
X55609Y-46667D01*
X55682Y-46637D01*
X55710Y-46609D01*
X55710Y-46726D01*
G54D10*
G36*
X58950Y-51137D02*
X57379Y-52709D01*
X57379Y-42209D01*
X57379Y-42209D01*
X57379Y-40900D01*
X57379Y-40900D01*
X57379Y-40900D01*
X57365Y-40831D01*
X57326Y-40773D01*
X57326Y-40773D01*
X57326Y-40773D01*
X56976Y-40423D01*
X56918Y-40384D01*
X56850Y-40370D01*
X56849Y-40370D01*
X56650Y-40370D01*
X52340Y-40370D01*
X52340Y-38454D01*
X52339Y-38239D01*
X52259Y-38046D01*
X52193Y-37992D01*
X52157Y-38027D01*
X52157Y-37956D01*
X52103Y-37890D01*
X51904Y-37809D01*
X51689Y-37810D01*
X51496Y-37890D01*
X51442Y-37956D01*
X51800Y-38314D01*
X52157Y-37956D01*
X52157Y-38027D01*
X51835Y-38350D01*
X52193Y-38707D01*
X52259Y-38653D01*
X52340Y-38454D01*
X52340Y-40370D01*
X52157Y-40370D01*
X52157Y-38743D01*
X51800Y-38385D01*
X51764Y-38420D01*
X51764Y-38350D01*
X51406Y-37992D01*
X51340Y-38046D01*
X51259Y-38245D01*
X51260Y-38460D01*
X51340Y-38653D01*
X51406Y-38707D01*
X51764Y-38350D01*
X51764Y-38420D01*
X51442Y-38743D01*
X51496Y-38809D01*
X51695Y-38890D01*
X51910Y-38889D01*
X52103Y-38809D01*
X52157Y-38743D01*
X52157Y-40370D01*
X51800Y-40370D01*
X51800Y-40370D01*
X51731Y-40384D01*
X51673Y-40423D01*
X51673Y-40423D01*
X50973Y-41123D01*
X50934Y-41181D01*
X50920Y-41250D01*
X50920Y-41250D01*
X50920Y-41500D01*
X50920Y-42825D01*
X50675Y-43070D01*
X50544Y-43070D01*
X50559Y-43056D01*
X50574Y-43019D01*
X50574Y-42980D01*
X50574Y-42780D01*
X50574Y-42019D01*
X50574Y-41980D01*
X50574Y-41780D01*
X50559Y-41743D01*
X50531Y-41715D01*
X50494Y-41700D01*
X50455Y-41700D01*
X50005Y-41700D01*
X49968Y-41715D01*
X49940Y-41743D01*
X49925Y-41780D01*
X49925Y-41819D01*
X49925Y-42019D01*
X49940Y-42056D01*
X49968Y-42084D01*
X50005Y-42099D01*
X50044Y-42099D01*
X50494Y-42099D01*
X50531Y-42084D01*
X50559Y-42056D01*
X50574Y-42019D01*
X50574Y-42780D01*
X50559Y-42743D01*
X50550Y-42734D01*
X50550Y-42514D01*
X50550Y-42443D01*
X50550Y-42356D01*
X50550Y-42285D01*
X50538Y-42257D01*
X50517Y-42236D01*
X50489Y-42225D01*
X50460Y-42225D01*
X50293Y-42225D01*
X50275Y-42243D01*
X50275Y-42375D01*
X50531Y-42375D01*
X50550Y-42356D01*
X50550Y-42443D01*
X50531Y-42425D01*
X50275Y-42425D01*
X50275Y-42556D01*
X50293Y-42575D01*
X50460Y-42575D01*
X50489Y-42575D01*
X50517Y-42563D01*
X50538Y-42542D01*
X50550Y-42514D01*
X50550Y-42734D01*
X50531Y-42715D01*
X50494Y-42700D01*
X50455Y-42700D01*
X50225Y-42700D01*
X50225Y-42556D01*
X50225Y-42425D01*
X50225Y-42375D01*
X50225Y-42243D01*
X50206Y-42225D01*
X50039Y-42225D01*
X50010Y-42225D01*
X49982Y-42236D01*
X49961Y-42257D01*
X49950Y-42285D01*
X49950Y-42356D01*
X49968Y-42375D01*
X50225Y-42375D01*
X50225Y-42425D01*
X49968Y-42425D01*
X49950Y-42443D01*
X49950Y-42514D01*
X49961Y-42542D01*
X49982Y-42563D01*
X50010Y-42575D01*
X50039Y-42575D01*
X50206Y-42575D01*
X50225Y-42556D01*
X50225Y-42700D01*
X50005Y-42700D01*
X49968Y-42715D01*
X49963Y-42720D01*
X49914Y-42720D01*
X49902Y-42692D01*
X49893Y-42682D01*
X49893Y-42566D01*
X49893Y-42516D01*
X49893Y-42429D01*
X49893Y-42379D01*
X49881Y-42352D01*
X49860Y-42330D01*
X49832Y-42319D01*
X49803Y-42319D01*
X49743Y-42319D01*
X49725Y-42338D01*
X49725Y-42448D01*
X49874Y-42448D01*
X49893Y-42429D01*
X49893Y-42516D01*
X49874Y-42498D01*
X49725Y-42498D01*
X49725Y-42607D01*
X49743Y-42626D01*
X49803Y-42626D01*
X49832Y-42626D01*
X49860Y-42615D01*
X49881Y-42593D01*
X49893Y-42566D01*
X49893Y-42682D01*
X49874Y-42664D01*
X49837Y-42649D01*
X49798Y-42649D01*
X49707Y-42649D01*
X49700Y-42647D01*
X49692Y-42649D01*
X49675Y-42649D01*
X49675Y-42607D01*
X49675Y-42498D01*
X49675Y-42448D01*
X49675Y-42338D01*
X49656Y-42319D01*
X49596Y-42319D01*
X49567Y-42319D01*
X49539Y-42330D01*
X49518Y-42352D01*
X49507Y-42379D01*
X49507Y-42429D01*
X49525Y-42448D01*
X49675Y-42448D01*
X49675Y-42498D01*
X49525Y-42498D01*
X49507Y-42516D01*
X49507Y-42566D01*
X49518Y-42593D01*
X49539Y-42615D01*
X49567Y-42626D01*
X49596Y-42626D01*
X49656Y-42626D01*
X49675Y-42607D01*
X49675Y-42649D01*
X49562Y-42649D01*
X49525Y-42664D01*
X49497Y-42692D01*
X49482Y-42728D01*
X49482Y-42768D01*
X49482Y-42925D01*
X49497Y-42961D01*
X49520Y-42984D01*
X49520Y-43099D01*
X49520Y-43100D01*
X49534Y-43168D01*
X49573Y-43226D01*
X49716Y-43370D01*
X49624Y-43370D01*
X49479Y-43225D01*
X49479Y-41950D01*
X49479Y-41950D01*
X49479Y-41950D01*
X49465Y-41881D01*
X49426Y-41823D01*
X49426Y-41823D01*
X49426Y-41823D01*
X49301Y-41698D01*
X49243Y-41659D01*
X49175Y-41645D01*
X49174Y-41645D01*
X49074Y-41645D01*
X49074Y-41630D01*
X49059Y-41593D01*
X49031Y-41565D01*
X48994Y-41550D01*
X48955Y-41550D01*
X48405Y-41550D01*
X48368Y-41565D01*
X48340Y-41593D01*
X48332Y-41613D01*
X48277Y-41613D01*
X48274Y-41610D01*
X48237Y-41595D01*
X48198Y-41595D01*
X48147Y-41595D01*
X48038Y-41486D01*
X47986Y-41451D01*
X47976Y-41449D01*
X47925Y-41439D01*
X47925Y-41439D01*
X47725Y-41439D01*
X47725Y-41224D01*
X47710Y-41188D01*
X47682Y-41160D01*
X47645Y-41145D01*
X47606Y-41145D01*
X47330Y-41145D01*
X47294Y-41160D01*
X47266Y-41188D01*
X47250Y-41224D01*
X47250Y-41264D01*
X47250Y-41972D01*
X47262Y-42000D01*
X47221Y-42000D01*
X47233Y-41972D01*
X47233Y-41933D01*
X47233Y-41224D01*
X47218Y-41188D01*
X47190Y-41160D01*
X47155Y-41145D01*
X47155Y-40919D01*
X47143Y-40858D01*
X47108Y-40806D01*
X47108Y-40806D01*
X47104Y-40802D01*
X47104Y-40712D01*
X47091Y-40679D01*
X48525Y-40679D01*
X49373Y-41526D01*
X49373Y-41526D01*
X49431Y-41565D01*
X49500Y-41579D01*
X49963Y-41579D01*
X49968Y-41584D01*
X50005Y-41599D01*
X50044Y-41599D01*
X50494Y-41599D01*
X50531Y-41584D01*
X50559Y-41556D01*
X50574Y-41519D01*
X50574Y-41480D01*
X50574Y-41280D01*
X50559Y-41243D01*
X50531Y-41215D01*
X50494Y-41200D01*
X50455Y-41200D01*
X50049Y-41200D01*
X50049Y-38181D01*
X49920Y-37869D01*
X49681Y-37630D01*
X49369Y-37500D01*
X49031Y-37500D01*
X48719Y-37629D01*
X48480Y-37868D01*
X48350Y-38180D01*
X48350Y-38518D01*
X48479Y-38830D01*
X48718Y-39069D01*
X49030Y-39199D01*
X49368Y-39199D01*
X49680Y-39070D01*
X49919Y-38831D01*
X50049Y-38519D01*
X50049Y-38181D01*
X50049Y-41200D01*
X50005Y-41200D01*
X49968Y-41215D01*
X49963Y-41220D01*
X49574Y-41220D01*
X48726Y-40373D01*
X48668Y-40334D01*
X48600Y-40320D01*
X48599Y-40320D01*
X47140Y-40320D01*
X47140Y-38454D01*
X47139Y-38239D01*
X47059Y-38046D01*
X46993Y-37992D01*
X46957Y-38027D01*
X46957Y-37956D01*
X46903Y-37890D01*
X46704Y-37809D01*
X46489Y-37810D01*
X46296Y-37890D01*
X46242Y-37956D01*
X46600Y-38314D01*
X46957Y-37956D01*
X46957Y-38027D01*
X46635Y-38350D01*
X46993Y-38707D01*
X47059Y-38653D01*
X47140Y-38454D01*
X47140Y-40320D01*
X46957Y-40320D01*
X46957Y-38743D01*
X46600Y-38385D01*
X46564Y-38420D01*
X46564Y-38350D01*
X46206Y-37992D01*
X46140Y-38046D01*
X46059Y-38245D01*
X46060Y-38460D01*
X46140Y-38653D01*
X46206Y-38707D01*
X46564Y-38350D01*
X46564Y-38420D01*
X46242Y-38743D01*
X46296Y-38809D01*
X46495Y-38890D01*
X46710Y-38889D01*
X46903Y-38809D01*
X46957Y-38743D01*
X46957Y-40320D01*
X46200Y-40320D01*
X45950Y-40320D01*
X45200Y-40320D01*
X45200Y-40320D01*
X45131Y-40334D01*
X45073Y-40373D01*
X45073Y-40373D01*
X45023Y-40423D01*
X43423Y-42023D01*
X43423Y-42023D01*
X43272Y-42173D01*
X43272Y-41968D01*
X43272Y-41929D01*
X43272Y-41417D01*
X43257Y-41380D01*
X43229Y-41352D01*
X43193Y-41337D01*
X43153Y-41337D01*
X41814Y-41337D01*
X41778Y-41352D01*
X41750Y-41380D01*
X41735Y-41417D01*
X41735Y-41456D01*
X41735Y-41968D01*
X41750Y-42005D01*
X41778Y-42033D01*
X41814Y-42048D01*
X41854Y-42048D01*
X42256Y-42048D01*
X42202Y-42101D01*
X42148Y-42232D01*
X42148Y-42373D01*
X42202Y-42504D01*
X42302Y-42604D01*
X42432Y-42658D01*
X42574Y-42658D01*
X42704Y-42604D01*
X42804Y-42504D01*
X42859Y-42374D01*
X42859Y-42232D01*
X42805Y-42102D01*
X42751Y-42048D01*
X43193Y-42048D01*
X43229Y-42033D01*
X43257Y-42005D01*
X43272Y-41968D01*
X43272Y-42173D01*
X42923Y-42523D01*
X42884Y-42581D01*
X42878Y-42610D01*
X42750Y-42610D01*
X42750Y-42610D01*
X42696Y-42621D01*
X42651Y-42651D01*
X42651Y-42651D01*
X42409Y-42893D01*
X42409Y-42880D01*
X42379Y-42807D01*
X42323Y-42751D01*
X42249Y-42720D01*
X42170Y-42720D01*
X42134Y-42735D01*
X42121Y-42735D01*
X42047Y-42735D01*
X41733Y-42733D01*
X41732Y-42734D01*
X41732Y-42733D01*
X41296Y-42733D01*
X41259Y-42718D01*
X41180Y-42718D01*
X41132Y-42738D01*
X40631Y-42738D01*
X40563Y-42752D01*
X40505Y-42791D01*
X40505Y-42791D01*
X40346Y-42950D01*
X40307Y-43008D01*
X40293Y-43077D01*
X40293Y-43077D01*
X40293Y-43476D01*
X40293Y-43477D01*
X40293Y-43477D01*
X40293Y-43950D01*
X40293Y-44400D01*
X40293Y-44850D01*
X40293Y-45300D01*
X40293Y-45750D01*
X40293Y-46200D01*
X40295Y-46207D01*
X40295Y-46337D01*
X40310Y-46374D01*
X40338Y-46402D01*
X40374Y-46417D01*
X40414Y-46417D01*
X40571Y-46417D01*
X40607Y-46402D01*
X40635Y-46374D01*
X40650Y-46339D01*
X40664Y-46374D01*
X40692Y-46402D01*
X40728Y-46417D01*
X40768Y-46417D01*
X40925Y-46417D01*
X40961Y-46402D01*
X40989Y-46374D01*
X41000Y-46349D01*
X41146Y-46349D01*
X41023Y-46473D01*
X41023Y-46473D01*
X40823Y-46673D01*
X40784Y-46731D01*
X40770Y-46800D01*
X40770Y-46800D01*
X40770Y-48400D01*
X40770Y-49049D01*
X40770Y-49050D01*
X40784Y-49118D01*
X40823Y-49176D01*
X41273Y-49626D01*
X41273Y-49626D01*
X41331Y-49665D01*
X41400Y-49679D01*
X41400Y-49679D01*
X41400Y-49679D01*
X44800Y-49679D01*
X49199Y-49679D01*
X49200Y-49679D01*
X49200Y-49679D01*
X49268Y-49665D01*
X49326Y-49626D01*
X49759Y-49193D01*
X49798Y-49135D01*
X49812Y-49066D01*
X49812Y-49066D01*
X49812Y-49066D01*
X49812Y-49063D01*
X49846Y-49048D01*
X49849Y-49046D01*
X49852Y-49048D01*
X49888Y-49063D01*
X49928Y-49063D01*
X50243Y-49063D01*
X50279Y-49048D01*
X50282Y-49046D01*
X50285Y-49048D01*
X50321Y-49063D01*
X50361Y-49063D01*
X50676Y-49063D01*
X50713Y-49048D01*
X50733Y-49028D01*
X50759Y-49039D01*
X50789Y-49039D01*
X50888Y-49039D01*
X50907Y-49020D01*
X50907Y-48674D01*
X50899Y-48674D01*
X50899Y-48624D01*
X50907Y-48624D01*
X50907Y-48278D01*
X50888Y-48259D01*
X50789Y-48259D01*
X50759Y-48259D01*
X50733Y-48270D01*
X50713Y-48250D01*
X50678Y-48236D01*
X50678Y-48104D01*
X50687Y-48104D01*
X50724Y-48089D01*
X50752Y-48061D01*
X50767Y-48025D01*
X50767Y-47985D01*
X50767Y-47828D01*
X50752Y-47792D01*
X50724Y-47764D01*
X50689Y-47749D01*
X50724Y-47735D01*
X50750Y-47709D01*
X53171Y-47709D01*
X53150Y-47760D01*
X53150Y-47839D01*
X53180Y-47912D01*
X53236Y-47968D01*
X53310Y-47999D01*
X53389Y-47999D01*
X53462Y-47969D01*
X53472Y-47959D01*
X54550Y-47959D01*
X55350Y-47959D01*
X55411Y-47947D01*
X55462Y-47912D01*
X55497Y-47861D01*
X55500Y-47847D01*
X55567Y-47779D01*
X55690Y-47779D01*
X55620Y-47849D01*
X55566Y-47980D01*
X55565Y-48121D01*
X55619Y-48252D01*
X55673Y-48306D01*
X55232Y-48306D01*
X55195Y-48321D01*
X55167Y-48349D01*
X55152Y-48385D01*
X55152Y-48425D01*
X55152Y-48937D01*
X55167Y-48973D01*
X55195Y-49001D01*
X55232Y-49016D01*
X55271Y-49016D01*
X56610Y-49016D01*
X56646Y-49001D01*
X56674Y-48973D01*
X56689Y-48937D01*
X56689Y-48897D01*
X56689Y-48385D01*
X56674Y-48349D01*
X56667Y-48342D01*
X56667Y-47575D01*
X56667Y-47465D01*
X56667Y-47415D01*
X56667Y-47305D01*
X56667Y-47182D01*
X56667Y-47072D01*
X56667Y-47022D01*
X56667Y-46912D01*
X56667Y-46788D01*
X56667Y-46678D01*
X56667Y-46628D01*
X56667Y-46518D01*
X56649Y-46499D01*
X56298Y-46499D01*
X56268Y-46499D01*
X56240Y-46511D01*
X56219Y-46532D01*
X56208Y-46559D01*
X56208Y-46609D01*
X56227Y-46628D01*
X56667Y-46628D01*
X56667Y-46678D01*
X56227Y-46678D01*
X56208Y-46697D01*
X56208Y-46747D01*
X56219Y-46774D01*
X56240Y-46795D01*
X56268Y-46807D01*
X56298Y-46807D01*
X56649Y-46807D01*
X56667Y-46788D01*
X56667Y-46912D01*
X56649Y-46893D01*
X56298Y-46893D01*
X56268Y-46893D01*
X56240Y-46904D01*
X56219Y-46926D01*
X56208Y-46953D01*
X56208Y-47003D01*
X56227Y-47022D01*
X56667Y-47022D01*
X56667Y-47072D01*
X56227Y-47072D01*
X56208Y-47090D01*
X56208Y-47140D01*
X56219Y-47168D01*
X56240Y-47189D01*
X56268Y-47200D01*
X56298Y-47200D01*
X56649Y-47200D01*
X56667Y-47182D01*
X56667Y-47305D01*
X56649Y-47287D01*
X56298Y-47287D01*
X56268Y-47287D01*
X56240Y-47298D01*
X56219Y-47319D01*
X56208Y-47347D01*
X56208Y-47397D01*
X56227Y-47415D01*
X56667Y-47415D01*
X56667Y-47465D01*
X56227Y-47465D01*
X56208Y-47484D01*
X56208Y-47534D01*
X56219Y-47562D01*
X56240Y-47583D01*
X56268Y-47594D01*
X56298Y-47594D01*
X56649Y-47594D01*
X56667Y-47575D01*
X56667Y-48342D01*
X56646Y-48321D01*
X56610Y-48306D01*
X56570Y-48306D01*
X56168Y-48306D01*
X56222Y-48252D01*
X56276Y-48122D01*
X56276Y-47980D01*
X56222Y-47850D01*
X56122Y-47750D01*
X55992Y-47695D01*
X55951Y-47695D01*
X56148Y-47498D01*
X56148Y-47498D01*
X56148Y-47498D01*
X56178Y-47453D01*
X56178Y-47453D01*
X56189Y-47400D01*
X56189Y-47200D01*
X56189Y-46457D01*
X56225Y-46421D01*
X56227Y-46422D01*
X56263Y-46437D01*
X56303Y-46437D01*
X56686Y-46437D01*
X56692Y-46439D01*
X57012Y-46439D01*
X57080Y-46467D01*
X57159Y-46467D01*
X57232Y-46437D01*
X57289Y-46381D01*
X57319Y-46307D01*
X57319Y-46228D01*
X57289Y-46155D01*
X57233Y-46099D01*
X57159Y-46068D01*
X57080Y-46068D01*
X57052Y-46080D01*
X56692Y-46080D01*
X56686Y-46081D01*
X56263Y-46081D01*
X56227Y-46096D01*
X56203Y-46120D01*
X56190Y-46120D01*
X56190Y-46120D01*
X56136Y-46131D01*
X56118Y-46143D01*
X56091Y-46161D01*
X56091Y-46161D01*
X55989Y-46263D01*
X55989Y-46107D01*
X56091Y-46005D01*
X56203Y-46005D01*
X56227Y-46029D01*
X56263Y-46044D01*
X56303Y-46044D01*
X56686Y-46044D01*
X56692Y-46045D01*
X57027Y-46045D01*
X57080Y-46067D01*
X57159Y-46067D01*
X57232Y-46037D01*
X57289Y-45981D01*
X57319Y-45907D01*
X57319Y-45828D01*
X57289Y-45755D01*
X57233Y-45699D01*
X57201Y-45686D01*
X57201Y-45570D01*
X57201Y-45531D01*
X57201Y-45373D01*
X57201Y-45177D01*
X57201Y-45137D01*
X57201Y-44980D01*
X57186Y-44943D01*
X57177Y-44934D01*
X57177Y-44778D01*
X57177Y-44728D01*
X57177Y-44641D01*
X57177Y-44591D01*
X57177Y-44384D01*
X57177Y-44335D01*
X57177Y-44247D01*
X57177Y-44197D01*
X57177Y-43991D01*
X57177Y-43941D01*
X57177Y-43853D01*
X57177Y-43803D01*
X57165Y-43776D01*
X57144Y-43755D01*
X57117Y-43743D01*
X57087Y-43743D01*
X56736Y-43743D01*
X56717Y-43762D01*
X56717Y-43872D01*
X57158Y-43872D01*
X57177Y-43853D01*
X57177Y-43941D01*
X57158Y-43922D01*
X56717Y-43922D01*
X56717Y-44032D01*
X56736Y-44051D01*
X57087Y-44051D01*
X57117Y-44051D01*
X57144Y-44039D01*
X57165Y-44018D01*
X57177Y-43991D01*
X57177Y-44197D01*
X57165Y-44170D01*
X57144Y-44149D01*
X57117Y-44137D01*
X57087Y-44137D01*
X56736Y-44137D01*
X56717Y-44156D01*
X56717Y-44266D01*
X57158Y-44266D01*
X57177Y-44247D01*
X57177Y-44335D01*
X57158Y-44316D01*
X56717Y-44316D01*
X56717Y-44426D01*
X56736Y-44445D01*
X57087Y-44445D01*
X57117Y-44445D01*
X57144Y-44433D01*
X57165Y-44412D01*
X57177Y-44384D01*
X57177Y-44591D01*
X57165Y-44563D01*
X57144Y-44542D01*
X57117Y-44531D01*
X57087Y-44531D01*
X56736Y-44531D01*
X56717Y-44550D01*
X56717Y-44660D01*
X57158Y-44660D01*
X57177Y-44641D01*
X57177Y-44728D01*
X57158Y-44710D01*
X56717Y-44710D01*
X56717Y-44820D01*
X56736Y-44838D01*
X57087Y-44838D01*
X57117Y-44838D01*
X57144Y-44827D01*
X57165Y-44806D01*
X57177Y-44778D01*
X57177Y-44934D01*
X57158Y-44915D01*
X57122Y-44900D01*
X57082Y-44900D01*
X56699Y-44900D01*
X56692Y-44899D01*
X56667Y-44899D01*
X56667Y-44820D01*
X56667Y-44710D01*
X56667Y-44660D01*
X56667Y-44550D01*
X56667Y-44426D01*
X56667Y-44316D01*
X56667Y-44266D01*
X56667Y-44156D01*
X56667Y-44032D01*
X56667Y-43922D01*
X56667Y-43872D01*
X56667Y-43762D01*
X56649Y-43743D01*
X56298Y-43743D01*
X56268Y-43743D01*
X56240Y-43755D01*
X56219Y-43776D01*
X56208Y-43803D01*
X56208Y-43853D01*
X56227Y-43872D01*
X56667Y-43872D01*
X56667Y-43922D01*
X56227Y-43922D01*
X56208Y-43941D01*
X56208Y-43991D01*
X56219Y-44018D01*
X56240Y-44039D01*
X56268Y-44051D01*
X56298Y-44051D01*
X56649Y-44051D01*
X56667Y-44032D01*
X56667Y-44156D01*
X56649Y-44137D01*
X56298Y-44137D01*
X56268Y-44137D01*
X56240Y-44149D01*
X56219Y-44170D01*
X56208Y-44197D01*
X56208Y-44247D01*
X56227Y-44266D01*
X56667Y-44266D01*
X56667Y-44316D01*
X56227Y-44316D01*
X56208Y-44335D01*
X56208Y-44384D01*
X56219Y-44412D01*
X56240Y-44433D01*
X56268Y-44445D01*
X56298Y-44445D01*
X56649Y-44445D01*
X56667Y-44426D01*
X56667Y-44550D01*
X56649Y-44531D01*
X56298Y-44531D01*
X56268Y-44531D01*
X56240Y-44542D01*
X56219Y-44563D01*
X56208Y-44591D01*
X56208Y-44641D01*
X56227Y-44660D01*
X56667Y-44660D01*
X56667Y-44710D01*
X56227Y-44710D01*
X56208Y-44728D01*
X56208Y-44778D01*
X56219Y-44806D01*
X56240Y-44827D01*
X56268Y-44838D01*
X56298Y-44838D01*
X56649Y-44838D01*
X56667Y-44820D01*
X56667Y-44899D01*
X56383Y-44899D01*
X56383Y-44899D01*
X56309Y-44868D01*
X56230Y-44868D01*
X56157Y-44898D01*
X56127Y-44928D01*
X56075Y-44928D01*
X55989Y-44842D01*
X55989Y-42750D01*
X55989Y-42750D01*
X55989Y-42750D01*
X55978Y-42696D01*
X55978Y-42696D01*
X55966Y-42678D01*
X55948Y-42651D01*
X55948Y-42651D01*
X55898Y-42601D01*
X55898Y-42601D01*
X55798Y-42501D01*
X55753Y-42471D01*
X55700Y-42460D01*
X55699Y-42460D01*
X55422Y-42460D01*
X55411Y-42452D01*
X55350Y-42440D01*
X54766Y-42440D01*
X53612Y-41287D01*
X53561Y-41252D01*
X53550Y-41250D01*
X53500Y-41240D01*
X53499Y-41240D01*
X53056Y-41240D01*
X53031Y-41215D01*
X52994Y-41200D01*
X52955Y-41200D01*
X52505Y-41200D01*
X52468Y-41215D01*
X52440Y-41243D01*
X52425Y-41280D01*
X52425Y-41319D01*
X52425Y-41519D01*
X52440Y-41556D01*
X52468Y-41584D01*
X52505Y-41599D01*
X52544Y-41599D01*
X52994Y-41599D01*
X53031Y-41584D01*
X53056Y-41559D01*
X53433Y-41559D01*
X54587Y-42712D01*
X54587Y-42712D01*
X54587Y-42712D01*
X54628Y-42740D01*
X53056Y-42740D01*
X53031Y-42715D01*
X52994Y-42700D01*
X52955Y-42700D01*
X52505Y-42700D01*
X52468Y-42715D01*
X52440Y-42743D01*
X52425Y-42780D01*
X52425Y-42819D01*
X52425Y-43000D01*
X52409Y-42983D01*
X52409Y-42566D01*
X52416Y-42559D01*
X52443Y-42559D01*
X52468Y-42584D01*
X52505Y-42599D01*
X52544Y-42599D01*
X52994Y-42599D01*
X53031Y-42584D01*
X53059Y-42556D01*
X53074Y-42519D01*
X53074Y-42480D01*
X53074Y-42280D01*
X53059Y-42243D01*
X53031Y-42215D01*
X52994Y-42200D01*
X52955Y-42200D01*
X52505Y-42200D01*
X52468Y-42215D01*
X52443Y-42240D01*
X52350Y-42240D01*
X52288Y-42252D01*
X52237Y-42287D01*
X52237Y-42287D01*
X52159Y-42365D01*
X52159Y-42316D01*
X52416Y-42059D01*
X52443Y-42059D01*
X52468Y-42084D01*
X52505Y-42099D01*
X52544Y-42099D01*
X52994Y-42099D01*
X53031Y-42084D01*
X53059Y-42056D01*
X53074Y-42019D01*
X53074Y-41980D01*
X53074Y-41780D01*
X53059Y-41743D01*
X53031Y-41715D01*
X52994Y-41700D01*
X52955Y-41700D01*
X52505Y-41700D01*
X52468Y-41715D01*
X52443Y-41740D01*
X52350Y-41740D01*
X52350Y-41740D01*
X52299Y-41750D01*
X52288Y-41752D01*
X52237Y-41787D01*
X52237Y-41787D01*
X51887Y-42137D01*
X51852Y-42188D01*
X51850Y-42199D01*
X51840Y-42250D01*
X51840Y-42250D01*
X51840Y-42450D01*
X51840Y-43149D01*
X51840Y-43150D01*
X51850Y-43200D01*
X51852Y-43211D01*
X51887Y-43262D01*
X52438Y-43813D01*
X52438Y-43813D01*
X52438Y-43813D01*
X52489Y-43848D01*
X52489Y-43848D01*
X52499Y-43850D01*
X52550Y-43860D01*
X52550Y-43860D01*
X52550Y-43860D01*
X54680Y-43860D01*
X54683Y-43863D01*
X54720Y-43878D01*
X54759Y-43878D01*
X55143Y-43878D01*
X55149Y-43880D01*
X55450Y-43880D01*
X55456Y-43887D01*
X55524Y-43915D01*
X55149Y-43915D01*
X55143Y-43916D01*
X54720Y-43916D01*
X54683Y-43931D01*
X54655Y-43959D01*
X54640Y-43995D01*
X54640Y-44035D01*
X54640Y-44193D01*
X54655Y-44229D01*
X54683Y-44257D01*
X54720Y-44272D01*
X54759Y-44272D01*
X55143Y-44272D01*
X55149Y-44273D01*
X55443Y-44273D01*
X55456Y-44287D01*
X55509Y-44308D01*
X55149Y-44308D01*
X55143Y-44310D01*
X54720Y-44310D01*
X54683Y-44325D01*
X54655Y-44353D01*
X54640Y-44389D01*
X54640Y-44429D01*
X54640Y-44586D01*
X54655Y-44623D01*
X54683Y-44651D01*
X54720Y-44666D01*
X54759Y-44666D01*
X55143Y-44666D01*
X55149Y-44667D01*
X55437Y-44667D01*
X55456Y-44687D01*
X55494Y-44702D01*
X55149Y-44702D01*
X55143Y-44703D01*
X54720Y-44703D01*
X54683Y-44718D01*
X54655Y-44746D01*
X54640Y-44783D01*
X54640Y-44822D01*
X54640Y-44980D01*
X54655Y-45016D01*
X54683Y-45044D01*
X54720Y-45060D01*
X54759Y-45060D01*
X55143Y-45060D01*
X55149Y-45061D01*
X55431Y-45061D01*
X55456Y-45087D01*
X55471Y-45093D01*
X55463Y-45096D01*
X55149Y-45096D01*
X55143Y-45097D01*
X54720Y-45097D01*
X54683Y-45112D01*
X54655Y-45140D01*
X54640Y-45177D01*
X54640Y-45216D01*
X54640Y-45374D01*
X54655Y-45410D01*
X54683Y-45438D01*
X54720Y-45453D01*
X54759Y-45453D01*
X55143Y-45453D01*
X55149Y-45455D01*
X55500Y-45455D01*
X55530Y-45467D01*
X55609Y-45467D01*
X55682Y-45437D01*
X55739Y-45381D01*
X55769Y-45307D01*
X55769Y-45228D01*
X55739Y-45155D01*
X55683Y-45099D01*
X55668Y-45093D01*
X55682Y-45087D01*
X55739Y-45031D01*
X55752Y-44999D01*
X55919Y-45166D01*
X55919Y-45166D01*
X55946Y-45184D01*
X55964Y-45196D01*
X55964Y-45196D01*
X56018Y-45207D01*
X56018Y-45207D01*
X56018Y-45207D01*
X56127Y-45207D01*
X56156Y-45237D01*
X56230Y-45267D01*
X56309Y-45267D01*
X56332Y-45258D01*
X56692Y-45258D01*
X56699Y-45256D01*
X57122Y-45256D01*
X57158Y-45241D01*
X57186Y-45213D01*
X57201Y-45177D01*
X57201Y-45373D01*
X57186Y-45337D01*
X57158Y-45309D01*
X57122Y-45294D01*
X57082Y-45294D01*
X56699Y-45294D01*
X56692Y-45293D01*
X56368Y-45293D01*
X56309Y-45268D01*
X56230Y-45268D01*
X56157Y-45298D01*
X56101Y-45355D01*
X56070Y-45428D01*
X56070Y-45507D01*
X56100Y-45580D01*
X56156Y-45637D01*
X56230Y-45667D01*
X56309Y-45667D01*
X56347Y-45651D01*
X56692Y-45651D01*
X56699Y-45650D01*
X57122Y-45650D01*
X57158Y-45635D01*
X57186Y-45607D01*
X57201Y-45570D01*
X57201Y-45686D01*
X57159Y-45668D01*
X57080Y-45668D01*
X57036Y-45686D01*
X56692Y-45686D01*
X56686Y-45687D01*
X56263Y-45687D01*
X56227Y-45703D01*
X56203Y-45726D01*
X56033Y-45726D01*
X56033Y-45726D01*
X55980Y-45737D01*
X55935Y-45767D01*
X55935Y-45767D01*
X55751Y-45951D01*
X55742Y-45964D01*
X55739Y-45955D01*
X55683Y-45899D01*
X55609Y-45868D01*
X55530Y-45868D01*
X55494Y-45883D01*
X55149Y-45883D01*
X55143Y-45884D01*
X54720Y-45884D01*
X54683Y-45899D01*
X54680Y-45903D01*
X52505Y-45903D01*
X52493Y-45891D01*
X52419Y-45860D01*
X52340Y-45860D01*
X52267Y-45890D01*
X52254Y-45903D01*
X50879Y-45903D01*
X49612Y-44637D01*
X49612Y-44637D01*
X49412Y-44437D01*
X49361Y-44402D01*
X49350Y-44400D01*
X49300Y-44390D01*
X49299Y-44390D01*
X48166Y-44390D01*
X47155Y-43380D01*
X47155Y-43154D01*
X47190Y-43139D01*
X47218Y-43111D01*
X47233Y-43075D01*
X47233Y-43035D01*
X47233Y-42327D01*
X47221Y-42299D01*
X47262Y-42299D01*
X47250Y-42327D01*
X47250Y-42366D01*
X47250Y-43075D01*
X47266Y-43111D01*
X47294Y-43139D01*
X47328Y-43154D01*
X47328Y-43388D01*
X47328Y-43388D01*
X47338Y-43439D01*
X47340Y-43449D01*
X47375Y-43500D01*
X48137Y-44262D01*
X48137Y-44262D01*
X48188Y-44297D01*
X48188Y-44297D01*
X48250Y-44309D01*
X49377Y-44309D01*
X49386Y-44318D01*
X49460Y-44349D01*
X49473Y-44349D01*
X49687Y-44562D01*
X49687Y-44562D01*
X49687Y-44562D01*
X50906Y-45782D01*
X50906Y-45782D01*
X50958Y-45816D01*
X51019Y-45828D01*
X53306Y-45828D01*
X53316Y-45838D01*
X53390Y-45869D01*
X53469Y-45869D01*
X53542Y-45839D01*
X53553Y-45828D01*
X54680Y-45828D01*
X54683Y-45832D01*
X54720Y-45847D01*
X54759Y-45847D01*
X55143Y-45847D01*
X55149Y-45848D01*
X55485Y-45848D01*
X55530Y-45867D01*
X55609Y-45867D01*
X55682Y-45837D01*
X55739Y-45781D01*
X55769Y-45707D01*
X55769Y-45628D01*
X55739Y-45555D01*
X55683Y-45499D01*
X55609Y-45468D01*
X55530Y-45468D01*
X55479Y-45489D01*
X55149Y-45489D01*
X55143Y-45491D01*
X54720Y-45491D01*
X54683Y-45506D01*
X54680Y-45509D01*
X53551Y-45509D01*
X53543Y-45501D01*
X53469Y-45470D01*
X53390Y-45470D01*
X53317Y-45500D01*
X53308Y-45509D01*
X51085Y-45509D01*
X49912Y-44337D01*
X49912Y-44337D01*
X49912Y-44337D01*
X49699Y-44123D01*
X49699Y-44110D01*
X49669Y-44037D01*
X49613Y-43981D01*
X49539Y-43950D01*
X49460Y-43950D01*
X49387Y-43980D01*
X49377Y-43990D01*
X49050Y-43990D01*
X49050Y-42764D01*
X49050Y-42618D01*
X49050Y-42531D01*
X49050Y-42385D01*
X49038Y-42357D01*
X49017Y-42336D01*
X48989Y-42325D01*
X48960Y-42325D01*
X48743Y-42325D01*
X48725Y-42343D01*
X48725Y-42550D01*
X49031Y-42550D01*
X49050Y-42531D01*
X49050Y-42618D01*
X49031Y-42600D01*
X48725Y-42600D01*
X48725Y-42806D01*
X48743Y-42825D01*
X48960Y-42825D01*
X48989Y-42825D01*
X49017Y-42813D01*
X49038Y-42792D01*
X49050Y-42764D01*
X49050Y-43990D01*
X48675Y-43990D01*
X48675Y-42806D01*
X48675Y-42600D01*
X48675Y-42550D01*
X48675Y-42343D01*
X48656Y-42325D01*
X48439Y-42325D01*
X48410Y-42325D01*
X48382Y-42336D01*
X48361Y-42357D01*
X48350Y-42385D01*
X48350Y-42531D01*
X48368Y-42550D01*
X48675Y-42550D01*
X48675Y-42600D01*
X48368Y-42600D01*
X48350Y-42618D01*
X48350Y-42764D01*
X48361Y-42792D01*
X48382Y-42813D01*
X48410Y-42825D01*
X48439Y-42825D01*
X48656Y-42825D01*
X48675Y-42806D01*
X48675Y-43990D01*
X48316Y-43990D01*
X48293Y-43967D01*
X48293Y-42220D01*
X48293Y-42170D01*
X48293Y-42083D01*
X48293Y-42033D01*
X48281Y-42006D01*
X48260Y-41984D01*
X48232Y-41973D01*
X48203Y-41973D01*
X48143Y-41973D01*
X48125Y-41992D01*
X48125Y-42102D01*
X48274Y-42102D01*
X48293Y-42083D01*
X48293Y-42170D01*
X48274Y-42152D01*
X48125Y-42152D01*
X48125Y-42261D01*
X48143Y-42280D01*
X48203Y-42280D01*
X48232Y-42280D01*
X48260Y-42269D01*
X48281Y-42247D01*
X48293Y-42220D01*
X48293Y-43967D01*
X48075Y-43749D01*
X48075Y-42261D01*
X48075Y-42152D01*
X47925Y-42152D01*
X47907Y-42170D01*
X47907Y-42220D01*
X47918Y-42247D01*
X47939Y-42269D01*
X47967Y-42280D01*
X47996Y-42280D01*
X48056Y-42280D01*
X48075Y-42261D01*
X48075Y-43749D01*
X47647Y-43322D01*
X47647Y-43154D01*
X47682Y-43139D01*
X47710Y-43111D01*
X47725Y-43075D01*
X47725Y-43035D01*
X47725Y-42327D01*
X47710Y-42290D01*
X47707Y-42287D01*
X47755Y-42255D01*
X47905Y-42105D01*
X47915Y-42091D01*
X47925Y-42102D01*
X48075Y-42102D01*
X48075Y-41992D01*
X48056Y-41973D01*
X47996Y-41973D01*
X47967Y-41973D01*
X47949Y-41980D01*
X47949Y-41945D01*
X47962Y-41950D01*
X48001Y-41950D01*
X48237Y-41950D01*
X48274Y-41935D01*
X48277Y-41932D01*
X48325Y-41932D01*
X48325Y-42019D01*
X48340Y-42056D01*
X48368Y-42084D01*
X48405Y-42099D01*
X48444Y-42099D01*
X48994Y-42099D01*
X49031Y-42084D01*
X49059Y-42056D01*
X49074Y-42019D01*
X49074Y-42004D01*
X49100Y-42004D01*
X49120Y-42024D01*
X49120Y-43250D01*
X49120Y-43299D01*
X49120Y-43300D01*
X49134Y-43368D01*
X49173Y-43426D01*
X49423Y-43676D01*
X49423Y-43676D01*
X49423Y-43676D01*
X49481Y-43715D01*
X49550Y-43729D01*
X49550Y-43729D01*
X49550Y-43729D01*
X50899Y-43729D01*
X50900Y-43729D01*
X50900Y-43729D01*
X50968Y-43715D01*
X51026Y-43676D01*
X51576Y-43126D01*
X51576Y-43126D01*
X51576Y-43126D01*
X51615Y-43068D01*
X51629Y-43000D01*
X51629Y-41474D01*
X51876Y-41226D01*
X51876Y-41226D01*
X51876Y-41226D01*
X51976Y-41126D01*
X51976Y-41126D01*
X51976Y-41126D01*
X52074Y-41029D01*
X56350Y-41029D01*
X56400Y-41029D01*
X56575Y-41029D01*
X56720Y-41174D01*
X56720Y-41775D01*
X56689Y-41806D01*
X56689Y-41771D01*
X56689Y-41732D01*
X56689Y-41220D01*
X56674Y-41183D01*
X56646Y-41155D01*
X56610Y-41140D01*
X56570Y-41140D01*
X55232Y-41140D01*
X55195Y-41155D01*
X55167Y-41183D01*
X55152Y-41220D01*
X55152Y-41259D01*
X55152Y-41771D01*
X55167Y-41808D01*
X55195Y-41836D01*
X55232Y-41851D01*
X55271Y-41851D01*
X55673Y-41851D01*
X55620Y-41904D01*
X55566Y-42035D01*
X55565Y-42176D01*
X55619Y-42307D01*
X55719Y-42407D01*
X55850Y-42461D01*
X55991Y-42461D01*
X56122Y-42407D01*
X56222Y-42307D01*
X56276Y-42177D01*
X56276Y-42035D01*
X56222Y-41905D01*
X56168Y-41851D01*
X56610Y-41851D01*
X56646Y-41836D01*
X56674Y-41808D01*
X56689Y-41771D01*
X56689Y-41806D01*
X56566Y-41930D01*
X56527Y-41988D01*
X56513Y-42057D01*
X56513Y-42057D01*
X56513Y-42537D01*
X56354Y-42537D01*
X56309Y-42518D01*
X56230Y-42518D01*
X56157Y-42548D01*
X56101Y-42605D01*
X56070Y-42678D01*
X56070Y-42757D01*
X56100Y-42830D01*
X56156Y-42887D01*
X56230Y-42917D01*
X56309Y-42917D01*
X56361Y-42895D01*
X56513Y-42895D01*
X56513Y-42930D01*
X56339Y-42930D01*
X56309Y-42918D01*
X56230Y-42918D01*
X56157Y-42948D01*
X56101Y-43005D01*
X56070Y-43078D01*
X56070Y-43157D01*
X56100Y-43230D01*
X56156Y-43287D01*
X56230Y-43317D01*
X56309Y-43317D01*
X56377Y-43289D01*
X56513Y-43289D01*
X56513Y-43324D01*
X56323Y-43324D01*
X56309Y-43318D01*
X56230Y-43318D01*
X56157Y-43348D01*
X56101Y-43405D01*
X56070Y-43478D01*
X56070Y-43557D01*
X56100Y-43630D01*
X56156Y-43687D01*
X56230Y-43717D01*
X56309Y-43717D01*
X56382Y-43687D01*
X56386Y-43683D01*
X56692Y-43683D01*
X57003Y-43683D01*
X57006Y-43687D01*
X57080Y-43717D01*
X57159Y-43717D01*
X57232Y-43687D01*
X57289Y-43631D01*
X57319Y-43557D01*
X57319Y-43478D01*
X57289Y-43405D01*
X57233Y-43349D01*
X57159Y-43318D01*
X57080Y-43318D01*
X57066Y-43324D01*
X56872Y-43324D01*
X56872Y-43289D01*
X57013Y-43289D01*
X57080Y-43317D01*
X57159Y-43317D01*
X57232Y-43287D01*
X57289Y-43231D01*
X57319Y-43157D01*
X57319Y-43078D01*
X57289Y-43005D01*
X57233Y-42949D01*
X57159Y-42918D01*
X57080Y-42918D01*
X57051Y-42930D01*
X56872Y-42930D01*
X56872Y-42895D01*
X57028Y-42895D01*
X57080Y-42917D01*
X57159Y-42917D01*
X57232Y-42887D01*
X57289Y-42831D01*
X57319Y-42757D01*
X57319Y-42678D01*
X57289Y-42605D01*
X57233Y-42549D01*
X57159Y-42518D01*
X57144Y-42518D01*
X57326Y-42336D01*
X57365Y-42278D01*
X57379Y-42209D01*
X57379Y-42209D01*
X57379Y-52709D01*
X57177Y-52911D01*
X57177Y-47534D01*
X57177Y-47484D01*
X57177Y-47397D01*
X57177Y-47347D01*
X57177Y-47140D01*
X57177Y-47090D01*
X57177Y-47003D01*
X57177Y-46953D01*
X57177Y-46747D01*
X57177Y-46697D01*
X57177Y-46609D01*
X57177Y-46559D01*
X57165Y-46532D01*
X57144Y-46511D01*
X57117Y-46499D01*
X57087Y-46499D01*
X56736Y-46499D01*
X56717Y-46518D01*
X56717Y-46628D01*
X57158Y-46628D01*
X57177Y-46609D01*
X57177Y-46697D01*
X57158Y-46678D01*
X56717Y-46678D01*
X56717Y-46788D01*
X56736Y-46807D01*
X57087Y-46807D01*
X57117Y-46807D01*
X57144Y-46795D01*
X57165Y-46774D01*
X57177Y-46747D01*
X57177Y-46953D01*
X57165Y-46926D01*
X57144Y-46904D01*
X57117Y-46893D01*
X57087Y-46893D01*
X56736Y-46893D01*
X56717Y-46912D01*
X56717Y-47022D01*
X57158Y-47022D01*
X57177Y-47003D01*
X57177Y-47090D01*
X57158Y-47072D01*
X56717Y-47072D01*
X56717Y-47182D01*
X56736Y-47200D01*
X57087Y-47200D01*
X57117Y-47200D01*
X57144Y-47189D01*
X57165Y-47168D01*
X57177Y-47140D01*
X57177Y-47347D01*
X57165Y-47319D01*
X57144Y-47298D01*
X57117Y-47287D01*
X57087Y-47287D01*
X56736Y-47287D01*
X56717Y-47305D01*
X56717Y-47415D01*
X57158Y-47415D01*
X57177Y-47397D01*
X57177Y-47484D01*
X57158Y-47465D01*
X56717Y-47465D01*
X56717Y-47575D01*
X56736Y-47594D01*
X57087Y-47594D01*
X57117Y-47594D01*
X57144Y-47583D01*
X57165Y-47562D01*
X57177Y-47534D01*
X57177Y-52911D01*
X55074Y-55013D01*
X52299Y-55013D01*
X52299Y-47960D01*
X52269Y-47887D01*
X52213Y-47831D01*
X52139Y-47800D01*
X52060Y-47800D01*
X51987Y-47830D01*
X51931Y-47886D01*
X51900Y-47960D01*
X51900Y-48039D01*
X51930Y-48112D01*
X51940Y-48122D01*
X51940Y-50300D01*
X51940Y-51433D01*
X51683Y-51690D01*
X51600Y-51690D01*
X50650Y-51690D01*
X50650Y-51690D01*
X50631Y-51694D01*
X50641Y-51684D01*
X51524Y-51684D01*
X51525Y-51684D01*
X51525Y-51684D01*
X51575Y-51674D01*
X51586Y-51672D01*
X51586Y-51672D01*
X51637Y-51637D01*
X51812Y-51462D01*
X51812Y-51462D01*
X51812Y-51462D01*
X51847Y-51411D01*
X51847Y-51411D01*
X51849Y-51400D01*
X51859Y-51350D01*
X51859Y-51350D01*
X51859Y-51349D01*
X51859Y-51100D01*
X51859Y-50200D01*
X51859Y-48122D01*
X51868Y-48113D01*
X51899Y-48039D01*
X51899Y-47960D01*
X51869Y-47887D01*
X51813Y-47831D01*
X51739Y-47800D01*
X51660Y-47800D01*
X51587Y-47830D01*
X51531Y-47886D01*
X51500Y-47960D01*
X51500Y-48039D01*
X51530Y-48112D01*
X51540Y-48122D01*
X51540Y-50200D01*
X51540Y-51100D01*
X51540Y-51283D01*
X51458Y-51365D01*
X51164Y-51365D01*
X51164Y-48979D01*
X51164Y-48693D01*
X51164Y-48605D01*
X51164Y-48319D01*
X51153Y-48292D01*
X51132Y-48271D01*
X51104Y-48259D01*
X51074Y-48259D01*
X50976Y-48259D01*
X50957Y-48278D01*
X50957Y-48624D01*
X51146Y-48624D01*
X51164Y-48605D01*
X51164Y-48693D01*
X51146Y-48674D01*
X50957Y-48674D01*
X50957Y-49020D01*
X50976Y-49039D01*
X51074Y-49039D01*
X51104Y-49039D01*
X51132Y-49028D01*
X51153Y-49007D01*
X51164Y-48979D01*
X51164Y-51365D01*
X50575Y-51365D01*
X50575Y-51365D01*
X50513Y-51377D01*
X50496Y-51389D01*
X50462Y-51412D01*
X50462Y-51412D01*
X50387Y-51487D01*
X50387Y-51487D01*
X49953Y-51921D01*
X49943Y-51936D01*
X49888Y-51936D01*
X49852Y-51951D01*
X49849Y-51953D01*
X49846Y-51951D01*
X49810Y-51936D01*
X49770Y-51936D01*
X49455Y-51936D01*
X49419Y-51951D01*
X49416Y-51953D01*
X49413Y-51951D01*
X49377Y-51936D01*
X49337Y-51936D01*
X49022Y-51936D01*
X48986Y-51951D01*
X48983Y-51953D01*
X48980Y-51951D01*
X48944Y-51936D01*
X48904Y-51936D01*
X48589Y-51936D01*
X48553Y-51951D01*
X48532Y-51971D01*
X48506Y-51960D01*
X48476Y-51960D01*
X48377Y-51960D01*
X48358Y-51979D01*
X48358Y-52325D01*
X48366Y-52325D01*
X48366Y-52375D01*
X48358Y-52375D01*
X48358Y-52721D01*
X48377Y-52740D01*
X48476Y-52740D01*
X48506Y-52740D01*
X48532Y-52729D01*
X48553Y-52749D01*
X48589Y-52764D01*
X48629Y-52764D01*
X48944Y-52764D01*
X48980Y-52749D01*
X48983Y-52746D01*
X48986Y-52749D01*
X49022Y-52764D01*
X49062Y-52764D01*
X49377Y-52764D01*
X49413Y-52749D01*
X49416Y-52746D01*
X49419Y-52749D01*
X49455Y-52764D01*
X49495Y-52764D01*
X49810Y-52764D01*
X49846Y-52749D01*
X49849Y-52746D01*
X49852Y-52749D01*
X49888Y-52764D01*
X49928Y-52764D01*
X50243Y-52764D01*
X50279Y-52749D01*
X50282Y-52746D01*
X50285Y-52749D01*
X50321Y-52764D01*
X50361Y-52764D01*
X50676Y-52764D01*
X50713Y-52749D01*
X50715Y-52746D01*
X50718Y-52749D01*
X50755Y-52764D01*
X50794Y-52764D01*
X51109Y-52764D01*
X51146Y-52749D01*
X51174Y-52721D01*
X51189Y-52685D01*
X51189Y-52645D01*
X51189Y-52015D01*
X51186Y-52009D01*
X51600Y-52009D01*
X51749Y-52009D01*
X51750Y-52009D01*
X51750Y-52009D01*
X51800Y-51999D01*
X51811Y-51997D01*
X51811Y-51997D01*
X51862Y-51962D01*
X52212Y-51612D01*
X52212Y-51612D01*
X52212Y-51612D01*
X52247Y-51561D01*
X52247Y-51561D01*
X52249Y-51550D01*
X52259Y-51500D01*
X52259Y-51500D01*
X52259Y-51499D01*
X52259Y-50300D01*
X52259Y-48122D01*
X52268Y-48113D01*
X52299Y-48039D01*
X52299Y-47960D01*
X52299Y-55013D01*
X48782Y-55013D01*
X48782Y-54497D01*
X48782Y-54468D01*
X48782Y-54093D01*
X48782Y-54006D01*
X48782Y-53631D01*
X48782Y-53602D01*
X48770Y-53574D01*
X48749Y-53553D01*
X48722Y-53541D01*
X48534Y-53541D01*
X48515Y-53560D01*
X48515Y-54025D01*
X48763Y-54025D01*
X48782Y-54006D01*
X48782Y-54093D01*
X48763Y-54075D01*
X48515Y-54075D01*
X48515Y-54539D01*
X48534Y-54558D01*
X48722Y-54558D01*
X48749Y-54546D01*
X48770Y-54525D01*
X48782Y-54497D01*
X48782Y-55013D01*
X48465Y-55013D01*
X48465Y-54539D01*
X48465Y-54075D01*
X48465Y-54025D01*
X48465Y-53560D01*
X48446Y-53541D01*
X48259Y-53541D01*
X48231Y-53553D01*
X48215Y-53568D01*
X48215Y-53223D01*
X48200Y-53186D01*
X48172Y-53158D01*
X48136Y-53143D01*
X48096Y-53143D01*
X48080Y-53143D01*
X48080Y-52763D01*
X48114Y-52749D01*
X48134Y-52729D01*
X48161Y-52740D01*
X48191Y-52740D01*
X48290Y-52740D01*
X48308Y-52721D01*
X48308Y-52375D01*
X48300Y-52375D01*
X48300Y-52325D01*
X48308Y-52325D01*
X48308Y-51979D01*
X48290Y-51960D01*
X48191Y-51960D01*
X48161Y-51960D01*
X48134Y-51971D01*
X48114Y-51951D01*
X48078Y-51936D01*
X48038Y-51936D01*
X47723Y-51936D01*
X47686Y-51951D01*
X47666Y-51971D01*
X47640Y-51960D01*
X47610Y-51960D01*
X47511Y-51960D01*
X47492Y-51979D01*
X47492Y-52325D01*
X47500Y-52325D01*
X47500Y-52375D01*
X47492Y-52375D01*
X47492Y-52721D01*
X47511Y-52740D01*
X47610Y-52740D01*
X47640Y-52740D01*
X47666Y-52729D01*
X47686Y-52749D01*
X47721Y-52763D01*
X47721Y-53143D01*
X47663Y-53143D01*
X47627Y-53158D01*
X47599Y-53186D01*
X47584Y-53223D01*
X47584Y-53262D01*
X47584Y-53568D01*
X47568Y-53553D01*
X47540Y-53541D01*
X47442Y-53541D01*
X47442Y-52721D01*
X47442Y-52375D01*
X47442Y-52325D01*
X47442Y-51979D01*
X47423Y-51960D01*
X47325Y-51960D01*
X47295Y-51960D01*
X47267Y-51971D01*
X47246Y-51992D01*
X47235Y-52020D01*
X47235Y-52306D01*
X47253Y-52325D01*
X47442Y-52325D01*
X47442Y-52375D01*
X47253Y-52375D01*
X47235Y-52394D01*
X47235Y-52680D01*
X47246Y-52707D01*
X47267Y-52728D01*
X47295Y-52740D01*
X47325Y-52740D01*
X47423Y-52740D01*
X47442Y-52721D01*
X47442Y-53541D01*
X47353Y-53541D01*
X47334Y-53560D01*
X47334Y-54025D01*
X47582Y-54025D01*
X47600Y-54006D01*
X47600Y-53734D01*
X47627Y-53760D01*
X47663Y-53775D01*
X47703Y-53775D01*
X48136Y-53775D01*
X48172Y-53760D01*
X48199Y-53734D01*
X48199Y-54006D01*
X48217Y-54025D01*
X48465Y-54025D01*
X48465Y-54075D01*
X48217Y-54075D01*
X48199Y-54093D01*
X48199Y-54468D01*
X48199Y-54497D01*
X48210Y-54525D01*
X48231Y-54546D01*
X48259Y-54558D01*
X48446Y-54558D01*
X48465Y-54539D01*
X48465Y-55013D01*
X47600Y-55013D01*
X47600Y-54497D01*
X47600Y-54468D01*
X47600Y-54093D01*
X47582Y-54075D01*
X47334Y-54075D01*
X47334Y-54539D01*
X47353Y-54558D01*
X47540Y-54558D01*
X47568Y-54546D01*
X47589Y-54525D01*
X47600Y-54497D01*
X47600Y-55013D01*
X47284Y-55013D01*
X47284Y-54539D01*
X47284Y-54075D01*
X47284Y-54025D01*
X47284Y-53560D01*
X47265Y-53541D01*
X47077Y-53541D01*
X47050Y-53553D01*
X47029Y-53574D01*
X47017Y-53602D01*
X47017Y-53631D01*
X47017Y-54006D01*
X47036Y-54025D01*
X47284Y-54025D01*
X47284Y-54075D01*
X47036Y-54075D01*
X47017Y-54093D01*
X47017Y-54468D01*
X47017Y-54497D01*
X47029Y-54525D01*
X47050Y-54546D01*
X47077Y-54558D01*
X47265Y-54558D01*
X47284Y-54539D01*
X47284Y-55013D01*
X43350Y-55013D01*
X39474Y-51137D01*
X39474Y-39413D01*
X43350Y-35537D01*
X55074Y-35537D01*
X58950Y-39413D01*
X58950Y-51137D01*
X58950Y-51137D01*
G37*
G54D36*
X58950Y-51137D02*
X57379Y-52709D01*
X57379Y-42209D01*
X57379Y-42209D01*
X57379Y-40900D01*
X57379Y-40900D01*
X57379Y-40900D01*
X57365Y-40831D01*
X57326Y-40773D01*
X57326Y-40773D01*
X57326Y-40773D01*
X56976Y-40423D01*
X56918Y-40384D01*
X56850Y-40370D01*
X56849Y-40370D01*
X56650Y-40370D01*
X52340Y-40370D01*
X52340Y-38454D01*
X52339Y-38239D01*
X52259Y-38046D01*
X52193Y-37992D01*
X52157Y-38027D01*
X52157Y-37956D01*
X52103Y-37890D01*
X51904Y-37809D01*
X51689Y-37810D01*
X51496Y-37890D01*
X51442Y-37956D01*
X51800Y-38314D01*
X52157Y-37956D01*
X52157Y-38027D01*
X51835Y-38350D01*
X52193Y-38707D01*
X52259Y-38653D01*
X52340Y-38454D01*
X52340Y-40370D01*
X52157Y-40370D01*
X52157Y-38743D01*
X51800Y-38385D01*
X51764Y-38420D01*
X51764Y-38350D01*
X51406Y-37992D01*
X51340Y-38046D01*
X51259Y-38245D01*
X51260Y-38460D01*
X51340Y-38653D01*
X51406Y-38707D01*
X51764Y-38350D01*
X51764Y-38420D01*
X51442Y-38743D01*
X51496Y-38809D01*
X51695Y-38890D01*
X51910Y-38889D01*
X52103Y-38809D01*
X52157Y-38743D01*
X52157Y-40370D01*
X51800Y-40370D01*
X51800Y-40370D01*
X51731Y-40384D01*
X51673Y-40423D01*
X51673Y-40423D01*
X50973Y-41123D01*
X50934Y-41181D01*
X50920Y-41250D01*
X50920Y-41250D01*
X50920Y-41500D01*
X50920Y-42825D01*
X50675Y-43070D01*
X50544Y-43070D01*
X50559Y-43056D01*
X50574Y-43019D01*
X50574Y-42980D01*
X50574Y-42780D01*
X50574Y-42019D01*
X50574Y-41980D01*
X50574Y-41780D01*
X50559Y-41743D01*
X50531Y-41715D01*
X50494Y-41700D01*
X50455Y-41700D01*
X50005Y-41700D01*
X49968Y-41715D01*
X49940Y-41743D01*
X49925Y-41780D01*
X49925Y-41819D01*
X49925Y-42019D01*
X49940Y-42056D01*
X49968Y-42084D01*
X50005Y-42099D01*
X50044Y-42099D01*
X50494Y-42099D01*
X50531Y-42084D01*
X50559Y-42056D01*
X50574Y-42019D01*
X50574Y-42780D01*
X50559Y-42743D01*
X50550Y-42734D01*
X50550Y-42514D01*
X50550Y-42443D01*
X50550Y-42356D01*
X50550Y-42285D01*
X50538Y-42257D01*
X50517Y-42236D01*
X50489Y-42225D01*
X50460Y-42225D01*
X50293Y-42225D01*
X50275Y-42243D01*
X50275Y-42375D01*
X50531Y-42375D01*
X50550Y-42356D01*
X50550Y-42443D01*
X50531Y-42425D01*
X50275Y-42425D01*
X50275Y-42556D01*
X50293Y-42575D01*
X50460Y-42575D01*
X50489Y-42575D01*
X50517Y-42563D01*
X50538Y-42542D01*
X50550Y-42514D01*
X50550Y-42734D01*
X50531Y-42715D01*
X50494Y-42700D01*
X50455Y-42700D01*
X50225Y-42700D01*
X50225Y-42556D01*
X50225Y-42425D01*
X50225Y-42375D01*
X50225Y-42243D01*
X50206Y-42225D01*
X50039Y-42225D01*
X50010Y-42225D01*
X49982Y-42236D01*
X49961Y-42257D01*
X49950Y-42285D01*
X49950Y-42356D01*
X49968Y-42375D01*
X50225Y-42375D01*
X50225Y-42425D01*
X49968Y-42425D01*
X49950Y-42443D01*
X49950Y-42514D01*
X49961Y-42542D01*
X49982Y-42563D01*
X50010Y-42575D01*
X50039Y-42575D01*
X50206Y-42575D01*
X50225Y-42556D01*
X50225Y-42700D01*
X50005Y-42700D01*
X49968Y-42715D01*
X49963Y-42720D01*
X49914Y-42720D01*
X49902Y-42692D01*
X49893Y-42682D01*
X49893Y-42566D01*
X49893Y-42516D01*
X49893Y-42429D01*
X49893Y-42379D01*
X49881Y-42352D01*
X49860Y-42330D01*
X49832Y-42319D01*
X49803Y-42319D01*
X49743Y-42319D01*
X49725Y-42338D01*
X49725Y-42448D01*
X49874Y-42448D01*
X49893Y-42429D01*
X49893Y-42516D01*
X49874Y-42498D01*
X49725Y-42498D01*
X49725Y-42607D01*
X49743Y-42626D01*
X49803Y-42626D01*
X49832Y-42626D01*
X49860Y-42615D01*
X49881Y-42593D01*
X49893Y-42566D01*
X49893Y-42682D01*
X49874Y-42664D01*
X49837Y-42649D01*
X49798Y-42649D01*
X49707Y-42649D01*
X49700Y-42647D01*
X49692Y-42649D01*
X49675Y-42649D01*
X49675Y-42607D01*
X49675Y-42498D01*
X49675Y-42448D01*
X49675Y-42338D01*
X49656Y-42319D01*
X49596Y-42319D01*
X49567Y-42319D01*
X49539Y-42330D01*
X49518Y-42352D01*
X49507Y-42379D01*
X49507Y-42429D01*
X49525Y-42448D01*
X49675Y-42448D01*
X49675Y-42498D01*
X49525Y-42498D01*
X49507Y-42516D01*
X49507Y-42566D01*
X49518Y-42593D01*
X49539Y-42615D01*
X49567Y-42626D01*
X49596Y-42626D01*
X49656Y-42626D01*
X49675Y-42607D01*
X49675Y-42649D01*
X49562Y-42649D01*
X49525Y-42664D01*
X49497Y-42692D01*
X49482Y-42728D01*
X49482Y-42768D01*
X49482Y-42925D01*
X49497Y-42961D01*
X49520Y-42984D01*
X49520Y-43099D01*
X49520Y-43100D01*
X49534Y-43168D01*
X49573Y-43226D01*
X49716Y-43370D01*
X49624Y-43370D01*
X49479Y-43225D01*
X49479Y-41950D01*
X49479Y-41950D01*
X49479Y-41950D01*
X49465Y-41881D01*
X49426Y-41823D01*
X49426Y-41823D01*
X49426Y-41823D01*
X49301Y-41698D01*
X49243Y-41659D01*
X49175Y-41645D01*
X49174Y-41645D01*
X49074Y-41645D01*
X49074Y-41630D01*
X49059Y-41593D01*
X49031Y-41565D01*
X48994Y-41550D01*
X48955Y-41550D01*
X48405Y-41550D01*
X48368Y-41565D01*
X48340Y-41593D01*
X48332Y-41613D01*
X48277Y-41613D01*
X48274Y-41610D01*
X48237Y-41595D01*
X48198Y-41595D01*
X48147Y-41595D01*
X48038Y-41486D01*
X47986Y-41451D01*
X47976Y-41449D01*
X47925Y-41439D01*
X47925Y-41439D01*
X47725Y-41439D01*
X47725Y-41224D01*
X47710Y-41188D01*
X47682Y-41160D01*
X47645Y-41145D01*
X47606Y-41145D01*
X47330Y-41145D01*
X47294Y-41160D01*
X47266Y-41188D01*
X47250Y-41224D01*
X47250Y-41264D01*
X47250Y-41972D01*
X47262Y-42000D01*
X47221Y-42000D01*
X47233Y-41972D01*
X47233Y-41933D01*
X47233Y-41224D01*
X47218Y-41188D01*
X47190Y-41160D01*
X47155Y-41145D01*
X47155Y-40919D01*
X47143Y-40858D01*
X47108Y-40806D01*
X47108Y-40806D01*
X47104Y-40802D01*
X47104Y-40712D01*
X47091Y-40679D01*
X48525Y-40679D01*
X49373Y-41526D01*
X49373Y-41526D01*
X49431Y-41565D01*
X49500Y-41579D01*
X49963Y-41579D01*
X49968Y-41584D01*
X50005Y-41599D01*
X50044Y-41599D01*
X50494Y-41599D01*
X50531Y-41584D01*
X50559Y-41556D01*
X50574Y-41519D01*
X50574Y-41480D01*
X50574Y-41280D01*
X50559Y-41243D01*
X50531Y-41215D01*
X50494Y-41200D01*
X50455Y-41200D01*
X50049Y-41200D01*
X50049Y-38181D01*
X49920Y-37869D01*
X49681Y-37630D01*
X49369Y-37500D01*
X49031Y-37500D01*
X48719Y-37629D01*
X48480Y-37868D01*
X48350Y-38180D01*
X48350Y-38518D01*
X48479Y-38830D01*
X48718Y-39069D01*
X49030Y-39199D01*
X49368Y-39199D01*
X49680Y-39070D01*
X49919Y-38831D01*
X50049Y-38519D01*
X50049Y-38181D01*
X50049Y-41200D01*
X50005Y-41200D01*
X49968Y-41215D01*
X49963Y-41220D01*
X49574Y-41220D01*
X48726Y-40373D01*
X48668Y-40334D01*
X48600Y-40320D01*
X48599Y-40320D01*
X47140Y-40320D01*
X47140Y-38454D01*
X47139Y-38239D01*
X47059Y-38046D01*
X46993Y-37992D01*
X46957Y-38027D01*
X46957Y-37956D01*
X46903Y-37890D01*
X46704Y-37809D01*
X46489Y-37810D01*
X46296Y-37890D01*
X46242Y-37956D01*
X46600Y-38314D01*
X46957Y-37956D01*
X46957Y-38027D01*
X46635Y-38350D01*
X46993Y-38707D01*
X47059Y-38653D01*
X47140Y-38454D01*
X47140Y-40320D01*
X46957Y-40320D01*
X46957Y-38743D01*
X46600Y-38385D01*
X46564Y-38420D01*
X46564Y-38350D01*
X46206Y-37992D01*
X46140Y-38046D01*
X46059Y-38245D01*
X46060Y-38460D01*
X46140Y-38653D01*
X46206Y-38707D01*
X46564Y-38350D01*
X46564Y-38420D01*
X46242Y-38743D01*
X46296Y-38809D01*
X46495Y-38890D01*
X46710Y-38889D01*
X46903Y-38809D01*
X46957Y-38743D01*
X46957Y-40320D01*
X46200Y-40320D01*
X45950Y-40320D01*
X45200Y-40320D01*
X45200Y-40320D01*
X45131Y-40334D01*
X45073Y-40373D01*
X45073Y-40373D01*
X45023Y-40423D01*
X43423Y-42023D01*
X43423Y-42023D01*
X43272Y-42173D01*
X43272Y-41968D01*
X43272Y-41929D01*
X43272Y-41417D01*
X43257Y-41380D01*
X43229Y-41352D01*
X43193Y-41337D01*
X43153Y-41337D01*
X41814Y-41337D01*
X41778Y-41352D01*
X41750Y-41380D01*
X41735Y-41417D01*
X41735Y-41456D01*
X41735Y-41968D01*
X41750Y-42005D01*
X41778Y-42033D01*
X41814Y-42048D01*
X41854Y-42048D01*
X42256Y-42048D01*
X42202Y-42101D01*
X42148Y-42232D01*
X42148Y-42373D01*
X42202Y-42504D01*
X42302Y-42604D01*
X42432Y-42658D01*
X42574Y-42658D01*
X42704Y-42604D01*
X42804Y-42504D01*
X42859Y-42374D01*
X42859Y-42232D01*
X42805Y-42102D01*
X42751Y-42048D01*
X43193Y-42048D01*
X43229Y-42033D01*
X43257Y-42005D01*
X43272Y-41968D01*
X43272Y-42173D01*
X42923Y-42523D01*
X42884Y-42581D01*
X42878Y-42610D01*
X42750Y-42610D01*
X42750Y-42610D01*
X42696Y-42621D01*
X42651Y-42651D01*
X42651Y-42651D01*
X42409Y-42893D01*
X42409Y-42880D01*
X42379Y-42807D01*
X42323Y-42751D01*
X42249Y-42720D01*
X42170Y-42720D01*
X42134Y-42735D01*
X42121Y-42735D01*
X42047Y-42735D01*
X41733Y-42733D01*
X41732Y-42734D01*
X41732Y-42733D01*
X41296Y-42733D01*
X41259Y-42718D01*
X41180Y-42718D01*
X41132Y-42738D01*
X40631Y-42738D01*
X40563Y-42752D01*
X40505Y-42791D01*
X40505Y-42791D01*
X40346Y-42950D01*
X40307Y-43008D01*
X40293Y-43077D01*
X40293Y-43077D01*
X40293Y-43476D01*
X40293Y-43477D01*
X40293Y-43477D01*
X40293Y-43950D01*
X40293Y-44400D01*
X40293Y-44850D01*
X40293Y-45300D01*
X40293Y-45750D01*
X40293Y-46200D01*
X40295Y-46207D01*
X40295Y-46337D01*
X40310Y-46374D01*
X40338Y-46402D01*
X40374Y-46417D01*
X40414Y-46417D01*
X40571Y-46417D01*
X40607Y-46402D01*
X40635Y-46374D01*
X40650Y-46339D01*
X40664Y-46374D01*
X40692Y-46402D01*
X40728Y-46417D01*
X40768Y-46417D01*
X40925Y-46417D01*
X40961Y-46402D01*
X40989Y-46374D01*
X41000Y-46349D01*
X41146Y-46349D01*
X41023Y-46473D01*
X41023Y-46473D01*
X40823Y-46673D01*
X40784Y-46731D01*
X40770Y-46800D01*
X40770Y-46800D01*
X40770Y-48400D01*
X40770Y-49049D01*
X40770Y-49050D01*
X40784Y-49118D01*
X40823Y-49176D01*
X41273Y-49626D01*
X41273Y-49626D01*
X41331Y-49665D01*
X41400Y-49679D01*
X41400Y-49679D01*
X41400Y-49679D01*
X44800Y-49679D01*
X49199Y-49679D01*
X49200Y-49679D01*
X49200Y-49679D01*
X49268Y-49665D01*
X49326Y-49626D01*
X49759Y-49193D01*
X49798Y-49135D01*
X49812Y-49066D01*
X49812Y-49066D01*
X49812Y-49066D01*
X49812Y-49063D01*
X49846Y-49048D01*
X49849Y-49046D01*
X49852Y-49048D01*
X49888Y-49063D01*
X49928Y-49063D01*
X50243Y-49063D01*
X50279Y-49048D01*
X50282Y-49046D01*
X50285Y-49048D01*
X50321Y-49063D01*
X50361Y-49063D01*
X50676Y-49063D01*
X50713Y-49048D01*
X50733Y-49028D01*
X50759Y-49039D01*
X50789Y-49039D01*
X50888Y-49039D01*
X50907Y-49020D01*
X50907Y-48674D01*
X50899Y-48674D01*
X50899Y-48624D01*
X50907Y-48624D01*
X50907Y-48278D01*
X50888Y-48259D01*
X50789Y-48259D01*
X50759Y-48259D01*
X50733Y-48270D01*
X50713Y-48250D01*
X50678Y-48236D01*
X50678Y-48104D01*
X50687Y-48104D01*
X50724Y-48089D01*
X50752Y-48061D01*
X50767Y-48025D01*
X50767Y-47985D01*
X50767Y-47828D01*
X50752Y-47792D01*
X50724Y-47764D01*
X50689Y-47749D01*
X50724Y-47735D01*
X50750Y-47709D01*
X53171Y-47709D01*
X53150Y-47760D01*
X53150Y-47839D01*
X53180Y-47912D01*
X53236Y-47968D01*
X53310Y-47999D01*
X53389Y-47999D01*
X53462Y-47969D01*
X53472Y-47959D01*
X54550Y-47959D01*
X55350Y-47959D01*
X55411Y-47947D01*
X55462Y-47912D01*
X55497Y-47861D01*
X55500Y-47847D01*
X55567Y-47779D01*
X55690Y-47779D01*
X55620Y-47849D01*
X55566Y-47980D01*
X55565Y-48121D01*
X55619Y-48252D01*
X55673Y-48306D01*
X55232Y-48306D01*
X55195Y-48321D01*
X55167Y-48349D01*
X55152Y-48385D01*
X55152Y-48425D01*
X55152Y-48937D01*
X55167Y-48973D01*
X55195Y-49001D01*
X55232Y-49016D01*
X55271Y-49016D01*
X56610Y-49016D01*
X56646Y-49001D01*
X56674Y-48973D01*
X56689Y-48937D01*
X56689Y-48897D01*
X56689Y-48385D01*
X56674Y-48349D01*
X56667Y-48342D01*
X56667Y-47575D01*
X56667Y-47465D01*
X56667Y-47415D01*
X56667Y-47305D01*
X56667Y-47182D01*
X56667Y-47072D01*
X56667Y-47022D01*
X56667Y-46912D01*
X56667Y-46788D01*
X56667Y-46678D01*
X56667Y-46628D01*
X56667Y-46518D01*
X56649Y-46499D01*
X56298Y-46499D01*
X56268Y-46499D01*
X56240Y-46511D01*
X56219Y-46532D01*
X56208Y-46559D01*
X56208Y-46609D01*
X56227Y-46628D01*
X56667Y-46628D01*
X56667Y-46678D01*
X56227Y-46678D01*
X56208Y-46697D01*
X56208Y-46747D01*
X56219Y-46774D01*
X56240Y-46795D01*
X56268Y-46807D01*
X56298Y-46807D01*
X56649Y-46807D01*
X56667Y-46788D01*
X56667Y-46912D01*
X56649Y-46893D01*
X56298Y-46893D01*
X56268Y-46893D01*
X56240Y-46904D01*
X56219Y-46926D01*
X56208Y-46953D01*
X56208Y-47003D01*
X56227Y-47022D01*
X56667Y-47022D01*
X56667Y-47072D01*
X56227Y-47072D01*
X56208Y-47090D01*
X56208Y-47140D01*
X56219Y-47168D01*
X56240Y-47189D01*
X56268Y-47200D01*
X56298Y-47200D01*
X56649Y-47200D01*
X56667Y-47182D01*
X56667Y-47305D01*
X56649Y-47287D01*
X56298Y-47287D01*
X56268Y-47287D01*
X56240Y-47298D01*
X56219Y-47319D01*
X56208Y-47347D01*
X56208Y-47397D01*
X56227Y-47415D01*
X56667Y-47415D01*
X56667Y-47465D01*
X56227Y-47465D01*
X56208Y-47484D01*
X56208Y-47534D01*
X56219Y-47562D01*
X56240Y-47583D01*
X56268Y-47594D01*
X56298Y-47594D01*
X56649Y-47594D01*
X56667Y-47575D01*
X56667Y-48342D01*
X56646Y-48321D01*
X56610Y-48306D01*
X56570Y-48306D01*
X56168Y-48306D01*
X56222Y-48252D01*
X56276Y-48122D01*
X56276Y-47980D01*
X56222Y-47850D01*
X56122Y-47750D01*
X55992Y-47695D01*
X55951Y-47695D01*
X56148Y-47498D01*
X56148Y-47498D01*
X56148Y-47498D01*
X56178Y-47453D01*
X56178Y-47453D01*
X56189Y-47400D01*
X56189Y-47200D01*
X56189Y-46457D01*
X56225Y-46421D01*
X56227Y-46422D01*
X56263Y-46437D01*
X56303Y-46437D01*
X56686Y-46437D01*
X56692Y-46439D01*
X57012Y-46439D01*
X57080Y-46467D01*
X57159Y-46467D01*
X57232Y-46437D01*
X57289Y-46381D01*
X57319Y-46307D01*
X57319Y-46228D01*
X57289Y-46155D01*
X57233Y-46099D01*
X57159Y-46068D01*
X57080Y-46068D01*
X57052Y-46080D01*
X56692Y-46080D01*
X56686Y-46081D01*
X56263Y-46081D01*
X56227Y-46096D01*
X56203Y-46120D01*
X56190Y-46120D01*
X56190Y-46120D01*
X56136Y-46131D01*
X56118Y-46143D01*
X56091Y-46161D01*
X56091Y-46161D01*
X55989Y-46263D01*
X55989Y-46107D01*
X56091Y-46005D01*
X56203Y-46005D01*
X56227Y-46029D01*
X56263Y-46044D01*
X56303Y-46044D01*
X56686Y-46044D01*
X56692Y-46045D01*
X57027Y-46045D01*
X57080Y-46067D01*
X57159Y-46067D01*
X57232Y-46037D01*
X57289Y-45981D01*
X57319Y-45907D01*
X57319Y-45828D01*
X57289Y-45755D01*
X57233Y-45699D01*
X57201Y-45686D01*
X57201Y-45570D01*
X57201Y-45531D01*
X57201Y-45373D01*
X57201Y-45177D01*
X57201Y-45137D01*
X57201Y-44980D01*
X57186Y-44943D01*
X57177Y-44934D01*
X57177Y-44778D01*
X57177Y-44728D01*
X57177Y-44641D01*
X57177Y-44591D01*
X57177Y-44384D01*
X57177Y-44335D01*
X57177Y-44247D01*
X57177Y-44197D01*
X57177Y-43991D01*
X57177Y-43941D01*
X57177Y-43853D01*
X57177Y-43803D01*
X57165Y-43776D01*
X57144Y-43755D01*
X57117Y-43743D01*
X57087Y-43743D01*
X56736Y-43743D01*
X56717Y-43762D01*
X56717Y-43872D01*
X57158Y-43872D01*
X57177Y-43853D01*
X57177Y-43941D01*
X57158Y-43922D01*
X56717Y-43922D01*
X56717Y-44032D01*
X56736Y-44051D01*
X57087Y-44051D01*
X57117Y-44051D01*
X57144Y-44039D01*
X57165Y-44018D01*
X57177Y-43991D01*
X57177Y-44197D01*
X57165Y-44170D01*
X57144Y-44149D01*
X57117Y-44137D01*
X57087Y-44137D01*
X56736Y-44137D01*
X56717Y-44156D01*
X56717Y-44266D01*
X57158Y-44266D01*
X57177Y-44247D01*
X57177Y-44335D01*
X57158Y-44316D01*
X56717Y-44316D01*
X56717Y-44426D01*
X56736Y-44445D01*
X57087Y-44445D01*
X57117Y-44445D01*
X57144Y-44433D01*
X57165Y-44412D01*
X57177Y-44384D01*
X57177Y-44591D01*
X57165Y-44563D01*
X57144Y-44542D01*
X57117Y-44531D01*
X57087Y-44531D01*
X56736Y-44531D01*
X56717Y-44550D01*
X56717Y-44660D01*
X57158Y-44660D01*
X57177Y-44641D01*
X57177Y-44728D01*
X57158Y-44710D01*
X56717Y-44710D01*
X56717Y-44820D01*
X56736Y-44838D01*
X57087Y-44838D01*
X57117Y-44838D01*
X57144Y-44827D01*
X57165Y-44806D01*
X57177Y-44778D01*
X57177Y-44934D01*
X57158Y-44915D01*
X57122Y-44900D01*
X57082Y-44900D01*
X56699Y-44900D01*
X56692Y-44899D01*
X56667Y-44899D01*
X56667Y-44820D01*
X56667Y-44710D01*
X56667Y-44660D01*
X56667Y-44550D01*
X56667Y-44426D01*
X56667Y-44316D01*
X56667Y-44266D01*
X56667Y-44156D01*
X56667Y-44032D01*
X56667Y-43922D01*
X56667Y-43872D01*
X56667Y-43762D01*
X56649Y-43743D01*
X56298Y-43743D01*
X56268Y-43743D01*
X56240Y-43755D01*
X56219Y-43776D01*
X56208Y-43803D01*
X56208Y-43853D01*
X56227Y-43872D01*
X56667Y-43872D01*
X56667Y-43922D01*
X56227Y-43922D01*
X56208Y-43941D01*
X56208Y-43991D01*
X56219Y-44018D01*
X56240Y-44039D01*
X56268Y-44051D01*
X56298Y-44051D01*
X56649Y-44051D01*
X56667Y-44032D01*
X56667Y-44156D01*
X56649Y-44137D01*
X56298Y-44137D01*
X56268Y-44137D01*
X56240Y-44149D01*
X56219Y-44170D01*
X56208Y-44197D01*
X56208Y-44247D01*
X56227Y-44266D01*
X56667Y-44266D01*
X56667Y-44316D01*
X56227Y-44316D01*
X56208Y-44335D01*
X56208Y-44384D01*
X56219Y-44412D01*
X56240Y-44433D01*
X56268Y-44445D01*
X56298Y-44445D01*
X56649Y-44445D01*
X56667Y-44426D01*
X56667Y-44550D01*
X56649Y-44531D01*
X56298Y-44531D01*
X56268Y-44531D01*
X56240Y-44542D01*
X56219Y-44563D01*
X56208Y-44591D01*
X56208Y-44641D01*
X56227Y-44660D01*
X56667Y-44660D01*
X56667Y-44710D01*
X56227Y-44710D01*
X56208Y-44728D01*
X56208Y-44778D01*
X56219Y-44806D01*
X56240Y-44827D01*
X56268Y-44838D01*
X56298Y-44838D01*
X56649Y-44838D01*
X56667Y-44820D01*
X56667Y-44899D01*
X56383Y-44899D01*
X56383Y-44899D01*
X56309Y-44868D01*
X56230Y-44868D01*
X56157Y-44898D01*
X56127Y-44928D01*
X56075Y-44928D01*
X55989Y-44842D01*
X55989Y-42750D01*
X55989Y-42750D01*
X55989Y-42750D01*
X55978Y-42696D01*
X55978Y-42696D01*
X55966Y-42678D01*
X55948Y-42651D01*
X55948Y-42651D01*
X55898Y-42601D01*
X55898Y-42601D01*
X55798Y-42501D01*
X55753Y-42471D01*
X55700Y-42460D01*
X55699Y-42460D01*
X55422Y-42460D01*
X55411Y-42452D01*
X55350Y-42440D01*
X54766Y-42440D01*
X53612Y-41287D01*
X53561Y-41252D01*
X53550Y-41250D01*
X53500Y-41240D01*
X53499Y-41240D01*
X53056Y-41240D01*
X53031Y-41215D01*
X52994Y-41200D01*
X52955Y-41200D01*
X52505Y-41200D01*
X52468Y-41215D01*
X52440Y-41243D01*
X52425Y-41280D01*
X52425Y-41319D01*
X52425Y-41519D01*
X52440Y-41556D01*
X52468Y-41584D01*
X52505Y-41599D01*
X52544Y-41599D01*
X52994Y-41599D01*
X53031Y-41584D01*
X53056Y-41559D01*
X53433Y-41559D01*
X54587Y-42712D01*
X54587Y-42712D01*
X54587Y-42712D01*
X54628Y-42740D01*
X53056Y-42740D01*
X53031Y-42715D01*
X52994Y-42700D01*
X52955Y-42700D01*
X52505Y-42700D01*
X52468Y-42715D01*
X52440Y-42743D01*
X52425Y-42780D01*
X52425Y-42819D01*
X52425Y-43000D01*
X52409Y-42983D01*
X52409Y-42566D01*
X52416Y-42559D01*
X52443Y-42559D01*
X52468Y-42584D01*
X52505Y-42599D01*
X52544Y-42599D01*
X52994Y-42599D01*
X53031Y-42584D01*
X53059Y-42556D01*
X53074Y-42519D01*
X53074Y-42480D01*
X53074Y-42280D01*
X53059Y-42243D01*
X53031Y-42215D01*
X52994Y-42200D01*
X52955Y-42200D01*
X52505Y-42200D01*
X52468Y-42215D01*
X52443Y-42240D01*
X52350Y-42240D01*
X52288Y-42252D01*
X52237Y-42287D01*
X52237Y-42287D01*
X52159Y-42365D01*
X52159Y-42316D01*
X52416Y-42059D01*
X52443Y-42059D01*
X52468Y-42084D01*
X52505Y-42099D01*
X52544Y-42099D01*
X52994Y-42099D01*
X53031Y-42084D01*
X53059Y-42056D01*
X53074Y-42019D01*
X53074Y-41980D01*
X53074Y-41780D01*
X53059Y-41743D01*
X53031Y-41715D01*
X52994Y-41700D01*
X52955Y-41700D01*
X52505Y-41700D01*
X52468Y-41715D01*
X52443Y-41740D01*
X52350Y-41740D01*
X52350Y-41740D01*
X52299Y-41750D01*
X52288Y-41752D01*
X52237Y-41787D01*
X52237Y-41787D01*
X51887Y-42137D01*
X51852Y-42188D01*
X51850Y-42199D01*
X51840Y-42250D01*
X51840Y-42250D01*
X51840Y-42450D01*
X51840Y-43149D01*
X51840Y-43150D01*
X51850Y-43200D01*
X51852Y-43211D01*
X51887Y-43262D01*
X52438Y-43813D01*
X52438Y-43813D01*
X52438Y-43813D01*
X52489Y-43848D01*
X52489Y-43848D01*
X52499Y-43850D01*
X52550Y-43860D01*
X52550Y-43860D01*
X52550Y-43860D01*
X54680Y-43860D01*
X54683Y-43863D01*
X54720Y-43878D01*
X54759Y-43878D01*
X55143Y-43878D01*
X55149Y-43880D01*
X55450Y-43880D01*
X55456Y-43887D01*
X55524Y-43915D01*
X55149Y-43915D01*
X55143Y-43916D01*
X54720Y-43916D01*
X54683Y-43931D01*
X54655Y-43959D01*
X54640Y-43995D01*
X54640Y-44035D01*
X54640Y-44193D01*
X54655Y-44229D01*
X54683Y-44257D01*
X54720Y-44272D01*
X54759Y-44272D01*
X55143Y-44272D01*
X55149Y-44273D01*
X55443Y-44273D01*
X55456Y-44287D01*
X55509Y-44308D01*
X55149Y-44308D01*
X55143Y-44310D01*
X54720Y-44310D01*
X54683Y-44325D01*
X54655Y-44353D01*
X54640Y-44389D01*
X54640Y-44429D01*
X54640Y-44586D01*
X54655Y-44623D01*
X54683Y-44651D01*
X54720Y-44666D01*
X54759Y-44666D01*
X55143Y-44666D01*
X55149Y-44667D01*
X55437Y-44667D01*
X55456Y-44687D01*
X55494Y-44702D01*
X55149Y-44702D01*
X55143Y-44703D01*
X54720Y-44703D01*
X54683Y-44718D01*
X54655Y-44746D01*
X54640Y-44783D01*
X54640Y-44822D01*
X54640Y-44980D01*
X54655Y-45016D01*
X54683Y-45044D01*
X54720Y-45060D01*
X54759Y-45060D01*
X55143Y-45060D01*
X55149Y-45061D01*
X55431Y-45061D01*
X55456Y-45087D01*
X55471Y-45093D01*
X55463Y-45096D01*
X55149Y-45096D01*
X55143Y-45097D01*
X54720Y-45097D01*
X54683Y-45112D01*
X54655Y-45140D01*
X54640Y-45177D01*
X54640Y-45216D01*
X54640Y-45374D01*
X54655Y-45410D01*
X54683Y-45438D01*
X54720Y-45453D01*
X54759Y-45453D01*
X55143Y-45453D01*
X55149Y-45455D01*
X55500Y-45455D01*
X55530Y-45467D01*
X55609Y-45467D01*
X55682Y-45437D01*
X55739Y-45381D01*
X55769Y-45307D01*
X55769Y-45228D01*
X55739Y-45155D01*
X55683Y-45099D01*
X55668Y-45093D01*
X55682Y-45087D01*
X55739Y-45031D01*
X55752Y-44999D01*
X55919Y-45166D01*
X55919Y-45166D01*
X55946Y-45184D01*
X55964Y-45196D01*
X55964Y-45196D01*
X56018Y-45207D01*
X56018Y-45207D01*
X56018Y-45207D01*
X56127Y-45207D01*
X56156Y-45237D01*
X56230Y-45267D01*
X56309Y-45267D01*
X56332Y-45258D01*
X56692Y-45258D01*
X56699Y-45256D01*
X57122Y-45256D01*
X57158Y-45241D01*
X57186Y-45213D01*
X57201Y-45177D01*
X57201Y-45373D01*
X57186Y-45337D01*
X57158Y-45309D01*
X57122Y-45294D01*
X57082Y-45294D01*
X56699Y-45294D01*
X56692Y-45293D01*
X56368Y-45293D01*
X56309Y-45268D01*
X56230Y-45268D01*
X56157Y-45298D01*
X56101Y-45355D01*
X56070Y-45428D01*
X56070Y-45507D01*
X56100Y-45580D01*
X56156Y-45637D01*
X56230Y-45667D01*
X56309Y-45667D01*
X56347Y-45651D01*
X56692Y-45651D01*
X56699Y-45650D01*
X57122Y-45650D01*
X57158Y-45635D01*
X57186Y-45607D01*
X57201Y-45570D01*
X57201Y-45686D01*
X57159Y-45668D01*
X57080Y-45668D01*
X57036Y-45686D01*
X56692Y-45686D01*
X56686Y-45687D01*
X56263Y-45687D01*
X56227Y-45703D01*
X56203Y-45726D01*
X56033Y-45726D01*
X56033Y-45726D01*
X55980Y-45737D01*
X55935Y-45767D01*
X55935Y-45767D01*
X55751Y-45951D01*
X55742Y-45964D01*
X55739Y-45955D01*
X55683Y-45899D01*
X55609Y-45868D01*
X55530Y-45868D01*
X55494Y-45883D01*
X55149Y-45883D01*
X55143Y-45884D01*
X54720Y-45884D01*
X54683Y-45899D01*
X54680Y-45903D01*
X52505Y-45903D01*
X52493Y-45891D01*
X52419Y-45860D01*
X52340Y-45860D01*
X52267Y-45890D01*
X52254Y-45903D01*
X50879Y-45903D01*
X49612Y-44637D01*
X49612Y-44637D01*
X49412Y-44437D01*
X49361Y-44402D01*
X49350Y-44400D01*
X49300Y-44390D01*
X49299Y-44390D01*
X48166Y-44390D01*
X47155Y-43380D01*
X47155Y-43154D01*
X47190Y-43139D01*
X47218Y-43111D01*
X47233Y-43075D01*
X47233Y-43035D01*
X47233Y-42327D01*
X47221Y-42299D01*
X47262Y-42299D01*
X47250Y-42327D01*
X47250Y-42366D01*
X47250Y-43075D01*
X47266Y-43111D01*
X47294Y-43139D01*
X47328Y-43154D01*
X47328Y-43388D01*
X47328Y-43388D01*
X47338Y-43439D01*
X47340Y-43449D01*
X47375Y-43500D01*
X48137Y-44262D01*
X48137Y-44262D01*
X48188Y-44297D01*
X48188Y-44297D01*
X48250Y-44309D01*
X49377Y-44309D01*
X49386Y-44318D01*
X49460Y-44349D01*
X49473Y-44349D01*
X49687Y-44562D01*
X49687Y-44562D01*
X49687Y-44562D01*
X50906Y-45782D01*
X50906Y-45782D01*
X50958Y-45816D01*
X51019Y-45828D01*
X53306Y-45828D01*
X53316Y-45838D01*
X53390Y-45869D01*
X53469Y-45869D01*
X53542Y-45839D01*
X53553Y-45828D01*
X54680Y-45828D01*
X54683Y-45832D01*
X54720Y-45847D01*
X54759Y-45847D01*
X55143Y-45847D01*
X55149Y-45848D01*
X55485Y-45848D01*
X55530Y-45867D01*
X55609Y-45867D01*
X55682Y-45837D01*
X55739Y-45781D01*
X55769Y-45707D01*
X55769Y-45628D01*
X55739Y-45555D01*
X55683Y-45499D01*
X55609Y-45468D01*
X55530Y-45468D01*
X55479Y-45489D01*
X55149Y-45489D01*
X55143Y-45491D01*
X54720Y-45491D01*
X54683Y-45506D01*
X54680Y-45509D01*
X53551Y-45509D01*
X53543Y-45501D01*
X53469Y-45470D01*
X53390Y-45470D01*
X53317Y-45500D01*
X53308Y-45509D01*
X51085Y-45509D01*
X49912Y-44337D01*
X49912Y-44337D01*
X49912Y-44337D01*
X49699Y-44123D01*
X49699Y-44110D01*
X49669Y-44037D01*
X49613Y-43981D01*
X49539Y-43950D01*
X49460Y-43950D01*
X49387Y-43980D01*
X49377Y-43990D01*
X49050Y-43990D01*
X49050Y-42764D01*
X49050Y-42618D01*
X49050Y-42531D01*
X49050Y-42385D01*
X49038Y-42357D01*
X49017Y-42336D01*
X48989Y-42325D01*
X48960Y-42325D01*
X48743Y-42325D01*
X48725Y-42343D01*
X48725Y-42550D01*
X49031Y-42550D01*
X49050Y-42531D01*
X49050Y-42618D01*
X49031Y-42600D01*
X48725Y-42600D01*
X48725Y-42806D01*
X48743Y-42825D01*
X48960Y-42825D01*
X48989Y-42825D01*
X49017Y-42813D01*
X49038Y-42792D01*
X49050Y-42764D01*
X49050Y-43990D01*
X48675Y-43990D01*
X48675Y-42806D01*
X48675Y-42600D01*
X48675Y-42550D01*
X48675Y-42343D01*
X48656Y-42325D01*
X48439Y-42325D01*
X48410Y-42325D01*
X48382Y-42336D01*
X48361Y-42357D01*
X48350Y-42385D01*
X48350Y-42531D01*
X48368Y-42550D01*
X48675Y-42550D01*
X48675Y-42600D01*
X48368Y-42600D01*
X48350Y-42618D01*
X48350Y-42764D01*
X48361Y-42792D01*
X48382Y-42813D01*
X48410Y-42825D01*
X48439Y-42825D01*
X48656Y-42825D01*
X48675Y-42806D01*
X48675Y-43990D01*
X48316Y-43990D01*
X48293Y-43967D01*
X48293Y-42220D01*
X48293Y-42170D01*
X48293Y-42083D01*
X48293Y-42033D01*
X48281Y-42006D01*
X48260Y-41984D01*
X48232Y-41973D01*
X48203Y-41973D01*
X48143Y-41973D01*
X48125Y-41992D01*
X48125Y-42102D01*
X48274Y-42102D01*
X48293Y-42083D01*
X48293Y-42170D01*
X48274Y-42152D01*
X48125Y-42152D01*
X48125Y-42261D01*
X48143Y-42280D01*
X48203Y-42280D01*
X48232Y-42280D01*
X48260Y-42269D01*
X48281Y-42247D01*
X48293Y-42220D01*
X48293Y-43967D01*
X48075Y-43749D01*
X48075Y-42261D01*
X48075Y-42152D01*
X47925Y-42152D01*
X47907Y-42170D01*
X47907Y-42220D01*
X47918Y-42247D01*
X47939Y-42269D01*
X47967Y-42280D01*
X47996Y-42280D01*
X48056Y-42280D01*
X48075Y-42261D01*
X48075Y-43749D01*
X47647Y-43322D01*
X47647Y-43154D01*
X47682Y-43139D01*
X47710Y-43111D01*
X47725Y-43075D01*
X47725Y-43035D01*
X47725Y-42327D01*
X47710Y-42290D01*
X47707Y-42287D01*
X47755Y-42255D01*
X47905Y-42105D01*
X47915Y-42091D01*
X47925Y-42102D01*
X48075Y-42102D01*
X48075Y-41992D01*
X48056Y-41973D01*
X47996Y-41973D01*
X47967Y-41973D01*
X47949Y-41980D01*
X47949Y-41945D01*
X47962Y-41950D01*
X48001Y-41950D01*
X48237Y-41950D01*
X48274Y-41935D01*
X48277Y-41932D01*
X48325Y-41932D01*
X48325Y-42019D01*
X48340Y-42056D01*
X48368Y-42084D01*
X48405Y-42099D01*
X48444Y-42099D01*
X48994Y-42099D01*
X49031Y-42084D01*
X49059Y-42056D01*
X49074Y-42019D01*
X49074Y-42004D01*
X49100Y-42004D01*
X49120Y-42024D01*
X49120Y-43250D01*
X49120Y-43299D01*
X49120Y-43300D01*
X49134Y-43368D01*
X49173Y-43426D01*
X49423Y-43676D01*
X49423Y-43676D01*
X49423Y-43676D01*
X49481Y-43715D01*
X49550Y-43729D01*
X49550Y-43729D01*
X49550Y-43729D01*
X50899Y-43729D01*
X50900Y-43729D01*
X50900Y-43729D01*
X50968Y-43715D01*
X51026Y-43676D01*
X51576Y-43126D01*
X51576Y-43126D01*
X51576Y-43126D01*
X51615Y-43068D01*
X51629Y-43000D01*
X51629Y-41474D01*
X51876Y-41226D01*
X51876Y-41226D01*
X51876Y-41226D01*
X51976Y-41126D01*
X51976Y-41126D01*
X51976Y-41126D01*
X52074Y-41029D01*
X56350Y-41029D01*
X56400Y-41029D01*
X56575Y-41029D01*
X56720Y-41174D01*
X56720Y-41775D01*
X56689Y-41806D01*
X56689Y-41771D01*
X56689Y-41732D01*
X56689Y-41220D01*
X56674Y-41183D01*
X56646Y-41155D01*
X56610Y-41140D01*
X56570Y-41140D01*
X55232Y-41140D01*
X55195Y-41155D01*
X55167Y-41183D01*
X55152Y-41220D01*
X55152Y-41259D01*
X55152Y-41771D01*
X55167Y-41808D01*
X55195Y-41836D01*
X55232Y-41851D01*
X55271Y-41851D01*
X55673Y-41851D01*
X55620Y-41904D01*
X55566Y-42035D01*
X55565Y-42176D01*
X55619Y-42307D01*
X55719Y-42407D01*
X55850Y-42461D01*
X55991Y-42461D01*
X56122Y-42407D01*
X56222Y-42307D01*
X56276Y-42177D01*
X56276Y-42035D01*
X56222Y-41905D01*
X56168Y-41851D01*
X56610Y-41851D01*
X56646Y-41836D01*
X56674Y-41808D01*
X56689Y-41771D01*
X56689Y-41806D01*
X56566Y-41930D01*
X56527Y-41988D01*
X56513Y-42057D01*
X56513Y-42057D01*
X56513Y-42537D01*
X56354Y-42537D01*
X56309Y-42518D01*
X56230Y-42518D01*
X56157Y-42548D01*
X56101Y-42605D01*
X56070Y-42678D01*
X56070Y-42757D01*
X56100Y-42830D01*
X56156Y-42887D01*
X56230Y-42917D01*
X56309Y-42917D01*
X56361Y-42895D01*
X56513Y-42895D01*
X56513Y-42930D01*
X56339Y-42930D01*
X56309Y-42918D01*
X56230Y-42918D01*
X56157Y-42948D01*
X56101Y-43005D01*
X56070Y-43078D01*
X56070Y-43157D01*
X56100Y-43230D01*
X56156Y-43287D01*
X56230Y-43317D01*
X56309Y-43317D01*
X56377Y-43289D01*
X56513Y-43289D01*
X56513Y-43324D01*
X56323Y-43324D01*
X56309Y-43318D01*
X56230Y-43318D01*
X56157Y-43348D01*
X56101Y-43405D01*
X56070Y-43478D01*
X56070Y-43557D01*
X56100Y-43630D01*
X56156Y-43687D01*
X56230Y-43717D01*
X56309Y-43717D01*
X56382Y-43687D01*
X56386Y-43683D01*
X56692Y-43683D01*
X57003Y-43683D01*
X57006Y-43687D01*
X57080Y-43717D01*
X57159Y-43717D01*
X57232Y-43687D01*
X57289Y-43631D01*
X57319Y-43557D01*
X57319Y-43478D01*
X57289Y-43405D01*
X57233Y-43349D01*
X57159Y-43318D01*
X57080Y-43318D01*
X57066Y-43324D01*
X56872Y-43324D01*
X56872Y-43289D01*
X57013Y-43289D01*
X57080Y-43317D01*
X57159Y-43317D01*
X57232Y-43287D01*
X57289Y-43231D01*
X57319Y-43157D01*
X57319Y-43078D01*
X57289Y-43005D01*
X57233Y-42949D01*
X57159Y-42918D01*
X57080Y-42918D01*
X57051Y-42930D01*
X56872Y-42930D01*
X56872Y-42895D01*
X57028Y-42895D01*
X57080Y-42917D01*
X57159Y-42917D01*
X57232Y-42887D01*
X57289Y-42831D01*
X57319Y-42757D01*
X57319Y-42678D01*
X57289Y-42605D01*
X57233Y-42549D01*
X57159Y-42518D01*
X57144Y-42518D01*
X57326Y-42336D01*
X57365Y-42278D01*
X57379Y-42209D01*
X57379Y-42209D01*
X57379Y-52709D01*
X57177Y-52911D01*
X57177Y-47534D01*
X57177Y-47484D01*
X57177Y-47397D01*
X57177Y-47347D01*
X57177Y-47140D01*
X57177Y-47090D01*
X57177Y-47003D01*
X57177Y-46953D01*
X57177Y-46747D01*
X57177Y-46697D01*
X57177Y-46609D01*
X57177Y-46559D01*
X57165Y-46532D01*
X57144Y-46511D01*
X57117Y-46499D01*
X57087Y-46499D01*
X56736Y-46499D01*
X56717Y-46518D01*
X56717Y-46628D01*
X57158Y-46628D01*
X57177Y-46609D01*
X57177Y-46697D01*
X57158Y-46678D01*
X56717Y-46678D01*
X56717Y-46788D01*
X56736Y-46807D01*
X57087Y-46807D01*
X57117Y-46807D01*
X57144Y-46795D01*
X57165Y-46774D01*
X57177Y-46747D01*
X57177Y-46953D01*
X57165Y-46926D01*
X57144Y-46904D01*
X57117Y-46893D01*
X57087Y-46893D01*
X56736Y-46893D01*
X56717Y-46912D01*
X56717Y-47022D01*
X57158Y-47022D01*
X57177Y-47003D01*
X57177Y-47090D01*
X57158Y-47072D01*
X56717Y-47072D01*
X56717Y-47182D01*
X56736Y-47200D01*
X57087Y-47200D01*
X57117Y-47200D01*
X57144Y-47189D01*
X57165Y-47168D01*
X57177Y-47140D01*
X57177Y-47347D01*
X57165Y-47319D01*
X57144Y-47298D01*
X57117Y-47287D01*
X57087Y-47287D01*
X56736Y-47287D01*
X56717Y-47305D01*
X56717Y-47415D01*
X57158Y-47415D01*
X57177Y-47397D01*
X57177Y-47484D01*
X57158Y-47465D01*
X56717Y-47465D01*
X56717Y-47575D01*
X56736Y-47594D01*
X57087Y-47594D01*
X57117Y-47594D01*
X57144Y-47583D01*
X57165Y-47562D01*
X57177Y-47534D01*
X57177Y-52911D01*
X55074Y-55013D01*
X52299Y-55013D01*
X52299Y-47960D01*
X52269Y-47887D01*
X52213Y-47831D01*
X52139Y-47800D01*
X52060Y-47800D01*
X51987Y-47830D01*
X51931Y-47886D01*
X51900Y-47960D01*
X51900Y-48039D01*
X51930Y-48112D01*
X51940Y-48122D01*
X51940Y-50300D01*
X51940Y-51433D01*
X51683Y-51690D01*
X51600Y-51690D01*
X50650Y-51690D01*
X50650Y-51690D01*
X50631Y-51694D01*
X50641Y-51684D01*
X51524Y-51684D01*
X51525Y-51684D01*
X51525Y-51684D01*
X51575Y-51674D01*
X51586Y-51672D01*
X51586Y-51672D01*
X51637Y-51637D01*
X51812Y-51462D01*
X51812Y-51462D01*
X51812Y-51462D01*
X51847Y-51411D01*
X51847Y-51411D01*
X51849Y-51400D01*
X51859Y-51350D01*
X51859Y-51350D01*
X51859Y-51349D01*
X51859Y-51100D01*
X51859Y-50200D01*
X51859Y-48122D01*
X51868Y-48113D01*
X51899Y-48039D01*
X51899Y-47960D01*
X51869Y-47887D01*
X51813Y-47831D01*
X51739Y-47800D01*
X51660Y-47800D01*
X51587Y-47830D01*
X51531Y-47886D01*
X51500Y-47960D01*
X51500Y-48039D01*
X51530Y-48112D01*
X51540Y-48122D01*
X51540Y-50200D01*
X51540Y-51100D01*
X51540Y-51283D01*
X51458Y-51365D01*
X51164Y-51365D01*
X51164Y-48979D01*
X51164Y-48693D01*
X51164Y-48605D01*
X51164Y-48319D01*
X51153Y-48292D01*
X51132Y-48271D01*
X51104Y-48259D01*
X51074Y-48259D01*
X50976Y-48259D01*
X50957Y-48278D01*
X50957Y-48624D01*
X51146Y-48624D01*
X51164Y-48605D01*
X51164Y-48693D01*
X51146Y-48674D01*
X50957Y-48674D01*
X50957Y-49020D01*
X50976Y-49039D01*
X51074Y-49039D01*
X51104Y-49039D01*
X51132Y-49028D01*
X51153Y-49007D01*
X51164Y-48979D01*
X51164Y-51365D01*
X50575Y-51365D01*
X50575Y-51365D01*
X50513Y-51377D01*
X50496Y-51389D01*
X50462Y-51412D01*
X50462Y-51412D01*
X50387Y-51487D01*
X50387Y-51487D01*
X49953Y-51921D01*
X49943Y-51936D01*
X49888Y-51936D01*
X49852Y-51951D01*
X49849Y-51953D01*
X49846Y-51951D01*
X49810Y-51936D01*
X49770Y-51936D01*
X49455Y-51936D01*
X49419Y-51951D01*
X49416Y-51953D01*
X49413Y-51951D01*
X49377Y-51936D01*
X49337Y-51936D01*
X49022Y-51936D01*
X48986Y-51951D01*
X48983Y-51953D01*
X48980Y-51951D01*
X48944Y-51936D01*
X48904Y-51936D01*
X48589Y-51936D01*
X48553Y-51951D01*
X48532Y-51971D01*
X48506Y-51960D01*
X48476Y-51960D01*
X48377Y-51960D01*
X48358Y-51979D01*
X48358Y-52325D01*
X48366Y-52325D01*
X48366Y-52375D01*
X48358Y-52375D01*
X48358Y-52721D01*
X48377Y-52740D01*
X48476Y-52740D01*
X48506Y-52740D01*
X48532Y-52729D01*
X48553Y-52749D01*
X48589Y-52764D01*
X48629Y-52764D01*
X48944Y-52764D01*
X48980Y-52749D01*
X48983Y-52746D01*
X48986Y-52749D01*
X49022Y-52764D01*
X49062Y-52764D01*
X49377Y-52764D01*
X49413Y-52749D01*
X49416Y-52746D01*
X49419Y-52749D01*
X49455Y-52764D01*
X49495Y-52764D01*
X49810Y-52764D01*
X49846Y-52749D01*
X49849Y-52746D01*
X49852Y-52749D01*
X49888Y-52764D01*
X49928Y-52764D01*
X50243Y-52764D01*
X50279Y-52749D01*
X50282Y-52746D01*
X50285Y-52749D01*
X50321Y-52764D01*
X50361Y-52764D01*
X50676Y-52764D01*
X50713Y-52749D01*
X50715Y-52746D01*
X50718Y-52749D01*
X50755Y-52764D01*
X50794Y-52764D01*
X51109Y-52764D01*
X51146Y-52749D01*
X51174Y-52721D01*
X51189Y-52685D01*
X51189Y-52645D01*
X51189Y-52015D01*
X51186Y-52009D01*
X51600Y-52009D01*
X51749Y-52009D01*
X51750Y-52009D01*
X51750Y-52009D01*
X51800Y-51999D01*
X51811Y-51997D01*
X51811Y-51997D01*
X51862Y-51962D01*
X52212Y-51612D01*
X52212Y-51612D01*
X52212Y-51612D01*
X52247Y-51561D01*
X52247Y-51561D01*
X52249Y-51550D01*
X52259Y-51500D01*
X52259Y-51500D01*
X52259Y-51499D01*
X52259Y-50300D01*
X52259Y-48122D01*
X52268Y-48113D01*
X52299Y-48039D01*
X52299Y-47960D01*
X52299Y-55013D01*
X48782Y-55013D01*
X48782Y-54497D01*
X48782Y-54468D01*
X48782Y-54093D01*
X48782Y-54006D01*
X48782Y-53631D01*
X48782Y-53602D01*
X48770Y-53574D01*
X48749Y-53553D01*
X48722Y-53541D01*
X48534Y-53541D01*
X48515Y-53560D01*
X48515Y-54025D01*
X48763Y-54025D01*
X48782Y-54006D01*
X48782Y-54093D01*
X48763Y-54075D01*
X48515Y-54075D01*
X48515Y-54539D01*
X48534Y-54558D01*
X48722Y-54558D01*
X48749Y-54546D01*
X48770Y-54525D01*
X48782Y-54497D01*
X48782Y-55013D01*
X48465Y-55013D01*
X48465Y-54539D01*
X48465Y-54075D01*
X48465Y-54025D01*
X48465Y-53560D01*
X48446Y-53541D01*
X48259Y-53541D01*
X48231Y-53553D01*
X48215Y-53568D01*
X48215Y-53223D01*
X48200Y-53186D01*
X48172Y-53158D01*
X48136Y-53143D01*
X48096Y-53143D01*
X48080Y-53143D01*
X48080Y-52763D01*
X48114Y-52749D01*
X48134Y-52729D01*
X48161Y-52740D01*
X48191Y-52740D01*
X48290Y-52740D01*
X48308Y-52721D01*
X48308Y-52375D01*
X48300Y-52375D01*
X48300Y-52325D01*
X48308Y-52325D01*
X48308Y-51979D01*
X48290Y-51960D01*
X48191Y-51960D01*
X48161Y-51960D01*
X48134Y-51971D01*
X48114Y-51951D01*
X48078Y-51936D01*
X48038Y-51936D01*
X47723Y-51936D01*
X47686Y-51951D01*
X47666Y-51971D01*
X47640Y-51960D01*
X47610Y-51960D01*
X47511Y-51960D01*
X47492Y-51979D01*
X47492Y-52325D01*
X47500Y-52325D01*
X47500Y-52375D01*
X47492Y-52375D01*
X47492Y-52721D01*
X47511Y-52740D01*
X47610Y-52740D01*
X47640Y-52740D01*
X47666Y-52729D01*
X47686Y-52749D01*
X47721Y-52763D01*
X47721Y-53143D01*
X47663Y-53143D01*
X47627Y-53158D01*
X47599Y-53186D01*
X47584Y-53223D01*
X47584Y-53262D01*
X47584Y-53568D01*
X47568Y-53553D01*
X47540Y-53541D01*
X47442Y-53541D01*
X47442Y-52721D01*
X47442Y-52375D01*
X47442Y-52325D01*
X47442Y-51979D01*
X47423Y-51960D01*
X47325Y-51960D01*
X47295Y-51960D01*
X47267Y-51971D01*
X47246Y-51992D01*
X47235Y-52020D01*
X47235Y-52306D01*
X47253Y-52325D01*
X47442Y-52325D01*
X47442Y-52375D01*
X47253Y-52375D01*
X47235Y-52394D01*
X47235Y-52680D01*
X47246Y-52707D01*
X47267Y-52728D01*
X47295Y-52740D01*
X47325Y-52740D01*
X47423Y-52740D01*
X47442Y-52721D01*
X47442Y-53541D01*
X47353Y-53541D01*
X47334Y-53560D01*
X47334Y-54025D01*
X47582Y-54025D01*
X47600Y-54006D01*
X47600Y-53734D01*
X47627Y-53760D01*
X47663Y-53775D01*
X47703Y-53775D01*
X48136Y-53775D01*
X48172Y-53760D01*
X48199Y-53734D01*
X48199Y-54006D01*
X48217Y-54025D01*
X48465Y-54025D01*
X48465Y-54075D01*
X48217Y-54075D01*
X48199Y-54093D01*
X48199Y-54468D01*
X48199Y-54497D01*
X48210Y-54525D01*
X48231Y-54546D01*
X48259Y-54558D01*
X48446Y-54558D01*
X48465Y-54539D01*
X48465Y-55013D01*
X47600Y-55013D01*
X47600Y-54497D01*
X47600Y-54468D01*
X47600Y-54093D01*
X47582Y-54075D01*
X47334Y-54075D01*
X47334Y-54539D01*
X47353Y-54558D01*
X47540Y-54558D01*
X47568Y-54546D01*
X47589Y-54525D01*
X47600Y-54497D01*
X47600Y-55013D01*
X47284Y-55013D01*
X47284Y-54539D01*
X47284Y-54075D01*
X47284Y-54025D01*
X47284Y-53560D01*
X47265Y-53541D01*
X47077Y-53541D01*
X47050Y-53553D01*
X47029Y-53574D01*
X47017Y-53602D01*
X47017Y-53631D01*
X47017Y-54006D01*
X47036Y-54025D01*
X47284Y-54025D01*
X47284Y-54075D01*
X47036Y-54075D01*
X47017Y-54093D01*
X47017Y-54468D01*
X47017Y-54497D01*
X47029Y-54525D01*
X47050Y-54546D01*
X47077Y-54558D01*
X47265Y-54558D01*
X47284Y-54539D01*
X47284Y-55013D01*
X43350Y-55013D01*
X39474Y-51137D01*
X39474Y-39413D01*
X43350Y-35537D01*
X55074Y-35537D01*
X58950Y-39413D01*
X58950Y-51137D01*
M02*
