M48
INCH,TZ

T1C0.012
T2C0.030
T3C0.031
T4C0.039
T5C0.040
T6C0.051
T7C0.122
T8C0.130
%
G90
G05
M72
T1
X39700Y-39700

X39700Y-40300

X39700Y-40900

X39700Y-41500

X39700Y-42100

X39700Y-42700

X39700Y-43300

X39700Y-43900

X39700Y-44500

X39700Y-45300

X39700Y-45900

X39700Y-46500

X39700Y-47100

X39700Y-47700

X39700Y-48300

X39700Y-48900

X39700Y-49500

X39700Y-50300

X39700Y-50900

X40000Y-39200

X40000Y-40000

X40100Y-51300

X40400Y-38800

X40500Y-41000

X40500Y-42000

X40500Y-43000

X40500Y-44000

X40500Y-51700

X40800Y-38400

X41000Y-40000

X41000Y-44500

X41000Y-45500

X41000Y-46500

X41000Y-47500

X41000Y-48500

X41000Y-50000

X41000Y-52200

X41200Y-38000

X41220Y-42918

X41220Y-43318

X41220Y-43718

X41500Y-50500

X41500Y-52700

X41540Y-47440

X41600Y-37600

X42000Y-37200

X42000Y-40000

X42000Y-52000

X42000Y-53200

X42310Y-47640

X42320Y-42918

X42320Y-43318

X42320Y-43718

X42320Y-44118

X42320Y-44518

X42320Y-44918

X42320Y-45318

X42320Y-45718

X42320Y-46068

X42320Y-46468

X42320Y-46868

X42320Y-47268

X42400Y-36800

X42500Y-53700

X42670Y-43118

X42670Y-43518

X42670Y-43918

X42670Y-44318

X42670Y-44718

X42670Y-45118

X42670Y-45468

X42670Y-45868

X42670Y-46268

X42670Y-46668

X42670Y-47068

X42670Y-47468

X42800Y-36400

X42800Y-47750

X43000Y-40000

X43000Y-52000

X43000Y-53000

X43000Y-54200

X43200Y-36000

X43500Y-48000

X43500Y-49000

X43500Y-54700

X43500Y-47238

X43770Y-43118

X43770Y-43518

X43770Y-43918

X43800Y-35800

X44000Y-40000

X44000Y-42000

X44000Y-43000

X44000Y-52000

X44200Y-54800

X44400Y-35800

X44500Y-48000

X44500Y-49000

X44800Y-54800

X45000Y-35800

X45000Y-40000

X45000Y-42000

X45000Y-43000

X45000Y-52000

X45250Y-45000

X45250Y-46000

X45250Y-47000

X45250Y-48000

X45400Y-54800

X45600Y-35800

X45650Y-48950

X45650Y-49750

X45750Y-42750

X45750Y-44250

X45950Y-47550

X45950Y-47900

X46000Y-40000

X46000Y-41000

X46000Y-52000

X46000Y-54800

X46200Y-35800

X46200Y-44200

X46200Y-44900

X46250Y-45900

X46250Y-46800

X46500Y-44350

X46500Y-44900

X46500Y-48550

X46500Y-48900

X46600Y-54800

X46750Y-42750

X46800Y-35800

X46800Y-46050

X46800Y-46750

X46850Y-45050

X47000Y-40000

X47000Y-41000

X47100Y-46400

X47200Y-54800

X47300Y-50800

X47300Y-51800

X47300Y-52200

X47350Y-47550

X47400Y-35800

X47400Y-46050

X47400Y-46750

X47450Y-48300

X47550Y-48600

X47700Y-53300

X47750Y-42750

X47800Y-54800

X47900Y-47650

X47900Y-48150

X47950Y-45900

X47950Y-46800

X48000Y-35800

X48000Y-40000

X48000Y-41000

X48100Y-45550

X48400Y-54800

X48600Y-35800

X48750Y-42750

X48750Y-44500

X48750Y-45500

X48750Y-46500

X49000Y-49000

X49200Y-35800

X49250Y-51500

X49750Y-42750

X49750Y-44500

X49750Y-45500

X49750Y-46500

X49750Y-52000

X49800Y-35800

X50000Y-40000

X50000Y-49000

X50000Y-51000

X50100Y-44450

X50100Y-44850

X50100Y-45200

X50100Y-45600

X50100Y-45950

X50100Y-46350

X50200Y-54800

X50350Y-43750

X50350Y-44100

X50400Y-35800

X50700Y-54800

X50750Y-49150

X50750Y-49550

X50750Y-49950

X50750Y-50350

X51000Y-35800

X51000Y-40000

X51000Y-41000

X51000Y-42000

X51000Y-51000

X51000Y-52000

X51150Y-47600

X51150Y-48000

X51300Y-54800

X51450Y-47800

X51600Y-35800

X51650Y-43750

X51750Y-47600

X51750Y-48000

X51750Y-48750

X51900Y-54800

X52000Y-40000

X52000Y-41000

X52000Y-42000

X52000Y-45000

X52200Y-35800

X52200Y-46000

X52200Y-46350

X52500Y-54800

X52550Y-44100

X52550Y-46850

X52800Y-35800

X53000Y-40000

X53000Y-41000

X53000Y-43000

X53000Y-45000

X53000Y-47000

X53000Y-48000

X53000Y-49000

X53000Y-50000

X53000Y-51000

X53000Y-52000

X53000Y-53000

X53000Y-54000

X53100Y-54800

X53400Y-35800

X53700Y-54800

X54000Y-35800

X54000Y-40000

X54000Y-42000

X54000Y-43000

X54000Y-44000

X54000Y-48000

X54000Y-49000

X54000Y-50000

X54000Y-51000

X54000Y-52000

X54300Y-54800

X54600Y-35800

X54720Y-46868

X54720Y-47268

X54900Y-54800

X55000Y-36000

X55000Y-40000

X55000Y-42000

X55000Y-48000

X55000Y-49000

X55000Y-50000

X55000Y-51000

X55000Y-52000

X55300Y-54400

X55400Y-36400

X55570Y-42918

X55570Y-43318

X55570Y-43718

X55570Y-44118

X55570Y-44518

X55570Y-44918

X55570Y-45268

X55570Y-45668

X55570Y-46068

X55570Y-46468

X55570Y-46868

X55570Y-47268

X55800Y-36800

X55800Y-53900

X56000Y-40000

X56000Y-50000

X56000Y-51000

X56000Y-52000

X56000Y-53000

X56200Y-37200

X56270Y-42718

X56270Y-43118

X56270Y-43518

X56270Y-43918

X56270Y-44318

X56270Y-44718

X56270Y-45068

X56270Y-45468

X56270Y-46668

X56270Y-47068

X56270Y-47468

X56300Y-53400

X56600Y-37600

X56800Y-52900

X57000Y-38000

X57000Y-40000

X57000Y-48000

X57000Y-49000

X57000Y-50000

X57000Y-51000

X57000Y-52000

X57120Y-42718

X57120Y-43118

X57120Y-43518

X57120Y-43918

X57120Y-44318

X57120Y-44718

X57120Y-45868

X57120Y-46268

X57120Y-46668

X57120Y-47068

X57120Y-47468

X57300Y-52400

X57400Y-38400

X57800Y-38800

X57800Y-51900

X58000Y-40000

X58000Y-41000

X58000Y-42000

X58000Y-43000

X58000Y-44000

X58000Y-45000

X58000Y-46000

X58000Y-47000

X58000Y-48000

X58000Y-49000

X58000Y-50000

X58000Y-51000

X58200Y-39200

X58300Y-51400

X58600Y-39600

X58700Y-40200

X58700Y-40800

X58700Y-41400

X58700Y-42000

X58700Y-42600

X58700Y-43200

X58700Y-43800

X58700Y-44400

X58700Y-45000

X58700Y-45600

X58700Y-46200

X58700Y-46800

X58700Y-47400

X58700Y-48000

X58700Y-48600

X58700Y-49200

X58700Y-49800

X58700Y-50400

X58700Y-50900

T2
X42504Y-41693

X42504Y-41693

X42504Y-48858

X42504Y-48858

X55921Y-41496

X55921Y-41496

X55921Y-48661

X55921Y-48661

T3
X50216Y-52900

X50216Y-54200

X51200Y-52900

X51200Y-54200

X52184Y-52900

X52184Y-54200

T4
X42650Y-50400

X42650Y-51400

T5
X40033Y-44902

X40033Y-49902

T6
X42504Y-42303

X42504Y-42303

X42504Y-48248

X42504Y-48248

X55921Y-42106

X55921Y-42106

X55921Y-48051

X55921Y-48051

T7
X44094Y-37008

X44094Y-53543

X54331Y-37008

X54331Y-53543

T8
X49213Y-40650

X49213Y-49902

T0
M30
