G04 (created by PCBNEW (2013-09-06 BZR 4312)-stable) date P 15 sept  2013 15:04:35 EEST*
%MOIN*%
G04 Gerber Fmt 3.4, Leading zero omitted, Abs format*
%FSLAX34Y34*%
G01*
G70*
G90*
G04 APERTURE LIST*
%ADD10C,0.000787*%
%ADD11C,0.006000*%
%ADD12C,0.001000*%
%ADD13C,0.005000*%
%ADD14C,0.005906*%
%ADD15C,0.000100*%
%ADD16C,0.010000*%
G04 APERTURE END LIST*
G54D10*
G54D11*
X43271Y-49542D02*
X43728Y-49542D01*
X43271Y-52242D02*
X43728Y-52242D01*
X43500Y-52471D02*
X43500Y-52014D01*
X39821Y-44342D02*
X40278Y-44342D01*
X39821Y-50592D02*
X40278Y-50592D01*
X40050Y-50821D02*
X40050Y-50364D01*
G54D12*
X49213Y-56692D02*
G75*
G03X49213Y-56692I0J0D01*
G74*
G01*
X49211Y-56692D02*
X49213Y-56692D01*
X49212Y-56691D02*
X49212Y-56693D01*
X43307Y-55118D02*
X39370Y-51181D01*
X55118Y-55118D02*
X43307Y-55118D01*
G54D13*
X51597Y-36528D02*
X51621Y-36552D01*
X51692Y-36576D01*
X51740Y-36576D01*
X51811Y-36552D01*
X51859Y-36504D01*
X51883Y-36457D01*
X51907Y-36361D01*
X51907Y-36290D01*
X51883Y-36195D01*
X51859Y-36147D01*
X51811Y-36100D01*
X51740Y-36076D01*
X51692Y-36076D01*
X51621Y-36100D01*
X51597Y-36123D01*
X51097Y-36528D02*
X51121Y-36552D01*
X51192Y-36576D01*
X51240Y-36576D01*
X51311Y-36552D01*
X51359Y-36504D01*
X51383Y-36457D01*
X51407Y-36361D01*
X51407Y-36290D01*
X51383Y-36195D01*
X51359Y-36147D01*
X51311Y-36100D01*
X51240Y-36076D01*
X51192Y-36076D01*
X51121Y-36100D01*
X51097Y-36123D01*
X50335Y-36314D02*
X50264Y-36338D01*
X50240Y-36361D01*
X50216Y-36409D01*
X50216Y-36480D01*
X50240Y-36528D01*
X50264Y-36552D01*
X50311Y-36576D01*
X50502Y-36576D01*
X50502Y-36076D01*
X50335Y-36076D01*
X50288Y-36100D01*
X50264Y-36123D01*
X50240Y-36171D01*
X50240Y-36219D01*
X50264Y-36266D01*
X50288Y-36290D01*
X50335Y-36314D01*
X50502Y-36314D01*
X49907Y-36338D02*
X49907Y-36576D01*
X50073Y-36076D02*
X49907Y-36338D01*
X49740Y-36076D01*
X49573Y-36385D02*
X49192Y-36385D01*
X48978Y-36552D02*
X48907Y-36576D01*
X48788Y-36576D01*
X48740Y-36552D01*
X48716Y-36528D01*
X48692Y-36480D01*
X48692Y-36433D01*
X48716Y-36385D01*
X48740Y-36361D01*
X48788Y-36338D01*
X48883Y-36314D01*
X48930Y-36290D01*
X48954Y-36266D01*
X48978Y-36219D01*
X48978Y-36171D01*
X48954Y-36123D01*
X48930Y-36100D01*
X48883Y-36076D01*
X48764Y-36076D01*
X48692Y-36100D01*
X48502Y-36433D02*
X48264Y-36433D01*
X48550Y-36576D02*
X48383Y-36076D01*
X48216Y-36576D01*
X47716Y-36076D02*
X47407Y-36076D01*
X47573Y-36266D01*
X47502Y-36266D01*
X47454Y-36290D01*
X47430Y-36314D01*
X47407Y-36361D01*
X47407Y-36480D01*
X47430Y-36528D01*
X47454Y-36552D01*
X47502Y-36576D01*
X47645Y-36576D01*
X47692Y-36552D01*
X47716Y-36528D01*
X47192Y-36528D02*
X47169Y-36552D01*
X47192Y-36576D01*
X47216Y-36552D01*
X47192Y-36528D01*
X47192Y-36576D01*
X46859Y-36076D02*
X46811Y-36076D01*
X46764Y-36100D01*
X46740Y-36123D01*
X46716Y-36171D01*
X46692Y-36266D01*
X46692Y-36385D01*
X46716Y-36480D01*
X46740Y-36528D01*
X46764Y-36552D01*
X46811Y-36576D01*
X46859Y-36576D01*
X46907Y-36552D01*
X46930Y-36528D01*
X46954Y-36480D01*
X46978Y-36385D01*
X46978Y-36266D01*
X46954Y-36171D01*
X46930Y-36123D01*
X46907Y-36100D01*
X46859Y-36076D01*
G54D12*
X59055Y-51181D02*
X55118Y-55118D01*
X59055Y-39370D02*
X59055Y-51181D01*
X55118Y-35433D02*
X59055Y-39370D01*
X43307Y-35433D02*
X55118Y-35433D01*
X39370Y-39370D02*
X43307Y-35433D01*
X39370Y-51181D02*
X39370Y-39370D01*
G54D14*
X41535Y-48818D02*
X41732Y-48818D01*
X41535Y-48818D02*
X41141Y-48818D01*
X41141Y-48818D02*
X41141Y-41732D01*
X41141Y-41732D02*
X41732Y-41732D01*
X43307Y-48818D02*
X43897Y-48818D01*
X43897Y-48818D02*
X43897Y-41732D01*
X43897Y-41732D02*
X43307Y-41732D01*
X56889Y-41535D02*
X56692Y-41535D01*
X56889Y-41535D02*
X57283Y-41535D01*
X57283Y-41535D02*
X57283Y-48622D01*
X57283Y-48622D02*
X56692Y-48622D01*
X55118Y-41535D02*
X54527Y-41535D01*
X54527Y-41535D02*
X54527Y-48622D01*
X54527Y-48622D02*
X55118Y-48622D01*
X59566Y-52637D02*
X59566Y-37913D01*
X59566Y-37913D02*
X38858Y-37913D01*
X38858Y-37913D02*
X38858Y-52637D01*
X38858Y-52637D02*
X59566Y-52637D01*
G54D15*
G36*
X46813Y-43787D02*
X46854Y-43765D01*
X46947Y-43707D01*
X47078Y-43621D01*
X47233Y-43517D01*
X47389Y-43412D01*
X47518Y-43326D01*
X47607Y-43268D01*
X47645Y-43247D01*
X47665Y-43254D01*
X47739Y-43290D01*
X47847Y-43346D01*
X47909Y-43379D01*
X48008Y-43421D01*
X48057Y-43430D01*
X48065Y-43416D01*
X48101Y-43341D01*
X48158Y-43212D01*
X48232Y-43041D01*
X48317Y-42841D01*
X48408Y-42626D01*
X48500Y-42406D01*
X48587Y-42196D01*
X48664Y-42008D01*
X48726Y-41855D01*
X48766Y-41748D01*
X48781Y-41702D01*
X48777Y-41693D01*
X48727Y-41645D01*
X48641Y-41580D01*
X48455Y-41429D01*
X48271Y-41199D01*
X48159Y-40938D01*
X48122Y-40649D01*
X48154Y-40380D01*
X48259Y-40121D01*
X48439Y-39889D01*
X48657Y-39716D01*
X48913Y-39607D01*
X49199Y-39572D01*
X49475Y-39603D01*
X49739Y-39707D01*
X49971Y-39884D01*
X50068Y-39997D01*
X50204Y-40232D01*
X50281Y-40485D01*
X50289Y-40549D01*
X50278Y-40825D01*
X50196Y-41090D01*
X50050Y-41328D01*
X49847Y-41522D01*
X49822Y-41540D01*
X49728Y-41610D01*
X49665Y-41658D01*
X49616Y-41699D01*
X49968Y-42546D01*
X50024Y-42681D01*
X50120Y-42913D01*
X50206Y-43112D01*
X50273Y-43271D01*
X50320Y-43377D01*
X50341Y-43420D01*
X50343Y-43422D01*
X50374Y-43428D01*
X50439Y-43404D01*
X50557Y-43347D01*
X50635Y-43307D01*
X50725Y-43263D01*
X50766Y-43247D01*
X50800Y-43266D01*
X50887Y-43322D01*
X51013Y-43406D01*
X51164Y-43509D01*
X51308Y-43607D01*
X51441Y-43695D01*
X51538Y-43757D01*
X51585Y-43782D01*
X51592Y-43782D01*
X51634Y-43759D01*
X51710Y-43695D01*
X51826Y-43586D01*
X51989Y-43425D01*
X52014Y-43400D01*
X52148Y-43263D01*
X52257Y-43149D01*
X52330Y-43067D01*
X52357Y-43030D01*
X52357Y-43030D01*
X52333Y-42984D01*
X52272Y-42888D01*
X52184Y-42753D01*
X52076Y-42596D01*
X51796Y-42188D01*
X51950Y-41803D01*
X51997Y-41685D01*
X52057Y-41542D01*
X52102Y-41440D01*
X52125Y-41396D01*
X52167Y-41381D01*
X52272Y-41356D01*
X52425Y-41324D01*
X52607Y-41290D01*
X52780Y-41258D01*
X52937Y-41229D01*
X53050Y-41206D01*
X53101Y-41196D01*
X53113Y-41189D01*
X53124Y-41164D01*
X53130Y-41111D01*
X53134Y-41016D01*
X53136Y-40866D01*
X53136Y-40649D01*
X53136Y-40625D01*
X53134Y-40418D01*
X53131Y-40253D01*
X53125Y-40144D01*
X53118Y-40102D01*
X53117Y-40101D01*
X53068Y-40089D01*
X52958Y-40066D01*
X52801Y-40035D01*
X52614Y-40000D01*
X52603Y-39997D01*
X52416Y-39962D01*
X52260Y-39929D01*
X52151Y-39904D01*
X52105Y-39890D01*
X52095Y-39876D01*
X52058Y-39804D01*
X52004Y-39688D01*
X51942Y-39547D01*
X51882Y-39401D01*
X51829Y-39270D01*
X51794Y-39171D01*
X51783Y-39127D01*
X51784Y-39126D01*
X51812Y-39081D01*
X51876Y-38985D01*
X51966Y-38851D01*
X52075Y-38692D01*
X52083Y-38680D01*
X52190Y-38523D01*
X52277Y-38390D01*
X52335Y-38295D01*
X52357Y-38252D01*
X52356Y-38249D01*
X52321Y-38202D01*
X52240Y-38113D01*
X52126Y-37993D01*
X51988Y-37854D01*
X51944Y-37811D01*
X51791Y-37662D01*
X51685Y-37564D01*
X51619Y-37512D01*
X51587Y-37500D01*
X51586Y-37501D01*
X51538Y-37530D01*
X51439Y-37594D01*
X51304Y-37686D01*
X51144Y-37794D01*
X51133Y-37802D01*
X50976Y-37909D01*
X50845Y-37997D01*
X50752Y-38059D01*
X50711Y-38084D01*
X50704Y-38084D01*
X50640Y-38065D01*
X50528Y-38026D01*
X50390Y-37972D01*
X50245Y-37914D01*
X50113Y-37858D01*
X50013Y-37813D01*
X49966Y-37786D01*
X49965Y-37784D01*
X49948Y-37728D01*
X49921Y-37610D01*
X49888Y-37448D01*
X49851Y-37255D01*
X49845Y-37224D01*
X49810Y-37036D01*
X49780Y-36882D01*
X49758Y-36774D01*
X49747Y-36730D01*
X49721Y-36724D01*
X49628Y-36717D01*
X49488Y-36714D01*
X49319Y-36712D01*
X49140Y-36713D01*
X48966Y-36717D01*
X48817Y-36722D01*
X48711Y-36729D01*
X48667Y-36738D01*
X48665Y-36741D01*
X48649Y-36799D01*
X48623Y-36917D01*
X48590Y-37080D01*
X48553Y-37273D01*
X48546Y-37307D01*
X48511Y-37494D01*
X48480Y-37648D01*
X48457Y-37753D01*
X48445Y-37795D01*
X48428Y-37804D01*
X48351Y-37837D01*
X48226Y-37889D01*
X48070Y-37952D01*
X47709Y-38098D01*
X47268Y-37795D01*
X47227Y-37768D01*
X47068Y-37660D01*
X46938Y-37573D01*
X46847Y-37514D01*
X46809Y-37493D01*
X46806Y-37494D01*
X46762Y-37533D01*
X46675Y-37615D01*
X46555Y-37731D01*
X46416Y-37870D01*
X46313Y-37973D01*
X46191Y-38097D01*
X46114Y-38180D01*
X46072Y-38234D01*
X46057Y-38266D01*
X46061Y-38288D01*
X46089Y-38333D01*
X46154Y-38430D01*
X46245Y-38564D01*
X46353Y-38720D01*
X46441Y-38851D01*
X46537Y-38999D01*
X46600Y-39105D01*
X46621Y-39157D01*
X46616Y-39178D01*
X46585Y-39265D01*
X46532Y-39396D01*
X46466Y-39551D01*
X46312Y-39901D01*
X46083Y-39945D01*
X45944Y-39972D01*
X45750Y-40009D01*
X45564Y-40045D01*
X45273Y-40101D01*
X45263Y-41169D01*
X45308Y-41188D01*
X45351Y-41200D01*
X45459Y-41224D01*
X45612Y-41254D01*
X45793Y-41289D01*
X45948Y-41317D01*
X46103Y-41347D01*
X46215Y-41368D01*
X46264Y-41379D01*
X46277Y-41396D01*
X46316Y-41471D01*
X46371Y-41591D01*
X46433Y-41735D01*
X46495Y-41884D01*
X46550Y-42022D01*
X46588Y-42127D01*
X46603Y-42181D01*
X46581Y-42222D01*
X46523Y-42314D01*
X46437Y-42444D01*
X46331Y-42599D01*
X46225Y-42753D01*
X46136Y-42885D01*
X46074Y-42980D01*
X46048Y-43024D01*
X46061Y-43053D01*
X46123Y-43128D01*
X46239Y-43249D01*
X46413Y-43421D01*
X46441Y-43448D01*
X46579Y-43581D01*
X46696Y-43688D01*
X46777Y-43761D01*
X46813Y-43787D01*
X46813Y-43787D01*
G37*
G54D16*
X43150Y-49900D02*
X43150Y-51900D01*
X41400Y-49900D02*
X41400Y-51900D01*
X43900Y-51900D02*
X43900Y-49900D01*
X43900Y-51900D02*
X41400Y-51900D01*
X43900Y-49900D02*
X41400Y-49900D01*
G54D13*
X42620Y-49303D02*
X42620Y-49518D01*
X42634Y-49560D01*
X42662Y-49589D01*
X42705Y-49603D01*
X42734Y-49603D01*
X42491Y-49332D02*
X42477Y-49318D01*
X42448Y-49303D01*
X42377Y-49303D01*
X42348Y-49318D01*
X42334Y-49332D01*
X42320Y-49360D01*
X42320Y-49389D01*
X42334Y-49432D01*
X42505Y-49603D01*
X42320Y-49603D01*
X56070Y-49103D02*
X56070Y-49318D01*
X56084Y-49360D01*
X56112Y-49389D01*
X56155Y-49403D01*
X56184Y-49403D01*
X55798Y-49203D02*
X55798Y-49403D01*
X55870Y-49089D02*
X55941Y-49303D01*
X55755Y-49303D01*
X39978Y-47214D02*
X39992Y-47257D01*
X40007Y-47271D01*
X40035Y-47285D01*
X40078Y-47285D01*
X40107Y-47271D01*
X40121Y-47257D01*
X40135Y-47228D01*
X40135Y-47114D01*
X39835Y-47114D01*
X39835Y-47214D01*
X39850Y-47242D01*
X39864Y-47257D01*
X39892Y-47271D01*
X39921Y-47271D01*
X39950Y-47257D01*
X39964Y-47242D01*
X39978Y-47214D01*
X39978Y-47114D01*
X39835Y-47371D02*
X39835Y-47542D01*
X40135Y-47457D02*
X39835Y-47457D01*
X40135Y-47800D02*
X40135Y-47628D01*
X40135Y-47714D02*
X39835Y-47714D01*
X39878Y-47685D01*
X39907Y-47657D01*
X39921Y-47628D01*
X41078Y-50714D02*
X41092Y-50757D01*
X41107Y-50771D01*
X41135Y-50785D01*
X41178Y-50785D01*
X41207Y-50771D01*
X41221Y-50757D01*
X41235Y-50728D01*
X41235Y-50614D01*
X40935Y-50614D01*
X40935Y-50714D01*
X40950Y-50742D01*
X40964Y-50757D01*
X40992Y-50771D01*
X41021Y-50771D01*
X41050Y-50757D01*
X41064Y-50742D01*
X41078Y-50714D01*
X41078Y-50614D01*
X40935Y-50871D02*
X40935Y-51042D01*
X41235Y-50957D02*
X40935Y-50957D01*
X40964Y-51128D02*
X40950Y-51142D01*
X40935Y-51171D01*
X40935Y-51242D01*
X40950Y-51271D01*
X40964Y-51285D01*
X40992Y-51300D01*
X41021Y-51300D01*
X41064Y-51285D01*
X41235Y-51114D01*
X41235Y-51300D01*
M02*
