G04 (created by PCBNEW (2013-09-06 BZR 4312)-stable) date P 15 sept  2013 15:04:35 EEST*
%MOIN*%
G04 Gerber Fmt 3.4, Leading zero omitted, Abs format*
%FSLAX34Y34*%
G01*
G70*
G90*
G04 APERTURE LIST*
%ADD10C,0.000787*%
%ADD11C,0.001000*%
%ADD12C,0.066929*%
%ADD13R,0.149606X0.066929*%
%ADD14R,0.097638X0.031496*%
%ADD15C,0.145669*%
%ADD16C,0.074803*%
%ADD17O,0.134448X0.075048*%
%ADD18C,0.062992*%
%ADD19C,0.212598*%
G04 APERTURE END LIST*
G54D10*
G54D11*
X49213Y-56692D02*
G75*
G03X49213Y-56692I0J0D01*
G74*
G01*
X49211Y-56692D02*
X49213Y-56692D01*
X49212Y-56691D02*
X49212Y-56693D01*
X43307Y-55118D02*
X39370Y-51181D01*
X55118Y-55118D02*
X43307Y-55118D01*
X59055Y-51181D02*
X55118Y-55118D01*
X59055Y-39370D02*
X59055Y-51181D01*
X55118Y-35433D02*
X59055Y-39370D01*
X43307Y-35433D02*
X55118Y-35433D01*
X39370Y-39370D02*
X43307Y-35433D01*
X39370Y-51181D02*
X39370Y-39370D01*
G54D12*
X42503Y-42303D03*
X42503Y-48248D03*
G54D13*
X42503Y-41692D03*
X42503Y-48858D03*
G54D14*
X41732Y-47637D03*
X41732Y-47244D03*
X41732Y-46850D03*
X41732Y-46456D03*
X41732Y-46062D03*
X41732Y-45669D03*
X41732Y-45275D03*
X41732Y-44881D03*
X41732Y-44488D03*
X41732Y-44094D03*
X41732Y-43700D03*
X41732Y-43307D03*
X41732Y-42913D03*
X43275Y-43110D03*
X43275Y-43503D03*
X43275Y-43897D03*
X43275Y-44291D03*
X43275Y-44685D03*
X43275Y-45078D03*
X43275Y-45472D03*
X43275Y-45866D03*
X43275Y-46259D03*
X43275Y-46653D03*
X43275Y-47047D03*
X43275Y-47440D03*
G54D12*
X42503Y-48248D03*
X42503Y-42303D03*
G54D13*
X42503Y-48858D03*
X42503Y-41692D03*
G54D12*
X55921Y-48051D03*
X55921Y-42106D03*
G54D13*
X55921Y-48661D03*
X55921Y-41496D03*
G54D14*
X56692Y-42716D03*
X56692Y-43110D03*
X56692Y-43503D03*
X56692Y-43897D03*
X56692Y-44291D03*
X56692Y-44685D03*
X56692Y-45078D03*
X56692Y-45472D03*
X56692Y-45866D03*
X56692Y-46259D03*
X56692Y-46653D03*
X56692Y-47047D03*
X56692Y-47440D03*
X55149Y-47244D03*
X55149Y-46850D03*
X55149Y-46456D03*
X55149Y-46062D03*
X55149Y-45669D03*
X55149Y-45275D03*
X55149Y-44881D03*
X55149Y-44488D03*
X55149Y-44094D03*
X55149Y-43700D03*
X55149Y-43307D03*
X55149Y-42913D03*
G54D12*
X55921Y-42106D03*
X55921Y-48051D03*
G54D13*
X55921Y-41496D03*
X55921Y-48661D03*
G54D15*
X49212Y-40649D03*
X49212Y-49901D03*
G54D16*
X40033Y-49901D03*
X40033Y-44901D03*
G54D17*
X42650Y-51400D03*
X42650Y-50400D03*
G54D18*
X51200Y-52900D03*
X51200Y-54199D03*
X52184Y-52900D03*
X52184Y-54199D03*
X50215Y-52900D03*
X50215Y-54199D03*
G54D19*
X44094Y-37007D03*
X54330Y-37007D03*
X54330Y-53543D03*
X44094Y-53543D03*
M02*
