G04 (created by PCBNEW (2013-09-06 BZR 4312)-stable) date P 15 sept  2013 15:04:35 EEST*
%MOIN*%
G04 Gerber Fmt 3.4, Leading zero omitted, Abs format*
%FSLAX34Y34*%
G01*
G70*
G90*
G04 APERTURE LIST*
%ADD10C,0.000787*%
%ADD11C,0.001000*%
%ADD12R,0.081890X0.015748*%
%ADD13R,0.133858X0.051181*%
%ADD14R,0.009055X0.031496*%
%ADD15R,0.031496X0.009843*%
%ADD16R,0.084646X0.066929*%
%ADD17R,0.035000X0.055000*%
%ADD18R,0.015700X0.023600*%
%ADD19R,0.133858X0.038583*%
%ADD20C,0.059055*%
%ADD21R,0.023600X0.015700*%
%ADD22R,0.025000X0.045000*%
%ADD23R,0.009843X0.031496*%
%ADD24R,0.026575X0.009843*%
%ADD25R,0.094488X0.104331*%
%ADD26O,0.118700X0.059300*%
%ADD27R,0.055000X0.035000*%
%ADD28R,0.031400X0.031400*%
%ADD29R,0.074700X0.074700*%
%ADD30R,0.074800X0.074700*%
%ADD31R,0.070700X0.074700*%
%ADD32R,0.082500X0.062900*%
%ADD33R,0.015700X0.053000*%
%ADD34R,0.020000X0.030000*%
%ADD35C,0.047244*%
%ADD36C,0.196850*%
%ADD37C,0.020000*%
%ADD38C,0.016000*%
%ADD39C,0.032000*%
%ADD40C,0.010000*%
%ADD41C,0.008000*%
%ADD42C,0.006000*%
%ADD43C,0.012000*%
%ADD44C,0.005000*%
%ADD45C,0.009000*%
G04 APERTURE END LIST*
G54D10*
G54D11*
X49213Y-56692D02*
G75*
G03X49213Y-56692I0J0D01*
G74*
G01*
X49211Y-56692D02*
X49213Y-56692D01*
X49212Y-56691D02*
X49212Y-56693D01*
X43307Y-55118D02*
X39370Y-51181D01*
X55118Y-55118D02*
X43307Y-55118D01*
X59055Y-51181D02*
X55118Y-55118D01*
X59055Y-39370D02*
X59055Y-51181D01*
X55118Y-35433D02*
X59055Y-39370D01*
X43307Y-35433D02*
X55118Y-35433D01*
X39370Y-39370D02*
X43307Y-35433D01*
X39370Y-51181D02*
X39370Y-39370D01*
G54D12*
X41732Y-42913D03*
X41732Y-43307D03*
X41732Y-43700D03*
X41732Y-44094D03*
X41732Y-44488D03*
X41732Y-44881D03*
X41732Y-45275D03*
X41732Y-45669D03*
X41732Y-46062D03*
X41732Y-46456D03*
X41732Y-46850D03*
X41732Y-47244D03*
X41732Y-47637D03*
X43275Y-47440D03*
X43275Y-47047D03*
X43275Y-46653D03*
X43275Y-46259D03*
X43275Y-45866D03*
X43275Y-45472D03*
X43275Y-45078D03*
X43275Y-44685D03*
X43275Y-44291D03*
X43275Y-43897D03*
X43275Y-43503D03*
X43275Y-43110D03*
G54D13*
X42503Y-41692D03*
X42503Y-48858D03*
X42503Y-48858D03*
X42503Y-41692D03*
G54D12*
X56692Y-47440D03*
X56692Y-47047D03*
X56692Y-46653D03*
X56692Y-46259D03*
X56692Y-45866D03*
X56692Y-45472D03*
X56692Y-45078D03*
X56692Y-44685D03*
X56692Y-44291D03*
X56692Y-43897D03*
X56692Y-43503D03*
X56692Y-43110D03*
X56692Y-42716D03*
X55149Y-42913D03*
X55149Y-43307D03*
X55149Y-43700D03*
X55149Y-44094D03*
X55149Y-44488D03*
X55149Y-44881D03*
X55149Y-45275D03*
X55149Y-45669D03*
X55149Y-46062D03*
X55149Y-46456D03*
X55149Y-46850D03*
X55149Y-47244D03*
G54D13*
X55921Y-48661D03*
X55921Y-41496D03*
X55921Y-41496D03*
X55921Y-48661D03*
G54D14*
X51056Y-48380D03*
X51253Y-48380D03*
X51450Y-48380D03*
X51646Y-48380D03*
X51843Y-48380D03*
X51843Y-47219D03*
X51646Y-47219D03*
X51450Y-47219D03*
X51253Y-47219D03*
X51056Y-47219D03*
G54D15*
X50898Y-48036D03*
X50898Y-47878D03*
X50898Y-47721D03*
X50898Y-47563D03*
X52001Y-48036D03*
X52001Y-47878D03*
X52001Y-47721D03*
X52001Y-47563D03*
G54D16*
X51450Y-47800D03*
G54D17*
X51775Y-50150D03*
X51025Y-50150D03*
X51775Y-49350D03*
X51025Y-49350D03*
G54D18*
X52023Y-46850D03*
X52377Y-46850D03*
X51673Y-46000D03*
X52027Y-46000D03*
G54D17*
X51125Y-46150D03*
X50375Y-46150D03*
X51125Y-45400D03*
X50375Y-45400D03*
X51125Y-44650D03*
X50375Y-44650D03*
G54D19*
X49800Y-48266D03*
X49800Y-47333D03*
G54D18*
X51273Y-46700D03*
X51627Y-46700D03*
X51673Y-46350D03*
X52027Y-46350D03*
X52777Y-48400D03*
X52423Y-48400D03*
G54D20*
X40033Y-49901D03*
X40033Y-44901D03*
G54D18*
X47377Y-45050D03*
X47023Y-45050D03*
X47773Y-45300D03*
X48127Y-45300D03*
X46477Y-47550D03*
X46123Y-47550D03*
X46477Y-47900D03*
X46123Y-47900D03*
X47523Y-47900D03*
X47877Y-47900D03*
X47377Y-44650D03*
X47023Y-44650D03*
X46077Y-47150D03*
X45723Y-47150D03*
G54D21*
X47200Y-47923D03*
X47200Y-48277D03*
X46800Y-47923D03*
X46800Y-48277D03*
G54D22*
X46700Y-48750D03*
X47300Y-48750D03*
G54D23*
X47493Y-45622D03*
X47296Y-45622D03*
X47100Y-45622D03*
X46903Y-45622D03*
X46706Y-45622D03*
X46706Y-47177D03*
X46903Y-47177D03*
X47100Y-47177D03*
X47296Y-47177D03*
X47493Y-47177D03*
G54D24*
X47700Y-45927D03*
X47700Y-46228D03*
X47700Y-46571D03*
X47700Y-46872D03*
X46499Y-45927D03*
X46499Y-46228D03*
X46499Y-46571D03*
X46499Y-46872D03*
G54D25*
X47100Y-46400D03*
G54D26*
X42650Y-51400D03*
X42650Y-50400D03*
G54D17*
X46825Y-52000D03*
X47575Y-52000D03*
G54D27*
X46100Y-50525D03*
X46100Y-51275D03*
G54D28*
X49255Y-54750D03*
X49845Y-54750D03*
G54D21*
X48650Y-51823D03*
X48650Y-52177D03*
X48150Y-52177D03*
X48150Y-51823D03*
G54D29*
X46728Y-53930D03*
G54D30*
X47672Y-53930D03*
G54D31*
X48696Y-53930D03*
G54D32*
X45980Y-52926D03*
G54D33*
X46689Y-52876D03*
X46945Y-52876D03*
X47200Y-52876D03*
X47455Y-52876D03*
X47711Y-52876D03*
G54D32*
X48420Y-52926D03*
G54D31*
X45704Y-53930D03*
G54D34*
X47575Y-50350D03*
X46825Y-50350D03*
X47575Y-51350D03*
X47200Y-50350D03*
X46825Y-51350D03*
G54D35*
X51200Y-52900D03*
X51200Y-54199D03*
X52184Y-52900D03*
X52184Y-54199D03*
X50215Y-52900D03*
X50215Y-54199D03*
G54D36*
X44094Y-37007D03*
X54330Y-37007D03*
X54330Y-53543D03*
X44094Y-53543D03*
G54D37*
X41220Y-43718D03*
X41220Y-43318D03*
X41220Y-42918D03*
X43500Y-47238D03*
X57120Y-43518D03*
X57120Y-43118D03*
X57120Y-42718D03*
X54720Y-47268D03*
X54720Y-46868D03*
X56270Y-43518D03*
X56270Y-43118D03*
X56270Y-42718D03*
X55570Y-47268D03*
X55570Y-46868D03*
X42670Y-47468D03*
X42670Y-47068D03*
X42320Y-43718D03*
X42320Y-43318D03*
X42320Y-42918D03*
X45650Y-49750D03*
X45650Y-48950D03*
X42670Y-44318D03*
X42670Y-44718D03*
X42670Y-45118D03*
X42670Y-45468D03*
X42670Y-45868D03*
X42670Y-46268D03*
X42670Y-46668D03*
X55570Y-46468D03*
X55570Y-42918D03*
X47300Y-50800D03*
X40500Y-41000D03*
X40500Y-42000D03*
X40500Y-43000D03*
X40500Y-44000D03*
X41000Y-44500D03*
X41000Y-45500D03*
X41000Y-46500D03*
X41500Y-50500D03*
X41000Y-50000D03*
X41000Y-48500D03*
X41000Y-47500D03*
X43500Y-49000D03*
X44500Y-49000D03*
X42800Y-47750D03*
X45750Y-44250D03*
X45250Y-45000D03*
X45250Y-46000D03*
X45250Y-47000D03*
X45250Y-48000D03*
X44500Y-48000D03*
X43500Y-48000D03*
X41540Y-47440D03*
X42310Y-47640D03*
X49750Y-42750D03*
X48750Y-42750D03*
X47750Y-42750D03*
X46750Y-42750D03*
X45750Y-42750D03*
X48750Y-46500D03*
X49750Y-46500D03*
X49750Y-45500D03*
X48750Y-45500D03*
X48750Y-44500D03*
X49750Y-44500D03*
X49250Y-51500D03*
X49750Y-52000D03*
X43000Y-53000D03*
X42000Y-52000D03*
X46000Y-52000D03*
X45000Y-52000D03*
X44000Y-52000D03*
X43000Y-52000D03*
X53000Y-41000D03*
X52000Y-41000D03*
X51000Y-41000D03*
X51000Y-42000D03*
X52000Y-42000D03*
X54000Y-44000D03*
X53000Y-43000D03*
X54000Y-43000D03*
X55000Y-42000D03*
X54000Y-42000D03*
X44000Y-43000D03*
X45000Y-43000D03*
X45000Y-42000D03*
X44000Y-42000D03*
X55000Y-48000D03*
X54000Y-48000D03*
X52000Y-45000D03*
X53000Y-45000D03*
X53000Y-47000D03*
X53000Y-48000D03*
X51000Y-52000D03*
X51000Y-51000D03*
X50000Y-51000D03*
X49000Y-49000D03*
X50000Y-49000D03*
X53000Y-54000D03*
X53000Y-53000D03*
X53000Y-51000D03*
X53000Y-52000D03*
X54000Y-52000D03*
X55000Y-52000D03*
X57000Y-51000D03*
X57000Y-50000D03*
X56000Y-51000D03*
X55000Y-51000D03*
X54000Y-51000D03*
X54000Y-50000D03*
X53000Y-50000D03*
X53000Y-49000D03*
X54000Y-49000D03*
X55000Y-49000D03*
X55000Y-50000D03*
X56000Y-50000D03*
X56000Y-53000D03*
X56000Y-52000D03*
X57000Y-52000D03*
X54000Y-40000D03*
X55000Y-40000D03*
X56000Y-40000D03*
X57000Y-40000D03*
X58000Y-40000D03*
X58000Y-51000D03*
X58000Y-50000D03*
X58000Y-49000D03*
X57000Y-49000D03*
X57000Y-48000D03*
X58000Y-48000D03*
X58000Y-47000D03*
X58000Y-46000D03*
X58000Y-45000D03*
X58000Y-44000D03*
X58000Y-43000D03*
X58000Y-42000D03*
X58000Y-41000D03*
X48000Y-41000D03*
X47000Y-41000D03*
X46000Y-41000D03*
X41000Y-40000D03*
X42000Y-40000D03*
X43000Y-40000D03*
X44000Y-40000D03*
X45000Y-40000D03*
X46000Y-40000D03*
X47000Y-40000D03*
X48000Y-40000D03*
X40000Y-40000D03*
X53000Y-40000D03*
X52000Y-40000D03*
X51000Y-40000D03*
X50000Y-40000D03*
X39700Y-39700D03*
X39700Y-40300D03*
X39700Y-40900D03*
X39700Y-41500D03*
X39700Y-42100D03*
X39700Y-42700D03*
X39700Y-43300D03*
X39700Y-43900D03*
X39700Y-44500D03*
X39700Y-45300D03*
X39700Y-45900D03*
X39700Y-46500D03*
X39700Y-47100D03*
X39700Y-47700D03*
X39700Y-48300D03*
X39700Y-48900D03*
X39700Y-49500D03*
X39700Y-50300D03*
X39700Y-50900D03*
X40100Y-51300D03*
X40500Y-51700D03*
X41000Y-52200D03*
X41500Y-52700D03*
X42000Y-53200D03*
X42500Y-53700D03*
X43000Y-54200D03*
X43500Y-54700D03*
X44200Y-54800D03*
X44800Y-54800D03*
X45400Y-54800D03*
X46000Y-54800D03*
X46600Y-54800D03*
X47200Y-54800D03*
X47800Y-54800D03*
X48400Y-54800D03*
X50200Y-54800D03*
X50700Y-54800D03*
X51300Y-54800D03*
X51900Y-54800D03*
X52500Y-54800D03*
X53100Y-54800D03*
X53700Y-54800D03*
X54300Y-54800D03*
X54900Y-54800D03*
X55300Y-54400D03*
X55800Y-53900D03*
X56300Y-53400D03*
X56800Y-52900D03*
X57300Y-52400D03*
X57800Y-51900D03*
X58300Y-51400D03*
X58700Y-50900D03*
X40000Y-39200D03*
X40400Y-38800D03*
X40800Y-38400D03*
X41200Y-38000D03*
X41600Y-37600D03*
X42000Y-37200D03*
X42400Y-36800D03*
X42800Y-36400D03*
X43200Y-36000D03*
X43800Y-35800D03*
X44400Y-35800D03*
X45000Y-35800D03*
X45600Y-35800D03*
X46200Y-35800D03*
X46800Y-35800D03*
X47400Y-35800D03*
X48000Y-35800D03*
X48600Y-35800D03*
X49200Y-35800D03*
X49800Y-35800D03*
X50400Y-35800D03*
X51000Y-35800D03*
X51600Y-35800D03*
X52200Y-35800D03*
X52800Y-35800D03*
X53400Y-35800D03*
X54000Y-35800D03*
X54600Y-35800D03*
X55000Y-36000D03*
X55400Y-36400D03*
X55800Y-36800D03*
X56200Y-37200D03*
X56600Y-37600D03*
X57000Y-38000D03*
X57400Y-38400D03*
X57800Y-38800D03*
X58200Y-39200D03*
X58600Y-39600D03*
X58700Y-40200D03*
X58700Y-40800D03*
X58700Y-41400D03*
X58700Y-42000D03*
X58700Y-42600D03*
X58700Y-43200D03*
X58700Y-43800D03*
X58700Y-44400D03*
X58700Y-45000D03*
X58700Y-45600D03*
X58700Y-46200D03*
X58700Y-46800D03*
X58700Y-47400D03*
X58700Y-48000D03*
X58700Y-48600D03*
X58700Y-49200D03*
X58700Y-49800D03*
X58700Y-50400D03*
X47700Y-53300D03*
X47300Y-52200D03*
X47300Y-51800D03*
X51750Y-48750D03*
X50100Y-44450D03*
X50100Y-44850D03*
X50750Y-49950D03*
X50750Y-50350D03*
X52550Y-46850D03*
X52200Y-46000D03*
X52200Y-46350D03*
X51750Y-48000D03*
X51750Y-47600D03*
X51150Y-48000D03*
X51150Y-47600D03*
X51450Y-47800D03*
X46500Y-48900D03*
X46500Y-48550D03*
X50100Y-45200D03*
X50100Y-45600D03*
X50100Y-45950D03*
X50100Y-46350D03*
X50750Y-49150D03*
X50750Y-49550D03*
X43770Y-43918D03*
X43770Y-43518D03*
X43770Y-43118D03*
X57120Y-44718D03*
X57120Y-44318D03*
X57120Y-43918D03*
X57120Y-47468D03*
X57120Y-47068D03*
X57120Y-46668D03*
X56270Y-47468D03*
X56270Y-47068D03*
X56270Y-46668D03*
X56270Y-44718D03*
X56270Y-44318D03*
X56270Y-43918D03*
X42670Y-43918D03*
X42670Y-43518D03*
X42670Y-43118D03*
X42320Y-47268D03*
X47950Y-45900D03*
X47950Y-46800D03*
X46250Y-46800D03*
X46250Y-45900D03*
X46850Y-45050D03*
X45950Y-47550D03*
X45950Y-47900D03*
X47400Y-46750D03*
X46800Y-46750D03*
X47400Y-46050D03*
X47100Y-46400D03*
X46800Y-46050D03*
X48100Y-45550D03*
X47350Y-47550D03*
X47900Y-48150D03*
X47900Y-47650D03*
X47450Y-48300D03*
X47550Y-48600D03*
X42320Y-46868D03*
X42320Y-46468D03*
X42320Y-46068D03*
X42320Y-45718D03*
X42320Y-45318D03*
X42320Y-44918D03*
X42320Y-44518D03*
X42320Y-44118D03*
X56270Y-45068D03*
X56270Y-45468D03*
X57120Y-45868D03*
X52550Y-44100D03*
X46500Y-44900D03*
X46500Y-44350D03*
X50350Y-44100D03*
X55570Y-45668D03*
X50350Y-43750D03*
X46200Y-44200D03*
X46200Y-44900D03*
X51650Y-43750D03*
X55570Y-46068D03*
X55570Y-44918D03*
X55570Y-43718D03*
X55570Y-44518D03*
X55570Y-43318D03*
X55570Y-45268D03*
X55570Y-44118D03*
X57120Y-46268D03*
G54D38*
X52777Y-48400D02*
X53993Y-48400D01*
X53993Y-48400D02*
X55149Y-47244D01*
G54D39*
X50700Y-43300D02*
X51250Y-43300D01*
X52700Y-45450D02*
X51175Y-45450D01*
X54300Y-47050D02*
X52700Y-45450D01*
X55149Y-47050D02*
X54300Y-47050D01*
X51175Y-45450D02*
X51125Y-45400D01*
X49850Y-42250D02*
X49950Y-42250D01*
X49850Y-42250D02*
X46300Y-42250D01*
X46300Y-42250D02*
X45050Y-41000D01*
X44500Y-41000D02*
X45050Y-41000D01*
X41732Y-42782D02*
X41250Y-42300D01*
X41250Y-42300D02*
X41250Y-41300D01*
X41250Y-41300D02*
X41550Y-41000D01*
X41550Y-41000D02*
X44500Y-41000D01*
X41732Y-42913D02*
X41732Y-42782D01*
X49950Y-42250D02*
X51125Y-43425D01*
X51125Y-43700D02*
X51100Y-43700D01*
X51100Y-43700D02*
X50700Y-43300D01*
X45800Y-43550D02*
X46050Y-43300D01*
X46050Y-43300D02*
X50700Y-43300D01*
X44800Y-46600D02*
X44800Y-44550D01*
X43900Y-47250D02*
X44800Y-46600D01*
X43275Y-47250D02*
X43900Y-47250D01*
X44800Y-44550D02*
X45800Y-43550D01*
X51000Y-43300D02*
X51125Y-43425D01*
X50700Y-43300D02*
X51000Y-43300D01*
X53850Y-40700D02*
X56950Y-40700D01*
X51250Y-43300D02*
X53850Y-40700D01*
X57200Y-40950D02*
X56950Y-40700D01*
X56692Y-43503D02*
X56692Y-42507D01*
X56692Y-42507D02*
X57200Y-42000D01*
X57200Y-42000D02*
X57200Y-40950D01*
X51125Y-43425D02*
X51250Y-43300D01*
X51125Y-43425D02*
X51125Y-43700D01*
X51125Y-43700D02*
X51125Y-43550D01*
X51125Y-44050D02*
X51125Y-43875D01*
X51125Y-43550D02*
X51125Y-43525D01*
X51125Y-44650D02*
X51125Y-44050D01*
X51125Y-44050D02*
X51125Y-43550D01*
X51125Y-46150D02*
X51125Y-45400D01*
X51125Y-45400D02*
X51125Y-44650D01*
X41732Y-42913D02*
X41732Y-43700D01*
G54D38*
X51125Y-44650D02*
X51125Y-45400D01*
X51273Y-46700D02*
X51273Y-46623D01*
X51125Y-46475D02*
X51125Y-46150D01*
X51273Y-46623D02*
X51125Y-46475D01*
G54D40*
X51253Y-47219D02*
X51253Y-46719D01*
X51253Y-46719D02*
X51273Y-46700D01*
G54D38*
X41732Y-43700D02*
X41237Y-43700D01*
X41237Y-43700D02*
X41220Y-43718D01*
X41231Y-43307D02*
X41732Y-43307D01*
X41220Y-43318D02*
X41231Y-43307D01*
X41732Y-42913D02*
X41224Y-42913D01*
X41224Y-42913D02*
X41220Y-42918D01*
X43275Y-47047D02*
X43275Y-47250D01*
X43275Y-47250D02*
X43275Y-47440D01*
G54D40*
X43309Y-47047D02*
X43275Y-47047D01*
X43500Y-47238D02*
X43309Y-47047D01*
G54D38*
X56692Y-43503D02*
X57105Y-43503D01*
X57105Y-43503D02*
X57120Y-43518D01*
X57112Y-43110D02*
X56692Y-43110D01*
X57120Y-43118D02*
X57112Y-43110D01*
X56692Y-42716D02*
X57118Y-42716D01*
X57118Y-42716D02*
X57120Y-42718D01*
X55149Y-47244D02*
X54744Y-47244D01*
X54744Y-47244D02*
X54720Y-47268D01*
X54737Y-46850D02*
X55149Y-46850D01*
X54720Y-46868D02*
X54737Y-46850D01*
X56692Y-43503D02*
X56284Y-43503D01*
X56284Y-43503D02*
X56270Y-43518D01*
X56277Y-43110D02*
X56692Y-43110D01*
X56270Y-43118D02*
X56277Y-43110D01*
X56692Y-42716D02*
X56271Y-42716D01*
X56271Y-42716D02*
X56270Y-42718D01*
X56692Y-43503D02*
X56692Y-43110D01*
X56692Y-43110D02*
X56692Y-42716D01*
X56692Y-42716D02*
X56692Y-43110D01*
X55149Y-47244D02*
X55546Y-47244D01*
X55546Y-47244D02*
X55570Y-47268D01*
X55552Y-46850D02*
X55149Y-46850D01*
X55570Y-46868D02*
X55552Y-46850D01*
X43275Y-47440D02*
X42697Y-47440D01*
X42697Y-47440D02*
X42670Y-47468D01*
X42690Y-47047D02*
X43275Y-47047D01*
X42670Y-47068D02*
X42690Y-47047D01*
X42302Y-43700D02*
X41732Y-43700D01*
X42320Y-43718D02*
X42302Y-43700D01*
X41732Y-43307D02*
X42309Y-43307D01*
X42309Y-43307D02*
X42320Y-43318D01*
X41732Y-42913D02*
X42315Y-42913D01*
X42315Y-42913D02*
X42320Y-42918D01*
X41732Y-43700D02*
X41732Y-43307D01*
X41732Y-43307D02*
X41732Y-42913D01*
X55149Y-46850D02*
X55149Y-47050D01*
X55149Y-47050D02*
X55149Y-47244D01*
G54D39*
X42650Y-51400D02*
X44450Y-51400D01*
X45325Y-50525D02*
X46100Y-50525D01*
X44450Y-51400D02*
X45325Y-50525D01*
X42650Y-51400D02*
X41531Y-51400D01*
X41531Y-51400D02*
X40033Y-49901D01*
X48150Y-50400D02*
X48750Y-51000D01*
X50215Y-52415D02*
X50215Y-52900D01*
X50215Y-51715D02*
X50215Y-52415D01*
X49500Y-51000D02*
X50215Y-51715D01*
X48750Y-51000D02*
X49500Y-51000D01*
G54D38*
X45650Y-48950D02*
X45650Y-47300D01*
X45723Y-47227D02*
X45723Y-47150D01*
X45723Y-47227D02*
X45650Y-47300D01*
X45650Y-49750D02*
X46100Y-50200D01*
X46100Y-50525D02*
X46100Y-50200D01*
G54D39*
X47350Y-49900D02*
X47950Y-49900D01*
X47950Y-49900D02*
X48150Y-50100D01*
X48150Y-50100D02*
X48150Y-50400D01*
X46275Y-50525D02*
X46100Y-50525D01*
X46900Y-49900D02*
X47350Y-49900D01*
X46275Y-50525D02*
X46900Y-49900D01*
X48150Y-50400D02*
X48150Y-50350D01*
G54D38*
X45723Y-47150D02*
X45723Y-44927D01*
X45723Y-44927D02*
X46000Y-44650D01*
X46000Y-44650D02*
X46250Y-44650D01*
X46250Y-44650D02*
X47023Y-44650D01*
G54D39*
X50215Y-54199D02*
X50215Y-52900D01*
G54D38*
X46100Y-50525D02*
X46650Y-50525D01*
X46650Y-50525D02*
X46825Y-50350D01*
G54D39*
X51200Y-54199D02*
X51200Y-52900D01*
X51200Y-52900D02*
X51775Y-52325D01*
X51775Y-52325D02*
X51775Y-50150D01*
G54D38*
X51775Y-49350D02*
X51775Y-49225D01*
X51350Y-48800D02*
X51600Y-49050D01*
X51350Y-48800D02*
X51350Y-48380D01*
X51775Y-49225D02*
X51600Y-49050D01*
G54D40*
X51253Y-48380D02*
X51350Y-48380D01*
X51350Y-48380D02*
X51450Y-48380D01*
G54D39*
X51775Y-49350D02*
X51775Y-50150D01*
G54D38*
X43275Y-44291D02*
X42696Y-44291D01*
X42696Y-44291D02*
X42670Y-44318D01*
X42703Y-44685D02*
X43275Y-44685D01*
X42670Y-44718D02*
X42703Y-44685D01*
X43275Y-45078D02*
X42709Y-45078D01*
X42709Y-45078D02*
X42670Y-45118D01*
X42674Y-45472D02*
X43275Y-45472D01*
X42670Y-45468D02*
X42674Y-45472D01*
X43275Y-45866D02*
X42672Y-45866D01*
X42672Y-45866D02*
X42670Y-45868D01*
X42678Y-46259D02*
X43275Y-46259D01*
X42670Y-46268D02*
X42678Y-46259D01*
X43275Y-46653D02*
X42684Y-46653D01*
X42684Y-46653D02*
X42670Y-46668D01*
X55149Y-46456D02*
X55558Y-46456D01*
X55558Y-46456D02*
X55570Y-46468D01*
X55565Y-42913D02*
X55149Y-42913D01*
X55570Y-42918D02*
X55565Y-42913D01*
X47200Y-50350D02*
X47200Y-50700D01*
X47200Y-50700D02*
X47300Y-50800D01*
G54D40*
X41000Y-47500D02*
X41000Y-46500D01*
X40500Y-42000D02*
X40500Y-41000D01*
X40500Y-44000D02*
X40500Y-43000D01*
X41000Y-45500D02*
X41000Y-44500D01*
X41000Y-50000D02*
X41500Y-50500D01*
X41000Y-47500D02*
X41000Y-48500D01*
X44500Y-49000D02*
X43500Y-49000D01*
X42800Y-47750D02*
X43250Y-47750D01*
X45250Y-44750D02*
X45750Y-44250D01*
X45250Y-45000D02*
X45250Y-44750D01*
X45250Y-47000D02*
X45250Y-46000D01*
X44500Y-48000D02*
X45250Y-48000D01*
X43250Y-47750D02*
X43500Y-48000D01*
G54D38*
X41732Y-47450D02*
X41550Y-47450D01*
X41550Y-47450D02*
X41540Y-47440D01*
X41732Y-47637D02*
X41732Y-47450D01*
X41732Y-47450D02*
X41732Y-47244D01*
X41732Y-47637D02*
X42307Y-47637D01*
X42307Y-47637D02*
X42310Y-47640D01*
G54D40*
X44200Y-54800D02*
X44200Y-53648D01*
X44200Y-53648D02*
X44094Y-53543D01*
X54300Y-54800D02*
X54300Y-53574D01*
X54300Y-53574D02*
X54330Y-53543D01*
X54600Y-35800D02*
X54600Y-36738D01*
X54600Y-36738D02*
X54330Y-37007D01*
X43800Y-35800D02*
X43800Y-36713D01*
X43800Y-36713D02*
X44094Y-37007D01*
G54D41*
X45000Y-43000D02*
X45500Y-43000D01*
X46750Y-42750D02*
X47750Y-42750D01*
X45500Y-43000D02*
X45750Y-42750D01*
X49750Y-42750D02*
X48750Y-42750D01*
X49750Y-46500D02*
X48750Y-46500D01*
X48750Y-45500D02*
X49750Y-45500D01*
X49750Y-44500D02*
X48750Y-44500D01*
X49750Y-52000D02*
X49250Y-51500D01*
X43000Y-52000D02*
X43000Y-53000D01*
X42000Y-52000D02*
X43000Y-52000D01*
X44000Y-52000D02*
X45000Y-52000D01*
X53000Y-41000D02*
X52000Y-41000D01*
X51000Y-41000D02*
X51000Y-42000D01*
X54000Y-43000D02*
X53000Y-43000D01*
X54000Y-42000D02*
X55000Y-42000D01*
X45000Y-43000D02*
X44000Y-43000D01*
X44000Y-42000D02*
X45000Y-42000D01*
X55000Y-49000D02*
X55000Y-48000D01*
X53000Y-45000D02*
X52000Y-45000D01*
X53000Y-48000D02*
X53000Y-47000D01*
X51000Y-52000D02*
X51000Y-51000D01*
X50000Y-49000D02*
X49000Y-49000D01*
X53000Y-52000D02*
X53000Y-53000D01*
X56000Y-52000D02*
X55000Y-52000D01*
X54000Y-52000D02*
X53000Y-52000D01*
X57000Y-50000D02*
X56000Y-50000D01*
X57000Y-51000D02*
X57000Y-50000D01*
X54000Y-51000D02*
X55000Y-51000D01*
X53000Y-50000D02*
X54000Y-50000D01*
X54000Y-49000D02*
X53000Y-49000D01*
X55000Y-50000D02*
X55000Y-49000D01*
X57000Y-52000D02*
X56000Y-52000D01*
X58000Y-40000D02*
X58000Y-41000D01*
X54000Y-40000D02*
X55000Y-40000D01*
X56000Y-40000D02*
X57000Y-40000D01*
X58000Y-50000D02*
X58000Y-51000D01*
X57000Y-49000D02*
X58000Y-49000D01*
X58000Y-48000D02*
X57000Y-48000D01*
X58000Y-46000D02*
X58000Y-47000D01*
X58000Y-44000D02*
X58000Y-45000D01*
X58000Y-42000D02*
X58000Y-43000D01*
X46000Y-40000D02*
X46000Y-41000D01*
X47000Y-41000D02*
X48000Y-41000D01*
X42000Y-40000D02*
X43000Y-40000D01*
X44000Y-40000D02*
X45000Y-40000D01*
X46000Y-40000D02*
X47000Y-40000D01*
X40000Y-40000D02*
X41000Y-40000D01*
X52000Y-40000D02*
X53000Y-40000D01*
X50000Y-40000D02*
X51000Y-40000D01*
X39700Y-39500D02*
X39700Y-39700D01*
X39700Y-40300D02*
X39700Y-40900D01*
X39700Y-41500D02*
X39700Y-42100D01*
X39700Y-42700D02*
X39700Y-43300D01*
X39700Y-43900D02*
X39700Y-44500D01*
X39700Y-45300D02*
X39700Y-45900D01*
X39700Y-46500D02*
X39700Y-47100D01*
X39700Y-47700D02*
X39700Y-48300D01*
X39700Y-48900D02*
X39700Y-49500D01*
X39700Y-50300D02*
X39700Y-50900D01*
X40100Y-51300D02*
X40500Y-51700D01*
X41000Y-52200D02*
X41500Y-52700D01*
X42000Y-53200D02*
X42500Y-53700D01*
X43000Y-54200D02*
X43500Y-54700D01*
X44200Y-54800D02*
X44800Y-54800D01*
X45400Y-54800D02*
X46000Y-54800D01*
X46600Y-54800D02*
X47200Y-54800D01*
X47800Y-54800D02*
X48400Y-54800D01*
X50200Y-54800D02*
X50700Y-54800D01*
X51300Y-54800D02*
X51900Y-54800D01*
X52500Y-54800D02*
X53100Y-54800D01*
X53700Y-54800D02*
X54300Y-54800D01*
X54900Y-54800D02*
X55300Y-54400D01*
X55800Y-53900D02*
X56300Y-53400D01*
X56800Y-52900D02*
X57300Y-52400D01*
X57800Y-51900D02*
X58300Y-51400D01*
X40000Y-39200D02*
X39800Y-39400D01*
X40800Y-38400D02*
X40400Y-38800D01*
X41600Y-37600D02*
X41200Y-38000D01*
X42400Y-36800D02*
X42000Y-37200D01*
X43200Y-36000D02*
X42800Y-36400D01*
X44400Y-35800D02*
X43800Y-35800D01*
X45600Y-35800D02*
X45000Y-35800D01*
X46800Y-35800D02*
X46200Y-35800D01*
X48000Y-35800D02*
X47400Y-35800D01*
X49200Y-35800D02*
X48600Y-35800D01*
X50400Y-35800D02*
X49800Y-35800D01*
X51600Y-35800D02*
X51000Y-35800D01*
X52800Y-35800D02*
X52200Y-35800D01*
X54000Y-35800D02*
X53400Y-35800D01*
X54800Y-35800D02*
X54600Y-35800D01*
X55000Y-36000D02*
X54800Y-35800D01*
X55800Y-36800D02*
X55400Y-36400D01*
X56600Y-37600D02*
X56200Y-37200D01*
X57400Y-38400D02*
X57000Y-38000D01*
X58200Y-39200D02*
X57800Y-38800D01*
X58700Y-40200D02*
X58600Y-39600D01*
X58700Y-41400D02*
X58700Y-40800D01*
X58700Y-42600D02*
X58700Y-42000D01*
X58700Y-43800D02*
X58700Y-43200D01*
X58700Y-45000D02*
X58700Y-44400D01*
X58700Y-46200D02*
X58700Y-45600D01*
X58700Y-47400D02*
X58700Y-46800D01*
X39800Y-39400D02*
X39700Y-39500D01*
X58700Y-48600D02*
X58700Y-49200D01*
X58700Y-49800D02*
X58700Y-50400D01*
X58700Y-47400D02*
X58700Y-48000D01*
G54D38*
X47711Y-52876D02*
X47711Y-53289D01*
X47711Y-53289D02*
X47700Y-53300D01*
X47575Y-52000D02*
X47575Y-52025D01*
X47400Y-52200D02*
X47300Y-52200D01*
X47575Y-52025D02*
X47400Y-52200D01*
X47575Y-52000D02*
X47575Y-51975D01*
X47400Y-51800D02*
X47300Y-51800D01*
X47575Y-51975D02*
X47400Y-51800D01*
G54D40*
X51646Y-48380D02*
X51646Y-48646D01*
X51646Y-48646D02*
X51750Y-48750D01*
X50375Y-44650D02*
X50375Y-44625D01*
X50200Y-44450D02*
X50100Y-44450D01*
X50375Y-44625D02*
X50200Y-44450D01*
X50375Y-44650D02*
X50375Y-44675D01*
X50200Y-44850D02*
X50100Y-44850D01*
X50375Y-44675D02*
X50200Y-44850D01*
X51025Y-50150D02*
X51025Y-50075D01*
X50900Y-49950D02*
X50750Y-49950D01*
X51025Y-50075D02*
X50900Y-49950D01*
X51025Y-50150D02*
X51025Y-50175D01*
X50850Y-50350D02*
X50750Y-50350D01*
X51025Y-50175D02*
X50850Y-50350D01*
X52377Y-46850D02*
X52550Y-46850D01*
X52027Y-46000D02*
X52200Y-46000D01*
X52027Y-46350D02*
X52200Y-46350D01*
X51750Y-48000D02*
X51500Y-47800D01*
X51500Y-47800D02*
X51450Y-47800D01*
X51750Y-47600D02*
X51500Y-47800D01*
X51500Y-47800D02*
X51450Y-47800D01*
X51500Y-47800D02*
X51450Y-47800D01*
X51150Y-48000D02*
X51400Y-47800D01*
X51400Y-47800D02*
X51450Y-47800D01*
X51150Y-47600D02*
X51400Y-47800D01*
X51400Y-47800D02*
X51450Y-47800D01*
X51400Y-47800D02*
X51450Y-47800D01*
X46700Y-48750D02*
X46550Y-48900D01*
X46550Y-48900D02*
X46500Y-48900D01*
X46700Y-48750D02*
X46700Y-48700D01*
X46550Y-48550D02*
X46500Y-48550D01*
X46700Y-48700D02*
X46550Y-48550D01*
X50375Y-45400D02*
X50375Y-45375D01*
X50200Y-45200D02*
X50100Y-45200D01*
X50375Y-45375D02*
X50200Y-45200D01*
X50375Y-45400D02*
X50375Y-45425D01*
X50200Y-45600D02*
X50100Y-45600D01*
X50375Y-45425D02*
X50200Y-45600D01*
X50375Y-46150D02*
X50375Y-46125D01*
X50200Y-45950D02*
X50100Y-45950D01*
X50375Y-46125D02*
X50200Y-45950D01*
X50375Y-46150D02*
X50375Y-46175D01*
X50200Y-46350D02*
X50100Y-46350D01*
X50375Y-46175D02*
X50200Y-46350D01*
X51646Y-47219D02*
X51646Y-47603D01*
X51646Y-47603D02*
X51450Y-47800D01*
X51646Y-48380D02*
X51646Y-47996D01*
X51646Y-47996D02*
X51450Y-47800D01*
X51025Y-49350D02*
X51025Y-49325D01*
X50850Y-49150D02*
X50750Y-49150D01*
X51025Y-49325D02*
X50850Y-49150D01*
X51025Y-49350D02*
X51025Y-49375D01*
X50850Y-49550D02*
X50750Y-49550D01*
X51025Y-49375D02*
X50850Y-49550D01*
G54D38*
X46700Y-48750D02*
X46700Y-48377D01*
X46700Y-48377D02*
X46800Y-48277D01*
X43749Y-43897D02*
X43275Y-43897D01*
X43770Y-43918D02*
X43749Y-43897D01*
X43275Y-43503D02*
X43755Y-43503D01*
X43755Y-43503D02*
X43770Y-43518D01*
X43762Y-43110D02*
X43275Y-43110D01*
X43770Y-43118D02*
X43762Y-43110D01*
G54D40*
X41732Y-47244D02*
X41634Y-47244D01*
G54D38*
X57087Y-44685D02*
X56692Y-44685D01*
X57120Y-44718D02*
X57087Y-44685D01*
X56692Y-44291D02*
X57093Y-44291D01*
X57093Y-44291D02*
X57120Y-44318D01*
X57099Y-43897D02*
X56692Y-43897D01*
X57120Y-43918D02*
X57099Y-43897D01*
X57092Y-47440D02*
X56692Y-47440D01*
X57120Y-47468D02*
X57092Y-47440D01*
X56692Y-47047D02*
X57099Y-47047D01*
X57099Y-47047D02*
X57120Y-47068D01*
X57105Y-46653D02*
X56692Y-46653D01*
X57120Y-46668D02*
X57105Y-46653D01*
X56692Y-47440D02*
X56297Y-47440D01*
X56297Y-47440D02*
X56270Y-47468D01*
X56290Y-47047D02*
X56692Y-47047D01*
X56270Y-47068D02*
X56290Y-47047D01*
X56692Y-46653D02*
X56284Y-46653D01*
X56284Y-46653D02*
X56270Y-46668D01*
X56692Y-46653D02*
X56692Y-47047D01*
X56692Y-47047D02*
X56692Y-47440D01*
X56692Y-44685D02*
X56303Y-44685D01*
X56303Y-44685D02*
X56270Y-44718D01*
X56296Y-44291D02*
X56692Y-44291D01*
X56270Y-44318D02*
X56296Y-44291D01*
X56692Y-43897D02*
X56692Y-44291D01*
X56692Y-44291D02*
X56692Y-44685D01*
X56290Y-43897D02*
X56692Y-43897D01*
X56270Y-43918D02*
X56290Y-43897D01*
X42690Y-43897D02*
X43275Y-43897D01*
X42670Y-43918D02*
X42690Y-43897D01*
X43275Y-43503D02*
X42684Y-43503D01*
X42684Y-43503D02*
X42670Y-43518D01*
X42677Y-43110D02*
X43275Y-43110D01*
X42670Y-43118D02*
X42677Y-43110D01*
X41732Y-47244D02*
X42296Y-47244D01*
X42296Y-47244D02*
X42320Y-47268D01*
G54D42*
X47700Y-45927D02*
X47922Y-45927D01*
X47922Y-45927D02*
X47950Y-45900D01*
X47700Y-46872D02*
X47927Y-46872D01*
X47927Y-46872D02*
X47950Y-46800D01*
X46499Y-46872D02*
X46322Y-46872D01*
X46322Y-46872D02*
X46250Y-46800D01*
X46499Y-45927D02*
X46277Y-45927D01*
X46277Y-45927D02*
X46250Y-45900D01*
G54D39*
X42650Y-50400D02*
X42050Y-50400D01*
X40450Y-45318D02*
X40033Y-44901D01*
X40450Y-48800D02*
X40450Y-45318D01*
X42050Y-50400D02*
X40450Y-48800D01*
X42650Y-50400D02*
X44000Y-50400D01*
X44000Y-50400D02*
X45050Y-49350D01*
G54D38*
X46850Y-45050D02*
X47023Y-45050D01*
G54D41*
X47023Y-45050D02*
X46850Y-45050D01*
G54D38*
X46123Y-47550D02*
X45950Y-47550D01*
G54D41*
X46123Y-47550D02*
X45950Y-47550D01*
G54D38*
X46123Y-47900D02*
X45950Y-47900D01*
G54D41*
X46123Y-47900D02*
X45950Y-47900D01*
G54D39*
X45050Y-49350D02*
X46600Y-49350D01*
X47000Y-49350D02*
X47300Y-49050D01*
X47300Y-49050D02*
X47300Y-48750D01*
X46600Y-49350D02*
X47000Y-49350D01*
X45050Y-49350D02*
X44850Y-49550D01*
G54D40*
X47700Y-46872D02*
X47572Y-46872D01*
X47572Y-46872D02*
X47100Y-46400D01*
X47700Y-46571D02*
X47271Y-46571D01*
X47271Y-46571D02*
X47100Y-46400D01*
X47700Y-46228D02*
X47271Y-46228D01*
X47271Y-46228D02*
X47100Y-46400D01*
X47700Y-45927D02*
X47572Y-45927D01*
X47572Y-45927D02*
X47100Y-46400D01*
X46499Y-45927D02*
X46627Y-45927D01*
X46627Y-45927D02*
X47100Y-46400D01*
X46499Y-46571D02*
X46928Y-46571D01*
X46928Y-46571D02*
X47100Y-46400D01*
X46499Y-46872D02*
X46627Y-46872D01*
X46627Y-46872D02*
X47100Y-46400D01*
X46499Y-46228D02*
X46928Y-46228D01*
X46928Y-46228D02*
X47100Y-46400D01*
X47400Y-46750D02*
X47100Y-46450D01*
X47100Y-46450D02*
X47100Y-46400D01*
X47100Y-46450D02*
X47100Y-46400D01*
X46800Y-46750D02*
X47100Y-46450D01*
X47400Y-46050D02*
X47100Y-46350D01*
X47100Y-46350D02*
X47100Y-46400D01*
X47100Y-46350D02*
X47100Y-46400D01*
X46800Y-46050D02*
X47100Y-46350D01*
G54D41*
X48127Y-45300D02*
X48127Y-45523D01*
X48127Y-45523D02*
X48100Y-45550D01*
X47296Y-47177D02*
X47296Y-47496D01*
X47296Y-47496D02*
X47350Y-47550D01*
X47877Y-47900D02*
X47877Y-48127D01*
X47877Y-48127D02*
X47900Y-48150D01*
X47877Y-47900D02*
X47877Y-47673D01*
X47877Y-47673D02*
X47900Y-47650D01*
X47200Y-48277D02*
X47427Y-48277D01*
X47427Y-48277D02*
X47450Y-48300D01*
X47300Y-48750D02*
X47450Y-48600D01*
X47450Y-48600D02*
X47550Y-48600D01*
G54D40*
X47100Y-45622D02*
X47100Y-45300D01*
X47100Y-45300D02*
X47100Y-45127D01*
X47100Y-45127D02*
X47023Y-45050D01*
G54D38*
X47300Y-48750D02*
X47300Y-48377D01*
X47300Y-48377D02*
X47200Y-48277D01*
X47575Y-50350D02*
X47575Y-50525D01*
X47575Y-50525D02*
X48650Y-51600D01*
X48650Y-51600D02*
X48650Y-51823D01*
G54D40*
X46706Y-47177D02*
X46104Y-47177D01*
X46104Y-47177D02*
X46077Y-47150D01*
X46706Y-47177D02*
X46706Y-47320D01*
X46706Y-47320D02*
X46477Y-47550D01*
X47493Y-45622D02*
X47493Y-45579D01*
X47493Y-45579D02*
X47773Y-45300D01*
X46477Y-47900D02*
X46777Y-47900D01*
X46777Y-47900D02*
X46800Y-47923D01*
X46903Y-47177D02*
X46903Y-47819D01*
X46903Y-47819D02*
X46800Y-47923D01*
G54D38*
X48827Y-52177D02*
X49127Y-52177D01*
X48650Y-52177D02*
X48827Y-52177D01*
X49845Y-54495D02*
X49550Y-54200D01*
X49550Y-54200D02*
X49550Y-52600D01*
X49845Y-54495D02*
X49845Y-54750D01*
X49127Y-52177D02*
X49550Y-52600D01*
X49845Y-54645D02*
X49845Y-54750D01*
X48150Y-51823D02*
X48150Y-51600D01*
X47900Y-51350D02*
X48100Y-51550D01*
X48150Y-51600D02*
X48100Y-51550D01*
X47900Y-51350D02*
X47575Y-51350D01*
G54D43*
X49000Y-52450D02*
X47000Y-52450D01*
G54D38*
X49255Y-52705D02*
X49000Y-52450D01*
X49255Y-54750D02*
X49255Y-52705D01*
G54D43*
X47000Y-52450D02*
X46825Y-52275D01*
X46825Y-52275D02*
X46825Y-52000D01*
G54D38*
X46689Y-52876D02*
X46689Y-52411D01*
X46825Y-52275D02*
X46825Y-52000D01*
X46689Y-52411D02*
X46825Y-52275D01*
X46825Y-51350D02*
X46825Y-52000D01*
X49800Y-48266D02*
X50334Y-48266D01*
X50448Y-48380D02*
X51056Y-48380D01*
X50334Y-48266D02*
X50448Y-48380D01*
X49800Y-47333D02*
X50330Y-47333D01*
X50444Y-47219D02*
X51056Y-47219D01*
X50330Y-47333D02*
X50444Y-47219D01*
G54D40*
X51673Y-46350D02*
X51673Y-46000D01*
X51627Y-46700D02*
X51627Y-46396D01*
X51627Y-46396D02*
X51673Y-46350D01*
X51450Y-47219D02*
X51450Y-46950D01*
X51627Y-46773D02*
X51627Y-46700D01*
X51450Y-46950D02*
X51627Y-46773D01*
X47523Y-47900D02*
X47223Y-47900D01*
X47223Y-47900D02*
X47200Y-47923D01*
X47100Y-47177D02*
X47100Y-47823D01*
X47100Y-47823D02*
X47200Y-47923D01*
X51843Y-47219D02*
X51843Y-47029D01*
X51843Y-47029D02*
X52023Y-46850D01*
X51843Y-47219D02*
X51843Y-47179D01*
X47377Y-44650D02*
X47377Y-45050D01*
X47296Y-45622D02*
X47296Y-45130D01*
X47296Y-45130D02*
X47377Y-45050D01*
G54D38*
X42302Y-46850D02*
X41732Y-46850D01*
X42320Y-46868D02*
X42302Y-46850D01*
X41732Y-46456D02*
X42308Y-46456D01*
X42308Y-46456D02*
X42320Y-46468D01*
X42314Y-46062D02*
X41732Y-46062D01*
X42320Y-46068D02*
X42314Y-46062D01*
X41732Y-45669D02*
X42271Y-45669D01*
X42271Y-45669D02*
X42320Y-45718D01*
X42277Y-45275D02*
X41732Y-45275D01*
X42320Y-45318D02*
X42277Y-45275D01*
X41732Y-44881D02*
X42283Y-44881D01*
X42283Y-44881D02*
X42320Y-44918D01*
X42320Y-44518D02*
X42290Y-44488D01*
X42290Y-44488D02*
X41732Y-44488D01*
X41732Y-44094D02*
X42296Y-44094D01*
X42296Y-44094D02*
X42320Y-44118D01*
X56280Y-45078D02*
X56692Y-45078D01*
X56270Y-45068D02*
X56280Y-45078D01*
X56692Y-45472D02*
X56274Y-45472D01*
X56274Y-45472D02*
X56270Y-45468D01*
X51843Y-48380D02*
X52403Y-48380D01*
X52403Y-48380D02*
X52423Y-48400D01*
X57118Y-45866D02*
X56692Y-45866D01*
X57120Y-45868D02*
X57118Y-45866D01*
X52900Y-44100D02*
X53100Y-44100D01*
X54669Y-45669D02*
X53150Y-44150D01*
X55149Y-45669D02*
X54669Y-45669D01*
X52550Y-44100D02*
X52900Y-44100D01*
X46500Y-44350D02*
X46650Y-44200D01*
G54D40*
X46903Y-45453D02*
X46500Y-45050D01*
X46500Y-45050D02*
X46500Y-44900D01*
X46903Y-45453D02*
X46903Y-45622D01*
G54D38*
X46750Y-44100D02*
X50350Y-44100D01*
X46700Y-44150D02*
X46750Y-44100D01*
X46650Y-44200D02*
X46700Y-44150D01*
X53100Y-44100D02*
X53150Y-44150D01*
G54D41*
X55628Y-45668D02*
X55570Y-45668D01*
G54D38*
X55149Y-45669D02*
X55568Y-45669D01*
X55568Y-45669D02*
X55570Y-45668D01*
X54412Y-46062D02*
X53000Y-44650D01*
X55149Y-46062D02*
X54412Y-46062D01*
X46200Y-44150D02*
X46600Y-43750D01*
X46600Y-43750D02*
X50350Y-43750D01*
G54D40*
X46672Y-45622D02*
X46706Y-45622D01*
X46200Y-45150D02*
X46200Y-44900D01*
X46672Y-45622D02*
X46200Y-45150D01*
G54D38*
X46200Y-44200D02*
X46200Y-44150D01*
X52800Y-44450D02*
X53000Y-44650D01*
X52350Y-44450D02*
X52800Y-44450D01*
X51650Y-43750D02*
X52350Y-44450D01*
G54D40*
X46706Y-45622D02*
X46706Y-45506D01*
G54D38*
X55564Y-46062D02*
X55149Y-46062D01*
X55570Y-46068D02*
X55564Y-46062D01*
X55149Y-44881D02*
X55533Y-44881D01*
X55533Y-44881D02*
X55570Y-44918D01*
X55552Y-43700D02*
X55149Y-43700D01*
X55570Y-43718D02*
X55552Y-43700D01*
X55540Y-44488D02*
X55149Y-44488D01*
X55570Y-44518D02*
X55540Y-44488D01*
X55149Y-43307D02*
X55559Y-43307D01*
X55559Y-43307D02*
X55570Y-43318D01*
X55562Y-45275D02*
X55149Y-45275D01*
X55570Y-45268D02*
X55562Y-45275D01*
X55149Y-44094D02*
X55546Y-44094D01*
X55546Y-44094D02*
X55570Y-44118D01*
X56692Y-46259D02*
X57111Y-46259D01*
X57111Y-46259D02*
X57120Y-46268D01*
G54D10*
G36*
X46875Y-49105D02*
X46675Y-49105D01*
X46675Y-49031D01*
X46675Y-48775D01*
X46675Y-48725D01*
X46675Y-48468D01*
X46656Y-48450D01*
X46560Y-48450D01*
X46532Y-48461D01*
X46511Y-48482D01*
X46500Y-48510D01*
X46500Y-48539D01*
X46500Y-48706D01*
X46518Y-48725D01*
X46675Y-48725D01*
X46675Y-48775D01*
X46518Y-48775D01*
X46500Y-48793D01*
X46500Y-48960D01*
X46500Y-48989D01*
X46511Y-49017D01*
X46532Y-49038D01*
X46560Y-49050D01*
X46656Y-49050D01*
X46675Y-49031D01*
X46675Y-49105D01*
X46600Y-49105D01*
X45756Y-49105D01*
X45806Y-49054D01*
X45834Y-48986D01*
X45835Y-48913D01*
X45815Y-48864D01*
X45815Y-48275D01*
X46832Y-48275D01*
X46832Y-48302D01*
X46825Y-48302D01*
X46825Y-48411D01*
X46843Y-48430D01*
X46875Y-48430D01*
X46875Y-48468D01*
X46867Y-48461D01*
X46839Y-48450D01*
X46775Y-48450D01*
X46775Y-48411D01*
X46775Y-48302D01*
X46625Y-48302D01*
X46607Y-48320D01*
X46607Y-48370D01*
X46618Y-48397D01*
X46639Y-48419D01*
X46667Y-48430D01*
X46696Y-48430D01*
X46756Y-48430D01*
X46775Y-48411D01*
X46775Y-48450D01*
X46743Y-48450D01*
X46725Y-48468D01*
X46725Y-48725D01*
X46732Y-48725D01*
X46732Y-48775D01*
X46725Y-48775D01*
X46725Y-49031D01*
X46743Y-49050D01*
X46839Y-49050D01*
X46867Y-49038D01*
X46875Y-49031D01*
X46875Y-49105D01*
X46875Y-49105D01*
G37*
G54D44*
X46875Y-49105D02*
X46675Y-49105D01*
X46675Y-49031D01*
X46675Y-48775D01*
X46675Y-48725D01*
X46675Y-48468D01*
X46656Y-48450D01*
X46560Y-48450D01*
X46532Y-48461D01*
X46511Y-48482D01*
X46500Y-48510D01*
X46500Y-48539D01*
X46500Y-48706D01*
X46518Y-48725D01*
X46675Y-48725D01*
X46675Y-48775D01*
X46518Y-48775D01*
X46500Y-48793D01*
X46500Y-48960D01*
X46500Y-48989D01*
X46511Y-49017D01*
X46532Y-49038D01*
X46560Y-49050D01*
X46656Y-49050D01*
X46675Y-49031D01*
X46675Y-49105D01*
X46600Y-49105D01*
X45756Y-49105D01*
X45806Y-49054D01*
X45834Y-48986D01*
X45835Y-48913D01*
X45815Y-48864D01*
X45815Y-48275D01*
X46832Y-48275D01*
X46832Y-48302D01*
X46825Y-48302D01*
X46825Y-48411D01*
X46843Y-48430D01*
X46875Y-48430D01*
X46875Y-48468D01*
X46867Y-48461D01*
X46839Y-48450D01*
X46775Y-48450D01*
X46775Y-48411D01*
X46775Y-48302D01*
X46625Y-48302D01*
X46607Y-48320D01*
X46607Y-48370D01*
X46618Y-48397D01*
X46639Y-48419D01*
X46667Y-48430D01*
X46696Y-48430D01*
X46756Y-48430D01*
X46775Y-48411D01*
X46775Y-48450D01*
X46743Y-48450D01*
X46725Y-48468D01*
X46725Y-48725D01*
X46732Y-48725D01*
X46732Y-48775D01*
X46725Y-48775D01*
X46725Y-49031D01*
X46743Y-49050D01*
X46839Y-49050D01*
X46867Y-49038D01*
X46875Y-49031D01*
X46875Y-49105D01*
G54D10*
G36*
X51482Y-47825D02*
X51475Y-47825D01*
X51475Y-47832D01*
X51425Y-47832D01*
X51425Y-47825D01*
X51417Y-47825D01*
X51417Y-47775D01*
X51425Y-47775D01*
X51425Y-47767D01*
X51475Y-47767D01*
X51475Y-47775D01*
X51482Y-47775D01*
X51482Y-47825D01*
X51482Y-47825D01*
G37*
G54D44*
X51482Y-47825D02*
X51475Y-47825D01*
X51475Y-47832D01*
X51425Y-47832D01*
X51425Y-47825D01*
X51417Y-47825D01*
X51417Y-47775D01*
X51425Y-47775D01*
X51425Y-47767D01*
X51475Y-47767D01*
X51475Y-47775D01*
X51482Y-47775D01*
X51482Y-47825D01*
G54D10*
G36*
X58975Y-51147D02*
X57445Y-52678D01*
X57445Y-42000D01*
X57445Y-41999D01*
X57445Y-40950D01*
X57445Y-40950D01*
X57445Y-40950D01*
X57429Y-40871D01*
X57426Y-40856D01*
X57426Y-40856D01*
X57373Y-40776D01*
X57373Y-40776D01*
X57373Y-40776D01*
X57123Y-40526D01*
X57043Y-40473D01*
X56950Y-40454D01*
X56949Y-40455D01*
X53850Y-40455D01*
X53756Y-40473D01*
X53676Y-40526D01*
X53676Y-40526D01*
X51148Y-43055D01*
X51101Y-43055D01*
X50123Y-42076D01*
X50043Y-42023D01*
X49950Y-42004D01*
X49949Y-42005D01*
X49947Y-42005D01*
X49947Y-40504D01*
X49835Y-40234D01*
X49629Y-40027D01*
X49359Y-39915D01*
X49067Y-39914D01*
X48797Y-40026D01*
X48590Y-40232D01*
X48478Y-40502D01*
X48477Y-40795D01*
X48589Y-41065D01*
X48795Y-41272D01*
X49065Y-41384D01*
X49358Y-41384D01*
X49628Y-41272D01*
X49835Y-41066D01*
X49947Y-40796D01*
X49947Y-40504D01*
X49947Y-42005D01*
X49850Y-42005D01*
X46401Y-42005D01*
X45223Y-40826D01*
X45143Y-40773D01*
X45050Y-40754D01*
X45049Y-40755D01*
X44500Y-40755D01*
X41550Y-40755D01*
X41550Y-40754D01*
X41471Y-40770D01*
X41456Y-40773D01*
X41376Y-40826D01*
X41376Y-40826D01*
X41076Y-41126D01*
X41023Y-41206D01*
X41004Y-41300D01*
X41005Y-41300D01*
X41005Y-42299D01*
X41004Y-42300D01*
X41023Y-42393D01*
X41076Y-42473D01*
X41351Y-42748D01*
X41293Y-42748D01*
X41257Y-42733D01*
X41183Y-42733D01*
X41115Y-42761D01*
X41063Y-42813D01*
X41035Y-42881D01*
X41035Y-42954D01*
X41063Y-43022D01*
X41115Y-43074D01*
X41183Y-43103D01*
X41256Y-43103D01*
X41316Y-43078D01*
X41487Y-43078D01*
X41487Y-43142D01*
X41278Y-43142D01*
X41257Y-43133D01*
X41183Y-43133D01*
X41115Y-43161D01*
X41063Y-43213D01*
X41035Y-43281D01*
X41035Y-43354D01*
X41063Y-43422D01*
X41115Y-43474D01*
X41183Y-43503D01*
X41256Y-43503D01*
X41324Y-43475D01*
X41327Y-43472D01*
X41487Y-43472D01*
X41487Y-43535D01*
X41263Y-43535D01*
X41257Y-43533D01*
X41183Y-43533D01*
X41115Y-43561D01*
X41063Y-43613D01*
X41035Y-43681D01*
X41035Y-43754D01*
X41063Y-43822D01*
X41115Y-43874D01*
X41183Y-43903D01*
X41256Y-43903D01*
X41324Y-43875D01*
X41334Y-43865D01*
X41553Y-43865D01*
X41559Y-43874D01*
X41638Y-43927D01*
X41656Y-43930D01*
X41305Y-43930D01*
X41274Y-43943D01*
X41250Y-43967D01*
X41237Y-43998D01*
X41237Y-44032D01*
X41237Y-44190D01*
X41250Y-44221D01*
X41274Y-44245D01*
X41305Y-44258D01*
X41339Y-44258D01*
X41725Y-44258D01*
X41732Y-44259D01*
X42199Y-44259D01*
X42215Y-44274D01*
X42283Y-44303D01*
X42356Y-44303D01*
X42424Y-44275D01*
X42476Y-44223D01*
X42505Y-44155D01*
X42505Y-44081D01*
X42477Y-44013D01*
X42425Y-43961D01*
X42357Y-43933D01*
X42314Y-43933D01*
X42296Y-43929D01*
X41814Y-43929D01*
X41826Y-43927D01*
X41905Y-43874D01*
X41911Y-43865D01*
X42206Y-43865D01*
X42215Y-43874D01*
X42283Y-43903D01*
X42356Y-43903D01*
X42424Y-43875D01*
X42476Y-43823D01*
X42505Y-43755D01*
X42505Y-43681D01*
X42477Y-43613D01*
X42425Y-43561D01*
X42357Y-43533D01*
X42283Y-43533D01*
X42276Y-43535D01*
X41977Y-43535D01*
X41977Y-43472D01*
X42212Y-43472D01*
X42215Y-43474D01*
X42283Y-43503D01*
X42356Y-43503D01*
X42424Y-43475D01*
X42476Y-43423D01*
X42505Y-43355D01*
X42505Y-43281D01*
X42477Y-43213D01*
X42425Y-43161D01*
X42357Y-43133D01*
X42283Y-43133D01*
X42261Y-43142D01*
X41977Y-43142D01*
X41977Y-43078D01*
X42223Y-43078D01*
X42283Y-43103D01*
X42356Y-43103D01*
X42424Y-43075D01*
X42476Y-43023D01*
X42505Y-42955D01*
X42505Y-42881D01*
X42477Y-42813D01*
X42425Y-42761D01*
X42357Y-42733D01*
X42283Y-42733D01*
X42246Y-42748D01*
X41970Y-42748D01*
X41961Y-42704D01*
X41958Y-42688D01*
X41958Y-42688D01*
X41905Y-42609D01*
X41905Y-42609D01*
X41905Y-42609D01*
X41495Y-42198D01*
X41495Y-41401D01*
X41651Y-41245D01*
X44500Y-41245D01*
X44948Y-41245D01*
X46126Y-42423D01*
X46206Y-42476D01*
X46300Y-42495D01*
X46300Y-42495D01*
X46300Y-42495D01*
X49848Y-42495D01*
X50408Y-43055D01*
X46050Y-43055D01*
X46050Y-43054D01*
X45971Y-43070D01*
X45956Y-43073D01*
X45876Y-43126D01*
X45876Y-43126D01*
X45626Y-43376D01*
X45626Y-43376D01*
X44626Y-44376D01*
X44573Y-44456D01*
X44554Y-44550D01*
X44555Y-44550D01*
X44555Y-46474D01*
X43820Y-47005D01*
X43770Y-47005D01*
X43770Y-46951D01*
X43770Y-46749D01*
X43770Y-46715D01*
X43770Y-46557D01*
X43770Y-46355D01*
X43770Y-46321D01*
X43770Y-46164D01*
X43770Y-45961D01*
X43770Y-45927D01*
X43770Y-45770D01*
X43770Y-45568D01*
X43770Y-45534D01*
X43770Y-45376D01*
X43757Y-45345D01*
X43733Y-45321D01*
X43701Y-45308D01*
X43668Y-45308D01*
X43281Y-45308D01*
X43275Y-45307D01*
X42765Y-45307D01*
X42731Y-45293D01*
X42774Y-45275D01*
X42806Y-45243D01*
X43275Y-45243D01*
X43281Y-45242D01*
X43701Y-45242D01*
X43733Y-45229D01*
X43757Y-45205D01*
X43770Y-45174D01*
X43770Y-45140D01*
X43770Y-44983D01*
X43770Y-44780D01*
X43770Y-44746D01*
X43770Y-44589D01*
X43770Y-44386D01*
X43770Y-44353D01*
X43770Y-44195D01*
X43760Y-44171D01*
X43760Y-43991D01*
X43760Y-43941D01*
X43760Y-43853D01*
X43760Y-43803D01*
X43760Y-43597D01*
X43760Y-43547D01*
X43760Y-43460D01*
X43760Y-43410D01*
X43760Y-43203D01*
X43760Y-43153D01*
X43760Y-43066D01*
X43760Y-43016D01*
X43748Y-42989D01*
X43727Y-42967D01*
X43699Y-42956D01*
X43670Y-42956D01*
X43319Y-42956D01*
X43300Y-42975D01*
X43300Y-43085D01*
X43741Y-43085D01*
X43760Y-43066D01*
X43760Y-43153D01*
X43741Y-43135D01*
X43300Y-43135D01*
X43300Y-43245D01*
X43319Y-43263D01*
X43670Y-43263D01*
X43699Y-43263D01*
X43727Y-43252D01*
X43748Y-43231D01*
X43760Y-43203D01*
X43760Y-43410D01*
X43748Y-43382D01*
X43727Y-43361D01*
X43699Y-43350D01*
X43670Y-43350D01*
X43319Y-43350D01*
X43300Y-43368D01*
X43300Y-43478D01*
X43741Y-43478D01*
X43760Y-43460D01*
X43760Y-43547D01*
X43741Y-43528D01*
X43300Y-43528D01*
X43300Y-43638D01*
X43319Y-43657D01*
X43670Y-43657D01*
X43699Y-43657D01*
X43727Y-43646D01*
X43748Y-43625D01*
X43760Y-43597D01*
X43760Y-43803D01*
X43748Y-43776D01*
X43727Y-43755D01*
X43699Y-43743D01*
X43670Y-43743D01*
X43319Y-43743D01*
X43300Y-43762D01*
X43300Y-43872D01*
X43741Y-43872D01*
X43760Y-43853D01*
X43760Y-43941D01*
X43741Y-43922D01*
X43300Y-43922D01*
X43300Y-44032D01*
X43319Y-44051D01*
X43670Y-44051D01*
X43699Y-44051D01*
X43727Y-44039D01*
X43748Y-44018D01*
X43760Y-43991D01*
X43760Y-44171D01*
X43757Y-44164D01*
X43733Y-44140D01*
X43701Y-44127D01*
X43668Y-44127D01*
X43281Y-44127D01*
X43275Y-44126D01*
X43258Y-44126D01*
X43258Y-41965D01*
X43258Y-41931D01*
X43258Y-41420D01*
X43245Y-41388D01*
X43221Y-41364D01*
X43190Y-41352D01*
X43156Y-41352D01*
X41817Y-41352D01*
X41786Y-41364D01*
X41762Y-41388D01*
X41749Y-41420D01*
X41749Y-41453D01*
X41749Y-41965D01*
X41762Y-41996D01*
X41786Y-42020D01*
X41817Y-42033D01*
X41851Y-42033D01*
X42291Y-42033D01*
X42215Y-42109D01*
X42163Y-42235D01*
X42162Y-42370D01*
X42214Y-42496D01*
X42310Y-42591D01*
X42435Y-42643D01*
X42571Y-42644D01*
X42696Y-42592D01*
X42792Y-42496D01*
X42844Y-42371D01*
X42844Y-42235D01*
X42793Y-42110D01*
X42716Y-42033D01*
X43190Y-42033D01*
X43221Y-42020D01*
X43245Y-41996D01*
X43258Y-41965D01*
X43258Y-44126D01*
X43250Y-44126D01*
X43250Y-44032D01*
X43250Y-43922D01*
X43250Y-43872D01*
X43250Y-43762D01*
X43250Y-43638D01*
X43250Y-43528D01*
X43250Y-43478D01*
X43250Y-43368D01*
X43250Y-43245D01*
X43250Y-43135D01*
X43250Y-43085D01*
X43250Y-42975D01*
X43231Y-42956D01*
X42881Y-42956D01*
X42851Y-42956D01*
X42823Y-42967D01*
X42802Y-42989D01*
X42791Y-43016D01*
X42791Y-43066D01*
X42809Y-43085D01*
X43250Y-43085D01*
X43250Y-43135D01*
X42809Y-43135D01*
X42791Y-43153D01*
X42791Y-43203D01*
X42802Y-43231D01*
X42823Y-43252D01*
X42851Y-43263D01*
X42881Y-43263D01*
X43231Y-43263D01*
X43250Y-43245D01*
X43250Y-43368D01*
X43231Y-43350D01*
X42881Y-43350D01*
X42851Y-43350D01*
X42823Y-43361D01*
X42802Y-43382D01*
X42791Y-43410D01*
X42791Y-43460D01*
X42809Y-43478D01*
X43250Y-43478D01*
X43250Y-43528D01*
X42809Y-43528D01*
X42791Y-43547D01*
X42791Y-43597D01*
X42802Y-43625D01*
X42823Y-43646D01*
X42851Y-43657D01*
X42881Y-43657D01*
X43231Y-43657D01*
X43250Y-43638D01*
X43250Y-43762D01*
X43231Y-43743D01*
X42881Y-43743D01*
X42851Y-43743D01*
X42823Y-43755D01*
X42802Y-43776D01*
X42791Y-43803D01*
X42791Y-43853D01*
X42809Y-43872D01*
X43250Y-43872D01*
X43250Y-43922D01*
X42809Y-43922D01*
X42791Y-43941D01*
X42791Y-43991D01*
X42802Y-44018D01*
X42823Y-44039D01*
X42851Y-44051D01*
X42881Y-44051D01*
X43231Y-44051D01*
X43250Y-44032D01*
X43250Y-44126D01*
X42696Y-44126D01*
X42662Y-44133D01*
X42662Y-44133D01*
X42633Y-44133D01*
X42565Y-44161D01*
X42513Y-44213D01*
X42485Y-44281D01*
X42485Y-44354D01*
X42513Y-44422D01*
X42565Y-44474D01*
X42633Y-44503D01*
X42706Y-44503D01*
X42774Y-44475D01*
X42793Y-44456D01*
X43275Y-44456D01*
X43281Y-44455D01*
X43701Y-44455D01*
X43733Y-44442D01*
X43757Y-44418D01*
X43770Y-44386D01*
X43770Y-44589D01*
X43757Y-44558D01*
X43733Y-44534D01*
X43701Y-44521D01*
X43668Y-44521D01*
X43281Y-44521D01*
X43275Y-44520D01*
X42703Y-44520D01*
X42640Y-44532D01*
X42639Y-44533D01*
X42633Y-44533D01*
X42565Y-44561D01*
X42513Y-44613D01*
X42505Y-44632D01*
X42505Y-44481D01*
X42477Y-44413D01*
X42425Y-44361D01*
X42357Y-44333D01*
X42340Y-44333D01*
X42340Y-44333D01*
X42290Y-44323D01*
X41732Y-44323D01*
X41725Y-44324D01*
X41305Y-44324D01*
X41274Y-44337D01*
X41250Y-44361D01*
X41237Y-44392D01*
X41237Y-44426D01*
X41237Y-44583D01*
X41250Y-44615D01*
X41274Y-44638D01*
X41305Y-44651D01*
X41339Y-44651D01*
X41725Y-44651D01*
X41732Y-44653D01*
X42193Y-44653D01*
X42215Y-44674D01*
X42283Y-44703D01*
X42356Y-44703D01*
X42424Y-44675D01*
X42476Y-44623D01*
X42505Y-44555D01*
X42505Y-44481D01*
X42505Y-44632D01*
X42485Y-44681D01*
X42485Y-44754D01*
X42513Y-44822D01*
X42565Y-44874D01*
X42633Y-44903D01*
X42706Y-44903D01*
X42774Y-44875D01*
X42799Y-44850D01*
X43275Y-44850D01*
X43281Y-44848D01*
X43701Y-44848D01*
X43733Y-44835D01*
X43757Y-44811D01*
X43770Y-44780D01*
X43770Y-44983D01*
X43757Y-44951D01*
X43733Y-44927D01*
X43701Y-44915D01*
X43668Y-44915D01*
X43281Y-44915D01*
X43275Y-44913D01*
X42709Y-44913D01*
X42646Y-44926D01*
X42636Y-44933D01*
X42633Y-44933D01*
X42565Y-44961D01*
X42513Y-45013D01*
X42505Y-45032D01*
X42505Y-44881D01*
X42477Y-44813D01*
X42425Y-44761D01*
X42357Y-44733D01*
X42352Y-44733D01*
X42347Y-44729D01*
X42283Y-44716D01*
X41732Y-44716D01*
X41725Y-44718D01*
X41305Y-44718D01*
X41274Y-44731D01*
X41250Y-44755D01*
X41237Y-44786D01*
X41237Y-44820D01*
X41237Y-44977D01*
X41250Y-45008D01*
X41274Y-45032D01*
X41305Y-45045D01*
X41339Y-45045D01*
X41725Y-45045D01*
X41732Y-45046D01*
X42187Y-45046D01*
X42215Y-45074D01*
X42283Y-45103D01*
X42356Y-45103D01*
X42424Y-45075D01*
X42476Y-45023D01*
X42505Y-44955D01*
X42505Y-44881D01*
X42505Y-45032D01*
X42485Y-45081D01*
X42485Y-45154D01*
X42513Y-45222D01*
X42565Y-45274D01*
X42609Y-45293D01*
X42565Y-45311D01*
X42513Y-45363D01*
X42505Y-45382D01*
X42505Y-45281D01*
X42477Y-45213D01*
X42425Y-45161D01*
X42357Y-45133D01*
X42355Y-45133D01*
X42340Y-45123D01*
X42277Y-45110D01*
X41732Y-45110D01*
X41725Y-45111D01*
X41305Y-45111D01*
X41274Y-45124D01*
X41250Y-45148D01*
X41237Y-45179D01*
X41237Y-45213D01*
X41237Y-45371D01*
X41250Y-45402D01*
X41274Y-45426D01*
X41305Y-45439D01*
X41339Y-45439D01*
X41725Y-45439D01*
X41732Y-45440D01*
X42180Y-45440D01*
X42215Y-45474D01*
X42283Y-45503D01*
X42356Y-45503D01*
X42424Y-45475D01*
X42476Y-45423D01*
X42505Y-45355D01*
X42505Y-45281D01*
X42505Y-45382D01*
X42485Y-45431D01*
X42485Y-45504D01*
X42513Y-45572D01*
X42565Y-45624D01*
X42633Y-45653D01*
X42706Y-45653D01*
X42744Y-45637D01*
X43275Y-45637D01*
X43281Y-45636D01*
X43701Y-45636D01*
X43733Y-45623D01*
X43757Y-45599D01*
X43770Y-45568D01*
X43770Y-45770D01*
X43757Y-45739D01*
X43733Y-45715D01*
X43701Y-45702D01*
X43668Y-45702D01*
X43281Y-45702D01*
X43275Y-45701D01*
X42750Y-45701D01*
X42707Y-45683D01*
X42633Y-45683D01*
X42565Y-45711D01*
X42513Y-45763D01*
X42485Y-45831D01*
X42485Y-45904D01*
X42513Y-45972D01*
X42565Y-46024D01*
X42633Y-46053D01*
X42706Y-46053D01*
X42759Y-46031D01*
X43275Y-46031D01*
X43281Y-46029D01*
X43701Y-46029D01*
X43733Y-46016D01*
X43757Y-45993D01*
X43770Y-45961D01*
X43770Y-46164D01*
X43757Y-46132D01*
X43733Y-46109D01*
X43701Y-46096D01*
X43668Y-46096D01*
X43281Y-46096D01*
X43275Y-46094D01*
X42735Y-46094D01*
X42707Y-46083D01*
X42633Y-46083D01*
X42565Y-46111D01*
X42513Y-46163D01*
X42505Y-46182D01*
X42505Y-46031D01*
X42477Y-45963D01*
X42425Y-45911D01*
X42381Y-45893D01*
X42424Y-45875D01*
X42476Y-45823D01*
X42505Y-45755D01*
X42505Y-45681D01*
X42477Y-45613D01*
X42425Y-45561D01*
X42361Y-45535D01*
X42361Y-45535D01*
X42334Y-45516D01*
X42271Y-45504D01*
X41732Y-45504D01*
X41725Y-45505D01*
X41305Y-45505D01*
X41274Y-45518D01*
X41250Y-45542D01*
X41237Y-45573D01*
X41237Y-45607D01*
X41237Y-45764D01*
X41250Y-45796D01*
X41274Y-45820D01*
X41305Y-45833D01*
X41339Y-45833D01*
X41725Y-45833D01*
X41732Y-45834D01*
X42174Y-45834D01*
X42215Y-45874D01*
X42259Y-45893D01*
X42247Y-45897D01*
X41732Y-45897D01*
X41725Y-45899D01*
X41305Y-45899D01*
X41274Y-45912D01*
X41250Y-45936D01*
X41237Y-45967D01*
X41237Y-46001D01*
X41237Y-46158D01*
X41250Y-46189D01*
X41274Y-46213D01*
X41305Y-46226D01*
X41339Y-46226D01*
X41725Y-46226D01*
X41732Y-46227D01*
X42222Y-46227D01*
X42283Y-46253D01*
X42356Y-46253D01*
X42424Y-46225D01*
X42476Y-46173D01*
X42505Y-46105D01*
X42505Y-46031D01*
X42505Y-46182D01*
X42485Y-46231D01*
X42485Y-46304D01*
X42513Y-46372D01*
X42565Y-46424D01*
X42633Y-46453D01*
X42706Y-46453D01*
X42774Y-46425D01*
X42774Y-46424D01*
X43275Y-46424D01*
X43281Y-46423D01*
X43701Y-46423D01*
X43733Y-46410D01*
X43757Y-46386D01*
X43770Y-46355D01*
X43770Y-46557D01*
X43757Y-46526D01*
X43733Y-46502D01*
X43701Y-46489D01*
X43668Y-46489D01*
X43281Y-46489D01*
X43275Y-46488D01*
X42720Y-46488D01*
X42707Y-46483D01*
X42633Y-46483D01*
X42565Y-46511D01*
X42513Y-46563D01*
X42505Y-46582D01*
X42505Y-46431D01*
X42477Y-46363D01*
X42425Y-46311D01*
X42357Y-46283D01*
X42283Y-46283D01*
X42262Y-46291D01*
X41732Y-46291D01*
X41725Y-46292D01*
X41305Y-46292D01*
X41274Y-46305D01*
X41250Y-46329D01*
X41237Y-46361D01*
X41237Y-46394D01*
X41237Y-46552D01*
X41250Y-46583D01*
X41274Y-46607D01*
X41305Y-46620D01*
X41339Y-46620D01*
X41725Y-46620D01*
X41732Y-46621D01*
X42211Y-46621D01*
X42215Y-46624D01*
X42283Y-46653D01*
X42356Y-46653D01*
X42424Y-46625D01*
X42476Y-46573D01*
X42505Y-46505D01*
X42505Y-46431D01*
X42505Y-46582D01*
X42485Y-46631D01*
X42485Y-46704D01*
X42513Y-46772D01*
X42565Y-46824D01*
X42633Y-46853D01*
X42706Y-46853D01*
X42774Y-46825D01*
X42781Y-46818D01*
X43275Y-46818D01*
X43281Y-46817D01*
X43701Y-46817D01*
X43733Y-46804D01*
X43757Y-46780D01*
X43770Y-46749D01*
X43770Y-46951D01*
X43757Y-46920D01*
X43733Y-46896D01*
X43701Y-46883D01*
X43668Y-46883D01*
X43281Y-46883D01*
X43275Y-46882D01*
X42690Y-46882D01*
X42686Y-46883D01*
X42633Y-46883D01*
X42565Y-46911D01*
X42513Y-46963D01*
X42505Y-46982D01*
X42505Y-46831D01*
X42477Y-46763D01*
X42425Y-46711D01*
X42357Y-46683D01*
X42283Y-46683D01*
X42277Y-46685D01*
X41732Y-46685D01*
X41725Y-46686D01*
X41305Y-46686D01*
X41274Y-46699D01*
X41250Y-46723D01*
X41237Y-46754D01*
X41237Y-46788D01*
X41237Y-46946D01*
X41250Y-46977D01*
X41274Y-47001D01*
X41305Y-47014D01*
X41339Y-47014D01*
X41725Y-47014D01*
X41732Y-47015D01*
X42205Y-47015D01*
X42215Y-47024D01*
X42283Y-47053D01*
X42356Y-47053D01*
X42424Y-47025D01*
X42476Y-46973D01*
X42505Y-46905D01*
X42505Y-46831D01*
X42505Y-46982D01*
X42485Y-47031D01*
X42485Y-47104D01*
X42513Y-47172D01*
X42565Y-47224D01*
X42633Y-47253D01*
X42706Y-47253D01*
X42774Y-47225D01*
X42787Y-47212D01*
X43038Y-47212D01*
X43030Y-47250D01*
X43035Y-47275D01*
X42697Y-47275D01*
X42661Y-47283D01*
X42661Y-47283D01*
X42633Y-47283D01*
X42565Y-47311D01*
X42513Y-47363D01*
X42485Y-47431D01*
X42485Y-47504D01*
X42513Y-47572D01*
X42565Y-47624D01*
X42633Y-47653D01*
X42706Y-47653D01*
X42774Y-47625D01*
X42793Y-47605D01*
X43275Y-47605D01*
X43281Y-47604D01*
X43701Y-47604D01*
X43733Y-47591D01*
X43757Y-47567D01*
X43770Y-47536D01*
X43770Y-47502D01*
X43770Y-47495D01*
X43900Y-47495D01*
X43927Y-47489D01*
X43956Y-47488D01*
X43974Y-47480D01*
X43993Y-47476D01*
X44017Y-47460D01*
X44043Y-47448D01*
X44943Y-46798D01*
X44956Y-46784D01*
X44973Y-46773D01*
X44989Y-46749D01*
X45008Y-46728D01*
X45015Y-46710D01*
X45026Y-46693D01*
X45031Y-46665D01*
X45041Y-46639D01*
X45041Y-46619D01*
X45045Y-46600D01*
X45045Y-44651D01*
X45973Y-43723D01*
X45973Y-43723D01*
X45973Y-43723D01*
X46151Y-43545D01*
X50598Y-43545D01*
X50880Y-43826D01*
X50880Y-43875D01*
X50880Y-44050D01*
X50880Y-44324D01*
X50877Y-44326D01*
X50865Y-44358D01*
X50865Y-44391D01*
X50865Y-44941D01*
X50877Y-44973D01*
X50880Y-44975D01*
X50880Y-45074D01*
X50877Y-45076D01*
X50865Y-45108D01*
X50865Y-45141D01*
X50865Y-45691D01*
X50877Y-45723D01*
X50880Y-45725D01*
X50880Y-45824D01*
X50877Y-45826D01*
X50865Y-45858D01*
X50865Y-45891D01*
X50865Y-46441D01*
X50877Y-46473D01*
X50901Y-46497D01*
X50933Y-46510D01*
X50966Y-46510D01*
X50966Y-46510D01*
X50972Y-46538D01*
X51008Y-46591D01*
X51108Y-46691D01*
X51108Y-46700D01*
X51109Y-46707D01*
X51109Y-46834D01*
X51118Y-46855D01*
X51118Y-46976D01*
X51084Y-46976D01*
X50994Y-46976D01*
X50962Y-46989D01*
X50938Y-47013D01*
X50926Y-47044D01*
X50926Y-47054D01*
X50625Y-47054D01*
X50625Y-46439D01*
X50625Y-46410D01*
X50625Y-46193D01*
X50625Y-46106D01*
X50625Y-45889D01*
X50625Y-45860D01*
X50625Y-45689D01*
X50625Y-45660D01*
X50625Y-45443D01*
X50625Y-45356D01*
X50625Y-45139D01*
X50625Y-45110D01*
X50625Y-44939D01*
X50625Y-44910D01*
X50625Y-44693D01*
X50625Y-44606D01*
X50625Y-44389D01*
X50625Y-44360D01*
X50613Y-44332D01*
X50592Y-44311D01*
X50564Y-44300D01*
X50418Y-44300D01*
X50400Y-44318D01*
X50400Y-44625D01*
X50606Y-44625D01*
X50625Y-44606D01*
X50625Y-44693D01*
X50606Y-44675D01*
X50400Y-44675D01*
X50400Y-44981D01*
X50418Y-45000D01*
X50564Y-45000D01*
X50592Y-44988D01*
X50613Y-44967D01*
X50625Y-44939D01*
X50625Y-45110D01*
X50613Y-45082D01*
X50592Y-45061D01*
X50564Y-45050D01*
X50418Y-45050D01*
X50400Y-45068D01*
X50400Y-45375D01*
X50606Y-45375D01*
X50625Y-45356D01*
X50625Y-45443D01*
X50606Y-45425D01*
X50400Y-45425D01*
X50400Y-45731D01*
X50418Y-45750D01*
X50564Y-45750D01*
X50592Y-45738D01*
X50613Y-45717D01*
X50625Y-45689D01*
X50625Y-45860D01*
X50613Y-45832D01*
X50592Y-45811D01*
X50564Y-45800D01*
X50418Y-45800D01*
X50400Y-45818D01*
X50400Y-46125D01*
X50606Y-46125D01*
X50625Y-46106D01*
X50625Y-46193D01*
X50606Y-46175D01*
X50400Y-46175D01*
X50400Y-46481D01*
X50418Y-46500D01*
X50564Y-46500D01*
X50592Y-46488D01*
X50613Y-46467D01*
X50625Y-46439D01*
X50625Y-47054D01*
X50444Y-47054D01*
X50438Y-47055D01*
X50350Y-47055D01*
X50350Y-46481D01*
X50350Y-46175D01*
X50350Y-46125D01*
X50350Y-45818D01*
X50350Y-45731D01*
X50350Y-45425D01*
X50350Y-45375D01*
X50350Y-45068D01*
X50350Y-44981D01*
X50350Y-44675D01*
X50350Y-44625D01*
X50350Y-44318D01*
X50331Y-44300D01*
X50185Y-44300D01*
X50157Y-44311D01*
X50136Y-44332D01*
X50125Y-44360D01*
X50125Y-44389D01*
X50125Y-44606D01*
X50143Y-44625D01*
X50350Y-44625D01*
X50350Y-44675D01*
X50143Y-44675D01*
X50125Y-44693D01*
X50125Y-44910D01*
X50125Y-44939D01*
X50136Y-44967D01*
X50157Y-44988D01*
X50185Y-45000D01*
X50331Y-45000D01*
X50350Y-44981D01*
X50350Y-45068D01*
X50331Y-45050D01*
X50185Y-45050D01*
X50157Y-45061D01*
X50136Y-45082D01*
X50125Y-45110D01*
X50125Y-45139D01*
X50125Y-45356D01*
X50143Y-45375D01*
X50350Y-45375D01*
X50350Y-45425D01*
X50143Y-45425D01*
X50125Y-45443D01*
X50125Y-45660D01*
X50125Y-45689D01*
X50136Y-45717D01*
X50157Y-45738D01*
X50185Y-45750D01*
X50331Y-45750D01*
X50350Y-45731D01*
X50350Y-45818D01*
X50331Y-45800D01*
X50185Y-45800D01*
X50157Y-45811D01*
X50136Y-45832D01*
X50125Y-45860D01*
X50125Y-45889D01*
X50125Y-46106D01*
X50143Y-46125D01*
X50350Y-46125D01*
X50350Y-46175D01*
X50143Y-46175D01*
X50125Y-46193D01*
X50125Y-46410D01*
X50125Y-46439D01*
X50136Y-46467D01*
X50157Y-46488D01*
X50185Y-46500D01*
X50331Y-46500D01*
X50350Y-46481D01*
X50350Y-47055D01*
X49113Y-47055D01*
X49082Y-47068D01*
X49058Y-47092D01*
X49045Y-47123D01*
X49045Y-47157D01*
X49045Y-47543D01*
X49058Y-47574D01*
X49082Y-47598D01*
X49113Y-47611D01*
X49147Y-47611D01*
X50486Y-47611D01*
X50517Y-47598D01*
X50541Y-47574D01*
X50554Y-47543D01*
X50554Y-47509D01*
X50554Y-47384D01*
X50926Y-47384D01*
X50926Y-47393D01*
X50938Y-47424D01*
X50953Y-47439D01*
X50942Y-47439D01*
X50923Y-47458D01*
X50923Y-47539D01*
X50931Y-47539D01*
X50931Y-47588D01*
X50923Y-47588D01*
X50923Y-47615D01*
X50923Y-47669D01*
X50923Y-47696D01*
X50931Y-47696D01*
X50931Y-47745D01*
X50923Y-47745D01*
X50923Y-47773D01*
X50923Y-47826D01*
X50923Y-47854D01*
X50931Y-47854D01*
X50931Y-47903D01*
X50923Y-47903D01*
X50923Y-47930D01*
X50923Y-47984D01*
X50923Y-48011D01*
X50931Y-48011D01*
X50931Y-48060D01*
X50923Y-48060D01*
X50923Y-48141D01*
X50942Y-48160D01*
X50953Y-48160D01*
X50938Y-48175D01*
X50926Y-48206D01*
X50926Y-48215D01*
X50873Y-48215D01*
X50873Y-48141D01*
X50873Y-48060D01*
X50873Y-48011D01*
X50873Y-47984D01*
X50873Y-47930D01*
X50873Y-47903D01*
X50873Y-47854D01*
X50873Y-47826D01*
X50873Y-47773D01*
X50873Y-47745D01*
X50873Y-47696D01*
X50873Y-47669D01*
X50873Y-47615D01*
X50873Y-47588D01*
X50873Y-47539D01*
X50873Y-47458D01*
X50855Y-47439D01*
X50756Y-47439D01*
X50726Y-47439D01*
X50698Y-47450D01*
X50677Y-47472D01*
X50666Y-47499D01*
X50666Y-47520D01*
X50685Y-47539D01*
X50873Y-47539D01*
X50873Y-47588D01*
X50685Y-47588D01*
X50666Y-47607D01*
X50666Y-47627D01*
X50672Y-47642D01*
X50666Y-47657D01*
X50666Y-47677D01*
X50685Y-47696D01*
X50873Y-47696D01*
X50873Y-47745D01*
X50685Y-47745D01*
X50666Y-47764D01*
X50666Y-47785D01*
X50672Y-47800D01*
X50666Y-47814D01*
X50666Y-47835D01*
X50685Y-47854D01*
X50873Y-47854D01*
X50873Y-47903D01*
X50685Y-47903D01*
X50666Y-47922D01*
X50666Y-47942D01*
X50672Y-47957D01*
X50666Y-47972D01*
X50666Y-47992D01*
X50685Y-48011D01*
X50873Y-48011D01*
X50873Y-48060D01*
X50685Y-48060D01*
X50666Y-48079D01*
X50666Y-48100D01*
X50677Y-48127D01*
X50698Y-48149D01*
X50726Y-48160D01*
X50756Y-48160D01*
X50855Y-48160D01*
X50873Y-48141D01*
X50873Y-48215D01*
X50554Y-48215D01*
X50554Y-48056D01*
X50541Y-48025D01*
X50517Y-48001D01*
X50486Y-47988D01*
X50452Y-47988D01*
X49113Y-47988D01*
X49082Y-48001D01*
X49058Y-48025D01*
X49045Y-48056D01*
X49045Y-48090D01*
X49045Y-48476D01*
X49058Y-48507D01*
X49082Y-48531D01*
X49113Y-48544D01*
X49147Y-48544D01*
X50442Y-48544D01*
X50442Y-48544D01*
X50448Y-48545D01*
X50926Y-48545D01*
X50926Y-48555D01*
X50938Y-48586D01*
X50962Y-48610D01*
X50994Y-48623D01*
X51027Y-48623D01*
X51118Y-48623D01*
X51149Y-48610D01*
X51154Y-48605D01*
X51159Y-48610D01*
X51185Y-48620D01*
X51185Y-48800D01*
X51197Y-48863D01*
X51233Y-48916D01*
X51483Y-49166D01*
X51483Y-49166D01*
X51515Y-49198D01*
X51515Y-49641D01*
X51527Y-49673D01*
X51530Y-49675D01*
X51530Y-49824D01*
X51527Y-49826D01*
X51515Y-49858D01*
X51515Y-49891D01*
X51515Y-50441D01*
X51527Y-50473D01*
X51530Y-50475D01*
X51530Y-52223D01*
X51275Y-52478D01*
X51275Y-50439D01*
X51275Y-50410D01*
X51275Y-50193D01*
X51275Y-50106D01*
X51275Y-49889D01*
X51275Y-49860D01*
X51275Y-49639D01*
X51275Y-49610D01*
X51275Y-49393D01*
X51275Y-49306D01*
X51275Y-49089D01*
X51275Y-49060D01*
X51263Y-49032D01*
X51242Y-49011D01*
X51214Y-49000D01*
X51068Y-49000D01*
X51050Y-49018D01*
X51050Y-49325D01*
X51256Y-49325D01*
X51275Y-49306D01*
X51275Y-49393D01*
X51256Y-49375D01*
X51050Y-49375D01*
X51050Y-49681D01*
X51068Y-49700D01*
X51214Y-49700D01*
X51242Y-49688D01*
X51263Y-49667D01*
X51275Y-49639D01*
X51275Y-49860D01*
X51263Y-49832D01*
X51242Y-49811D01*
X51214Y-49800D01*
X51068Y-49800D01*
X51050Y-49818D01*
X51050Y-50125D01*
X51256Y-50125D01*
X51275Y-50106D01*
X51275Y-50193D01*
X51256Y-50175D01*
X51050Y-50175D01*
X51050Y-50481D01*
X51068Y-50500D01*
X51214Y-50500D01*
X51242Y-50488D01*
X51263Y-50467D01*
X51275Y-50439D01*
X51275Y-52478D01*
X51174Y-52579D01*
X51136Y-52579D01*
X51018Y-52627D01*
X51000Y-52646D01*
X51000Y-50481D01*
X51000Y-50175D01*
X51000Y-50125D01*
X51000Y-49818D01*
X51000Y-49681D01*
X51000Y-49375D01*
X51000Y-49325D01*
X51000Y-49018D01*
X50981Y-49000D01*
X50835Y-49000D01*
X50807Y-49011D01*
X50786Y-49032D01*
X50775Y-49060D01*
X50775Y-49089D01*
X50775Y-49306D01*
X50793Y-49325D01*
X51000Y-49325D01*
X51000Y-49375D01*
X50793Y-49375D01*
X50775Y-49393D01*
X50775Y-49610D01*
X50775Y-49639D01*
X50786Y-49667D01*
X50807Y-49688D01*
X50835Y-49700D01*
X50981Y-49700D01*
X51000Y-49681D01*
X51000Y-49818D01*
X50981Y-49800D01*
X50835Y-49800D01*
X50807Y-49811D01*
X50786Y-49832D01*
X50775Y-49860D01*
X50775Y-49889D01*
X50775Y-50106D01*
X50793Y-50125D01*
X51000Y-50125D01*
X51000Y-50175D01*
X50793Y-50175D01*
X50775Y-50193D01*
X50775Y-50410D01*
X50775Y-50439D01*
X50786Y-50467D01*
X50807Y-50488D01*
X50835Y-50500D01*
X50981Y-50500D01*
X51000Y-50481D01*
X51000Y-52646D01*
X50927Y-52718D01*
X50878Y-52836D01*
X50878Y-52964D01*
X50927Y-53082D01*
X50955Y-53109D01*
X50955Y-53990D01*
X50927Y-54017D01*
X50878Y-54135D01*
X50878Y-54263D01*
X50927Y-54381D01*
X51017Y-54471D01*
X51135Y-54520D01*
X51263Y-54520D01*
X51381Y-54472D01*
X51472Y-54381D01*
X51521Y-54263D01*
X51521Y-54135D01*
X51472Y-54017D01*
X51445Y-53990D01*
X51445Y-53109D01*
X51472Y-53082D01*
X51521Y-52964D01*
X51521Y-52925D01*
X51948Y-52498D01*
X51948Y-52498D01*
X51948Y-52498D01*
X52001Y-52419D01*
X52020Y-52325D01*
X52020Y-52325D01*
X52020Y-52325D01*
X52020Y-50475D01*
X52022Y-50473D01*
X52035Y-50441D01*
X52035Y-50408D01*
X52035Y-49858D01*
X52022Y-49826D01*
X52020Y-49824D01*
X52020Y-49675D01*
X52022Y-49673D01*
X52035Y-49641D01*
X52035Y-49608D01*
X52035Y-49058D01*
X52022Y-49026D01*
X51998Y-49002D01*
X51966Y-48990D01*
X51933Y-48990D01*
X51773Y-48990D01*
X51716Y-48933D01*
X51716Y-48933D01*
X51515Y-48731D01*
X51515Y-48622D01*
X51543Y-48610D01*
X51555Y-48598D01*
X51559Y-48601D01*
X51586Y-48613D01*
X51605Y-48613D01*
X51624Y-48594D01*
X51624Y-48405D01*
X51613Y-48405D01*
X51613Y-48355D01*
X51624Y-48355D01*
X51624Y-48347D01*
X51669Y-48347D01*
X51669Y-48355D01*
X51679Y-48355D01*
X51679Y-48375D01*
X51678Y-48380D01*
X51679Y-48385D01*
X51679Y-48405D01*
X51669Y-48405D01*
X51669Y-48594D01*
X51688Y-48613D01*
X51707Y-48613D01*
X51734Y-48601D01*
X51738Y-48598D01*
X51750Y-48610D01*
X51781Y-48623D01*
X51815Y-48623D01*
X51905Y-48623D01*
X51937Y-48610D01*
X51961Y-48586D01*
X51973Y-48555D01*
X51973Y-48545D01*
X52263Y-48545D01*
X52272Y-48566D01*
X52296Y-48590D01*
X52327Y-48603D01*
X52361Y-48603D01*
X52518Y-48603D01*
X52549Y-48590D01*
X52573Y-48566D01*
X52586Y-48534D01*
X52586Y-48501D01*
X52586Y-48407D01*
X52587Y-48400D01*
X52586Y-48392D01*
X52586Y-48265D01*
X52573Y-48233D01*
X52549Y-48209D01*
X52530Y-48202D01*
X52530Y-46982D01*
X52530Y-46953D01*
X52530Y-46893D01*
X52530Y-46806D01*
X52530Y-46746D01*
X52530Y-46717D01*
X52519Y-46689D01*
X52497Y-46668D01*
X52470Y-46657D01*
X52420Y-46657D01*
X52402Y-46675D01*
X52402Y-46825D01*
X52511Y-46825D01*
X52530Y-46806D01*
X52530Y-46893D01*
X52511Y-46875D01*
X52402Y-46875D01*
X52402Y-47024D01*
X52420Y-47043D01*
X52470Y-47043D01*
X52497Y-47031D01*
X52519Y-47010D01*
X52530Y-46982D01*
X52530Y-48202D01*
X52518Y-48197D01*
X52484Y-48197D01*
X52352Y-48197D01*
X52352Y-47024D01*
X52352Y-46875D01*
X52352Y-46825D01*
X52352Y-46675D01*
X52333Y-46657D01*
X52283Y-46657D01*
X52256Y-46668D01*
X52234Y-46689D01*
X52223Y-46717D01*
X52223Y-46746D01*
X52223Y-46806D01*
X52242Y-46825D01*
X52352Y-46825D01*
X52352Y-46875D01*
X52242Y-46875D01*
X52223Y-46893D01*
X52223Y-46953D01*
X52223Y-46982D01*
X52234Y-47010D01*
X52256Y-47031D01*
X52283Y-47043D01*
X52333Y-47043D01*
X52352Y-47024D01*
X52352Y-48197D01*
X52327Y-48197D01*
X52296Y-48209D01*
X52290Y-48215D01*
X52233Y-48215D01*
X52233Y-48100D01*
X52233Y-48079D01*
X52233Y-47992D01*
X52233Y-47972D01*
X52227Y-47957D01*
X52233Y-47942D01*
X52233Y-47922D01*
X52233Y-47835D01*
X52233Y-47814D01*
X52227Y-47800D01*
X52233Y-47785D01*
X52233Y-47764D01*
X52233Y-47677D01*
X52233Y-47657D01*
X52227Y-47642D01*
X52233Y-47627D01*
X52233Y-47607D01*
X52233Y-47520D01*
X52233Y-47499D01*
X52222Y-47472D01*
X52201Y-47450D01*
X52173Y-47439D01*
X52143Y-47439D01*
X52044Y-47439D01*
X52026Y-47458D01*
X52026Y-47539D01*
X52214Y-47539D01*
X52233Y-47520D01*
X52233Y-47607D01*
X52214Y-47588D01*
X52026Y-47588D01*
X52026Y-47615D01*
X52026Y-47669D01*
X52026Y-47696D01*
X52214Y-47696D01*
X52233Y-47677D01*
X52233Y-47764D01*
X52214Y-47745D01*
X52026Y-47745D01*
X52026Y-47773D01*
X52026Y-47826D01*
X52026Y-47854D01*
X52214Y-47854D01*
X52233Y-47835D01*
X52233Y-47922D01*
X52214Y-47903D01*
X52026Y-47903D01*
X52026Y-47930D01*
X52026Y-47984D01*
X52026Y-48011D01*
X52214Y-48011D01*
X52233Y-47992D01*
X52233Y-48079D01*
X52214Y-48060D01*
X52026Y-48060D01*
X52026Y-48141D01*
X52044Y-48160D01*
X52143Y-48160D01*
X52173Y-48160D01*
X52201Y-48149D01*
X52222Y-48127D01*
X52233Y-48100D01*
X52233Y-48215D01*
X51973Y-48215D01*
X51973Y-48206D01*
X51961Y-48175D01*
X51946Y-48160D01*
X51957Y-48160D01*
X51976Y-48141D01*
X51976Y-48060D01*
X51968Y-48060D01*
X51968Y-48011D01*
X51976Y-48011D01*
X51976Y-47984D01*
X51976Y-47930D01*
X51976Y-47903D01*
X51968Y-47903D01*
X51968Y-47854D01*
X51976Y-47854D01*
X51976Y-47826D01*
X51976Y-47773D01*
X51976Y-47745D01*
X51968Y-47745D01*
X51968Y-47696D01*
X51976Y-47696D01*
X51976Y-47669D01*
X51976Y-47615D01*
X51976Y-47588D01*
X51968Y-47588D01*
X51968Y-47539D01*
X51976Y-47539D01*
X51976Y-47458D01*
X51957Y-47439D01*
X51946Y-47439D01*
X51961Y-47424D01*
X51973Y-47393D01*
X51973Y-47359D01*
X51973Y-47243D01*
X51978Y-47219D01*
X51978Y-47179D01*
X51978Y-47085D01*
X52010Y-47053D01*
X52118Y-47053D01*
X52149Y-47040D01*
X52173Y-47016D01*
X52186Y-46984D01*
X52186Y-46951D01*
X52186Y-46715D01*
X52180Y-46700D01*
X52180Y-46482D01*
X52180Y-46453D01*
X52180Y-46393D01*
X52180Y-46306D01*
X52180Y-46246D01*
X52180Y-46217D01*
X52169Y-46189D01*
X52154Y-46175D01*
X52169Y-46160D01*
X52180Y-46132D01*
X52180Y-46103D01*
X52180Y-46043D01*
X52180Y-45956D01*
X52180Y-45896D01*
X52180Y-45867D01*
X52169Y-45839D01*
X52147Y-45818D01*
X52120Y-45807D01*
X52070Y-45807D01*
X52052Y-45825D01*
X52052Y-45975D01*
X52161Y-45975D01*
X52180Y-45956D01*
X52180Y-46043D01*
X52161Y-46025D01*
X52052Y-46025D01*
X52052Y-46174D01*
X52052Y-46175D01*
X52052Y-46175D01*
X52052Y-46325D01*
X52161Y-46325D01*
X52180Y-46306D01*
X52180Y-46393D01*
X52161Y-46375D01*
X52052Y-46375D01*
X52052Y-46524D01*
X52070Y-46543D01*
X52120Y-46543D01*
X52147Y-46531D01*
X52169Y-46510D01*
X52180Y-46482D01*
X52180Y-46700D01*
X52173Y-46683D01*
X52149Y-46659D01*
X52118Y-46647D01*
X52084Y-46647D01*
X52002Y-46647D01*
X52002Y-46524D01*
X52002Y-46375D01*
X52002Y-46325D01*
X52002Y-46175D01*
X52001Y-46175D01*
X52002Y-46174D01*
X52002Y-46025D01*
X52002Y-45975D01*
X52002Y-45825D01*
X51983Y-45807D01*
X51933Y-45807D01*
X51906Y-45818D01*
X51884Y-45839D01*
X51873Y-45867D01*
X51873Y-45896D01*
X51873Y-45956D01*
X51892Y-45975D01*
X52002Y-45975D01*
X52002Y-46025D01*
X51892Y-46025D01*
X51873Y-46043D01*
X51873Y-46103D01*
X51873Y-46132D01*
X51884Y-46160D01*
X51899Y-46175D01*
X51884Y-46189D01*
X51873Y-46217D01*
X51873Y-46246D01*
X51873Y-46306D01*
X51892Y-46325D01*
X52002Y-46325D01*
X52002Y-46375D01*
X51892Y-46375D01*
X51873Y-46393D01*
X51873Y-46453D01*
X51873Y-46482D01*
X51884Y-46510D01*
X51906Y-46531D01*
X51933Y-46543D01*
X51983Y-46543D01*
X52002Y-46524D01*
X52002Y-46647D01*
X51927Y-46647D01*
X51896Y-46659D01*
X51872Y-46683D01*
X51859Y-46715D01*
X51859Y-46748D01*
X51859Y-46822D01*
X51748Y-46933D01*
X51718Y-46977D01*
X51716Y-46990D01*
X51707Y-46986D01*
X51688Y-46986D01*
X51669Y-47005D01*
X51669Y-47194D01*
X51679Y-47194D01*
X51679Y-47244D01*
X51669Y-47244D01*
X51669Y-47252D01*
X51624Y-47252D01*
X51624Y-47244D01*
X51613Y-47244D01*
X51613Y-47194D01*
X51624Y-47194D01*
X51624Y-47005D01*
X51605Y-46986D01*
X51604Y-46986D01*
X51687Y-46903D01*
X51722Y-46903D01*
X51753Y-46890D01*
X51777Y-46866D01*
X51790Y-46834D01*
X51790Y-46801D01*
X51790Y-46565D01*
X51782Y-46546D01*
X51799Y-46540D01*
X51823Y-46516D01*
X51836Y-46484D01*
X51836Y-46451D01*
X51836Y-46215D01*
X51823Y-46183D01*
X51814Y-46175D01*
X51823Y-46166D01*
X51836Y-46134D01*
X51836Y-46101D01*
X51836Y-45865D01*
X51823Y-45833D01*
X51799Y-45809D01*
X51768Y-45797D01*
X51734Y-45797D01*
X51577Y-45797D01*
X51546Y-45809D01*
X51522Y-45833D01*
X51509Y-45865D01*
X51509Y-45898D01*
X51509Y-46134D01*
X51522Y-46166D01*
X51531Y-46174D01*
X51522Y-46183D01*
X51509Y-46215D01*
X51509Y-46248D01*
X51509Y-46333D01*
X51502Y-46344D01*
X51492Y-46396D01*
X51492Y-46518D01*
X51476Y-46533D01*
X51463Y-46565D01*
X51463Y-46598D01*
X51463Y-46745D01*
X51436Y-46772D01*
X51436Y-46707D01*
X51438Y-46700D01*
X51438Y-46623D01*
X51436Y-46615D01*
X51436Y-46615D01*
X51436Y-46565D01*
X51423Y-46533D01*
X51399Y-46509D01*
X51388Y-46505D01*
X51364Y-46480D01*
X51372Y-46473D01*
X51385Y-46441D01*
X51385Y-46408D01*
X51385Y-45858D01*
X51372Y-45826D01*
X51370Y-45824D01*
X51370Y-45725D01*
X51372Y-45723D01*
X51383Y-45695D01*
X52598Y-45695D01*
X54126Y-47223D01*
X54126Y-47223D01*
X54126Y-47223D01*
X54206Y-47276D01*
X54300Y-47295D01*
X54300Y-47295D01*
X54300Y-47295D01*
X54535Y-47295D01*
X54535Y-47304D01*
X54563Y-47372D01*
X54615Y-47424D01*
X54683Y-47453D01*
X54707Y-47453D01*
X53925Y-48235D01*
X52928Y-48235D01*
X52927Y-48233D01*
X52903Y-48209D01*
X52872Y-48197D01*
X52838Y-48197D01*
X52681Y-48197D01*
X52650Y-48209D01*
X52626Y-48233D01*
X52613Y-48265D01*
X52613Y-48298D01*
X52613Y-48392D01*
X52612Y-48400D01*
X52613Y-48407D01*
X52613Y-48534D01*
X52626Y-48566D01*
X52650Y-48590D01*
X52681Y-48603D01*
X52715Y-48603D01*
X52872Y-48603D01*
X52903Y-48590D01*
X52927Y-48566D01*
X52928Y-48565D01*
X53993Y-48565D01*
X53993Y-48564D01*
X54056Y-48552D01*
X54056Y-48552D01*
X54110Y-48516D01*
X55217Y-47409D01*
X55449Y-47409D01*
X55465Y-47424D01*
X55533Y-47453D01*
X55606Y-47453D01*
X55674Y-47425D01*
X55726Y-47373D01*
X55755Y-47305D01*
X55755Y-47231D01*
X55727Y-47163D01*
X55675Y-47111D01*
X55607Y-47083D01*
X55582Y-47083D01*
X55575Y-47080D01*
X55552Y-47080D01*
X55546Y-47079D01*
X55388Y-47079D01*
X55394Y-47050D01*
X55387Y-47015D01*
X55455Y-47015D01*
X55465Y-47024D01*
X55533Y-47053D01*
X55606Y-47053D01*
X55674Y-47025D01*
X55726Y-46973D01*
X55755Y-46905D01*
X55755Y-46831D01*
X55755Y-46431D01*
X55755Y-46031D01*
X55727Y-45963D01*
X55675Y-45911D01*
X55607Y-45883D01*
X55533Y-45883D01*
X55497Y-45897D01*
X55149Y-45897D01*
X54481Y-45897D01*
X53116Y-44533D01*
X53116Y-44533D01*
X53116Y-44533D01*
X52916Y-44333D01*
X52863Y-44297D01*
X52800Y-44285D01*
X52586Y-44285D01*
X52635Y-44265D01*
X52900Y-44265D01*
X53031Y-44265D01*
X53033Y-44266D01*
X53033Y-44266D01*
X53033Y-44266D01*
X54552Y-45785D01*
X54552Y-45785D01*
X54606Y-45821D01*
X54669Y-45834D01*
X55149Y-45834D01*
X55487Y-45834D01*
X55533Y-45853D01*
X55606Y-45853D01*
X55674Y-45825D01*
X55726Y-45773D01*
X55755Y-45705D01*
X55755Y-45631D01*
X55755Y-45231D01*
X55727Y-45163D01*
X55675Y-45111D01*
X55631Y-45093D01*
X55674Y-45075D01*
X55726Y-45023D01*
X55755Y-44955D01*
X55755Y-44881D01*
X55755Y-44481D01*
X55755Y-44081D01*
X55755Y-43681D01*
X55755Y-43281D01*
X55755Y-42881D01*
X55727Y-42813D01*
X55675Y-42761D01*
X55607Y-42733D01*
X55533Y-42733D01*
X55496Y-42748D01*
X55149Y-42748D01*
X55143Y-42749D01*
X54723Y-42749D01*
X54692Y-42762D01*
X54668Y-42786D01*
X54655Y-42817D01*
X54655Y-42851D01*
X54655Y-43009D01*
X54668Y-43040D01*
X54692Y-43064D01*
X54723Y-43077D01*
X54757Y-43077D01*
X55143Y-43077D01*
X55149Y-43078D01*
X55473Y-43078D01*
X55533Y-43103D01*
X55606Y-43103D01*
X55674Y-43075D01*
X55726Y-43023D01*
X55755Y-42955D01*
X55755Y-42881D01*
X55755Y-43281D01*
X55727Y-43213D01*
X55675Y-43161D01*
X55607Y-43133D01*
X55533Y-43133D01*
X55511Y-43142D01*
X55149Y-43142D01*
X55143Y-43143D01*
X54723Y-43143D01*
X54692Y-43156D01*
X54668Y-43180D01*
X54655Y-43211D01*
X54655Y-43245D01*
X54655Y-43402D01*
X54668Y-43433D01*
X54692Y-43457D01*
X54723Y-43470D01*
X54757Y-43470D01*
X55143Y-43470D01*
X55149Y-43472D01*
X55462Y-43472D01*
X55465Y-43474D01*
X55533Y-43503D01*
X55606Y-43503D01*
X55674Y-43475D01*
X55726Y-43423D01*
X55755Y-43355D01*
X55755Y-43281D01*
X55755Y-43681D01*
X55727Y-43613D01*
X55675Y-43561D01*
X55607Y-43533D01*
X55533Y-43533D01*
X55526Y-43535D01*
X55149Y-43535D01*
X55143Y-43537D01*
X54723Y-43537D01*
X54692Y-43549D01*
X54668Y-43573D01*
X54655Y-43605D01*
X54655Y-43638D01*
X54655Y-43796D01*
X54668Y-43827D01*
X54692Y-43851D01*
X54723Y-43864D01*
X54757Y-43864D01*
X55143Y-43864D01*
X55149Y-43865D01*
X55456Y-43865D01*
X55465Y-43874D01*
X55533Y-43903D01*
X55606Y-43903D01*
X55674Y-43875D01*
X55726Y-43823D01*
X55755Y-43755D01*
X55755Y-43681D01*
X55755Y-44081D01*
X55727Y-44013D01*
X55675Y-43961D01*
X55607Y-43933D01*
X55581Y-43933D01*
X55575Y-43930D01*
X55552Y-43930D01*
X55546Y-43929D01*
X55149Y-43929D01*
X55143Y-43930D01*
X54723Y-43930D01*
X54692Y-43943D01*
X54668Y-43967D01*
X54655Y-43998D01*
X54655Y-44032D01*
X54655Y-44190D01*
X54668Y-44221D01*
X54692Y-44245D01*
X54723Y-44258D01*
X54757Y-44258D01*
X55143Y-44258D01*
X55149Y-44259D01*
X55449Y-44259D01*
X55465Y-44274D01*
X55533Y-44303D01*
X55606Y-44303D01*
X55674Y-44275D01*
X55726Y-44223D01*
X55755Y-44155D01*
X55755Y-44081D01*
X55755Y-44481D01*
X55727Y-44413D01*
X55675Y-44361D01*
X55607Y-44333D01*
X55596Y-44333D01*
X55575Y-44324D01*
X55546Y-44324D01*
X55540Y-44323D01*
X55149Y-44323D01*
X55143Y-44324D01*
X54723Y-44324D01*
X54692Y-44337D01*
X54668Y-44361D01*
X54655Y-44392D01*
X54655Y-44426D01*
X54655Y-44583D01*
X54668Y-44615D01*
X54692Y-44638D01*
X54723Y-44651D01*
X54757Y-44651D01*
X55143Y-44651D01*
X55149Y-44653D01*
X55443Y-44653D01*
X55465Y-44674D01*
X55533Y-44703D01*
X55606Y-44703D01*
X55674Y-44675D01*
X55726Y-44623D01*
X55755Y-44555D01*
X55755Y-44481D01*
X55755Y-44881D01*
X55727Y-44813D01*
X55675Y-44761D01*
X55610Y-44734D01*
X55607Y-44731D01*
X55575Y-44718D01*
X55542Y-44718D01*
X55540Y-44718D01*
X55533Y-44716D01*
X55149Y-44716D01*
X55143Y-44718D01*
X54723Y-44718D01*
X54692Y-44731D01*
X54668Y-44755D01*
X54655Y-44786D01*
X54655Y-44820D01*
X54655Y-44977D01*
X54668Y-45008D01*
X54692Y-45032D01*
X54723Y-45045D01*
X54757Y-45045D01*
X55143Y-45045D01*
X55149Y-45046D01*
X55437Y-45046D01*
X55465Y-45074D01*
X55509Y-45093D01*
X55466Y-45110D01*
X55149Y-45110D01*
X55143Y-45111D01*
X54723Y-45111D01*
X54692Y-45124D01*
X54668Y-45148D01*
X54655Y-45179D01*
X54655Y-45213D01*
X54655Y-45371D01*
X54668Y-45402D01*
X54692Y-45426D01*
X54723Y-45439D01*
X54757Y-45439D01*
X55143Y-45439D01*
X55149Y-45440D01*
X55503Y-45440D01*
X55533Y-45453D01*
X55606Y-45453D01*
X55674Y-45425D01*
X55726Y-45373D01*
X55755Y-45305D01*
X55755Y-45231D01*
X55755Y-45631D01*
X55727Y-45563D01*
X55675Y-45511D01*
X55607Y-45483D01*
X55533Y-45483D01*
X55482Y-45504D01*
X55149Y-45504D01*
X54737Y-45504D01*
X53266Y-44033D01*
X53266Y-44033D01*
X53266Y-44033D01*
X53216Y-43983D01*
X53163Y-43947D01*
X53100Y-43935D01*
X52900Y-43935D01*
X52635Y-43935D01*
X52586Y-43915D01*
X52513Y-43914D01*
X52445Y-43943D01*
X52393Y-43995D01*
X52365Y-44063D01*
X52364Y-44136D01*
X52393Y-44204D01*
X52445Y-44256D01*
X52513Y-44284D01*
X52549Y-44285D01*
X52418Y-44285D01*
X51826Y-43693D01*
X51806Y-43645D01*
X51754Y-43593D01*
X51686Y-43565D01*
X51613Y-43564D01*
X51545Y-43593D01*
X51493Y-43645D01*
X51465Y-43713D01*
X51464Y-43786D01*
X51493Y-43854D01*
X51545Y-43906D01*
X51593Y-43926D01*
X52233Y-44566D01*
X52265Y-44588D01*
X52286Y-44602D01*
X52286Y-44602D01*
X52350Y-44615D01*
X52731Y-44615D01*
X52883Y-44766D01*
X52883Y-44766D01*
X52883Y-44766D01*
X54296Y-46179D01*
X54296Y-46179D01*
X54349Y-46215D01*
X54412Y-46227D01*
X55149Y-46227D01*
X55472Y-46227D01*
X55533Y-46253D01*
X55606Y-46253D01*
X55674Y-46225D01*
X55726Y-46173D01*
X55755Y-46105D01*
X55755Y-46031D01*
X55755Y-46431D01*
X55727Y-46363D01*
X55675Y-46311D01*
X55607Y-46283D01*
X55533Y-46283D01*
X55512Y-46291D01*
X55149Y-46291D01*
X55143Y-46292D01*
X54723Y-46292D01*
X54692Y-46305D01*
X54668Y-46329D01*
X54655Y-46361D01*
X54655Y-46394D01*
X54655Y-46552D01*
X54668Y-46583D01*
X54692Y-46607D01*
X54723Y-46620D01*
X54757Y-46620D01*
X55143Y-46620D01*
X55149Y-46621D01*
X55461Y-46621D01*
X55465Y-46624D01*
X55533Y-46653D01*
X55606Y-46653D01*
X55674Y-46625D01*
X55726Y-46573D01*
X55755Y-46505D01*
X55755Y-46431D01*
X55755Y-46831D01*
X55727Y-46763D01*
X55675Y-46711D01*
X55607Y-46683D01*
X55533Y-46683D01*
X55527Y-46685D01*
X55149Y-46685D01*
X54762Y-46685D01*
X54757Y-46683D01*
X54683Y-46683D01*
X54615Y-46711D01*
X54563Y-46763D01*
X54545Y-46805D01*
X54401Y-46805D01*
X52873Y-45276D01*
X52793Y-45223D01*
X52700Y-45204D01*
X52699Y-45205D01*
X51385Y-45205D01*
X51385Y-45108D01*
X51372Y-45076D01*
X51370Y-45074D01*
X51370Y-44975D01*
X51372Y-44973D01*
X51385Y-44941D01*
X51385Y-44908D01*
X51385Y-44358D01*
X51372Y-44326D01*
X51370Y-44324D01*
X51370Y-44050D01*
X51370Y-43875D01*
X51370Y-43700D01*
X51370Y-43550D01*
X51370Y-43526D01*
X51423Y-43473D01*
X51423Y-43473D01*
X51423Y-43473D01*
X53951Y-40945D01*
X56848Y-40945D01*
X56955Y-41051D01*
X56955Y-41898D01*
X56675Y-42177D01*
X56675Y-41768D01*
X56675Y-41735D01*
X56675Y-41223D01*
X56662Y-41192D01*
X56638Y-41168D01*
X56607Y-41155D01*
X56573Y-41155D01*
X55235Y-41155D01*
X55203Y-41168D01*
X55179Y-41192D01*
X55166Y-41223D01*
X55166Y-41257D01*
X55166Y-41768D01*
X55179Y-41800D01*
X55203Y-41824D01*
X55235Y-41836D01*
X55268Y-41836D01*
X55708Y-41836D01*
X55632Y-41912D01*
X55580Y-42038D01*
X55580Y-42173D01*
X55632Y-42299D01*
X55727Y-42395D01*
X55853Y-42447D01*
X55988Y-42447D01*
X56114Y-42395D01*
X56210Y-42299D01*
X56262Y-42174D01*
X56262Y-42038D01*
X56210Y-41913D01*
X56134Y-41836D01*
X56607Y-41836D01*
X56638Y-41824D01*
X56662Y-41800D01*
X56675Y-41768D01*
X56675Y-42177D01*
X56519Y-42333D01*
X56466Y-42413D01*
X56447Y-42507D01*
X56447Y-42507D01*
X56447Y-42551D01*
X56351Y-42551D01*
X56307Y-42533D01*
X56233Y-42533D01*
X56165Y-42561D01*
X56113Y-42613D01*
X56085Y-42681D01*
X56085Y-42754D01*
X56113Y-42822D01*
X56165Y-42874D01*
X56233Y-42903D01*
X56306Y-42903D01*
X56359Y-42881D01*
X56447Y-42881D01*
X56447Y-42945D01*
X56336Y-42945D01*
X56307Y-42933D01*
X56233Y-42933D01*
X56165Y-42961D01*
X56113Y-43013D01*
X56085Y-43081D01*
X56085Y-43154D01*
X56113Y-43222D01*
X56165Y-43274D01*
X56233Y-43303D01*
X56306Y-43303D01*
X56374Y-43275D01*
X56447Y-43275D01*
X56447Y-43338D01*
X56320Y-43338D01*
X56307Y-43333D01*
X56233Y-43333D01*
X56165Y-43361D01*
X56113Y-43413D01*
X56085Y-43481D01*
X56085Y-43554D01*
X56113Y-43622D01*
X56165Y-43674D01*
X56233Y-43703D01*
X56306Y-43703D01*
X56374Y-43675D01*
X56380Y-43668D01*
X56514Y-43668D01*
X56519Y-43677D01*
X56599Y-43730D01*
X56667Y-43743D01*
X56667Y-43762D01*
X56649Y-43743D01*
X56298Y-43743D01*
X56268Y-43743D01*
X56240Y-43755D01*
X56219Y-43776D01*
X56208Y-43803D01*
X56208Y-43853D01*
X56227Y-43872D01*
X56667Y-43872D01*
X56667Y-43864D01*
X56717Y-43864D01*
X56717Y-43872D01*
X57158Y-43872D01*
X57177Y-43853D01*
X57177Y-43803D01*
X57165Y-43776D01*
X57144Y-43755D01*
X57117Y-43743D01*
X57087Y-43743D01*
X56736Y-43743D01*
X56717Y-43762D01*
X56717Y-43743D01*
X56786Y-43730D01*
X56866Y-43677D01*
X56871Y-43668D01*
X57009Y-43668D01*
X57015Y-43674D01*
X57083Y-43703D01*
X57156Y-43703D01*
X57224Y-43675D01*
X57276Y-43623D01*
X57305Y-43555D01*
X57305Y-43481D01*
X57277Y-43413D01*
X57225Y-43361D01*
X57157Y-43333D01*
X57083Y-43333D01*
X57069Y-43338D01*
X56937Y-43338D01*
X56937Y-43275D01*
X57016Y-43275D01*
X57083Y-43303D01*
X57156Y-43303D01*
X57224Y-43275D01*
X57276Y-43223D01*
X57305Y-43155D01*
X57305Y-43081D01*
X57277Y-43013D01*
X57225Y-42961D01*
X57157Y-42933D01*
X57083Y-42933D01*
X57054Y-42945D01*
X56937Y-42945D01*
X56937Y-42881D01*
X57031Y-42881D01*
X57083Y-42903D01*
X57156Y-42903D01*
X57224Y-42875D01*
X57276Y-42823D01*
X57305Y-42755D01*
X57305Y-42681D01*
X57277Y-42613D01*
X57225Y-42561D01*
X57157Y-42533D01*
X57083Y-42533D01*
X57038Y-42551D01*
X56994Y-42551D01*
X57373Y-42173D01*
X57426Y-42093D01*
X57445Y-42000D01*
X57445Y-42000D01*
X57445Y-52678D01*
X57305Y-52817D01*
X57305Y-46231D01*
X57305Y-45831D01*
X57277Y-45763D01*
X57225Y-45711D01*
X57187Y-45695D01*
X57187Y-45568D01*
X57187Y-45534D01*
X57187Y-45376D01*
X57187Y-45174D01*
X57187Y-45140D01*
X57187Y-44983D01*
X57177Y-44958D01*
X57177Y-44778D01*
X57177Y-44728D01*
X57177Y-44641D01*
X57177Y-44591D01*
X57177Y-44384D01*
X57177Y-44335D01*
X57177Y-44247D01*
X57177Y-44197D01*
X57177Y-43991D01*
X57177Y-43941D01*
X57158Y-43922D01*
X56717Y-43922D01*
X56717Y-44032D01*
X56736Y-44051D01*
X57087Y-44051D01*
X57117Y-44051D01*
X57144Y-44039D01*
X57165Y-44018D01*
X57177Y-43991D01*
X57177Y-44197D01*
X57165Y-44170D01*
X57144Y-44149D01*
X57117Y-44137D01*
X57087Y-44137D01*
X56736Y-44137D01*
X56717Y-44156D01*
X56717Y-44266D01*
X57158Y-44266D01*
X57177Y-44247D01*
X57177Y-44335D01*
X57158Y-44316D01*
X56717Y-44316D01*
X56717Y-44426D01*
X56736Y-44445D01*
X57087Y-44445D01*
X57117Y-44445D01*
X57144Y-44433D01*
X57165Y-44412D01*
X57177Y-44384D01*
X57177Y-44591D01*
X57165Y-44563D01*
X57144Y-44542D01*
X57117Y-44531D01*
X57087Y-44531D01*
X56736Y-44531D01*
X56717Y-44550D01*
X56717Y-44660D01*
X57158Y-44660D01*
X57177Y-44641D01*
X57177Y-44728D01*
X57158Y-44710D01*
X56717Y-44710D01*
X56717Y-44820D01*
X56736Y-44838D01*
X57087Y-44838D01*
X57117Y-44838D01*
X57144Y-44827D01*
X57165Y-44806D01*
X57177Y-44778D01*
X57177Y-44958D01*
X57174Y-44951D01*
X57150Y-44927D01*
X57119Y-44915D01*
X57085Y-44915D01*
X56699Y-44915D01*
X56692Y-44913D01*
X56667Y-44913D01*
X56667Y-44820D01*
X56667Y-44710D01*
X56667Y-44660D01*
X56667Y-44550D01*
X56667Y-44426D01*
X56667Y-44316D01*
X56667Y-44266D01*
X56667Y-44156D01*
X56667Y-44032D01*
X56667Y-43922D01*
X56227Y-43922D01*
X56208Y-43941D01*
X56208Y-43991D01*
X56219Y-44018D01*
X56240Y-44039D01*
X56268Y-44051D01*
X56298Y-44051D01*
X56649Y-44051D01*
X56667Y-44032D01*
X56667Y-44156D01*
X56649Y-44137D01*
X56298Y-44137D01*
X56268Y-44137D01*
X56240Y-44149D01*
X56219Y-44170D01*
X56208Y-44197D01*
X56208Y-44247D01*
X56227Y-44266D01*
X56667Y-44266D01*
X56667Y-44316D01*
X56227Y-44316D01*
X56208Y-44335D01*
X56208Y-44384D01*
X56219Y-44412D01*
X56240Y-44433D01*
X56268Y-44445D01*
X56298Y-44445D01*
X56649Y-44445D01*
X56667Y-44426D01*
X56667Y-44550D01*
X56649Y-44531D01*
X56298Y-44531D01*
X56268Y-44531D01*
X56240Y-44542D01*
X56219Y-44563D01*
X56208Y-44591D01*
X56208Y-44641D01*
X56227Y-44660D01*
X56667Y-44660D01*
X56667Y-44710D01*
X56227Y-44710D01*
X56208Y-44728D01*
X56208Y-44778D01*
X56219Y-44806D01*
X56240Y-44827D01*
X56268Y-44838D01*
X56298Y-44838D01*
X56649Y-44838D01*
X56667Y-44820D01*
X56667Y-44913D01*
X56377Y-44913D01*
X56375Y-44911D01*
X56307Y-44883D01*
X56233Y-44883D01*
X56165Y-44911D01*
X56113Y-44963D01*
X56085Y-45031D01*
X56085Y-45104D01*
X56113Y-45172D01*
X56165Y-45224D01*
X56233Y-45253D01*
X56306Y-45253D01*
X56329Y-45243D01*
X56692Y-45243D01*
X56699Y-45242D01*
X57119Y-45242D01*
X57150Y-45229D01*
X57174Y-45205D01*
X57187Y-45174D01*
X57187Y-45376D01*
X57174Y-45345D01*
X57150Y-45321D01*
X57119Y-45308D01*
X57085Y-45308D01*
X56699Y-45308D01*
X56692Y-45307D01*
X56365Y-45307D01*
X56307Y-45283D01*
X56233Y-45283D01*
X56165Y-45311D01*
X56113Y-45363D01*
X56085Y-45431D01*
X56085Y-45504D01*
X56113Y-45572D01*
X56165Y-45624D01*
X56233Y-45653D01*
X56306Y-45653D01*
X56344Y-45637D01*
X56692Y-45637D01*
X56699Y-45636D01*
X57119Y-45636D01*
X57150Y-45623D01*
X57174Y-45599D01*
X57187Y-45568D01*
X57187Y-45695D01*
X57157Y-45683D01*
X57083Y-45683D01*
X57039Y-45701D01*
X56692Y-45701D01*
X56686Y-45702D01*
X56266Y-45702D01*
X56235Y-45715D01*
X56211Y-45739D01*
X56198Y-45770D01*
X56198Y-45804D01*
X56198Y-45961D01*
X56211Y-45993D01*
X56235Y-46016D01*
X56266Y-46029D01*
X56300Y-46029D01*
X56686Y-46029D01*
X56692Y-46031D01*
X57030Y-46031D01*
X57083Y-46053D01*
X57156Y-46053D01*
X57224Y-46025D01*
X57276Y-45973D01*
X57305Y-45905D01*
X57305Y-45831D01*
X57305Y-46231D01*
X57277Y-46163D01*
X57225Y-46111D01*
X57157Y-46083D01*
X57083Y-46083D01*
X57054Y-46094D01*
X56692Y-46094D01*
X56686Y-46096D01*
X56266Y-46096D01*
X56235Y-46109D01*
X56211Y-46132D01*
X56198Y-46164D01*
X56198Y-46198D01*
X56198Y-46355D01*
X56211Y-46386D01*
X56235Y-46410D01*
X56266Y-46423D01*
X56300Y-46423D01*
X56686Y-46423D01*
X56692Y-46424D01*
X57015Y-46424D01*
X57015Y-46424D01*
X57083Y-46453D01*
X57156Y-46453D01*
X57224Y-46425D01*
X57276Y-46373D01*
X57305Y-46305D01*
X57305Y-46231D01*
X57305Y-52817D01*
X57177Y-52945D01*
X57177Y-47534D01*
X57177Y-47484D01*
X57177Y-47397D01*
X57177Y-47347D01*
X57177Y-47140D01*
X57177Y-47090D01*
X57177Y-47003D01*
X57177Y-46953D01*
X57177Y-46747D01*
X57177Y-46697D01*
X57177Y-46609D01*
X57177Y-46559D01*
X57165Y-46532D01*
X57144Y-46511D01*
X57117Y-46499D01*
X57087Y-46499D01*
X56736Y-46499D01*
X56717Y-46518D01*
X56717Y-46628D01*
X57158Y-46628D01*
X57177Y-46609D01*
X57177Y-46697D01*
X57158Y-46678D01*
X56717Y-46678D01*
X56717Y-46788D01*
X56736Y-46807D01*
X57087Y-46807D01*
X57117Y-46807D01*
X57144Y-46795D01*
X57165Y-46774D01*
X57177Y-46747D01*
X57177Y-46953D01*
X57165Y-46926D01*
X57144Y-46904D01*
X57117Y-46893D01*
X57087Y-46893D01*
X56736Y-46893D01*
X56717Y-46912D01*
X56717Y-47022D01*
X57158Y-47022D01*
X57177Y-47003D01*
X57177Y-47090D01*
X57158Y-47072D01*
X56717Y-47072D01*
X56717Y-47182D01*
X56736Y-47200D01*
X57087Y-47200D01*
X57117Y-47200D01*
X57144Y-47189D01*
X57165Y-47168D01*
X57177Y-47140D01*
X57177Y-47347D01*
X57165Y-47319D01*
X57144Y-47298D01*
X57117Y-47287D01*
X57087Y-47287D01*
X56736Y-47287D01*
X56717Y-47305D01*
X56717Y-47415D01*
X57158Y-47415D01*
X57177Y-47397D01*
X57177Y-47484D01*
X57158Y-47465D01*
X56717Y-47465D01*
X56717Y-47575D01*
X56736Y-47594D01*
X57087Y-47594D01*
X57117Y-47594D01*
X57144Y-47583D01*
X57165Y-47562D01*
X57177Y-47534D01*
X57177Y-52945D01*
X56675Y-53447D01*
X56675Y-48934D01*
X56675Y-48900D01*
X56675Y-48388D01*
X56667Y-48370D01*
X56667Y-47575D01*
X56667Y-47465D01*
X56667Y-47415D01*
X56667Y-47305D01*
X56667Y-47182D01*
X56667Y-47072D01*
X56667Y-47022D01*
X56667Y-46912D01*
X56667Y-46788D01*
X56667Y-46678D01*
X56667Y-46628D01*
X56667Y-46518D01*
X56649Y-46499D01*
X56298Y-46499D01*
X56268Y-46499D01*
X56240Y-46511D01*
X56219Y-46532D01*
X56208Y-46559D01*
X56208Y-46609D01*
X56227Y-46628D01*
X56667Y-46628D01*
X56667Y-46678D01*
X56227Y-46678D01*
X56208Y-46697D01*
X56208Y-46747D01*
X56219Y-46774D01*
X56240Y-46795D01*
X56268Y-46807D01*
X56298Y-46807D01*
X56649Y-46807D01*
X56667Y-46788D01*
X56667Y-46912D01*
X56649Y-46893D01*
X56298Y-46893D01*
X56268Y-46893D01*
X56240Y-46904D01*
X56219Y-46926D01*
X56208Y-46953D01*
X56208Y-47003D01*
X56227Y-47022D01*
X56667Y-47022D01*
X56667Y-47072D01*
X56227Y-47072D01*
X56208Y-47090D01*
X56208Y-47140D01*
X56219Y-47168D01*
X56240Y-47189D01*
X56268Y-47200D01*
X56298Y-47200D01*
X56649Y-47200D01*
X56667Y-47182D01*
X56667Y-47305D01*
X56649Y-47287D01*
X56298Y-47287D01*
X56268Y-47287D01*
X56240Y-47298D01*
X56219Y-47319D01*
X56208Y-47347D01*
X56208Y-47397D01*
X56227Y-47415D01*
X56667Y-47415D01*
X56667Y-47465D01*
X56227Y-47465D01*
X56208Y-47484D01*
X56208Y-47534D01*
X56219Y-47562D01*
X56240Y-47583D01*
X56268Y-47594D01*
X56298Y-47594D01*
X56649Y-47594D01*
X56667Y-47575D01*
X56667Y-48370D01*
X56662Y-48357D01*
X56638Y-48333D01*
X56607Y-48320D01*
X56573Y-48320D01*
X56133Y-48320D01*
X56210Y-48244D01*
X56262Y-48119D01*
X56262Y-47983D01*
X56210Y-47858D01*
X56114Y-47762D01*
X55989Y-47710D01*
X55853Y-47710D01*
X55728Y-47762D01*
X55632Y-47857D01*
X55580Y-47983D01*
X55580Y-48118D01*
X55632Y-48244D01*
X55708Y-48320D01*
X55235Y-48320D01*
X55203Y-48333D01*
X55179Y-48357D01*
X55166Y-48388D01*
X55166Y-48422D01*
X55166Y-48934D01*
X55179Y-48965D01*
X55203Y-48989D01*
X55235Y-49002D01*
X55268Y-49002D01*
X56607Y-49002D01*
X56638Y-48989D01*
X56662Y-48965D01*
X56675Y-48934D01*
X56675Y-53447D01*
X55084Y-55038D01*
X52505Y-55038D01*
X52505Y-54135D01*
X52505Y-52836D01*
X52456Y-52718D01*
X52366Y-52628D01*
X52248Y-52579D01*
X52120Y-52579D01*
X52002Y-52627D01*
X51912Y-52718D01*
X51863Y-52836D01*
X51862Y-52964D01*
X51911Y-53082D01*
X52002Y-53172D01*
X52120Y-53221D01*
X52247Y-53221D01*
X52365Y-53172D01*
X52456Y-53082D01*
X52505Y-52964D01*
X52505Y-52836D01*
X52505Y-54135D01*
X52456Y-54017D01*
X52366Y-53927D01*
X52248Y-53878D01*
X52120Y-53878D01*
X52002Y-53927D01*
X51912Y-54017D01*
X51863Y-54135D01*
X51862Y-54263D01*
X51911Y-54381D01*
X52002Y-54471D01*
X52120Y-54520D01*
X52247Y-54520D01*
X52365Y-54472D01*
X52456Y-54381D01*
X52505Y-54263D01*
X52505Y-54135D01*
X52505Y-55038D01*
X50537Y-55038D01*
X50537Y-54135D01*
X50488Y-54017D01*
X50460Y-53990D01*
X50460Y-53109D01*
X50487Y-53082D01*
X50536Y-52964D01*
X50537Y-52836D01*
X50488Y-52718D01*
X50460Y-52691D01*
X50460Y-52415D01*
X50460Y-51715D01*
X50442Y-51621D01*
X50388Y-51542D01*
X50388Y-51542D01*
X49947Y-51100D01*
X49947Y-49756D01*
X49835Y-49485D01*
X49629Y-49279D01*
X49359Y-49167D01*
X49067Y-49166D01*
X48797Y-49278D01*
X48590Y-49484D01*
X48478Y-49754D01*
X48477Y-50047D01*
X48589Y-50317D01*
X48795Y-50523D01*
X49065Y-50636D01*
X49358Y-50636D01*
X49628Y-50524D01*
X49835Y-50318D01*
X49947Y-50048D01*
X49947Y-49756D01*
X49947Y-51100D01*
X49673Y-50826D01*
X49593Y-50773D01*
X49500Y-50754D01*
X49499Y-50755D01*
X48851Y-50755D01*
X48425Y-50328D01*
X48395Y-50298D01*
X48395Y-50100D01*
X48376Y-50006D01*
X48323Y-49926D01*
X48323Y-49926D01*
X48123Y-49726D01*
X48043Y-49673D01*
X47950Y-49654D01*
X47949Y-49655D01*
X47350Y-49655D01*
X46900Y-49655D01*
X46900Y-49654D01*
X46806Y-49673D01*
X46726Y-49726D01*
X46628Y-49825D01*
X45958Y-49825D01*
X45826Y-49693D01*
X45806Y-49645D01*
X45756Y-49595D01*
X46600Y-49595D01*
X46999Y-49595D01*
X47000Y-49595D01*
X47000Y-49595D01*
X47093Y-49576D01*
X47173Y-49523D01*
X47471Y-49225D01*
X48425Y-49225D01*
X48425Y-44725D01*
X47540Y-44725D01*
X47540Y-44515D01*
X47527Y-44483D01*
X47503Y-44459D01*
X47472Y-44447D01*
X47438Y-44447D01*
X47281Y-44447D01*
X47250Y-44459D01*
X47226Y-44483D01*
X47213Y-44515D01*
X47213Y-44548D01*
X47213Y-44725D01*
X47186Y-44725D01*
X47186Y-44657D01*
X47188Y-44650D01*
X47186Y-44642D01*
X47186Y-44515D01*
X47173Y-44483D01*
X47149Y-44459D01*
X47118Y-44447D01*
X47084Y-44447D01*
X46927Y-44447D01*
X46896Y-44459D01*
X46872Y-44483D01*
X46871Y-44485D01*
X46626Y-44485D01*
X46656Y-44454D01*
X46676Y-44406D01*
X46766Y-44316D01*
X46766Y-44316D01*
X46766Y-44316D01*
X46816Y-44266D01*
X46816Y-44266D01*
X46816Y-44266D01*
X46818Y-44265D01*
X50264Y-44265D01*
X50313Y-44284D01*
X50386Y-44285D01*
X50454Y-44256D01*
X50506Y-44204D01*
X50534Y-44136D01*
X50535Y-44063D01*
X50506Y-43995D01*
X50454Y-43943D01*
X50410Y-43924D01*
X50454Y-43906D01*
X50506Y-43854D01*
X50534Y-43786D01*
X50535Y-43713D01*
X50506Y-43645D01*
X50454Y-43593D01*
X50386Y-43565D01*
X50313Y-43564D01*
X50264Y-43585D01*
X46600Y-43585D01*
X46536Y-43597D01*
X46483Y-43633D01*
X46083Y-44033D01*
X46047Y-44086D01*
X46046Y-44091D01*
X46043Y-44095D01*
X46015Y-44163D01*
X46014Y-44236D01*
X46043Y-44304D01*
X46095Y-44356D01*
X46163Y-44384D01*
X46236Y-44385D01*
X46304Y-44356D01*
X46315Y-44346D01*
X46314Y-44386D01*
X46343Y-44454D01*
X46373Y-44485D01*
X46250Y-44485D01*
X46000Y-44485D01*
X45936Y-44497D01*
X45883Y-44533D01*
X45691Y-44725D01*
X45675Y-44725D01*
X45675Y-44741D01*
X45606Y-44810D01*
X45570Y-44863D01*
X45558Y-44927D01*
X45558Y-47150D01*
X45558Y-47158D01*
X45533Y-47183D01*
X45497Y-47236D01*
X45485Y-47300D01*
X45485Y-48864D01*
X45465Y-48913D01*
X45464Y-48986D01*
X45493Y-49054D01*
X45543Y-49105D01*
X45050Y-49105D01*
X45050Y-49104D01*
X44971Y-49120D01*
X44956Y-49123D01*
X44876Y-49176D01*
X44876Y-49176D01*
X44876Y-49176D01*
X44676Y-49376D01*
X44676Y-49376D01*
X43898Y-50155D01*
X43258Y-50155D01*
X43258Y-49131D01*
X43258Y-49097D01*
X43258Y-48585D01*
X43245Y-48554D01*
X43221Y-48530D01*
X43190Y-48517D01*
X43156Y-48517D01*
X42716Y-48517D01*
X42792Y-48441D01*
X42844Y-48316D01*
X42844Y-48180D01*
X42793Y-48055D01*
X42697Y-47959D01*
X42572Y-47907D01*
X42436Y-47907D01*
X42311Y-47958D01*
X42216Y-48053D01*
X42216Y-47731D01*
X42216Y-47681D01*
X42216Y-47594D01*
X42216Y-47544D01*
X42216Y-47337D01*
X42216Y-47287D01*
X42216Y-47200D01*
X42216Y-47150D01*
X42205Y-47122D01*
X42184Y-47101D01*
X42156Y-47090D01*
X42126Y-47090D01*
X41776Y-47090D01*
X41757Y-47109D01*
X41757Y-47219D01*
X42197Y-47219D01*
X42216Y-47200D01*
X42216Y-47287D01*
X42197Y-47269D01*
X41757Y-47269D01*
X41757Y-47379D01*
X41776Y-47397D01*
X42126Y-47397D01*
X42156Y-47397D01*
X42184Y-47386D01*
X42205Y-47365D01*
X42216Y-47337D01*
X42216Y-47544D01*
X42205Y-47516D01*
X42184Y-47495D01*
X42156Y-47484D01*
X42126Y-47484D01*
X41776Y-47484D01*
X41757Y-47502D01*
X41757Y-47612D01*
X42197Y-47612D01*
X42216Y-47594D01*
X42216Y-47681D01*
X42197Y-47662D01*
X41757Y-47662D01*
X41757Y-47772D01*
X41776Y-47791D01*
X42126Y-47791D01*
X42156Y-47791D01*
X42184Y-47780D01*
X42205Y-47759D01*
X42216Y-47731D01*
X42216Y-48053D01*
X42215Y-48054D01*
X42163Y-48179D01*
X42162Y-48315D01*
X42214Y-48440D01*
X42291Y-48517D01*
X41817Y-48517D01*
X41786Y-48530D01*
X41762Y-48554D01*
X41749Y-48585D01*
X41749Y-48619D01*
X41749Y-49131D01*
X41762Y-49162D01*
X41786Y-49186D01*
X41817Y-49199D01*
X41851Y-49199D01*
X43190Y-49199D01*
X43221Y-49186D01*
X43245Y-49162D01*
X43258Y-49131D01*
X43258Y-50155D01*
X43246Y-50155D01*
X43230Y-50130D01*
X43106Y-50047D01*
X42960Y-50018D01*
X42339Y-50018D01*
X42193Y-50047D01*
X42103Y-50107D01*
X41707Y-49710D01*
X41707Y-47772D01*
X41707Y-47662D01*
X41707Y-47612D01*
X41707Y-47502D01*
X41707Y-47379D01*
X41707Y-47269D01*
X41707Y-47219D01*
X41707Y-47109D01*
X41688Y-47090D01*
X41337Y-47090D01*
X41307Y-47090D01*
X41280Y-47101D01*
X41259Y-47122D01*
X41247Y-47150D01*
X41247Y-47200D01*
X41266Y-47219D01*
X41707Y-47219D01*
X41707Y-47269D01*
X41266Y-47269D01*
X41247Y-47287D01*
X41247Y-47337D01*
X41259Y-47365D01*
X41280Y-47386D01*
X41307Y-47397D01*
X41337Y-47397D01*
X41688Y-47397D01*
X41707Y-47379D01*
X41707Y-47502D01*
X41688Y-47484D01*
X41337Y-47484D01*
X41307Y-47484D01*
X41280Y-47495D01*
X41259Y-47516D01*
X41247Y-47544D01*
X41247Y-47594D01*
X41266Y-47612D01*
X41707Y-47612D01*
X41707Y-47662D01*
X41266Y-47662D01*
X41247Y-47681D01*
X41247Y-47731D01*
X41259Y-47759D01*
X41280Y-47780D01*
X41307Y-47791D01*
X41337Y-47791D01*
X41688Y-47791D01*
X41707Y-47772D01*
X41707Y-49710D01*
X40695Y-48698D01*
X40695Y-45318D01*
X40695Y-45318D01*
X40695Y-45318D01*
X40676Y-45224D01*
X40623Y-45144D01*
X40413Y-44935D01*
X40413Y-44826D01*
X40356Y-44686D01*
X40249Y-44579D01*
X40109Y-44521D01*
X39958Y-44521D01*
X39818Y-44579D01*
X39711Y-44685D01*
X39653Y-44825D01*
X39653Y-44976D01*
X39710Y-45116D01*
X39817Y-45223D01*
X39957Y-45281D01*
X40067Y-45281D01*
X40205Y-45419D01*
X40205Y-48799D01*
X40204Y-48800D01*
X40223Y-48893D01*
X40276Y-48973D01*
X41876Y-50573D01*
X41876Y-50573D01*
X41876Y-50573D01*
X41956Y-50626D01*
X42050Y-50645D01*
X42050Y-50645D01*
X42050Y-50645D01*
X42053Y-50645D01*
X42069Y-50669D01*
X42193Y-50752D01*
X42339Y-50781D01*
X42960Y-50781D01*
X43106Y-50752D01*
X43230Y-50669D01*
X43246Y-50645D01*
X43999Y-50645D01*
X44000Y-50645D01*
X44000Y-50645D01*
X44093Y-50626D01*
X44173Y-50573D01*
X45023Y-49723D01*
X45023Y-49723D01*
X45151Y-49595D01*
X45543Y-49595D01*
X45493Y-49645D01*
X45465Y-49713D01*
X45464Y-49786D01*
X45493Y-49854D01*
X45545Y-49906D01*
X45593Y-49926D01*
X45725Y-50058D01*
X45725Y-50280D01*
X45325Y-50280D01*
X45325Y-50279D01*
X45246Y-50295D01*
X45231Y-50298D01*
X45151Y-50351D01*
X45151Y-50351D01*
X44348Y-51155D01*
X43246Y-51155D01*
X43230Y-51130D01*
X43106Y-51047D01*
X42960Y-51018D01*
X42339Y-51018D01*
X42193Y-51047D01*
X42069Y-51130D01*
X42053Y-51155D01*
X41633Y-51155D01*
X40413Y-49935D01*
X40413Y-49826D01*
X40356Y-49686D01*
X40249Y-49579D01*
X40109Y-49521D01*
X39958Y-49521D01*
X39818Y-49579D01*
X39711Y-49685D01*
X39653Y-49825D01*
X39653Y-49976D01*
X39710Y-50116D01*
X39817Y-50223D01*
X39957Y-50281D01*
X40067Y-50281D01*
X41358Y-51573D01*
X41358Y-51573D01*
X41358Y-51573D01*
X41438Y-51626D01*
X41531Y-51645D01*
X41531Y-51645D01*
X41531Y-51645D01*
X42053Y-51645D01*
X42069Y-51669D01*
X42193Y-51752D01*
X42339Y-51781D01*
X42960Y-51781D01*
X43106Y-51752D01*
X43230Y-51669D01*
X43246Y-51645D01*
X44449Y-51645D01*
X44450Y-51645D01*
X44450Y-51645D01*
X44543Y-51626D01*
X44623Y-51573D01*
X45426Y-50770D01*
X45725Y-50770D01*
X45725Y-51025D01*
X45810Y-51025D01*
X45782Y-51036D01*
X45761Y-51057D01*
X45750Y-51085D01*
X45750Y-51231D01*
X45768Y-51250D01*
X46075Y-51250D01*
X46075Y-51043D01*
X46056Y-51025D01*
X46143Y-51025D01*
X46125Y-51043D01*
X46125Y-51250D01*
X46431Y-51250D01*
X46450Y-51231D01*
X46450Y-51085D01*
X46438Y-51057D01*
X46417Y-51036D01*
X46389Y-51025D01*
X47075Y-51025D01*
X47075Y-50570D01*
X47085Y-50575D01*
X47156Y-50575D01*
X47175Y-50556D01*
X47175Y-50375D01*
X47167Y-50375D01*
X47167Y-50325D01*
X47175Y-50325D01*
X47175Y-50317D01*
X47225Y-50317D01*
X47225Y-50325D01*
X47356Y-50325D01*
X47375Y-50306D01*
X47375Y-50214D01*
X47375Y-50185D01*
X47363Y-50157D01*
X47351Y-50145D01*
X47409Y-50145D01*
X47402Y-50151D01*
X47390Y-50183D01*
X47390Y-50216D01*
X47390Y-50516D01*
X47402Y-50548D01*
X47417Y-50562D01*
X47417Y-50562D01*
X47422Y-50588D01*
X47458Y-50641D01*
X48425Y-51608D01*
X48485Y-51668D01*
X48485Y-51671D01*
X48483Y-51672D01*
X48459Y-51696D01*
X48447Y-51727D01*
X48447Y-51761D01*
X48447Y-51918D01*
X48459Y-51949D01*
X48483Y-51973D01*
X48515Y-51986D01*
X48548Y-51986D01*
X48642Y-51986D01*
X48650Y-51988D01*
X48657Y-51986D01*
X48784Y-51986D01*
X48816Y-51973D01*
X48840Y-51949D01*
X48853Y-51918D01*
X48853Y-51884D01*
X48853Y-51727D01*
X48840Y-51696D01*
X48816Y-51672D01*
X48815Y-51671D01*
X48815Y-51600D01*
X48802Y-51536D01*
X48766Y-51483D01*
X48766Y-51483D01*
X48425Y-51141D01*
X47760Y-50476D01*
X47760Y-50183D01*
X47747Y-50151D01*
X47740Y-50145D01*
X47848Y-50145D01*
X47905Y-50201D01*
X47905Y-50350D01*
X47905Y-50399D01*
X47904Y-50400D01*
X47923Y-50493D01*
X47976Y-50573D01*
X48425Y-51021D01*
X48576Y-51173D01*
X48576Y-51173D01*
X48656Y-51226D01*
X48750Y-51245D01*
X49398Y-51245D01*
X49970Y-51817D01*
X49970Y-52415D01*
X49970Y-52691D01*
X49943Y-52718D01*
X49894Y-52836D01*
X49894Y-52964D01*
X49943Y-53082D01*
X49970Y-53109D01*
X49970Y-53990D01*
X49943Y-54017D01*
X49894Y-54135D01*
X49894Y-54263D01*
X49928Y-54344D01*
X49715Y-54131D01*
X49715Y-52600D01*
X49702Y-52536D01*
X49666Y-52483D01*
X49666Y-52483D01*
X49243Y-52060D01*
X49190Y-52024D01*
X49127Y-52012D01*
X48827Y-52012D01*
X48650Y-52012D01*
X48642Y-52013D01*
X48515Y-52013D01*
X48483Y-52026D01*
X48459Y-52050D01*
X48447Y-52081D01*
X48447Y-52115D01*
X48447Y-52272D01*
X48459Y-52303D01*
X48461Y-52305D01*
X48425Y-52305D01*
X48353Y-52305D01*
X48353Y-51918D01*
X48353Y-51884D01*
X48353Y-51727D01*
X48340Y-51696D01*
X48316Y-51672D01*
X48315Y-51671D01*
X48315Y-51600D01*
X48302Y-51536D01*
X48266Y-51483D01*
X48266Y-51483D01*
X48216Y-51433D01*
X48216Y-51433D01*
X48216Y-51433D01*
X48016Y-51233D01*
X47963Y-51197D01*
X47900Y-51185D01*
X47760Y-51185D01*
X47760Y-51183D01*
X47747Y-51151D01*
X47723Y-51127D01*
X47691Y-51115D01*
X47658Y-51115D01*
X47458Y-51115D01*
X47426Y-51127D01*
X47402Y-51151D01*
X47390Y-51183D01*
X47390Y-51216D01*
X47390Y-51516D01*
X47402Y-51548D01*
X47426Y-51572D01*
X47458Y-51585D01*
X47491Y-51585D01*
X47691Y-51585D01*
X47723Y-51572D01*
X47747Y-51548D01*
X47760Y-51516D01*
X47760Y-51515D01*
X47831Y-51515D01*
X47983Y-51666D01*
X47983Y-51666D01*
X47983Y-51666D01*
X47985Y-51668D01*
X47985Y-51671D01*
X47983Y-51672D01*
X47959Y-51696D01*
X47947Y-51727D01*
X47947Y-51761D01*
X47947Y-51918D01*
X47959Y-51949D01*
X47983Y-51973D01*
X48015Y-51986D01*
X48048Y-51986D01*
X48142Y-51986D01*
X48150Y-51988D01*
X48157Y-51986D01*
X48284Y-51986D01*
X48316Y-51973D01*
X48340Y-51949D01*
X48353Y-51918D01*
X48353Y-52305D01*
X48324Y-52305D01*
X48331Y-52297D01*
X48343Y-52270D01*
X48343Y-52220D01*
X48343Y-52133D01*
X48343Y-52083D01*
X48331Y-52056D01*
X48310Y-52034D01*
X48282Y-52023D01*
X48253Y-52023D01*
X48193Y-52023D01*
X48175Y-52042D01*
X48175Y-52152D01*
X48324Y-52152D01*
X48343Y-52133D01*
X48343Y-52220D01*
X48324Y-52202D01*
X48175Y-52202D01*
X48175Y-52209D01*
X48125Y-52209D01*
X48125Y-52202D01*
X48125Y-52152D01*
X48125Y-52042D01*
X48106Y-52023D01*
X48046Y-52023D01*
X48017Y-52023D01*
X47989Y-52034D01*
X47968Y-52056D01*
X47957Y-52083D01*
X47957Y-52133D01*
X47975Y-52152D01*
X48125Y-52152D01*
X48125Y-52202D01*
X47975Y-52202D01*
X47957Y-52220D01*
X47957Y-52270D01*
X47968Y-52297D01*
X47975Y-52305D01*
X47818Y-52305D01*
X47825Y-52289D01*
X47825Y-52260D01*
X47825Y-52043D01*
X47825Y-51956D01*
X47825Y-51739D01*
X47825Y-51710D01*
X47813Y-51682D01*
X47792Y-51661D01*
X47764Y-51650D01*
X47618Y-51650D01*
X47600Y-51668D01*
X47600Y-51975D01*
X47806Y-51975D01*
X47825Y-51956D01*
X47825Y-52043D01*
X47806Y-52025D01*
X47600Y-52025D01*
X47600Y-52032D01*
X47550Y-52032D01*
X47550Y-52025D01*
X47550Y-51975D01*
X47550Y-51668D01*
X47531Y-51650D01*
X47385Y-51650D01*
X47375Y-51654D01*
X47375Y-50514D01*
X47375Y-50485D01*
X47375Y-50393D01*
X47356Y-50375D01*
X47225Y-50375D01*
X47225Y-50556D01*
X47243Y-50575D01*
X47314Y-50575D01*
X47342Y-50563D01*
X47363Y-50542D01*
X47375Y-50514D01*
X47375Y-51654D01*
X47357Y-51661D01*
X47336Y-51682D01*
X47325Y-51710D01*
X47325Y-51739D01*
X47325Y-51956D01*
X47343Y-51975D01*
X47550Y-51975D01*
X47550Y-52025D01*
X47343Y-52025D01*
X47325Y-52043D01*
X47325Y-52260D01*
X47325Y-52289D01*
X47331Y-52305D01*
X47079Y-52305D01*
X47085Y-52291D01*
X47085Y-52258D01*
X47085Y-51708D01*
X47075Y-51683D01*
X47072Y-51676D01*
X47048Y-51652D01*
X47016Y-51640D01*
X46990Y-51640D01*
X46990Y-51555D01*
X46997Y-51548D01*
X47010Y-51516D01*
X47010Y-51483D01*
X47010Y-51183D01*
X46997Y-51151D01*
X46973Y-51127D01*
X46941Y-51115D01*
X46908Y-51115D01*
X46708Y-51115D01*
X46676Y-51127D01*
X46652Y-51151D01*
X46640Y-51183D01*
X46640Y-51216D01*
X46640Y-51516D01*
X46652Y-51548D01*
X46660Y-51555D01*
X46660Y-51640D01*
X46633Y-51640D01*
X46601Y-51652D01*
X46577Y-51676D01*
X46565Y-51708D01*
X46565Y-51741D01*
X46565Y-52291D01*
X46568Y-52300D01*
X46536Y-52347D01*
X46524Y-52411D01*
X46524Y-52549D01*
X46521Y-52551D01*
X46505Y-52590D01*
X46505Y-52631D01*
X46505Y-53161D01*
X46521Y-53200D01*
X46551Y-53230D01*
X46589Y-53246D01*
X46631Y-53246D01*
X46788Y-53246D01*
X46817Y-53234D01*
X46845Y-53246D01*
X46887Y-53246D01*
X47044Y-53246D01*
X47072Y-53234D01*
X47075Y-53235D01*
X47100Y-53246D01*
X47142Y-53246D01*
X47299Y-53246D01*
X47327Y-53234D01*
X47355Y-53246D01*
X47397Y-53246D01*
X47554Y-53246D01*
X47592Y-53230D01*
X47610Y-53212D01*
X47617Y-53216D01*
X47667Y-53216D01*
X47686Y-53197D01*
X47686Y-52901D01*
X47678Y-52901D01*
X47678Y-52851D01*
X47686Y-52851D01*
X47686Y-52843D01*
X47736Y-52843D01*
X47736Y-52851D01*
X47845Y-52851D01*
X47864Y-52832D01*
X47864Y-52625D01*
X47864Y-52596D01*
X47864Y-52595D01*
X47922Y-52595D01*
X47922Y-52628D01*
X47922Y-53257D01*
X47935Y-53288D01*
X47959Y-53312D01*
X47990Y-53325D01*
X48024Y-53325D01*
X48425Y-53325D01*
X48849Y-53325D01*
X48880Y-53312D01*
X48904Y-53288D01*
X48917Y-53257D01*
X48917Y-53223D01*
X48917Y-52600D01*
X49090Y-52773D01*
X49090Y-53481D01*
X49066Y-53471D01*
X49032Y-53471D01*
X48425Y-53471D01*
X48325Y-53471D01*
X48294Y-53484D01*
X48270Y-53508D01*
X48257Y-53539D01*
X48257Y-53573D01*
X48257Y-54320D01*
X48270Y-54351D01*
X48294Y-54375D01*
X48325Y-54388D01*
X48359Y-54388D01*
X48425Y-54388D01*
X49066Y-54388D01*
X49090Y-54378D01*
X49090Y-54508D01*
X49081Y-54508D01*
X49049Y-54520D01*
X49025Y-54544D01*
X49013Y-54576D01*
X49013Y-54609D01*
X49013Y-54923D01*
X49025Y-54955D01*
X49049Y-54979D01*
X49081Y-54992D01*
X49114Y-54992D01*
X49428Y-54992D01*
X49460Y-54979D01*
X49484Y-54955D01*
X49497Y-54923D01*
X49497Y-54890D01*
X49497Y-54576D01*
X49484Y-54544D01*
X49460Y-54520D01*
X49428Y-54508D01*
X49420Y-54508D01*
X49420Y-54296D01*
X49433Y-54316D01*
X49638Y-54522D01*
X49615Y-54544D01*
X49603Y-54576D01*
X49603Y-54609D01*
X49603Y-54923D01*
X49615Y-54955D01*
X49639Y-54979D01*
X49671Y-54992D01*
X49704Y-54992D01*
X50018Y-54992D01*
X50050Y-54979D01*
X50074Y-54955D01*
X50087Y-54923D01*
X50087Y-54890D01*
X50087Y-54576D01*
X50074Y-54544D01*
X50050Y-54520D01*
X50018Y-54508D01*
X50010Y-54508D01*
X50010Y-54495D01*
X49998Y-54436D01*
X50033Y-54471D01*
X50151Y-54520D01*
X50279Y-54520D01*
X50397Y-54472D01*
X50487Y-54381D01*
X50536Y-54263D01*
X50537Y-54135D01*
X50537Y-55038D01*
X48425Y-55038D01*
X48131Y-55038D01*
X48131Y-54320D01*
X48131Y-54286D01*
X48131Y-53539D01*
X48118Y-53508D01*
X48094Y-53484D01*
X48062Y-53471D01*
X48029Y-53471D01*
X47864Y-53471D01*
X47864Y-53155D01*
X47864Y-53126D01*
X47864Y-52919D01*
X47845Y-52901D01*
X47736Y-52901D01*
X47736Y-53197D01*
X47754Y-53216D01*
X47804Y-53216D01*
X47831Y-53204D01*
X47853Y-53183D01*
X47864Y-53155D01*
X47864Y-53471D01*
X47281Y-53471D01*
X47249Y-53484D01*
X47225Y-53508D01*
X47213Y-53539D01*
X47213Y-53573D01*
X47213Y-54320D01*
X47225Y-54351D01*
X47249Y-54375D01*
X47281Y-54388D01*
X47314Y-54388D01*
X48062Y-54388D01*
X48094Y-54375D01*
X48118Y-54351D01*
X48131Y-54320D01*
X48131Y-55038D01*
X47186Y-55038D01*
X47186Y-54320D01*
X47186Y-54286D01*
X47186Y-53539D01*
X47173Y-53508D01*
X47149Y-53484D01*
X47118Y-53471D01*
X47084Y-53471D01*
X47075Y-53471D01*
X46477Y-53471D01*
X46477Y-53257D01*
X46477Y-53223D01*
X46477Y-52594D01*
X46464Y-52563D01*
X46450Y-52548D01*
X46450Y-51464D01*
X46450Y-51318D01*
X46431Y-51300D01*
X46125Y-51300D01*
X46125Y-51506D01*
X46143Y-51525D01*
X46360Y-51525D01*
X46389Y-51525D01*
X46417Y-51513D01*
X46438Y-51492D01*
X46450Y-51464D01*
X46450Y-52548D01*
X46440Y-52539D01*
X46409Y-52526D01*
X46375Y-52526D01*
X46075Y-52526D01*
X46075Y-51506D01*
X46075Y-51300D01*
X45768Y-51300D01*
X45750Y-51318D01*
X45750Y-51464D01*
X45761Y-51492D01*
X45782Y-51513D01*
X45810Y-51525D01*
X45839Y-51525D01*
X46056Y-51525D01*
X46075Y-51506D01*
X46075Y-52526D01*
X45550Y-52526D01*
X45519Y-52539D01*
X45495Y-52563D01*
X45482Y-52594D01*
X45482Y-52628D01*
X45482Y-53257D01*
X45495Y-53288D01*
X45519Y-53312D01*
X45550Y-53325D01*
X45584Y-53325D01*
X46409Y-53325D01*
X46440Y-53312D01*
X46464Y-53288D01*
X46477Y-53257D01*
X46477Y-53471D01*
X46337Y-53471D01*
X46306Y-53484D01*
X46282Y-53508D01*
X46269Y-53539D01*
X46269Y-53573D01*
X46269Y-54320D01*
X46282Y-54351D01*
X46306Y-54375D01*
X46337Y-54388D01*
X46371Y-54388D01*
X47075Y-54388D01*
X47118Y-54388D01*
X47149Y-54375D01*
X47173Y-54351D01*
X47186Y-54320D01*
X47186Y-55038D01*
X47075Y-55038D01*
X46142Y-55038D01*
X46142Y-54320D01*
X46142Y-54286D01*
X46142Y-53539D01*
X46129Y-53508D01*
X46105Y-53484D01*
X46074Y-53471D01*
X46040Y-53471D01*
X45333Y-53471D01*
X45302Y-53484D01*
X45278Y-53508D01*
X45265Y-53539D01*
X45265Y-53573D01*
X45265Y-54320D01*
X45278Y-54351D01*
X45302Y-54375D01*
X45333Y-54388D01*
X45367Y-54388D01*
X46074Y-54388D01*
X46105Y-54375D01*
X46129Y-54351D01*
X46142Y-54320D01*
X46142Y-55038D01*
X43340Y-55038D01*
X39450Y-51147D01*
X39450Y-39403D01*
X43340Y-35513D01*
X55084Y-35513D01*
X58975Y-39403D01*
X58975Y-51147D01*
X58975Y-51147D01*
G37*
G54D44*
X58975Y-51147D02*
X57445Y-52678D01*
X57445Y-42000D01*
X57445Y-41999D01*
X57445Y-40950D01*
X57445Y-40950D01*
X57445Y-40950D01*
X57429Y-40871D01*
X57426Y-40856D01*
X57426Y-40856D01*
X57373Y-40776D01*
X57373Y-40776D01*
X57373Y-40776D01*
X57123Y-40526D01*
X57043Y-40473D01*
X56950Y-40454D01*
X56949Y-40455D01*
X53850Y-40455D01*
X53756Y-40473D01*
X53676Y-40526D01*
X53676Y-40526D01*
X51148Y-43055D01*
X51101Y-43055D01*
X50123Y-42076D01*
X50043Y-42023D01*
X49950Y-42004D01*
X49949Y-42005D01*
X49947Y-42005D01*
X49947Y-40504D01*
X49835Y-40234D01*
X49629Y-40027D01*
X49359Y-39915D01*
X49067Y-39914D01*
X48797Y-40026D01*
X48590Y-40232D01*
X48478Y-40502D01*
X48477Y-40795D01*
X48589Y-41065D01*
X48795Y-41272D01*
X49065Y-41384D01*
X49358Y-41384D01*
X49628Y-41272D01*
X49835Y-41066D01*
X49947Y-40796D01*
X49947Y-40504D01*
X49947Y-42005D01*
X49850Y-42005D01*
X46401Y-42005D01*
X45223Y-40826D01*
X45143Y-40773D01*
X45050Y-40754D01*
X45049Y-40755D01*
X44500Y-40755D01*
X41550Y-40755D01*
X41550Y-40754D01*
X41471Y-40770D01*
X41456Y-40773D01*
X41376Y-40826D01*
X41376Y-40826D01*
X41076Y-41126D01*
X41023Y-41206D01*
X41004Y-41300D01*
X41005Y-41300D01*
X41005Y-42299D01*
X41004Y-42300D01*
X41023Y-42393D01*
X41076Y-42473D01*
X41351Y-42748D01*
X41293Y-42748D01*
X41257Y-42733D01*
X41183Y-42733D01*
X41115Y-42761D01*
X41063Y-42813D01*
X41035Y-42881D01*
X41035Y-42954D01*
X41063Y-43022D01*
X41115Y-43074D01*
X41183Y-43103D01*
X41256Y-43103D01*
X41316Y-43078D01*
X41487Y-43078D01*
X41487Y-43142D01*
X41278Y-43142D01*
X41257Y-43133D01*
X41183Y-43133D01*
X41115Y-43161D01*
X41063Y-43213D01*
X41035Y-43281D01*
X41035Y-43354D01*
X41063Y-43422D01*
X41115Y-43474D01*
X41183Y-43503D01*
X41256Y-43503D01*
X41324Y-43475D01*
X41327Y-43472D01*
X41487Y-43472D01*
X41487Y-43535D01*
X41263Y-43535D01*
X41257Y-43533D01*
X41183Y-43533D01*
X41115Y-43561D01*
X41063Y-43613D01*
X41035Y-43681D01*
X41035Y-43754D01*
X41063Y-43822D01*
X41115Y-43874D01*
X41183Y-43903D01*
X41256Y-43903D01*
X41324Y-43875D01*
X41334Y-43865D01*
X41553Y-43865D01*
X41559Y-43874D01*
X41638Y-43927D01*
X41656Y-43930D01*
X41305Y-43930D01*
X41274Y-43943D01*
X41250Y-43967D01*
X41237Y-43998D01*
X41237Y-44032D01*
X41237Y-44190D01*
X41250Y-44221D01*
X41274Y-44245D01*
X41305Y-44258D01*
X41339Y-44258D01*
X41725Y-44258D01*
X41732Y-44259D01*
X42199Y-44259D01*
X42215Y-44274D01*
X42283Y-44303D01*
X42356Y-44303D01*
X42424Y-44275D01*
X42476Y-44223D01*
X42505Y-44155D01*
X42505Y-44081D01*
X42477Y-44013D01*
X42425Y-43961D01*
X42357Y-43933D01*
X42314Y-43933D01*
X42296Y-43929D01*
X41814Y-43929D01*
X41826Y-43927D01*
X41905Y-43874D01*
X41911Y-43865D01*
X42206Y-43865D01*
X42215Y-43874D01*
X42283Y-43903D01*
X42356Y-43903D01*
X42424Y-43875D01*
X42476Y-43823D01*
X42505Y-43755D01*
X42505Y-43681D01*
X42477Y-43613D01*
X42425Y-43561D01*
X42357Y-43533D01*
X42283Y-43533D01*
X42276Y-43535D01*
X41977Y-43535D01*
X41977Y-43472D01*
X42212Y-43472D01*
X42215Y-43474D01*
X42283Y-43503D01*
X42356Y-43503D01*
X42424Y-43475D01*
X42476Y-43423D01*
X42505Y-43355D01*
X42505Y-43281D01*
X42477Y-43213D01*
X42425Y-43161D01*
X42357Y-43133D01*
X42283Y-43133D01*
X42261Y-43142D01*
X41977Y-43142D01*
X41977Y-43078D01*
X42223Y-43078D01*
X42283Y-43103D01*
X42356Y-43103D01*
X42424Y-43075D01*
X42476Y-43023D01*
X42505Y-42955D01*
X42505Y-42881D01*
X42477Y-42813D01*
X42425Y-42761D01*
X42357Y-42733D01*
X42283Y-42733D01*
X42246Y-42748D01*
X41970Y-42748D01*
X41961Y-42704D01*
X41958Y-42688D01*
X41958Y-42688D01*
X41905Y-42609D01*
X41905Y-42609D01*
X41905Y-42609D01*
X41495Y-42198D01*
X41495Y-41401D01*
X41651Y-41245D01*
X44500Y-41245D01*
X44948Y-41245D01*
X46126Y-42423D01*
X46206Y-42476D01*
X46300Y-42495D01*
X46300Y-42495D01*
X46300Y-42495D01*
X49848Y-42495D01*
X50408Y-43055D01*
X46050Y-43055D01*
X46050Y-43054D01*
X45971Y-43070D01*
X45956Y-43073D01*
X45876Y-43126D01*
X45876Y-43126D01*
X45626Y-43376D01*
X45626Y-43376D01*
X44626Y-44376D01*
X44573Y-44456D01*
X44554Y-44550D01*
X44555Y-44550D01*
X44555Y-46474D01*
X43820Y-47005D01*
X43770Y-47005D01*
X43770Y-46951D01*
X43770Y-46749D01*
X43770Y-46715D01*
X43770Y-46557D01*
X43770Y-46355D01*
X43770Y-46321D01*
X43770Y-46164D01*
X43770Y-45961D01*
X43770Y-45927D01*
X43770Y-45770D01*
X43770Y-45568D01*
X43770Y-45534D01*
X43770Y-45376D01*
X43757Y-45345D01*
X43733Y-45321D01*
X43701Y-45308D01*
X43668Y-45308D01*
X43281Y-45308D01*
X43275Y-45307D01*
X42765Y-45307D01*
X42731Y-45293D01*
X42774Y-45275D01*
X42806Y-45243D01*
X43275Y-45243D01*
X43281Y-45242D01*
X43701Y-45242D01*
X43733Y-45229D01*
X43757Y-45205D01*
X43770Y-45174D01*
X43770Y-45140D01*
X43770Y-44983D01*
X43770Y-44780D01*
X43770Y-44746D01*
X43770Y-44589D01*
X43770Y-44386D01*
X43770Y-44353D01*
X43770Y-44195D01*
X43760Y-44171D01*
X43760Y-43991D01*
X43760Y-43941D01*
X43760Y-43853D01*
X43760Y-43803D01*
X43760Y-43597D01*
X43760Y-43547D01*
X43760Y-43460D01*
X43760Y-43410D01*
X43760Y-43203D01*
X43760Y-43153D01*
X43760Y-43066D01*
X43760Y-43016D01*
X43748Y-42989D01*
X43727Y-42967D01*
X43699Y-42956D01*
X43670Y-42956D01*
X43319Y-42956D01*
X43300Y-42975D01*
X43300Y-43085D01*
X43741Y-43085D01*
X43760Y-43066D01*
X43760Y-43153D01*
X43741Y-43135D01*
X43300Y-43135D01*
X43300Y-43245D01*
X43319Y-43263D01*
X43670Y-43263D01*
X43699Y-43263D01*
X43727Y-43252D01*
X43748Y-43231D01*
X43760Y-43203D01*
X43760Y-43410D01*
X43748Y-43382D01*
X43727Y-43361D01*
X43699Y-43350D01*
X43670Y-43350D01*
X43319Y-43350D01*
X43300Y-43368D01*
X43300Y-43478D01*
X43741Y-43478D01*
X43760Y-43460D01*
X43760Y-43547D01*
X43741Y-43528D01*
X43300Y-43528D01*
X43300Y-43638D01*
X43319Y-43657D01*
X43670Y-43657D01*
X43699Y-43657D01*
X43727Y-43646D01*
X43748Y-43625D01*
X43760Y-43597D01*
X43760Y-43803D01*
X43748Y-43776D01*
X43727Y-43755D01*
X43699Y-43743D01*
X43670Y-43743D01*
X43319Y-43743D01*
X43300Y-43762D01*
X43300Y-43872D01*
X43741Y-43872D01*
X43760Y-43853D01*
X43760Y-43941D01*
X43741Y-43922D01*
X43300Y-43922D01*
X43300Y-44032D01*
X43319Y-44051D01*
X43670Y-44051D01*
X43699Y-44051D01*
X43727Y-44039D01*
X43748Y-44018D01*
X43760Y-43991D01*
X43760Y-44171D01*
X43757Y-44164D01*
X43733Y-44140D01*
X43701Y-44127D01*
X43668Y-44127D01*
X43281Y-44127D01*
X43275Y-44126D01*
X43258Y-44126D01*
X43258Y-41965D01*
X43258Y-41931D01*
X43258Y-41420D01*
X43245Y-41388D01*
X43221Y-41364D01*
X43190Y-41352D01*
X43156Y-41352D01*
X41817Y-41352D01*
X41786Y-41364D01*
X41762Y-41388D01*
X41749Y-41420D01*
X41749Y-41453D01*
X41749Y-41965D01*
X41762Y-41996D01*
X41786Y-42020D01*
X41817Y-42033D01*
X41851Y-42033D01*
X42291Y-42033D01*
X42215Y-42109D01*
X42163Y-42235D01*
X42162Y-42370D01*
X42214Y-42496D01*
X42310Y-42591D01*
X42435Y-42643D01*
X42571Y-42644D01*
X42696Y-42592D01*
X42792Y-42496D01*
X42844Y-42371D01*
X42844Y-42235D01*
X42793Y-42110D01*
X42716Y-42033D01*
X43190Y-42033D01*
X43221Y-42020D01*
X43245Y-41996D01*
X43258Y-41965D01*
X43258Y-44126D01*
X43250Y-44126D01*
X43250Y-44032D01*
X43250Y-43922D01*
X43250Y-43872D01*
X43250Y-43762D01*
X43250Y-43638D01*
X43250Y-43528D01*
X43250Y-43478D01*
X43250Y-43368D01*
X43250Y-43245D01*
X43250Y-43135D01*
X43250Y-43085D01*
X43250Y-42975D01*
X43231Y-42956D01*
X42881Y-42956D01*
X42851Y-42956D01*
X42823Y-42967D01*
X42802Y-42989D01*
X42791Y-43016D01*
X42791Y-43066D01*
X42809Y-43085D01*
X43250Y-43085D01*
X43250Y-43135D01*
X42809Y-43135D01*
X42791Y-43153D01*
X42791Y-43203D01*
X42802Y-43231D01*
X42823Y-43252D01*
X42851Y-43263D01*
X42881Y-43263D01*
X43231Y-43263D01*
X43250Y-43245D01*
X43250Y-43368D01*
X43231Y-43350D01*
X42881Y-43350D01*
X42851Y-43350D01*
X42823Y-43361D01*
X42802Y-43382D01*
X42791Y-43410D01*
X42791Y-43460D01*
X42809Y-43478D01*
X43250Y-43478D01*
X43250Y-43528D01*
X42809Y-43528D01*
X42791Y-43547D01*
X42791Y-43597D01*
X42802Y-43625D01*
X42823Y-43646D01*
X42851Y-43657D01*
X42881Y-43657D01*
X43231Y-43657D01*
X43250Y-43638D01*
X43250Y-43762D01*
X43231Y-43743D01*
X42881Y-43743D01*
X42851Y-43743D01*
X42823Y-43755D01*
X42802Y-43776D01*
X42791Y-43803D01*
X42791Y-43853D01*
X42809Y-43872D01*
X43250Y-43872D01*
X43250Y-43922D01*
X42809Y-43922D01*
X42791Y-43941D01*
X42791Y-43991D01*
X42802Y-44018D01*
X42823Y-44039D01*
X42851Y-44051D01*
X42881Y-44051D01*
X43231Y-44051D01*
X43250Y-44032D01*
X43250Y-44126D01*
X42696Y-44126D01*
X42662Y-44133D01*
X42662Y-44133D01*
X42633Y-44133D01*
X42565Y-44161D01*
X42513Y-44213D01*
X42485Y-44281D01*
X42485Y-44354D01*
X42513Y-44422D01*
X42565Y-44474D01*
X42633Y-44503D01*
X42706Y-44503D01*
X42774Y-44475D01*
X42793Y-44456D01*
X43275Y-44456D01*
X43281Y-44455D01*
X43701Y-44455D01*
X43733Y-44442D01*
X43757Y-44418D01*
X43770Y-44386D01*
X43770Y-44589D01*
X43757Y-44558D01*
X43733Y-44534D01*
X43701Y-44521D01*
X43668Y-44521D01*
X43281Y-44521D01*
X43275Y-44520D01*
X42703Y-44520D01*
X42640Y-44532D01*
X42639Y-44533D01*
X42633Y-44533D01*
X42565Y-44561D01*
X42513Y-44613D01*
X42505Y-44632D01*
X42505Y-44481D01*
X42477Y-44413D01*
X42425Y-44361D01*
X42357Y-44333D01*
X42340Y-44333D01*
X42340Y-44333D01*
X42290Y-44323D01*
X41732Y-44323D01*
X41725Y-44324D01*
X41305Y-44324D01*
X41274Y-44337D01*
X41250Y-44361D01*
X41237Y-44392D01*
X41237Y-44426D01*
X41237Y-44583D01*
X41250Y-44615D01*
X41274Y-44638D01*
X41305Y-44651D01*
X41339Y-44651D01*
X41725Y-44651D01*
X41732Y-44653D01*
X42193Y-44653D01*
X42215Y-44674D01*
X42283Y-44703D01*
X42356Y-44703D01*
X42424Y-44675D01*
X42476Y-44623D01*
X42505Y-44555D01*
X42505Y-44481D01*
X42505Y-44632D01*
X42485Y-44681D01*
X42485Y-44754D01*
X42513Y-44822D01*
X42565Y-44874D01*
X42633Y-44903D01*
X42706Y-44903D01*
X42774Y-44875D01*
X42799Y-44850D01*
X43275Y-44850D01*
X43281Y-44848D01*
X43701Y-44848D01*
X43733Y-44835D01*
X43757Y-44811D01*
X43770Y-44780D01*
X43770Y-44983D01*
X43757Y-44951D01*
X43733Y-44927D01*
X43701Y-44915D01*
X43668Y-44915D01*
X43281Y-44915D01*
X43275Y-44913D01*
X42709Y-44913D01*
X42646Y-44926D01*
X42636Y-44933D01*
X42633Y-44933D01*
X42565Y-44961D01*
X42513Y-45013D01*
X42505Y-45032D01*
X42505Y-44881D01*
X42477Y-44813D01*
X42425Y-44761D01*
X42357Y-44733D01*
X42352Y-44733D01*
X42347Y-44729D01*
X42283Y-44716D01*
X41732Y-44716D01*
X41725Y-44718D01*
X41305Y-44718D01*
X41274Y-44731D01*
X41250Y-44755D01*
X41237Y-44786D01*
X41237Y-44820D01*
X41237Y-44977D01*
X41250Y-45008D01*
X41274Y-45032D01*
X41305Y-45045D01*
X41339Y-45045D01*
X41725Y-45045D01*
X41732Y-45046D01*
X42187Y-45046D01*
X42215Y-45074D01*
X42283Y-45103D01*
X42356Y-45103D01*
X42424Y-45075D01*
X42476Y-45023D01*
X42505Y-44955D01*
X42505Y-44881D01*
X42505Y-45032D01*
X42485Y-45081D01*
X42485Y-45154D01*
X42513Y-45222D01*
X42565Y-45274D01*
X42609Y-45293D01*
X42565Y-45311D01*
X42513Y-45363D01*
X42505Y-45382D01*
X42505Y-45281D01*
X42477Y-45213D01*
X42425Y-45161D01*
X42357Y-45133D01*
X42355Y-45133D01*
X42340Y-45123D01*
X42277Y-45110D01*
X41732Y-45110D01*
X41725Y-45111D01*
X41305Y-45111D01*
X41274Y-45124D01*
X41250Y-45148D01*
X41237Y-45179D01*
X41237Y-45213D01*
X41237Y-45371D01*
X41250Y-45402D01*
X41274Y-45426D01*
X41305Y-45439D01*
X41339Y-45439D01*
X41725Y-45439D01*
X41732Y-45440D01*
X42180Y-45440D01*
X42215Y-45474D01*
X42283Y-45503D01*
X42356Y-45503D01*
X42424Y-45475D01*
X42476Y-45423D01*
X42505Y-45355D01*
X42505Y-45281D01*
X42505Y-45382D01*
X42485Y-45431D01*
X42485Y-45504D01*
X42513Y-45572D01*
X42565Y-45624D01*
X42633Y-45653D01*
X42706Y-45653D01*
X42744Y-45637D01*
X43275Y-45637D01*
X43281Y-45636D01*
X43701Y-45636D01*
X43733Y-45623D01*
X43757Y-45599D01*
X43770Y-45568D01*
X43770Y-45770D01*
X43757Y-45739D01*
X43733Y-45715D01*
X43701Y-45702D01*
X43668Y-45702D01*
X43281Y-45702D01*
X43275Y-45701D01*
X42750Y-45701D01*
X42707Y-45683D01*
X42633Y-45683D01*
X42565Y-45711D01*
X42513Y-45763D01*
X42485Y-45831D01*
X42485Y-45904D01*
X42513Y-45972D01*
X42565Y-46024D01*
X42633Y-46053D01*
X42706Y-46053D01*
X42759Y-46031D01*
X43275Y-46031D01*
X43281Y-46029D01*
X43701Y-46029D01*
X43733Y-46016D01*
X43757Y-45993D01*
X43770Y-45961D01*
X43770Y-46164D01*
X43757Y-46132D01*
X43733Y-46109D01*
X43701Y-46096D01*
X43668Y-46096D01*
X43281Y-46096D01*
X43275Y-46094D01*
X42735Y-46094D01*
X42707Y-46083D01*
X42633Y-46083D01*
X42565Y-46111D01*
X42513Y-46163D01*
X42505Y-46182D01*
X42505Y-46031D01*
X42477Y-45963D01*
X42425Y-45911D01*
X42381Y-45893D01*
X42424Y-45875D01*
X42476Y-45823D01*
X42505Y-45755D01*
X42505Y-45681D01*
X42477Y-45613D01*
X42425Y-45561D01*
X42361Y-45535D01*
X42361Y-45535D01*
X42334Y-45516D01*
X42271Y-45504D01*
X41732Y-45504D01*
X41725Y-45505D01*
X41305Y-45505D01*
X41274Y-45518D01*
X41250Y-45542D01*
X41237Y-45573D01*
X41237Y-45607D01*
X41237Y-45764D01*
X41250Y-45796D01*
X41274Y-45820D01*
X41305Y-45833D01*
X41339Y-45833D01*
X41725Y-45833D01*
X41732Y-45834D01*
X42174Y-45834D01*
X42215Y-45874D01*
X42259Y-45893D01*
X42247Y-45897D01*
X41732Y-45897D01*
X41725Y-45899D01*
X41305Y-45899D01*
X41274Y-45912D01*
X41250Y-45936D01*
X41237Y-45967D01*
X41237Y-46001D01*
X41237Y-46158D01*
X41250Y-46189D01*
X41274Y-46213D01*
X41305Y-46226D01*
X41339Y-46226D01*
X41725Y-46226D01*
X41732Y-46227D01*
X42222Y-46227D01*
X42283Y-46253D01*
X42356Y-46253D01*
X42424Y-46225D01*
X42476Y-46173D01*
X42505Y-46105D01*
X42505Y-46031D01*
X42505Y-46182D01*
X42485Y-46231D01*
X42485Y-46304D01*
X42513Y-46372D01*
X42565Y-46424D01*
X42633Y-46453D01*
X42706Y-46453D01*
X42774Y-46425D01*
X42774Y-46424D01*
X43275Y-46424D01*
X43281Y-46423D01*
X43701Y-46423D01*
X43733Y-46410D01*
X43757Y-46386D01*
X43770Y-46355D01*
X43770Y-46557D01*
X43757Y-46526D01*
X43733Y-46502D01*
X43701Y-46489D01*
X43668Y-46489D01*
X43281Y-46489D01*
X43275Y-46488D01*
X42720Y-46488D01*
X42707Y-46483D01*
X42633Y-46483D01*
X42565Y-46511D01*
X42513Y-46563D01*
X42505Y-46582D01*
X42505Y-46431D01*
X42477Y-46363D01*
X42425Y-46311D01*
X42357Y-46283D01*
X42283Y-46283D01*
X42262Y-46291D01*
X41732Y-46291D01*
X41725Y-46292D01*
X41305Y-46292D01*
X41274Y-46305D01*
X41250Y-46329D01*
X41237Y-46361D01*
X41237Y-46394D01*
X41237Y-46552D01*
X41250Y-46583D01*
X41274Y-46607D01*
X41305Y-46620D01*
X41339Y-46620D01*
X41725Y-46620D01*
X41732Y-46621D01*
X42211Y-46621D01*
X42215Y-46624D01*
X42283Y-46653D01*
X42356Y-46653D01*
X42424Y-46625D01*
X42476Y-46573D01*
X42505Y-46505D01*
X42505Y-46431D01*
X42505Y-46582D01*
X42485Y-46631D01*
X42485Y-46704D01*
X42513Y-46772D01*
X42565Y-46824D01*
X42633Y-46853D01*
X42706Y-46853D01*
X42774Y-46825D01*
X42781Y-46818D01*
X43275Y-46818D01*
X43281Y-46817D01*
X43701Y-46817D01*
X43733Y-46804D01*
X43757Y-46780D01*
X43770Y-46749D01*
X43770Y-46951D01*
X43757Y-46920D01*
X43733Y-46896D01*
X43701Y-46883D01*
X43668Y-46883D01*
X43281Y-46883D01*
X43275Y-46882D01*
X42690Y-46882D01*
X42686Y-46883D01*
X42633Y-46883D01*
X42565Y-46911D01*
X42513Y-46963D01*
X42505Y-46982D01*
X42505Y-46831D01*
X42477Y-46763D01*
X42425Y-46711D01*
X42357Y-46683D01*
X42283Y-46683D01*
X42277Y-46685D01*
X41732Y-46685D01*
X41725Y-46686D01*
X41305Y-46686D01*
X41274Y-46699D01*
X41250Y-46723D01*
X41237Y-46754D01*
X41237Y-46788D01*
X41237Y-46946D01*
X41250Y-46977D01*
X41274Y-47001D01*
X41305Y-47014D01*
X41339Y-47014D01*
X41725Y-47014D01*
X41732Y-47015D01*
X42205Y-47015D01*
X42215Y-47024D01*
X42283Y-47053D01*
X42356Y-47053D01*
X42424Y-47025D01*
X42476Y-46973D01*
X42505Y-46905D01*
X42505Y-46831D01*
X42505Y-46982D01*
X42485Y-47031D01*
X42485Y-47104D01*
X42513Y-47172D01*
X42565Y-47224D01*
X42633Y-47253D01*
X42706Y-47253D01*
X42774Y-47225D01*
X42787Y-47212D01*
X43038Y-47212D01*
X43030Y-47250D01*
X43035Y-47275D01*
X42697Y-47275D01*
X42661Y-47283D01*
X42661Y-47283D01*
X42633Y-47283D01*
X42565Y-47311D01*
X42513Y-47363D01*
X42485Y-47431D01*
X42485Y-47504D01*
X42513Y-47572D01*
X42565Y-47624D01*
X42633Y-47653D01*
X42706Y-47653D01*
X42774Y-47625D01*
X42793Y-47605D01*
X43275Y-47605D01*
X43281Y-47604D01*
X43701Y-47604D01*
X43733Y-47591D01*
X43757Y-47567D01*
X43770Y-47536D01*
X43770Y-47502D01*
X43770Y-47495D01*
X43900Y-47495D01*
X43927Y-47489D01*
X43956Y-47488D01*
X43974Y-47480D01*
X43993Y-47476D01*
X44017Y-47460D01*
X44043Y-47448D01*
X44943Y-46798D01*
X44956Y-46784D01*
X44973Y-46773D01*
X44989Y-46749D01*
X45008Y-46728D01*
X45015Y-46710D01*
X45026Y-46693D01*
X45031Y-46665D01*
X45041Y-46639D01*
X45041Y-46619D01*
X45045Y-46600D01*
X45045Y-44651D01*
X45973Y-43723D01*
X45973Y-43723D01*
X45973Y-43723D01*
X46151Y-43545D01*
X50598Y-43545D01*
X50880Y-43826D01*
X50880Y-43875D01*
X50880Y-44050D01*
X50880Y-44324D01*
X50877Y-44326D01*
X50865Y-44358D01*
X50865Y-44391D01*
X50865Y-44941D01*
X50877Y-44973D01*
X50880Y-44975D01*
X50880Y-45074D01*
X50877Y-45076D01*
X50865Y-45108D01*
X50865Y-45141D01*
X50865Y-45691D01*
X50877Y-45723D01*
X50880Y-45725D01*
X50880Y-45824D01*
X50877Y-45826D01*
X50865Y-45858D01*
X50865Y-45891D01*
X50865Y-46441D01*
X50877Y-46473D01*
X50901Y-46497D01*
X50933Y-46510D01*
X50966Y-46510D01*
X50966Y-46510D01*
X50972Y-46538D01*
X51008Y-46591D01*
X51108Y-46691D01*
X51108Y-46700D01*
X51109Y-46707D01*
X51109Y-46834D01*
X51118Y-46855D01*
X51118Y-46976D01*
X51084Y-46976D01*
X50994Y-46976D01*
X50962Y-46989D01*
X50938Y-47013D01*
X50926Y-47044D01*
X50926Y-47054D01*
X50625Y-47054D01*
X50625Y-46439D01*
X50625Y-46410D01*
X50625Y-46193D01*
X50625Y-46106D01*
X50625Y-45889D01*
X50625Y-45860D01*
X50625Y-45689D01*
X50625Y-45660D01*
X50625Y-45443D01*
X50625Y-45356D01*
X50625Y-45139D01*
X50625Y-45110D01*
X50625Y-44939D01*
X50625Y-44910D01*
X50625Y-44693D01*
X50625Y-44606D01*
X50625Y-44389D01*
X50625Y-44360D01*
X50613Y-44332D01*
X50592Y-44311D01*
X50564Y-44300D01*
X50418Y-44300D01*
X50400Y-44318D01*
X50400Y-44625D01*
X50606Y-44625D01*
X50625Y-44606D01*
X50625Y-44693D01*
X50606Y-44675D01*
X50400Y-44675D01*
X50400Y-44981D01*
X50418Y-45000D01*
X50564Y-45000D01*
X50592Y-44988D01*
X50613Y-44967D01*
X50625Y-44939D01*
X50625Y-45110D01*
X50613Y-45082D01*
X50592Y-45061D01*
X50564Y-45050D01*
X50418Y-45050D01*
X50400Y-45068D01*
X50400Y-45375D01*
X50606Y-45375D01*
X50625Y-45356D01*
X50625Y-45443D01*
X50606Y-45425D01*
X50400Y-45425D01*
X50400Y-45731D01*
X50418Y-45750D01*
X50564Y-45750D01*
X50592Y-45738D01*
X50613Y-45717D01*
X50625Y-45689D01*
X50625Y-45860D01*
X50613Y-45832D01*
X50592Y-45811D01*
X50564Y-45800D01*
X50418Y-45800D01*
X50400Y-45818D01*
X50400Y-46125D01*
X50606Y-46125D01*
X50625Y-46106D01*
X50625Y-46193D01*
X50606Y-46175D01*
X50400Y-46175D01*
X50400Y-46481D01*
X50418Y-46500D01*
X50564Y-46500D01*
X50592Y-46488D01*
X50613Y-46467D01*
X50625Y-46439D01*
X50625Y-47054D01*
X50444Y-47054D01*
X50438Y-47055D01*
X50350Y-47055D01*
X50350Y-46481D01*
X50350Y-46175D01*
X50350Y-46125D01*
X50350Y-45818D01*
X50350Y-45731D01*
X50350Y-45425D01*
X50350Y-45375D01*
X50350Y-45068D01*
X50350Y-44981D01*
X50350Y-44675D01*
X50350Y-44625D01*
X50350Y-44318D01*
X50331Y-44300D01*
X50185Y-44300D01*
X50157Y-44311D01*
X50136Y-44332D01*
X50125Y-44360D01*
X50125Y-44389D01*
X50125Y-44606D01*
X50143Y-44625D01*
X50350Y-44625D01*
X50350Y-44675D01*
X50143Y-44675D01*
X50125Y-44693D01*
X50125Y-44910D01*
X50125Y-44939D01*
X50136Y-44967D01*
X50157Y-44988D01*
X50185Y-45000D01*
X50331Y-45000D01*
X50350Y-44981D01*
X50350Y-45068D01*
X50331Y-45050D01*
X50185Y-45050D01*
X50157Y-45061D01*
X50136Y-45082D01*
X50125Y-45110D01*
X50125Y-45139D01*
X50125Y-45356D01*
X50143Y-45375D01*
X50350Y-45375D01*
X50350Y-45425D01*
X50143Y-45425D01*
X50125Y-45443D01*
X50125Y-45660D01*
X50125Y-45689D01*
X50136Y-45717D01*
X50157Y-45738D01*
X50185Y-45750D01*
X50331Y-45750D01*
X50350Y-45731D01*
X50350Y-45818D01*
X50331Y-45800D01*
X50185Y-45800D01*
X50157Y-45811D01*
X50136Y-45832D01*
X50125Y-45860D01*
X50125Y-45889D01*
X50125Y-46106D01*
X50143Y-46125D01*
X50350Y-46125D01*
X50350Y-46175D01*
X50143Y-46175D01*
X50125Y-46193D01*
X50125Y-46410D01*
X50125Y-46439D01*
X50136Y-46467D01*
X50157Y-46488D01*
X50185Y-46500D01*
X50331Y-46500D01*
X50350Y-46481D01*
X50350Y-47055D01*
X49113Y-47055D01*
X49082Y-47068D01*
X49058Y-47092D01*
X49045Y-47123D01*
X49045Y-47157D01*
X49045Y-47543D01*
X49058Y-47574D01*
X49082Y-47598D01*
X49113Y-47611D01*
X49147Y-47611D01*
X50486Y-47611D01*
X50517Y-47598D01*
X50541Y-47574D01*
X50554Y-47543D01*
X50554Y-47509D01*
X50554Y-47384D01*
X50926Y-47384D01*
X50926Y-47393D01*
X50938Y-47424D01*
X50953Y-47439D01*
X50942Y-47439D01*
X50923Y-47458D01*
X50923Y-47539D01*
X50931Y-47539D01*
X50931Y-47588D01*
X50923Y-47588D01*
X50923Y-47615D01*
X50923Y-47669D01*
X50923Y-47696D01*
X50931Y-47696D01*
X50931Y-47745D01*
X50923Y-47745D01*
X50923Y-47773D01*
X50923Y-47826D01*
X50923Y-47854D01*
X50931Y-47854D01*
X50931Y-47903D01*
X50923Y-47903D01*
X50923Y-47930D01*
X50923Y-47984D01*
X50923Y-48011D01*
X50931Y-48011D01*
X50931Y-48060D01*
X50923Y-48060D01*
X50923Y-48141D01*
X50942Y-48160D01*
X50953Y-48160D01*
X50938Y-48175D01*
X50926Y-48206D01*
X50926Y-48215D01*
X50873Y-48215D01*
X50873Y-48141D01*
X50873Y-48060D01*
X50873Y-48011D01*
X50873Y-47984D01*
X50873Y-47930D01*
X50873Y-47903D01*
X50873Y-47854D01*
X50873Y-47826D01*
X50873Y-47773D01*
X50873Y-47745D01*
X50873Y-47696D01*
X50873Y-47669D01*
X50873Y-47615D01*
X50873Y-47588D01*
X50873Y-47539D01*
X50873Y-47458D01*
X50855Y-47439D01*
X50756Y-47439D01*
X50726Y-47439D01*
X50698Y-47450D01*
X50677Y-47472D01*
X50666Y-47499D01*
X50666Y-47520D01*
X50685Y-47539D01*
X50873Y-47539D01*
X50873Y-47588D01*
X50685Y-47588D01*
X50666Y-47607D01*
X50666Y-47627D01*
X50672Y-47642D01*
X50666Y-47657D01*
X50666Y-47677D01*
X50685Y-47696D01*
X50873Y-47696D01*
X50873Y-47745D01*
X50685Y-47745D01*
X50666Y-47764D01*
X50666Y-47785D01*
X50672Y-47800D01*
X50666Y-47814D01*
X50666Y-47835D01*
X50685Y-47854D01*
X50873Y-47854D01*
X50873Y-47903D01*
X50685Y-47903D01*
X50666Y-47922D01*
X50666Y-47942D01*
X50672Y-47957D01*
X50666Y-47972D01*
X50666Y-47992D01*
X50685Y-48011D01*
X50873Y-48011D01*
X50873Y-48060D01*
X50685Y-48060D01*
X50666Y-48079D01*
X50666Y-48100D01*
X50677Y-48127D01*
X50698Y-48149D01*
X50726Y-48160D01*
X50756Y-48160D01*
X50855Y-48160D01*
X50873Y-48141D01*
X50873Y-48215D01*
X50554Y-48215D01*
X50554Y-48056D01*
X50541Y-48025D01*
X50517Y-48001D01*
X50486Y-47988D01*
X50452Y-47988D01*
X49113Y-47988D01*
X49082Y-48001D01*
X49058Y-48025D01*
X49045Y-48056D01*
X49045Y-48090D01*
X49045Y-48476D01*
X49058Y-48507D01*
X49082Y-48531D01*
X49113Y-48544D01*
X49147Y-48544D01*
X50442Y-48544D01*
X50442Y-48544D01*
X50448Y-48545D01*
X50926Y-48545D01*
X50926Y-48555D01*
X50938Y-48586D01*
X50962Y-48610D01*
X50994Y-48623D01*
X51027Y-48623D01*
X51118Y-48623D01*
X51149Y-48610D01*
X51154Y-48605D01*
X51159Y-48610D01*
X51185Y-48620D01*
X51185Y-48800D01*
X51197Y-48863D01*
X51233Y-48916D01*
X51483Y-49166D01*
X51483Y-49166D01*
X51515Y-49198D01*
X51515Y-49641D01*
X51527Y-49673D01*
X51530Y-49675D01*
X51530Y-49824D01*
X51527Y-49826D01*
X51515Y-49858D01*
X51515Y-49891D01*
X51515Y-50441D01*
X51527Y-50473D01*
X51530Y-50475D01*
X51530Y-52223D01*
X51275Y-52478D01*
X51275Y-50439D01*
X51275Y-50410D01*
X51275Y-50193D01*
X51275Y-50106D01*
X51275Y-49889D01*
X51275Y-49860D01*
X51275Y-49639D01*
X51275Y-49610D01*
X51275Y-49393D01*
X51275Y-49306D01*
X51275Y-49089D01*
X51275Y-49060D01*
X51263Y-49032D01*
X51242Y-49011D01*
X51214Y-49000D01*
X51068Y-49000D01*
X51050Y-49018D01*
X51050Y-49325D01*
X51256Y-49325D01*
X51275Y-49306D01*
X51275Y-49393D01*
X51256Y-49375D01*
X51050Y-49375D01*
X51050Y-49681D01*
X51068Y-49700D01*
X51214Y-49700D01*
X51242Y-49688D01*
X51263Y-49667D01*
X51275Y-49639D01*
X51275Y-49860D01*
X51263Y-49832D01*
X51242Y-49811D01*
X51214Y-49800D01*
X51068Y-49800D01*
X51050Y-49818D01*
X51050Y-50125D01*
X51256Y-50125D01*
X51275Y-50106D01*
X51275Y-50193D01*
X51256Y-50175D01*
X51050Y-50175D01*
X51050Y-50481D01*
X51068Y-50500D01*
X51214Y-50500D01*
X51242Y-50488D01*
X51263Y-50467D01*
X51275Y-50439D01*
X51275Y-52478D01*
X51174Y-52579D01*
X51136Y-52579D01*
X51018Y-52627D01*
X51000Y-52646D01*
X51000Y-50481D01*
X51000Y-50175D01*
X51000Y-50125D01*
X51000Y-49818D01*
X51000Y-49681D01*
X51000Y-49375D01*
X51000Y-49325D01*
X51000Y-49018D01*
X50981Y-49000D01*
X50835Y-49000D01*
X50807Y-49011D01*
X50786Y-49032D01*
X50775Y-49060D01*
X50775Y-49089D01*
X50775Y-49306D01*
X50793Y-49325D01*
X51000Y-49325D01*
X51000Y-49375D01*
X50793Y-49375D01*
X50775Y-49393D01*
X50775Y-49610D01*
X50775Y-49639D01*
X50786Y-49667D01*
X50807Y-49688D01*
X50835Y-49700D01*
X50981Y-49700D01*
X51000Y-49681D01*
X51000Y-49818D01*
X50981Y-49800D01*
X50835Y-49800D01*
X50807Y-49811D01*
X50786Y-49832D01*
X50775Y-49860D01*
X50775Y-49889D01*
X50775Y-50106D01*
X50793Y-50125D01*
X51000Y-50125D01*
X51000Y-50175D01*
X50793Y-50175D01*
X50775Y-50193D01*
X50775Y-50410D01*
X50775Y-50439D01*
X50786Y-50467D01*
X50807Y-50488D01*
X50835Y-50500D01*
X50981Y-50500D01*
X51000Y-50481D01*
X51000Y-52646D01*
X50927Y-52718D01*
X50878Y-52836D01*
X50878Y-52964D01*
X50927Y-53082D01*
X50955Y-53109D01*
X50955Y-53990D01*
X50927Y-54017D01*
X50878Y-54135D01*
X50878Y-54263D01*
X50927Y-54381D01*
X51017Y-54471D01*
X51135Y-54520D01*
X51263Y-54520D01*
X51381Y-54472D01*
X51472Y-54381D01*
X51521Y-54263D01*
X51521Y-54135D01*
X51472Y-54017D01*
X51445Y-53990D01*
X51445Y-53109D01*
X51472Y-53082D01*
X51521Y-52964D01*
X51521Y-52925D01*
X51948Y-52498D01*
X51948Y-52498D01*
X51948Y-52498D01*
X52001Y-52419D01*
X52020Y-52325D01*
X52020Y-52325D01*
X52020Y-52325D01*
X52020Y-50475D01*
X52022Y-50473D01*
X52035Y-50441D01*
X52035Y-50408D01*
X52035Y-49858D01*
X52022Y-49826D01*
X52020Y-49824D01*
X52020Y-49675D01*
X52022Y-49673D01*
X52035Y-49641D01*
X52035Y-49608D01*
X52035Y-49058D01*
X52022Y-49026D01*
X51998Y-49002D01*
X51966Y-48990D01*
X51933Y-48990D01*
X51773Y-48990D01*
X51716Y-48933D01*
X51716Y-48933D01*
X51515Y-48731D01*
X51515Y-48622D01*
X51543Y-48610D01*
X51555Y-48598D01*
X51559Y-48601D01*
X51586Y-48613D01*
X51605Y-48613D01*
X51624Y-48594D01*
X51624Y-48405D01*
X51613Y-48405D01*
X51613Y-48355D01*
X51624Y-48355D01*
X51624Y-48347D01*
X51669Y-48347D01*
X51669Y-48355D01*
X51679Y-48355D01*
X51679Y-48375D01*
X51678Y-48380D01*
X51679Y-48385D01*
X51679Y-48405D01*
X51669Y-48405D01*
X51669Y-48594D01*
X51688Y-48613D01*
X51707Y-48613D01*
X51734Y-48601D01*
X51738Y-48598D01*
X51750Y-48610D01*
X51781Y-48623D01*
X51815Y-48623D01*
X51905Y-48623D01*
X51937Y-48610D01*
X51961Y-48586D01*
X51973Y-48555D01*
X51973Y-48545D01*
X52263Y-48545D01*
X52272Y-48566D01*
X52296Y-48590D01*
X52327Y-48603D01*
X52361Y-48603D01*
X52518Y-48603D01*
X52549Y-48590D01*
X52573Y-48566D01*
X52586Y-48534D01*
X52586Y-48501D01*
X52586Y-48407D01*
X52587Y-48400D01*
X52586Y-48392D01*
X52586Y-48265D01*
X52573Y-48233D01*
X52549Y-48209D01*
X52530Y-48202D01*
X52530Y-46982D01*
X52530Y-46953D01*
X52530Y-46893D01*
X52530Y-46806D01*
X52530Y-46746D01*
X52530Y-46717D01*
X52519Y-46689D01*
X52497Y-46668D01*
X52470Y-46657D01*
X52420Y-46657D01*
X52402Y-46675D01*
X52402Y-46825D01*
X52511Y-46825D01*
X52530Y-46806D01*
X52530Y-46893D01*
X52511Y-46875D01*
X52402Y-46875D01*
X52402Y-47024D01*
X52420Y-47043D01*
X52470Y-47043D01*
X52497Y-47031D01*
X52519Y-47010D01*
X52530Y-46982D01*
X52530Y-48202D01*
X52518Y-48197D01*
X52484Y-48197D01*
X52352Y-48197D01*
X52352Y-47024D01*
X52352Y-46875D01*
X52352Y-46825D01*
X52352Y-46675D01*
X52333Y-46657D01*
X52283Y-46657D01*
X52256Y-46668D01*
X52234Y-46689D01*
X52223Y-46717D01*
X52223Y-46746D01*
X52223Y-46806D01*
X52242Y-46825D01*
X52352Y-46825D01*
X52352Y-46875D01*
X52242Y-46875D01*
X52223Y-46893D01*
X52223Y-46953D01*
X52223Y-46982D01*
X52234Y-47010D01*
X52256Y-47031D01*
X52283Y-47043D01*
X52333Y-47043D01*
X52352Y-47024D01*
X52352Y-48197D01*
X52327Y-48197D01*
X52296Y-48209D01*
X52290Y-48215D01*
X52233Y-48215D01*
X52233Y-48100D01*
X52233Y-48079D01*
X52233Y-47992D01*
X52233Y-47972D01*
X52227Y-47957D01*
X52233Y-47942D01*
X52233Y-47922D01*
X52233Y-47835D01*
X52233Y-47814D01*
X52227Y-47800D01*
X52233Y-47785D01*
X52233Y-47764D01*
X52233Y-47677D01*
X52233Y-47657D01*
X52227Y-47642D01*
X52233Y-47627D01*
X52233Y-47607D01*
X52233Y-47520D01*
X52233Y-47499D01*
X52222Y-47472D01*
X52201Y-47450D01*
X52173Y-47439D01*
X52143Y-47439D01*
X52044Y-47439D01*
X52026Y-47458D01*
X52026Y-47539D01*
X52214Y-47539D01*
X52233Y-47520D01*
X52233Y-47607D01*
X52214Y-47588D01*
X52026Y-47588D01*
X52026Y-47615D01*
X52026Y-47669D01*
X52026Y-47696D01*
X52214Y-47696D01*
X52233Y-47677D01*
X52233Y-47764D01*
X52214Y-47745D01*
X52026Y-47745D01*
X52026Y-47773D01*
X52026Y-47826D01*
X52026Y-47854D01*
X52214Y-47854D01*
X52233Y-47835D01*
X52233Y-47922D01*
X52214Y-47903D01*
X52026Y-47903D01*
X52026Y-47930D01*
X52026Y-47984D01*
X52026Y-48011D01*
X52214Y-48011D01*
X52233Y-47992D01*
X52233Y-48079D01*
X52214Y-48060D01*
X52026Y-48060D01*
X52026Y-48141D01*
X52044Y-48160D01*
X52143Y-48160D01*
X52173Y-48160D01*
X52201Y-48149D01*
X52222Y-48127D01*
X52233Y-48100D01*
X52233Y-48215D01*
X51973Y-48215D01*
X51973Y-48206D01*
X51961Y-48175D01*
X51946Y-48160D01*
X51957Y-48160D01*
X51976Y-48141D01*
X51976Y-48060D01*
X51968Y-48060D01*
X51968Y-48011D01*
X51976Y-48011D01*
X51976Y-47984D01*
X51976Y-47930D01*
X51976Y-47903D01*
X51968Y-47903D01*
X51968Y-47854D01*
X51976Y-47854D01*
X51976Y-47826D01*
X51976Y-47773D01*
X51976Y-47745D01*
X51968Y-47745D01*
X51968Y-47696D01*
X51976Y-47696D01*
X51976Y-47669D01*
X51976Y-47615D01*
X51976Y-47588D01*
X51968Y-47588D01*
X51968Y-47539D01*
X51976Y-47539D01*
X51976Y-47458D01*
X51957Y-47439D01*
X51946Y-47439D01*
X51961Y-47424D01*
X51973Y-47393D01*
X51973Y-47359D01*
X51973Y-47243D01*
X51978Y-47219D01*
X51978Y-47179D01*
X51978Y-47085D01*
X52010Y-47053D01*
X52118Y-47053D01*
X52149Y-47040D01*
X52173Y-47016D01*
X52186Y-46984D01*
X52186Y-46951D01*
X52186Y-46715D01*
X52180Y-46700D01*
X52180Y-46482D01*
X52180Y-46453D01*
X52180Y-46393D01*
X52180Y-46306D01*
X52180Y-46246D01*
X52180Y-46217D01*
X52169Y-46189D01*
X52154Y-46175D01*
X52169Y-46160D01*
X52180Y-46132D01*
X52180Y-46103D01*
X52180Y-46043D01*
X52180Y-45956D01*
X52180Y-45896D01*
X52180Y-45867D01*
X52169Y-45839D01*
X52147Y-45818D01*
X52120Y-45807D01*
X52070Y-45807D01*
X52052Y-45825D01*
X52052Y-45975D01*
X52161Y-45975D01*
X52180Y-45956D01*
X52180Y-46043D01*
X52161Y-46025D01*
X52052Y-46025D01*
X52052Y-46174D01*
X52052Y-46175D01*
X52052Y-46175D01*
X52052Y-46325D01*
X52161Y-46325D01*
X52180Y-46306D01*
X52180Y-46393D01*
X52161Y-46375D01*
X52052Y-46375D01*
X52052Y-46524D01*
X52070Y-46543D01*
X52120Y-46543D01*
X52147Y-46531D01*
X52169Y-46510D01*
X52180Y-46482D01*
X52180Y-46700D01*
X52173Y-46683D01*
X52149Y-46659D01*
X52118Y-46647D01*
X52084Y-46647D01*
X52002Y-46647D01*
X52002Y-46524D01*
X52002Y-46375D01*
X52002Y-46325D01*
X52002Y-46175D01*
X52001Y-46175D01*
X52002Y-46174D01*
X52002Y-46025D01*
X52002Y-45975D01*
X52002Y-45825D01*
X51983Y-45807D01*
X51933Y-45807D01*
X51906Y-45818D01*
X51884Y-45839D01*
X51873Y-45867D01*
X51873Y-45896D01*
X51873Y-45956D01*
X51892Y-45975D01*
X52002Y-45975D01*
X52002Y-46025D01*
X51892Y-46025D01*
X51873Y-46043D01*
X51873Y-46103D01*
X51873Y-46132D01*
X51884Y-46160D01*
X51899Y-46175D01*
X51884Y-46189D01*
X51873Y-46217D01*
X51873Y-46246D01*
X51873Y-46306D01*
X51892Y-46325D01*
X52002Y-46325D01*
X52002Y-46375D01*
X51892Y-46375D01*
X51873Y-46393D01*
X51873Y-46453D01*
X51873Y-46482D01*
X51884Y-46510D01*
X51906Y-46531D01*
X51933Y-46543D01*
X51983Y-46543D01*
X52002Y-46524D01*
X52002Y-46647D01*
X51927Y-46647D01*
X51896Y-46659D01*
X51872Y-46683D01*
X51859Y-46715D01*
X51859Y-46748D01*
X51859Y-46822D01*
X51748Y-46933D01*
X51718Y-46977D01*
X51716Y-46990D01*
X51707Y-46986D01*
X51688Y-46986D01*
X51669Y-47005D01*
X51669Y-47194D01*
X51679Y-47194D01*
X51679Y-47244D01*
X51669Y-47244D01*
X51669Y-47252D01*
X51624Y-47252D01*
X51624Y-47244D01*
X51613Y-47244D01*
X51613Y-47194D01*
X51624Y-47194D01*
X51624Y-47005D01*
X51605Y-46986D01*
X51604Y-46986D01*
X51687Y-46903D01*
X51722Y-46903D01*
X51753Y-46890D01*
X51777Y-46866D01*
X51790Y-46834D01*
X51790Y-46801D01*
X51790Y-46565D01*
X51782Y-46546D01*
X51799Y-46540D01*
X51823Y-46516D01*
X51836Y-46484D01*
X51836Y-46451D01*
X51836Y-46215D01*
X51823Y-46183D01*
X51814Y-46175D01*
X51823Y-46166D01*
X51836Y-46134D01*
X51836Y-46101D01*
X51836Y-45865D01*
X51823Y-45833D01*
X51799Y-45809D01*
X51768Y-45797D01*
X51734Y-45797D01*
X51577Y-45797D01*
X51546Y-45809D01*
X51522Y-45833D01*
X51509Y-45865D01*
X51509Y-45898D01*
X51509Y-46134D01*
X51522Y-46166D01*
X51531Y-46174D01*
X51522Y-46183D01*
X51509Y-46215D01*
X51509Y-46248D01*
X51509Y-46333D01*
X51502Y-46344D01*
X51492Y-46396D01*
X51492Y-46518D01*
X51476Y-46533D01*
X51463Y-46565D01*
X51463Y-46598D01*
X51463Y-46745D01*
X51436Y-46772D01*
X51436Y-46707D01*
X51438Y-46700D01*
X51438Y-46623D01*
X51436Y-46615D01*
X51436Y-46615D01*
X51436Y-46565D01*
X51423Y-46533D01*
X51399Y-46509D01*
X51388Y-46505D01*
X51364Y-46480D01*
X51372Y-46473D01*
X51385Y-46441D01*
X51385Y-46408D01*
X51385Y-45858D01*
X51372Y-45826D01*
X51370Y-45824D01*
X51370Y-45725D01*
X51372Y-45723D01*
X51383Y-45695D01*
X52598Y-45695D01*
X54126Y-47223D01*
X54126Y-47223D01*
X54126Y-47223D01*
X54206Y-47276D01*
X54300Y-47295D01*
X54300Y-47295D01*
X54300Y-47295D01*
X54535Y-47295D01*
X54535Y-47304D01*
X54563Y-47372D01*
X54615Y-47424D01*
X54683Y-47453D01*
X54707Y-47453D01*
X53925Y-48235D01*
X52928Y-48235D01*
X52927Y-48233D01*
X52903Y-48209D01*
X52872Y-48197D01*
X52838Y-48197D01*
X52681Y-48197D01*
X52650Y-48209D01*
X52626Y-48233D01*
X52613Y-48265D01*
X52613Y-48298D01*
X52613Y-48392D01*
X52612Y-48400D01*
X52613Y-48407D01*
X52613Y-48534D01*
X52626Y-48566D01*
X52650Y-48590D01*
X52681Y-48603D01*
X52715Y-48603D01*
X52872Y-48603D01*
X52903Y-48590D01*
X52927Y-48566D01*
X52928Y-48565D01*
X53993Y-48565D01*
X53993Y-48564D01*
X54056Y-48552D01*
X54056Y-48552D01*
X54110Y-48516D01*
X55217Y-47409D01*
X55449Y-47409D01*
X55465Y-47424D01*
X55533Y-47453D01*
X55606Y-47453D01*
X55674Y-47425D01*
X55726Y-47373D01*
X55755Y-47305D01*
X55755Y-47231D01*
X55727Y-47163D01*
X55675Y-47111D01*
X55607Y-47083D01*
X55582Y-47083D01*
X55575Y-47080D01*
X55552Y-47080D01*
X55546Y-47079D01*
X55388Y-47079D01*
X55394Y-47050D01*
X55387Y-47015D01*
X55455Y-47015D01*
X55465Y-47024D01*
X55533Y-47053D01*
X55606Y-47053D01*
X55674Y-47025D01*
X55726Y-46973D01*
X55755Y-46905D01*
X55755Y-46831D01*
X55755Y-46431D01*
X55755Y-46031D01*
X55727Y-45963D01*
X55675Y-45911D01*
X55607Y-45883D01*
X55533Y-45883D01*
X55497Y-45897D01*
X55149Y-45897D01*
X54481Y-45897D01*
X53116Y-44533D01*
X53116Y-44533D01*
X53116Y-44533D01*
X52916Y-44333D01*
X52863Y-44297D01*
X52800Y-44285D01*
X52586Y-44285D01*
X52635Y-44265D01*
X52900Y-44265D01*
X53031Y-44265D01*
X53033Y-44266D01*
X53033Y-44266D01*
X53033Y-44266D01*
X54552Y-45785D01*
X54552Y-45785D01*
X54606Y-45821D01*
X54669Y-45834D01*
X55149Y-45834D01*
X55487Y-45834D01*
X55533Y-45853D01*
X55606Y-45853D01*
X55674Y-45825D01*
X55726Y-45773D01*
X55755Y-45705D01*
X55755Y-45631D01*
X55755Y-45231D01*
X55727Y-45163D01*
X55675Y-45111D01*
X55631Y-45093D01*
X55674Y-45075D01*
X55726Y-45023D01*
X55755Y-44955D01*
X55755Y-44881D01*
X55755Y-44481D01*
X55755Y-44081D01*
X55755Y-43681D01*
X55755Y-43281D01*
X55755Y-42881D01*
X55727Y-42813D01*
X55675Y-42761D01*
X55607Y-42733D01*
X55533Y-42733D01*
X55496Y-42748D01*
X55149Y-42748D01*
X55143Y-42749D01*
X54723Y-42749D01*
X54692Y-42762D01*
X54668Y-42786D01*
X54655Y-42817D01*
X54655Y-42851D01*
X54655Y-43009D01*
X54668Y-43040D01*
X54692Y-43064D01*
X54723Y-43077D01*
X54757Y-43077D01*
X55143Y-43077D01*
X55149Y-43078D01*
X55473Y-43078D01*
X55533Y-43103D01*
X55606Y-43103D01*
X55674Y-43075D01*
X55726Y-43023D01*
X55755Y-42955D01*
X55755Y-42881D01*
X55755Y-43281D01*
X55727Y-43213D01*
X55675Y-43161D01*
X55607Y-43133D01*
X55533Y-43133D01*
X55511Y-43142D01*
X55149Y-43142D01*
X55143Y-43143D01*
X54723Y-43143D01*
X54692Y-43156D01*
X54668Y-43180D01*
X54655Y-43211D01*
X54655Y-43245D01*
X54655Y-43402D01*
X54668Y-43433D01*
X54692Y-43457D01*
X54723Y-43470D01*
X54757Y-43470D01*
X55143Y-43470D01*
X55149Y-43472D01*
X55462Y-43472D01*
X55465Y-43474D01*
X55533Y-43503D01*
X55606Y-43503D01*
X55674Y-43475D01*
X55726Y-43423D01*
X55755Y-43355D01*
X55755Y-43281D01*
X55755Y-43681D01*
X55727Y-43613D01*
X55675Y-43561D01*
X55607Y-43533D01*
X55533Y-43533D01*
X55526Y-43535D01*
X55149Y-43535D01*
X55143Y-43537D01*
X54723Y-43537D01*
X54692Y-43549D01*
X54668Y-43573D01*
X54655Y-43605D01*
X54655Y-43638D01*
X54655Y-43796D01*
X54668Y-43827D01*
X54692Y-43851D01*
X54723Y-43864D01*
X54757Y-43864D01*
X55143Y-43864D01*
X55149Y-43865D01*
X55456Y-43865D01*
X55465Y-43874D01*
X55533Y-43903D01*
X55606Y-43903D01*
X55674Y-43875D01*
X55726Y-43823D01*
X55755Y-43755D01*
X55755Y-43681D01*
X55755Y-44081D01*
X55727Y-44013D01*
X55675Y-43961D01*
X55607Y-43933D01*
X55581Y-43933D01*
X55575Y-43930D01*
X55552Y-43930D01*
X55546Y-43929D01*
X55149Y-43929D01*
X55143Y-43930D01*
X54723Y-43930D01*
X54692Y-43943D01*
X54668Y-43967D01*
X54655Y-43998D01*
X54655Y-44032D01*
X54655Y-44190D01*
X54668Y-44221D01*
X54692Y-44245D01*
X54723Y-44258D01*
X54757Y-44258D01*
X55143Y-44258D01*
X55149Y-44259D01*
X55449Y-44259D01*
X55465Y-44274D01*
X55533Y-44303D01*
X55606Y-44303D01*
X55674Y-44275D01*
X55726Y-44223D01*
X55755Y-44155D01*
X55755Y-44081D01*
X55755Y-44481D01*
X55727Y-44413D01*
X55675Y-44361D01*
X55607Y-44333D01*
X55596Y-44333D01*
X55575Y-44324D01*
X55546Y-44324D01*
X55540Y-44323D01*
X55149Y-44323D01*
X55143Y-44324D01*
X54723Y-44324D01*
X54692Y-44337D01*
X54668Y-44361D01*
X54655Y-44392D01*
X54655Y-44426D01*
X54655Y-44583D01*
X54668Y-44615D01*
X54692Y-44638D01*
X54723Y-44651D01*
X54757Y-44651D01*
X55143Y-44651D01*
X55149Y-44653D01*
X55443Y-44653D01*
X55465Y-44674D01*
X55533Y-44703D01*
X55606Y-44703D01*
X55674Y-44675D01*
X55726Y-44623D01*
X55755Y-44555D01*
X55755Y-44481D01*
X55755Y-44881D01*
X55727Y-44813D01*
X55675Y-44761D01*
X55610Y-44734D01*
X55607Y-44731D01*
X55575Y-44718D01*
X55542Y-44718D01*
X55540Y-44718D01*
X55533Y-44716D01*
X55149Y-44716D01*
X55143Y-44718D01*
X54723Y-44718D01*
X54692Y-44731D01*
X54668Y-44755D01*
X54655Y-44786D01*
X54655Y-44820D01*
X54655Y-44977D01*
X54668Y-45008D01*
X54692Y-45032D01*
X54723Y-45045D01*
X54757Y-45045D01*
X55143Y-45045D01*
X55149Y-45046D01*
X55437Y-45046D01*
X55465Y-45074D01*
X55509Y-45093D01*
X55466Y-45110D01*
X55149Y-45110D01*
X55143Y-45111D01*
X54723Y-45111D01*
X54692Y-45124D01*
X54668Y-45148D01*
X54655Y-45179D01*
X54655Y-45213D01*
X54655Y-45371D01*
X54668Y-45402D01*
X54692Y-45426D01*
X54723Y-45439D01*
X54757Y-45439D01*
X55143Y-45439D01*
X55149Y-45440D01*
X55503Y-45440D01*
X55533Y-45453D01*
X55606Y-45453D01*
X55674Y-45425D01*
X55726Y-45373D01*
X55755Y-45305D01*
X55755Y-45231D01*
X55755Y-45631D01*
X55727Y-45563D01*
X55675Y-45511D01*
X55607Y-45483D01*
X55533Y-45483D01*
X55482Y-45504D01*
X55149Y-45504D01*
X54737Y-45504D01*
X53266Y-44033D01*
X53266Y-44033D01*
X53266Y-44033D01*
X53216Y-43983D01*
X53163Y-43947D01*
X53100Y-43935D01*
X52900Y-43935D01*
X52635Y-43935D01*
X52586Y-43915D01*
X52513Y-43914D01*
X52445Y-43943D01*
X52393Y-43995D01*
X52365Y-44063D01*
X52364Y-44136D01*
X52393Y-44204D01*
X52445Y-44256D01*
X52513Y-44284D01*
X52549Y-44285D01*
X52418Y-44285D01*
X51826Y-43693D01*
X51806Y-43645D01*
X51754Y-43593D01*
X51686Y-43565D01*
X51613Y-43564D01*
X51545Y-43593D01*
X51493Y-43645D01*
X51465Y-43713D01*
X51464Y-43786D01*
X51493Y-43854D01*
X51545Y-43906D01*
X51593Y-43926D01*
X52233Y-44566D01*
X52265Y-44588D01*
X52286Y-44602D01*
X52286Y-44602D01*
X52350Y-44615D01*
X52731Y-44615D01*
X52883Y-44766D01*
X52883Y-44766D01*
X52883Y-44766D01*
X54296Y-46179D01*
X54296Y-46179D01*
X54349Y-46215D01*
X54412Y-46227D01*
X55149Y-46227D01*
X55472Y-46227D01*
X55533Y-46253D01*
X55606Y-46253D01*
X55674Y-46225D01*
X55726Y-46173D01*
X55755Y-46105D01*
X55755Y-46031D01*
X55755Y-46431D01*
X55727Y-46363D01*
X55675Y-46311D01*
X55607Y-46283D01*
X55533Y-46283D01*
X55512Y-46291D01*
X55149Y-46291D01*
X55143Y-46292D01*
X54723Y-46292D01*
X54692Y-46305D01*
X54668Y-46329D01*
X54655Y-46361D01*
X54655Y-46394D01*
X54655Y-46552D01*
X54668Y-46583D01*
X54692Y-46607D01*
X54723Y-46620D01*
X54757Y-46620D01*
X55143Y-46620D01*
X55149Y-46621D01*
X55461Y-46621D01*
X55465Y-46624D01*
X55533Y-46653D01*
X55606Y-46653D01*
X55674Y-46625D01*
X55726Y-46573D01*
X55755Y-46505D01*
X55755Y-46431D01*
X55755Y-46831D01*
X55727Y-46763D01*
X55675Y-46711D01*
X55607Y-46683D01*
X55533Y-46683D01*
X55527Y-46685D01*
X55149Y-46685D01*
X54762Y-46685D01*
X54757Y-46683D01*
X54683Y-46683D01*
X54615Y-46711D01*
X54563Y-46763D01*
X54545Y-46805D01*
X54401Y-46805D01*
X52873Y-45276D01*
X52793Y-45223D01*
X52700Y-45204D01*
X52699Y-45205D01*
X51385Y-45205D01*
X51385Y-45108D01*
X51372Y-45076D01*
X51370Y-45074D01*
X51370Y-44975D01*
X51372Y-44973D01*
X51385Y-44941D01*
X51385Y-44908D01*
X51385Y-44358D01*
X51372Y-44326D01*
X51370Y-44324D01*
X51370Y-44050D01*
X51370Y-43875D01*
X51370Y-43700D01*
X51370Y-43550D01*
X51370Y-43526D01*
X51423Y-43473D01*
X51423Y-43473D01*
X51423Y-43473D01*
X53951Y-40945D01*
X56848Y-40945D01*
X56955Y-41051D01*
X56955Y-41898D01*
X56675Y-42177D01*
X56675Y-41768D01*
X56675Y-41735D01*
X56675Y-41223D01*
X56662Y-41192D01*
X56638Y-41168D01*
X56607Y-41155D01*
X56573Y-41155D01*
X55235Y-41155D01*
X55203Y-41168D01*
X55179Y-41192D01*
X55166Y-41223D01*
X55166Y-41257D01*
X55166Y-41768D01*
X55179Y-41800D01*
X55203Y-41824D01*
X55235Y-41836D01*
X55268Y-41836D01*
X55708Y-41836D01*
X55632Y-41912D01*
X55580Y-42038D01*
X55580Y-42173D01*
X55632Y-42299D01*
X55727Y-42395D01*
X55853Y-42447D01*
X55988Y-42447D01*
X56114Y-42395D01*
X56210Y-42299D01*
X56262Y-42174D01*
X56262Y-42038D01*
X56210Y-41913D01*
X56134Y-41836D01*
X56607Y-41836D01*
X56638Y-41824D01*
X56662Y-41800D01*
X56675Y-41768D01*
X56675Y-42177D01*
X56519Y-42333D01*
X56466Y-42413D01*
X56447Y-42507D01*
X56447Y-42507D01*
X56447Y-42551D01*
X56351Y-42551D01*
X56307Y-42533D01*
X56233Y-42533D01*
X56165Y-42561D01*
X56113Y-42613D01*
X56085Y-42681D01*
X56085Y-42754D01*
X56113Y-42822D01*
X56165Y-42874D01*
X56233Y-42903D01*
X56306Y-42903D01*
X56359Y-42881D01*
X56447Y-42881D01*
X56447Y-42945D01*
X56336Y-42945D01*
X56307Y-42933D01*
X56233Y-42933D01*
X56165Y-42961D01*
X56113Y-43013D01*
X56085Y-43081D01*
X56085Y-43154D01*
X56113Y-43222D01*
X56165Y-43274D01*
X56233Y-43303D01*
X56306Y-43303D01*
X56374Y-43275D01*
X56447Y-43275D01*
X56447Y-43338D01*
X56320Y-43338D01*
X56307Y-43333D01*
X56233Y-43333D01*
X56165Y-43361D01*
X56113Y-43413D01*
X56085Y-43481D01*
X56085Y-43554D01*
X56113Y-43622D01*
X56165Y-43674D01*
X56233Y-43703D01*
X56306Y-43703D01*
X56374Y-43675D01*
X56380Y-43668D01*
X56514Y-43668D01*
X56519Y-43677D01*
X56599Y-43730D01*
X56667Y-43743D01*
X56667Y-43762D01*
X56649Y-43743D01*
X56298Y-43743D01*
X56268Y-43743D01*
X56240Y-43755D01*
X56219Y-43776D01*
X56208Y-43803D01*
X56208Y-43853D01*
X56227Y-43872D01*
X56667Y-43872D01*
X56667Y-43864D01*
X56717Y-43864D01*
X56717Y-43872D01*
X57158Y-43872D01*
X57177Y-43853D01*
X57177Y-43803D01*
X57165Y-43776D01*
X57144Y-43755D01*
X57117Y-43743D01*
X57087Y-43743D01*
X56736Y-43743D01*
X56717Y-43762D01*
X56717Y-43743D01*
X56786Y-43730D01*
X56866Y-43677D01*
X56871Y-43668D01*
X57009Y-43668D01*
X57015Y-43674D01*
X57083Y-43703D01*
X57156Y-43703D01*
X57224Y-43675D01*
X57276Y-43623D01*
X57305Y-43555D01*
X57305Y-43481D01*
X57277Y-43413D01*
X57225Y-43361D01*
X57157Y-43333D01*
X57083Y-43333D01*
X57069Y-43338D01*
X56937Y-43338D01*
X56937Y-43275D01*
X57016Y-43275D01*
X57083Y-43303D01*
X57156Y-43303D01*
X57224Y-43275D01*
X57276Y-43223D01*
X57305Y-43155D01*
X57305Y-43081D01*
X57277Y-43013D01*
X57225Y-42961D01*
X57157Y-42933D01*
X57083Y-42933D01*
X57054Y-42945D01*
X56937Y-42945D01*
X56937Y-42881D01*
X57031Y-42881D01*
X57083Y-42903D01*
X57156Y-42903D01*
X57224Y-42875D01*
X57276Y-42823D01*
X57305Y-42755D01*
X57305Y-42681D01*
X57277Y-42613D01*
X57225Y-42561D01*
X57157Y-42533D01*
X57083Y-42533D01*
X57038Y-42551D01*
X56994Y-42551D01*
X57373Y-42173D01*
X57426Y-42093D01*
X57445Y-42000D01*
X57445Y-42000D01*
X57445Y-52678D01*
X57305Y-52817D01*
X57305Y-46231D01*
X57305Y-45831D01*
X57277Y-45763D01*
X57225Y-45711D01*
X57187Y-45695D01*
X57187Y-45568D01*
X57187Y-45534D01*
X57187Y-45376D01*
X57187Y-45174D01*
X57187Y-45140D01*
X57187Y-44983D01*
X57177Y-44958D01*
X57177Y-44778D01*
X57177Y-44728D01*
X57177Y-44641D01*
X57177Y-44591D01*
X57177Y-44384D01*
X57177Y-44335D01*
X57177Y-44247D01*
X57177Y-44197D01*
X57177Y-43991D01*
X57177Y-43941D01*
X57158Y-43922D01*
X56717Y-43922D01*
X56717Y-44032D01*
X56736Y-44051D01*
X57087Y-44051D01*
X57117Y-44051D01*
X57144Y-44039D01*
X57165Y-44018D01*
X57177Y-43991D01*
X57177Y-44197D01*
X57165Y-44170D01*
X57144Y-44149D01*
X57117Y-44137D01*
X57087Y-44137D01*
X56736Y-44137D01*
X56717Y-44156D01*
X56717Y-44266D01*
X57158Y-44266D01*
X57177Y-44247D01*
X57177Y-44335D01*
X57158Y-44316D01*
X56717Y-44316D01*
X56717Y-44426D01*
X56736Y-44445D01*
X57087Y-44445D01*
X57117Y-44445D01*
X57144Y-44433D01*
X57165Y-44412D01*
X57177Y-44384D01*
X57177Y-44591D01*
X57165Y-44563D01*
X57144Y-44542D01*
X57117Y-44531D01*
X57087Y-44531D01*
X56736Y-44531D01*
X56717Y-44550D01*
X56717Y-44660D01*
X57158Y-44660D01*
X57177Y-44641D01*
X57177Y-44728D01*
X57158Y-44710D01*
X56717Y-44710D01*
X56717Y-44820D01*
X56736Y-44838D01*
X57087Y-44838D01*
X57117Y-44838D01*
X57144Y-44827D01*
X57165Y-44806D01*
X57177Y-44778D01*
X57177Y-44958D01*
X57174Y-44951D01*
X57150Y-44927D01*
X57119Y-44915D01*
X57085Y-44915D01*
X56699Y-44915D01*
X56692Y-44913D01*
X56667Y-44913D01*
X56667Y-44820D01*
X56667Y-44710D01*
X56667Y-44660D01*
X56667Y-44550D01*
X56667Y-44426D01*
X56667Y-44316D01*
X56667Y-44266D01*
X56667Y-44156D01*
X56667Y-44032D01*
X56667Y-43922D01*
X56227Y-43922D01*
X56208Y-43941D01*
X56208Y-43991D01*
X56219Y-44018D01*
X56240Y-44039D01*
X56268Y-44051D01*
X56298Y-44051D01*
X56649Y-44051D01*
X56667Y-44032D01*
X56667Y-44156D01*
X56649Y-44137D01*
X56298Y-44137D01*
X56268Y-44137D01*
X56240Y-44149D01*
X56219Y-44170D01*
X56208Y-44197D01*
X56208Y-44247D01*
X56227Y-44266D01*
X56667Y-44266D01*
X56667Y-44316D01*
X56227Y-44316D01*
X56208Y-44335D01*
X56208Y-44384D01*
X56219Y-44412D01*
X56240Y-44433D01*
X56268Y-44445D01*
X56298Y-44445D01*
X56649Y-44445D01*
X56667Y-44426D01*
X56667Y-44550D01*
X56649Y-44531D01*
X56298Y-44531D01*
X56268Y-44531D01*
X56240Y-44542D01*
X56219Y-44563D01*
X56208Y-44591D01*
X56208Y-44641D01*
X56227Y-44660D01*
X56667Y-44660D01*
X56667Y-44710D01*
X56227Y-44710D01*
X56208Y-44728D01*
X56208Y-44778D01*
X56219Y-44806D01*
X56240Y-44827D01*
X56268Y-44838D01*
X56298Y-44838D01*
X56649Y-44838D01*
X56667Y-44820D01*
X56667Y-44913D01*
X56377Y-44913D01*
X56375Y-44911D01*
X56307Y-44883D01*
X56233Y-44883D01*
X56165Y-44911D01*
X56113Y-44963D01*
X56085Y-45031D01*
X56085Y-45104D01*
X56113Y-45172D01*
X56165Y-45224D01*
X56233Y-45253D01*
X56306Y-45253D01*
X56329Y-45243D01*
X56692Y-45243D01*
X56699Y-45242D01*
X57119Y-45242D01*
X57150Y-45229D01*
X57174Y-45205D01*
X57187Y-45174D01*
X57187Y-45376D01*
X57174Y-45345D01*
X57150Y-45321D01*
X57119Y-45308D01*
X57085Y-45308D01*
X56699Y-45308D01*
X56692Y-45307D01*
X56365Y-45307D01*
X56307Y-45283D01*
X56233Y-45283D01*
X56165Y-45311D01*
X56113Y-45363D01*
X56085Y-45431D01*
X56085Y-45504D01*
X56113Y-45572D01*
X56165Y-45624D01*
X56233Y-45653D01*
X56306Y-45653D01*
X56344Y-45637D01*
X56692Y-45637D01*
X56699Y-45636D01*
X57119Y-45636D01*
X57150Y-45623D01*
X57174Y-45599D01*
X57187Y-45568D01*
X57187Y-45695D01*
X57157Y-45683D01*
X57083Y-45683D01*
X57039Y-45701D01*
X56692Y-45701D01*
X56686Y-45702D01*
X56266Y-45702D01*
X56235Y-45715D01*
X56211Y-45739D01*
X56198Y-45770D01*
X56198Y-45804D01*
X56198Y-45961D01*
X56211Y-45993D01*
X56235Y-46016D01*
X56266Y-46029D01*
X56300Y-46029D01*
X56686Y-46029D01*
X56692Y-46031D01*
X57030Y-46031D01*
X57083Y-46053D01*
X57156Y-46053D01*
X57224Y-46025D01*
X57276Y-45973D01*
X57305Y-45905D01*
X57305Y-45831D01*
X57305Y-46231D01*
X57277Y-46163D01*
X57225Y-46111D01*
X57157Y-46083D01*
X57083Y-46083D01*
X57054Y-46094D01*
X56692Y-46094D01*
X56686Y-46096D01*
X56266Y-46096D01*
X56235Y-46109D01*
X56211Y-46132D01*
X56198Y-46164D01*
X56198Y-46198D01*
X56198Y-46355D01*
X56211Y-46386D01*
X56235Y-46410D01*
X56266Y-46423D01*
X56300Y-46423D01*
X56686Y-46423D01*
X56692Y-46424D01*
X57015Y-46424D01*
X57015Y-46424D01*
X57083Y-46453D01*
X57156Y-46453D01*
X57224Y-46425D01*
X57276Y-46373D01*
X57305Y-46305D01*
X57305Y-46231D01*
X57305Y-52817D01*
X57177Y-52945D01*
X57177Y-47534D01*
X57177Y-47484D01*
X57177Y-47397D01*
X57177Y-47347D01*
X57177Y-47140D01*
X57177Y-47090D01*
X57177Y-47003D01*
X57177Y-46953D01*
X57177Y-46747D01*
X57177Y-46697D01*
X57177Y-46609D01*
X57177Y-46559D01*
X57165Y-46532D01*
X57144Y-46511D01*
X57117Y-46499D01*
X57087Y-46499D01*
X56736Y-46499D01*
X56717Y-46518D01*
X56717Y-46628D01*
X57158Y-46628D01*
X57177Y-46609D01*
X57177Y-46697D01*
X57158Y-46678D01*
X56717Y-46678D01*
X56717Y-46788D01*
X56736Y-46807D01*
X57087Y-46807D01*
X57117Y-46807D01*
X57144Y-46795D01*
X57165Y-46774D01*
X57177Y-46747D01*
X57177Y-46953D01*
X57165Y-46926D01*
X57144Y-46904D01*
X57117Y-46893D01*
X57087Y-46893D01*
X56736Y-46893D01*
X56717Y-46912D01*
X56717Y-47022D01*
X57158Y-47022D01*
X57177Y-47003D01*
X57177Y-47090D01*
X57158Y-47072D01*
X56717Y-47072D01*
X56717Y-47182D01*
X56736Y-47200D01*
X57087Y-47200D01*
X57117Y-47200D01*
X57144Y-47189D01*
X57165Y-47168D01*
X57177Y-47140D01*
X57177Y-47347D01*
X57165Y-47319D01*
X57144Y-47298D01*
X57117Y-47287D01*
X57087Y-47287D01*
X56736Y-47287D01*
X56717Y-47305D01*
X56717Y-47415D01*
X57158Y-47415D01*
X57177Y-47397D01*
X57177Y-47484D01*
X57158Y-47465D01*
X56717Y-47465D01*
X56717Y-47575D01*
X56736Y-47594D01*
X57087Y-47594D01*
X57117Y-47594D01*
X57144Y-47583D01*
X57165Y-47562D01*
X57177Y-47534D01*
X57177Y-52945D01*
X56675Y-53447D01*
X56675Y-48934D01*
X56675Y-48900D01*
X56675Y-48388D01*
X56667Y-48370D01*
X56667Y-47575D01*
X56667Y-47465D01*
X56667Y-47415D01*
X56667Y-47305D01*
X56667Y-47182D01*
X56667Y-47072D01*
X56667Y-47022D01*
X56667Y-46912D01*
X56667Y-46788D01*
X56667Y-46678D01*
X56667Y-46628D01*
X56667Y-46518D01*
X56649Y-46499D01*
X56298Y-46499D01*
X56268Y-46499D01*
X56240Y-46511D01*
X56219Y-46532D01*
X56208Y-46559D01*
X56208Y-46609D01*
X56227Y-46628D01*
X56667Y-46628D01*
X56667Y-46678D01*
X56227Y-46678D01*
X56208Y-46697D01*
X56208Y-46747D01*
X56219Y-46774D01*
X56240Y-46795D01*
X56268Y-46807D01*
X56298Y-46807D01*
X56649Y-46807D01*
X56667Y-46788D01*
X56667Y-46912D01*
X56649Y-46893D01*
X56298Y-46893D01*
X56268Y-46893D01*
X56240Y-46904D01*
X56219Y-46926D01*
X56208Y-46953D01*
X56208Y-47003D01*
X56227Y-47022D01*
X56667Y-47022D01*
X56667Y-47072D01*
X56227Y-47072D01*
X56208Y-47090D01*
X56208Y-47140D01*
X56219Y-47168D01*
X56240Y-47189D01*
X56268Y-47200D01*
X56298Y-47200D01*
X56649Y-47200D01*
X56667Y-47182D01*
X56667Y-47305D01*
X56649Y-47287D01*
X56298Y-47287D01*
X56268Y-47287D01*
X56240Y-47298D01*
X56219Y-47319D01*
X56208Y-47347D01*
X56208Y-47397D01*
X56227Y-47415D01*
X56667Y-47415D01*
X56667Y-47465D01*
X56227Y-47465D01*
X56208Y-47484D01*
X56208Y-47534D01*
X56219Y-47562D01*
X56240Y-47583D01*
X56268Y-47594D01*
X56298Y-47594D01*
X56649Y-47594D01*
X56667Y-47575D01*
X56667Y-48370D01*
X56662Y-48357D01*
X56638Y-48333D01*
X56607Y-48320D01*
X56573Y-48320D01*
X56133Y-48320D01*
X56210Y-48244D01*
X56262Y-48119D01*
X56262Y-47983D01*
X56210Y-47858D01*
X56114Y-47762D01*
X55989Y-47710D01*
X55853Y-47710D01*
X55728Y-47762D01*
X55632Y-47857D01*
X55580Y-47983D01*
X55580Y-48118D01*
X55632Y-48244D01*
X55708Y-48320D01*
X55235Y-48320D01*
X55203Y-48333D01*
X55179Y-48357D01*
X55166Y-48388D01*
X55166Y-48422D01*
X55166Y-48934D01*
X55179Y-48965D01*
X55203Y-48989D01*
X55235Y-49002D01*
X55268Y-49002D01*
X56607Y-49002D01*
X56638Y-48989D01*
X56662Y-48965D01*
X56675Y-48934D01*
X56675Y-53447D01*
X55084Y-55038D01*
X52505Y-55038D01*
X52505Y-54135D01*
X52505Y-52836D01*
X52456Y-52718D01*
X52366Y-52628D01*
X52248Y-52579D01*
X52120Y-52579D01*
X52002Y-52627D01*
X51912Y-52718D01*
X51863Y-52836D01*
X51862Y-52964D01*
X51911Y-53082D01*
X52002Y-53172D01*
X52120Y-53221D01*
X52247Y-53221D01*
X52365Y-53172D01*
X52456Y-53082D01*
X52505Y-52964D01*
X52505Y-52836D01*
X52505Y-54135D01*
X52456Y-54017D01*
X52366Y-53927D01*
X52248Y-53878D01*
X52120Y-53878D01*
X52002Y-53927D01*
X51912Y-54017D01*
X51863Y-54135D01*
X51862Y-54263D01*
X51911Y-54381D01*
X52002Y-54471D01*
X52120Y-54520D01*
X52247Y-54520D01*
X52365Y-54472D01*
X52456Y-54381D01*
X52505Y-54263D01*
X52505Y-54135D01*
X52505Y-55038D01*
X50537Y-55038D01*
X50537Y-54135D01*
X50488Y-54017D01*
X50460Y-53990D01*
X50460Y-53109D01*
X50487Y-53082D01*
X50536Y-52964D01*
X50537Y-52836D01*
X50488Y-52718D01*
X50460Y-52691D01*
X50460Y-52415D01*
X50460Y-51715D01*
X50442Y-51621D01*
X50388Y-51542D01*
X50388Y-51542D01*
X49947Y-51100D01*
X49947Y-49756D01*
X49835Y-49485D01*
X49629Y-49279D01*
X49359Y-49167D01*
X49067Y-49166D01*
X48797Y-49278D01*
X48590Y-49484D01*
X48478Y-49754D01*
X48477Y-50047D01*
X48589Y-50317D01*
X48795Y-50523D01*
X49065Y-50636D01*
X49358Y-50636D01*
X49628Y-50524D01*
X49835Y-50318D01*
X49947Y-50048D01*
X49947Y-49756D01*
X49947Y-51100D01*
X49673Y-50826D01*
X49593Y-50773D01*
X49500Y-50754D01*
X49499Y-50755D01*
X48851Y-50755D01*
X48425Y-50328D01*
X48395Y-50298D01*
X48395Y-50100D01*
X48376Y-50006D01*
X48323Y-49926D01*
X48323Y-49926D01*
X48123Y-49726D01*
X48043Y-49673D01*
X47950Y-49654D01*
X47949Y-49655D01*
X47350Y-49655D01*
X46900Y-49655D01*
X46900Y-49654D01*
X46806Y-49673D01*
X46726Y-49726D01*
X46628Y-49825D01*
X45958Y-49825D01*
X45826Y-49693D01*
X45806Y-49645D01*
X45756Y-49595D01*
X46600Y-49595D01*
X46999Y-49595D01*
X47000Y-49595D01*
X47000Y-49595D01*
X47093Y-49576D01*
X47173Y-49523D01*
X47471Y-49225D01*
X48425Y-49225D01*
X48425Y-44725D01*
X47540Y-44725D01*
X47540Y-44515D01*
X47527Y-44483D01*
X47503Y-44459D01*
X47472Y-44447D01*
X47438Y-44447D01*
X47281Y-44447D01*
X47250Y-44459D01*
X47226Y-44483D01*
X47213Y-44515D01*
X47213Y-44548D01*
X47213Y-44725D01*
X47186Y-44725D01*
X47186Y-44657D01*
X47188Y-44650D01*
X47186Y-44642D01*
X47186Y-44515D01*
X47173Y-44483D01*
X47149Y-44459D01*
X47118Y-44447D01*
X47084Y-44447D01*
X46927Y-44447D01*
X46896Y-44459D01*
X46872Y-44483D01*
X46871Y-44485D01*
X46626Y-44485D01*
X46656Y-44454D01*
X46676Y-44406D01*
X46766Y-44316D01*
X46766Y-44316D01*
X46766Y-44316D01*
X46816Y-44266D01*
X46816Y-44266D01*
X46816Y-44266D01*
X46818Y-44265D01*
X50264Y-44265D01*
X50313Y-44284D01*
X50386Y-44285D01*
X50454Y-44256D01*
X50506Y-44204D01*
X50534Y-44136D01*
X50535Y-44063D01*
X50506Y-43995D01*
X50454Y-43943D01*
X50410Y-43924D01*
X50454Y-43906D01*
X50506Y-43854D01*
X50534Y-43786D01*
X50535Y-43713D01*
X50506Y-43645D01*
X50454Y-43593D01*
X50386Y-43565D01*
X50313Y-43564D01*
X50264Y-43585D01*
X46600Y-43585D01*
X46536Y-43597D01*
X46483Y-43633D01*
X46083Y-44033D01*
X46047Y-44086D01*
X46046Y-44091D01*
X46043Y-44095D01*
X46015Y-44163D01*
X46014Y-44236D01*
X46043Y-44304D01*
X46095Y-44356D01*
X46163Y-44384D01*
X46236Y-44385D01*
X46304Y-44356D01*
X46315Y-44346D01*
X46314Y-44386D01*
X46343Y-44454D01*
X46373Y-44485D01*
X46250Y-44485D01*
X46000Y-44485D01*
X45936Y-44497D01*
X45883Y-44533D01*
X45691Y-44725D01*
X45675Y-44725D01*
X45675Y-44741D01*
X45606Y-44810D01*
X45570Y-44863D01*
X45558Y-44927D01*
X45558Y-47150D01*
X45558Y-47158D01*
X45533Y-47183D01*
X45497Y-47236D01*
X45485Y-47300D01*
X45485Y-48864D01*
X45465Y-48913D01*
X45464Y-48986D01*
X45493Y-49054D01*
X45543Y-49105D01*
X45050Y-49105D01*
X45050Y-49104D01*
X44971Y-49120D01*
X44956Y-49123D01*
X44876Y-49176D01*
X44876Y-49176D01*
X44876Y-49176D01*
X44676Y-49376D01*
X44676Y-49376D01*
X43898Y-50155D01*
X43258Y-50155D01*
X43258Y-49131D01*
X43258Y-49097D01*
X43258Y-48585D01*
X43245Y-48554D01*
X43221Y-48530D01*
X43190Y-48517D01*
X43156Y-48517D01*
X42716Y-48517D01*
X42792Y-48441D01*
X42844Y-48316D01*
X42844Y-48180D01*
X42793Y-48055D01*
X42697Y-47959D01*
X42572Y-47907D01*
X42436Y-47907D01*
X42311Y-47958D01*
X42216Y-48053D01*
X42216Y-47731D01*
X42216Y-47681D01*
X42216Y-47594D01*
X42216Y-47544D01*
X42216Y-47337D01*
X42216Y-47287D01*
X42216Y-47200D01*
X42216Y-47150D01*
X42205Y-47122D01*
X42184Y-47101D01*
X42156Y-47090D01*
X42126Y-47090D01*
X41776Y-47090D01*
X41757Y-47109D01*
X41757Y-47219D01*
X42197Y-47219D01*
X42216Y-47200D01*
X42216Y-47287D01*
X42197Y-47269D01*
X41757Y-47269D01*
X41757Y-47379D01*
X41776Y-47397D01*
X42126Y-47397D01*
X42156Y-47397D01*
X42184Y-47386D01*
X42205Y-47365D01*
X42216Y-47337D01*
X42216Y-47544D01*
X42205Y-47516D01*
X42184Y-47495D01*
X42156Y-47484D01*
X42126Y-47484D01*
X41776Y-47484D01*
X41757Y-47502D01*
X41757Y-47612D01*
X42197Y-47612D01*
X42216Y-47594D01*
X42216Y-47681D01*
X42197Y-47662D01*
X41757Y-47662D01*
X41757Y-47772D01*
X41776Y-47791D01*
X42126Y-47791D01*
X42156Y-47791D01*
X42184Y-47780D01*
X42205Y-47759D01*
X42216Y-47731D01*
X42216Y-48053D01*
X42215Y-48054D01*
X42163Y-48179D01*
X42162Y-48315D01*
X42214Y-48440D01*
X42291Y-48517D01*
X41817Y-48517D01*
X41786Y-48530D01*
X41762Y-48554D01*
X41749Y-48585D01*
X41749Y-48619D01*
X41749Y-49131D01*
X41762Y-49162D01*
X41786Y-49186D01*
X41817Y-49199D01*
X41851Y-49199D01*
X43190Y-49199D01*
X43221Y-49186D01*
X43245Y-49162D01*
X43258Y-49131D01*
X43258Y-50155D01*
X43246Y-50155D01*
X43230Y-50130D01*
X43106Y-50047D01*
X42960Y-50018D01*
X42339Y-50018D01*
X42193Y-50047D01*
X42103Y-50107D01*
X41707Y-49710D01*
X41707Y-47772D01*
X41707Y-47662D01*
X41707Y-47612D01*
X41707Y-47502D01*
X41707Y-47379D01*
X41707Y-47269D01*
X41707Y-47219D01*
X41707Y-47109D01*
X41688Y-47090D01*
X41337Y-47090D01*
X41307Y-47090D01*
X41280Y-47101D01*
X41259Y-47122D01*
X41247Y-47150D01*
X41247Y-47200D01*
X41266Y-47219D01*
X41707Y-47219D01*
X41707Y-47269D01*
X41266Y-47269D01*
X41247Y-47287D01*
X41247Y-47337D01*
X41259Y-47365D01*
X41280Y-47386D01*
X41307Y-47397D01*
X41337Y-47397D01*
X41688Y-47397D01*
X41707Y-47379D01*
X41707Y-47502D01*
X41688Y-47484D01*
X41337Y-47484D01*
X41307Y-47484D01*
X41280Y-47495D01*
X41259Y-47516D01*
X41247Y-47544D01*
X41247Y-47594D01*
X41266Y-47612D01*
X41707Y-47612D01*
X41707Y-47662D01*
X41266Y-47662D01*
X41247Y-47681D01*
X41247Y-47731D01*
X41259Y-47759D01*
X41280Y-47780D01*
X41307Y-47791D01*
X41337Y-47791D01*
X41688Y-47791D01*
X41707Y-47772D01*
X41707Y-49710D01*
X40695Y-48698D01*
X40695Y-45318D01*
X40695Y-45318D01*
X40695Y-45318D01*
X40676Y-45224D01*
X40623Y-45144D01*
X40413Y-44935D01*
X40413Y-44826D01*
X40356Y-44686D01*
X40249Y-44579D01*
X40109Y-44521D01*
X39958Y-44521D01*
X39818Y-44579D01*
X39711Y-44685D01*
X39653Y-44825D01*
X39653Y-44976D01*
X39710Y-45116D01*
X39817Y-45223D01*
X39957Y-45281D01*
X40067Y-45281D01*
X40205Y-45419D01*
X40205Y-48799D01*
X40204Y-48800D01*
X40223Y-48893D01*
X40276Y-48973D01*
X41876Y-50573D01*
X41876Y-50573D01*
X41876Y-50573D01*
X41956Y-50626D01*
X42050Y-50645D01*
X42050Y-50645D01*
X42050Y-50645D01*
X42053Y-50645D01*
X42069Y-50669D01*
X42193Y-50752D01*
X42339Y-50781D01*
X42960Y-50781D01*
X43106Y-50752D01*
X43230Y-50669D01*
X43246Y-50645D01*
X43999Y-50645D01*
X44000Y-50645D01*
X44000Y-50645D01*
X44093Y-50626D01*
X44173Y-50573D01*
X45023Y-49723D01*
X45023Y-49723D01*
X45151Y-49595D01*
X45543Y-49595D01*
X45493Y-49645D01*
X45465Y-49713D01*
X45464Y-49786D01*
X45493Y-49854D01*
X45545Y-49906D01*
X45593Y-49926D01*
X45725Y-50058D01*
X45725Y-50280D01*
X45325Y-50280D01*
X45325Y-50279D01*
X45246Y-50295D01*
X45231Y-50298D01*
X45151Y-50351D01*
X45151Y-50351D01*
X44348Y-51155D01*
X43246Y-51155D01*
X43230Y-51130D01*
X43106Y-51047D01*
X42960Y-51018D01*
X42339Y-51018D01*
X42193Y-51047D01*
X42069Y-51130D01*
X42053Y-51155D01*
X41633Y-51155D01*
X40413Y-49935D01*
X40413Y-49826D01*
X40356Y-49686D01*
X40249Y-49579D01*
X40109Y-49521D01*
X39958Y-49521D01*
X39818Y-49579D01*
X39711Y-49685D01*
X39653Y-49825D01*
X39653Y-49976D01*
X39710Y-50116D01*
X39817Y-50223D01*
X39957Y-50281D01*
X40067Y-50281D01*
X41358Y-51573D01*
X41358Y-51573D01*
X41358Y-51573D01*
X41438Y-51626D01*
X41531Y-51645D01*
X41531Y-51645D01*
X41531Y-51645D01*
X42053Y-51645D01*
X42069Y-51669D01*
X42193Y-51752D01*
X42339Y-51781D01*
X42960Y-51781D01*
X43106Y-51752D01*
X43230Y-51669D01*
X43246Y-51645D01*
X44449Y-51645D01*
X44450Y-51645D01*
X44450Y-51645D01*
X44543Y-51626D01*
X44623Y-51573D01*
X45426Y-50770D01*
X45725Y-50770D01*
X45725Y-51025D01*
X45810Y-51025D01*
X45782Y-51036D01*
X45761Y-51057D01*
X45750Y-51085D01*
X45750Y-51231D01*
X45768Y-51250D01*
X46075Y-51250D01*
X46075Y-51043D01*
X46056Y-51025D01*
X46143Y-51025D01*
X46125Y-51043D01*
X46125Y-51250D01*
X46431Y-51250D01*
X46450Y-51231D01*
X46450Y-51085D01*
X46438Y-51057D01*
X46417Y-51036D01*
X46389Y-51025D01*
X47075Y-51025D01*
X47075Y-50570D01*
X47085Y-50575D01*
X47156Y-50575D01*
X47175Y-50556D01*
X47175Y-50375D01*
X47167Y-50375D01*
X47167Y-50325D01*
X47175Y-50325D01*
X47175Y-50317D01*
X47225Y-50317D01*
X47225Y-50325D01*
X47356Y-50325D01*
X47375Y-50306D01*
X47375Y-50214D01*
X47375Y-50185D01*
X47363Y-50157D01*
X47351Y-50145D01*
X47409Y-50145D01*
X47402Y-50151D01*
X47390Y-50183D01*
X47390Y-50216D01*
X47390Y-50516D01*
X47402Y-50548D01*
X47417Y-50562D01*
X47417Y-50562D01*
X47422Y-50588D01*
X47458Y-50641D01*
X48425Y-51608D01*
X48485Y-51668D01*
X48485Y-51671D01*
X48483Y-51672D01*
X48459Y-51696D01*
X48447Y-51727D01*
X48447Y-51761D01*
X48447Y-51918D01*
X48459Y-51949D01*
X48483Y-51973D01*
X48515Y-51986D01*
X48548Y-51986D01*
X48642Y-51986D01*
X48650Y-51988D01*
X48657Y-51986D01*
X48784Y-51986D01*
X48816Y-51973D01*
X48840Y-51949D01*
X48853Y-51918D01*
X48853Y-51884D01*
X48853Y-51727D01*
X48840Y-51696D01*
X48816Y-51672D01*
X48815Y-51671D01*
X48815Y-51600D01*
X48802Y-51536D01*
X48766Y-51483D01*
X48766Y-51483D01*
X48425Y-51141D01*
X47760Y-50476D01*
X47760Y-50183D01*
X47747Y-50151D01*
X47740Y-50145D01*
X47848Y-50145D01*
X47905Y-50201D01*
X47905Y-50350D01*
X47905Y-50399D01*
X47904Y-50400D01*
X47923Y-50493D01*
X47976Y-50573D01*
X48425Y-51021D01*
X48576Y-51173D01*
X48576Y-51173D01*
X48656Y-51226D01*
X48750Y-51245D01*
X49398Y-51245D01*
X49970Y-51817D01*
X49970Y-52415D01*
X49970Y-52691D01*
X49943Y-52718D01*
X49894Y-52836D01*
X49894Y-52964D01*
X49943Y-53082D01*
X49970Y-53109D01*
X49970Y-53990D01*
X49943Y-54017D01*
X49894Y-54135D01*
X49894Y-54263D01*
X49928Y-54344D01*
X49715Y-54131D01*
X49715Y-52600D01*
X49702Y-52536D01*
X49666Y-52483D01*
X49666Y-52483D01*
X49243Y-52060D01*
X49190Y-52024D01*
X49127Y-52012D01*
X48827Y-52012D01*
X48650Y-52012D01*
X48642Y-52013D01*
X48515Y-52013D01*
X48483Y-52026D01*
X48459Y-52050D01*
X48447Y-52081D01*
X48447Y-52115D01*
X48447Y-52272D01*
X48459Y-52303D01*
X48461Y-52305D01*
X48425Y-52305D01*
X48353Y-52305D01*
X48353Y-51918D01*
X48353Y-51884D01*
X48353Y-51727D01*
X48340Y-51696D01*
X48316Y-51672D01*
X48315Y-51671D01*
X48315Y-51600D01*
X48302Y-51536D01*
X48266Y-51483D01*
X48266Y-51483D01*
X48216Y-51433D01*
X48216Y-51433D01*
X48216Y-51433D01*
X48016Y-51233D01*
X47963Y-51197D01*
X47900Y-51185D01*
X47760Y-51185D01*
X47760Y-51183D01*
X47747Y-51151D01*
X47723Y-51127D01*
X47691Y-51115D01*
X47658Y-51115D01*
X47458Y-51115D01*
X47426Y-51127D01*
X47402Y-51151D01*
X47390Y-51183D01*
X47390Y-51216D01*
X47390Y-51516D01*
X47402Y-51548D01*
X47426Y-51572D01*
X47458Y-51585D01*
X47491Y-51585D01*
X47691Y-51585D01*
X47723Y-51572D01*
X47747Y-51548D01*
X47760Y-51516D01*
X47760Y-51515D01*
X47831Y-51515D01*
X47983Y-51666D01*
X47983Y-51666D01*
X47983Y-51666D01*
X47985Y-51668D01*
X47985Y-51671D01*
X47983Y-51672D01*
X47959Y-51696D01*
X47947Y-51727D01*
X47947Y-51761D01*
X47947Y-51918D01*
X47959Y-51949D01*
X47983Y-51973D01*
X48015Y-51986D01*
X48048Y-51986D01*
X48142Y-51986D01*
X48150Y-51988D01*
X48157Y-51986D01*
X48284Y-51986D01*
X48316Y-51973D01*
X48340Y-51949D01*
X48353Y-51918D01*
X48353Y-52305D01*
X48324Y-52305D01*
X48331Y-52297D01*
X48343Y-52270D01*
X48343Y-52220D01*
X48343Y-52133D01*
X48343Y-52083D01*
X48331Y-52056D01*
X48310Y-52034D01*
X48282Y-52023D01*
X48253Y-52023D01*
X48193Y-52023D01*
X48175Y-52042D01*
X48175Y-52152D01*
X48324Y-52152D01*
X48343Y-52133D01*
X48343Y-52220D01*
X48324Y-52202D01*
X48175Y-52202D01*
X48175Y-52209D01*
X48125Y-52209D01*
X48125Y-52202D01*
X48125Y-52152D01*
X48125Y-52042D01*
X48106Y-52023D01*
X48046Y-52023D01*
X48017Y-52023D01*
X47989Y-52034D01*
X47968Y-52056D01*
X47957Y-52083D01*
X47957Y-52133D01*
X47975Y-52152D01*
X48125Y-52152D01*
X48125Y-52202D01*
X47975Y-52202D01*
X47957Y-52220D01*
X47957Y-52270D01*
X47968Y-52297D01*
X47975Y-52305D01*
X47818Y-52305D01*
X47825Y-52289D01*
X47825Y-52260D01*
X47825Y-52043D01*
X47825Y-51956D01*
X47825Y-51739D01*
X47825Y-51710D01*
X47813Y-51682D01*
X47792Y-51661D01*
X47764Y-51650D01*
X47618Y-51650D01*
X47600Y-51668D01*
X47600Y-51975D01*
X47806Y-51975D01*
X47825Y-51956D01*
X47825Y-52043D01*
X47806Y-52025D01*
X47600Y-52025D01*
X47600Y-52032D01*
X47550Y-52032D01*
X47550Y-52025D01*
X47550Y-51975D01*
X47550Y-51668D01*
X47531Y-51650D01*
X47385Y-51650D01*
X47375Y-51654D01*
X47375Y-50514D01*
X47375Y-50485D01*
X47375Y-50393D01*
X47356Y-50375D01*
X47225Y-50375D01*
X47225Y-50556D01*
X47243Y-50575D01*
X47314Y-50575D01*
X47342Y-50563D01*
X47363Y-50542D01*
X47375Y-50514D01*
X47375Y-51654D01*
X47357Y-51661D01*
X47336Y-51682D01*
X47325Y-51710D01*
X47325Y-51739D01*
X47325Y-51956D01*
X47343Y-51975D01*
X47550Y-51975D01*
X47550Y-52025D01*
X47343Y-52025D01*
X47325Y-52043D01*
X47325Y-52260D01*
X47325Y-52289D01*
X47331Y-52305D01*
X47079Y-52305D01*
X47085Y-52291D01*
X47085Y-52258D01*
X47085Y-51708D01*
X47075Y-51683D01*
X47072Y-51676D01*
X47048Y-51652D01*
X47016Y-51640D01*
X46990Y-51640D01*
X46990Y-51555D01*
X46997Y-51548D01*
X47010Y-51516D01*
X47010Y-51483D01*
X47010Y-51183D01*
X46997Y-51151D01*
X46973Y-51127D01*
X46941Y-51115D01*
X46908Y-51115D01*
X46708Y-51115D01*
X46676Y-51127D01*
X46652Y-51151D01*
X46640Y-51183D01*
X46640Y-51216D01*
X46640Y-51516D01*
X46652Y-51548D01*
X46660Y-51555D01*
X46660Y-51640D01*
X46633Y-51640D01*
X46601Y-51652D01*
X46577Y-51676D01*
X46565Y-51708D01*
X46565Y-51741D01*
X46565Y-52291D01*
X46568Y-52300D01*
X46536Y-52347D01*
X46524Y-52411D01*
X46524Y-52549D01*
X46521Y-52551D01*
X46505Y-52590D01*
X46505Y-52631D01*
X46505Y-53161D01*
X46521Y-53200D01*
X46551Y-53230D01*
X46589Y-53246D01*
X46631Y-53246D01*
X46788Y-53246D01*
X46817Y-53234D01*
X46845Y-53246D01*
X46887Y-53246D01*
X47044Y-53246D01*
X47072Y-53234D01*
X47075Y-53235D01*
X47100Y-53246D01*
X47142Y-53246D01*
X47299Y-53246D01*
X47327Y-53234D01*
X47355Y-53246D01*
X47397Y-53246D01*
X47554Y-53246D01*
X47592Y-53230D01*
X47610Y-53212D01*
X47617Y-53216D01*
X47667Y-53216D01*
X47686Y-53197D01*
X47686Y-52901D01*
X47678Y-52901D01*
X47678Y-52851D01*
X47686Y-52851D01*
X47686Y-52843D01*
X47736Y-52843D01*
X47736Y-52851D01*
X47845Y-52851D01*
X47864Y-52832D01*
X47864Y-52625D01*
X47864Y-52596D01*
X47864Y-52595D01*
X47922Y-52595D01*
X47922Y-52628D01*
X47922Y-53257D01*
X47935Y-53288D01*
X47959Y-53312D01*
X47990Y-53325D01*
X48024Y-53325D01*
X48425Y-53325D01*
X48849Y-53325D01*
X48880Y-53312D01*
X48904Y-53288D01*
X48917Y-53257D01*
X48917Y-53223D01*
X48917Y-52600D01*
X49090Y-52773D01*
X49090Y-53481D01*
X49066Y-53471D01*
X49032Y-53471D01*
X48425Y-53471D01*
X48325Y-53471D01*
X48294Y-53484D01*
X48270Y-53508D01*
X48257Y-53539D01*
X48257Y-53573D01*
X48257Y-54320D01*
X48270Y-54351D01*
X48294Y-54375D01*
X48325Y-54388D01*
X48359Y-54388D01*
X48425Y-54388D01*
X49066Y-54388D01*
X49090Y-54378D01*
X49090Y-54508D01*
X49081Y-54508D01*
X49049Y-54520D01*
X49025Y-54544D01*
X49013Y-54576D01*
X49013Y-54609D01*
X49013Y-54923D01*
X49025Y-54955D01*
X49049Y-54979D01*
X49081Y-54992D01*
X49114Y-54992D01*
X49428Y-54992D01*
X49460Y-54979D01*
X49484Y-54955D01*
X49497Y-54923D01*
X49497Y-54890D01*
X49497Y-54576D01*
X49484Y-54544D01*
X49460Y-54520D01*
X49428Y-54508D01*
X49420Y-54508D01*
X49420Y-54296D01*
X49433Y-54316D01*
X49638Y-54522D01*
X49615Y-54544D01*
X49603Y-54576D01*
X49603Y-54609D01*
X49603Y-54923D01*
X49615Y-54955D01*
X49639Y-54979D01*
X49671Y-54992D01*
X49704Y-54992D01*
X50018Y-54992D01*
X50050Y-54979D01*
X50074Y-54955D01*
X50087Y-54923D01*
X50087Y-54890D01*
X50087Y-54576D01*
X50074Y-54544D01*
X50050Y-54520D01*
X50018Y-54508D01*
X50010Y-54508D01*
X50010Y-54495D01*
X49998Y-54436D01*
X50033Y-54471D01*
X50151Y-54520D01*
X50279Y-54520D01*
X50397Y-54472D01*
X50487Y-54381D01*
X50536Y-54263D01*
X50537Y-54135D01*
X50537Y-55038D01*
X48425Y-55038D01*
X48131Y-55038D01*
X48131Y-54320D01*
X48131Y-54286D01*
X48131Y-53539D01*
X48118Y-53508D01*
X48094Y-53484D01*
X48062Y-53471D01*
X48029Y-53471D01*
X47864Y-53471D01*
X47864Y-53155D01*
X47864Y-53126D01*
X47864Y-52919D01*
X47845Y-52901D01*
X47736Y-52901D01*
X47736Y-53197D01*
X47754Y-53216D01*
X47804Y-53216D01*
X47831Y-53204D01*
X47853Y-53183D01*
X47864Y-53155D01*
X47864Y-53471D01*
X47281Y-53471D01*
X47249Y-53484D01*
X47225Y-53508D01*
X47213Y-53539D01*
X47213Y-53573D01*
X47213Y-54320D01*
X47225Y-54351D01*
X47249Y-54375D01*
X47281Y-54388D01*
X47314Y-54388D01*
X48062Y-54388D01*
X48094Y-54375D01*
X48118Y-54351D01*
X48131Y-54320D01*
X48131Y-55038D01*
X47186Y-55038D01*
X47186Y-54320D01*
X47186Y-54286D01*
X47186Y-53539D01*
X47173Y-53508D01*
X47149Y-53484D01*
X47118Y-53471D01*
X47084Y-53471D01*
X47075Y-53471D01*
X46477Y-53471D01*
X46477Y-53257D01*
X46477Y-53223D01*
X46477Y-52594D01*
X46464Y-52563D01*
X46450Y-52548D01*
X46450Y-51464D01*
X46450Y-51318D01*
X46431Y-51300D01*
X46125Y-51300D01*
X46125Y-51506D01*
X46143Y-51525D01*
X46360Y-51525D01*
X46389Y-51525D01*
X46417Y-51513D01*
X46438Y-51492D01*
X46450Y-51464D01*
X46450Y-52548D01*
X46440Y-52539D01*
X46409Y-52526D01*
X46375Y-52526D01*
X46075Y-52526D01*
X46075Y-51506D01*
X46075Y-51300D01*
X45768Y-51300D01*
X45750Y-51318D01*
X45750Y-51464D01*
X45761Y-51492D01*
X45782Y-51513D01*
X45810Y-51525D01*
X45839Y-51525D01*
X46056Y-51525D01*
X46075Y-51506D01*
X46075Y-52526D01*
X45550Y-52526D01*
X45519Y-52539D01*
X45495Y-52563D01*
X45482Y-52594D01*
X45482Y-52628D01*
X45482Y-53257D01*
X45495Y-53288D01*
X45519Y-53312D01*
X45550Y-53325D01*
X45584Y-53325D01*
X46409Y-53325D01*
X46440Y-53312D01*
X46464Y-53288D01*
X46477Y-53257D01*
X46477Y-53471D01*
X46337Y-53471D01*
X46306Y-53484D01*
X46282Y-53508D01*
X46269Y-53539D01*
X46269Y-53573D01*
X46269Y-54320D01*
X46282Y-54351D01*
X46306Y-54375D01*
X46337Y-54388D01*
X46371Y-54388D01*
X47075Y-54388D01*
X47118Y-54388D01*
X47149Y-54375D01*
X47173Y-54351D01*
X47186Y-54320D01*
X47186Y-55038D01*
X47075Y-55038D01*
X46142Y-55038D01*
X46142Y-54320D01*
X46142Y-54286D01*
X46142Y-53539D01*
X46129Y-53508D01*
X46105Y-53484D01*
X46074Y-53471D01*
X46040Y-53471D01*
X45333Y-53471D01*
X45302Y-53484D01*
X45278Y-53508D01*
X45265Y-53539D01*
X45265Y-53573D01*
X45265Y-54320D01*
X45278Y-54351D01*
X45302Y-54375D01*
X45333Y-54388D01*
X45367Y-54388D01*
X46074Y-54388D01*
X46105Y-54375D01*
X46129Y-54351D01*
X46142Y-54320D01*
X46142Y-55038D01*
X43340Y-55038D01*
X39450Y-51147D01*
X39450Y-39403D01*
X43340Y-35513D01*
X55084Y-35513D01*
X58975Y-39403D01*
X58975Y-51147D01*
G54D10*
G36*
X46905Y-50855D02*
X46820Y-50855D01*
X46820Y-50608D01*
X46820Y-50355D01*
X46820Y-50345D01*
X46820Y-50091D01*
X46783Y-50055D01*
X46696Y-50055D01*
X46642Y-50077D01*
X46602Y-50117D01*
X46580Y-50171D01*
X46580Y-50228D01*
X46580Y-50308D01*
X46616Y-50345D01*
X46820Y-50345D01*
X46820Y-50355D01*
X46616Y-50355D01*
X46580Y-50391D01*
X46580Y-50471D01*
X46580Y-50528D01*
X46602Y-50582D01*
X46642Y-50622D01*
X46696Y-50645D01*
X46783Y-50645D01*
X46820Y-50608D01*
X46820Y-50855D01*
X46520Y-50855D01*
X46520Y-50728D01*
X46520Y-50566D01*
X46520Y-50483D01*
X46520Y-50321D01*
X46497Y-50267D01*
X46457Y-50227D01*
X46403Y-50205D01*
X46346Y-50205D01*
X46141Y-50205D01*
X46105Y-50241D01*
X46105Y-50520D01*
X46483Y-50520D01*
X46520Y-50483D01*
X46520Y-50566D01*
X46483Y-50530D01*
X46105Y-50530D01*
X46105Y-50808D01*
X46141Y-50845D01*
X46346Y-50845D01*
X46403Y-50845D01*
X46457Y-50822D01*
X46497Y-50782D01*
X46520Y-50728D01*
X46520Y-50855D01*
X45895Y-50855D01*
X45895Y-50845D01*
X46058Y-50845D01*
X46095Y-50808D01*
X46095Y-50530D01*
X46087Y-50530D01*
X46087Y-50520D01*
X46095Y-50520D01*
X46095Y-50241D01*
X46058Y-50205D01*
X45895Y-50205D01*
X45895Y-49995D01*
X46905Y-49995D01*
X46905Y-50055D01*
X46866Y-50055D01*
X46830Y-50091D01*
X46830Y-50345D01*
X46837Y-50345D01*
X46837Y-50355D01*
X46830Y-50355D01*
X46830Y-50608D01*
X46866Y-50645D01*
X46905Y-50645D01*
X46905Y-50855D01*
X46905Y-50855D01*
G37*
G54D45*
X46905Y-50855D02*
X46820Y-50855D01*
X46820Y-50608D01*
X46820Y-50355D01*
X46820Y-50345D01*
X46820Y-50091D01*
X46783Y-50055D01*
X46696Y-50055D01*
X46642Y-50077D01*
X46602Y-50117D01*
X46580Y-50171D01*
X46580Y-50228D01*
X46580Y-50308D01*
X46616Y-50345D01*
X46820Y-50345D01*
X46820Y-50355D01*
X46616Y-50355D01*
X46580Y-50391D01*
X46580Y-50471D01*
X46580Y-50528D01*
X46602Y-50582D01*
X46642Y-50622D01*
X46696Y-50645D01*
X46783Y-50645D01*
X46820Y-50608D01*
X46820Y-50855D01*
X46520Y-50855D01*
X46520Y-50728D01*
X46520Y-50566D01*
X46520Y-50483D01*
X46520Y-50321D01*
X46497Y-50267D01*
X46457Y-50227D01*
X46403Y-50205D01*
X46346Y-50205D01*
X46141Y-50205D01*
X46105Y-50241D01*
X46105Y-50520D01*
X46483Y-50520D01*
X46520Y-50483D01*
X46520Y-50566D01*
X46483Y-50530D01*
X46105Y-50530D01*
X46105Y-50808D01*
X46141Y-50845D01*
X46346Y-50845D01*
X46403Y-50845D01*
X46457Y-50822D01*
X46497Y-50782D01*
X46520Y-50728D01*
X46520Y-50855D01*
X45895Y-50855D01*
X45895Y-50845D01*
X46058Y-50845D01*
X46095Y-50808D01*
X46095Y-50530D01*
X46087Y-50530D01*
X46087Y-50520D01*
X46095Y-50520D01*
X46095Y-50241D01*
X46058Y-50205D01*
X45895Y-50205D01*
X45895Y-49995D01*
X46905Y-49995D01*
X46905Y-50055D01*
X46866Y-50055D01*
X46830Y-50091D01*
X46830Y-50345D01*
X46837Y-50345D01*
X46837Y-50355D01*
X46830Y-50355D01*
X46830Y-50608D01*
X46866Y-50645D01*
X46905Y-50645D01*
X46905Y-50855D01*
G54D10*
G36*
X46135Y-47905D02*
X46128Y-47905D01*
X46128Y-47912D01*
X46118Y-47912D01*
X46118Y-47905D01*
X46118Y-47895D01*
X46118Y-47776D01*
X46118Y-47673D01*
X46118Y-47555D01*
X45935Y-47555D01*
X45899Y-47591D01*
X45899Y-47639D01*
X45899Y-47696D01*
X45911Y-47725D01*
X45899Y-47753D01*
X45899Y-47810D01*
X45899Y-47858D01*
X45935Y-47895D01*
X46118Y-47895D01*
X46118Y-47905D01*
X45935Y-47905D01*
X45899Y-47941D01*
X45899Y-47989D01*
X45899Y-48046D01*
X45921Y-48100D01*
X45926Y-48105D01*
X45875Y-48105D01*
X45875Y-47394D01*
X45883Y-47390D01*
X45900Y-47374D01*
X45908Y-47382D01*
X45899Y-47403D01*
X45899Y-47460D01*
X45899Y-47508D01*
X45935Y-47545D01*
X46118Y-47545D01*
X46118Y-47537D01*
X46128Y-47537D01*
X46128Y-47545D01*
X46135Y-47545D01*
X46135Y-47555D01*
X46128Y-47555D01*
X46128Y-47673D01*
X46128Y-47776D01*
X46128Y-47895D01*
X46135Y-47895D01*
X46135Y-47905D01*
X46135Y-47905D01*
G37*
G54D45*
X46135Y-47905D02*
X46128Y-47905D01*
X46128Y-47912D01*
X46118Y-47912D01*
X46118Y-47905D01*
X46118Y-47895D01*
X46118Y-47776D01*
X46118Y-47673D01*
X46118Y-47555D01*
X45935Y-47555D01*
X45899Y-47591D01*
X45899Y-47639D01*
X45899Y-47696D01*
X45911Y-47725D01*
X45899Y-47753D01*
X45899Y-47810D01*
X45899Y-47858D01*
X45935Y-47895D01*
X46118Y-47895D01*
X46118Y-47905D01*
X45935Y-47905D01*
X45899Y-47941D01*
X45899Y-47989D01*
X45899Y-48046D01*
X45921Y-48100D01*
X45926Y-48105D01*
X45875Y-48105D01*
X45875Y-47394D01*
X45883Y-47390D01*
X45900Y-47374D01*
X45908Y-47382D01*
X45899Y-47403D01*
X45899Y-47460D01*
X45899Y-47508D01*
X45935Y-47545D01*
X46118Y-47545D01*
X46118Y-47537D01*
X46128Y-47537D01*
X46128Y-47545D01*
X46135Y-47545D01*
X46135Y-47555D01*
X46128Y-47555D01*
X46128Y-47673D01*
X46128Y-47776D01*
X46128Y-47895D01*
X46135Y-47895D01*
X46135Y-47905D01*
G54D10*
G36*
X46512Y-45762D02*
X46504Y-45769D01*
X46504Y-45796D01*
X46494Y-45820D01*
X46494Y-45769D01*
X46458Y-45733D01*
X46395Y-45733D01*
X46337Y-45733D01*
X46284Y-45755D01*
X46243Y-45796D01*
X46221Y-45849D01*
X46221Y-45886D01*
X46257Y-45922D01*
X46482Y-45922D01*
X46482Y-45932D01*
X46257Y-45932D01*
X46221Y-45968D01*
X46221Y-46005D01*
X46243Y-46058D01*
X46263Y-46078D01*
X46243Y-46097D01*
X46221Y-46150D01*
X46221Y-46187D01*
X46257Y-46223D01*
X46482Y-46223D01*
X46482Y-46233D01*
X46257Y-46233D01*
X46221Y-46269D01*
X46221Y-46306D01*
X46243Y-46360D01*
X46283Y-46400D01*
X46243Y-46439D01*
X46221Y-46493D01*
X46221Y-46530D01*
X46257Y-46566D01*
X46482Y-46566D01*
X46482Y-46576D01*
X46257Y-46576D01*
X46221Y-46612D01*
X46221Y-46649D01*
X46243Y-46702D01*
X46263Y-46721D01*
X46243Y-46741D01*
X46221Y-46794D01*
X46221Y-46831D01*
X46257Y-46867D01*
X46482Y-46867D01*
X46482Y-46877D01*
X46257Y-46877D01*
X46229Y-46905D01*
X46184Y-46887D01*
X46126Y-46887D01*
X45969Y-46887D01*
X45948Y-46895D01*
X45948Y-45020D01*
X45973Y-44994D01*
X45992Y-45038D01*
X46005Y-45051D01*
X46005Y-45150D01*
X46019Y-45224D01*
X46062Y-45287D01*
X46512Y-45737D01*
X46512Y-45762D01*
X46512Y-45762D01*
G37*
G54D45*
X46512Y-45762D02*
X46504Y-45769D01*
X46504Y-45796D01*
X46494Y-45820D01*
X46494Y-45769D01*
X46458Y-45733D01*
X46395Y-45733D01*
X46337Y-45733D01*
X46284Y-45755D01*
X46243Y-45796D01*
X46221Y-45849D01*
X46221Y-45886D01*
X46257Y-45922D01*
X46482Y-45922D01*
X46482Y-45932D01*
X46257Y-45932D01*
X46221Y-45968D01*
X46221Y-46005D01*
X46243Y-46058D01*
X46263Y-46078D01*
X46243Y-46097D01*
X46221Y-46150D01*
X46221Y-46187D01*
X46257Y-46223D01*
X46482Y-46223D01*
X46482Y-46233D01*
X46257Y-46233D01*
X46221Y-46269D01*
X46221Y-46306D01*
X46243Y-46360D01*
X46283Y-46400D01*
X46243Y-46439D01*
X46221Y-46493D01*
X46221Y-46530D01*
X46257Y-46566D01*
X46482Y-46566D01*
X46482Y-46576D01*
X46257Y-46576D01*
X46221Y-46612D01*
X46221Y-46649D01*
X46243Y-46702D01*
X46263Y-46721D01*
X46243Y-46741D01*
X46221Y-46794D01*
X46221Y-46831D01*
X46257Y-46867D01*
X46482Y-46867D01*
X46482Y-46877D01*
X46257Y-46877D01*
X46229Y-46905D01*
X46184Y-46887D01*
X46126Y-46887D01*
X45969Y-46887D01*
X45948Y-46895D01*
X45948Y-45020D01*
X45973Y-44994D01*
X45992Y-45038D01*
X46005Y-45051D01*
X46005Y-45150D01*
X46019Y-45224D01*
X46062Y-45287D01*
X46512Y-45737D01*
X46512Y-45762D01*
G54D10*
G36*
X47035Y-45055D02*
X47028Y-45055D01*
X47028Y-45062D01*
X47018Y-45062D01*
X47018Y-45055D01*
X46835Y-45055D01*
X46808Y-45082D01*
X46724Y-44998D01*
X46744Y-44948D01*
X46745Y-44895D01*
X46802Y-44895D01*
X46799Y-44903D01*
X46799Y-44960D01*
X46799Y-45008D01*
X46835Y-45045D01*
X47018Y-45045D01*
X47018Y-45037D01*
X47028Y-45037D01*
X47028Y-45045D01*
X47035Y-45045D01*
X47035Y-45055D01*
X47035Y-45055D01*
G37*
G54D45*
X47035Y-45055D02*
X47028Y-45055D01*
X47028Y-45062D01*
X47018Y-45062D01*
X47018Y-45055D01*
X46835Y-45055D01*
X46808Y-45082D01*
X46724Y-44998D01*
X46744Y-44948D01*
X46745Y-44895D01*
X46802Y-44895D01*
X46799Y-44903D01*
X46799Y-44960D01*
X46799Y-45008D01*
X46835Y-45045D01*
X47018Y-45045D01*
X47018Y-45037D01*
X47028Y-45037D01*
X47028Y-45045D01*
X47035Y-45045D01*
X47035Y-45055D01*
G54D10*
G36*
X47112Y-46405D02*
X47105Y-46405D01*
X47105Y-46412D01*
X47095Y-46412D01*
X47095Y-46405D01*
X47087Y-46405D01*
X47087Y-46395D01*
X47095Y-46395D01*
X47095Y-45888D01*
X47095Y-45814D01*
X47097Y-45808D01*
X47097Y-45751D01*
X47097Y-45626D01*
X47098Y-45622D01*
X47098Y-45453D01*
X47097Y-45449D01*
X47097Y-45436D01*
X47095Y-45430D01*
X47095Y-45356D01*
X47058Y-45319D01*
X47044Y-45319D01*
X47041Y-45315D01*
X47028Y-45302D01*
X47028Y-45276D01*
X47064Y-45313D01*
X47101Y-45313D01*
X47101Y-45622D01*
X47102Y-45626D01*
X47102Y-45808D01*
X47105Y-45814D01*
X47105Y-45888D01*
X47105Y-46395D01*
X47112Y-46395D01*
X47112Y-46405D01*
X47112Y-46405D01*
G37*
G54D45*
X47112Y-46405D02*
X47105Y-46405D01*
X47105Y-46412D01*
X47095Y-46412D01*
X47095Y-46405D01*
X47087Y-46405D01*
X47087Y-46395D01*
X47095Y-46395D01*
X47095Y-45888D01*
X47095Y-45814D01*
X47097Y-45808D01*
X47097Y-45751D01*
X47097Y-45626D01*
X47098Y-45622D01*
X47098Y-45453D01*
X47097Y-45449D01*
X47097Y-45436D01*
X47095Y-45430D01*
X47095Y-45356D01*
X47058Y-45319D01*
X47044Y-45319D01*
X47041Y-45315D01*
X47028Y-45302D01*
X47028Y-45276D01*
X47064Y-45313D01*
X47101Y-45313D01*
X47101Y-45622D01*
X47102Y-45626D01*
X47102Y-45808D01*
X47105Y-45814D01*
X47105Y-45888D01*
X47105Y-46395D01*
X47112Y-46395D01*
X47112Y-46405D01*
G54D10*
G36*
X48255Y-49055D02*
X48100Y-49055D01*
X48100Y-48046D01*
X48100Y-47989D01*
X48100Y-47941D01*
X48100Y-47858D01*
X48100Y-47810D01*
X48100Y-47753D01*
X48078Y-47699D01*
X48037Y-47659D01*
X47984Y-47637D01*
X47918Y-47637D01*
X47882Y-47673D01*
X47882Y-47895D01*
X48064Y-47895D01*
X48100Y-47858D01*
X48100Y-47941D01*
X48064Y-47905D01*
X47882Y-47905D01*
X47882Y-48126D01*
X47918Y-48163D01*
X47984Y-48163D01*
X48037Y-48140D01*
X48078Y-48100D01*
X48100Y-48046D01*
X48100Y-49055D01*
X47548Y-49055D01*
X47570Y-49003D01*
X47570Y-48946D01*
X47570Y-48791D01*
X47533Y-48755D01*
X47305Y-48755D01*
X47305Y-48762D01*
X47295Y-48762D01*
X47295Y-48755D01*
X47287Y-48755D01*
X47287Y-48745D01*
X47295Y-48745D01*
X47295Y-48737D01*
X47305Y-48737D01*
X47305Y-48745D01*
X47533Y-48745D01*
X47570Y-48708D01*
X47570Y-48553D01*
X47570Y-48496D01*
X47547Y-48442D01*
X47507Y-48402D01*
X47463Y-48383D01*
X47463Y-48318D01*
X47426Y-48282D01*
X47205Y-48282D01*
X47205Y-48289D01*
X47195Y-48289D01*
X47195Y-48282D01*
X47187Y-48282D01*
X47187Y-48272D01*
X47195Y-48272D01*
X47195Y-48264D01*
X47205Y-48264D01*
X47205Y-48272D01*
X47426Y-48272D01*
X47463Y-48235D01*
X47463Y-48169D01*
X47460Y-48163D01*
X47473Y-48163D01*
X47630Y-48163D01*
X47683Y-48140D01*
X47700Y-48124D01*
X47716Y-48140D01*
X47769Y-48163D01*
X47835Y-48163D01*
X47872Y-48126D01*
X47872Y-47905D01*
X47864Y-47905D01*
X47864Y-47895D01*
X47872Y-47895D01*
X47872Y-47673D01*
X47835Y-47637D01*
X47769Y-47637D01*
X47716Y-47659D01*
X47699Y-47675D01*
X47683Y-47659D01*
X47630Y-47637D01*
X47572Y-47637D01*
X47415Y-47637D01*
X47362Y-47659D01*
X47321Y-47699D01*
X47295Y-47699D01*
X47295Y-47177D01*
X47294Y-47173D01*
X47294Y-47164D01*
X47299Y-47164D01*
X47299Y-47363D01*
X47301Y-47369D01*
X47301Y-47443D01*
X47338Y-47480D01*
X47374Y-47480D01*
X47395Y-47471D01*
X47415Y-47480D01*
X47473Y-47480D01*
X47571Y-47480D01*
X47625Y-47457D01*
X47665Y-47417D01*
X47687Y-47363D01*
X47687Y-47306D01*
X47687Y-47037D01*
X47695Y-47030D01*
X47695Y-47003D01*
X47705Y-46979D01*
X47705Y-47030D01*
X47741Y-47066D01*
X47804Y-47066D01*
X47862Y-47066D01*
X47915Y-47044D01*
X47956Y-47003D01*
X47978Y-46950D01*
X47978Y-46913D01*
X47942Y-46877D01*
X47717Y-46877D01*
X47717Y-46867D01*
X47942Y-46867D01*
X47978Y-46831D01*
X47978Y-46794D01*
X47956Y-46741D01*
X47936Y-46721D01*
X47956Y-46702D01*
X47978Y-46649D01*
X47978Y-46612D01*
X47942Y-46576D01*
X47717Y-46576D01*
X47717Y-46566D01*
X47942Y-46566D01*
X47978Y-46530D01*
X47978Y-46493D01*
X47956Y-46439D01*
X47916Y-46400D01*
X47956Y-46360D01*
X47978Y-46306D01*
X47978Y-46269D01*
X47942Y-46233D01*
X47717Y-46233D01*
X47717Y-46223D01*
X47942Y-46223D01*
X47978Y-46187D01*
X47978Y-46150D01*
X47956Y-46097D01*
X47936Y-46078D01*
X47956Y-46058D01*
X47978Y-46005D01*
X47978Y-45968D01*
X47942Y-45932D01*
X47717Y-45932D01*
X47717Y-45922D01*
X47942Y-45922D01*
X47978Y-45886D01*
X47978Y-45849D01*
X47956Y-45796D01*
X47915Y-45755D01*
X47862Y-45733D01*
X47804Y-45733D01*
X47741Y-45733D01*
X47705Y-45769D01*
X47705Y-45820D01*
X47695Y-45796D01*
X47695Y-45769D01*
X47687Y-45762D01*
X47687Y-45751D01*
X47687Y-45660D01*
X47785Y-45563D01*
X47880Y-45563D01*
X47933Y-45540D01*
X47950Y-45524D01*
X47966Y-45540D01*
X48019Y-45563D01*
X48085Y-45563D01*
X48122Y-45526D01*
X48122Y-45305D01*
X48114Y-45305D01*
X48114Y-45295D01*
X48122Y-45295D01*
X48122Y-45073D01*
X48085Y-45037D01*
X48019Y-45037D01*
X47966Y-45059D01*
X47949Y-45075D01*
X47933Y-45059D01*
X47880Y-45037D01*
X47822Y-45037D01*
X47665Y-45037D01*
X47612Y-45059D01*
X47600Y-45070D01*
X47600Y-44903D01*
X47597Y-44895D01*
X47650Y-44895D01*
X48255Y-44895D01*
X48255Y-45045D01*
X48234Y-45037D01*
X48168Y-45037D01*
X48132Y-45073D01*
X48132Y-45295D01*
X48139Y-45295D01*
X48139Y-45305D01*
X48132Y-45305D01*
X48132Y-45526D01*
X48168Y-45563D01*
X48234Y-45563D01*
X48255Y-45554D01*
X48255Y-47650D01*
X48255Y-48150D01*
X48255Y-49055D01*
X48255Y-49055D01*
G37*
G54D45*
X48255Y-49055D02*
X48100Y-49055D01*
X48100Y-48046D01*
X48100Y-47989D01*
X48100Y-47941D01*
X48100Y-47858D01*
X48100Y-47810D01*
X48100Y-47753D01*
X48078Y-47699D01*
X48037Y-47659D01*
X47984Y-47637D01*
X47918Y-47637D01*
X47882Y-47673D01*
X47882Y-47895D01*
X48064Y-47895D01*
X48100Y-47858D01*
X48100Y-47941D01*
X48064Y-47905D01*
X47882Y-47905D01*
X47882Y-48126D01*
X47918Y-48163D01*
X47984Y-48163D01*
X48037Y-48140D01*
X48078Y-48100D01*
X48100Y-48046D01*
X48100Y-49055D01*
X47548Y-49055D01*
X47570Y-49003D01*
X47570Y-48946D01*
X47570Y-48791D01*
X47533Y-48755D01*
X47305Y-48755D01*
X47305Y-48762D01*
X47295Y-48762D01*
X47295Y-48755D01*
X47287Y-48755D01*
X47287Y-48745D01*
X47295Y-48745D01*
X47295Y-48737D01*
X47305Y-48737D01*
X47305Y-48745D01*
X47533Y-48745D01*
X47570Y-48708D01*
X47570Y-48553D01*
X47570Y-48496D01*
X47547Y-48442D01*
X47507Y-48402D01*
X47463Y-48383D01*
X47463Y-48318D01*
X47426Y-48282D01*
X47205Y-48282D01*
X47205Y-48289D01*
X47195Y-48289D01*
X47195Y-48282D01*
X47187Y-48282D01*
X47187Y-48272D01*
X47195Y-48272D01*
X47195Y-48264D01*
X47205Y-48264D01*
X47205Y-48272D01*
X47426Y-48272D01*
X47463Y-48235D01*
X47463Y-48169D01*
X47460Y-48163D01*
X47473Y-48163D01*
X47630Y-48163D01*
X47683Y-48140D01*
X47700Y-48124D01*
X47716Y-48140D01*
X47769Y-48163D01*
X47835Y-48163D01*
X47872Y-48126D01*
X47872Y-47905D01*
X47864Y-47905D01*
X47864Y-47895D01*
X47872Y-47895D01*
X47872Y-47673D01*
X47835Y-47637D01*
X47769Y-47637D01*
X47716Y-47659D01*
X47699Y-47675D01*
X47683Y-47659D01*
X47630Y-47637D01*
X47572Y-47637D01*
X47415Y-47637D01*
X47362Y-47659D01*
X47321Y-47699D01*
X47295Y-47699D01*
X47295Y-47177D01*
X47294Y-47173D01*
X47294Y-47164D01*
X47299Y-47164D01*
X47299Y-47363D01*
X47301Y-47369D01*
X47301Y-47443D01*
X47338Y-47480D01*
X47374Y-47480D01*
X47395Y-47471D01*
X47415Y-47480D01*
X47473Y-47480D01*
X47571Y-47480D01*
X47625Y-47457D01*
X47665Y-47417D01*
X47687Y-47363D01*
X47687Y-47306D01*
X47687Y-47037D01*
X47695Y-47030D01*
X47695Y-47003D01*
X47705Y-46979D01*
X47705Y-47030D01*
X47741Y-47066D01*
X47804Y-47066D01*
X47862Y-47066D01*
X47915Y-47044D01*
X47956Y-47003D01*
X47978Y-46950D01*
X47978Y-46913D01*
X47942Y-46877D01*
X47717Y-46877D01*
X47717Y-46867D01*
X47942Y-46867D01*
X47978Y-46831D01*
X47978Y-46794D01*
X47956Y-46741D01*
X47936Y-46721D01*
X47956Y-46702D01*
X47978Y-46649D01*
X47978Y-46612D01*
X47942Y-46576D01*
X47717Y-46576D01*
X47717Y-46566D01*
X47942Y-46566D01*
X47978Y-46530D01*
X47978Y-46493D01*
X47956Y-46439D01*
X47916Y-46400D01*
X47956Y-46360D01*
X47978Y-46306D01*
X47978Y-46269D01*
X47942Y-46233D01*
X47717Y-46233D01*
X47717Y-46223D01*
X47942Y-46223D01*
X47978Y-46187D01*
X47978Y-46150D01*
X47956Y-46097D01*
X47936Y-46078D01*
X47956Y-46058D01*
X47978Y-46005D01*
X47978Y-45968D01*
X47942Y-45932D01*
X47717Y-45932D01*
X47717Y-45922D01*
X47942Y-45922D01*
X47978Y-45886D01*
X47978Y-45849D01*
X47956Y-45796D01*
X47915Y-45755D01*
X47862Y-45733D01*
X47804Y-45733D01*
X47741Y-45733D01*
X47705Y-45769D01*
X47705Y-45820D01*
X47695Y-45796D01*
X47695Y-45769D01*
X47687Y-45762D01*
X47687Y-45751D01*
X47687Y-45660D01*
X47785Y-45563D01*
X47880Y-45563D01*
X47933Y-45540D01*
X47950Y-45524D01*
X47966Y-45540D01*
X48019Y-45563D01*
X48085Y-45563D01*
X48122Y-45526D01*
X48122Y-45305D01*
X48114Y-45305D01*
X48114Y-45295D01*
X48122Y-45295D01*
X48122Y-45073D01*
X48085Y-45037D01*
X48019Y-45037D01*
X47966Y-45059D01*
X47949Y-45075D01*
X47933Y-45059D01*
X47880Y-45037D01*
X47822Y-45037D01*
X47665Y-45037D01*
X47612Y-45059D01*
X47600Y-45070D01*
X47600Y-44903D01*
X47597Y-44895D01*
X47650Y-44895D01*
X48255Y-44895D01*
X48255Y-45045D01*
X48234Y-45037D01*
X48168Y-45037D01*
X48132Y-45073D01*
X48132Y-45295D01*
X48139Y-45295D01*
X48139Y-45305D01*
X48132Y-45305D01*
X48132Y-45526D01*
X48168Y-45563D01*
X48234Y-45563D01*
X48255Y-45554D01*
X48255Y-47650D01*
X48255Y-48150D01*
X48255Y-49055D01*
M02*
