G04 (created by PCBNEW (2013-09-06 BZR 4312)-stable) date P 15 sept  2013 15:04:35 EEST*
%MOIN*%
G04 Gerber Fmt 3.4, Leading zero omitted, Abs format*
%FSLAX34Y34*%
G01*
G70*
G90*
G04 APERTURE LIST*
%ADD10C,0.000787*%
%ADD11C,0.006000*%
%ADD12C,0.001000*%
%ADD13C,0.005000*%
%ADD14C,0.007874*%
%ADD15C,0.005906*%
%ADD16C,0.003900*%
%ADD17C,0.002800*%
%ADD18C,0.000100*%
%ADD19C,0.002600*%
%ADD20C,0.004000*%
G04 APERTURE END LIST*
G54D10*
G54D11*
X39821Y-44342D02*
X40278Y-44342D01*
X39821Y-50592D02*
X40278Y-50592D01*
X40050Y-50821D02*
X40050Y-50364D01*
X50464Y-54930D02*
X50235Y-54930D01*
X50350Y-54930D02*
X50350Y-54530D01*
X50311Y-54588D01*
X50273Y-54626D01*
X50235Y-54645D01*
X52030Y-54530D02*
X52069Y-54530D01*
X52107Y-54550D01*
X52126Y-54569D01*
X52145Y-54607D01*
X52164Y-54683D01*
X52164Y-54778D01*
X52145Y-54854D01*
X52126Y-54892D01*
X52107Y-54911D01*
X52069Y-54930D01*
X52030Y-54930D01*
X51992Y-54911D01*
X51973Y-54892D01*
X51954Y-54854D01*
X51935Y-54778D01*
X51935Y-54683D01*
X51954Y-54607D01*
X51973Y-54569D01*
X51992Y-54550D01*
X52030Y-54530D01*
X43271Y-49542D02*
X43728Y-49542D01*
X43271Y-52242D02*
X43728Y-52242D01*
X43500Y-52471D02*
X43500Y-52014D01*
G54D12*
X49213Y-56692D02*
G75*
G03X49213Y-56692I0J0D01*
G74*
G01*
X49211Y-56692D02*
X49213Y-56692D01*
X49212Y-56691D02*
X49212Y-56693D01*
X43307Y-55118D02*
X39370Y-51181D01*
X55118Y-55118D02*
X43307Y-55118D01*
G54D13*
X57400Y-46135D02*
X57571Y-46135D01*
X57485Y-46435D02*
X57485Y-46135D01*
X57642Y-46135D02*
X57842Y-46435D01*
X57842Y-46135D02*
X57642Y-46435D01*
X57942Y-46350D02*
X58085Y-46350D01*
X57914Y-46435D02*
X58014Y-46135D01*
X58114Y-46435D01*
X58371Y-46435D02*
X58200Y-46435D01*
X58285Y-46435D02*
X58285Y-46135D01*
X58257Y-46178D01*
X58228Y-46207D01*
X58200Y-46221D01*
X57578Y-46035D02*
X57478Y-45892D01*
X57407Y-46035D02*
X57407Y-45735D01*
X57521Y-45735D01*
X57550Y-45750D01*
X57564Y-45764D01*
X57578Y-45792D01*
X57578Y-45835D01*
X57564Y-45864D01*
X57550Y-45878D01*
X57521Y-45892D01*
X57407Y-45892D01*
X57678Y-45735D02*
X57878Y-46035D01*
X57878Y-45735D02*
X57678Y-46035D01*
X57978Y-45950D02*
X58121Y-45950D01*
X57950Y-46035D02*
X58050Y-45735D01*
X58150Y-46035D01*
X58407Y-46035D02*
X58235Y-46035D01*
X58321Y-46035D02*
X58321Y-45735D01*
X58292Y-45778D01*
X58264Y-45807D01*
X58235Y-45821D01*
X57542Y-45435D02*
X57542Y-45635D01*
X57471Y-45321D02*
X57400Y-45535D01*
X57585Y-45535D01*
X57700Y-45607D02*
X57714Y-45621D01*
X57700Y-45635D01*
X57685Y-45621D01*
X57700Y-45607D01*
X57700Y-45635D01*
X57814Y-45335D02*
X58014Y-45335D01*
X57885Y-45635D01*
X57542Y-45035D02*
X57542Y-45235D01*
X57471Y-44921D02*
X57400Y-45135D01*
X57585Y-45135D01*
X57700Y-45207D02*
X57714Y-45221D01*
X57700Y-45235D01*
X57685Y-45221D01*
X57700Y-45207D01*
X57700Y-45235D01*
X57971Y-44935D02*
X57914Y-44935D01*
X57885Y-44950D01*
X57871Y-44964D01*
X57842Y-45007D01*
X57828Y-45064D01*
X57828Y-45178D01*
X57842Y-45207D01*
X57857Y-45221D01*
X57885Y-45235D01*
X57942Y-45235D01*
X57971Y-45221D01*
X57985Y-45207D01*
X58000Y-45178D01*
X58000Y-45107D01*
X57985Y-45078D01*
X57971Y-45064D01*
X57942Y-45050D01*
X57885Y-45050D01*
X57857Y-45064D01*
X57842Y-45078D01*
X57828Y-45107D01*
X53375Y-46607D02*
X53360Y-46621D01*
X53317Y-46635D01*
X53289Y-46635D01*
X53246Y-46621D01*
X53217Y-46592D01*
X53203Y-46564D01*
X53189Y-46507D01*
X53189Y-46464D01*
X53203Y-46407D01*
X53217Y-46378D01*
X53246Y-46350D01*
X53289Y-46335D01*
X53317Y-46335D01*
X53360Y-46350D01*
X53375Y-46364D01*
X53646Y-46635D02*
X53503Y-46635D01*
X53503Y-46335D01*
X53746Y-46635D02*
X53746Y-46335D01*
X53917Y-46635D02*
X53789Y-46464D01*
X53917Y-46335D02*
X53746Y-46507D01*
X54032Y-46550D02*
X54175Y-46550D01*
X54003Y-46635D02*
X54103Y-46335D01*
X54203Y-46635D01*
X54360Y-46335D02*
X54389Y-46335D01*
X54417Y-46350D01*
X54432Y-46364D01*
X54446Y-46392D01*
X54460Y-46450D01*
X54460Y-46521D01*
X54446Y-46578D01*
X54432Y-46607D01*
X54417Y-46621D01*
X54389Y-46635D01*
X54360Y-46635D01*
X54332Y-46621D01*
X54317Y-46607D01*
X54303Y-46578D01*
X54289Y-46521D01*
X54289Y-46450D01*
X54303Y-46392D01*
X54317Y-46364D01*
X54332Y-46350D01*
X54360Y-46335D01*
X53142Y-46221D02*
X53185Y-46235D01*
X53257Y-46235D01*
X53285Y-46221D01*
X53300Y-46207D01*
X53314Y-46178D01*
X53314Y-46150D01*
X53300Y-46121D01*
X53285Y-46107D01*
X53257Y-46092D01*
X53200Y-46078D01*
X53171Y-46064D01*
X53157Y-46050D01*
X53142Y-46021D01*
X53142Y-45992D01*
X53157Y-45964D01*
X53171Y-45950D01*
X53200Y-45935D01*
X53271Y-45935D01*
X53314Y-45950D01*
X53442Y-46235D02*
X53442Y-45935D01*
X53514Y-45935D01*
X53557Y-45950D01*
X53585Y-45978D01*
X53600Y-46007D01*
X53614Y-46064D01*
X53614Y-46107D01*
X53600Y-46164D01*
X53585Y-46192D01*
X53557Y-46221D01*
X53514Y-46235D01*
X53442Y-46235D01*
X53728Y-46150D02*
X53871Y-46150D01*
X53700Y-46235D02*
X53800Y-45935D01*
X53900Y-46235D01*
X54100Y-46078D02*
X54142Y-46092D01*
X54157Y-46107D01*
X54171Y-46135D01*
X54171Y-46178D01*
X54157Y-46207D01*
X54142Y-46221D01*
X54114Y-46235D01*
X54000Y-46235D01*
X54000Y-45935D01*
X54100Y-45935D01*
X54128Y-45950D01*
X54142Y-45964D01*
X54157Y-45992D01*
X54157Y-46021D01*
X54142Y-46050D01*
X54128Y-46064D01*
X54100Y-46078D01*
X54000Y-46078D01*
X54357Y-45935D02*
X54385Y-45935D01*
X54414Y-45950D01*
X54428Y-45964D01*
X54442Y-45992D01*
X54457Y-46050D01*
X54457Y-46121D01*
X54442Y-46178D01*
X54428Y-46207D01*
X54414Y-46221D01*
X54385Y-46235D01*
X54357Y-46235D01*
X54328Y-46221D01*
X54314Y-46207D01*
X54300Y-46178D01*
X54285Y-46121D01*
X54285Y-46050D01*
X54300Y-45992D01*
X54314Y-45964D01*
X54328Y-45950D01*
X54357Y-45935D01*
X53150Y-45821D02*
X53192Y-45835D01*
X53264Y-45835D01*
X53292Y-45821D01*
X53307Y-45807D01*
X53321Y-45778D01*
X53321Y-45750D01*
X53307Y-45721D01*
X53292Y-45707D01*
X53264Y-45692D01*
X53207Y-45678D01*
X53178Y-45664D01*
X53164Y-45650D01*
X53150Y-45621D01*
X53150Y-45592D01*
X53164Y-45564D01*
X53178Y-45550D01*
X53207Y-45535D01*
X53278Y-45535D01*
X53321Y-45550D01*
X53621Y-45807D02*
X53607Y-45821D01*
X53564Y-45835D01*
X53535Y-45835D01*
X53492Y-45821D01*
X53464Y-45792D01*
X53450Y-45764D01*
X53435Y-45707D01*
X53435Y-45664D01*
X53450Y-45607D01*
X53464Y-45578D01*
X53492Y-45550D01*
X53535Y-45535D01*
X53564Y-45535D01*
X53607Y-45550D01*
X53621Y-45564D01*
X53892Y-45835D02*
X53750Y-45835D01*
X53750Y-45535D01*
X54092Y-45678D02*
X54135Y-45692D01*
X54150Y-45707D01*
X54164Y-45735D01*
X54164Y-45778D01*
X54150Y-45807D01*
X54135Y-45821D01*
X54107Y-45835D01*
X53992Y-45835D01*
X53992Y-45535D01*
X54092Y-45535D01*
X54121Y-45550D01*
X54135Y-45564D01*
X54150Y-45592D01*
X54150Y-45621D01*
X54135Y-45650D01*
X54121Y-45664D01*
X54092Y-45678D01*
X53992Y-45678D01*
X54350Y-45535D02*
X54378Y-45535D01*
X54407Y-45550D01*
X54421Y-45564D01*
X54435Y-45592D01*
X54450Y-45650D01*
X54450Y-45721D01*
X54435Y-45778D01*
X54421Y-45807D01*
X54407Y-45821D01*
X54378Y-45835D01*
X54350Y-45835D01*
X54321Y-45821D01*
X54307Y-45807D01*
X54292Y-45778D01*
X54278Y-45721D01*
X54278Y-45650D01*
X54292Y-45592D01*
X54307Y-45564D01*
X54321Y-45550D01*
X54350Y-45535D01*
X53242Y-45421D02*
X53285Y-45435D01*
X53357Y-45435D01*
X53385Y-45421D01*
X53400Y-45407D01*
X53414Y-45378D01*
X53414Y-45350D01*
X53400Y-45321D01*
X53385Y-45307D01*
X53357Y-45292D01*
X53300Y-45278D01*
X53271Y-45264D01*
X53257Y-45250D01*
X53242Y-45221D01*
X53242Y-45192D01*
X53257Y-45164D01*
X53271Y-45150D01*
X53300Y-45135D01*
X53371Y-45135D01*
X53414Y-45150D01*
X53500Y-45135D02*
X53671Y-45135D01*
X53585Y-45435D02*
X53585Y-45135D01*
X53771Y-45278D02*
X53871Y-45278D01*
X53914Y-45435D02*
X53771Y-45435D01*
X53771Y-45135D01*
X53914Y-45135D01*
X54028Y-45350D02*
X54171Y-45350D01*
X54000Y-45435D02*
X54100Y-45135D01*
X54200Y-45435D01*
X54357Y-45135D02*
X54385Y-45135D01*
X54414Y-45150D01*
X54428Y-45164D01*
X54442Y-45192D01*
X54457Y-45250D01*
X54457Y-45321D01*
X54442Y-45378D01*
X54428Y-45407D01*
X54414Y-45421D01*
X54385Y-45435D01*
X54357Y-45435D01*
X54328Y-45421D01*
X54314Y-45407D01*
X54300Y-45378D01*
X54285Y-45321D01*
X54285Y-45250D01*
X54300Y-45192D01*
X54314Y-45164D01*
X54328Y-45150D01*
X54357Y-45135D01*
X52957Y-45035D02*
X52957Y-44735D01*
X53057Y-44950D01*
X53157Y-44735D01*
X53157Y-45035D01*
X53357Y-44735D02*
X53414Y-44735D01*
X53442Y-44750D01*
X53471Y-44778D01*
X53485Y-44835D01*
X53485Y-44935D01*
X53471Y-44992D01*
X53442Y-45021D01*
X53414Y-45035D01*
X53357Y-45035D01*
X53328Y-45021D01*
X53300Y-44992D01*
X53285Y-44935D01*
X53285Y-44835D01*
X53300Y-44778D01*
X53328Y-44750D01*
X53357Y-44735D01*
X53600Y-45021D02*
X53642Y-45035D01*
X53714Y-45035D01*
X53742Y-45021D01*
X53757Y-45007D01*
X53771Y-44978D01*
X53771Y-44950D01*
X53757Y-44921D01*
X53742Y-44907D01*
X53714Y-44892D01*
X53657Y-44878D01*
X53628Y-44864D01*
X53614Y-44850D01*
X53600Y-44821D01*
X53600Y-44792D01*
X53614Y-44764D01*
X53628Y-44750D01*
X53657Y-44735D01*
X53728Y-44735D01*
X53771Y-44750D01*
X53900Y-45035D02*
X53900Y-44735D01*
X54028Y-44950D02*
X54171Y-44950D01*
X54000Y-45035D02*
X54100Y-44735D01*
X54200Y-45035D01*
X54357Y-44735D02*
X54385Y-44735D01*
X54414Y-44750D01*
X54428Y-44764D01*
X54442Y-44792D01*
X54457Y-44850D01*
X54457Y-44921D01*
X54442Y-44978D01*
X54428Y-45007D01*
X54414Y-45021D01*
X54385Y-45035D01*
X54357Y-45035D01*
X54328Y-45021D01*
X54314Y-45007D01*
X54300Y-44978D01*
X54285Y-44921D01*
X54285Y-44850D01*
X54300Y-44792D01*
X54314Y-44764D01*
X54328Y-44750D01*
X54357Y-44735D01*
X52957Y-44635D02*
X52957Y-44335D01*
X53057Y-44550D01*
X53157Y-44335D01*
X53157Y-44635D01*
X53300Y-44635D02*
X53300Y-44335D01*
X53428Y-44621D02*
X53471Y-44635D01*
X53542Y-44635D01*
X53571Y-44621D01*
X53585Y-44607D01*
X53600Y-44578D01*
X53600Y-44550D01*
X53585Y-44521D01*
X53571Y-44507D01*
X53542Y-44492D01*
X53485Y-44478D01*
X53457Y-44464D01*
X53442Y-44450D01*
X53428Y-44421D01*
X53428Y-44392D01*
X53442Y-44364D01*
X53457Y-44350D01*
X53485Y-44335D01*
X53557Y-44335D01*
X53600Y-44350D01*
X53785Y-44335D02*
X53842Y-44335D01*
X53871Y-44350D01*
X53900Y-44378D01*
X53914Y-44435D01*
X53914Y-44535D01*
X53900Y-44592D01*
X53871Y-44621D01*
X53842Y-44635D01*
X53785Y-44635D01*
X53757Y-44621D01*
X53728Y-44592D01*
X53714Y-44535D01*
X53714Y-44435D01*
X53728Y-44378D01*
X53757Y-44350D01*
X53785Y-44335D01*
X54028Y-44550D02*
X54171Y-44550D01*
X54000Y-44635D02*
X54100Y-44335D01*
X54200Y-44635D01*
X54357Y-44335D02*
X54385Y-44335D01*
X54414Y-44350D01*
X54428Y-44364D01*
X54442Y-44392D01*
X54457Y-44450D01*
X54457Y-44521D01*
X54442Y-44578D01*
X54428Y-44607D01*
X54414Y-44621D01*
X54385Y-44635D01*
X54357Y-44635D01*
X54328Y-44621D01*
X54314Y-44607D01*
X54300Y-44578D01*
X54285Y-44521D01*
X54285Y-44450D01*
X54300Y-44392D01*
X54314Y-44364D01*
X54328Y-44350D01*
X54357Y-44335D01*
X53221Y-44221D02*
X53264Y-44235D01*
X53335Y-44235D01*
X53364Y-44221D01*
X53378Y-44207D01*
X53392Y-44178D01*
X53392Y-44150D01*
X53378Y-44121D01*
X53364Y-44107D01*
X53335Y-44092D01*
X53278Y-44078D01*
X53250Y-44064D01*
X53235Y-44050D01*
X53221Y-44021D01*
X53221Y-43992D01*
X53235Y-43964D01*
X53250Y-43950D01*
X53278Y-43935D01*
X53350Y-43935D01*
X53392Y-43950D01*
X53478Y-43935D02*
X53650Y-43935D01*
X53564Y-44235D02*
X53564Y-43935D01*
X53750Y-44078D02*
X53850Y-44078D01*
X53892Y-44235D02*
X53750Y-44235D01*
X53750Y-43935D01*
X53892Y-43935D01*
X54121Y-44078D02*
X54164Y-44092D01*
X54178Y-44107D01*
X54192Y-44135D01*
X54192Y-44178D01*
X54178Y-44207D01*
X54164Y-44221D01*
X54135Y-44235D01*
X54021Y-44235D01*
X54021Y-43935D01*
X54121Y-43935D01*
X54150Y-43950D01*
X54164Y-43964D01*
X54178Y-43992D01*
X54178Y-44021D01*
X54164Y-44050D01*
X54150Y-44064D01*
X54121Y-44078D01*
X54021Y-44078D01*
X54478Y-44235D02*
X54307Y-44235D01*
X54392Y-44235D02*
X54392Y-43935D01*
X54364Y-43978D01*
X54335Y-44007D01*
X54307Y-44021D01*
X52935Y-43835D02*
X52935Y-43535D01*
X53035Y-43750D01*
X53135Y-43535D01*
X53135Y-43835D01*
X53335Y-43535D02*
X53392Y-43535D01*
X53421Y-43550D01*
X53450Y-43578D01*
X53464Y-43635D01*
X53464Y-43735D01*
X53450Y-43792D01*
X53421Y-43821D01*
X53392Y-43835D01*
X53335Y-43835D01*
X53307Y-43821D01*
X53278Y-43792D01*
X53264Y-43735D01*
X53264Y-43635D01*
X53278Y-43578D01*
X53307Y-43550D01*
X53335Y-43535D01*
X53578Y-43821D02*
X53621Y-43835D01*
X53692Y-43835D01*
X53721Y-43821D01*
X53735Y-43807D01*
X53750Y-43778D01*
X53750Y-43750D01*
X53735Y-43721D01*
X53721Y-43707D01*
X53692Y-43692D01*
X53635Y-43678D01*
X53607Y-43664D01*
X53592Y-43650D01*
X53578Y-43621D01*
X53578Y-43592D01*
X53592Y-43564D01*
X53607Y-43550D01*
X53635Y-43535D01*
X53707Y-43535D01*
X53750Y-43550D01*
X53878Y-43835D02*
X53878Y-43535D01*
X54121Y-43678D02*
X54164Y-43692D01*
X54178Y-43707D01*
X54192Y-43735D01*
X54192Y-43778D01*
X54178Y-43807D01*
X54164Y-43821D01*
X54135Y-43835D01*
X54021Y-43835D01*
X54021Y-43535D01*
X54121Y-43535D01*
X54150Y-43550D01*
X54164Y-43564D01*
X54178Y-43592D01*
X54178Y-43621D01*
X54164Y-43650D01*
X54150Y-43664D01*
X54121Y-43678D01*
X54021Y-43678D01*
X54478Y-43835D02*
X54307Y-43835D01*
X54392Y-43835D02*
X54392Y-43535D01*
X54364Y-43578D01*
X54335Y-43607D01*
X54307Y-43621D01*
X52935Y-43435D02*
X52935Y-43135D01*
X53035Y-43350D01*
X53135Y-43135D01*
X53135Y-43435D01*
X53278Y-43435D02*
X53278Y-43135D01*
X53407Y-43421D02*
X53450Y-43435D01*
X53521Y-43435D01*
X53550Y-43421D01*
X53564Y-43407D01*
X53578Y-43378D01*
X53578Y-43350D01*
X53564Y-43321D01*
X53550Y-43307D01*
X53521Y-43292D01*
X53464Y-43278D01*
X53435Y-43264D01*
X53421Y-43250D01*
X53407Y-43221D01*
X53407Y-43192D01*
X53421Y-43164D01*
X53435Y-43150D01*
X53464Y-43135D01*
X53535Y-43135D01*
X53578Y-43150D01*
X53764Y-43135D02*
X53821Y-43135D01*
X53850Y-43150D01*
X53878Y-43178D01*
X53892Y-43235D01*
X53892Y-43335D01*
X53878Y-43392D01*
X53850Y-43421D01*
X53821Y-43435D01*
X53764Y-43435D01*
X53735Y-43421D01*
X53707Y-43392D01*
X53692Y-43335D01*
X53692Y-43235D01*
X53707Y-43178D01*
X53735Y-43150D01*
X53764Y-43135D01*
X54121Y-43278D02*
X54164Y-43292D01*
X54178Y-43307D01*
X54192Y-43335D01*
X54192Y-43378D01*
X54178Y-43407D01*
X54164Y-43421D01*
X54135Y-43435D01*
X54021Y-43435D01*
X54021Y-43135D01*
X54121Y-43135D01*
X54150Y-43150D01*
X54164Y-43164D01*
X54178Y-43192D01*
X54178Y-43221D01*
X54164Y-43250D01*
X54150Y-43264D01*
X54121Y-43278D01*
X54021Y-43278D01*
X54478Y-43435D02*
X54307Y-43435D01*
X54392Y-43435D02*
X54392Y-43135D01*
X54364Y-43178D01*
X54335Y-43207D01*
X54307Y-43221D01*
X53328Y-43007D02*
X53314Y-43021D01*
X53271Y-43035D01*
X53242Y-43035D01*
X53200Y-43021D01*
X53171Y-42992D01*
X53157Y-42964D01*
X53142Y-42907D01*
X53142Y-42864D01*
X53157Y-42807D01*
X53171Y-42778D01*
X53200Y-42750D01*
X53242Y-42735D01*
X53271Y-42735D01*
X53314Y-42750D01*
X53328Y-42764D01*
X53600Y-43035D02*
X53457Y-43035D01*
X53457Y-42735D01*
X53700Y-43035D02*
X53700Y-42735D01*
X53871Y-43035D02*
X53742Y-42864D01*
X53871Y-42735D02*
X53700Y-42907D01*
X54100Y-42878D02*
X54142Y-42892D01*
X54157Y-42907D01*
X54171Y-42935D01*
X54171Y-42978D01*
X54157Y-43007D01*
X54142Y-43021D01*
X54114Y-43035D01*
X54000Y-43035D01*
X54000Y-42735D01*
X54100Y-42735D01*
X54128Y-42750D01*
X54142Y-42764D01*
X54157Y-42792D01*
X54157Y-42821D01*
X54142Y-42850D01*
X54128Y-42864D01*
X54100Y-42878D01*
X54000Y-42878D01*
X54457Y-43035D02*
X54285Y-43035D01*
X54371Y-43035D02*
X54371Y-42735D01*
X54342Y-42778D01*
X54314Y-42807D01*
X54285Y-42821D01*
X53835Y-47692D02*
X53835Y-47507D01*
X53950Y-47607D01*
X53950Y-47564D01*
X53964Y-47535D01*
X53978Y-47521D01*
X54007Y-47507D01*
X54078Y-47507D01*
X54107Y-47521D01*
X54121Y-47535D01*
X54135Y-47564D01*
X54135Y-47650D01*
X54121Y-47678D01*
X54107Y-47692D01*
X54107Y-47378D02*
X54121Y-47364D01*
X54135Y-47378D01*
X54121Y-47392D01*
X54107Y-47378D01*
X54135Y-47378D01*
X53835Y-47264D02*
X53835Y-47078D01*
X53950Y-47178D01*
X53950Y-47135D01*
X53964Y-47107D01*
X53978Y-47092D01*
X54007Y-47078D01*
X54078Y-47078D01*
X54107Y-47092D01*
X54121Y-47107D01*
X54135Y-47135D01*
X54135Y-47221D01*
X54121Y-47250D01*
X54107Y-47264D01*
X53835Y-46992D02*
X54135Y-46892D01*
X53835Y-46792D01*
G54D14*
X54300Y-47400D02*
X54500Y-47400D01*
X54300Y-46700D02*
X54300Y-47400D01*
X54500Y-46700D02*
X54300Y-46700D01*
G54D13*
X57650Y-47328D02*
X57635Y-47357D01*
X57635Y-47400D01*
X57650Y-47442D01*
X57678Y-47471D01*
X57707Y-47485D01*
X57764Y-47500D01*
X57807Y-47500D01*
X57864Y-47485D01*
X57892Y-47471D01*
X57921Y-47442D01*
X57935Y-47400D01*
X57935Y-47371D01*
X57921Y-47328D01*
X57907Y-47314D01*
X57807Y-47314D01*
X57807Y-47371D01*
X57935Y-47185D02*
X57635Y-47185D01*
X57935Y-47014D01*
X57635Y-47014D01*
X57935Y-46871D02*
X57635Y-46871D01*
X57635Y-46800D01*
X57650Y-46757D01*
X57678Y-46728D01*
X57707Y-46714D01*
X57764Y-46700D01*
X57807Y-46700D01*
X57864Y-46714D01*
X57892Y-46728D01*
X57921Y-46757D01*
X57935Y-46800D01*
X57935Y-46871D01*
G54D14*
X57500Y-46600D02*
X57300Y-46600D01*
X57500Y-47600D02*
X57500Y-46600D01*
X57300Y-47600D02*
X57500Y-47600D01*
G54D13*
X57650Y-44528D02*
X57635Y-44557D01*
X57635Y-44600D01*
X57650Y-44642D01*
X57678Y-44671D01*
X57707Y-44685D01*
X57764Y-44700D01*
X57807Y-44700D01*
X57864Y-44685D01*
X57892Y-44671D01*
X57921Y-44642D01*
X57935Y-44600D01*
X57935Y-44571D01*
X57921Y-44528D01*
X57907Y-44514D01*
X57807Y-44514D01*
X57807Y-44571D01*
X57935Y-44385D02*
X57635Y-44385D01*
X57935Y-44214D01*
X57635Y-44214D01*
X57935Y-44071D02*
X57635Y-44071D01*
X57635Y-44000D01*
X57650Y-43957D01*
X57678Y-43928D01*
X57707Y-43914D01*
X57764Y-43900D01*
X57807Y-43900D01*
X57864Y-43914D01*
X57892Y-43928D01*
X57921Y-43957D01*
X57935Y-44000D01*
X57935Y-44071D01*
G54D14*
X57500Y-43800D02*
X57300Y-43800D01*
X57500Y-44800D02*
X57500Y-43800D01*
X57300Y-44800D02*
X57500Y-44800D01*
G54D13*
X57635Y-43542D02*
X57635Y-43357D01*
X57750Y-43457D01*
X57750Y-43414D01*
X57764Y-43385D01*
X57778Y-43371D01*
X57807Y-43357D01*
X57878Y-43357D01*
X57907Y-43371D01*
X57921Y-43385D01*
X57935Y-43414D01*
X57935Y-43500D01*
X57921Y-43528D01*
X57907Y-43542D01*
X57907Y-43228D02*
X57921Y-43214D01*
X57935Y-43228D01*
X57921Y-43242D01*
X57907Y-43228D01*
X57935Y-43228D01*
X57635Y-43114D02*
X57635Y-42928D01*
X57750Y-43028D01*
X57750Y-42985D01*
X57764Y-42957D01*
X57778Y-42942D01*
X57807Y-42928D01*
X57878Y-42928D01*
X57907Y-42942D01*
X57921Y-42957D01*
X57935Y-42985D01*
X57935Y-43071D01*
X57921Y-43100D01*
X57907Y-43114D01*
X57635Y-42842D02*
X57935Y-42742D01*
X57635Y-42642D01*
G54D14*
X57500Y-42600D02*
X57300Y-42600D01*
X57500Y-43600D02*
X57500Y-42600D01*
X57300Y-43600D02*
X57500Y-43600D01*
G54D13*
X43985Y-46750D02*
X44128Y-46750D01*
X43957Y-46835D02*
X44057Y-46535D01*
X44157Y-46835D01*
X44385Y-46535D02*
X44328Y-46535D01*
X44300Y-46550D01*
X44285Y-46564D01*
X44257Y-46607D01*
X44242Y-46664D01*
X44242Y-46778D01*
X44257Y-46807D01*
X44271Y-46821D01*
X44300Y-46835D01*
X44357Y-46835D01*
X44385Y-46821D01*
X44400Y-46807D01*
X44414Y-46778D01*
X44414Y-46707D01*
X44400Y-46678D01*
X44385Y-46664D01*
X44357Y-46650D01*
X44300Y-46650D01*
X44271Y-46664D01*
X44257Y-46678D01*
X44242Y-46707D01*
X43985Y-46350D02*
X44128Y-46350D01*
X43957Y-46435D02*
X44057Y-46135D01*
X44157Y-46435D01*
X44400Y-46135D02*
X44257Y-46135D01*
X44242Y-46278D01*
X44257Y-46264D01*
X44285Y-46250D01*
X44357Y-46250D01*
X44385Y-46264D01*
X44400Y-46278D01*
X44414Y-46307D01*
X44414Y-46378D01*
X44400Y-46407D01*
X44385Y-46421D01*
X44357Y-46435D01*
X44285Y-46435D01*
X44257Y-46421D01*
X44242Y-46407D01*
X43985Y-45950D02*
X44128Y-45950D01*
X43957Y-46035D02*
X44057Y-45735D01*
X44157Y-46035D01*
X44385Y-45835D02*
X44385Y-46035D01*
X44314Y-45721D02*
X44242Y-45935D01*
X44428Y-45935D01*
X43985Y-45550D02*
X44128Y-45550D01*
X43957Y-45635D02*
X44057Y-45335D01*
X44157Y-45635D01*
X44228Y-45335D02*
X44414Y-45335D01*
X44314Y-45450D01*
X44357Y-45450D01*
X44385Y-45464D01*
X44400Y-45478D01*
X44414Y-45507D01*
X44414Y-45578D01*
X44400Y-45607D01*
X44385Y-45621D01*
X44357Y-45635D01*
X44271Y-45635D01*
X44242Y-45621D01*
X44228Y-45607D01*
X43985Y-45150D02*
X44128Y-45150D01*
X43957Y-45235D02*
X44057Y-44935D01*
X44157Y-45235D01*
X44242Y-44964D02*
X44257Y-44950D01*
X44285Y-44935D01*
X44357Y-44935D01*
X44385Y-44950D01*
X44400Y-44964D01*
X44414Y-44992D01*
X44414Y-45021D01*
X44400Y-45064D01*
X44228Y-45235D01*
X44414Y-45235D01*
X43985Y-44750D02*
X44128Y-44750D01*
X43957Y-44835D02*
X44057Y-44535D01*
X44157Y-44835D01*
X44414Y-44835D02*
X44242Y-44835D01*
X44328Y-44835D02*
X44328Y-44535D01*
X44300Y-44578D01*
X44271Y-44607D01*
X44242Y-44621D01*
X43985Y-44350D02*
X44128Y-44350D01*
X43957Y-44435D02*
X44057Y-44135D01*
X44157Y-44435D01*
X44314Y-44135D02*
X44342Y-44135D01*
X44371Y-44150D01*
X44385Y-44164D01*
X44400Y-44192D01*
X44414Y-44250D01*
X44414Y-44321D01*
X44400Y-44378D01*
X44385Y-44407D01*
X44371Y-44421D01*
X44342Y-44435D01*
X44314Y-44435D01*
X44285Y-44421D01*
X44271Y-44407D01*
X44257Y-44378D01*
X44242Y-44321D01*
X44242Y-44250D01*
X44257Y-44192D01*
X44271Y-44164D01*
X44285Y-44150D01*
X44314Y-44135D01*
X44235Y-47842D02*
X44235Y-47657D01*
X44350Y-47757D01*
X44350Y-47714D01*
X44364Y-47685D01*
X44378Y-47671D01*
X44407Y-47657D01*
X44478Y-47657D01*
X44507Y-47671D01*
X44521Y-47685D01*
X44535Y-47714D01*
X44535Y-47800D01*
X44521Y-47828D01*
X44507Y-47842D01*
X44507Y-47528D02*
X44521Y-47514D01*
X44535Y-47528D01*
X44521Y-47542D01*
X44507Y-47528D01*
X44535Y-47528D01*
X44235Y-47414D02*
X44235Y-47228D01*
X44350Y-47328D01*
X44350Y-47285D01*
X44364Y-47257D01*
X44378Y-47242D01*
X44407Y-47228D01*
X44478Y-47228D01*
X44507Y-47242D01*
X44521Y-47257D01*
X44535Y-47285D01*
X44535Y-47371D01*
X44521Y-47400D01*
X44507Y-47414D01*
X44235Y-47142D02*
X44535Y-47042D01*
X44235Y-46942D01*
G54D14*
X44150Y-47000D02*
X43950Y-47000D01*
X44150Y-47500D02*
X44150Y-47000D01*
X43950Y-47500D02*
X44150Y-47500D01*
G54D13*
X40500Y-47778D02*
X40485Y-47807D01*
X40485Y-47850D01*
X40500Y-47892D01*
X40528Y-47921D01*
X40557Y-47935D01*
X40614Y-47950D01*
X40657Y-47950D01*
X40714Y-47935D01*
X40742Y-47921D01*
X40771Y-47892D01*
X40785Y-47850D01*
X40785Y-47821D01*
X40771Y-47778D01*
X40757Y-47764D01*
X40657Y-47764D01*
X40657Y-47821D01*
X40785Y-47635D02*
X40485Y-47635D01*
X40785Y-47464D01*
X40485Y-47464D01*
X40785Y-47321D02*
X40485Y-47321D01*
X40485Y-47250D01*
X40500Y-47207D01*
X40528Y-47178D01*
X40557Y-47164D01*
X40614Y-47150D01*
X40657Y-47150D01*
X40714Y-47164D01*
X40742Y-47178D01*
X40771Y-47207D01*
X40785Y-47250D01*
X40785Y-47321D01*
G54D14*
X40900Y-47700D02*
X41100Y-47700D01*
X40900Y-47200D02*
X40900Y-47700D01*
X41100Y-47200D02*
X40900Y-47200D01*
G54D13*
X40671Y-47035D02*
X40500Y-47035D01*
X40585Y-47035D02*
X40585Y-46735D01*
X40557Y-46778D01*
X40528Y-46807D01*
X40500Y-46821D01*
X40800Y-47007D02*
X40814Y-47021D01*
X40800Y-47035D01*
X40785Y-47021D01*
X40800Y-47007D01*
X40800Y-47035D01*
X41000Y-46735D02*
X41028Y-46735D01*
X41057Y-46750D01*
X41071Y-46764D01*
X41085Y-46792D01*
X41100Y-46850D01*
X41100Y-46921D01*
X41085Y-46978D01*
X41071Y-47007D01*
X41057Y-47021D01*
X41028Y-47035D01*
X41000Y-47035D01*
X40971Y-47021D01*
X40957Y-47007D01*
X40942Y-46978D01*
X40928Y-46921D01*
X40928Y-46850D01*
X40942Y-46792D01*
X40957Y-46764D01*
X40971Y-46750D01*
X41000Y-46735D01*
X40671Y-46635D02*
X40500Y-46635D01*
X40585Y-46635D02*
X40585Y-46335D01*
X40557Y-46378D01*
X40528Y-46407D01*
X40500Y-46421D01*
X40800Y-46607D02*
X40814Y-46621D01*
X40800Y-46635D01*
X40785Y-46621D01*
X40800Y-46607D01*
X40800Y-46635D01*
X41100Y-46635D02*
X40928Y-46635D01*
X41014Y-46635D02*
X41014Y-46335D01*
X40985Y-46378D01*
X40957Y-46407D01*
X40928Y-46421D01*
X40671Y-46235D02*
X40500Y-46235D01*
X40585Y-46235D02*
X40585Y-45935D01*
X40557Y-45978D01*
X40528Y-46007D01*
X40500Y-46021D01*
X40800Y-46207D02*
X40814Y-46221D01*
X40800Y-46235D01*
X40785Y-46221D01*
X40800Y-46207D01*
X40800Y-46235D01*
X40928Y-45964D02*
X40942Y-45950D01*
X40971Y-45935D01*
X41042Y-45935D01*
X41071Y-45950D01*
X41085Y-45964D01*
X41100Y-45992D01*
X41100Y-46021D01*
X41085Y-46064D01*
X40914Y-46235D01*
X41100Y-46235D01*
X40671Y-45835D02*
X40500Y-45835D01*
X40585Y-45835D02*
X40585Y-45535D01*
X40557Y-45578D01*
X40528Y-45607D01*
X40500Y-45621D01*
X40800Y-45807D02*
X40814Y-45821D01*
X40800Y-45835D01*
X40785Y-45821D01*
X40800Y-45807D01*
X40800Y-45835D01*
X40914Y-45535D02*
X41100Y-45535D01*
X41000Y-45650D01*
X41042Y-45650D01*
X41071Y-45664D01*
X41085Y-45678D01*
X41100Y-45707D01*
X41100Y-45778D01*
X41085Y-45807D01*
X41071Y-45821D01*
X41042Y-45835D01*
X40957Y-45835D01*
X40928Y-45821D01*
X40914Y-45807D01*
X40671Y-45435D02*
X40500Y-45435D01*
X40585Y-45435D02*
X40585Y-45135D01*
X40557Y-45178D01*
X40528Y-45207D01*
X40500Y-45221D01*
X40800Y-45407D02*
X40814Y-45421D01*
X40800Y-45435D01*
X40785Y-45421D01*
X40800Y-45407D01*
X40800Y-45435D01*
X41071Y-45235D02*
X41071Y-45435D01*
X41000Y-45121D02*
X40928Y-45335D01*
X41114Y-45335D01*
X40671Y-45035D02*
X40500Y-45035D01*
X40585Y-45035D02*
X40585Y-44735D01*
X40557Y-44778D01*
X40528Y-44807D01*
X40500Y-44821D01*
X40800Y-45007D02*
X40814Y-45021D01*
X40800Y-45035D01*
X40785Y-45021D01*
X40800Y-45007D01*
X40800Y-45035D01*
X41085Y-44735D02*
X40942Y-44735D01*
X40928Y-44878D01*
X40942Y-44864D01*
X40971Y-44850D01*
X41042Y-44850D01*
X41071Y-44864D01*
X41085Y-44878D01*
X41100Y-44907D01*
X41100Y-44978D01*
X41085Y-45007D01*
X41071Y-45021D01*
X41042Y-45035D01*
X40971Y-45035D01*
X40942Y-45021D01*
X40928Y-45007D01*
X40671Y-44635D02*
X40500Y-44635D01*
X40585Y-44635D02*
X40585Y-44335D01*
X40557Y-44378D01*
X40528Y-44407D01*
X40500Y-44421D01*
X40800Y-44607D02*
X40814Y-44621D01*
X40800Y-44635D01*
X40785Y-44621D01*
X40800Y-44607D01*
X40800Y-44635D01*
X41071Y-44335D02*
X41014Y-44335D01*
X40985Y-44350D01*
X40971Y-44364D01*
X40942Y-44407D01*
X40928Y-44464D01*
X40928Y-44578D01*
X40942Y-44607D01*
X40957Y-44621D01*
X40985Y-44635D01*
X41042Y-44635D01*
X41071Y-44621D01*
X41085Y-44607D01*
X41100Y-44578D01*
X41100Y-44507D01*
X41085Y-44478D01*
X41071Y-44464D01*
X41042Y-44450D01*
X40985Y-44450D01*
X40957Y-44464D01*
X40942Y-44478D01*
X40928Y-44507D01*
X40671Y-44235D02*
X40500Y-44235D01*
X40585Y-44235D02*
X40585Y-43935D01*
X40557Y-43978D01*
X40528Y-44007D01*
X40500Y-44021D01*
X40800Y-44207D02*
X40814Y-44221D01*
X40800Y-44235D01*
X40785Y-44221D01*
X40800Y-44207D01*
X40800Y-44235D01*
X40914Y-43935D02*
X41114Y-43935D01*
X40985Y-44235D01*
X44250Y-43728D02*
X44235Y-43757D01*
X44235Y-43800D01*
X44250Y-43842D01*
X44278Y-43871D01*
X44307Y-43885D01*
X44364Y-43900D01*
X44407Y-43900D01*
X44464Y-43885D01*
X44492Y-43871D01*
X44521Y-43842D01*
X44535Y-43800D01*
X44535Y-43771D01*
X44521Y-43728D01*
X44507Y-43714D01*
X44407Y-43714D01*
X44407Y-43771D01*
X44535Y-43585D02*
X44235Y-43585D01*
X44535Y-43414D01*
X44235Y-43414D01*
X44535Y-43271D02*
X44235Y-43271D01*
X44235Y-43200D01*
X44250Y-43157D01*
X44278Y-43128D01*
X44307Y-43114D01*
X44364Y-43100D01*
X44407Y-43100D01*
X44464Y-43114D01*
X44492Y-43128D01*
X44521Y-43157D01*
X44535Y-43200D01*
X44535Y-43271D01*
G54D14*
X44150Y-43000D02*
X43950Y-43000D01*
X44150Y-44000D02*
X44150Y-43000D01*
X43950Y-44000D02*
X44150Y-44000D01*
G54D13*
X40435Y-43742D02*
X40435Y-43557D01*
X40550Y-43657D01*
X40550Y-43614D01*
X40564Y-43585D01*
X40578Y-43571D01*
X40607Y-43557D01*
X40678Y-43557D01*
X40707Y-43571D01*
X40721Y-43585D01*
X40735Y-43614D01*
X40735Y-43700D01*
X40721Y-43728D01*
X40707Y-43742D01*
X40707Y-43428D02*
X40721Y-43414D01*
X40735Y-43428D01*
X40721Y-43442D01*
X40707Y-43428D01*
X40735Y-43428D01*
X40435Y-43314D02*
X40435Y-43128D01*
X40550Y-43228D01*
X40550Y-43185D01*
X40564Y-43157D01*
X40578Y-43142D01*
X40607Y-43128D01*
X40678Y-43128D01*
X40707Y-43142D01*
X40721Y-43157D01*
X40735Y-43185D01*
X40735Y-43271D01*
X40721Y-43300D01*
X40707Y-43314D01*
X40435Y-43042D02*
X40735Y-42942D01*
X40435Y-42842D01*
G54D14*
X40900Y-42800D02*
X41100Y-42800D01*
X40900Y-43800D02*
X40900Y-42800D01*
X41100Y-43800D02*
X40900Y-43800D01*
G54D13*
X49792Y-38946D02*
X49852Y-39113D01*
X49911Y-38946D01*
X50138Y-39113D02*
X49995Y-39113D01*
X50066Y-39113D02*
X50066Y-38863D01*
X50042Y-38898D01*
X50019Y-38922D01*
X49995Y-38934D01*
X50245Y-39089D02*
X50257Y-39101D01*
X50245Y-39113D01*
X50233Y-39101D01*
X50245Y-39089D01*
X50245Y-39113D01*
X50411Y-38863D02*
X50435Y-38863D01*
X50459Y-38875D01*
X50471Y-38886D01*
X50483Y-38910D01*
X50495Y-38958D01*
X50495Y-39017D01*
X50483Y-39065D01*
X50471Y-39089D01*
X50459Y-39101D01*
X50435Y-39113D01*
X50411Y-39113D01*
X50388Y-39101D01*
X50376Y-39089D01*
X50364Y-39065D01*
X50352Y-39017D01*
X50352Y-38958D01*
X50364Y-38910D01*
X50376Y-38886D01*
X50388Y-38875D01*
X50411Y-38863D01*
G54D12*
X59055Y-51181D02*
X55118Y-55118D01*
X59055Y-39370D02*
X59055Y-51181D01*
X55118Y-35433D02*
X59055Y-39370D01*
X43307Y-35433D02*
X55118Y-35433D01*
X39370Y-39370D02*
X43307Y-35433D01*
X39370Y-51181D02*
X39370Y-39370D01*
G54D15*
X41535Y-41732D02*
X41732Y-41732D01*
X41535Y-41732D02*
X41141Y-41732D01*
X41141Y-41732D02*
X41141Y-48818D01*
X41141Y-48818D02*
X41732Y-48818D01*
X43307Y-41732D02*
X43897Y-41732D01*
X43897Y-41732D02*
X43897Y-48818D01*
X43897Y-48818D02*
X43307Y-48818D01*
X56889Y-48622D02*
X56692Y-48622D01*
X56889Y-48622D02*
X57283Y-48622D01*
X57283Y-48622D02*
X57283Y-41535D01*
X57283Y-41535D02*
X56692Y-41535D01*
X55118Y-48622D02*
X54527Y-48622D01*
X54527Y-48622D02*
X54527Y-41535D01*
X54527Y-41535D02*
X55118Y-41535D01*
X50865Y-48508D02*
G75*
G03X50865Y-48508I-124J0D01*
G74*
G01*
X50820Y-47170D02*
X50938Y-47170D01*
X50820Y-47170D02*
X50820Y-47445D01*
X52079Y-47170D02*
X51961Y-47170D01*
X52079Y-47170D02*
X52079Y-47445D01*
X52079Y-48429D02*
X51961Y-48429D01*
X52079Y-48429D02*
X52079Y-48154D01*
X50820Y-48429D02*
X50938Y-48429D01*
X50820Y-48429D02*
X50820Y-48154D01*
G54D16*
X52100Y-49850D02*
G75*
G03X52100Y-49850I-50J0D01*
G74*
G01*
X51600Y-49850D02*
X52000Y-49850D01*
X52000Y-49850D02*
X52000Y-50450D01*
X52000Y-50450D02*
X51600Y-50450D01*
X51200Y-50450D02*
X50800Y-50450D01*
X50800Y-50450D02*
X50800Y-49850D01*
X50800Y-49850D02*
X51200Y-49850D01*
X52100Y-49050D02*
G75*
G03X52100Y-49050I-50J0D01*
G74*
G01*
X51600Y-49050D02*
X52000Y-49050D01*
X52000Y-49050D02*
X52000Y-49650D01*
X52000Y-49650D02*
X51600Y-49650D01*
X51200Y-49650D02*
X50800Y-49650D01*
X50800Y-49650D02*
X50800Y-49050D01*
X50800Y-49050D02*
X51200Y-49050D01*
G54D17*
X52100Y-46700D02*
X51900Y-46700D01*
X51900Y-46700D02*
X51900Y-47000D01*
X51900Y-47000D02*
X52100Y-47000D01*
X52300Y-46700D02*
X52500Y-46700D01*
X52500Y-46700D02*
X52500Y-47000D01*
X52500Y-47000D02*
X52300Y-47000D01*
X51750Y-45850D02*
X51550Y-45850D01*
X51550Y-45850D02*
X51550Y-46150D01*
X51550Y-46150D02*
X51750Y-46150D01*
X51950Y-45850D02*
X52150Y-45850D01*
X52150Y-45850D02*
X52150Y-46150D01*
X52150Y-46150D02*
X51950Y-46150D01*
G54D16*
X51450Y-45850D02*
G75*
G03X51450Y-45850I-50J0D01*
G74*
G01*
X50950Y-45850D02*
X51350Y-45850D01*
X51350Y-45850D02*
X51350Y-46450D01*
X51350Y-46450D02*
X50950Y-46450D01*
X50550Y-46450D02*
X50150Y-46450D01*
X50150Y-46450D02*
X50150Y-45850D01*
X50150Y-45850D02*
X50550Y-45850D01*
X51450Y-45100D02*
G75*
G03X51450Y-45100I-50J0D01*
G74*
G01*
X50950Y-45100D02*
X51350Y-45100D01*
X51350Y-45100D02*
X51350Y-45700D01*
X51350Y-45700D02*
X50950Y-45700D01*
X50550Y-45700D02*
X50150Y-45700D01*
X50150Y-45700D02*
X50150Y-45100D01*
X50150Y-45100D02*
X50550Y-45100D01*
X51450Y-44350D02*
G75*
G03X51450Y-44350I-50J0D01*
G74*
G01*
X50950Y-44350D02*
X51350Y-44350D01*
X51350Y-44350D02*
X51350Y-44950D01*
X51350Y-44950D02*
X50950Y-44950D01*
X50550Y-44950D02*
X50150Y-44950D01*
X50150Y-44950D02*
X50150Y-44350D01*
X50150Y-44350D02*
X50550Y-44350D01*
G54D15*
X49012Y-48587D02*
X49012Y-47012D01*
X49012Y-47012D02*
X50587Y-47012D01*
X50587Y-47012D02*
X50587Y-48587D01*
X50587Y-48587D02*
X49012Y-48587D01*
G54D17*
X51350Y-46550D02*
X51150Y-46550D01*
X51150Y-46550D02*
X51150Y-46850D01*
X51150Y-46850D02*
X51350Y-46850D01*
X51550Y-46550D02*
X51750Y-46550D01*
X51750Y-46550D02*
X51750Y-46850D01*
X51750Y-46850D02*
X51550Y-46850D01*
X51750Y-46200D02*
X51550Y-46200D01*
X51550Y-46200D02*
X51550Y-46500D01*
X51550Y-46500D02*
X51750Y-46500D01*
X51950Y-46200D02*
X52150Y-46200D01*
X52150Y-46200D02*
X52150Y-46500D01*
X52150Y-46500D02*
X51950Y-46500D01*
X52700Y-48550D02*
X52900Y-48550D01*
X52900Y-48550D02*
X52900Y-48250D01*
X52900Y-48250D02*
X52700Y-48250D01*
X52500Y-48550D02*
X52300Y-48550D01*
X52300Y-48550D02*
X52300Y-48250D01*
X52300Y-48250D02*
X52500Y-48250D01*
X47300Y-45200D02*
X47500Y-45200D01*
X47500Y-45200D02*
X47500Y-44900D01*
X47500Y-44900D02*
X47300Y-44900D01*
X47100Y-45200D02*
X46900Y-45200D01*
X46900Y-45200D02*
X46900Y-44900D01*
X46900Y-44900D02*
X47100Y-44900D01*
X47850Y-45150D02*
X47650Y-45150D01*
X47650Y-45150D02*
X47650Y-45450D01*
X47650Y-45450D02*
X47850Y-45450D01*
X48050Y-45150D02*
X48250Y-45150D01*
X48250Y-45150D02*
X48250Y-45450D01*
X48250Y-45450D02*
X48050Y-45450D01*
X46400Y-47700D02*
X46600Y-47700D01*
X46600Y-47700D02*
X46600Y-47400D01*
X46600Y-47400D02*
X46400Y-47400D01*
X46200Y-47700D02*
X46000Y-47700D01*
X46000Y-47700D02*
X46000Y-47400D01*
X46000Y-47400D02*
X46200Y-47400D01*
X46400Y-48050D02*
X46600Y-48050D01*
X46600Y-48050D02*
X46600Y-47750D01*
X46600Y-47750D02*
X46400Y-47750D01*
X46200Y-48050D02*
X46000Y-48050D01*
X46000Y-48050D02*
X46000Y-47750D01*
X46000Y-47750D02*
X46200Y-47750D01*
X47600Y-47750D02*
X47400Y-47750D01*
X47400Y-47750D02*
X47400Y-48050D01*
X47400Y-48050D02*
X47600Y-48050D01*
X47800Y-47750D02*
X48000Y-47750D01*
X48000Y-47750D02*
X48000Y-48050D01*
X48000Y-48050D02*
X47800Y-48050D01*
X47300Y-44800D02*
X47500Y-44800D01*
X47500Y-44800D02*
X47500Y-44500D01*
X47500Y-44500D02*
X47300Y-44500D01*
X47100Y-44800D02*
X46900Y-44800D01*
X46900Y-44800D02*
X46900Y-44500D01*
X46900Y-44500D02*
X47100Y-44500D01*
X46000Y-47300D02*
X46200Y-47300D01*
X46200Y-47300D02*
X46200Y-47000D01*
X46200Y-47000D02*
X46000Y-47000D01*
X45800Y-47300D02*
X45600Y-47300D01*
X45600Y-47300D02*
X45600Y-47000D01*
X45600Y-47000D02*
X45800Y-47000D01*
X47350Y-48000D02*
X47350Y-47800D01*
X47350Y-47800D02*
X47050Y-47800D01*
X47050Y-47800D02*
X47050Y-48000D01*
X47350Y-48200D02*
X47350Y-48400D01*
X47350Y-48400D02*
X47050Y-48400D01*
X47050Y-48400D02*
X47050Y-48200D01*
X46950Y-48000D02*
X46950Y-47800D01*
X46950Y-47800D02*
X46650Y-47800D01*
X46650Y-47800D02*
X46650Y-48000D01*
X46950Y-48200D02*
X46950Y-48400D01*
X46950Y-48400D02*
X46650Y-48400D01*
X46650Y-48400D02*
X46650Y-48200D01*
G54D13*
X46803Y-48475D02*
X46525Y-48475D01*
X46525Y-48475D02*
X46525Y-49025D01*
X46525Y-49025D02*
X46803Y-49025D01*
X47475Y-48475D02*
X47197Y-48475D01*
X47475Y-48475D02*
X47475Y-49025D01*
X47475Y-49025D02*
X47197Y-49025D01*
G54D15*
X46470Y-47187D02*
X46588Y-47187D01*
X46470Y-47187D02*
X46470Y-46990D01*
X46470Y-45612D02*
X46588Y-45612D01*
X46470Y-45612D02*
X46470Y-45809D01*
X47729Y-47187D02*
X47611Y-47187D01*
X47729Y-47187D02*
X47729Y-46990D01*
X47729Y-45612D02*
X47611Y-45612D01*
X47729Y-45612D02*
X47729Y-45809D01*
X48011Y-45533D02*
G75*
G03X48011Y-45533I-124J0D01*
G74*
G01*
G54D18*
G36*
X48696Y-37678D02*
X48695Y-37690D01*
X48691Y-37700D01*
X48683Y-37707D01*
X48670Y-37712D01*
X48650Y-37716D01*
X48623Y-37717D01*
X48587Y-37718D01*
X48540Y-37719D01*
X48482Y-37718D01*
X48430Y-37718D01*
X48364Y-37718D01*
X48311Y-37718D01*
X48269Y-37719D01*
X48236Y-37719D01*
X48210Y-37720D01*
X48192Y-37722D01*
X48178Y-37723D01*
X48167Y-37726D01*
X48159Y-37729D01*
X48151Y-37732D01*
X48148Y-37734D01*
X48118Y-37757D01*
X48102Y-37780D01*
X48097Y-37790D01*
X48093Y-37801D01*
X48090Y-37813D01*
X48088Y-37829D01*
X48087Y-37852D01*
X48087Y-37883D01*
X48086Y-37924D01*
X48086Y-37959D01*
X48086Y-38109D01*
X48109Y-38095D01*
X48115Y-38092D01*
X48122Y-38089D01*
X48132Y-38086D01*
X48146Y-38085D01*
X48164Y-38083D01*
X48190Y-38083D01*
X48223Y-38082D01*
X48266Y-38082D01*
X48320Y-38082D01*
X48386Y-38082D01*
X48386Y-38082D01*
X48642Y-38082D01*
X48640Y-38141D01*
X48638Y-38201D01*
X48362Y-38203D01*
X48086Y-38205D01*
X48088Y-38352D01*
X48088Y-38403D01*
X48090Y-38444D01*
X48092Y-38474D01*
X48096Y-38497D01*
X48101Y-38514D01*
X48109Y-38527D01*
X48120Y-38537D01*
X48135Y-38548D01*
X48141Y-38552D01*
X48147Y-38556D01*
X48154Y-38559D01*
X48162Y-38562D01*
X48173Y-38564D01*
X48189Y-38565D01*
X48210Y-38566D01*
X48239Y-38567D01*
X48277Y-38567D01*
X48325Y-38568D01*
X48385Y-38568D01*
X48419Y-38568D01*
X48486Y-38568D01*
X48540Y-38568D01*
X48583Y-38568D01*
X48617Y-38569D01*
X48642Y-38570D01*
X48660Y-38571D01*
X48672Y-38573D01*
X48680Y-38575D01*
X48685Y-38578D01*
X48685Y-38579D01*
X48691Y-38588D01*
X48694Y-38603D01*
X48695Y-38627D01*
X48694Y-38642D01*
X48693Y-38694D01*
X48439Y-38695D01*
X48380Y-38695D01*
X48324Y-38695D01*
X48273Y-38695D01*
X48229Y-38694D01*
X48193Y-38693D01*
X48167Y-38692D01*
X48153Y-38691D01*
X48104Y-38676D01*
X48057Y-38649D01*
X48016Y-38613D01*
X47983Y-38570D01*
X47971Y-38549D01*
X47953Y-38510D01*
X47953Y-38146D01*
X47953Y-37784D01*
X47972Y-37742D01*
X48001Y-37695D01*
X48040Y-37654D01*
X48087Y-37622D01*
X48097Y-37618D01*
X48138Y-37599D01*
X48417Y-37597D01*
X48696Y-37595D01*
X48696Y-37643D01*
X48696Y-37662D01*
X48696Y-37678D01*
X48696Y-37678D01*
X48696Y-37678D01*
G37*
G36*
X49617Y-37914D02*
X49617Y-37960D01*
X49617Y-37995D01*
X49616Y-38022D01*
X49614Y-38041D01*
X49612Y-38056D01*
X49608Y-38069D01*
X49602Y-38082D01*
X49598Y-38093D01*
X49568Y-38142D01*
X49528Y-38182D01*
X49483Y-38210D01*
X49483Y-37975D01*
X49483Y-37940D01*
X49482Y-37908D01*
X49481Y-37865D01*
X49480Y-37833D01*
X49479Y-37811D01*
X49477Y-37795D01*
X49473Y-37784D01*
X49468Y-37774D01*
X49464Y-37767D01*
X49454Y-37754D01*
X49443Y-37744D01*
X49431Y-37736D01*
X49415Y-37730D01*
X49395Y-37725D01*
X49367Y-37722D01*
X49332Y-37720D01*
X49286Y-37719D01*
X49230Y-37719D01*
X49189Y-37719D01*
X49125Y-37719D01*
X49075Y-37719D01*
X49036Y-37720D01*
X49008Y-37722D01*
X48989Y-37723D01*
X48980Y-37726D01*
X48978Y-37727D01*
X48975Y-37734D01*
X48973Y-37749D01*
X48972Y-37775D01*
X48971Y-37812D01*
X48970Y-37860D01*
X48970Y-37917D01*
X48970Y-37966D01*
X48971Y-38010D01*
X48971Y-38048D01*
X48972Y-38077D01*
X48973Y-38097D01*
X48975Y-38104D01*
X48982Y-38105D01*
X49002Y-38106D01*
X49032Y-38107D01*
X49071Y-38108D01*
X49116Y-38108D01*
X49167Y-38109D01*
X49191Y-38109D01*
X49251Y-38109D01*
X49298Y-38109D01*
X49335Y-38108D01*
X49363Y-38107D01*
X49384Y-38106D01*
X49400Y-38105D01*
X49411Y-38102D01*
X49419Y-38099D01*
X49427Y-38095D01*
X49429Y-38094D01*
X49449Y-38078D01*
X49467Y-38058D01*
X49470Y-38053D01*
X49475Y-38043D01*
X49479Y-38032D01*
X49481Y-38019D01*
X49483Y-38000D01*
X49483Y-37975D01*
X49483Y-38210D01*
X49480Y-38212D01*
X49426Y-38231D01*
X49423Y-38231D01*
X49405Y-38234D01*
X49376Y-38236D01*
X49339Y-38237D01*
X49297Y-38238D01*
X49250Y-38239D01*
X49203Y-38239D01*
X49156Y-38239D01*
X49113Y-38238D01*
X49075Y-38237D01*
X49045Y-38235D01*
X49025Y-38233D01*
X49020Y-38232D01*
X49000Y-38221D01*
X48985Y-38210D01*
X48970Y-38196D01*
X48970Y-38436D01*
X48970Y-38501D01*
X48970Y-38553D01*
X48969Y-38594D01*
X48968Y-38626D01*
X48967Y-38650D01*
X48966Y-38666D01*
X48964Y-38677D01*
X48962Y-38684D01*
X48959Y-38687D01*
X48947Y-38692D01*
X48927Y-38696D01*
X48902Y-38698D01*
X48876Y-38698D01*
X48852Y-38697D01*
X48835Y-38693D01*
X48829Y-38689D01*
X48829Y-38681D01*
X48828Y-38660D01*
X48828Y-38628D01*
X48827Y-38585D01*
X48827Y-38533D01*
X48827Y-38473D01*
X48827Y-38405D01*
X48827Y-38332D01*
X48827Y-38253D01*
X48828Y-38170D01*
X48828Y-38167D01*
X48828Y-38071D01*
X48828Y-37987D01*
X48829Y-37915D01*
X48829Y-37855D01*
X48830Y-37804D01*
X48830Y-37762D01*
X48831Y-37728D01*
X48832Y-37701D01*
X48833Y-37680D01*
X48834Y-37665D01*
X48836Y-37653D01*
X48837Y-37645D01*
X48839Y-37640D01*
X48842Y-37635D01*
X48842Y-37634D01*
X48849Y-37625D01*
X48856Y-37617D01*
X48865Y-37610D01*
X48876Y-37605D01*
X48891Y-37602D01*
X48912Y-37599D01*
X48940Y-37597D01*
X48976Y-37596D01*
X49022Y-37595D01*
X49079Y-37595D01*
X49148Y-37595D01*
X49153Y-37595D01*
X49224Y-37595D01*
X49283Y-37596D01*
X49332Y-37596D01*
X49371Y-37598D01*
X49402Y-37599D01*
X49427Y-37602D01*
X49447Y-37606D01*
X49463Y-37611D01*
X49478Y-37617D01*
X49492Y-37625D01*
X49502Y-37631D01*
X49545Y-37666D01*
X49581Y-37709D01*
X49599Y-37739D01*
X49605Y-37752D01*
X49610Y-37764D01*
X49613Y-37777D01*
X49615Y-37793D01*
X49616Y-37814D01*
X49617Y-37844D01*
X49617Y-37883D01*
X49617Y-37914D01*
X49617Y-37914D01*
X49617Y-37914D01*
G37*
G36*
X50531Y-38385D02*
X50530Y-38407D01*
X50530Y-38448D01*
X50528Y-38478D01*
X50527Y-38501D01*
X50524Y-38518D01*
X50519Y-38533D01*
X50513Y-38548D01*
X50506Y-38562D01*
X50475Y-38611D01*
X50435Y-38649D01*
X50386Y-38677D01*
X50382Y-38679D01*
X50372Y-38682D01*
X50363Y-38685D01*
X50352Y-38688D01*
X50339Y-38690D01*
X50322Y-38692D01*
X50299Y-38693D01*
X50270Y-38694D01*
X50233Y-38694D01*
X50187Y-38695D01*
X50130Y-38696D01*
X50061Y-38696D01*
X50037Y-38697D01*
X49730Y-38699D01*
X49730Y-38637D01*
X49731Y-38607D01*
X49732Y-38588D01*
X49735Y-38577D01*
X49741Y-38572D01*
X49741Y-38572D01*
X49750Y-38571D01*
X49771Y-38570D01*
X49803Y-38569D01*
X49844Y-38569D01*
X49893Y-38568D01*
X49948Y-38568D01*
X50008Y-38568D01*
X50038Y-38568D01*
X50108Y-38568D01*
X50166Y-38568D01*
X50212Y-38567D01*
X50249Y-38567D01*
X50278Y-38566D01*
X50299Y-38565D01*
X50315Y-38564D01*
X50326Y-38562D01*
X50334Y-38560D01*
X50340Y-38557D01*
X50346Y-38553D01*
X50347Y-38552D01*
X50367Y-38537D01*
X50381Y-38519D01*
X50390Y-38497D01*
X50396Y-38468D01*
X50400Y-38429D01*
X50400Y-38406D01*
X50401Y-38366D01*
X50400Y-38335D01*
X50397Y-38315D01*
X50395Y-38309D01*
X50390Y-38304D01*
X50380Y-38298D01*
X50362Y-38290D01*
X50336Y-38280D01*
X50301Y-38267D01*
X50256Y-38252D01*
X50201Y-38233D01*
X50133Y-38210D01*
X50097Y-38198D01*
X50036Y-38177D01*
X49978Y-38158D01*
X49925Y-38139D01*
X49878Y-38123D01*
X49839Y-38108D01*
X49810Y-38097D01*
X49790Y-38089D01*
X49784Y-38086D01*
X49766Y-38070D01*
X49749Y-38049D01*
X49746Y-38043D01*
X49740Y-38033D01*
X49736Y-38022D01*
X49733Y-38008D01*
X49732Y-37989D01*
X49731Y-37963D01*
X49730Y-37927D01*
X49730Y-37896D01*
X49731Y-37846D01*
X49732Y-37808D01*
X49734Y-37780D01*
X49737Y-37759D01*
X49741Y-37745D01*
X49763Y-37698D01*
X49796Y-37660D01*
X49838Y-37630D01*
X49886Y-37609D01*
X49897Y-37606D01*
X49908Y-37603D01*
X49921Y-37601D01*
X49937Y-37599D01*
X49957Y-37597D01*
X49983Y-37597D01*
X50016Y-37596D01*
X50058Y-37595D01*
X50110Y-37595D01*
X50173Y-37595D01*
X50216Y-37595D01*
X50504Y-37595D01*
X50504Y-37645D01*
X50503Y-37674D01*
X50500Y-37696D01*
X50496Y-37707D01*
X50492Y-37710D01*
X50486Y-37712D01*
X50477Y-37714D01*
X50462Y-37715D01*
X50441Y-37717D01*
X50412Y-37718D01*
X50374Y-37718D01*
X50326Y-37719D01*
X50267Y-37719D01*
X50213Y-37720D01*
X49939Y-37722D01*
X49913Y-37738D01*
X49897Y-37750D01*
X49884Y-37762D01*
X49876Y-37779D01*
X49871Y-37800D01*
X49868Y-37830D01*
X49867Y-37871D01*
X49867Y-37888D01*
X49868Y-37931D01*
X49869Y-37962D01*
X49871Y-37981D01*
X49875Y-37990D01*
X49876Y-37991D01*
X49884Y-37994D01*
X49903Y-38001D01*
X49934Y-38012D01*
X49973Y-38026D01*
X50019Y-38042D01*
X50072Y-38060D01*
X50130Y-38079D01*
X50179Y-38095D01*
X50250Y-38119D01*
X50309Y-38139D01*
X50358Y-38155D01*
X50396Y-38169D01*
X50427Y-38181D01*
X50450Y-38190D01*
X50468Y-38197D01*
X50480Y-38204D01*
X50489Y-38210D01*
X50495Y-38215D01*
X50508Y-38230D01*
X50518Y-38248D01*
X50525Y-38270D01*
X50529Y-38299D01*
X50531Y-38337D01*
X50531Y-38385D01*
X50531Y-38385D01*
X50531Y-38385D01*
G37*
G36*
X48688Y-37329D02*
X48687Y-37365D01*
X48686Y-37393D01*
X48683Y-37413D01*
X48678Y-37428D01*
X48671Y-37441D01*
X48663Y-37451D01*
X48658Y-37456D01*
X48636Y-37479D01*
X48553Y-37479D01*
X48470Y-37479D01*
X48470Y-37459D01*
X48470Y-37439D01*
X48545Y-37437D01*
X48583Y-37434D01*
X48610Y-37431D01*
X48626Y-37427D01*
X48628Y-37426D01*
X48633Y-37415D01*
X48638Y-37395D01*
X48640Y-37375D01*
X48641Y-37352D01*
X48641Y-37340D01*
X48637Y-37337D01*
X48630Y-37338D01*
X48627Y-37339D01*
X48606Y-37343D01*
X48578Y-37345D01*
X48549Y-37344D01*
X48522Y-37341D01*
X48503Y-37336D01*
X48502Y-37335D01*
X48487Y-37326D01*
X48476Y-37316D01*
X48468Y-37301D01*
X48463Y-37281D01*
X48460Y-37253D01*
X48458Y-37215D01*
X48457Y-37183D01*
X48455Y-37075D01*
X48480Y-37075D01*
X48504Y-37075D01*
X48504Y-37172D01*
X48504Y-37217D01*
X48506Y-37250D01*
X48510Y-37273D01*
X48516Y-37288D01*
X48527Y-37296D01*
X48543Y-37300D01*
X48565Y-37300D01*
X48573Y-37301D01*
X48596Y-37300D01*
X48614Y-37297D01*
X48626Y-37291D01*
X48634Y-37278D01*
X48639Y-37258D01*
X48641Y-37228D01*
X48641Y-37187D01*
X48641Y-37172D01*
X48641Y-37074D01*
X48663Y-37076D01*
X48686Y-37078D01*
X48688Y-37225D01*
X48688Y-37283D01*
X48688Y-37329D01*
X48688Y-37329D01*
X48688Y-37329D01*
G37*
G36*
X48121Y-37255D02*
X48119Y-37286D01*
X48112Y-37309D01*
X48098Y-37326D01*
X48077Y-37337D01*
X48047Y-37344D01*
X48005Y-37348D01*
X47964Y-37349D01*
X47887Y-37349D01*
X47889Y-37326D01*
X47891Y-37304D01*
X47979Y-37301D01*
X48018Y-37299D01*
X48046Y-37296D01*
X48064Y-37292D01*
X48074Y-37285D01*
X48078Y-37275D01*
X48078Y-37262D01*
X48078Y-37260D01*
X48076Y-37253D01*
X48071Y-37247D01*
X48061Y-37242D01*
X48044Y-37236D01*
X48017Y-37228D01*
X47990Y-37222D01*
X47957Y-37213D01*
X47928Y-37205D01*
X47907Y-37199D01*
X47896Y-37195D01*
X47896Y-37195D01*
X47891Y-37186D01*
X47888Y-37167D01*
X47888Y-37152D01*
X47889Y-37129D01*
X47893Y-37113D01*
X47903Y-37101D01*
X47909Y-37094D01*
X47930Y-37075D01*
X48023Y-37075D01*
X48115Y-37075D01*
X48113Y-37093D01*
X48110Y-37112D01*
X48032Y-37114D01*
X47998Y-37116D01*
X47970Y-37118D01*
X47951Y-37121D01*
X47944Y-37124D01*
X47938Y-37136D01*
X47937Y-37149D01*
X47939Y-37157D01*
X47944Y-37164D01*
X47956Y-37169D01*
X47975Y-37175D01*
X48004Y-37182D01*
X48036Y-37190D01*
X48065Y-37197D01*
X48088Y-37203D01*
X48095Y-37205D01*
X48121Y-37212D01*
X48121Y-37255D01*
X48121Y-37255D01*
X48121Y-37255D01*
G37*
G36*
X48415Y-37345D02*
X48409Y-37347D01*
X48394Y-37349D01*
X48391Y-37349D01*
X48380Y-37348D01*
X48371Y-37345D01*
X48363Y-37336D01*
X48354Y-37321D01*
X48341Y-37296D01*
X48338Y-37290D01*
X48309Y-37232D01*
X48273Y-37232D01*
X48238Y-37232D01*
X48236Y-37289D01*
X48234Y-37345D01*
X48211Y-37347D01*
X48189Y-37349D01*
X48189Y-37143D01*
X48189Y-36937D01*
X48211Y-36939D01*
X48234Y-36941D01*
X48235Y-37067D01*
X48237Y-37193D01*
X48285Y-37190D01*
X48310Y-37187D01*
X48330Y-37183D01*
X48341Y-37179D01*
X48341Y-37179D01*
X48346Y-37168D01*
X48350Y-37148D01*
X48352Y-37123D01*
X48352Y-37122D01*
X48355Y-37075D01*
X48378Y-37075D01*
X48401Y-37075D01*
X48401Y-37111D01*
X48398Y-37156D01*
X48386Y-37191D01*
X48373Y-37209D01*
X48357Y-37226D01*
X48386Y-37284D01*
X48399Y-37309D01*
X48408Y-37330D01*
X48414Y-37343D01*
X48415Y-37345D01*
X48415Y-37345D01*
X48415Y-37345D01*
G37*
G36*
X48929Y-37349D02*
X48876Y-37348D01*
X48849Y-37347D01*
X48827Y-37346D01*
X48813Y-37344D01*
X48812Y-37344D01*
X48789Y-37335D01*
X48773Y-37323D01*
X48762Y-37307D01*
X48755Y-37285D01*
X48752Y-37253D01*
X48751Y-37209D01*
X48751Y-37208D01*
X48752Y-37162D01*
X48757Y-37128D01*
X48767Y-37103D01*
X48784Y-37088D01*
X48809Y-37079D01*
X48844Y-37075D01*
X48870Y-37075D01*
X48929Y-37075D01*
X48929Y-37095D01*
X48929Y-37116D01*
X48881Y-37116D01*
X48854Y-37117D01*
X48831Y-37119D01*
X48816Y-37122D01*
X48809Y-37126D01*
X48804Y-37131D01*
X48801Y-37139D01*
X48799Y-37155D01*
X48799Y-37179D01*
X48799Y-37207D01*
X48799Y-37248D01*
X48802Y-37276D01*
X48806Y-37291D01*
X48807Y-37292D01*
X48819Y-37297D01*
X48841Y-37300D01*
X48872Y-37301D01*
X48929Y-37301D01*
X48929Y-37325D01*
X48929Y-37349D01*
X48929Y-37349D01*
X48929Y-37349D01*
G37*
G36*
X49210Y-37234D02*
X49209Y-37280D01*
X49208Y-37312D01*
X49205Y-37332D01*
X49201Y-37340D01*
X49192Y-37343D01*
X49172Y-37346D01*
X49162Y-37346D01*
X49162Y-37301D01*
X49162Y-37258D01*
X49162Y-37215D01*
X49105Y-37217D01*
X49078Y-37219D01*
X49055Y-37222D01*
X49042Y-37226D01*
X49040Y-37227D01*
X49033Y-37240D01*
X49031Y-37259D01*
X49034Y-37278D01*
X49041Y-37292D01*
X49044Y-37293D01*
X49056Y-37297D01*
X49078Y-37299D01*
X49104Y-37300D01*
X49109Y-37300D01*
X49162Y-37301D01*
X49162Y-37346D01*
X49145Y-37347D01*
X49115Y-37348D01*
X49085Y-37348D01*
X49059Y-37346D01*
X49041Y-37344D01*
X49019Y-37333D01*
X49001Y-37312D01*
X48988Y-37285D01*
X48985Y-37268D01*
X48986Y-37233D01*
X48996Y-37207D01*
X49016Y-37188D01*
X49047Y-37176D01*
X49089Y-37171D01*
X49107Y-37170D01*
X49134Y-37170D01*
X49150Y-37169D01*
X49158Y-37166D01*
X49161Y-37161D01*
X49162Y-37154D01*
X49158Y-37137D01*
X49146Y-37126D01*
X49124Y-37119D01*
X49090Y-37116D01*
X49071Y-37116D01*
X49011Y-37116D01*
X49011Y-37095D01*
X49011Y-37075D01*
X49083Y-37075D01*
X49123Y-37075D01*
X49154Y-37079D01*
X49177Y-37088D01*
X49192Y-37102D01*
X49202Y-37124D01*
X49207Y-37156D01*
X49209Y-37198D01*
X49210Y-37234D01*
X49210Y-37234D01*
X49210Y-37234D01*
G37*
G36*
X49504Y-37349D02*
X49482Y-37347D01*
X49460Y-37345D01*
X49458Y-37237D01*
X49457Y-37194D01*
X49455Y-37162D01*
X49452Y-37140D01*
X49445Y-37126D01*
X49434Y-37119D01*
X49417Y-37116D01*
X49393Y-37116D01*
X49376Y-37117D01*
X49323Y-37119D01*
X49321Y-37234D01*
X49319Y-37349D01*
X49295Y-37349D01*
X49271Y-37349D01*
X49271Y-37227D01*
X49271Y-37177D01*
X49272Y-37140D01*
X49275Y-37113D01*
X49280Y-37095D01*
X49289Y-37083D01*
X49303Y-37077D01*
X49324Y-37075D01*
X49351Y-37074D01*
X49368Y-37075D01*
X49411Y-37075D01*
X49443Y-37078D01*
X49467Y-37086D01*
X49484Y-37099D01*
X49495Y-37119D01*
X49501Y-37148D01*
X49504Y-37188D01*
X49504Y-37239D01*
X49504Y-37349D01*
X49504Y-37349D01*
X49504Y-37349D01*
G37*
G36*
X49627Y-37340D02*
X49623Y-37347D01*
X49610Y-37349D01*
X49605Y-37349D01*
X49588Y-37347D01*
X49578Y-37344D01*
X49577Y-37344D01*
X49574Y-37335D01*
X49573Y-37318D01*
X49573Y-37316D01*
X49573Y-37301D01*
X49579Y-37295D01*
X49592Y-37295D01*
X49598Y-37295D01*
X49615Y-37298D01*
X49623Y-37304D01*
X49626Y-37319D01*
X49626Y-37323D01*
X49627Y-37340D01*
X49627Y-37340D01*
X49627Y-37340D01*
G37*
G36*
X49744Y-37349D02*
X49720Y-37349D01*
X49696Y-37349D01*
X49696Y-37212D01*
X49696Y-37075D01*
X49720Y-37075D01*
X49744Y-37075D01*
X49744Y-37212D01*
X49744Y-37349D01*
X49744Y-37349D01*
X49744Y-37349D01*
G37*
G36*
X50044Y-37193D02*
X50044Y-37225D01*
X50041Y-37269D01*
X50034Y-37302D01*
X50023Y-37324D01*
X50004Y-37338D01*
X49997Y-37340D01*
X49997Y-37210D01*
X49997Y-37173D01*
X49994Y-37147D01*
X49987Y-37130D01*
X49975Y-37121D01*
X49956Y-37117D01*
X49929Y-37116D01*
X49926Y-37116D01*
X49898Y-37117D01*
X49877Y-37120D01*
X49869Y-37124D01*
X49864Y-37135D01*
X49861Y-37157D01*
X49860Y-37185D01*
X49860Y-37216D01*
X49861Y-37246D01*
X49864Y-37272D01*
X49868Y-37291D01*
X49871Y-37297D01*
X49886Y-37304D01*
X49910Y-37308D01*
X49937Y-37308D01*
X49962Y-37304D01*
X49980Y-37297D01*
X49984Y-37294D01*
X49990Y-37286D01*
X49994Y-37275D01*
X49996Y-37259D01*
X49997Y-37233D01*
X49997Y-37210D01*
X49997Y-37340D01*
X49977Y-37346D01*
X49939Y-37348D01*
X49924Y-37349D01*
X49894Y-37348D01*
X49874Y-37346D01*
X49860Y-37342D01*
X49849Y-37336D01*
X49846Y-37333D01*
X49832Y-37320D01*
X49823Y-37306D01*
X49817Y-37288D01*
X49814Y-37263D01*
X49812Y-37229D01*
X49812Y-37208D01*
X49813Y-37161D01*
X49818Y-37126D01*
X49827Y-37102D01*
X49843Y-37085D01*
X49866Y-37076D01*
X49899Y-37072D01*
X49929Y-37071D01*
X49960Y-37072D01*
X49981Y-37074D01*
X49996Y-37078D01*
X50008Y-37085D01*
X50009Y-37086D01*
X50025Y-37102D01*
X50036Y-37123D01*
X50042Y-37153D01*
X50044Y-37193D01*
X50044Y-37193D01*
X50044Y-37193D01*
G37*
G36*
X49744Y-36975D02*
X49743Y-36991D01*
X49737Y-36998D01*
X49722Y-36999D01*
X49720Y-36999D01*
X49704Y-36998D01*
X49697Y-36992D01*
X49696Y-36977D01*
X49696Y-36975D01*
X49697Y-36959D01*
X49703Y-36953D01*
X49718Y-36951D01*
X49720Y-36951D01*
X49736Y-36952D01*
X49743Y-36958D01*
X49744Y-36973D01*
X49744Y-36975D01*
X49744Y-36975D01*
X49744Y-36975D01*
G37*
G54D16*
X46600Y-52300D02*
G75*
G03X46600Y-52300I-50J0D01*
G74*
G01*
X47000Y-52300D02*
X46600Y-52300D01*
X46600Y-52300D02*
X46600Y-51700D01*
X46600Y-51700D02*
X47000Y-51700D01*
X47400Y-51700D02*
X47800Y-51700D01*
X47800Y-51700D02*
X47800Y-52300D01*
X47800Y-52300D02*
X47400Y-52300D01*
X45850Y-50250D02*
G75*
G03X45850Y-50250I-50J0D01*
G74*
G01*
X45800Y-50700D02*
X45800Y-50300D01*
X45800Y-50300D02*
X46400Y-50300D01*
X46400Y-50300D02*
X46400Y-50700D01*
X46400Y-51100D02*
X46400Y-51500D01*
X46400Y-51500D02*
X45800Y-51500D01*
X45800Y-51500D02*
X45800Y-51100D01*
G54D19*
X49727Y-54573D02*
X49727Y-54927D01*
X49727Y-54927D02*
X49884Y-54927D01*
X49884Y-54573D02*
X49884Y-54927D01*
X49727Y-54573D02*
X49884Y-54573D01*
X49216Y-54573D02*
X49216Y-54927D01*
X49216Y-54927D02*
X49373Y-54927D01*
X49373Y-54573D02*
X49373Y-54927D01*
X49216Y-54573D02*
X49373Y-54573D01*
X49550Y-54573D02*
X49550Y-54632D01*
X49550Y-54632D02*
X49668Y-54632D01*
X49668Y-54573D02*
X49668Y-54632D01*
X49550Y-54573D02*
X49668Y-54573D01*
X49550Y-54868D02*
X49550Y-54927D01*
X49550Y-54927D02*
X49668Y-54927D01*
X49668Y-54868D02*
X49668Y-54927D01*
X49550Y-54868D02*
X49668Y-54868D01*
X49550Y-54691D02*
X49550Y-54809D01*
X49550Y-54809D02*
X49668Y-54809D01*
X49668Y-54691D02*
X49668Y-54809D01*
X49550Y-54691D02*
X49668Y-54691D01*
G54D20*
X49727Y-54593D02*
X49373Y-54593D01*
X49727Y-54907D02*
X49373Y-54907D01*
G54D17*
X48800Y-51900D02*
X48800Y-51700D01*
X48800Y-51700D02*
X48500Y-51700D01*
X48500Y-51700D02*
X48500Y-51900D01*
X48800Y-52100D02*
X48800Y-52300D01*
X48800Y-52300D02*
X48500Y-52300D01*
X48500Y-52300D02*
X48500Y-52100D01*
X48000Y-52100D02*
X48000Y-52300D01*
X48000Y-52300D02*
X48300Y-52300D01*
X48300Y-52300D02*
X48300Y-52100D01*
X48000Y-51900D02*
X48000Y-51700D01*
X48000Y-51700D02*
X48300Y-51700D01*
X48300Y-51700D02*
X48300Y-51900D01*
G54D16*
X45625Y-54894D02*
X45625Y-54972D01*
X48775Y-54894D02*
X48775Y-54972D01*
X45625Y-52768D02*
X48775Y-52768D01*
X48775Y-52768D02*
X48775Y-54894D01*
X48775Y-54972D02*
X45625Y-54972D01*
X45625Y-54894D02*
X45625Y-52768D01*
G54D13*
X46600Y-51200D02*
X46600Y-50500D01*
X46600Y-50500D02*
X47800Y-50500D01*
X47800Y-50500D02*
X47800Y-51200D01*
X47800Y-51200D02*
X46600Y-51200D01*
G54D15*
X50648Y-54219D02*
X50648Y-55006D01*
X50648Y-55006D02*
X51751Y-55006D01*
X51751Y-55006D02*
X51751Y-54219D01*
X53089Y-52841D02*
X52617Y-52841D01*
X53089Y-52841D02*
X53089Y-54258D01*
X53089Y-54258D02*
X52617Y-54258D01*
X49310Y-52841D02*
X49782Y-52841D01*
X49310Y-52841D02*
X49310Y-54258D01*
X49310Y-54258D02*
X49822Y-54258D01*
G54D13*
X42400Y-40985D02*
X42400Y-41200D01*
X42385Y-41242D01*
X42357Y-41271D01*
X42314Y-41285D01*
X42285Y-41285D01*
X42700Y-41285D02*
X42528Y-41285D01*
X42614Y-41285D02*
X42614Y-40985D01*
X42585Y-41028D01*
X42557Y-41057D01*
X42528Y-41071D01*
X55820Y-40753D02*
X55820Y-40968D01*
X55805Y-41010D01*
X55777Y-41039D01*
X55734Y-41053D01*
X55705Y-41053D01*
X55934Y-40753D02*
X56120Y-40753D01*
X56020Y-40868D01*
X56062Y-40868D01*
X56091Y-40882D01*
X56105Y-40896D01*
X56120Y-40925D01*
X56120Y-40996D01*
X56105Y-41025D01*
X56091Y-41039D01*
X56062Y-41053D01*
X55977Y-41053D01*
X55948Y-41039D01*
X55934Y-41025D01*
X50321Y-48685D02*
X50321Y-48928D01*
X50335Y-48957D01*
X50350Y-48971D01*
X50378Y-48985D01*
X50435Y-48985D01*
X50464Y-48971D01*
X50478Y-48957D01*
X50492Y-48928D01*
X50492Y-48685D01*
X50792Y-48985D02*
X50621Y-48985D01*
X50707Y-48985D02*
X50707Y-48685D01*
X50678Y-48728D01*
X50650Y-48757D01*
X50621Y-48771D01*
X52250Y-50307D02*
X52235Y-50321D01*
X52192Y-50335D01*
X52164Y-50335D01*
X52121Y-50321D01*
X52092Y-50292D01*
X52078Y-50264D01*
X52064Y-50207D01*
X52064Y-50164D01*
X52078Y-50107D01*
X52092Y-50078D01*
X52121Y-50050D01*
X52164Y-50035D01*
X52192Y-50035D01*
X52235Y-50050D01*
X52250Y-50064D01*
X52535Y-50335D02*
X52364Y-50335D01*
X52450Y-50335D02*
X52450Y-50035D01*
X52421Y-50078D01*
X52392Y-50107D01*
X52364Y-50121D01*
X52250Y-49507D02*
X52235Y-49521D01*
X52192Y-49535D01*
X52164Y-49535D01*
X52121Y-49521D01*
X52092Y-49492D01*
X52078Y-49464D01*
X52064Y-49407D01*
X52064Y-49364D01*
X52078Y-49307D01*
X52092Y-49278D01*
X52121Y-49250D01*
X52164Y-49235D01*
X52192Y-49235D01*
X52235Y-49250D01*
X52250Y-49264D01*
X52364Y-49264D02*
X52378Y-49250D01*
X52407Y-49235D01*
X52478Y-49235D01*
X52507Y-49250D01*
X52521Y-49264D01*
X52535Y-49292D01*
X52535Y-49321D01*
X52521Y-49364D01*
X52350Y-49535D01*
X52535Y-49535D01*
X52400Y-47357D02*
X52385Y-47371D01*
X52342Y-47385D01*
X52314Y-47385D01*
X52271Y-47371D01*
X52242Y-47342D01*
X52228Y-47314D01*
X52214Y-47257D01*
X52214Y-47214D01*
X52228Y-47157D01*
X52242Y-47128D01*
X52271Y-47100D01*
X52314Y-47085D01*
X52342Y-47085D01*
X52385Y-47100D01*
X52400Y-47114D01*
X52500Y-47085D02*
X52685Y-47085D01*
X52585Y-47200D01*
X52628Y-47200D01*
X52657Y-47214D01*
X52671Y-47228D01*
X52685Y-47257D01*
X52685Y-47328D01*
X52671Y-47357D01*
X52657Y-47371D01*
X52628Y-47385D01*
X52542Y-47385D01*
X52514Y-47371D01*
X52500Y-47357D01*
X52550Y-46107D02*
X52535Y-46121D01*
X52492Y-46135D01*
X52464Y-46135D01*
X52421Y-46121D01*
X52392Y-46092D01*
X52378Y-46064D01*
X52364Y-46007D01*
X52364Y-45964D01*
X52378Y-45907D01*
X52392Y-45878D01*
X52421Y-45850D01*
X52464Y-45835D01*
X52492Y-45835D01*
X52535Y-45850D01*
X52550Y-45864D01*
X52807Y-45935D02*
X52807Y-46135D01*
X52735Y-45821D02*
X52664Y-46035D01*
X52850Y-46035D01*
X49600Y-46307D02*
X49585Y-46321D01*
X49542Y-46335D01*
X49514Y-46335D01*
X49471Y-46321D01*
X49442Y-46292D01*
X49428Y-46264D01*
X49414Y-46207D01*
X49414Y-46164D01*
X49428Y-46107D01*
X49442Y-46078D01*
X49471Y-46050D01*
X49514Y-46035D01*
X49542Y-46035D01*
X49585Y-46050D01*
X49600Y-46064D01*
X49871Y-46035D02*
X49728Y-46035D01*
X49714Y-46178D01*
X49728Y-46164D01*
X49757Y-46150D01*
X49828Y-46150D01*
X49857Y-46164D01*
X49871Y-46178D01*
X49885Y-46207D01*
X49885Y-46278D01*
X49871Y-46307D01*
X49857Y-46321D01*
X49828Y-46335D01*
X49757Y-46335D01*
X49728Y-46321D01*
X49714Y-46307D01*
X49600Y-45507D02*
X49585Y-45521D01*
X49542Y-45535D01*
X49514Y-45535D01*
X49471Y-45521D01*
X49442Y-45492D01*
X49428Y-45464D01*
X49414Y-45407D01*
X49414Y-45364D01*
X49428Y-45307D01*
X49442Y-45278D01*
X49471Y-45250D01*
X49514Y-45235D01*
X49542Y-45235D01*
X49585Y-45250D01*
X49600Y-45264D01*
X49857Y-45235D02*
X49800Y-45235D01*
X49771Y-45250D01*
X49757Y-45264D01*
X49728Y-45307D01*
X49714Y-45364D01*
X49714Y-45478D01*
X49728Y-45507D01*
X49742Y-45521D01*
X49771Y-45535D01*
X49828Y-45535D01*
X49857Y-45521D01*
X49871Y-45507D01*
X49885Y-45478D01*
X49885Y-45407D01*
X49871Y-45378D01*
X49857Y-45364D01*
X49828Y-45350D01*
X49771Y-45350D01*
X49742Y-45364D01*
X49728Y-45378D01*
X49714Y-45407D01*
X49600Y-44807D02*
X49585Y-44821D01*
X49542Y-44835D01*
X49514Y-44835D01*
X49471Y-44821D01*
X49442Y-44792D01*
X49428Y-44764D01*
X49414Y-44707D01*
X49414Y-44664D01*
X49428Y-44607D01*
X49442Y-44578D01*
X49471Y-44550D01*
X49514Y-44535D01*
X49542Y-44535D01*
X49585Y-44550D01*
X49600Y-44564D01*
X49700Y-44535D02*
X49900Y-44535D01*
X49771Y-44835D01*
X48885Y-47349D02*
X48885Y-47492D01*
X48585Y-47492D01*
X48885Y-47092D02*
X48885Y-47264D01*
X48885Y-47178D02*
X48585Y-47178D01*
X48628Y-47207D01*
X48657Y-47235D01*
X48671Y-47264D01*
X50800Y-46835D02*
X50700Y-46692D01*
X50628Y-46835D02*
X50628Y-46535D01*
X50742Y-46535D01*
X50771Y-46550D01*
X50785Y-46564D01*
X50800Y-46592D01*
X50800Y-46635D01*
X50785Y-46664D01*
X50771Y-46678D01*
X50742Y-46692D01*
X50628Y-46692D01*
X51085Y-46835D02*
X50914Y-46835D01*
X51000Y-46835D02*
X51000Y-46535D01*
X50971Y-46578D01*
X50942Y-46607D01*
X50914Y-46621D01*
X52550Y-46535D02*
X52450Y-46392D01*
X52378Y-46535D02*
X52378Y-46235D01*
X52492Y-46235D01*
X52521Y-46250D01*
X52535Y-46264D01*
X52550Y-46292D01*
X52550Y-46335D01*
X52535Y-46364D01*
X52521Y-46378D01*
X52492Y-46392D01*
X52378Y-46392D01*
X52664Y-46264D02*
X52678Y-46250D01*
X52707Y-46235D01*
X52778Y-46235D01*
X52807Y-46250D01*
X52821Y-46264D01*
X52835Y-46292D01*
X52835Y-46321D01*
X52821Y-46364D01*
X52650Y-46535D01*
X52835Y-46535D01*
X52550Y-48135D02*
X52450Y-47992D01*
X52378Y-48135D02*
X52378Y-47835D01*
X52492Y-47835D01*
X52521Y-47850D01*
X52535Y-47864D01*
X52550Y-47892D01*
X52550Y-47935D01*
X52535Y-47964D01*
X52521Y-47978D01*
X52492Y-47992D01*
X52378Y-47992D01*
X52650Y-47835D02*
X52835Y-47835D01*
X52735Y-47950D01*
X52778Y-47950D01*
X52807Y-47964D01*
X52821Y-47978D01*
X52835Y-48007D01*
X52835Y-48078D01*
X52821Y-48107D01*
X52807Y-48121D01*
X52778Y-48135D01*
X52692Y-48135D01*
X52664Y-48121D01*
X52650Y-48107D01*
X47750Y-45007D02*
X47735Y-45021D01*
X47692Y-45035D01*
X47664Y-45035D01*
X47621Y-45021D01*
X47592Y-44992D01*
X47578Y-44964D01*
X47564Y-44907D01*
X47564Y-44864D01*
X47578Y-44807D01*
X47592Y-44778D01*
X47621Y-44750D01*
X47664Y-44735D01*
X47692Y-44735D01*
X47735Y-44750D01*
X47750Y-44764D01*
X47921Y-44864D02*
X47892Y-44850D01*
X47878Y-44835D01*
X47864Y-44807D01*
X47864Y-44792D01*
X47878Y-44764D01*
X47892Y-44750D01*
X47921Y-44735D01*
X47978Y-44735D01*
X48007Y-44750D01*
X48021Y-44764D01*
X48035Y-44792D01*
X48035Y-44807D01*
X48021Y-44835D01*
X48007Y-44850D01*
X47978Y-44864D01*
X47921Y-44864D01*
X47892Y-44878D01*
X47878Y-44892D01*
X47864Y-44921D01*
X47864Y-44978D01*
X47878Y-45007D01*
X47892Y-45021D01*
X47921Y-45035D01*
X47978Y-45035D01*
X48007Y-45021D01*
X48021Y-45007D01*
X48035Y-44978D01*
X48035Y-44921D01*
X48021Y-44892D01*
X48007Y-44878D01*
X47978Y-44864D01*
X48600Y-45407D02*
X48585Y-45421D01*
X48542Y-45435D01*
X48514Y-45435D01*
X48471Y-45421D01*
X48442Y-45392D01*
X48428Y-45364D01*
X48414Y-45307D01*
X48414Y-45264D01*
X48428Y-45207D01*
X48442Y-45178D01*
X48471Y-45150D01*
X48514Y-45135D01*
X48542Y-45135D01*
X48585Y-45150D01*
X48600Y-45164D01*
X48742Y-45435D02*
X48800Y-45435D01*
X48828Y-45421D01*
X48842Y-45407D01*
X48871Y-45364D01*
X48885Y-45307D01*
X48885Y-45192D01*
X48871Y-45164D01*
X48857Y-45150D01*
X48828Y-45135D01*
X48771Y-45135D01*
X48742Y-45150D01*
X48728Y-45164D01*
X48714Y-45192D01*
X48714Y-45264D01*
X48728Y-45292D01*
X48742Y-45307D01*
X48771Y-45321D01*
X48828Y-45321D01*
X48857Y-45307D01*
X48871Y-45292D01*
X48885Y-45264D01*
X45157Y-47657D02*
X45142Y-47671D01*
X45100Y-47685D01*
X45071Y-47685D01*
X45028Y-47671D01*
X45000Y-47642D01*
X44985Y-47614D01*
X44971Y-47557D01*
X44971Y-47514D01*
X44985Y-47457D01*
X45000Y-47428D01*
X45028Y-47400D01*
X45071Y-47385D01*
X45100Y-47385D01*
X45142Y-47400D01*
X45157Y-47414D01*
X45442Y-47685D02*
X45271Y-47685D01*
X45357Y-47685D02*
X45357Y-47385D01*
X45328Y-47428D01*
X45300Y-47457D01*
X45271Y-47471D01*
X45628Y-47385D02*
X45657Y-47385D01*
X45685Y-47400D01*
X45700Y-47414D01*
X45714Y-47442D01*
X45728Y-47500D01*
X45728Y-47571D01*
X45714Y-47628D01*
X45700Y-47657D01*
X45685Y-47671D01*
X45657Y-47685D01*
X45628Y-47685D01*
X45600Y-47671D01*
X45585Y-47657D01*
X45571Y-47628D01*
X45557Y-47571D01*
X45557Y-47500D01*
X45571Y-47442D01*
X45585Y-47414D01*
X45600Y-47400D01*
X45628Y-47385D01*
X45157Y-48057D02*
X45142Y-48071D01*
X45100Y-48085D01*
X45071Y-48085D01*
X45028Y-48071D01*
X45000Y-48042D01*
X44985Y-48014D01*
X44971Y-47957D01*
X44971Y-47914D01*
X44985Y-47857D01*
X45000Y-47828D01*
X45028Y-47800D01*
X45071Y-47785D01*
X45100Y-47785D01*
X45142Y-47800D01*
X45157Y-47814D01*
X45442Y-48085D02*
X45271Y-48085D01*
X45357Y-48085D02*
X45357Y-47785D01*
X45328Y-47828D01*
X45300Y-47857D01*
X45271Y-47871D01*
X45728Y-48085D02*
X45557Y-48085D01*
X45642Y-48085D02*
X45642Y-47785D01*
X45614Y-47828D01*
X45585Y-47857D01*
X45557Y-47871D01*
X48257Y-48007D02*
X48242Y-48021D01*
X48200Y-48035D01*
X48171Y-48035D01*
X48128Y-48021D01*
X48100Y-47992D01*
X48085Y-47964D01*
X48071Y-47907D01*
X48071Y-47864D01*
X48085Y-47807D01*
X48100Y-47778D01*
X48128Y-47750D01*
X48171Y-47735D01*
X48200Y-47735D01*
X48242Y-47750D01*
X48257Y-47764D01*
X48542Y-48035D02*
X48371Y-48035D01*
X48457Y-48035D02*
X48457Y-47735D01*
X48428Y-47778D01*
X48400Y-47807D01*
X48371Y-47821D01*
X48657Y-47764D02*
X48671Y-47750D01*
X48700Y-47735D01*
X48771Y-47735D01*
X48800Y-47750D01*
X48814Y-47764D01*
X48828Y-47792D01*
X48828Y-47821D01*
X48814Y-47864D01*
X48642Y-48035D01*
X48828Y-48035D01*
X47750Y-44635D02*
X47650Y-44492D01*
X47578Y-44635D02*
X47578Y-44335D01*
X47692Y-44335D01*
X47721Y-44350D01*
X47735Y-44364D01*
X47750Y-44392D01*
X47750Y-44435D01*
X47735Y-44464D01*
X47721Y-44478D01*
X47692Y-44492D01*
X47578Y-44492D01*
X48007Y-44435D02*
X48007Y-44635D01*
X47935Y-44321D02*
X47864Y-44535D01*
X48050Y-44535D01*
X45200Y-47285D02*
X45100Y-47142D01*
X45028Y-47285D02*
X45028Y-46985D01*
X45142Y-46985D01*
X45171Y-47000D01*
X45185Y-47014D01*
X45200Y-47042D01*
X45200Y-47085D01*
X45185Y-47114D01*
X45171Y-47128D01*
X45142Y-47142D01*
X45028Y-47142D01*
X45471Y-46985D02*
X45328Y-46985D01*
X45314Y-47128D01*
X45328Y-47114D01*
X45357Y-47100D01*
X45428Y-47100D01*
X45457Y-47114D01*
X45471Y-47128D01*
X45485Y-47157D01*
X45485Y-47228D01*
X45471Y-47257D01*
X45457Y-47271D01*
X45428Y-47285D01*
X45357Y-47285D01*
X45328Y-47271D01*
X45314Y-47257D01*
X46385Y-48450D02*
X46242Y-48550D01*
X46385Y-48621D02*
X46085Y-48621D01*
X46085Y-48507D01*
X46100Y-48478D01*
X46114Y-48464D01*
X46142Y-48450D01*
X46185Y-48450D01*
X46214Y-48464D01*
X46228Y-48478D01*
X46242Y-48507D01*
X46242Y-48621D01*
X46085Y-48192D02*
X46085Y-48250D01*
X46100Y-48278D01*
X46114Y-48292D01*
X46157Y-48321D01*
X46214Y-48335D01*
X46328Y-48335D01*
X46357Y-48321D01*
X46371Y-48307D01*
X46385Y-48278D01*
X46385Y-48221D01*
X46371Y-48192D01*
X46357Y-48178D01*
X46328Y-48164D01*
X46257Y-48164D01*
X46228Y-48178D01*
X46214Y-48192D01*
X46200Y-48221D01*
X46200Y-48278D01*
X46214Y-48307D01*
X46228Y-48321D01*
X46257Y-48335D01*
X45985Y-48450D02*
X45842Y-48550D01*
X45985Y-48621D02*
X45685Y-48621D01*
X45685Y-48507D01*
X45700Y-48478D01*
X45714Y-48464D01*
X45742Y-48450D01*
X45785Y-48450D01*
X45814Y-48464D01*
X45828Y-48478D01*
X45842Y-48507D01*
X45842Y-48621D01*
X45685Y-48350D02*
X45685Y-48150D01*
X45985Y-48278D01*
X46900Y-49435D02*
X46800Y-49292D01*
X46728Y-49435D02*
X46728Y-49135D01*
X46842Y-49135D01*
X46871Y-49150D01*
X46885Y-49164D01*
X46900Y-49192D01*
X46900Y-49235D01*
X46885Y-49264D01*
X46871Y-49278D01*
X46842Y-49292D01*
X46728Y-49292D01*
X47071Y-49264D02*
X47042Y-49250D01*
X47028Y-49235D01*
X47014Y-49207D01*
X47014Y-49192D01*
X47028Y-49164D01*
X47042Y-49150D01*
X47071Y-49135D01*
X47128Y-49135D01*
X47157Y-49150D01*
X47171Y-49164D01*
X47185Y-49192D01*
X47185Y-49207D01*
X47171Y-49235D01*
X47157Y-49250D01*
X47128Y-49264D01*
X47071Y-49264D01*
X47042Y-49278D01*
X47028Y-49292D01*
X47014Y-49321D01*
X47014Y-49378D01*
X47028Y-49407D01*
X47042Y-49421D01*
X47071Y-49435D01*
X47128Y-49435D01*
X47157Y-49421D01*
X47171Y-49407D01*
X47185Y-49378D01*
X47185Y-49321D01*
X47171Y-49292D01*
X47157Y-49278D01*
X47128Y-49264D01*
X45872Y-46628D02*
X46115Y-46628D01*
X46144Y-46614D01*
X46158Y-46600D01*
X46172Y-46571D01*
X46172Y-46514D01*
X46158Y-46485D01*
X46144Y-46471D01*
X46115Y-46457D01*
X45872Y-46457D01*
X45901Y-46328D02*
X45887Y-46314D01*
X45872Y-46285D01*
X45872Y-46214D01*
X45887Y-46185D01*
X45901Y-46171D01*
X45929Y-46157D01*
X45958Y-46157D01*
X46001Y-46171D01*
X46172Y-46342D01*
X46172Y-46157D01*
X45907Y-52107D02*
X45892Y-52121D01*
X45850Y-52135D01*
X45821Y-52135D01*
X45778Y-52121D01*
X45750Y-52092D01*
X45735Y-52064D01*
X45721Y-52007D01*
X45721Y-51964D01*
X45735Y-51907D01*
X45750Y-51878D01*
X45778Y-51850D01*
X45821Y-51835D01*
X45850Y-51835D01*
X45892Y-51850D01*
X45907Y-51864D01*
X46192Y-52135D02*
X46021Y-52135D01*
X46107Y-52135D02*
X46107Y-51835D01*
X46078Y-51878D01*
X46050Y-51907D01*
X46021Y-51921D01*
X46292Y-51835D02*
X46478Y-51835D01*
X46378Y-51950D01*
X46421Y-51950D01*
X46450Y-51964D01*
X46464Y-51978D01*
X46478Y-52007D01*
X46478Y-52078D01*
X46464Y-52107D01*
X46450Y-52121D01*
X46421Y-52135D01*
X46335Y-52135D01*
X46307Y-52121D01*
X46292Y-52107D01*
X45657Y-51092D02*
X45671Y-51107D01*
X45685Y-51150D01*
X45685Y-51178D01*
X45671Y-51221D01*
X45642Y-51250D01*
X45614Y-51264D01*
X45557Y-51278D01*
X45514Y-51278D01*
X45457Y-51264D01*
X45428Y-51250D01*
X45400Y-51221D01*
X45385Y-51178D01*
X45385Y-51150D01*
X45400Y-51107D01*
X45414Y-51092D01*
X45685Y-50807D02*
X45685Y-50978D01*
X45685Y-50892D02*
X45385Y-50892D01*
X45428Y-50921D01*
X45457Y-50950D01*
X45471Y-50978D01*
X45485Y-50550D02*
X45685Y-50550D01*
X45371Y-50621D02*
X45585Y-50692D01*
X45585Y-50507D01*
X48528Y-54885D02*
X48528Y-54585D01*
X48600Y-54585D01*
X48642Y-54600D01*
X48671Y-54628D01*
X48685Y-54657D01*
X48700Y-54714D01*
X48700Y-54757D01*
X48685Y-54814D01*
X48671Y-54842D01*
X48642Y-54871D01*
X48600Y-54885D01*
X48528Y-54885D01*
X48985Y-54885D02*
X48814Y-54885D01*
X48900Y-54885D02*
X48900Y-54585D01*
X48871Y-54628D01*
X48842Y-54657D01*
X48814Y-54671D01*
X48785Y-51450D02*
X48642Y-51550D01*
X48785Y-51621D02*
X48485Y-51621D01*
X48485Y-51507D01*
X48500Y-51478D01*
X48514Y-51464D01*
X48542Y-51450D01*
X48585Y-51450D01*
X48614Y-51464D01*
X48628Y-51478D01*
X48642Y-51507D01*
X48642Y-51621D01*
X48785Y-51307D02*
X48785Y-51250D01*
X48771Y-51221D01*
X48757Y-51207D01*
X48714Y-51178D01*
X48657Y-51164D01*
X48542Y-51164D01*
X48514Y-51178D01*
X48500Y-51192D01*
X48485Y-51221D01*
X48485Y-51278D01*
X48500Y-51307D01*
X48514Y-51321D01*
X48542Y-51335D01*
X48614Y-51335D01*
X48642Y-51321D01*
X48657Y-51307D01*
X48671Y-51278D01*
X48671Y-51221D01*
X48657Y-51192D01*
X48642Y-51178D01*
X48614Y-51164D01*
X48285Y-51442D02*
X48142Y-51542D01*
X48285Y-51614D02*
X47985Y-51614D01*
X47985Y-51500D01*
X48000Y-51471D01*
X48014Y-51457D01*
X48042Y-51442D01*
X48085Y-51442D01*
X48114Y-51457D01*
X48128Y-51471D01*
X48142Y-51500D01*
X48142Y-51614D01*
X48285Y-51157D02*
X48285Y-51328D01*
X48285Y-51242D02*
X47985Y-51242D01*
X48028Y-51271D01*
X48057Y-51300D01*
X48071Y-51328D01*
X47985Y-50971D02*
X47985Y-50942D01*
X48000Y-50914D01*
X48014Y-50900D01*
X48042Y-50885D01*
X48100Y-50871D01*
X48171Y-50871D01*
X48228Y-50885D01*
X48257Y-50900D01*
X48271Y-50914D01*
X48285Y-50942D01*
X48285Y-50971D01*
X48271Y-51000D01*
X48257Y-51014D01*
X48228Y-51028D01*
X48171Y-51042D01*
X48100Y-51042D01*
X48042Y-51028D01*
X48014Y-51014D01*
X48000Y-51000D01*
X47985Y-50971D01*
X44921Y-52235D02*
X44921Y-52478D01*
X44935Y-52507D01*
X44950Y-52521D01*
X44978Y-52535D01*
X45035Y-52535D01*
X45064Y-52521D01*
X45078Y-52507D01*
X45092Y-52478D01*
X45092Y-52235D01*
X45207Y-52235D02*
X45392Y-52235D01*
X45292Y-52350D01*
X45335Y-52350D01*
X45364Y-52364D01*
X45378Y-52378D01*
X45392Y-52407D01*
X45392Y-52478D01*
X45378Y-52507D01*
X45364Y-52521D01*
X45335Y-52535D01*
X45250Y-52535D01*
X45221Y-52521D01*
X45207Y-52507D01*
X47421Y-49735D02*
X47421Y-49978D01*
X47435Y-50007D01*
X47450Y-50021D01*
X47478Y-50035D01*
X47535Y-50035D01*
X47564Y-50021D01*
X47578Y-50007D01*
X47592Y-49978D01*
X47592Y-49735D01*
X47864Y-49835D02*
X47864Y-50035D01*
X47792Y-49721D02*
X47721Y-49935D01*
X47907Y-49935D01*
X50971Y-52085D02*
X50971Y-52328D01*
X50985Y-52357D01*
X51000Y-52371D01*
X51028Y-52385D01*
X51085Y-52385D01*
X51114Y-52371D01*
X51128Y-52357D01*
X51142Y-52328D01*
X51142Y-52085D01*
X51428Y-52085D02*
X51285Y-52085D01*
X51271Y-52228D01*
X51285Y-52214D01*
X51314Y-52200D01*
X51385Y-52200D01*
X51414Y-52214D01*
X51428Y-52228D01*
X51442Y-52257D01*
X51442Y-52328D01*
X51428Y-52357D01*
X51414Y-52371D01*
X51385Y-52385D01*
X51314Y-52385D01*
X51285Y-52371D01*
X51271Y-52357D01*
M02*
