M48
INCH,TZ

T1C0.012
T2C0.020
T3C0.030
T4C0.051
T5C0.122
%
G90
G05
M72
T1
X39800Y-39800

X39800Y-40400

X39800Y-41000

X39800Y-41600

X39800Y-42200

X39800Y-42800

X39800Y-43400

X39800Y-44000

X39800Y-44600

X39800Y-45200

X39800Y-45800

X39800Y-46400

X39800Y-47000

X39800Y-47600

X39800Y-48200

X39800Y-48800

X39800Y-49400

X39800Y-50000

X39800Y-50600

X40000Y-39400

X40000Y-51200

X40250Y-40000

X40250Y-41000

X40250Y-42000

X40250Y-43000

X40250Y-44000

X40250Y-45000

X40250Y-46000

X40250Y-47000

X40250Y-48000

X40250Y-49000

X40250Y-50000

X40400Y-39000

X40400Y-51600

X40500Y-51000

X40800Y-38600

X40800Y-52000

X41000Y-41000

X41000Y-42000

X41000Y-50000

X41200Y-38200

X41250Y-39000

X41250Y-40000

X41250Y-48250

X41250Y-49000

X41500Y-51000

X41600Y-37800

X41750Y-48250

X42000Y-37400

X42000Y-50000

X42000Y-52000

X42244Y-42913

X42244Y-43307

X42244Y-43701

X42244Y-44094

X42244Y-44488

X42244Y-44882

X42244Y-45276

X42244Y-45669

X42244Y-46063

X42244Y-46457

X42244Y-46850

X42244Y-47244

X42244Y-47638

X42250Y-38000

X42250Y-39000

X42250Y-40000

X42400Y-37000

X42500Y-51000

X42795Y-43110

X42795Y-43504

X42795Y-43898

X42795Y-44291

X42795Y-44685

X42795Y-45079

X42795Y-45472

X42795Y-45866

X42795Y-46260

X42795Y-46654

X42795Y-47047

X42795Y-47441

X42800Y-36600

X43000Y-50000

X43000Y-52000

X43200Y-36200

X43250Y-38000

X43250Y-39000

X43250Y-40000

X43500Y-42500

X43500Y-47750

X43500Y-49250

X43500Y-51000

X43600Y-35800

X43750Y-41250

X44000Y-48250

X44000Y-50000

X44000Y-52000

X44200Y-35800

X44225Y-42625

X44250Y-39000

X44250Y-40000

X44475Y-49075

X44475Y-49700

X44500Y-46000

X44500Y-46500

X44500Y-51000

X44725Y-40125

X44800Y-35800

X45000Y-42450

X45000Y-42900

X45000Y-47500

X45000Y-48750

X45000Y-52000

X45100Y-41300

X45250Y-38000

X45250Y-39000

X45250Y-40000

X45250Y-46000

X45250Y-46750

X45400Y-35800

X45400Y-36800

X45500Y-48000

X45500Y-49000

X45500Y-49750

X45500Y-51000

X45700Y-44350

X45975Y-46850

X46000Y-35800

X46000Y-40750

X46000Y-52000

X46175Y-48975

X46200Y-36400

X46200Y-47075

X46200Y-48650

X46250Y-37000

X46250Y-38000

X46250Y-39000

X46250Y-40000

X46425Y-46850

X46425Y-47750

X46500Y-44350

X46500Y-49750

X46500Y-51000

X46600Y-35800

X46725Y-46550

X46900Y-44350

X46975Y-48000

X47000Y-52000

X47025Y-41375

X47025Y-41800

X47025Y-42325

X47025Y-42750

X47200Y-35800

X47200Y-36400

X47200Y-39000

X47250Y-37000

X47250Y-38000

X47250Y-40000

X47450Y-40600

X47450Y-46600

X47500Y-49750

X47500Y-51000

X47800Y-35800

X48000Y-50500

X48000Y-51500

X48000Y-52000

X48025Y-49650

X48050Y-47750

X48075Y-50825

X48100Y-44300

X48200Y-36400

X48225Y-49925

X48250Y-37000

X48250Y-38000

X48325Y-44500

X48400Y-35800

X48550Y-40125

X48625Y-52025

X48650Y-44525

X48875Y-39425

X48950Y-40200

X49000Y-35800

X49200Y-36400

X49250Y-37000

X49250Y-38000

X49275Y-46850

X49300Y-44550

X49400Y-50825

X49425Y-50100

X49600Y-35800

X49700Y-44550

X49700Y-46850

X50075Y-39700

X50125Y-48075

X50125Y-48350

X50200Y-35800

X50250Y-45900

X50250Y-47225

X50250Y-51000

X50250Y-52000

X50425Y-45425

X50475Y-49600

X50475Y-50275

X50500Y-42875

X50500Y-46900

X50650Y-45200

X50650Y-45650

X50775Y-42850

X50775Y-43375

X50800Y-35800

X51125Y-38150

X51225Y-41425

X51250Y-51000

X51250Y-52000

X51300Y-48900

X51400Y-35800

X51550Y-41825

X51550Y-42225

X51550Y-42625

X51575Y-43725

X51600Y-46000

X51600Y-46800

X51750Y-36750

X51750Y-37750

X51775Y-43425

X51825Y-50225

X51850Y-47525

X52000Y-35800

X52000Y-38750

X52000Y-39750

X52000Y-48900

X52000Y-51000

X52000Y-52000

X52100Y-45050

X52350Y-45250

X52500Y-44100

X52525Y-42775

X52575Y-45675

X52600Y-35800

X52750Y-36750

X52750Y-37750

X52750Y-38750

X52750Y-39750

X52750Y-41250

X52750Y-42250

X52750Y-46500

X52800Y-40450

X52800Y-40900

X53000Y-47250

X53000Y-48250

X53000Y-49250

X53000Y-50200

X53000Y-51000

X53000Y-52000

X53200Y-35800

X53750Y-38750

X53750Y-39750

X53750Y-40750

X53750Y-41250

X53750Y-42250

X53800Y-35800

X53900Y-45600

X54000Y-44100

X54000Y-48250

X54000Y-49250

X54000Y-51000

X54000Y-52000

X54100Y-50200

X54400Y-35800

X54500Y-47500

X54750Y-38750

X54750Y-39750

X54750Y-40750

X54750Y-41250

X54750Y-42250

X54750Y-51000

X55000Y-35800

X55000Y-48250

X55000Y-49250

X55000Y-52000

X55100Y-50200

X55400Y-36200

X55669Y-42913

X55669Y-43307

X55669Y-43701

X55669Y-44094

X55669Y-44488

X55669Y-44882

X55669Y-45276

X55669Y-45669

X55669Y-46063

X55669Y-46457

X55669Y-46850

X55669Y-47244

X55750Y-37750

X55750Y-38750

X55750Y-39750

X55750Y-40750

X55800Y-36600

X56000Y-49250

X56000Y-50000

X56000Y-51000

X56000Y-52000

X56181Y-42717

X56181Y-43110

X56181Y-43504

X56181Y-43898

X56181Y-44291

X56181Y-44685

X56181Y-45079

X56181Y-45472

X56181Y-45866

X56181Y-46260

X56181Y-46654

X56181Y-47047

X56181Y-47441

X56200Y-37000

X56600Y-37400

X56750Y-38750

X56750Y-39750

X56750Y-40750

X56750Y-42000

X57000Y-37800

X57000Y-52000

X57250Y-48250

X57250Y-49250

X57250Y-50250

X57250Y-51250

X57400Y-38200

X57600Y-52000

X57750Y-39750

X57750Y-40750

X57750Y-42000

X57800Y-38600

X58000Y-51600

X58200Y-39000

X58250Y-42250

X58250Y-43250

X58250Y-44250

X58250Y-45250

X58250Y-46250

X58250Y-47250

X58250Y-48250

X58250Y-49250

X58250Y-50250

X58400Y-51200

X58600Y-39400

X58600Y-40000

X58600Y-40600

X58600Y-41200

X58600Y-41800

X58600Y-42400

X58600Y-43000

X58600Y-43600

X58600Y-44200

X58600Y-44800

X58600Y-45400

X58600Y-46000

X58600Y-46600

X58600Y-47200

X58600Y-47800

X58600Y-48400

X58600Y-49000

X58600Y-49600

X58600Y-50200

X58600Y-50800

T2
X48425Y-48250

X48425Y-49150

X48850Y-41950

X48850Y-42750

X48875Y-48700

X49250Y-42350

X49325Y-48250

X49325Y-49150

X49650Y-41950

X49650Y-42750

T3
X42504Y-41693

X42504Y-41693

X42504Y-48858

X42504Y-48858

X55921Y-41496

X55921Y-41496

X55921Y-48661

X55921Y-48661

T4
X42504Y-42303

X42504Y-42303

X42504Y-48248

X42504Y-48248

X55921Y-42106

X55921Y-42106

X55921Y-48051

X55921Y-48051

T5
X44094Y-37008

X44094Y-53543

X54331Y-37008

X54331Y-53543

T0
M30
