G04 (created by PCBNEW (2013-mar-13)-testing) date Tue 20 Aug 2013 02:58:42 PM EEST*
%MOIN*%
G04 Gerber Fmt 3.4, Leading zero omitted, Abs format*
%FSLAX34Y34*%
G01*
G70*
G90*
G04 APERTURE LIST*
%ADD10C,0.000787*%
%ADD11C,0.001000*%
%ADD12C,0.005906*%
%ADD13R,0.097638X0.031496*%
%ADD14C,0.066929*%
%ADD15R,0.149606X0.066929*%
%ADD16R,0.050318X0.024409*%
%ADD17R,0.024409X0.050318*%
%ADD18R,0.187008X0.187008*%
%ADD19R,0.031448X0.039348*%
%ADD20R,0.040748X0.060748*%
%ADD21R,0.039348X0.031448*%
%ADD22R,0.055148X0.047248*%
%ADD23R,0.047148X0.047148*%
%ADD24R,0.044882X0.125591*%
%ADD25R,0.086614X0.059055*%
%ADD26R,0.090448X0.090448*%
%ADD27R,0.090548X0.090448*%
%ADD28R,0.086448X0.090448*%
%ADD29R,0.098248X0.078648*%
%ADD30R,0.031448X0.068748*%
%ADD31R,0.039348X0.070848*%
%ADD32R,0.102362X0.066929*%
%ADD33R,0.236220X0.098425*%
%ADD34C,0.212598*%
%ADD35C,0.009000*%
G04 APERTURE END LIST*
G54D10*
G54D11*
X55118Y-55118D02*
X43307Y-55118D01*
X59055Y-51181D02*
X55118Y-55118D01*
X59055Y-39370D02*
X59055Y-51181D01*
X55118Y-35433D02*
X59055Y-39370D01*
X43307Y-35433D02*
X55118Y-35433D01*
X39370Y-39370D02*
X43307Y-35433D01*
X39370Y-51181D02*
X39370Y-39370D01*
X43307Y-55118D02*
X39370Y-51181D01*
G54D12*
X35433Y-55118D02*
G75*
G03X35433Y-55118I0J0D01*
G74*
G01*
X35432Y-55118D02*
X35434Y-55118D01*
X35433Y-55117D02*
X35433Y-55119D01*
X42000Y-54000D02*
G75*
G03X42000Y-54000I0J0D01*
G74*
G01*
X41999Y-54000D02*
X42000Y-54000D01*
X42000Y-53999D02*
X42000Y-54000D01*
X47000Y-56500D02*
G75*
G03X47000Y-56500I0J0D01*
G74*
G01*
X46999Y-56500D02*
X47000Y-56500D01*
X47000Y-56499D02*
X47000Y-56500D01*
G54D13*
X41732Y-42913D03*
X41732Y-43307D03*
X41732Y-43700D03*
X41732Y-44094D03*
X41732Y-44488D03*
X41732Y-44881D03*
X41732Y-45275D03*
X41732Y-45669D03*
X41732Y-46062D03*
X41732Y-46456D03*
X41732Y-46850D03*
X41732Y-47244D03*
X41732Y-47637D03*
X43275Y-47440D03*
X43275Y-47047D03*
X43275Y-46653D03*
X43275Y-46259D03*
X43275Y-45866D03*
X43275Y-45472D03*
X43275Y-45078D03*
X43275Y-44685D03*
X43275Y-44291D03*
X43275Y-43897D03*
X43275Y-43503D03*
X43275Y-43110D03*
G54D14*
X42503Y-42303D03*
X42503Y-48248D03*
G54D15*
X42503Y-41692D03*
X42503Y-48858D03*
G54D14*
X42503Y-48248D03*
X42503Y-42303D03*
G54D15*
X42503Y-48858D03*
X42503Y-41692D03*
G54D13*
X56692Y-47440D03*
X56692Y-47047D03*
X56692Y-46653D03*
X56692Y-46259D03*
X56692Y-45866D03*
X56692Y-45472D03*
X56692Y-45078D03*
X56692Y-44685D03*
X56692Y-44291D03*
X56692Y-43897D03*
X56692Y-43503D03*
X56692Y-43110D03*
X56692Y-42716D03*
X55149Y-42913D03*
X55149Y-43307D03*
X55149Y-43700D03*
X55149Y-44094D03*
X55149Y-44488D03*
X55149Y-44881D03*
X55149Y-45275D03*
X55149Y-45669D03*
X55149Y-46062D03*
X55149Y-46456D03*
X55149Y-46850D03*
X55149Y-47244D03*
G54D14*
X55921Y-48051D03*
X55921Y-42106D03*
G54D15*
X55921Y-48661D03*
X55921Y-41496D03*
G54D14*
X55921Y-42106D03*
X55921Y-48051D03*
G54D15*
X55921Y-41496D03*
X55921Y-48661D03*
G54D16*
X47423Y-43841D03*
X47423Y-44038D03*
X47423Y-44235D03*
X47423Y-44432D03*
X47423Y-44629D03*
X47423Y-44825D03*
X47423Y-45022D03*
X47423Y-45219D03*
X47423Y-45416D03*
X47423Y-45613D03*
X47423Y-45810D03*
X47423Y-46007D03*
X47423Y-46203D03*
X47423Y-46400D03*
X47423Y-46597D03*
X47423Y-46794D03*
G54D17*
X47693Y-47064D03*
X47890Y-47064D03*
X48087Y-47064D03*
X48284Y-47064D03*
X48481Y-47064D03*
X48677Y-47064D03*
X48874Y-47064D03*
X49071Y-47064D03*
X49268Y-47064D03*
X49465Y-47064D03*
X49662Y-47064D03*
X49859Y-47064D03*
X50055Y-47064D03*
X50252Y-47064D03*
X50449Y-47064D03*
X50646Y-47064D03*
G54D16*
X50916Y-46794D03*
X50916Y-46597D03*
X50916Y-46400D03*
X50916Y-46203D03*
X50916Y-46007D03*
X50916Y-45810D03*
X50916Y-45613D03*
X50916Y-45416D03*
X50916Y-45219D03*
X50916Y-45022D03*
X50916Y-44825D03*
X50916Y-44629D03*
X50916Y-44432D03*
X50916Y-44235D03*
X50916Y-44038D03*
X50916Y-43841D03*
G54D17*
X50646Y-43571D03*
X50449Y-43571D03*
X50252Y-43571D03*
X50055Y-43571D03*
X49859Y-43571D03*
X49662Y-43571D03*
X49465Y-43571D03*
X49268Y-43571D03*
X49071Y-43571D03*
X48874Y-43571D03*
X48677Y-43571D03*
X48481Y-43571D03*
X48284Y-43571D03*
X48087Y-43571D03*
X47890Y-43571D03*
X47693Y-43571D03*
G54D18*
X49170Y-45318D03*
G54D19*
X41527Y-41050D03*
X41173Y-41050D03*
G54D20*
X46170Y-45618D03*
X46770Y-45618D03*
G54D19*
X46293Y-46018D03*
X46647Y-46018D03*
G54D20*
X46870Y-47118D03*
X46270Y-47118D03*
G54D19*
X46847Y-46718D03*
X46493Y-46718D03*
G54D20*
X46870Y-47818D03*
X47470Y-47818D03*
G54D21*
X49420Y-42841D03*
X49420Y-43195D03*
G54D20*
X50070Y-41918D03*
X50670Y-41918D03*
G54D19*
X50043Y-42818D03*
X50397Y-42818D03*
X50043Y-42418D03*
X50397Y-42418D03*
X41173Y-41450D03*
X41527Y-41450D03*
G54D21*
X44770Y-45995D03*
X44770Y-45641D03*
X44770Y-46841D03*
X44770Y-47195D03*
G54D19*
X51897Y-39818D03*
X51543Y-39818D03*
X52643Y-40118D03*
X52997Y-40118D03*
X51197Y-39468D03*
X50843Y-39468D03*
X46743Y-39468D03*
X47097Y-39468D03*
X51293Y-45518D03*
X51647Y-45518D03*
G54D22*
X51887Y-41418D03*
X52753Y-41043D03*
X52753Y-41793D03*
G54D23*
X48670Y-53723D03*
X48670Y-54313D03*
X49212Y-53720D03*
X49212Y-54310D03*
X49770Y-53723D03*
X49770Y-54313D03*
G54D10*
G36*
X41795Y-40947D02*
X41795Y-39691D01*
X42244Y-39691D01*
X42244Y-40947D01*
X41795Y-40947D01*
X41795Y-40947D01*
G37*
G54D24*
X42020Y-38716D03*
X42520Y-40319D03*
X42520Y-38716D03*
X43020Y-40319D03*
X43020Y-38716D03*
G54D21*
X52620Y-39441D03*
X52620Y-39795D03*
X52220Y-39441D03*
X52220Y-39795D03*
X49420Y-42545D03*
X49420Y-42191D03*
G54D19*
X51897Y-39468D03*
X51543Y-39468D03*
X51543Y-39118D03*
X51897Y-39118D03*
G54D21*
X48670Y-52941D03*
X48670Y-53295D03*
X49212Y-52941D03*
X49212Y-53295D03*
X49770Y-52941D03*
X49770Y-53295D03*
G54D25*
X48440Y-37996D03*
X45999Y-37996D03*
X48440Y-36539D03*
X45999Y-36539D03*
G54D26*
X51592Y-36838D03*
G54D27*
X50648Y-36838D03*
G54D28*
X49624Y-36838D03*
G54D29*
X52340Y-37842D03*
G54D30*
X51631Y-37892D03*
X51375Y-37892D03*
X51120Y-37892D03*
X50865Y-37892D03*
X50609Y-37892D03*
G54D29*
X49900Y-37842D03*
G54D28*
X52616Y-36838D03*
G54D31*
X50220Y-49818D03*
X50220Y-51918D03*
X50720Y-49818D03*
X51220Y-49818D03*
X51720Y-49818D03*
X50720Y-51918D03*
X51220Y-51918D03*
X51720Y-51918D03*
X52820Y-49818D03*
X52820Y-51918D03*
X53320Y-49818D03*
X53820Y-49818D03*
X54320Y-49818D03*
X53320Y-51918D03*
X53820Y-51918D03*
X54320Y-51918D03*
G54D32*
X45470Y-47244D03*
X45470Y-45591D03*
G54D33*
X47100Y-40668D03*
X50840Y-40668D03*
G54D19*
X50743Y-48818D03*
X51097Y-48818D03*
X50743Y-49218D03*
X51097Y-49218D03*
G54D34*
X44094Y-37007D03*
X54330Y-37007D03*
X54330Y-53543D03*
X44094Y-53543D03*
G54D10*
G36*
X49525Y-42973D02*
X49315Y-42973D01*
X49315Y-42813D01*
X49525Y-42813D01*
X49525Y-42973D01*
X49525Y-42973D01*
G37*
G54D35*
X49525Y-42973D02*
X49315Y-42973D01*
X49315Y-42813D01*
X49525Y-42813D01*
X49525Y-42973D01*
M02*
