G04 (created by PCBNEW (2013-mar-13)-testing) date Tue 20 Aug 2013 02:58:42 PM EEST*
%MOIN*%
G04 Gerber Fmt 3.4, Leading zero omitted, Abs format*
%FSLAX34Y34*%
G01*
G70*
G90*
G04 APERTURE LIST*
%ADD10C,0.000787*%
%ADD11C,0.001000*%
%ADD12C,0.005906*%
%ADD13R,0.133858X0.051181*%
%ADD14R,0.081890X0.015748*%
%ADD15C,0.196850*%
%ADD16C,0.020000*%
%ADD17C,0.010000*%
%ADD18C,0.016000*%
%ADD19C,0.009000*%
G04 APERTURE END LIST*
G54D10*
G54D11*
X55118Y-55118D02*
X43307Y-55118D01*
X59055Y-51181D02*
X55118Y-55118D01*
X59055Y-39370D02*
X59055Y-51181D01*
X55118Y-35433D02*
X59055Y-39370D01*
X43307Y-35433D02*
X55118Y-35433D01*
X39370Y-39370D02*
X43307Y-35433D01*
X39370Y-51181D02*
X39370Y-39370D01*
X43307Y-55118D02*
X39370Y-51181D01*
G54D12*
X35433Y-55118D02*
G75*
G03X35433Y-55118I0J0D01*
G74*
G01*
X35432Y-55118D02*
X35434Y-55118D01*
X35433Y-55117D02*
X35433Y-55119D01*
X42000Y-54000D02*
G75*
G03X42000Y-54000I0J0D01*
G74*
G01*
X41999Y-54000D02*
X42000Y-54000D01*
X42000Y-53999D02*
X42000Y-54000D01*
X47000Y-56500D02*
G75*
G03X47000Y-56500I0J0D01*
G74*
G01*
X46999Y-56500D02*
X47000Y-56500D01*
X47000Y-56499D02*
X47000Y-56500D01*
G54D13*
X42503Y-41692D03*
X42503Y-48858D03*
G54D14*
X41732Y-47637D03*
X41732Y-47244D03*
X41732Y-46850D03*
X41732Y-46456D03*
X41732Y-46062D03*
X41732Y-45669D03*
X41732Y-45275D03*
X41732Y-44881D03*
X41732Y-44488D03*
X41732Y-44094D03*
X41732Y-43700D03*
X41732Y-43307D03*
X41732Y-42913D03*
X43275Y-43110D03*
X43275Y-43503D03*
X43275Y-43897D03*
X43275Y-44291D03*
X43275Y-44685D03*
X43275Y-45078D03*
X43275Y-45472D03*
X43275Y-45866D03*
X43275Y-46259D03*
X43275Y-46653D03*
X43275Y-47047D03*
X43275Y-47440D03*
G54D13*
X42503Y-48858D03*
X42503Y-41692D03*
X55921Y-48661D03*
X55921Y-41496D03*
G54D14*
X56692Y-42716D03*
X56692Y-43110D03*
X56692Y-43503D03*
X56692Y-43897D03*
X56692Y-44291D03*
X56692Y-44685D03*
X56692Y-45078D03*
X56692Y-45472D03*
X56692Y-45866D03*
X56692Y-46259D03*
X56692Y-46653D03*
X56692Y-47047D03*
X56692Y-47440D03*
X55149Y-47244D03*
X55149Y-46850D03*
X55149Y-46456D03*
X55149Y-46062D03*
X55149Y-45669D03*
X55149Y-45275D03*
X55149Y-44881D03*
X55149Y-44488D03*
X55149Y-44094D03*
X55149Y-43700D03*
X55149Y-43307D03*
X55149Y-42913D03*
G54D13*
X55921Y-41496D03*
X55921Y-48661D03*
G54D15*
X44094Y-37007D03*
X54330Y-37007D03*
X54330Y-53543D03*
X44094Y-53543D03*
G54D16*
X50420Y-45418D03*
X41220Y-43718D03*
X41220Y-43318D03*
X41220Y-42918D03*
X43500Y-47238D03*
X57120Y-43518D03*
X57120Y-43118D03*
X57120Y-42718D03*
X54720Y-47268D03*
X54720Y-46868D03*
X56270Y-43518D03*
X56270Y-43118D03*
X56270Y-42718D03*
X55570Y-47268D03*
X55570Y-46868D03*
X42670Y-47468D03*
X42670Y-47068D03*
X42320Y-43718D03*
X42320Y-43318D03*
X42320Y-42918D03*
X43820Y-47218D03*
X46470Y-45568D03*
X50070Y-49368D03*
X54570Y-50968D03*
X50570Y-50968D03*
X50570Y-49218D03*
X54570Y-50668D03*
X52920Y-50268D03*
X42670Y-44318D03*
X42670Y-44718D03*
X42670Y-45118D03*
X42670Y-45468D03*
X42670Y-45868D03*
X42670Y-46268D03*
X42670Y-46668D03*
X55570Y-46468D03*
X55570Y-42918D03*
X51420Y-42818D03*
X50920Y-42818D03*
X49500Y-52000D03*
X49500Y-51100D03*
X49500Y-49850D03*
X48900Y-51100D03*
X48900Y-49850D03*
X50700Y-47600D03*
X50650Y-48450D03*
X54520Y-51918D03*
X52500Y-51250D03*
X53000Y-51250D03*
X52000Y-48000D03*
X52250Y-47250D03*
X51250Y-47250D03*
X51250Y-48250D03*
X53750Y-49000D03*
X52500Y-49500D03*
X53000Y-48500D03*
X55250Y-47750D03*
X54000Y-47000D03*
X54250Y-47750D03*
X54500Y-48500D03*
X46250Y-48250D03*
X45250Y-48250D03*
X44250Y-48250D03*
X43500Y-48250D03*
X43500Y-49000D03*
X44250Y-49000D03*
X45250Y-49000D03*
X46250Y-49000D03*
X46000Y-39000D03*
X47000Y-39000D03*
X48000Y-39000D03*
X49000Y-39000D03*
X49000Y-40000D03*
X53000Y-36000D03*
X52000Y-36000D03*
X51000Y-36000D03*
X50000Y-36000D03*
X49000Y-36000D03*
X48000Y-36000D03*
X47000Y-36000D03*
X46000Y-36000D03*
X45000Y-36000D03*
X48000Y-37000D03*
X47000Y-37000D03*
X46000Y-37000D03*
X45000Y-38000D03*
X44000Y-39000D03*
X43500Y-38250D03*
X48000Y-42000D03*
X47000Y-42000D03*
X46000Y-42000D03*
X45000Y-42000D03*
X45000Y-41000D03*
X45000Y-40000D03*
X45000Y-39000D03*
X40250Y-44750D03*
X40250Y-43750D03*
X40250Y-42750D03*
X40250Y-41750D03*
X40250Y-40750D03*
X40250Y-39750D03*
X41500Y-40250D03*
X41500Y-39250D03*
X41200Y-40800D03*
X56000Y-40000D03*
X55000Y-40000D03*
X54000Y-40000D03*
X54000Y-41000D03*
X51750Y-43250D03*
X52750Y-42750D03*
X53500Y-42000D03*
X53000Y-38000D03*
X54000Y-39000D03*
X55000Y-39000D03*
X56000Y-38000D03*
X56000Y-39000D03*
X57000Y-39000D03*
X58000Y-40000D03*
X58250Y-40500D03*
X58250Y-41500D03*
X58250Y-42500D03*
X58250Y-43500D03*
X58250Y-44500D03*
X58250Y-45500D03*
X58250Y-47000D03*
X58250Y-48000D03*
X57000Y-40000D03*
X55250Y-49250D03*
X55250Y-50000D03*
X55250Y-51000D03*
X57000Y-49000D03*
X58000Y-49000D03*
X58000Y-50000D03*
X57000Y-50000D03*
X56000Y-50000D03*
X56000Y-51000D03*
X57000Y-51000D03*
X58000Y-51000D03*
X57000Y-52000D03*
X56000Y-52000D03*
X56000Y-53000D03*
X55000Y-52000D03*
X50620Y-54868D03*
X51000Y-54000D03*
X52000Y-54000D03*
X53000Y-54000D03*
X53000Y-53000D03*
X52000Y-53000D03*
X51000Y-53000D03*
X50200Y-54000D03*
X50200Y-53000D03*
X47100Y-51100D03*
X44600Y-51100D03*
X44000Y-51100D03*
X43000Y-51100D03*
X42000Y-51100D03*
X42000Y-52000D03*
X41000Y-52000D03*
X40200Y-50800D03*
X41000Y-51100D03*
X48300Y-52000D03*
X47100Y-52000D03*
X46200Y-52000D03*
X48900Y-52000D03*
X48900Y-52000D03*
X48000Y-51000D03*
X47000Y-53000D03*
X43000Y-52000D03*
X42000Y-53000D03*
X43000Y-53000D03*
X44000Y-52000D03*
X45200Y-52000D03*
X46000Y-53000D03*
X46000Y-54000D03*
X47000Y-54000D03*
X48000Y-54000D03*
X50620Y-38268D03*
X50620Y-37518D03*
X43270Y-40718D03*
X43270Y-39918D03*
X39595Y-48868D03*
X39595Y-48118D03*
X39595Y-47368D03*
X39595Y-46618D03*
X39595Y-45868D03*
X39620Y-45118D03*
X48120Y-54868D03*
X47370Y-54868D03*
X46620Y-54868D03*
X45870Y-54868D03*
X45120Y-54868D03*
X44370Y-54868D03*
X43620Y-54868D03*
X43120Y-54618D03*
X42620Y-54118D03*
X42120Y-53618D03*
X41620Y-53118D03*
X41120Y-52618D03*
X40620Y-52118D03*
X40120Y-51618D03*
X39620Y-51118D03*
X39600Y-49620D03*
X39620Y-50368D03*
X39620Y-39618D03*
X39620Y-40618D03*
X39620Y-41368D03*
X39620Y-42118D03*
X39620Y-42868D03*
X39620Y-43618D03*
X39620Y-44368D03*
X41370Y-37818D03*
X40870Y-38318D03*
X40370Y-38818D03*
X39970Y-39218D03*
X50070Y-54868D03*
X49520Y-54868D03*
X48920Y-54868D03*
X55370Y-36118D03*
X55870Y-36618D03*
X56370Y-37118D03*
X56870Y-37618D03*
X57370Y-38118D03*
X57870Y-38618D03*
X58370Y-39118D03*
X43870Y-35618D03*
X44620Y-35618D03*
X45370Y-35618D03*
X46120Y-35618D03*
X46870Y-35618D03*
X47620Y-35618D03*
X48370Y-35618D03*
X49120Y-35618D03*
X49870Y-35618D03*
X50620Y-35618D03*
X51370Y-35618D03*
X52120Y-35618D03*
X52870Y-35618D03*
X53620Y-35618D03*
X54370Y-35618D03*
X54870Y-35618D03*
X58770Y-50518D03*
X58770Y-49718D03*
X58770Y-48918D03*
X58770Y-48118D03*
X58770Y-47318D03*
X58770Y-46518D03*
X58770Y-45718D03*
X58770Y-44918D03*
X58770Y-44118D03*
X58770Y-43318D03*
X58770Y-42518D03*
X58770Y-41718D03*
X58770Y-40918D03*
X58770Y-40118D03*
X58770Y-39518D03*
X51370Y-54868D03*
X52120Y-54868D03*
X52870Y-54868D03*
X53620Y-54868D03*
X54370Y-54868D03*
X55120Y-54618D03*
X55620Y-54118D03*
X56120Y-53618D03*
X56620Y-53118D03*
X57120Y-52618D03*
X57620Y-52118D03*
X58120Y-51618D03*
X58620Y-51118D03*
X41870Y-37318D03*
X42370Y-36818D03*
X42870Y-36318D03*
X43370Y-35818D03*
X46570Y-39468D03*
X51370Y-39818D03*
X51370Y-39468D03*
X53020Y-39918D03*
X46870Y-48168D03*
X50920Y-42068D03*
X50920Y-41768D03*
X50570Y-42418D03*
X50570Y-42818D03*
X51720Y-52318D03*
X51220Y-52318D03*
X50720Y-52318D03*
X49770Y-54568D03*
X49220Y-54568D03*
X48670Y-54568D03*
X51820Y-45518D03*
X50570Y-45718D03*
X50820Y-43568D03*
X49270Y-43868D03*
X49420Y-42918D03*
X44820Y-46168D03*
X44770Y-46668D03*
X46670Y-47818D03*
X46120Y-45968D03*
X46320Y-46668D03*
X46520Y-47068D03*
X47320Y-47068D03*
X47770Y-46368D03*
X43770Y-43918D03*
X43770Y-43518D03*
X43770Y-43118D03*
X41440Y-47438D03*
X41420Y-47818D03*
X57120Y-44718D03*
X57120Y-44318D03*
X57120Y-43918D03*
X57120Y-47468D03*
X57120Y-47068D03*
X57120Y-46668D03*
X56270Y-47468D03*
X56270Y-47068D03*
X56270Y-46668D03*
X56270Y-44718D03*
X56270Y-44318D03*
X56270Y-43918D03*
X42670Y-43918D03*
X42670Y-43518D03*
X42670Y-43118D03*
X42320Y-47668D03*
X42320Y-47268D03*
X49520Y-41918D03*
X50520Y-39168D03*
X42320Y-46868D03*
X42320Y-46468D03*
X42320Y-46068D03*
X42320Y-45718D03*
X42320Y-45318D03*
X42320Y-44918D03*
X42320Y-44518D03*
X42320Y-44118D03*
X56270Y-45068D03*
X56270Y-45468D03*
X50220Y-43968D03*
X51170Y-39118D03*
X57120Y-45868D03*
X52870Y-46218D03*
X52870Y-47668D03*
X55570Y-45668D03*
X52620Y-46468D03*
X52620Y-47868D03*
X55570Y-46068D03*
X53370Y-45718D03*
X53370Y-47268D03*
X55570Y-44918D03*
X55570Y-43718D03*
X55570Y-44518D03*
X53620Y-47068D03*
X53620Y-45468D03*
X55570Y-43318D03*
X53120Y-47468D03*
X53120Y-45968D03*
X55570Y-45268D03*
X55570Y-44118D03*
X57120Y-46268D03*
G54D17*
X50270Y-46618D02*
X50270Y-46720D01*
X50420Y-45418D02*
X50270Y-45568D01*
X50270Y-45568D02*
X50270Y-46618D01*
X50400Y-49048D02*
X50570Y-49218D01*
X50400Y-46850D02*
X50400Y-49048D01*
X50270Y-46720D02*
X50400Y-46850D01*
X43275Y-47440D02*
X43297Y-47440D01*
X43297Y-47440D02*
X43500Y-47238D01*
G54D18*
X41237Y-43700D02*
X41732Y-43700D01*
X41220Y-43718D02*
X41237Y-43700D01*
X41732Y-43307D02*
X41231Y-43307D01*
X41231Y-43307D02*
X41220Y-43318D01*
X41224Y-42913D02*
X41732Y-42913D01*
X41220Y-42918D02*
X41224Y-42913D01*
X43275Y-47047D02*
X43275Y-47440D01*
G54D17*
X43275Y-47047D02*
X43309Y-47047D01*
X43309Y-47047D02*
X43500Y-47238D01*
G54D18*
X57105Y-43503D02*
X56692Y-43503D01*
X57120Y-43518D02*
X57105Y-43503D01*
X56692Y-43110D02*
X57112Y-43110D01*
X57112Y-43110D02*
X57120Y-43118D01*
X57118Y-42716D02*
X56692Y-42716D01*
X57120Y-42718D02*
X57118Y-42716D01*
X54744Y-47244D02*
X55149Y-47244D01*
X54720Y-47268D02*
X54744Y-47244D01*
X55149Y-46850D02*
X54737Y-46850D01*
X54737Y-46850D02*
X54720Y-46868D01*
X56284Y-43503D02*
X56692Y-43503D01*
X56270Y-43518D02*
X56284Y-43503D01*
X56692Y-43110D02*
X56277Y-43110D01*
X56277Y-43110D02*
X56270Y-43118D01*
X56271Y-42716D02*
X56692Y-42716D01*
X56270Y-42718D02*
X56271Y-42716D01*
X56692Y-42716D02*
X56692Y-43110D01*
X56692Y-43110D02*
X56692Y-43503D01*
X55149Y-46850D02*
X55149Y-47244D01*
X55570Y-47268D02*
X55546Y-47244D01*
X55546Y-47244D02*
X55149Y-47244D01*
X55149Y-46850D02*
X55552Y-46850D01*
X55552Y-46850D02*
X55570Y-46868D01*
X42697Y-47440D02*
X43275Y-47440D01*
X42670Y-47468D02*
X42697Y-47440D01*
X43275Y-47047D02*
X42690Y-47047D01*
X42690Y-47047D02*
X42670Y-47068D01*
X41732Y-43700D02*
X41732Y-43307D01*
X41732Y-43307D02*
X41732Y-42913D01*
X41732Y-43700D02*
X42302Y-43700D01*
X42302Y-43700D02*
X42320Y-43718D01*
X42320Y-43318D02*
X42309Y-43307D01*
X42309Y-43307D02*
X41732Y-43307D01*
X42315Y-42913D02*
X41732Y-42913D01*
X42320Y-42918D02*
X42315Y-42913D01*
G54D17*
X43920Y-47218D02*
X43820Y-47218D01*
X44570Y-46568D02*
X43920Y-47218D01*
X44570Y-45568D02*
X44570Y-46568D01*
X44970Y-45168D02*
X44570Y-45568D01*
X46270Y-45168D02*
X44970Y-45168D01*
X46470Y-45368D02*
X46270Y-45168D01*
X46470Y-45568D02*
X46470Y-45368D01*
X50120Y-49368D02*
X50270Y-49218D01*
X50570Y-49218D02*
X50270Y-49218D01*
X50070Y-49368D02*
X50120Y-49368D01*
G54D18*
X54570Y-50968D02*
X50770Y-50968D01*
X50570Y-50968D02*
X50770Y-50968D01*
X53570Y-50668D02*
X53320Y-50668D01*
X54570Y-50668D02*
X53570Y-50668D01*
X52920Y-50268D02*
X53120Y-50468D01*
X53320Y-50668D02*
X53120Y-50468D01*
X42696Y-44291D02*
X43275Y-44291D01*
X42670Y-44318D02*
X42696Y-44291D01*
X43275Y-44685D02*
X42703Y-44685D01*
X42703Y-44685D02*
X42670Y-44718D01*
X42709Y-45078D02*
X43275Y-45078D01*
X42670Y-45118D02*
X42709Y-45078D01*
X43275Y-45472D02*
X42674Y-45472D01*
X42674Y-45472D02*
X42670Y-45468D01*
X42672Y-45866D02*
X43275Y-45866D01*
X42670Y-45868D02*
X42672Y-45866D01*
X43275Y-46259D02*
X42678Y-46259D01*
X42678Y-46259D02*
X42670Y-46268D01*
X42684Y-46653D02*
X43275Y-46653D01*
X42670Y-46668D02*
X42684Y-46653D01*
X55558Y-46456D02*
X55149Y-46456D01*
X55570Y-46468D02*
X55558Y-46456D01*
X55149Y-42913D02*
X55565Y-42913D01*
X55565Y-42913D02*
X55570Y-42918D01*
G54D17*
X50920Y-42818D02*
X51420Y-42818D01*
X49500Y-49850D02*
X48900Y-49850D01*
X49500Y-51100D02*
X49500Y-49850D01*
X48900Y-52000D02*
X49500Y-52000D01*
X51250Y-48250D02*
X50850Y-48250D01*
X50850Y-48250D02*
X50650Y-48450D01*
X54520Y-51918D02*
X53668Y-51918D01*
X53668Y-51918D02*
X53000Y-51250D01*
X53000Y-48500D02*
X51500Y-48500D01*
X51250Y-47250D02*
X52250Y-47250D01*
X51500Y-48500D02*
X51250Y-48250D01*
X53750Y-49000D02*
X53500Y-49000D01*
X54250Y-48500D02*
X53750Y-49000D01*
X54500Y-48500D02*
X54250Y-48500D01*
X53500Y-49000D02*
X53000Y-48500D01*
X55250Y-47750D02*
X54500Y-48500D01*
X55781Y-47468D02*
X55500Y-47750D01*
X55500Y-47750D02*
X55250Y-47750D01*
X56270Y-47468D02*
X55781Y-47468D01*
X54000Y-47500D02*
X54000Y-47000D01*
X54250Y-47750D02*
X54000Y-47500D01*
X45250Y-48250D02*
X46250Y-48250D01*
X43500Y-48250D02*
X44250Y-48250D01*
X44250Y-49000D02*
X43500Y-49000D01*
X46250Y-49000D02*
X45250Y-49000D01*
X46000Y-39000D02*
X47000Y-39000D01*
X48000Y-39000D02*
X49000Y-39000D01*
X46000Y-37000D02*
X45000Y-36000D01*
X52000Y-36000D02*
X53000Y-36000D01*
X50000Y-36000D02*
X51000Y-36000D01*
X48000Y-36000D02*
X49000Y-36000D01*
X46000Y-36000D02*
X47000Y-36000D01*
X47000Y-37000D02*
X48000Y-37000D01*
X45000Y-38000D02*
X46000Y-37000D01*
X44000Y-39000D02*
X45000Y-39000D01*
X42000Y-37188D02*
X42438Y-37188D01*
X42438Y-37188D02*
X43500Y-38250D01*
X47000Y-42000D02*
X48000Y-42000D01*
X45000Y-42000D02*
X46000Y-42000D01*
X45000Y-40000D02*
X45000Y-41000D01*
X40250Y-39750D02*
X41000Y-39750D01*
X40250Y-44750D02*
X40250Y-43750D01*
X40250Y-42750D02*
X40250Y-41750D01*
X40250Y-40750D02*
X40250Y-39750D01*
X41000Y-39750D02*
X41500Y-39250D01*
X54000Y-41000D02*
X54000Y-41500D01*
X57000Y-40000D02*
X56000Y-40000D01*
X55000Y-40000D02*
X54000Y-40000D01*
X52250Y-43250D02*
X51750Y-43250D01*
X52750Y-42750D02*
X52250Y-43250D01*
X54000Y-41500D02*
X53500Y-42000D01*
X57000Y-40000D02*
X57000Y-39000D01*
X55000Y-39000D02*
X54000Y-39000D01*
X56000Y-39000D02*
X56000Y-38000D01*
X58250Y-40250D02*
X58000Y-40000D01*
X58000Y-49000D02*
X58000Y-48250D01*
X58250Y-42500D02*
X58250Y-41500D01*
X58250Y-44500D02*
X58250Y-43500D01*
X58250Y-47000D02*
X58250Y-45500D01*
X58000Y-48250D02*
X58250Y-48000D01*
X58250Y-40500D02*
X58250Y-40250D01*
X55250Y-51000D02*
X55250Y-50000D01*
X58000Y-49000D02*
X57000Y-49000D01*
X57000Y-50000D02*
X58000Y-50000D01*
X56000Y-51000D02*
X56000Y-50000D01*
X58000Y-51000D02*
X57000Y-51000D01*
X56000Y-52000D02*
X57000Y-52000D01*
X55000Y-52000D02*
X56000Y-53000D01*
X51000Y-54000D02*
X52000Y-54000D01*
X53000Y-54000D02*
X53000Y-53000D01*
X52000Y-53000D02*
X51000Y-53000D01*
X50200Y-53000D02*
X50200Y-54000D01*
X44000Y-51100D02*
X44600Y-51100D01*
X42000Y-51100D02*
X43000Y-51100D01*
X42000Y-52000D02*
X41000Y-52000D01*
X40700Y-50800D02*
X40200Y-50800D01*
X41000Y-51100D02*
X40700Y-50800D01*
X48300Y-52000D02*
X48900Y-52000D01*
X46200Y-52000D02*
X47100Y-52000D01*
X48900Y-52000D02*
X48000Y-51000D01*
X47000Y-54000D02*
X47000Y-53000D01*
X43000Y-53000D02*
X42000Y-53000D01*
X45200Y-52000D02*
X44000Y-52000D01*
X46000Y-54000D02*
X46000Y-53000D01*
X48000Y-54000D02*
X47000Y-54000D01*
X39620Y-45118D02*
X39620Y-44368D01*
X39595Y-48118D02*
X39595Y-47368D01*
X39595Y-46618D02*
X39595Y-45868D01*
X39620Y-51118D02*
X39620Y-50368D01*
X48120Y-54868D02*
X47370Y-54868D01*
X46620Y-54868D02*
X45870Y-54868D01*
X45120Y-54868D02*
X44370Y-54868D01*
X43620Y-54868D02*
X43370Y-54868D01*
X43370Y-54868D02*
X43120Y-54618D01*
X42620Y-54118D02*
X42120Y-53618D01*
X41620Y-53118D02*
X41120Y-52618D01*
X40620Y-52118D02*
X40120Y-51618D01*
X39600Y-49620D02*
X39595Y-48868D01*
X39620Y-40618D02*
X39620Y-39618D01*
X39620Y-42118D02*
X39620Y-41368D01*
X39620Y-43618D02*
X39620Y-42868D01*
X41370Y-37818D02*
X40870Y-38318D01*
X40370Y-38818D02*
X39970Y-39218D01*
X49520Y-54868D02*
X48920Y-54868D01*
X55870Y-36618D02*
X56370Y-37118D01*
X56870Y-37618D02*
X57370Y-38118D01*
X57870Y-38618D02*
X58370Y-39118D01*
X44620Y-35618D02*
X45370Y-35618D01*
X46120Y-35618D02*
X46870Y-35618D01*
X47620Y-35618D02*
X48370Y-35618D01*
X49120Y-35618D02*
X49870Y-35618D01*
X50620Y-35618D02*
X51370Y-35618D01*
X52120Y-35618D02*
X52870Y-35618D01*
X53620Y-35618D02*
X54370Y-35618D01*
X54870Y-35618D02*
X55370Y-36118D01*
X58770Y-48918D02*
X58770Y-49718D01*
X58770Y-47318D02*
X58770Y-48118D01*
X58770Y-45718D02*
X58770Y-46518D01*
X58770Y-44118D02*
X58770Y-44918D01*
X58770Y-42518D02*
X58770Y-43318D01*
X58770Y-40918D02*
X58770Y-41718D01*
X58770Y-39518D02*
X58770Y-40118D01*
X51370Y-54868D02*
X50620Y-54868D01*
X52870Y-54868D02*
X52120Y-54868D01*
X54370Y-54868D02*
X53620Y-54868D01*
X55620Y-54118D02*
X55120Y-54618D01*
X56620Y-53118D02*
X56120Y-53618D01*
X57620Y-52118D02*
X57120Y-52618D01*
X58620Y-51118D02*
X58120Y-51618D01*
X50620Y-54868D02*
X50070Y-54868D01*
X42370Y-36818D02*
X42000Y-37188D01*
X42000Y-37188D02*
X41870Y-37318D01*
X43370Y-35818D02*
X42870Y-36318D01*
G54D18*
X43275Y-43897D02*
X43749Y-43897D01*
X43749Y-43897D02*
X43770Y-43918D01*
X43755Y-43503D02*
X43275Y-43503D01*
X43770Y-43518D02*
X43755Y-43503D01*
X43275Y-43110D02*
X43762Y-43110D01*
X43762Y-43110D02*
X43770Y-43118D01*
G54D17*
X41634Y-47244D02*
X41732Y-47244D01*
X41440Y-47438D02*
X41634Y-47244D01*
X41550Y-47637D02*
X41732Y-47637D01*
X41420Y-47818D02*
X41550Y-47637D01*
G54D18*
X56692Y-44685D02*
X57087Y-44685D01*
X57087Y-44685D02*
X57120Y-44718D01*
X57093Y-44291D02*
X56692Y-44291D01*
X57120Y-44318D02*
X57093Y-44291D01*
X56692Y-43897D02*
X57099Y-43897D01*
X57099Y-43897D02*
X57120Y-43918D01*
X56692Y-47440D02*
X57092Y-47440D01*
X57092Y-47440D02*
X57120Y-47468D01*
X57099Y-47047D02*
X56692Y-47047D01*
X57120Y-47068D02*
X57099Y-47047D01*
X56692Y-46653D02*
X57105Y-46653D01*
X57105Y-46653D02*
X57120Y-46668D01*
X56297Y-47440D02*
X56692Y-47440D01*
X56270Y-47468D02*
X56297Y-47440D01*
X56692Y-47047D02*
X56290Y-47047D01*
X56290Y-47047D02*
X56270Y-47068D01*
X56284Y-46653D02*
X56692Y-46653D01*
X56270Y-46668D02*
X56284Y-46653D01*
X56692Y-46653D02*
X56692Y-47047D01*
X56692Y-47047D02*
X56692Y-47440D01*
X56303Y-44685D02*
X56692Y-44685D01*
X56270Y-44718D02*
X56303Y-44685D01*
X56692Y-44291D02*
X56296Y-44291D01*
X56296Y-44291D02*
X56270Y-44318D01*
X56692Y-44685D02*
X56692Y-44291D01*
X56692Y-44291D02*
X56692Y-43897D01*
X56692Y-43897D02*
X56290Y-43897D01*
X56290Y-43897D02*
X56270Y-43918D01*
X43275Y-43897D02*
X42690Y-43897D01*
X42690Y-43897D02*
X42670Y-43918D01*
X42684Y-43503D02*
X43275Y-43503D01*
X42670Y-43518D02*
X42684Y-43503D01*
X43275Y-43110D02*
X42677Y-43110D01*
X42677Y-43110D02*
X42670Y-43118D01*
X41732Y-47244D02*
X41732Y-47637D01*
X41732Y-47637D02*
X42289Y-47637D01*
X42289Y-47637D02*
X42320Y-47668D01*
X42296Y-47244D02*
X41732Y-47244D01*
X42320Y-47268D02*
X42296Y-47244D01*
G54D17*
X49520Y-41918D02*
X49720Y-41718D01*
X49720Y-41718D02*
X50170Y-41718D01*
X50170Y-41718D02*
X50620Y-41268D01*
X50620Y-41268D02*
X50620Y-39268D01*
X50620Y-39268D02*
X50520Y-39168D01*
G54D18*
X41732Y-46850D02*
X42302Y-46850D01*
X42302Y-46850D02*
X42320Y-46868D01*
X42308Y-46456D02*
X41732Y-46456D01*
X42320Y-46468D02*
X42308Y-46456D01*
X41732Y-46062D02*
X42314Y-46062D01*
X42314Y-46062D02*
X42320Y-46068D01*
X42271Y-45669D02*
X41732Y-45669D01*
X42320Y-45718D02*
X42271Y-45669D01*
X41732Y-45275D02*
X42277Y-45275D01*
X42277Y-45275D02*
X42320Y-45318D01*
X42283Y-44881D02*
X41732Y-44881D01*
X42320Y-44918D02*
X42283Y-44881D01*
X41732Y-44488D02*
X42290Y-44488D01*
X42290Y-44488D02*
X42320Y-44518D01*
X42296Y-44094D02*
X41732Y-44094D01*
X42320Y-44118D02*
X42296Y-44094D01*
X56692Y-45078D02*
X56280Y-45078D01*
X56280Y-45078D02*
X56270Y-45068D01*
X56274Y-45472D02*
X56692Y-45472D01*
X56270Y-45468D02*
X56274Y-45472D01*
G54D17*
X50920Y-41268D02*
X51020Y-41168D01*
X50170Y-42018D02*
X50920Y-41268D01*
X50170Y-43918D02*
X50170Y-43568D01*
X50220Y-43968D02*
X50170Y-43918D01*
X50170Y-43568D02*
X50170Y-42018D01*
X51020Y-39268D02*
X51170Y-39118D01*
X51020Y-41168D02*
X51020Y-39268D01*
G54D18*
X56692Y-45866D02*
X57118Y-45866D01*
X57118Y-45866D02*
X57120Y-45868D01*
G54D17*
X52870Y-46218D02*
X52870Y-47168D01*
X52870Y-47668D02*
X52870Y-47168D01*
G54D18*
X55568Y-45669D02*
X55149Y-45669D01*
X55570Y-45668D02*
X55568Y-45669D01*
G54D17*
X52620Y-46468D02*
X52620Y-47468D01*
X52620Y-47868D02*
X52620Y-47468D01*
G54D18*
X55149Y-46062D02*
X55564Y-46062D01*
X55564Y-46062D02*
X55570Y-46068D01*
G54D17*
X53370Y-47118D02*
X53370Y-45718D01*
X53370Y-47268D02*
X53370Y-47118D01*
G54D18*
X55533Y-44881D02*
X55149Y-44881D01*
X55570Y-44918D02*
X55533Y-44881D01*
X55149Y-43700D02*
X55552Y-43700D01*
X55552Y-43700D02*
X55570Y-43718D01*
X55149Y-44488D02*
X55540Y-44488D01*
X55540Y-44488D02*
X55570Y-44518D01*
G54D17*
X53620Y-45468D02*
X53620Y-47118D01*
G54D18*
X55559Y-43307D02*
X55149Y-43307D01*
X55570Y-43318D02*
X55559Y-43307D01*
G54D17*
X53120Y-47468D02*
X53120Y-47118D01*
X53120Y-45968D02*
X53120Y-47118D01*
G54D18*
X55149Y-45275D02*
X55562Y-45275D01*
X55562Y-45275D02*
X55570Y-45268D01*
X55546Y-44094D02*
X55149Y-44094D01*
X55570Y-44118D02*
X55546Y-44094D01*
X57111Y-46259D02*
X56692Y-46259D01*
X57120Y-46268D02*
X57111Y-46259D01*
G54D10*
G36*
X58905Y-51118D02*
X57365Y-52658D01*
X57365Y-46219D01*
X57327Y-46129D01*
X57266Y-46068D01*
X57327Y-46007D01*
X57365Y-45917D01*
X57365Y-45819D01*
X57365Y-43469D01*
X57327Y-43379D01*
X57266Y-43318D01*
X57327Y-43257D01*
X57365Y-43167D01*
X57365Y-43069D01*
X57327Y-42979D01*
X57266Y-42918D01*
X57327Y-42857D01*
X57365Y-42767D01*
X57365Y-42669D01*
X57327Y-42579D01*
X57259Y-42510D01*
X57169Y-42473D01*
X57071Y-42473D01*
X57026Y-42491D01*
X56735Y-42491D01*
X56735Y-41780D01*
X56735Y-41723D01*
X56735Y-41211D01*
X56713Y-41158D01*
X56672Y-41117D01*
X56619Y-41095D01*
X56561Y-41095D01*
X55460Y-41095D01*
X55460Y-36784D01*
X55288Y-36369D01*
X54971Y-36051D01*
X54556Y-35878D01*
X54107Y-35878D01*
X53691Y-36049D01*
X53373Y-36367D01*
X53201Y-36782D01*
X53201Y-37231D01*
X53372Y-37646D01*
X53690Y-37964D01*
X54105Y-38136D01*
X54554Y-38137D01*
X54969Y-37965D01*
X55287Y-37648D01*
X55459Y-37233D01*
X55460Y-36784D01*
X55460Y-41095D01*
X55223Y-41095D01*
X55169Y-41117D01*
X55129Y-41158D01*
X55106Y-41211D01*
X55106Y-41268D01*
X55106Y-41780D01*
X55129Y-41834D01*
X55169Y-41874D01*
X55223Y-41896D01*
X55280Y-41896D01*
X55574Y-41896D01*
X55520Y-42026D01*
X55520Y-42185D01*
X55581Y-42333D01*
X55693Y-42445D01*
X55841Y-42507D01*
X56000Y-42507D01*
X56148Y-42446D01*
X56260Y-42333D01*
X56322Y-42186D01*
X56322Y-42026D01*
X56268Y-41896D01*
X56619Y-41896D01*
X56672Y-41874D01*
X56713Y-41834D01*
X56735Y-41780D01*
X56735Y-42491D01*
X56692Y-42491D01*
X56363Y-42491D01*
X56319Y-42473D01*
X56221Y-42473D01*
X56131Y-42510D01*
X56062Y-42579D01*
X56025Y-42669D01*
X56025Y-42766D01*
X56062Y-42856D01*
X56123Y-42918D01*
X56062Y-42979D01*
X56025Y-43069D01*
X56025Y-43166D01*
X56062Y-43256D01*
X56123Y-43318D01*
X56062Y-43379D01*
X56025Y-43469D01*
X56025Y-43566D01*
X56062Y-43656D01*
X56080Y-43675D01*
X56075Y-43680D01*
X56038Y-43770D01*
X56038Y-43797D01*
X56099Y-43858D01*
X56637Y-43858D01*
X56637Y-43834D01*
X56747Y-43834D01*
X56747Y-43858D01*
X57286Y-43858D01*
X57347Y-43797D01*
X57347Y-43770D01*
X57310Y-43680D01*
X57307Y-43677D01*
X57327Y-43657D01*
X57365Y-43567D01*
X57365Y-43469D01*
X57365Y-45819D01*
X57327Y-45729D01*
X57259Y-45660D01*
X57215Y-45642D01*
X57225Y-45633D01*
X57247Y-45580D01*
X57247Y-45522D01*
X57247Y-45364D01*
X57225Y-45311D01*
X57189Y-45275D01*
X57225Y-45239D01*
X57247Y-45186D01*
X57247Y-45128D01*
X57247Y-44971D01*
X57245Y-44966D01*
X57310Y-44902D01*
X57347Y-44812D01*
X57347Y-44785D01*
X57347Y-44584D01*
X57347Y-44557D01*
X57318Y-44488D01*
X57347Y-44418D01*
X57347Y-44391D01*
X57347Y-44190D01*
X57347Y-44163D01*
X57318Y-44094D01*
X57347Y-44025D01*
X57347Y-43998D01*
X57286Y-43937D01*
X56747Y-43937D01*
X56747Y-44028D01*
X56747Y-44160D01*
X56747Y-44251D01*
X57286Y-44251D01*
X57347Y-44190D01*
X57347Y-44391D01*
X57286Y-44330D01*
X56747Y-44330D01*
X56747Y-44422D01*
X56747Y-44553D01*
X56747Y-44645D01*
X57286Y-44645D01*
X57347Y-44584D01*
X57347Y-44785D01*
X57286Y-44724D01*
X56747Y-44724D01*
X56747Y-44747D01*
X56637Y-44747D01*
X56637Y-44724D01*
X56637Y-44645D01*
X56637Y-44553D01*
X56637Y-44422D01*
X56637Y-44330D01*
X56637Y-44251D01*
X56637Y-44160D01*
X56637Y-44028D01*
X56637Y-43937D01*
X56099Y-43937D01*
X56038Y-43998D01*
X56038Y-44025D01*
X56067Y-44094D01*
X56038Y-44163D01*
X56038Y-44190D01*
X56099Y-44251D01*
X56637Y-44251D01*
X56637Y-44330D01*
X56099Y-44330D01*
X56038Y-44391D01*
X56038Y-44418D01*
X56067Y-44488D01*
X56038Y-44557D01*
X56038Y-44584D01*
X56099Y-44645D01*
X56637Y-44645D01*
X56637Y-44724D01*
X56099Y-44724D01*
X56038Y-44785D01*
X56038Y-44812D01*
X56075Y-44902D01*
X56082Y-44909D01*
X56062Y-44929D01*
X56025Y-45019D01*
X56025Y-45116D01*
X56062Y-45206D01*
X56123Y-45268D01*
X56062Y-45329D01*
X56025Y-45419D01*
X56025Y-45516D01*
X56062Y-45606D01*
X56131Y-45675D01*
X56172Y-45693D01*
X56160Y-45705D01*
X56138Y-45758D01*
X56138Y-45816D01*
X56138Y-45973D01*
X56160Y-46027D01*
X56196Y-46062D01*
X56160Y-46098D01*
X56138Y-46152D01*
X56138Y-46209D01*
X56138Y-46367D01*
X56140Y-46371D01*
X56075Y-46436D01*
X56038Y-46526D01*
X56038Y-46552D01*
X56099Y-46614D01*
X56637Y-46614D01*
X56637Y-46590D01*
X56747Y-46590D01*
X56747Y-46614D01*
X57286Y-46614D01*
X57347Y-46552D01*
X57347Y-46526D01*
X57310Y-46436D01*
X57304Y-46430D01*
X57327Y-46407D01*
X57365Y-46317D01*
X57365Y-46219D01*
X57365Y-52658D01*
X57347Y-52676D01*
X57347Y-47568D01*
X57347Y-47541D01*
X57347Y-47340D01*
X57347Y-47313D01*
X57318Y-47244D01*
X57347Y-47174D01*
X57347Y-47147D01*
X57347Y-46946D01*
X57347Y-46919D01*
X57318Y-46850D01*
X57347Y-46781D01*
X57347Y-46754D01*
X57286Y-46692D01*
X56747Y-46692D01*
X56747Y-46784D01*
X56747Y-46916D01*
X56747Y-47007D01*
X57286Y-47007D01*
X57347Y-46946D01*
X57347Y-47147D01*
X57286Y-47086D01*
X56747Y-47086D01*
X56747Y-47178D01*
X56747Y-47309D01*
X56747Y-47401D01*
X57286Y-47401D01*
X57347Y-47340D01*
X57347Y-47541D01*
X57286Y-47480D01*
X56747Y-47480D01*
X56747Y-47703D01*
X56809Y-47764D01*
X57053Y-47764D01*
X57151Y-47764D01*
X57241Y-47727D01*
X57310Y-47658D01*
X57347Y-47568D01*
X57347Y-52676D01*
X56735Y-53288D01*
X56735Y-48946D01*
X56735Y-48888D01*
X56735Y-48376D01*
X56713Y-48323D01*
X56672Y-48282D01*
X56619Y-48260D01*
X56561Y-48260D01*
X56268Y-48260D01*
X56322Y-48131D01*
X56322Y-47971D01*
X56261Y-47824D01*
X56178Y-47741D01*
X56234Y-47764D01*
X56332Y-47764D01*
X56576Y-47764D01*
X56637Y-47703D01*
X56637Y-47480D01*
X56637Y-47401D01*
X56637Y-47309D01*
X56637Y-47178D01*
X56637Y-47086D01*
X56637Y-47007D01*
X56637Y-46916D01*
X56637Y-46784D01*
X56637Y-46692D01*
X56099Y-46692D01*
X56038Y-46754D01*
X56038Y-46781D01*
X56067Y-46850D01*
X56038Y-46919D01*
X56038Y-46946D01*
X56099Y-47007D01*
X56637Y-47007D01*
X56637Y-47086D01*
X56099Y-47086D01*
X56038Y-47147D01*
X56038Y-47174D01*
X56067Y-47244D01*
X56038Y-47313D01*
X56038Y-47340D01*
X56099Y-47401D01*
X56637Y-47401D01*
X56637Y-47480D01*
X56099Y-47480D01*
X56038Y-47541D01*
X56038Y-47568D01*
X56075Y-47658D01*
X56114Y-47697D01*
X56001Y-47650D01*
X55841Y-47650D01*
X55815Y-47661D01*
X55815Y-47219D01*
X55777Y-47129D01*
X55716Y-47068D01*
X55777Y-47007D01*
X55815Y-46917D01*
X55815Y-46819D01*
X55777Y-46729D01*
X55716Y-46668D01*
X55777Y-46607D01*
X55815Y-46517D01*
X55815Y-46419D01*
X55777Y-46329D01*
X55716Y-46268D01*
X55777Y-46207D01*
X55815Y-46117D01*
X55815Y-46019D01*
X55777Y-45929D01*
X55716Y-45868D01*
X55777Y-45807D01*
X55815Y-45717D01*
X55815Y-45619D01*
X55777Y-45529D01*
X55716Y-45468D01*
X55777Y-45407D01*
X55815Y-45317D01*
X55815Y-45219D01*
X55777Y-45129D01*
X55741Y-45093D01*
X55777Y-45057D01*
X55815Y-44967D01*
X55815Y-44869D01*
X55777Y-44779D01*
X55716Y-44718D01*
X55777Y-44657D01*
X55815Y-44567D01*
X55815Y-44469D01*
X55777Y-44379D01*
X55716Y-44318D01*
X55777Y-44257D01*
X55815Y-44167D01*
X55815Y-44069D01*
X55777Y-43979D01*
X55716Y-43918D01*
X55777Y-43857D01*
X55815Y-43767D01*
X55815Y-43669D01*
X55777Y-43579D01*
X55716Y-43518D01*
X55777Y-43457D01*
X55815Y-43367D01*
X55815Y-43269D01*
X55777Y-43179D01*
X55716Y-43118D01*
X55777Y-43057D01*
X55815Y-42967D01*
X55815Y-42869D01*
X55777Y-42779D01*
X55709Y-42710D01*
X55619Y-42673D01*
X55521Y-42673D01*
X55484Y-42688D01*
X55149Y-42688D01*
X55143Y-42689D01*
X54711Y-42689D01*
X54658Y-42711D01*
X54617Y-42752D01*
X54595Y-42805D01*
X54595Y-42863D01*
X54595Y-43020D01*
X54617Y-43074D01*
X54653Y-43110D01*
X54617Y-43146D01*
X54595Y-43199D01*
X54595Y-43257D01*
X54595Y-43414D01*
X54617Y-43467D01*
X54653Y-43503D01*
X54617Y-43539D01*
X54595Y-43593D01*
X54595Y-43650D01*
X54595Y-43808D01*
X54617Y-43861D01*
X54653Y-43897D01*
X54617Y-43933D01*
X54595Y-43986D01*
X54595Y-44044D01*
X54595Y-44202D01*
X54617Y-44255D01*
X54653Y-44291D01*
X54617Y-44327D01*
X54595Y-44380D01*
X54595Y-44438D01*
X54595Y-44595D01*
X54617Y-44649D01*
X54653Y-44685D01*
X54617Y-44721D01*
X54595Y-44774D01*
X54595Y-44831D01*
X54595Y-44989D01*
X54617Y-45042D01*
X54653Y-45078D01*
X54617Y-45114D01*
X54595Y-45168D01*
X54595Y-45225D01*
X54595Y-45383D01*
X54617Y-45436D01*
X54653Y-45472D01*
X54617Y-45508D01*
X54595Y-45561D01*
X54595Y-45619D01*
X54595Y-45776D01*
X54617Y-45830D01*
X54653Y-45866D01*
X54617Y-45902D01*
X54595Y-45955D01*
X54595Y-46013D01*
X54595Y-46170D01*
X54617Y-46223D01*
X54653Y-46259D01*
X54617Y-46295D01*
X54595Y-46349D01*
X54595Y-46406D01*
X54595Y-46564D01*
X54617Y-46617D01*
X54637Y-46637D01*
X54581Y-46660D01*
X54512Y-46729D01*
X54475Y-46819D01*
X54475Y-46916D01*
X54512Y-47006D01*
X54573Y-47068D01*
X54512Y-47129D01*
X54475Y-47219D01*
X54475Y-47316D01*
X54512Y-47406D01*
X54581Y-47475D01*
X54671Y-47513D01*
X54768Y-47513D01*
X54858Y-47475D01*
X54865Y-47469D01*
X55149Y-47469D01*
X55424Y-47469D01*
X55431Y-47475D01*
X55521Y-47513D01*
X55618Y-47513D01*
X55708Y-47475D01*
X55777Y-47407D01*
X55815Y-47317D01*
X55815Y-47219D01*
X55815Y-47661D01*
X55694Y-47711D01*
X55581Y-47823D01*
X55520Y-47971D01*
X55520Y-48130D01*
X55573Y-48260D01*
X55223Y-48260D01*
X55169Y-48282D01*
X55129Y-48323D01*
X55106Y-48376D01*
X55106Y-48434D01*
X55106Y-48946D01*
X55129Y-48999D01*
X55169Y-49040D01*
X55223Y-49062D01*
X55280Y-49062D01*
X56619Y-49062D01*
X56672Y-49040D01*
X56713Y-48999D01*
X56735Y-48946D01*
X56735Y-53288D01*
X55460Y-54563D01*
X55460Y-53319D01*
X55288Y-52904D01*
X54971Y-52586D01*
X54815Y-52521D01*
X54815Y-50919D01*
X54777Y-50829D01*
X54766Y-50818D01*
X54777Y-50807D01*
X54815Y-50717D01*
X54815Y-50619D01*
X54777Y-50529D01*
X54709Y-50460D01*
X54619Y-50423D01*
X54521Y-50423D01*
X54473Y-50443D01*
X53865Y-50443D01*
X53865Y-47019D01*
X53827Y-46929D01*
X53815Y-46916D01*
X53815Y-45619D01*
X53827Y-45607D01*
X53865Y-45517D01*
X53865Y-45419D01*
X53827Y-45329D01*
X53759Y-45260D01*
X53669Y-45223D01*
X53571Y-45223D01*
X53481Y-45260D01*
X53412Y-45329D01*
X53375Y-45419D01*
X53375Y-45473D01*
X53321Y-45473D01*
X53231Y-45510D01*
X53162Y-45579D01*
X53125Y-45669D01*
X53125Y-45723D01*
X53071Y-45723D01*
X52981Y-45760D01*
X52912Y-45829D01*
X52875Y-45919D01*
X52875Y-45973D01*
X52821Y-45973D01*
X52731Y-46010D01*
X52662Y-46079D01*
X52625Y-46169D01*
X52625Y-46223D01*
X52571Y-46223D01*
X52481Y-46260D01*
X52412Y-46329D01*
X52375Y-46419D01*
X52375Y-46516D01*
X52412Y-46606D01*
X52425Y-46619D01*
X52425Y-47468D01*
X52425Y-47716D01*
X52412Y-47729D01*
X52375Y-47819D01*
X52375Y-47916D01*
X52412Y-48006D01*
X52481Y-48075D01*
X52571Y-48113D01*
X52668Y-48113D01*
X52758Y-48075D01*
X52827Y-48007D01*
X52865Y-47917D01*
X52865Y-47913D01*
X52918Y-47913D01*
X53008Y-47875D01*
X53077Y-47807D01*
X53115Y-47717D01*
X53115Y-47713D01*
X53168Y-47713D01*
X53258Y-47675D01*
X53327Y-47607D01*
X53365Y-47517D01*
X53365Y-47513D01*
X53418Y-47513D01*
X53508Y-47475D01*
X53577Y-47407D01*
X53615Y-47317D01*
X53615Y-47313D01*
X53620Y-47313D01*
X53668Y-47313D01*
X53758Y-47275D01*
X53827Y-47207D01*
X53865Y-47117D01*
X53865Y-47019D01*
X53865Y-50443D01*
X53570Y-50443D01*
X53413Y-50443D01*
X53279Y-50309D01*
X53279Y-50309D01*
X53147Y-50177D01*
X53127Y-50129D01*
X53059Y-50060D01*
X52969Y-50023D01*
X52871Y-50023D01*
X52781Y-50060D01*
X52712Y-50129D01*
X52675Y-50219D01*
X52675Y-50316D01*
X52712Y-50406D01*
X52781Y-50475D01*
X52829Y-50495D01*
X52960Y-50627D01*
X52960Y-50627D01*
X53076Y-50743D01*
X51665Y-50743D01*
X51665Y-42769D01*
X51627Y-42679D01*
X51559Y-42610D01*
X51469Y-42573D01*
X51415Y-42573D01*
X51415Y-39069D01*
X51377Y-38979D01*
X51309Y-38910D01*
X51219Y-38873D01*
X51121Y-38873D01*
X51031Y-38910D01*
X50962Y-38979D01*
X50925Y-39069D01*
X50925Y-39087D01*
X50882Y-39130D01*
X50839Y-39193D01*
X50825Y-39268D01*
X50825Y-41087D01*
X50815Y-41097D01*
X50815Y-39268D01*
X50800Y-39193D01*
X50800Y-39193D01*
X50765Y-39140D01*
X50765Y-39119D01*
X50727Y-39029D01*
X50659Y-38960D01*
X50569Y-38923D01*
X50471Y-38923D01*
X50381Y-38960D01*
X50312Y-39029D01*
X50275Y-39119D01*
X50275Y-39216D01*
X50312Y-39306D01*
X50381Y-39375D01*
X50425Y-39393D01*
X50425Y-41187D01*
X50089Y-41523D01*
X49720Y-41523D01*
X49645Y-41537D01*
X49582Y-41580D01*
X49489Y-41673D01*
X49471Y-41673D01*
X49381Y-41710D01*
X49312Y-41779D01*
X49275Y-41869D01*
X49275Y-41966D01*
X49312Y-42056D01*
X49381Y-42125D01*
X49471Y-42163D01*
X49568Y-42163D01*
X49658Y-42125D01*
X49727Y-42057D01*
X49765Y-41967D01*
X49765Y-41948D01*
X49800Y-41913D01*
X50010Y-41913D01*
X49989Y-41943D01*
X49975Y-42018D01*
X49975Y-43568D01*
X49975Y-43918D01*
X49975Y-43918D01*
X49975Y-43919D01*
X49975Y-44016D01*
X50012Y-44106D01*
X50081Y-44175D01*
X50171Y-44213D01*
X50268Y-44213D01*
X50358Y-44175D01*
X50427Y-44107D01*
X50465Y-44017D01*
X50465Y-43919D01*
X50427Y-43829D01*
X50365Y-43766D01*
X50365Y-43568D01*
X50365Y-42098D01*
X51057Y-41405D01*
X51157Y-41305D01*
X51200Y-41242D01*
X51200Y-41242D01*
X51215Y-41168D01*
X51215Y-39363D01*
X51218Y-39363D01*
X51308Y-39325D01*
X51377Y-39257D01*
X51415Y-39167D01*
X51415Y-39069D01*
X51415Y-42573D01*
X51371Y-42573D01*
X51281Y-42610D01*
X51268Y-42623D01*
X51071Y-42623D01*
X51059Y-42610D01*
X50969Y-42573D01*
X50871Y-42573D01*
X50781Y-42610D01*
X50712Y-42679D01*
X50675Y-42769D01*
X50675Y-42866D01*
X50712Y-42956D01*
X50781Y-43025D01*
X50871Y-43063D01*
X50968Y-43063D01*
X51058Y-43025D01*
X51071Y-43013D01*
X51268Y-43013D01*
X51281Y-43025D01*
X51371Y-43063D01*
X51468Y-43063D01*
X51558Y-43025D01*
X51627Y-42957D01*
X51665Y-42867D01*
X51665Y-42769D01*
X51665Y-50743D01*
X50815Y-50743D01*
X50815Y-49169D01*
X50777Y-49079D01*
X50709Y-49010D01*
X50619Y-48973D01*
X50600Y-48973D01*
X50595Y-48967D01*
X50595Y-46850D01*
X50580Y-46775D01*
X50580Y-46775D01*
X50537Y-46712D01*
X50465Y-46639D01*
X50465Y-46618D01*
X50465Y-45663D01*
X50468Y-45663D01*
X50558Y-45625D01*
X50627Y-45557D01*
X50665Y-45467D01*
X50665Y-45369D01*
X50627Y-45279D01*
X50559Y-45210D01*
X50469Y-45173D01*
X50371Y-45173D01*
X50281Y-45210D01*
X50212Y-45279D01*
X50175Y-45369D01*
X50175Y-45387D01*
X50132Y-45430D01*
X50089Y-45493D01*
X50075Y-45568D01*
X50075Y-46618D01*
X50075Y-46720D01*
X50089Y-46794D01*
X50132Y-46857D01*
X50205Y-46930D01*
X50205Y-49036D01*
X50195Y-49037D01*
X50132Y-49080D01*
X50089Y-49123D01*
X50021Y-49123D01*
X49931Y-49160D01*
X49862Y-49229D01*
X49825Y-49319D01*
X49825Y-49416D01*
X49862Y-49506D01*
X49931Y-49575D01*
X50021Y-49613D01*
X50118Y-49613D01*
X50208Y-49575D01*
X50277Y-49507D01*
X50292Y-49471D01*
X50350Y-49413D01*
X50418Y-49413D01*
X50431Y-49425D01*
X50521Y-49463D01*
X50618Y-49463D01*
X50708Y-49425D01*
X50777Y-49357D01*
X50815Y-49267D01*
X50815Y-49169D01*
X50815Y-50743D01*
X50770Y-50743D01*
X50667Y-50743D01*
X50619Y-50723D01*
X50521Y-50723D01*
X50431Y-50760D01*
X50362Y-50829D01*
X50325Y-50919D01*
X50325Y-51016D01*
X50362Y-51106D01*
X50431Y-51175D01*
X50521Y-51213D01*
X50618Y-51213D01*
X50667Y-51193D01*
X50770Y-51193D01*
X54473Y-51193D01*
X54521Y-51213D01*
X54618Y-51213D01*
X54708Y-51175D01*
X54777Y-51107D01*
X54815Y-51017D01*
X54815Y-50919D01*
X54815Y-52521D01*
X54556Y-52414D01*
X54107Y-52413D01*
X53691Y-52585D01*
X53373Y-52902D01*
X53201Y-53317D01*
X53201Y-53766D01*
X53372Y-54182D01*
X53690Y-54500D01*
X54105Y-54672D01*
X54554Y-54672D01*
X54969Y-54501D01*
X55287Y-54183D01*
X55459Y-53768D01*
X55460Y-53319D01*
X55460Y-54563D01*
X55055Y-54968D01*
X46715Y-54968D01*
X46715Y-45519D01*
X46677Y-45429D01*
X46665Y-45416D01*
X46665Y-45368D01*
X46650Y-45293D01*
X46650Y-45293D01*
X46607Y-45230D01*
X46407Y-45030D01*
X46344Y-44987D01*
X46270Y-44973D01*
X45223Y-44973D01*
X45223Y-36784D01*
X45052Y-36369D01*
X44734Y-36051D01*
X44320Y-35878D01*
X43870Y-35878D01*
X43455Y-36049D01*
X43137Y-36367D01*
X42965Y-36782D01*
X42965Y-37231D01*
X43136Y-37646D01*
X43453Y-37964D01*
X43868Y-38136D01*
X44318Y-38137D01*
X44733Y-37965D01*
X45051Y-37648D01*
X45223Y-37233D01*
X45223Y-36784D01*
X45223Y-44973D01*
X44970Y-44973D01*
X44895Y-44987D01*
X44832Y-45030D01*
X44432Y-45430D01*
X44389Y-45493D01*
X44375Y-45568D01*
X44375Y-46487D01*
X43883Y-46979D01*
X43869Y-46973D01*
X43830Y-46973D01*
X43830Y-46939D01*
X43807Y-46886D01*
X43771Y-46850D01*
X43807Y-46814D01*
X43830Y-46761D01*
X43830Y-46703D01*
X43830Y-46545D01*
X43807Y-46492D01*
X43771Y-46456D01*
X43807Y-46420D01*
X43830Y-46367D01*
X43830Y-46309D01*
X43830Y-46152D01*
X43807Y-46098D01*
X43771Y-46062D01*
X43807Y-46027D01*
X43830Y-45973D01*
X43830Y-45916D01*
X43830Y-45758D01*
X43807Y-45705D01*
X43771Y-45669D01*
X43807Y-45633D01*
X43830Y-45580D01*
X43830Y-45522D01*
X43830Y-45364D01*
X43807Y-45311D01*
X43771Y-45275D01*
X43807Y-45239D01*
X43830Y-45186D01*
X43830Y-45128D01*
X43830Y-44971D01*
X43807Y-44917D01*
X43771Y-44881D01*
X43807Y-44845D01*
X43830Y-44792D01*
X43830Y-44734D01*
X43830Y-44577D01*
X43807Y-44524D01*
X43771Y-44488D01*
X43807Y-44452D01*
X43830Y-44398D01*
X43830Y-44341D01*
X43830Y-44183D01*
X43828Y-44179D01*
X43892Y-44115D01*
X43930Y-44025D01*
X43930Y-43998D01*
X43930Y-43797D01*
X43930Y-43770D01*
X43901Y-43700D01*
X43930Y-43631D01*
X43930Y-43604D01*
X43930Y-43403D01*
X43930Y-43376D01*
X43901Y-43307D01*
X43930Y-43237D01*
X43930Y-43210D01*
X43930Y-43009D01*
X43930Y-42982D01*
X43892Y-42892D01*
X43823Y-42823D01*
X43733Y-42786D01*
X43636Y-42786D01*
X43391Y-42786D01*
X43330Y-42847D01*
X43330Y-43070D01*
X43868Y-43070D01*
X43930Y-43009D01*
X43930Y-43210D01*
X43868Y-43149D01*
X43330Y-43149D01*
X43330Y-43241D01*
X43330Y-43372D01*
X43330Y-43464D01*
X43868Y-43464D01*
X43930Y-43403D01*
X43930Y-43604D01*
X43868Y-43543D01*
X43330Y-43543D01*
X43330Y-43635D01*
X43330Y-43766D01*
X43330Y-43858D01*
X43868Y-43858D01*
X43930Y-43797D01*
X43930Y-43998D01*
X43868Y-43937D01*
X43330Y-43937D01*
X43330Y-43960D01*
X43220Y-43960D01*
X43220Y-43937D01*
X43220Y-43858D01*
X43220Y-43766D01*
X43220Y-43635D01*
X43220Y-43543D01*
X43220Y-43464D01*
X43220Y-43372D01*
X43220Y-43241D01*
X43220Y-43149D01*
X43220Y-43070D01*
X43220Y-42847D01*
X43159Y-42786D01*
X42914Y-42786D01*
X42817Y-42786D01*
X42727Y-42823D01*
X42658Y-42892D01*
X42621Y-42982D01*
X42621Y-43009D01*
X42682Y-43070D01*
X43220Y-43070D01*
X43220Y-43149D01*
X42682Y-43149D01*
X42621Y-43210D01*
X42621Y-43237D01*
X42649Y-43307D01*
X42621Y-43376D01*
X42621Y-43403D01*
X42682Y-43464D01*
X43220Y-43464D01*
X43220Y-43543D01*
X42682Y-43543D01*
X42621Y-43604D01*
X42621Y-43631D01*
X42649Y-43700D01*
X42621Y-43770D01*
X42621Y-43797D01*
X42682Y-43858D01*
X43220Y-43858D01*
X43220Y-43937D01*
X42682Y-43937D01*
X42621Y-43998D01*
X42621Y-44025D01*
X42641Y-44073D01*
X42621Y-44073D01*
X42565Y-44096D01*
X42565Y-44069D01*
X42527Y-43979D01*
X42466Y-43918D01*
X42527Y-43857D01*
X42565Y-43767D01*
X42565Y-43669D01*
X42527Y-43579D01*
X42466Y-43518D01*
X42527Y-43457D01*
X42565Y-43367D01*
X42565Y-43269D01*
X42527Y-43179D01*
X42466Y-43118D01*
X42527Y-43057D01*
X42565Y-42967D01*
X42565Y-42869D01*
X42527Y-42779D01*
X42459Y-42710D01*
X42443Y-42704D01*
X42583Y-42704D01*
X42730Y-42643D01*
X42843Y-42530D01*
X42904Y-42383D01*
X42904Y-42223D01*
X42851Y-42093D01*
X43202Y-42093D01*
X43255Y-42071D01*
X43296Y-42030D01*
X43318Y-41977D01*
X43318Y-41919D01*
X43318Y-41408D01*
X43296Y-41354D01*
X43255Y-41314D01*
X43202Y-41292D01*
X43144Y-41292D01*
X41805Y-41292D01*
X41752Y-41314D01*
X41711Y-41354D01*
X41689Y-41408D01*
X41689Y-41465D01*
X41689Y-41977D01*
X41711Y-42030D01*
X41752Y-42071D01*
X41805Y-42093D01*
X41863Y-42093D01*
X42156Y-42093D01*
X42103Y-42223D01*
X42102Y-42382D01*
X42163Y-42529D01*
X42276Y-42642D01*
X42349Y-42673D01*
X42271Y-42673D01*
X42234Y-42688D01*
X41732Y-42688D01*
X41305Y-42688D01*
X41269Y-42673D01*
X41171Y-42673D01*
X41081Y-42710D01*
X41012Y-42779D01*
X40975Y-42869D01*
X40975Y-42966D01*
X41012Y-43056D01*
X41073Y-43118D01*
X41012Y-43179D01*
X40975Y-43269D01*
X40975Y-43366D01*
X41012Y-43456D01*
X41073Y-43518D01*
X41012Y-43579D01*
X40975Y-43669D01*
X40975Y-43766D01*
X41012Y-43856D01*
X41081Y-43925D01*
X41171Y-43963D01*
X41187Y-43963D01*
X41177Y-43986D01*
X41177Y-44044D01*
X41177Y-44202D01*
X41199Y-44255D01*
X41235Y-44291D01*
X41199Y-44327D01*
X41177Y-44380D01*
X41177Y-44438D01*
X41177Y-44595D01*
X41199Y-44649D01*
X41235Y-44685D01*
X41199Y-44721D01*
X41177Y-44774D01*
X41177Y-44831D01*
X41177Y-44989D01*
X41199Y-45042D01*
X41235Y-45078D01*
X41199Y-45114D01*
X41177Y-45168D01*
X41177Y-45225D01*
X41177Y-45383D01*
X41199Y-45436D01*
X41235Y-45472D01*
X41199Y-45508D01*
X41177Y-45561D01*
X41177Y-45619D01*
X41177Y-45776D01*
X41199Y-45830D01*
X41235Y-45866D01*
X41199Y-45902D01*
X41177Y-45955D01*
X41177Y-46013D01*
X41177Y-46170D01*
X41199Y-46223D01*
X41235Y-46259D01*
X41199Y-46295D01*
X41177Y-46349D01*
X41177Y-46406D01*
X41177Y-46564D01*
X41199Y-46617D01*
X41235Y-46653D01*
X41199Y-46689D01*
X41177Y-46742D01*
X41177Y-46800D01*
X41177Y-46957D01*
X41179Y-46962D01*
X41115Y-47026D01*
X41077Y-47116D01*
X41077Y-47143D01*
X41139Y-47204D01*
X41677Y-47204D01*
X41677Y-47181D01*
X41787Y-47181D01*
X41787Y-47204D01*
X42325Y-47204D01*
X42386Y-47143D01*
X42386Y-47116D01*
X42382Y-47107D01*
X42425Y-47089D01*
X42425Y-47116D01*
X42462Y-47206D01*
X42523Y-47268D01*
X42462Y-47329D01*
X42425Y-47419D01*
X42425Y-47516D01*
X42462Y-47606D01*
X42531Y-47675D01*
X42621Y-47713D01*
X42718Y-47713D01*
X42808Y-47675D01*
X42818Y-47665D01*
X43275Y-47665D01*
X43281Y-47664D01*
X43713Y-47664D01*
X43767Y-47642D01*
X43807Y-47601D01*
X43830Y-47548D01*
X43830Y-47490D01*
X43830Y-47463D01*
X43868Y-47463D01*
X43958Y-47425D01*
X43984Y-47400D01*
X43994Y-47398D01*
X43994Y-47398D01*
X44057Y-47355D01*
X44707Y-46705D01*
X44750Y-46642D01*
X44765Y-46568D01*
X44765Y-45648D01*
X45050Y-45363D01*
X46189Y-45363D01*
X46260Y-45434D01*
X46225Y-45519D01*
X46225Y-45616D01*
X46262Y-45706D01*
X46331Y-45775D01*
X46421Y-45813D01*
X46518Y-45813D01*
X46608Y-45775D01*
X46677Y-45707D01*
X46715Y-45617D01*
X46715Y-45519D01*
X46715Y-54968D01*
X45223Y-54968D01*
X45223Y-53319D01*
X45052Y-52904D01*
X44734Y-52586D01*
X44320Y-52414D01*
X43870Y-52413D01*
X43455Y-52585D01*
X43318Y-52722D01*
X43318Y-49143D01*
X43318Y-49085D01*
X43318Y-48573D01*
X43296Y-48520D01*
X43255Y-48479D01*
X43202Y-48457D01*
X43144Y-48457D01*
X42851Y-48457D01*
X42904Y-48328D01*
X42904Y-48168D01*
X42844Y-48021D01*
X42731Y-47908D01*
X42584Y-47847D01*
X42424Y-47847D01*
X42310Y-47894D01*
X42349Y-47855D01*
X42386Y-47765D01*
X42386Y-47738D01*
X42386Y-47537D01*
X42386Y-47510D01*
X42357Y-47440D01*
X42386Y-47371D01*
X42386Y-47344D01*
X42325Y-47283D01*
X41787Y-47283D01*
X41787Y-47375D01*
X41787Y-47506D01*
X41787Y-47598D01*
X42325Y-47598D01*
X42386Y-47537D01*
X42386Y-47738D01*
X42325Y-47677D01*
X41787Y-47677D01*
X41787Y-47900D01*
X41848Y-47961D01*
X42092Y-47961D01*
X42190Y-47961D01*
X42246Y-47938D01*
X42164Y-48020D01*
X42103Y-48167D01*
X42102Y-48327D01*
X42156Y-48457D01*
X41805Y-48457D01*
X41752Y-48479D01*
X41711Y-48520D01*
X41689Y-48573D01*
X41689Y-48631D01*
X41689Y-49143D01*
X41711Y-49196D01*
X41752Y-49237D01*
X41805Y-49259D01*
X41863Y-49259D01*
X43202Y-49259D01*
X43255Y-49237D01*
X43296Y-49196D01*
X43318Y-49143D01*
X43318Y-52722D01*
X43137Y-52902D01*
X42965Y-53317D01*
X42965Y-53766D01*
X43136Y-54182D01*
X43453Y-54500D01*
X43868Y-54672D01*
X44318Y-54672D01*
X44733Y-54501D01*
X45051Y-54183D01*
X45223Y-53768D01*
X45223Y-53319D01*
X45223Y-54968D01*
X43369Y-54968D01*
X41677Y-53276D01*
X41677Y-47900D01*
X41677Y-47677D01*
X41677Y-47598D01*
X41677Y-47506D01*
X41677Y-47375D01*
X41677Y-47283D01*
X41139Y-47283D01*
X41077Y-47344D01*
X41077Y-47371D01*
X41106Y-47440D01*
X41077Y-47510D01*
X41077Y-47537D01*
X41139Y-47598D01*
X41677Y-47598D01*
X41677Y-47677D01*
X41139Y-47677D01*
X41077Y-47738D01*
X41077Y-47765D01*
X41115Y-47855D01*
X41184Y-47924D01*
X41274Y-47961D01*
X41371Y-47961D01*
X41616Y-47961D01*
X41677Y-47900D01*
X41677Y-53276D01*
X39520Y-51118D01*
X39520Y-39432D01*
X43369Y-35583D01*
X55055Y-35583D01*
X58905Y-39432D01*
X58905Y-51118D01*
X58905Y-51118D01*
G37*
G54D19*
X58905Y-51118D02*
X57365Y-52658D01*
X57365Y-46219D01*
X57327Y-46129D01*
X57266Y-46068D01*
X57327Y-46007D01*
X57365Y-45917D01*
X57365Y-45819D01*
X57365Y-43469D01*
X57327Y-43379D01*
X57266Y-43318D01*
X57327Y-43257D01*
X57365Y-43167D01*
X57365Y-43069D01*
X57327Y-42979D01*
X57266Y-42918D01*
X57327Y-42857D01*
X57365Y-42767D01*
X57365Y-42669D01*
X57327Y-42579D01*
X57259Y-42510D01*
X57169Y-42473D01*
X57071Y-42473D01*
X57026Y-42491D01*
X56735Y-42491D01*
X56735Y-41780D01*
X56735Y-41723D01*
X56735Y-41211D01*
X56713Y-41158D01*
X56672Y-41117D01*
X56619Y-41095D01*
X56561Y-41095D01*
X55460Y-41095D01*
X55460Y-36784D01*
X55288Y-36369D01*
X54971Y-36051D01*
X54556Y-35878D01*
X54107Y-35878D01*
X53691Y-36049D01*
X53373Y-36367D01*
X53201Y-36782D01*
X53201Y-37231D01*
X53372Y-37646D01*
X53690Y-37964D01*
X54105Y-38136D01*
X54554Y-38137D01*
X54969Y-37965D01*
X55287Y-37648D01*
X55459Y-37233D01*
X55460Y-36784D01*
X55460Y-41095D01*
X55223Y-41095D01*
X55169Y-41117D01*
X55129Y-41158D01*
X55106Y-41211D01*
X55106Y-41268D01*
X55106Y-41780D01*
X55129Y-41834D01*
X55169Y-41874D01*
X55223Y-41896D01*
X55280Y-41896D01*
X55574Y-41896D01*
X55520Y-42026D01*
X55520Y-42185D01*
X55581Y-42333D01*
X55693Y-42445D01*
X55841Y-42507D01*
X56000Y-42507D01*
X56148Y-42446D01*
X56260Y-42333D01*
X56322Y-42186D01*
X56322Y-42026D01*
X56268Y-41896D01*
X56619Y-41896D01*
X56672Y-41874D01*
X56713Y-41834D01*
X56735Y-41780D01*
X56735Y-42491D01*
X56692Y-42491D01*
X56363Y-42491D01*
X56319Y-42473D01*
X56221Y-42473D01*
X56131Y-42510D01*
X56062Y-42579D01*
X56025Y-42669D01*
X56025Y-42766D01*
X56062Y-42856D01*
X56123Y-42918D01*
X56062Y-42979D01*
X56025Y-43069D01*
X56025Y-43166D01*
X56062Y-43256D01*
X56123Y-43318D01*
X56062Y-43379D01*
X56025Y-43469D01*
X56025Y-43566D01*
X56062Y-43656D01*
X56080Y-43675D01*
X56075Y-43680D01*
X56038Y-43770D01*
X56038Y-43797D01*
X56099Y-43858D01*
X56637Y-43858D01*
X56637Y-43834D01*
X56747Y-43834D01*
X56747Y-43858D01*
X57286Y-43858D01*
X57347Y-43797D01*
X57347Y-43770D01*
X57310Y-43680D01*
X57307Y-43677D01*
X57327Y-43657D01*
X57365Y-43567D01*
X57365Y-43469D01*
X57365Y-45819D01*
X57327Y-45729D01*
X57259Y-45660D01*
X57215Y-45642D01*
X57225Y-45633D01*
X57247Y-45580D01*
X57247Y-45522D01*
X57247Y-45364D01*
X57225Y-45311D01*
X57189Y-45275D01*
X57225Y-45239D01*
X57247Y-45186D01*
X57247Y-45128D01*
X57247Y-44971D01*
X57245Y-44966D01*
X57310Y-44902D01*
X57347Y-44812D01*
X57347Y-44785D01*
X57347Y-44584D01*
X57347Y-44557D01*
X57318Y-44488D01*
X57347Y-44418D01*
X57347Y-44391D01*
X57347Y-44190D01*
X57347Y-44163D01*
X57318Y-44094D01*
X57347Y-44025D01*
X57347Y-43998D01*
X57286Y-43937D01*
X56747Y-43937D01*
X56747Y-44028D01*
X56747Y-44160D01*
X56747Y-44251D01*
X57286Y-44251D01*
X57347Y-44190D01*
X57347Y-44391D01*
X57286Y-44330D01*
X56747Y-44330D01*
X56747Y-44422D01*
X56747Y-44553D01*
X56747Y-44645D01*
X57286Y-44645D01*
X57347Y-44584D01*
X57347Y-44785D01*
X57286Y-44724D01*
X56747Y-44724D01*
X56747Y-44747D01*
X56637Y-44747D01*
X56637Y-44724D01*
X56637Y-44645D01*
X56637Y-44553D01*
X56637Y-44422D01*
X56637Y-44330D01*
X56637Y-44251D01*
X56637Y-44160D01*
X56637Y-44028D01*
X56637Y-43937D01*
X56099Y-43937D01*
X56038Y-43998D01*
X56038Y-44025D01*
X56067Y-44094D01*
X56038Y-44163D01*
X56038Y-44190D01*
X56099Y-44251D01*
X56637Y-44251D01*
X56637Y-44330D01*
X56099Y-44330D01*
X56038Y-44391D01*
X56038Y-44418D01*
X56067Y-44488D01*
X56038Y-44557D01*
X56038Y-44584D01*
X56099Y-44645D01*
X56637Y-44645D01*
X56637Y-44724D01*
X56099Y-44724D01*
X56038Y-44785D01*
X56038Y-44812D01*
X56075Y-44902D01*
X56082Y-44909D01*
X56062Y-44929D01*
X56025Y-45019D01*
X56025Y-45116D01*
X56062Y-45206D01*
X56123Y-45268D01*
X56062Y-45329D01*
X56025Y-45419D01*
X56025Y-45516D01*
X56062Y-45606D01*
X56131Y-45675D01*
X56172Y-45693D01*
X56160Y-45705D01*
X56138Y-45758D01*
X56138Y-45816D01*
X56138Y-45973D01*
X56160Y-46027D01*
X56196Y-46062D01*
X56160Y-46098D01*
X56138Y-46152D01*
X56138Y-46209D01*
X56138Y-46367D01*
X56140Y-46371D01*
X56075Y-46436D01*
X56038Y-46526D01*
X56038Y-46552D01*
X56099Y-46614D01*
X56637Y-46614D01*
X56637Y-46590D01*
X56747Y-46590D01*
X56747Y-46614D01*
X57286Y-46614D01*
X57347Y-46552D01*
X57347Y-46526D01*
X57310Y-46436D01*
X57304Y-46430D01*
X57327Y-46407D01*
X57365Y-46317D01*
X57365Y-46219D01*
X57365Y-52658D01*
X57347Y-52676D01*
X57347Y-47568D01*
X57347Y-47541D01*
X57347Y-47340D01*
X57347Y-47313D01*
X57318Y-47244D01*
X57347Y-47174D01*
X57347Y-47147D01*
X57347Y-46946D01*
X57347Y-46919D01*
X57318Y-46850D01*
X57347Y-46781D01*
X57347Y-46754D01*
X57286Y-46692D01*
X56747Y-46692D01*
X56747Y-46784D01*
X56747Y-46916D01*
X56747Y-47007D01*
X57286Y-47007D01*
X57347Y-46946D01*
X57347Y-47147D01*
X57286Y-47086D01*
X56747Y-47086D01*
X56747Y-47178D01*
X56747Y-47309D01*
X56747Y-47401D01*
X57286Y-47401D01*
X57347Y-47340D01*
X57347Y-47541D01*
X57286Y-47480D01*
X56747Y-47480D01*
X56747Y-47703D01*
X56809Y-47764D01*
X57053Y-47764D01*
X57151Y-47764D01*
X57241Y-47727D01*
X57310Y-47658D01*
X57347Y-47568D01*
X57347Y-52676D01*
X56735Y-53288D01*
X56735Y-48946D01*
X56735Y-48888D01*
X56735Y-48376D01*
X56713Y-48323D01*
X56672Y-48282D01*
X56619Y-48260D01*
X56561Y-48260D01*
X56268Y-48260D01*
X56322Y-48131D01*
X56322Y-47971D01*
X56261Y-47824D01*
X56178Y-47741D01*
X56234Y-47764D01*
X56332Y-47764D01*
X56576Y-47764D01*
X56637Y-47703D01*
X56637Y-47480D01*
X56637Y-47401D01*
X56637Y-47309D01*
X56637Y-47178D01*
X56637Y-47086D01*
X56637Y-47007D01*
X56637Y-46916D01*
X56637Y-46784D01*
X56637Y-46692D01*
X56099Y-46692D01*
X56038Y-46754D01*
X56038Y-46781D01*
X56067Y-46850D01*
X56038Y-46919D01*
X56038Y-46946D01*
X56099Y-47007D01*
X56637Y-47007D01*
X56637Y-47086D01*
X56099Y-47086D01*
X56038Y-47147D01*
X56038Y-47174D01*
X56067Y-47244D01*
X56038Y-47313D01*
X56038Y-47340D01*
X56099Y-47401D01*
X56637Y-47401D01*
X56637Y-47480D01*
X56099Y-47480D01*
X56038Y-47541D01*
X56038Y-47568D01*
X56075Y-47658D01*
X56114Y-47697D01*
X56001Y-47650D01*
X55841Y-47650D01*
X55815Y-47661D01*
X55815Y-47219D01*
X55777Y-47129D01*
X55716Y-47068D01*
X55777Y-47007D01*
X55815Y-46917D01*
X55815Y-46819D01*
X55777Y-46729D01*
X55716Y-46668D01*
X55777Y-46607D01*
X55815Y-46517D01*
X55815Y-46419D01*
X55777Y-46329D01*
X55716Y-46268D01*
X55777Y-46207D01*
X55815Y-46117D01*
X55815Y-46019D01*
X55777Y-45929D01*
X55716Y-45868D01*
X55777Y-45807D01*
X55815Y-45717D01*
X55815Y-45619D01*
X55777Y-45529D01*
X55716Y-45468D01*
X55777Y-45407D01*
X55815Y-45317D01*
X55815Y-45219D01*
X55777Y-45129D01*
X55741Y-45093D01*
X55777Y-45057D01*
X55815Y-44967D01*
X55815Y-44869D01*
X55777Y-44779D01*
X55716Y-44718D01*
X55777Y-44657D01*
X55815Y-44567D01*
X55815Y-44469D01*
X55777Y-44379D01*
X55716Y-44318D01*
X55777Y-44257D01*
X55815Y-44167D01*
X55815Y-44069D01*
X55777Y-43979D01*
X55716Y-43918D01*
X55777Y-43857D01*
X55815Y-43767D01*
X55815Y-43669D01*
X55777Y-43579D01*
X55716Y-43518D01*
X55777Y-43457D01*
X55815Y-43367D01*
X55815Y-43269D01*
X55777Y-43179D01*
X55716Y-43118D01*
X55777Y-43057D01*
X55815Y-42967D01*
X55815Y-42869D01*
X55777Y-42779D01*
X55709Y-42710D01*
X55619Y-42673D01*
X55521Y-42673D01*
X55484Y-42688D01*
X55149Y-42688D01*
X55143Y-42689D01*
X54711Y-42689D01*
X54658Y-42711D01*
X54617Y-42752D01*
X54595Y-42805D01*
X54595Y-42863D01*
X54595Y-43020D01*
X54617Y-43074D01*
X54653Y-43110D01*
X54617Y-43146D01*
X54595Y-43199D01*
X54595Y-43257D01*
X54595Y-43414D01*
X54617Y-43467D01*
X54653Y-43503D01*
X54617Y-43539D01*
X54595Y-43593D01*
X54595Y-43650D01*
X54595Y-43808D01*
X54617Y-43861D01*
X54653Y-43897D01*
X54617Y-43933D01*
X54595Y-43986D01*
X54595Y-44044D01*
X54595Y-44202D01*
X54617Y-44255D01*
X54653Y-44291D01*
X54617Y-44327D01*
X54595Y-44380D01*
X54595Y-44438D01*
X54595Y-44595D01*
X54617Y-44649D01*
X54653Y-44685D01*
X54617Y-44721D01*
X54595Y-44774D01*
X54595Y-44831D01*
X54595Y-44989D01*
X54617Y-45042D01*
X54653Y-45078D01*
X54617Y-45114D01*
X54595Y-45168D01*
X54595Y-45225D01*
X54595Y-45383D01*
X54617Y-45436D01*
X54653Y-45472D01*
X54617Y-45508D01*
X54595Y-45561D01*
X54595Y-45619D01*
X54595Y-45776D01*
X54617Y-45830D01*
X54653Y-45866D01*
X54617Y-45902D01*
X54595Y-45955D01*
X54595Y-46013D01*
X54595Y-46170D01*
X54617Y-46223D01*
X54653Y-46259D01*
X54617Y-46295D01*
X54595Y-46349D01*
X54595Y-46406D01*
X54595Y-46564D01*
X54617Y-46617D01*
X54637Y-46637D01*
X54581Y-46660D01*
X54512Y-46729D01*
X54475Y-46819D01*
X54475Y-46916D01*
X54512Y-47006D01*
X54573Y-47068D01*
X54512Y-47129D01*
X54475Y-47219D01*
X54475Y-47316D01*
X54512Y-47406D01*
X54581Y-47475D01*
X54671Y-47513D01*
X54768Y-47513D01*
X54858Y-47475D01*
X54865Y-47469D01*
X55149Y-47469D01*
X55424Y-47469D01*
X55431Y-47475D01*
X55521Y-47513D01*
X55618Y-47513D01*
X55708Y-47475D01*
X55777Y-47407D01*
X55815Y-47317D01*
X55815Y-47219D01*
X55815Y-47661D01*
X55694Y-47711D01*
X55581Y-47823D01*
X55520Y-47971D01*
X55520Y-48130D01*
X55573Y-48260D01*
X55223Y-48260D01*
X55169Y-48282D01*
X55129Y-48323D01*
X55106Y-48376D01*
X55106Y-48434D01*
X55106Y-48946D01*
X55129Y-48999D01*
X55169Y-49040D01*
X55223Y-49062D01*
X55280Y-49062D01*
X56619Y-49062D01*
X56672Y-49040D01*
X56713Y-48999D01*
X56735Y-48946D01*
X56735Y-53288D01*
X55460Y-54563D01*
X55460Y-53319D01*
X55288Y-52904D01*
X54971Y-52586D01*
X54815Y-52521D01*
X54815Y-50919D01*
X54777Y-50829D01*
X54766Y-50818D01*
X54777Y-50807D01*
X54815Y-50717D01*
X54815Y-50619D01*
X54777Y-50529D01*
X54709Y-50460D01*
X54619Y-50423D01*
X54521Y-50423D01*
X54473Y-50443D01*
X53865Y-50443D01*
X53865Y-47019D01*
X53827Y-46929D01*
X53815Y-46916D01*
X53815Y-45619D01*
X53827Y-45607D01*
X53865Y-45517D01*
X53865Y-45419D01*
X53827Y-45329D01*
X53759Y-45260D01*
X53669Y-45223D01*
X53571Y-45223D01*
X53481Y-45260D01*
X53412Y-45329D01*
X53375Y-45419D01*
X53375Y-45473D01*
X53321Y-45473D01*
X53231Y-45510D01*
X53162Y-45579D01*
X53125Y-45669D01*
X53125Y-45723D01*
X53071Y-45723D01*
X52981Y-45760D01*
X52912Y-45829D01*
X52875Y-45919D01*
X52875Y-45973D01*
X52821Y-45973D01*
X52731Y-46010D01*
X52662Y-46079D01*
X52625Y-46169D01*
X52625Y-46223D01*
X52571Y-46223D01*
X52481Y-46260D01*
X52412Y-46329D01*
X52375Y-46419D01*
X52375Y-46516D01*
X52412Y-46606D01*
X52425Y-46619D01*
X52425Y-47468D01*
X52425Y-47716D01*
X52412Y-47729D01*
X52375Y-47819D01*
X52375Y-47916D01*
X52412Y-48006D01*
X52481Y-48075D01*
X52571Y-48113D01*
X52668Y-48113D01*
X52758Y-48075D01*
X52827Y-48007D01*
X52865Y-47917D01*
X52865Y-47913D01*
X52918Y-47913D01*
X53008Y-47875D01*
X53077Y-47807D01*
X53115Y-47717D01*
X53115Y-47713D01*
X53168Y-47713D01*
X53258Y-47675D01*
X53327Y-47607D01*
X53365Y-47517D01*
X53365Y-47513D01*
X53418Y-47513D01*
X53508Y-47475D01*
X53577Y-47407D01*
X53615Y-47317D01*
X53615Y-47313D01*
X53620Y-47313D01*
X53668Y-47313D01*
X53758Y-47275D01*
X53827Y-47207D01*
X53865Y-47117D01*
X53865Y-47019D01*
X53865Y-50443D01*
X53570Y-50443D01*
X53413Y-50443D01*
X53279Y-50309D01*
X53279Y-50309D01*
X53147Y-50177D01*
X53127Y-50129D01*
X53059Y-50060D01*
X52969Y-50023D01*
X52871Y-50023D01*
X52781Y-50060D01*
X52712Y-50129D01*
X52675Y-50219D01*
X52675Y-50316D01*
X52712Y-50406D01*
X52781Y-50475D01*
X52829Y-50495D01*
X52960Y-50627D01*
X52960Y-50627D01*
X53076Y-50743D01*
X51665Y-50743D01*
X51665Y-42769D01*
X51627Y-42679D01*
X51559Y-42610D01*
X51469Y-42573D01*
X51415Y-42573D01*
X51415Y-39069D01*
X51377Y-38979D01*
X51309Y-38910D01*
X51219Y-38873D01*
X51121Y-38873D01*
X51031Y-38910D01*
X50962Y-38979D01*
X50925Y-39069D01*
X50925Y-39087D01*
X50882Y-39130D01*
X50839Y-39193D01*
X50825Y-39268D01*
X50825Y-41087D01*
X50815Y-41097D01*
X50815Y-39268D01*
X50800Y-39193D01*
X50800Y-39193D01*
X50765Y-39140D01*
X50765Y-39119D01*
X50727Y-39029D01*
X50659Y-38960D01*
X50569Y-38923D01*
X50471Y-38923D01*
X50381Y-38960D01*
X50312Y-39029D01*
X50275Y-39119D01*
X50275Y-39216D01*
X50312Y-39306D01*
X50381Y-39375D01*
X50425Y-39393D01*
X50425Y-41187D01*
X50089Y-41523D01*
X49720Y-41523D01*
X49645Y-41537D01*
X49582Y-41580D01*
X49489Y-41673D01*
X49471Y-41673D01*
X49381Y-41710D01*
X49312Y-41779D01*
X49275Y-41869D01*
X49275Y-41966D01*
X49312Y-42056D01*
X49381Y-42125D01*
X49471Y-42163D01*
X49568Y-42163D01*
X49658Y-42125D01*
X49727Y-42057D01*
X49765Y-41967D01*
X49765Y-41948D01*
X49800Y-41913D01*
X50010Y-41913D01*
X49989Y-41943D01*
X49975Y-42018D01*
X49975Y-43568D01*
X49975Y-43918D01*
X49975Y-43918D01*
X49975Y-43919D01*
X49975Y-44016D01*
X50012Y-44106D01*
X50081Y-44175D01*
X50171Y-44213D01*
X50268Y-44213D01*
X50358Y-44175D01*
X50427Y-44107D01*
X50465Y-44017D01*
X50465Y-43919D01*
X50427Y-43829D01*
X50365Y-43766D01*
X50365Y-43568D01*
X50365Y-42098D01*
X51057Y-41405D01*
X51157Y-41305D01*
X51200Y-41242D01*
X51200Y-41242D01*
X51215Y-41168D01*
X51215Y-39363D01*
X51218Y-39363D01*
X51308Y-39325D01*
X51377Y-39257D01*
X51415Y-39167D01*
X51415Y-39069D01*
X51415Y-42573D01*
X51371Y-42573D01*
X51281Y-42610D01*
X51268Y-42623D01*
X51071Y-42623D01*
X51059Y-42610D01*
X50969Y-42573D01*
X50871Y-42573D01*
X50781Y-42610D01*
X50712Y-42679D01*
X50675Y-42769D01*
X50675Y-42866D01*
X50712Y-42956D01*
X50781Y-43025D01*
X50871Y-43063D01*
X50968Y-43063D01*
X51058Y-43025D01*
X51071Y-43013D01*
X51268Y-43013D01*
X51281Y-43025D01*
X51371Y-43063D01*
X51468Y-43063D01*
X51558Y-43025D01*
X51627Y-42957D01*
X51665Y-42867D01*
X51665Y-42769D01*
X51665Y-50743D01*
X50815Y-50743D01*
X50815Y-49169D01*
X50777Y-49079D01*
X50709Y-49010D01*
X50619Y-48973D01*
X50600Y-48973D01*
X50595Y-48967D01*
X50595Y-46850D01*
X50580Y-46775D01*
X50580Y-46775D01*
X50537Y-46712D01*
X50465Y-46639D01*
X50465Y-46618D01*
X50465Y-45663D01*
X50468Y-45663D01*
X50558Y-45625D01*
X50627Y-45557D01*
X50665Y-45467D01*
X50665Y-45369D01*
X50627Y-45279D01*
X50559Y-45210D01*
X50469Y-45173D01*
X50371Y-45173D01*
X50281Y-45210D01*
X50212Y-45279D01*
X50175Y-45369D01*
X50175Y-45387D01*
X50132Y-45430D01*
X50089Y-45493D01*
X50075Y-45568D01*
X50075Y-46618D01*
X50075Y-46720D01*
X50089Y-46794D01*
X50132Y-46857D01*
X50205Y-46930D01*
X50205Y-49036D01*
X50195Y-49037D01*
X50132Y-49080D01*
X50089Y-49123D01*
X50021Y-49123D01*
X49931Y-49160D01*
X49862Y-49229D01*
X49825Y-49319D01*
X49825Y-49416D01*
X49862Y-49506D01*
X49931Y-49575D01*
X50021Y-49613D01*
X50118Y-49613D01*
X50208Y-49575D01*
X50277Y-49507D01*
X50292Y-49471D01*
X50350Y-49413D01*
X50418Y-49413D01*
X50431Y-49425D01*
X50521Y-49463D01*
X50618Y-49463D01*
X50708Y-49425D01*
X50777Y-49357D01*
X50815Y-49267D01*
X50815Y-49169D01*
X50815Y-50743D01*
X50770Y-50743D01*
X50667Y-50743D01*
X50619Y-50723D01*
X50521Y-50723D01*
X50431Y-50760D01*
X50362Y-50829D01*
X50325Y-50919D01*
X50325Y-51016D01*
X50362Y-51106D01*
X50431Y-51175D01*
X50521Y-51213D01*
X50618Y-51213D01*
X50667Y-51193D01*
X50770Y-51193D01*
X54473Y-51193D01*
X54521Y-51213D01*
X54618Y-51213D01*
X54708Y-51175D01*
X54777Y-51107D01*
X54815Y-51017D01*
X54815Y-50919D01*
X54815Y-52521D01*
X54556Y-52414D01*
X54107Y-52413D01*
X53691Y-52585D01*
X53373Y-52902D01*
X53201Y-53317D01*
X53201Y-53766D01*
X53372Y-54182D01*
X53690Y-54500D01*
X54105Y-54672D01*
X54554Y-54672D01*
X54969Y-54501D01*
X55287Y-54183D01*
X55459Y-53768D01*
X55460Y-53319D01*
X55460Y-54563D01*
X55055Y-54968D01*
X46715Y-54968D01*
X46715Y-45519D01*
X46677Y-45429D01*
X46665Y-45416D01*
X46665Y-45368D01*
X46650Y-45293D01*
X46650Y-45293D01*
X46607Y-45230D01*
X46407Y-45030D01*
X46344Y-44987D01*
X46270Y-44973D01*
X45223Y-44973D01*
X45223Y-36784D01*
X45052Y-36369D01*
X44734Y-36051D01*
X44320Y-35878D01*
X43870Y-35878D01*
X43455Y-36049D01*
X43137Y-36367D01*
X42965Y-36782D01*
X42965Y-37231D01*
X43136Y-37646D01*
X43453Y-37964D01*
X43868Y-38136D01*
X44318Y-38137D01*
X44733Y-37965D01*
X45051Y-37648D01*
X45223Y-37233D01*
X45223Y-36784D01*
X45223Y-44973D01*
X44970Y-44973D01*
X44895Y-44987D01*
X44832Y-45030D01*
X44432Y-45430D01*
X44389Y-45493D01*
X44375Y-45568D01*
X44375Y-46487D01*
X43883Y-46979D01*
X43869Y-46973D01*
X43830Y-46973D01*
X43830Y-46939D01*
X43807Y-46886D01*
X43771Y-46850D01*
X43807Y-46814D01*
X43830Y-46761D01*
X43830Y-46703D01*
X43830Y-46545D01*
X43807Y-46492D01*
X43771Y-46456D01*
X43807Y-46420D01*
X43830Y-46367D01*
X43830Y-46309D01*
X43830Y-46152D01*
X43807Y-46098D01*
X43771Y-46062D01*
X43807Y-46027D01*
X43830Y-45973D01*
X43830Y-45916D01*
X43830Y-45758D01*
X43807Y-45705D01*
X43771Y-45669D01*
X43807Y-45633D01*
X43830Y-45580D01*
X43830Y-45522D01*
X43830Y-45364D01*
X43807Y-45311D01*
X43771Y-45275D01*
X43807Y-45239D01*
X43830Y-45186D01*
X43830Y-45128D01*
X43830Y-44971D01*
X43807Y-44917D01*
X43771Y-44881D01*
X43807Y-44845D01*
X43830Y-44792D01*
X43830Y-44734D01*
X43830Y-44577D01*
X43807Y-44524D01*
X43771Y-44488D01*
X43807Y-44452D01*
X43830Y-44398D01*
X43830Y-44341D01*
X43830Y-44183D01*
X43828Y-44179D01*
X43892Y-44115D01*
X43930Y-44025D01*
X43930Y-43998D01*
X43930Y-43797D01*
X43930Y-43770D01*
X43901Y-43700D01*
X43930Y-43631D01*
X43930Y-43604D01*
X43930Y-43403D01*
X43930Y-43376D01*
X43901Y-43307D01*
X43930Y-43237D01*
X43930Y-43210D01*
X43930Y-43009D01*
X43930Y-42982D01*
X43892Y-42892D01*
X43823Y-42823D01*
X43733Y-42786D01*
X43636Y-42786D01*
X43391Y-42786D01*
X43330Y-42847D01*
X43330Y-43070D01*
X43868Y-43070D01*
X43930Y-43009D01*
X43930Y-43210D01*
X43868Y-43149D01*
X43330Y-43149D01*
X43330Y-43241D01*
X43330Y-43372D01*
X43330Y-43464D01*
X43868Y-43464D01*
X43930Y-43403D01*
X43930Y-43604D01*
X43868Y-43543D01*
X43330Y-43543D01*
X43330Y-43635D01*
X43330Y-43766D01*
X43330Y-43858D01*
X43868Y-43858D01*
X43930Y-43797D01*
X43930Y-43998D01*
X43868Y-43937D01*
X43330Y-43937D01*
X43330Y-43960D01*
X43220Y-43960D01*
X43220Y-43937D01*
X43220Y-43858D01*
X43220Y-43766D01*
X43220Y-43635D01*
X43220Y-43543D01*
X43220Y-43464D01*
X43220Y-43372D01*
X43220Y-43241D01*
X43220Y-43149D01*
X43220Y-43070D01*
X43220Y-42847D01*
X43159Y-42786D01*
X42914Y-42786D01*
X42817Y-42786D01*
X42727Y-42823D01*
X42658Y-42892D01*
X42621Y-42982D01*
X42621Y-43009D01*
X42682Y-43070D01*
X43220Y-43070D01*
X43220Y-43149D01*
X42682Y-43149D01*
X42621Y-43210D01*
X42621Y-43237D01*
X42649Y-43307D01*
X42621Y-43376D01*
X42621Y-43403D01*
X42682Y-43464D01*
X43220Y-43464D01*
X43220Y-43543D01*
X42682Y-43543D01*
X42621Y-43604D01*
X42621Y-43631D01*
X42649Y-43700D01*
X42621Y-43770D01*
X42621Y-43797D01*
X42682Y-43858D01*
X43220Y-43858D01*
X43220Y-43937D01*
X42682Y-43937D01*
X42621Y-43998D01*
X42621Y-44025D01*
X42641Y-44073D01*
X42621Y-44073D01*
X42565Y-44096D01*
X42565Y-44069D01*
X42527Y-43979D01*
X42466Y-43918D01*
X42527Y-43857D01*
X42565Y-43767D01*
X42565Y-43669D01*
X42527Y-43579D01*
X42466Y-43518D01*
X42527Y-43457D01*
X42565Y-43367D01*
X42565Y-43269D01*
X42527Y-43179D01*
X42466Y-43118D01*
X42527Y-43057D01*
X42565Y-42967D01*
X42565Y-42869D01*
X42527Y-42779D01*
X42459Y-42710D01*
X42443Y-42704D01*
X42583Y-42704D01*
X42730Y-42643D01*
X42843Y-42530D01*
X42904Y-42383D01*
X42904Y-42223D01*
X42851Y-42093D01*
X43202Y-42093D01*
X43255Y-42071D01*
X43296Y-42030D01*
X43318Y-41977D01*
X43318Y-41919D01*
X43318Y-41408D01*
X43296Y-41354D01*
X43255Y-41314D01*
X43202Y-41292D01*
X43144Y-41292D01*
X41805Y-41292D01*
X41752Y-41314D01*
X41711Y-41354D01*
X41689Y-41408D01*
X41689Y-41465D01*
X41689Y-41977D01*
X41711Y-42030D01*
X41752Y-42071D01*
X41805Y-42093D01*
X41863Y-42093D01*
X42156Y-42093D01*
X42103Y-42223D01*
X42102Y-42382D01*
X42163Y-42529D01*
X42276Y-42642D01*
X42349Y-42673D01*
X42271Y-42673D01*
X42234Y-42688D01*
X41732Y-42688D01*
X41305Y-42688D01*
X41269Y-42673D01*
X41171Y-42673D01*
X41081Y-42710D01*
X41012Y-42779D01*
X40975Y-42869D01*
X40975Y-42966D01*
X41012Y-43056D01*
X41073Y-43118D01*
X41012Y-43179D01*
X40975Y-43269D01*
X40975Y-43366D01*
X41012Y-43456D01*
X41073Y-43518D01*
X41012Y-43579D01*
X40975Y-43669D01*
X40975Y-43766D01*
X41012Y-43856D01*
X41081Y-43925D01*
X41171Y-43963D01*
X41187Y-43963D01*
X41177Y-43986D01*
X41177Y-44044D01*
X41177Y-44202D01*
X41199Y-44255D01*
X41235Y-44291D01*
X41199Y-44327D01*
X41177Y-44380D01*
X41177Y-44438D01*
X41177Y-44595D01*
X41199Y-44649D01*
X41235Y-44685D01*
X41199Y-44721D01*
X41177Y-44774D01*
X41177Y-44831D01*
X41177Y-44989D01*
X41199Y-45042D01*
X41235Y-45078D01*
X41199Y-45114D01*
X41177Y-45168D01*
X41177Y-45225D01*
X41177Y-45383D01*
X41199Y-45436D01*
X41235Y-45472D01*
X41199Y-45508D01*
X41177Y-45561D01*
X41177Y-45619D01*
X41177Y-45776D01*
X41199Y-45830D01*
X41235Y-45866D01*
X41199Y-45902D01*
X41177Y-45955D01*
X41177Y-46013D01*
X41177Y-46170D01*
X41199Y-46223D01*
X41235Y-46259D01*
X41199Y-46295D01*
X41177Y-46349D01*
X41177Y-46406D01*
X41177Y-46564D01*
X41199Y-46617D01*
X41235Y-46653D01*
X41199Y-46689D01*
X41177Y-46742D01*
X41177Y-46800D01*
X41177Y-46957D01*
X41179Y-46962D01*
X41115Y-47026D01*
X41077Y-47116D01*
X41077Y-47143D01*
X41139Y-47204D01*
X41677Y-47204D01*
X41677Y-47181D01*
X41787Y-47181D01*
X41787Y-47204D01*
X42325Y-47204D01*
X42386Y-47143D01*
X42386Y-47116D01*
X42382Y-47107D01*
X42425Y-47089D01*
X42425Y-47116D01*
X42462Y-47206D01*
X42523Y-47268D01*
X42462Y-47329D01*
X42425Y-47419D01*
X42425Y-47516D01*
X42462Y-47606D01*
X42531Y-47675D01*
X42621Y-47713D01*
X42718Y-47713D01*
X42808Y-47675D01*
X42818Y-47665D01*
X43275Y-47665D01*
X43281Y-47664D01*
X43713Y-47664D01*
X43767Y-47642D01*
X43807Y-47601D01*
X43830Y-47548D01*
X43830Y-47490D01*
X43830Y-47463D01*
X43868Y-47463D01*
X43958Y-47425D01*
X43984Y-47400D01*
X43994Y-47398D01*
X43994Y-47398D01*
X44057Y-47355D01*
X44707Y-46705D01*
X44750Y-46642D01*
X44765Y-46568D01*
X44765Y-45648D01*
X45050Y-45363D01*
X46189Y-45363D01*
X46260Y-45434D01*
X46225Y-45519D01*
X46225Y-45616D01*
X46262Y-45706D01*
X46331Y-45775D01*
X46421Y-45813D01*
X46518Y-45813D01*
X46608Y-45775D01*
X46677Y-45707D01*
X46715Y-45617D01*
X46715Y-45519D01*
X46715Y-54968D01*
X45223Y-54968D01*
X45223Y-53319D01*
X45052Y-52904D01*
X44734Y-52586D01*
X44320Y-52414D01*
X43870Y-52413D01*
X43455Y-52585D01*
X43318Y-52722D01*
X43318Y-49143D01*
X43318Y-49085D01*
X43318Y-48573D01*
X43296Y-48520D01*
X43255Y-48479D01*
X43202Y-48457D01*
X43144Y-48457D01*
X42851Y-48457D01*
X42904Y-48328D01*
X42904Y-48168D01*
X42844Y-48021D01*
X42731Y-47908D01*
X42584Y-47847D01*
X42424Y-47847D01*
X42310Y-47894D01*
X42349Y-47855D01*
X42386Y-47765D01*
X42386Y-47738D01*
X42386Y-47537D01*
X42386Y-47510D01*
X42357Y-47440D01*
X42386Y-47371D01*
X42386Y-47344D01*
X42325Y-47283D01*
X41787Y-47283D01*
X41787Y-47375D01*
X41787Y-47506D01*
X41787Y-47598D01*
X42325Y-47598D01*
X42386Y-47537D01*
X42386Y-47738D01*
X42325Y-47677D01*
X41787Y-47677D01*
X41787Y-47900D01*
X41848Y-47961D01*
X42092Y-47961D01*
X42190Y-47961D01*
X42246Y-47938D01*
X42164Y-48020D01*
X42103Y-48167D01*
X42102Y-48327D01*
X42156Y-48457D01*
X41805Y-48457D01*
X41752Y-48479D01*
X41711Y-48520D01*
X41689Y-48573D01*
X41689Y-48631D01*
X41689Y-49143D01*
X41711Y-49196D01*
X41752Y-49237D01*
X41805Y-49259D01*
X41863Y-49259D01*
X43202Y-49259D01*
X43255Y-49237D01*
X43296Y-49196D01*
X43318Y-49143D01*
X43318Y-52722D01*
X43137Y-52902D01*
X42965Y-53317D01*
X42965Y-53766D01*
X43136Y-54182D01*
X43453Y-54500D01*
X43868Y-54672D01*
X44318Y-54672D01*
X44733Y-54501D01*
X45051Y-54183D01*
X45223Y-53768D01*
X45223Y-53319D01*
X45223Y-54968D01*
X43369Y-54968D01*
X41677Y-53276D01*
X41677Y-47900D01*
X41677Y-47677D01*
X41677Y-47598D01*
X41677Y-47506D01*
X41677Y-47375D01*
X41677Y-47283D01*
X41139Y-47283D01*
X41077Y-47344D01*
X41077Y-47371D01*
X41106Y-47440D01*
X41077Y-47510D01*
X41077Y-47537D01*
X41139Y-47598D01*
X41677Y-47598D01*
X41677Y-47677D01*
X41139Y-47677D01*
X41077Y-47738D01*
X41077Y-47765D01*
X41115Y-47855D01*
X41184Y-47924D01*
X41274Y-47961D01*
X41371Y-47961D01*
X41616Y-47961D01*
X41677Y-47900D01*
X41677Y-53276D01*
X39520Y-51118D01*
X39520Y-39432D01*
X43369Y-35583D01*
X55055Y-35583D01*
X58905Y-39432D01*
X58905Y-51118D01*
M02*
