G04 (created by PCBNEW (2013-09-06 BZR 4312)-stable) date L 14 sept  2013 17:28:59 EEST*
%MOIN*%
G04 Gerber Fmt 3.4, Leading zero omitted, Abs format*
%FSLAX34Y34*%
G01*
G70*
G90*
G04 APERTURE LIST*
%ADD10C,0.000787*%
%ADD11C,0.005000*%
%ADD12C,0.007874*%
%ADD13C,0.004500*%
%ADD14C,0.001000*%
%ADD15C,0.005906*%
%ADD16C,0.001969*%
%ADD17C,0.011811*%
%ADD18C,0.002800*%
%ADD19C,0.004700*%
%ADD20C,0.003100*%
%ADD21C,0.002600*%
%ADD22C,0.004000*%
%ADD23C,0.003900*%
%ADD24C,0.000100*%
G04 APERTURE END LIST*
G54D10*
G54D11*
X57400Y-46135D02*
X57571Y-46135D01*
X57485Y-46435D02*
X57485Y-46135D01*
X57642Y-46135D02*
X57842Y-46435D01*
X57842Y-46135D02*
X57642Y-46435D01*
X57942Y-46350D02*
X58085Y-46350D01*
X57914Y-46435D02*
X58014Y-46135D01*
X58114Y-46435D01*
X58371Y-46435D02*
X58200Y-46435D01*
X58285Y-46435D02*
X58285Y-46135D01*
X58257Y-46178D01*
X58228Y-46207D01*
X58200Y-46221D01*
X57578Y-46035D02*
X57478Y-45892D01*
X57407Y-46035D02*
X57407Y-45735D01*
X57521Y-45735D01*
X57550Y-45750D01*
X57564Y-45764D01*
X57578Y-45792D01*
X57578Y-45835D01*
X57564Y-45864D01*
X57550Y-45878D01*
X57521Y-45892D01*
X57407Y-45892D01*
X57678Y-45735D02*
X57878Y-46035D01*
X57878Y-45735D02*
X57678Y-46035D01*
X57978Y-45950D02*
X58121Y-45950D01*
X57950Y-46035D02*
X58050Y-45735D01*
X58150Y-46035D01*
X58407Y-46035D02*
X58235Y-46035D01*
X58321Y-46035D02*
X58321Y-45735D01*
X58292Y-45778D01*
X58264Y-45807D01*
X58235Y-45821D01*
X57542Y-45435D02*
X57542Y-45635D01*
X57471Y-45321D02*
X57400Y-45535D01*
X57585Y-45535D01*
X57700Y-45607D02*
X57714Y-45621D01*
X57700Y-45635D01*
X57685Y-45621D01*
X57700Y-45607D01*
X57700Y-45635D01*
X57814Y-45335D02*
X58014Y-45335D01*
X57885Y-45635D01*
X57542Y-45035D02*
X57542Y-45235D01*
X57471Y-44921D02*
X57400Y-45135D01*
X57585Y-45135D01*
X57700Y-45207D02*
X57714Y-45221D01*
X57700Y-45235D01*
X57685Y-45221D01*
X57700Y-45207D01*
X57700Y-45235D01*
X57971Y-44935D02*
X57914Y-44935D01*
X57885Y-44950D01*
X57871Y-44964D01*
X57842Y-45007D01*
X57828Y-45064D01*
X57828Y-45178D01*
X57842Y-45207D01*
X57857Y-45221D01*
X57885Y-45235D01*
X57942Y-45235D01*
X57971Y-45221D01*
X57985Y-45207D01*
X58000Y-45178D01*
X58000Y-45107D01*
X57985Y-45078D01*
X57971Y-45064D01*
X57942Y-45050D01*
X57885Y-45050D01*
X57857Y-45064D01*
X57842Y-45078D01*
X57828Y-45107D01*
X53375Y-46607D02*
X53360Y-46621D01*
X53317Y-46635D01*
X53289Y-46635D01*
X53246Y-46621D01*
X53217Y-46592D01*
X53203Y-46564D01*
X53189Y-46507D01*
X53189Y-46464D01*
X53203Y-46407D01*
X53217Y-46378D01*
X53246Y-46350D01*
X53289Y-46335D01*
X53317Y-46335D01*
X53360Y-46350D01*
X53375Y-46364D01*
X53646Y-46635D02*
X53503Y-46635D01*
X53503Y-46335D01*
X53746Y-46635D02*
X53746Y-46335D01*
X53917Y-46635D02*
X53789Y-46464D01*
X53917Y-46335D02*
X53746Y-46507D01*
X54032Y-46550D02*
X54175Y-46550D01*
X54003Y-46635D02*
X54103Y-46335D01*
X54203Y-46635D01*
X54360Y-46335D02*
X54389Y-46335D01*
X54417Y-46350D01*
X54432Y-46364D01*
X54446Y-46392D01*
X54460Y-46450D01*
X54460Y-46521D01*
X54446Y-46578D01*
X54432Y-46607D01*
X54417Y-46621D01*
X54389Y-46635D01*
X54360Y-46635D01*
X54332Y-46621D01*
X54317Y-46607D01*
X54303Y-46578D01*
X54289Y-46521D01*
X54289Y-46450D01*
X54303Y-46392D01*
X54317Y-46364D01*
X54332Y-46350D01*
X54360Y-46335D01*
X53142Y-46221D02*
X53185Y-46235D01*
X53257Y-46235D01*
X53285Y-46221D01*
X53300Y-46207D01*
X53314Y-46178D01*
X53314Y-46150D01*
X53300Y-46121D01*
X53285Y-46107D01*
X53257Y-46092D01*
X53200Y-46078D01*
X53171Y-46064D01*
X53157Y-46050D01*
X53142Y-46021D01*
X53142Y-45992D01*
X53157Y-45964D01*
X53171Y-45950D01*
X53200Y-45935D01*
X53271Y-45935D01*
X53314Y-45950D01*
X53442Y-46235D02*
X53442Y-45935D01*
X53514Y-45935D01*
X53557Y-45950D01*
X53585Y-45978D01*
X53600Y-46007D01*
X53614Y-46064D01*
X53614Y-46107D01*
X53600Y-46164D01*
X53585Y-46192D01*
X53557Y-46221D01*
X53514Y-46235D01*
X53442Y-46235D01*
X53728Y-46150D02*
X53871Y-46150D01*
X53700Y-46235D02*
X53800Y-45935D01*
X53900Y-46235D01*
X54100Y-46078D02*
X54142Y-46092D01*
X54157Y-46107D01*
X54171Y-46135D01*
X54171Y-46178D01*
X54157Y-46207D01*
X54142Y-46221D01*
X54114Y-46235D01*
X54000Y-46235D01*
X54000Y-45935D01*
X54100Y-45935D01*
X54128Y-45950D01*
X54142Y-45964D01*
X54157Y-45992D01*
X54157Y-46021D01*
X54142Y-46050D01*
X54128Y-46064D01*
X54100Y-46078D01*
X54000Y-46078D01*
X54357Y-45935D02*
X54385Y-45935D01*
X54414Y-45950D01*
X54428Y-45964D01*
X54442Y-45992D01*
X54457Y-46050D01*
X54457Y-46121D01*
X54442Y-46178D01*
X54428Y-46207D01*
X54414Y-46221D01*
X54385Y-46235D01*
X54357Y-46235D01*
X54328Y-46221D01*
X54314Y-46207D01*
X54300Y-46178D01*
X54285Y-46121D01*
X54285Y-46050D01*
X54300Y-45992D01*
X54314Y-45964D01*
X54328Y-45950D01*
X54357Y-45935D01*
X53150Y-45821D02*
X53192Y-45835D01*
X53264Y-45835D01*
X53292Y-45821D01*
X53307Y-45807D01*
X53321Y-45778D01*
X53321Y-45750D01*
X53307Y-45721D01*
X53292Y-45707D01*
X53264Y-45692D01*
X53207Y-45678D01*
X53178Y-45664D01*
X53164Y-45650D01*
X53150Y-45621D01*
X53150Y-45592D01*
X53164Y-45564D01*
X53178Y-45550D01*
X53207Y-45535D01*
X53278Y-45535D01*
X53321Y-45550D01*
X53621Y-45807D02*
X53607Y-45821D01*
X53564Y-45835D01*
X53535Y-45835D01*
X53492Y-45821D01*
X53464Y-45792D01*
X53450Y-45764D01*
X53435Y-45707D01*
X53435Y-45664D01*
X53450Y-45607D01*
X53464Y-45578D01*
X53492Y-45550D01*
X53535Y-45535D01*
X53564Y-45535D01*
X53607Y-45550D01*
X53621Y-45564D01*
X53892Y-45835D02*
X53750Y-45835D01*
X53750Y-45535D01*
X54092Y-45678D02*
X54135Y-45692D01*
X54150Y-45707D01*
X54164Y-45735D01*
X54164Y-45778D01*
X54150Y-45807D01*
X54135Y-45821D01*
X54107Y-45835D01*
X53992Y-45835D01*
X53992Y-45535D01*
X54092Y-45535D01*
X54121Y-45550D01*
X54135Y-45564D01*
X54150Y-45592D01*
X54150Y-45621D01*
X54135Y-45650D01*
X54121Y-45664D01*
X54092Y-45678D01*
X53992Y-45678D01*
X54350Y-45535D02*
X54378Y-45535D01*
X54407Y-45550D01*
X54421Y-45564D01*
X54435Y-45592D01*
X54450Y-45650D01*
X54450Y-45721D01*
X54435Y-45778D01*
X54421Y-45807D01*
X54407Y-45821D01*
X54378Y-45835D01*
X54350Y-45835D01*
X54321Y-45821D01*
X54307Y-45807D01*
X54292Y-45778D01*
X54278Y-45721D01*
X54278Y-45650D01*
X54292Y-45592D01*
X54307Y-45564D01*
X54321Y-45550D01*
X54350Y-45535D01*
X53242Y-45421D02*
X53285Y-45435D01*
X53357Y-45435D01*
X53385Y-45421D01*
X53400Y-45407D01*
X53414Y-45378D01*
X53414Y-45350D01*
X53400Y-45321D01*
X53385Y-45307D01*
X53357Y-45292D01*
X53300Y-45278D01*
X53271Y-45264D01*
X53257Y-45250D01*
X53242Y-45221D01*
X53242Y-45192D01*
X53257Y-45164D01*
X53271Y-45150D01*
X53300Y-45135D01*
X53371Y-45135D01*
X53414Y-45150D01*
X53500Y-45135D02*
X53671Y-45135D01*
X53585Y-45435D02*
X53585Y-45135D01*
X53771Y-45278D02*
X53871Y-45278D01*
X53914Y-45435D02*
X53771Y-45435D01*
X53771Y-45135D01*
X53914Y-45135D01*
X54028Y-45350D02*
X54171Y-45350D01*
X54000Y-45435D02*
X54100Y-45135D01*
X54200Y-45435D01*
X54357Y-45135D02*
X54385Y-45135D01*
X54414Y-45150D01*
X54428Y-45164D01*
X54442Y-45192D01*
X54457Y-45250D01*
X54457Y-45321D01*
X54442Y-45378D01*
X54428Y-45407D01*
X54414Y-45421D01*
X54385Y-45435D01*
X54357Y-45435D01*
X54328Y-45421D01*
X54314Y-45407D01*
X54300Y-45378D01*
X54285Y-45321D01*
X54285Y-45250D01*
X54300Y-45192D01*
X54314Y-45164D01*
X54328Y-45150D01*
X54357Y-45135D01*
X52957Y-45035D02*
X52957Y-44735D01*
X53057Y-44950D01*
X53157Y-44735D01*
X53157Y-45035D01*
X53357Y-44735D02*
X53414Y-44735D01*
X53442Y-44750D01*
X53471Y-44778D01*
X53485Y-44835D01*
X53485Y-44935D01*
X53471Y-44992D01*
X53442Y-45021D01*
X53414Y-45035D01*
X53357Y-45035D01*
X53328Y-45021D01*
X53300Y-44992D01*
X53285Y-44935D01*
X53285Y-44835D01*
X53300Y-44778D01*
X53328Y-44750D01*
X53357Y-44735D01*
X53600Y-45021D02*
X53642Y-45035D01*
X53714Y-45035D01*
X53742Y-45021D01*
X53757Y-45007D01*
X53771Y-44978D01*
X53771Y-44950D01*
X53757Y-44921D01*
X53742Y-44907D01*
X53714Y-44892D01*
X53657Y-44878D01*
X53628Y-44864D01*
X53614Y-44850D01*
X53600Y-44821D01*
X53600Y-44792D01*
X53614Y-44764D01*
X53628Y-44750D01*
X53657Y-44735D01*
X53728Y-44735D01*
X53771Y-44750D01*
X53900Y-45035D02*
X53900Y-44735D01*
X54028Y-44950D02*
X54171Y-44950D01*
X54000Y-45035D02*
X54100Y-44735D01*
X54200Y-45035D01*
X54357Y-44735D02*
X54385Y-44735D01*
X54414Y-44750D01*
X54428Y-44764D01*
X54442Y-44792D01*
X54457Y-44850D01*
X54457Y-44921D01*
X54442Y-44978D01*
X54428Y-45007D01*
X54414Y-45021D01*
X54385Y-45035D01*
X54357Y-45035D01*
X54328Y-45021D01*
X54314Y-45007D01*
X54300Y-44978D01*
X54285Y-44921D01*
X54285Y-44850D01*
X54300Y-44792D01*
X54314Y-44764D01*
X54328Y-44750D01*
X54357Y-44735D01*
X52957Y-44635D02*
X52957Y-44335D01*
X53057Y-44550D01*
X53157Y-44335D01*
X53157Y-44635D01*
X53300Y-44635D02*
X53300Y-44335D01*
X53428Y-44621D02*
X53471Y-44635D01*
X53542Y-44635D01*
X53571Y-44621D01*
X53585Y-44607D01*
X53600Y-44578D01*
X53600Y-44550D01*
X53585Y-44521D01*
X53571Y-44507D01*
X53542Y-44492D01*
X53485Y-44478D01*
X53457Y-44464D01*
X53442Y-44450D01*
X53428Y-44421D01*
X53428Y-44392D01*
X53442Y-44364D01*
X53457Y-44350D01*
X53485Y-44335D01*
X53557Y-44335D01*
X53600Y-44350D01*
X53785Y-44335D02*
X53842Y-44335D01*
X53871Y-44350D01*
X53900Y-44378D01*
X53914Y-44435D01*
X53914Y-44535D01*
X53900Y-44592D01*
X53871Y-44621D01*
X53842Y-44635D01*
X53785Y-44635D01*
X53757Y-44621D01*
X53728Y-44592D01*
X53714Y-44535D01*
X53714Y-44435D01*
X53728Y-44378D01*
X53757Y-44350D01*
X53785Y-44335D01*
X54028Y-44550D02*
X54171Y-44550D01*
X54000Y-44635D02*
X54100Y-44335D01*
X54200Y-44635D01*
X54357Y-44335D02*
X54385Y-44335D01*
X54414Y-44350D01*
X54428Y-44364D01*
X54442Y-44392D01*
X54457Y-44450D01*
X54457Y-44521D01*
X54442Y-44578D01*
X54428Y-44607D01*
X54414Y-44621D01*
X54385Y-44635D01*
X54357Y-44635D01*
X54328Y-44621D01*
X54314Y-44607D01*
X54300Y-44578D01*
X54285Y-44521D01*
X54285Y-44450D01*
X54300Y-44392D01*
X54314Y-44364D01*
X54328Y-44350D01*
X54357Y-44335D01*
X53221Y-44221D02*
X53264Y-44235D01*
X53335Y-44235D01*
X53364Y-44221D01*
X53378Y-44207D01*
X53392Y-44178D01*
X53392Y-44150D01*
X53378Y-44121D01*
X53364Y-44107D01*
X53335Y-44092D01*
X53278Y-44078D01*
X53250Y-44064D01*
X53235Y-44050D01*
X53221Y-44021D01*
X53221Y-43992D01*
X53235Y-43964D01*
X53250Y-43950D01*
X53278Y-43935D01*
X53350Y-43935D01*
X53392Y-43950D01*
X53478Y-43935D02*
X53650Y-43935D01*
X53564Y-44235D02*
X53564Y-43935D01*
X53750Y-44078D02*
X53850Y-44078D01*
X53892Y-44235D02*
X53750Y-44235D01*
X53750Y-43935D01*
X53892Y-43935D01*
X54121Y-44078D02*
X54164Y-44092D01*
X54178Y-44107D01*
X54192Y-44135D01*
X54192Y-44178D01*
X54178Y-44207D01*
X54164Y-44221D01*
X54135Y-44235D01*
X54021Y-44235D01*
X54021Y-43935D01*
X54121Y-43935D01*
X54150Y-43950D01*
X54164Y-43964D01*
X54178Y-43992D01*
X54178Y-44021D01*
X54164Y-44050D01*
X54150Y-44064D01*
X54121Y-44078D01*
X54021Y-44078D01*
X54478Y-44235D02*
X54307Y-44235D01*
X54392Y-44235D02*
X54392Y-43935D01*
X54364Y-43978D01*
X54335Y-44007D01*
X54307Y-44021D01*
X52935Y-43835D02*
X52935Y-43535D01*
X53035Y-43750D01*
X53135Y-43535D01*
X53135Y-43835D01*
X53335Y-43535D02*
X53392Y-43535D01*
X53421Y-43550D01*
X53450Y-43578D01*
X53464Y-43635D01*
X53464Y-43735D01*
X53450Y-43792D01*
X53421Y-43821D01*
X53392Y-43835D01*
X53335Y-43835D01*
X53307Y-43821D01*
X53278Y-43792D01*
X53264Y-43735D01*
X53264Y-43635D01*
X53278Y-43578D01*
X53307Y-43550D01*
X53335Y-43535D01*
X53578Y-43821D02*
X53621Y-43835D01*
X53692Y-43835D01*
X53721Y-43821D01*
X53735Y-43807D01*
X53750Y-43778D01*
X53750Y-43750D01*
X53735Y-43721D01*
X53721Y-43707D01*
X53692Y-43692D01*
X53635Y-43678D01*
X53607Y-43664D01*
X53592Y-43650D01*
X53578Y-43621D01*
X53578Y-43592D01*
X53592Y-43564D01*
X53607Y-43550D01*
X53635Y-43535D01*
X53707Y-43535D01*
X53750Y-43550D01*
X53878Y-43835D02*
X53878Y-43535D01*
X54121Y-43678D02*
X54164Y-43692D01*
X54178Y-43707D01*
X54192Y-43735D01*
X54192Y-43778D01*
X54178Y-43807D01*
X54164Y-43821D01*
X54135Y-43835D01*
X54021Y-43835D01*
X54021Y-43535D01*
X54121Y-43535D01*
X54150Y-43550D01*
X54164Y-43564D01*
X54178Y-43592D01*
X54178Y-43621D01*
X54164Y-43650D01*
X54150Y-43664D01*
X54121Y-43678D01*
X54021Y-43678D01*
X54478Y-43835D02*
X54307Y-43835D01*
X54392Y-43835D02*
X54392Y-43535D01*
X54364Y-43578D01*
X54335Y-43607D01*
X54307Y-43621D01*
X52935Y-43435D02*
X52935Y-43135D01*
X53035Y-43350D01*
X53135Y-43135D01*
X53135Y-43435D01*
X53278Y-43435D02*
X53278Y-43135D01*
X53407Y-43421D02*
X53450Y-43435D01*
X53521Y-43435D01*
X53550Y-43421D01*
X53564Y-43407D01*
X53578Y-43378D01*
X53578Y-43350D01*
X53564Y-43321D01*
X53550Y-43307D01*
X53521Y-43292D01*
X53464Y-43278D01*
X53435Y-43264D01*
X53421Y-43250D01*
X53407Y-43221D01*
X53407Y-43192D01*
X53421Y-43164D01*
X53435Y-43150D01*
X53464Y-43135D01*
X53535Y-43135D01*
X53578Y-43150D01*
X53764Y-43135D02*
X53821Y-43135D01*
X53850Y-43150D01*
X53878Y-43178D01*
X53892Y-43235D01*
X53892Y-43335D01*
X53878Y-43392D01*
X53850Y-43421D01*
X53821Y-43435D01*
X53764Y-43435D01*
X53735Y-43421D01*
X53707Y-43392D01*
X53692Y-43335D01*
X53692Y-43235D01*
X53707Y-43178D01*
X53735Y-43150D01*
X53764Y-43135D01*
X54121Y-43278D02*
X54164Y-43292D01*
X54178Y-43307D01*
X54192Y-43335D01*
X54192Y-43378D01*
X54178Y-43407D01*
X54164Y-43421D01*
X54135Y-43435D01*
X54021Y-43435D01*
X54021Y-43135D01*
X54121Y-43135D01*
X54150Y-43150D01*
X54164Y-43164D01*
X54178Y-43192D01*
X54178Y-43221D01*
X54164Y-43250D01*
X54150Y-43264D01*
X54121Y-43278D01*
X54021Y-43278D01*
X54478Y-43435D02*
X54307Y-43435D01*
X54392Y-43435D02*
X54392Y-43135D01*
X54364Y-43178D01*
X54335Y-43207D01*
X54307Y-43221D01*
X53328Y-43007D02*
X53314Y-43021D01*
X53271Y-43035D01*
X53242Y-43035D01*
X53200Y-43021D01*
X53171Y-42992D01*
X53157Y-42964D01*
X53142Y-42907D01*
X53142Y-42864D01*
X53157Y-42807D01*
X53171Y-42778D01*
X53200Y-42750D01*
X53242Y-42735D01*
X53271Y-42735D01*
X53314Y-42750D01*
X53328Y-42764D01*
X53600Y-43035D02*
X53457Y-43035D01*
X53457Y-42735D01*
X53700Y-43035D02*
X53700Y-42735D01*
X53871Y-43035D02*
X53742Y-42864D01*
X53871Y-42735D02*
X53700Y-42907D01*
X54100Y-42878D02*
X54142Y-42892D01*
X54157Y-42907D01*
X54171Y-42935D01*
X54171Y-42978D01*
X54157Y-43007D01*
X54142Y-43021D01*
X54114Y-43035D01*
X54000Y-43035D01*
X54000Y-42735D01*
X54100Y-42735D01*
X54128Y-42750D01*
X54142Y-42764D01*
X54157Y-42792D01*
X54157Y-42821D01*
X54142Y-42850D01*
X54128Y-42864D01*
X54100Y-42878D01*
X54000Y-42878D01*
X54457Y-43035D02*
X54285Y-43035D01*
X54371Y-43035D02*
X54371Y-42735D01*
X54342Y-42778D01*
X54314Y-42807D01*
X54285Y-42821D01*
X53835Y-47692D02*
X53835Y-47507D01*
X53950Y-47607D01*
X53950Y-47564D01*
X53964Y-47535D01*
X53978Y-47521D01*
X54007Y-47507D01*
X54078Y-47507D01*
X54107Y-47521D01*
X54121Y-47535D01*
X54135Y-47564D01*
X54135Y-47650D01*
X54121Y-47678D01*
X54107Y-47692D01*
X54107Y-47378D02*
X54121Y-47364D01*
X54135Y-47378D01*
X54121Y-47392D01*
X54107Y-47378D01*
X54135Y-47378D01*
X53835Y-47264D02*
X53835Y-47078D01*
X53950Y-47178D01*
X53950Y-47135D01*
X53964Y-47107D01*
X53978Y-47092D01*
X54007Y-47078D01*
X54078Y-47078D01*
X54107Y-47092D01*
X54121Y-47107D01*
X54135Y-47135D01*
X54135Y-47221D01*
X54121Y-47250D01*
X54107Y-47264D01*
X53835Y-46992D02*
X54135Y-46892D01*
X53835Y-46792D01*
G54D12*
X54300Y-47400D02*
X54500Y-47400D01*
X54300Y-46700D02*
X54300Y-47400D01*
X54500Y-46700D02*
X54300Y-46700D01*
G54D11*
X57650Y-47328D02*
X57635Y-47357D01*
X57635Y-47400D01*
X57650Y-47442D01*
X57678Y-47471D01*
X57707Y-47485D01*
X57764Y-47500D01*
X57807Y-47500D01*
X57864Y-47485D01*
X57892Y-47471D01*
X57921Y-47442D01*
X57935Y-47400D01*
X57935Y-47371D01*
X57921Y-47328D01*
X57907Y-47314D01*
X57807Y-47314D01*
X57807Y-47371D01*
X57935Y-47185D02*
X57635Y-47185D01*
X57935Y-47014D01*
X57635Y-47014D01*
X57935Y-46871D02*
X57635Y-46871D01*
X57635Y-46800D01*
X57650Y-46757D01*
X57678Y-46728D01*
X57707Y-46714D01*
X57764Y-46700D01*
X57807Y-46700D01*
X57864Y-46714D01*
X57892Y-46728D01*
X57921Y-46757D01*
X57935Y-46800D01*
X57935Y-46871D01*
G54D12*
X57500Y-46600D02*
X57300Y-46600D01*
X57500Y-47600D02*
X57500Y-46600D01*
X57300Y-47600D02*
X57500Y-47600D01*
G54D11*
X57650Y-44528D02*
X57635Y-44557D01*
X57635Y-44600D01*
X57650Y-44642D01*
X57678Y-44671D01*
X57707Y-44685D01*
X57764Y-44700D01*
X57807Y-44700D01*
X57864Y-44685D01*
X57892Y-44671D01*
X57921Y-44642D01*
X57935Y-44600D01*
X57935Y-44571D01*
X57921Y-44528D01*
X57907Y-44514D01*
X57807Y-44514D01*
X57807Y-44571D01*
X57935Y-44385D02*
X57635Y-44385D01*
X57935Y-44214D01*
X57635Y-44214D01*
X57935Y-44071D02*
X57635Y-44071D01*
X57635Y-44000D01*
X57650Y-43957D01*
X57678Y-43928D01*
X57707Y-43914D01*
X57764Y-43900D01*
X57807Y-43900D01*
X57864Y-43914D01*
X57892Y-43928D01*
X57921Y-43957D01*
X57935Y-44000D01*
X57935Y-44071D01*
G54D12*
X57500Y-43800D02*
X57300Y-43800D01*
X57500Y-44800D02*
X57500Y-43800D01*
X57300Y-44800D02*
X57500Y-44800D01*
G54D11*
X57635Y-43542D02*
X57635Y-43357D01*
X57750Y-43457D01*
X57750Y-43414D01*
X57764Y-43385D01*
X57778Y-43371D01*
X57807Y-43357D01*
X57878Y-43357D01*
X57907Y-43371D01*
X57921Y-43385D01*
X57935Y-43414D01*
X57935Y-43500D01*
X57921Y-43528D01*
X57907Y-43542D01*
X57907Y-43228D02*
X57921Y-43214D01*
X57935Y-43228D01*
X57921Y-43242D01*
X57907Y-43228D01*
X57935Y-43228D01*
X57635Y-43114D02*
X57635Y-42928D01*
X57750Y-43028D01*
X57750Y-42985D01*
X57764Y-42957D01*
X57778Y-42942D01*
X57807Y-42928D01*
X57878Y-42928D01*
X57907Y-42942D01*
X57921Y-42957D01*
X57935Y-42985D01*
X57935Y-43071D01*
X57921Y-43100D01*
X57907Y-43114D01*
X57635Y-42842D02*
X57935Y-42742D01*
X57635Y-42642D01*
G54D12*
X57500Y-42600D02*
X57300Y-42600D01*
X57500Y-43600D02*
X57500Y-42600D01*
X57300Y-43600D02*
X57500Y-43600D01*
G54D11*
X43985Y-46750D02*
X44128Y-46750D01*
X43957Y-46835D02*
X44057Y-46535D01*
X44157Y-46835D01*
X44385Y-46535D02*
X44328Y-46535D01*
X44300Y-46550D01*
X44285Y-46564D01*
X44257Y-46607D01*
X44242Y-46664D01*
X44242Y-46778D01*
X44257Y-46807D01*
X44271Y-46821D01*
X44300Y-46835D01*
X44357Y-46835D01*
X44385Y-46821D01*
X44400Y-46807D01*
X44414Y-46778D01*
X44414Y-46707D01*
X44400Y-46678D01*
X44385Y-46664D01*
X44357Y-46650D01*
X44300Y-46650D01*
X44271Y-46664D01*
X44257Y-46678D01*
X44242Y-46707D01*
X43985Y-46350D02*
X44128Y-46350D01*
X43957Y-46435D02*
X44057Y-46135D01*
X44157Y-46435D01*
X44400Y-46135D02*
X44257Y-46135D01*
X44242Y-46278D01*
X44257Y-46264D01*
X44285Y-46250D01*
X44357Y-46250D01*
X44385Y-46264D01*
X44400Y-46278D01*
X44414Y-46307D01*
X44414Y-46378D01*
X44400Y-46407D01*
X44385Y-46421D01*
X44357Y-46435D01*
X44285Y-46435D01*
X44257Y-46421D01*
X44242Y-46407D01*
X43985Y-45950D02*
X44128Y-45950D01*
X43957Y-46035D02*
X44057Y-45735D01*
X44157Y-46035D01*
X44385Y-45835D02*
X44385Y-46035D01*
X44314Y-45721D02*
X44242Y-45935D01*
X44428Y-45935D01*
X43985Y-45550D02*
X44128Y-45550D01*
X43957Y-45635D02*
X44057Y-45335D01*
X44157Y-45635D01*
X44228Y-45335D02*
X44414Y-45335D01*
X44314Y-45450D01*
X44357Y-45450D01*
X44385Y-45464D01*
X44400Y-45478D01*
X44414Y-45507D01*
X44414Y-45578D01*
X44400Y-45607D01*
X44385Y-45621D01*
X44357Y-45635D01*
X44271Y-45635D01*
X44242Y-45621D01*
X44228Y-45607D01*
X43985Y-45150D02*
X44128Y-45150D01*
X43957Y-45235D02*
X44057Y-44935D01*
X44157Y-45235D01*
X44242Y-44964D02*
X44257Y-44950D01*
X44285Y-44935D01*
X44357Y-44935D01*
X44385Y-44950D01*
X44400Y-44964D01*
X44414Y-44992D01*
X44414Y-45021D01*
X44400Y-45064D01*
X44228Y-45235D01*
X44414Y-45235D01*
X43985Y-44750D02*
X44128Y-44750D01*
X43957Y-44835D02*
X44057Y-44535D01*
X44157Y-44835D01*
X44414Y-44835D02*
X44242Y-44835D01*
X44328Y-44835D02*
X44328Y-44535D01*
X44300Y-44578D01*
X44271Y-44607D01*
X44242Y-44621D01*
X43985Y-44350D02*
X44128Y-44350D01*
X43957Y-44435D02*
X44057Y-44135D01*
X44157Y-44435D01*
X44314Y-44135D02*
X44342Y-44135D01*
X44371Y-44150D01*
X44385Y-44164D01*
X44400Y-44192D01*
X44414Y-44250D01*
X44414Y-44321D01*
X44400Y-44378D01*
X44385Y-44407D01*
X44371Y-44421D01*
X44342Y-44435D01*
X44314Y-44435D01*
X44285Y-44421D01*
X44271Y-44407D01*
X44257Y-44378D01*
X44242Y-44321D01*
X44242Y-44250D01*
X44257Y-44192D01*
X44271Y-44164D01*
X44285Y-44150D01*
X44314Y-44135D01*
X44235Y-47842D02*
X44235Y-47657D01*
X44350Y-47757D01*
X44350Y-47714D01*
X44364Y-47685D01*
X44378Y-47671D01*
X44407Y-47657D01*
X44478Y-47657D01*
X44507Y-47671D01*
X44521Y-47685D01*
X44535Y-47714D01*
X44535Y-47800D01*
X44521Y-47828D01*
X44507Y-47842D01*
X44507Y-47528D02*
X44521Y-47514D01*
X44535Y-47528D01*
X44521Y-47542D01*
X44507Y-47528D01*
X44535Y-47528D01*
X44235Y-47414D02*
X44235Y-47228D01*
X44350Y-47328D01*
X44350Y-47285D01*
X44364Y-47257D01*
X44378Y-47242D01*
X44407Y-47228D01*
X44478Y-47228D01*
X44507Y-47242D01*
X44521Y-47257D01*
X44535Y-47285D01*
X44535Y-47371D01*
X44521Y-47400D01*
X44507Y-47414D01*
X44235Y-47142D02*
X44535Y-47042D01*
X44235Y-46942D01*
G54D12*
X44150Y-47000D02*
X43950Y-47000D01*
X44150Y-47500D02*
X44150Y-47000D01*
X43950Y-47500D02*
X44150Y-47500D01*
G54D11*
X40500Y-47778D02*
X40485Y-47807D01*
X40485Y-47850D01*
X40500Y-47892D01*
X40528Y-47921D01*
X40557Y-47935D01*
X40614Y-47950D01*
X40657Y-47950D01*
X40714Y-47935D01*
X40742Y-47921D01*
X40771Y-47892D01*
X40785Y-47850D01*
X40785Y-47821D01*
X40771Y-47778D01*
X40757Y-47764D01*
X40657Y-47764D01*
X40657Y-47821D01*
X40785Y-47635D02*
X40485Y-47635D01*
X40785Y-47464D01*
X40485Y-47464D01*
X40785Y-47321D02*
X40485Y-47321D01*
X40485Y-47250D01*
X40500Y-47207D01*
X40528Y-47178D01*
X40557Y-47164D01*
X40614Y-47150D01*
X40657Y-47150D01*
X40714Y-47164D01*
X40742Y-47178D01*
X40771Y-47207D01*
X40785Y-47250D01*
X40785Y-47321D01*
G54D12*
X40900Y-47700D02*
X41100Y-47700D01*
X40900Y-47200D02*
X40900Y-47700D01*
X41100Y-47200D02*
X40900Y-47200D01*
G54D11*
X40671Y-47035D02*
X40500Y-47035D01*
X40585Y-47035D02*
X40585Y-46735D01*
X40557Y-46778D01*
X40528Y-46807D01*
X40500Y-46821D01*
X40800Y-47007D02*
X40814Y-47021D01*
X40800Y-47035D01*
X40785Y-47021D01*
X40800Y-47007D01*
X40800Y-47035D01*
X41000Y-46735D02*
X41028Y-46735D01*
X41057Y-46750D01*
X41071Y-46764D01*
X41085Y-46792D01*
X41100Y-46850D01*
X41100Y-46921D01*
X41085Y-46978D01*
X41071Y-47007D01*
X41057Y-47021D01*
X41028Y-47035D01*
X41000Y-47035D01*
X40971Y-47021D01*
X40957Y-47007D01*
X40942Y-46978D01*
X40928Y-46921D01*
X40928Y-46850D01*
X40942Y-46792D01*
X40957Y-46764D01*
X40971Y-46750D01*
X41000Y-46735D01*
X40671Y-46635D02*
X40500Y-46635D01*
X40585Y-46635D02*
X40585Y-46335D01*
X40557Y-46378D01*
X40528Y-46407D01*
X40500Y-46421D01*
X40800Y-46607D02*
X40814Y-46621D01*
X40800Y-46635D01*
X40785Y-46621D01*
X40800Y-46607D01*
X40800Y-46635D01*
X41100Y-46635D02*
X40928Y-46635D01*
X41014Y-46635D02*
X41014Y-46335D01*
X40985Y-46378D01*
X40957Y-46407D01*
X40928Y-46421D01*
X40671Y-46235D02*
X40500Y-46235D01*
X40585Y-46235D02*
X40585Y-45935D01*
X40557Y-45978D01*
X40528Y-46007D01*
X40500Y-46021D01*
X40800Y-46207D02*
X40814Y-46221D01*
X40800Y-46235D01*
X40785Y-46221D01*
X40800Y-46207D01*
X40800Y-46235D01*
X40928Y-45964D02*
X40942Y-45950D01*
X40971Y-45935D01*
X41042Y-45935D01*
X41071Y-45950D01*
X41085Y-45964D01*
X41100Y-45992D01*
X41100Y-46021D01*
X41085Y-46064D01*
X40914Y-46235D01*
X41100Y-46235D01*
X40671Y-45835D02*
X40500Y-45835D01*
X40585Y-45835D02*
X40585Y-45535D01*
X40557Y-45578D01*
X40528Y-45607D01*
X40500Y-45621D01*
X40800Y-45807D02*
X40814Y-45821D01*
X40800Y-45835D01*
X40785Y-45821D01*
X40800Y-45807D01*
X40800Y-45835D01*
X40914Y-45535D02*
X41100Y-45535D01*
X41000Y-45650D01*
X41042Y-45650D01*
X41071Y-45664D01*
X41085Y-45678D01*
X41100Y-45707D01*
X41100Y-45778D01*
X41085Y-45807D01*
X41071Y-45821D01*
X41042Y-45835D01*
X40957Y-45835D01*
X40928Y-45821D01*
X40914Y-45807D01*
X40671Y-45435D02*
X40500Y-45435D01*
X40585Y-45435D02*
X40585Y-45135D01*
X40557Y-45178D01*
X40528Y-45207D01*
X40500Y-45221D01*
X40800Y-45407D02*
X40814Y-45421D01*
X40800Y-45435D01*
X40785Y-45421D01*
X40800Y-45407D01*
X40800Y-45435D01*
X41071Y-45235D02*
X41071Y-45435D01*
X41000Y-45121D02*
X40928Y-45335D01*
X41114Y-45335D01*
X40671Y-45035D02*
X40500Y-45035D01*
X40585Y-45035D02*
X40585Y-44735D01*
X40557Y-44778D01*
X40528Y-44807D01*
X40500Y-44821D01*
X40800Y-45007D02*
X40814Y-45021D01*
X40800Y-45035D01*
X40785Y-45021D01*
X40800Y-45007D01*
X40800Y-45035D01*
X41085Y-44735D02*
X40942Y-44735D01*
X40928Y-44878D01*
X40942Y-44864D01*
X40971Y-44850D01*
X41042Y-44850D01*
X41071Y-44864D01*
X41085Y-44878D01*
X41100Y-44907D01*
X41100Y-44978D01*
X41085Y-45007D01*
X41071Y-45021D01*
X41042Y-45035D01*
X40971Y-45035D01*
X40942Y-45021D01*
X40928Y-45007D01*
X40671Y-44635D02*
X40500Y-44635D01*
X40585Y-44635D02*
X40585Y-44335D01*
X40557Y-44378D01*
X40528Y-44407D01*
X40500Y-44421D01*
X40800Y-44607D02*
X40814Y-44621D01*
X40800Y-44635D01*
X40785Y-44621D01*
X40800Y-44607D01*
X40800Y-44635D01*
X41071Y-44335D02*
X41014Y-44335D01*
X40985Y-44350D01*
X40971Y-44364D01*
X40942Y-44407D01*
X40928Y-44464D01*
X40928Y-44578D01*
X40942Y-44607D01*
X40957Y-44621D01*
X40985Y-44635D01*
X41042Y-44635D01*
X41071Y-44621D01*
X41085Y-44607D01*
X41100Y-44578D01*
X41100Y-44507D01*
X41085Y-44478D01*
X41071Y-44464D01*
X41042Y-44450D01*
X40985Y-44450D01*
X40957Y-44464D01*
X40942Y-44478D01*
X40928Y-44507D01*
X40671Y-44235D02*
X40500Y-44235D01*
X40585Y-44235D02*
X40585Y-43935D01*
X40557Y-43978D01*
X40528Y-44007D01*
X40500Y-44021D01*
X40800Y-44207D02*
X40814Y-44221D01*
X40800Y-44235D01*
X40785Y-44221D01*
X40800Y-44207D01*
X40800Y-44235D01*
X40914Y-43935D02*
X41114Y-43935D01*
X40985Y-44235D01*
X44250Y-43728D02*
X44235Y-43757D01*
X44235Y-43800D01*
X44250Y-43842D01*
X44278Y-43871D01*
X44307Y-43885D01*
X44364Y-43900D01*
X44407Y-43900D01*
X44464Y-43885D01*
X44492Y-43871D01*
X44521Y-43842D01*
X44535Y-43800D01*
X44535Y-43771D01*
X44521Y-43728D01*
X44507Y-43714D01*
X44407Y-43714D01*
X44407Y-43771D01*
X44535Y-43585D02*
X44235Y-43585D01*
X44535Y-43414D01*
X44235Y-43414D01*
X44535Y-43271D02*
X44235Y-43271D01*
X44235Y-43200D01*
X44250Y-43157D01*
X44278Y-43128D01*
X44307Y-43114D01*
X44364Y-43100D01*
X44407Y-43100D01*
X44464Y-43114D01*
X44492Y-43128D01*
X44521Y-43157D01*
X44535Y-43200D01*
X44535Y-43271D01*
G54D12*
X44150Y-43000D02*
X43950Y-43000D01*
X44150Y-44000D02*
X44150Y-43000D01*
X43950Y-44000D02*
X44150Y-44000D01*
G54D11*
X40435Y-43742D02*
X40435Y-43557D01*
X40550Y-43657D01*
X40550Y-43614D01*
X40564Y-43585D01*
X40578Y-43571D01*
X40607Y-43557D01*
X40678Y-43557D01*
X40707Y-43571D01*
X40721Y-43585D01*
X40735Y-43614D01*
X40735Y-43700D01*
X40721Y-43728D01*
X40707Y-43742D01*
X40707Y-43428D02*
X40721Y-43414D01*
X40735Y-43428D01*
X40721Y-43442D01*
X40707Y-43428D01*
X40735Y-43428D01*
X40435Y-43314D02*
X40435Y-43128D01*
X40550Y-43228D01*
X40550Y-43185D01*
X40564Y-43157D01*
X40578Y-43142D01*
X40607Y-43128D01*
X40678Y-43128D01*
X40707Y-43142D01*
X40721Y-43157D01*
X40735Y-43185D01*
X40735Y-43271D01*
X40721Y-43300D01*
X40707Y-43314D01*
X40435Y-43042D02*
X40735Y-42942D01*
X40435Y-42842D01*
G54D12*
X40900Y-42800D02*
X41100Y-42800D01*
X40900Y-43800D02*
X40900Y-42800D01*
X41100Y-43800D02*
X40900Y-43800D01*
G54D11*
X46342Y-51946D02*
X46402Y-52113D01*
X46461Y-51946D01*
X46688Y-52113D02*
X46545Y-52113D01*
X46616Y-52113D02*
X46616Y-51863D01*
X46592Y-51898D01*
X46569Y-51922D01*
X46545Y-51934D01*
X46795Y-52089D02*
X46807Y-52101D01*
X46795Y-52113D01*
X46783Y-52101D01*
X46795Y-52089D01*
X46795Y-52113D01*
X47045Y-52113D02*
X46902Y-52113D01*
X46973Y-52113D02*
X46973Y-51863D01*
X46950Y-51898D01*
X46926Y-51922D01*
X46902Y-51934D01*
G54D13*
X49712Y-54727D02*
X49722Y-54718D01*
X49741Y-54708D01*
X49789Y-54708D01*
X49808Y-54718D01*
X49817Y-54727D01*
X49827Y-54746D01*
X49827Y-54765D01*
X49817Y-54794D01*
X49703Y-54908D01*
X49827Y-54908D01*
X49277Y-54908D02*
X49162Y-54908D01*
X49220Y-54908D02*
X49220Y-54708D01*
X49201Y-54737D01*
X49181Y-54756D01*
X49162Y-54765D01*
X48660Y-54708D02*
X48679Y-54708D01*
X48698Y-54718D01*
X48708Y-54727D01*
X48717Y-54746D01*
X48727Y-54784D01*
X48727Y-54832D01*
X48717Y-54870D01*
X48708Y-54889D01*
X48698Y-54899D01*
X48679Y-54908D01*
X48660Y-54908D01*
X48641Y-54899D01*
X48631Y-54889D01*
X48622Y-54870D01*
X48612Y-54832D01*
X48612Y-54784D01*
X48622Y-54746D01*
X48631Y-54727D01*
X48641Y-54718D01*
X48660Y-54708D01*
G54D14*
X55118Y-55118D02*
X43307Y-55118D01*
X59055Y-51181D02*
X55118Y-55118D01*
X59055Y-39370D02*
X59055Y-51181D01*
X55118Y-35433D02*
X59055Y-39370D01*
X43307Y-35433D02*
X55118Y-35433D01*
X39370Y-39370D02*
X43307Y-35433D01*
X39370Y-51181D02*
X39370Y-39370D01*
X43307Y-55118D02*
X39370Y-51181D01*
G54D15*
X41535Y-41732D02*
X41732Y-41732D01*
X41535Y-41732D02*
X41141Y-41732D01*
X41141Y-41732D02*
X41141Y-48818D01*
X41141Y-48818D02*
X41732Y-48818D01*
X43307Y-41732D02*
X43897Y-41732D01*
X43897Y-41732D02*
X43897Y-48818D01*
X43897Y-48818D02*
X43307Y-48818D01*
X56889Y-48622D02*
X56692Y-48622D01*
X56889Y-48622D02*
X57283Y-48622D01*
X57283Y-48622D02*
X57283Y-41535D01*
X57283Y-41535D02*
X56692Y-41535D01*
X55118Y-48622D02*
X54527Y-48622D01*
X54527Y-48622D02*
X54527Y-41535D01*
X54527Y-41535D02*
X55118Y-41535D01*
G54D16*
X50941Y-43546D02*
X50941Y-47089D01*
X50941Y-47089D02*
X47398Y-47089D01*
X47398Y-47089D02*
X47398Y-43546D01*
X47398Y-43546D02*
X50941Y-43546D01*
G54D17*
X47073Y-43841D02*
G75*
G03X47073Y-43841I-59J0D01*
G74*
G01*
G54D16*
X47398Y-43940D02*
X47792Y-43546D01*
G54D12*
X50981Y-47129D02*
X50807Y-47129D01*
X50981Y-46955D02*
X50981Y-47129D01*
X47532Y-47129D02*
X47359Y-47129D01*
X47359Y-46955D02*
X47359Y-47129D01*
X47532Y-43507D02*
X47359Y-43507D01*
X47359Y-43507D02*
X47359Y-43680D01*
X50981Y-43507D02*
X50981Y-43680D01*
X50981Y-43507D02*
X50807Y-43507D01*
G54D18*
X41450Y-41200D02*
X41650Y-41200D01*
X41650Y-41200D02*
X41650Y-40900D01*
X41650Y-40900D02*
X41450Y-40900D01*
X41250Y-41200D02*
X41050Y-41200D01*
X41050Y-41200D02*
X41050Y-40900D01*
X41050Y-40900D02*
X41250Y-40900D01*
G54D19*
X46667Y-45874D02*
X46942Y-45874D01*
X46273Y-45874D02*
X45998Y-45874D01*
X46667Y-45362D02*
X46942Y-45362D01*
X45998Y-45362D02*
X46273Y-45362D01*
X46942Y-45368D02*
X46942Y-45868D01*
X45998Y-45868D02*
X45998Y-45368D01*
G54D18*
X46370Y-45868D02*
X46170Y-45868D01*
X46170Y-45868D02*
X46170Y-46168D01*
X46170Y-46168D02*
X46370Y-46168D01*
X46570Y-45868D02*
X46770Y-45868D01*
X46770Y-45868D02*
X46770Y-46168D01*
X46770Y-46168D02*
X46570Y-46168D01*
G54D19*
X46373Y-46862D02*
X46098Y-46862D01*
X46767Y-46862D02*
X47042Y-46862D01*
X46373Y-47374D02*
X46098Y-47374D01*
X47042Y-47374D02*
X46767Y-47374D01*
X46098Y-47368D02*
X46098Y-46868D01*
X47042Y-46868D02*
X47042Y-47368D01*
G54D18*
X46770Y-46868D02*
X46970Y-46868D01*
X46970Y-46868D02*
X46970Y-46568D01*
X46970Y-46568D02*
X46770Y-46568D01*
X46570Y-46868D02*
X46370Y-46868D01*
X46370Y-46868D02*
X46370Y-46568D01*
X46370Y-46568D02*
X46570Y-46568D01*
G54D19*
X47367Y-48074D02*
X47642Y-48074D01*
X46973Y-48074D02*
X46698Y-48074D01*
X47367Y-47562D02*
X47642Y-47562D01*
X46698Y-47562D02*
X46973Y-47562D01*
X47642Y-47568D02*
X47642Y-48068D01*
X46698Y-48068D02*
X46698Y-47568D01*
G54D18*
X49570Y-42918D02*
X49570Y-42718D01*
X49570Y-42718D02*
X49270Y-42718D01*
X49270Y-42718D02*
X49270Y-42918D01*
X49570Y-43118D02*
X49570Y-43318D01*
X49570Y-43318D02*
X49270Y-43318D01*
X49270Y-43318D02*
X49270Y-43118D01*
G54D19*
X50567Y-42174D02*
X50842Y-42174D01*
X50173Y-42174D02*
X49898Y-42174D01*
X50567Y-41662D02*
X50842Y-41662D01*
X49898Y-41662D02*
X50173Y-41662D01*
X50842Y-41668D02*
X50842Y-42168D01*
X49898Y-42168D02*
X49898Y-41668D01*
G54D18*
X50120Y-42668D02*
X49920Y-42668D01*
X49920Y-42668D02*
X49920Y-42968D01*
X49920Y-42968D02*
X50120Y-42968D01*
X50320Y-42668D02*
X50520Y-42668D01*
X50520Y-42668D02*
X50520Y-42968D01*
X50520Y-42968D02*
X50320Y-42968D01*
X50120Y-42268D02*
X49920Y-42268D01*
X49920Y-42268D02*
X49920Y-42568D01*
X49920Y-42568D02*
X50120Y-42568D01*
X50320Y-42268D02*
X50520Y-42268D01*
X50520Y-42268D02*
X50520Y-42568D01*
X50520Y-42568D02*
X50320Y-42568D01*
X41250Y-41300D02*
X41050Y-41300D01*
X41050Y-41300D02*
X41050Y-41600D01*
X41050Y-41600D02*
X41250Y-41600D01*
X41450Y-41300D02*
X41650Y-41300D01*
X41650Y-41300D02*
X41650Y-41600D01*
X41650Y-41600D02*
X41450Y-41600D01*
X44620Y-45918D02*
X44620Y-46118D01*
X44620Y-46118D02*
X44920Y-46118D01*
X44920Y-46118D02*
X44920Y-45918D01*
X44620Y-45718D02*
X44620Y-45518D01*
X44620Y-45518D02*
X44920Y-45518D01*
X44920Y-45518D02*
X44920Y-45718D01*
X44920Y-46918D02*
X44920Y-46718D01*
X44920Y-46718D02*
X44620Y-46718D01*
X44620Y-46718D02*
X44620Y-46918D01*
X44920Y-47118D02*
X44920Y-47318D01*
X44920Y-47318D02*
X44620Y-47318D01*
X44620Y-47318D02*
X44620Y-47118D01*
X51820Y-39968D02*
X52020Y-39968D01*
X52020Y-39968D02*
X52020Y-39668D01*
X52020Y-39668D02*
X51820Y-39668D01*
X51620Y-39968D02*
X51420Y-39968D01*
X51420Y-39968D02*
X51420Y-39668D01*
X51420Y-39668D02*
X51620Y-39668D01*
X52720Y-39968D02*
X52520Y-39968D01*
X52520Y-39968D02*
X52520Y-40268D01*
X52520Y-40268D02*
X52720Y-40268D01*
X52920Y-39968D02*
X53120Y-39968D01*
X53120Y-39968D02*
X53120Y-40268D01*
X53120Y-40268D02*
X52920Y-40268D01*
X51120Y-39618D02*
X51320Y-39618D01*
X51320Y-39618D02*
X51320Y-39318D01*
X51320Y-39318D02*
X51120Y-39318D01*
X50920Y-39618D02*
X50720Y-39618D01*
X50720Y-39618D02*
X50720Y-39318D01*
X50720Y-39318D02*
X50920Y-39318D01*
X46820Y-39318D02*
X46620Y-39318D01*
X46620Y-39318D02*
X46620Y-39618D01*
X46620Y-39618D02*
X46820Y-39618D01*
X47020Y-39318D02*
X47220Y-39318D01*
X47220Y-39318D02*
X47220Y-39618D01*
X47220Y-39618D02*
X47020Y-39618D01*
X51370Y-45368D02*
X51170Y-45368D01*
X51170Y-45368D02*
X51170Y-45668D01*
X51170Y-45668D02*
X51370Y-45668D01*
X51570Y-45368D02*
X51770Y-45368D01*
X51770Y-45368D02*
X51770Y-45668D01*
X51770Y-45668D02*
X51570Y-45668D01*
G54D20*
X52520Y-41881D02*
G75*
G03X52520Y-41881I-62J0D01*
G74*
G01*
X52120Y-40918D02*
X52520Y-40918D01*
X52120Y-41943D02*
X52520Y-41943D01*
X52520Y-40918D02*
X52520Y-41943D01*
X52120Y-41943D02*
X52120Y-40918D01*
G54D21*
X48847Y-54195D02*
X48493Y-54195D01*
X48493Y-54195D02*
X48493Y-54352D01*
X48847Y-54352D02*
X48493Y-54352D01*
X48847Y-54195D02*
X48847Y-54352D01*
X48847Y-53684D02*
X48493Y-53684D01*
X48493Y-53684D02*
X48493Y-53841D01*
X48847Y-53841D02*
X48493Y-53841D01*
X48847Y-53684D02*
X48847Y-53841D01*
X48847Y-54018D02*
X48788Y-54018D01*
X48788Y-54018D02*
X48788Y-54136D01*
X48847Y-54136D02*
X48788Y-54136D01*
X48847Y-54018D02*
X48847Y-54136D01*
X48552Y-54018D02*
X48493Y-54018D01*
X48493Y-54018D02*
X48493Y-54136D01*
X48552Y-54136D02*
X48493Y-54136D01*
X48552Y-54018D02*
X48552Y-54136D01*
X48729Y-54018D02*
X48611Y-54018D01*
X48611Y-54018D02*
X48611Y-54136D01*
X48729Y-54136D02*
X48611Y-54136D01*
X48729Y-54018D02*
X48729Y-54136D01*
G54D22*
X48827Y-54195D02*
X48827Y-53841D01*
X48513Y-54195D02*
X48513Y-53841D01*
G54D21*
X49389Y-54192D02*
X49035Y-54192D01*
X49035Y-54192D02*
X49035Y-54349D01*
X49389Y-54349D02*
X49035Y-54349D01*
X49389Y-54192D02*
X49389Y-54349D01*
X49389Y-53681D02*
X49035Y-53681D01*
X49035Y-53681D02*
X49035Y-53838D01*
X49389Y-53838D02*
X49035Y-53838D01*
X49389Y-53681D02*
X49389Y-53838D01*
X49389Y-54015D02*
X49330Y-54015D01*
X49330Y-54015D02*
X49330Y-54133D01*
X49389Y-54133D02*
X49330Y-54133D01*
X49389Y-54015D02*
X49389Y-54133D01*
X49094Y-54015D02*
X49035Y-54015D01*
X49035Y-54015D02*
X49035Y-54133D01*
X49094Y-54133D02*
X49035Y-54133D01*
X49094Y-54015D02*
X49094Y-54133D01*
X49271Y-54015D02*
X49153Y-54015D01*
X49153Y-54015D02*
X49153Y-54133D01*
X49271Y-54133D02*
X49153Y-54133D01*
X49271Y-54015D02*
X49271Y-54133D01*
G54D22*
X49369Y-54192D02*
X49369Y-53838D01*
X49055Y-54192D02*
X49055Y-53838D01*
G54D21*
X49947Y-54195D02*
X49593Y-54195D01*
X49593Y-54195D02*
X49593Y-54352D01*
X49947Y-54352D02*
X49593Y-54352D01*
X49947Y-54195D02*
X49947Y-54352D01*
X49947Y-53684D02*
X49593Y-53684D01*
X49593Y-53684D02*
X49593Y-53841D01*
X49947Y-53841D02*
X49593Y-53841D01*
X49947Y-53684D02*
X49947Y-53841D01*
X49947Y-54018D02*
X49888Y-54018D01*
X49888Y-54018D02*
X49888Y-54136D01*
X49947Y-54136D02*
X49888Y-54136D01*
X49947Y-54018D02*
X49947Y-54136D01*
X49652Y-54018D02*
X49593Y-54018D01*
X49593Y-54018D02*
X49593Y-54136D01*
X49652Y-54136D02*
X49593Y-54136D01*
X49652Y-54018D02*
X49652Y-54136D01*
X49829Y-54018D02*
X49711Y-54018D01*
X49711Y-54018D02*
X49711Y-54136D01*
X49829Y-54136D02*
X49711Y-54136D01*
X49829Y-54018D02*
X49829Y-54136D01*
G54D22*
X49927Y-54195D02*
X49927Y-53841D01*
X49613Y-54195D02*
X49613Y-53841D01*
G54D18*
X52770Y-39518D02*
X52770Y-39318D01*
X52770Y-39318D02*
X52470Y-39318D01*
X52470Y-39318D02*
X52470Y-39518D01*
X52770Y-39718D02*
X52770Y-39918D01*
X52770Y-39918D02*
X52470Y-39918D01*
X52470Y-39918D02*
X52470Y-39718D01*
X52370Y-39518D02*
X52370Y-39318D01*
X52370Y-39318D02*
X52070Y-39318D01*
X52070Y-39318D02*
X52070Y-39518D01*
X52370Y-39718D02*
X52370Y-39918D01*
X52370Y-39918D02*
X52070Y-39918D01*
X52070Y-39918D02*
X52070Y-39718D01*
X49270Y-42468D02*
X49270Y-42668D01*
X49270Y-42668D02*
X49570Y-42668D01*
X49570Y-42668D02*
X49570Y-42468D01*
X49270Y-42268D02*
X49270Y-42068D01*
X49270Y-42068D02*
X49570Y-42068D01*
X49570Y-42068D02*
X49570Y-42268D01*
X51820Y-39618D02*
X52020Y-39618D01*
X52020Y-39618D02*
X52020Y-39318D01*
X52020Y-39318D02*
X51820Y-39318D01*
X51620Y-39618D02*
X51420Y-39618D01*
X51420Y-39618D02*
X51420Y-39318D01*
X51420Y-39318D02*
X51620Y-39318D01*
X51620Y-38968D02*
X51420Y-38968D01*
X51420Y-38968D02*
X51420Y-39268D01*
X51420Y-39268D02*
X51620Y-39268D01*
X51820Y-38968D02*
X52020Y-38968D01*
X52020Y-38968D02*
X52020Y-39268D01*
X52020Y-39268D02*
X51820Y-39268D01*
X48820Y-53018D02*
X48820Y-52818D01*
X48820Y-52818D02*
X48520Y-52818D01*
X48520Y-52818D02*
X48520Y-53018D01*
X48820Y-53218D02*
X48820Y-53418D01*
X48820Y-53418D02*
X48520Y-53418D01*
X48520Y-53418D02*
X48520Y-53218D01*
X49362Y-53018D02*
X49362Y-52818D01*
X49362Y-52818D02*
X49062Y-52818D01*
X49062Y-52818D02*
X49062Y-53018D01*
X49362Y-53218D02*
X49362Y-53418D01*
X49362Y-53418D02*
X49062Y-53418D01*
X49062Y-53418D02*
X49062Y-53218D01*
X49920Y-53018D02*
X49920Y-52818D01*
X49920Y-52818D02*
X49620Y-52818D01*
X49620Y-52818D02*
X49620Y-53018D01*
X49920Y-53218D02*
X49920Y-53418D01*
X49920Y-53418D02*
X49620Y-53418D01*
X49620Y-53418D02*
X49620Y-53218D01*
G54D15*
X48873Y-38291D02*
X45566Y-38291D01*
X45566Y-38291D02*
X45566Y-36244D01*
X45566Y-36244D02*
X48873Y-36244D01*
X48873Y-36244D02*
X48873Y-38291D01*
G54D23*
X52695Y-35874D02*
X52695Y-35796D01*
X49545Y-35874D02*
X49545Y-35796D01*
X52695Y-38000D02*
X49545Y-38000D01*
X49545Y-38000D02*
X49545Y-35874D01*
X49545Y-35796D02*
X52695Y-35796D01*
X52695Y-35874D02*
X52695Y-38000D01*
G54D11*
X49920Y-51568D02*
X49920Y-51618D01*
X49920Y-51618D02*
X52020Y-51618D01*
X52020Y-50118D02*
X49920Y-50118D01*
X49920Y-50118D02*
X49920Y-51568D01*
X49920Y-50668D02*
X50120Y-50668D01*
X50120Y-50668D02*
X50120Y-51068D01*
X50120Y-51068D02*
X49920Y-51068D01*
X52020Y-50118D02*
X52020Y-51618D01*
X52520Y-51568D02*
X52520Y-51618D01*
X52520Y-51618D02*
X54620Y-51618D01*
X54620Y-50118D02*
X52520Y-50118D01*
X52520Y-50118D02*
X52520Y-51568D01*
X52520Y-50668D02*
X52720Y-50668D01*
X52720Y-50668D02*
X52720Y-51068D01*
X52720Y-51068D02*
X52520Y-51068D01*
X54620Y-50118D02*
X54620Y-51618D01*
G54D15*
X44958Y-47559D02*
X44958Y-45276D01*
X44958Y-45276D02*
X45981Y-45276D01*
X45981Y-45276D02*
X45981Y-47559D01*
X45981Y-47559D02*
X44958Y-47559D01*
X45233Y-46536D02*
X45706Y-46536D01*
X45666Y-46300D02*
X45706Y-46300D01*
X45233Y-46300D02*
X45666Y-46300D01*
X46607Y-40116D02*
X46607Y-40156D01*
X46607Y-41612D02*
X46607Y-41179D01*
X46607Y-41612D02*
X51332Y-41612D01*
X51332Y-41612D02*
X51332Y-41179D01*
X46607Y-39723D02*
X46607Y-40116D01*
X46607Y-39723D02*
X51332Y-39723D01*
X51332Y-39723D02*
X51332Y-40156D01*
G54D18*
X50820Y-48668D02*
X50620Y-48668D01*
X50620Y-48668D02*
X50620Y-48968D01*
X50620Y-48968D02*
X50820Y-48968D01*
X51020Y-48668D02*
X51220Y-48668D01*
X51220Y-48668D02*
X51220Y-48968D01*
X51220Y-48968D02*
X51020Y-48968D01*
X50820Y-49068D02*
X50620Y-49068D01*
X50620Y-49068D02*
X50620Y-49368D01*
X50620Y-49368D02*
X50820Y-49368D01*
X51020Y-49068D02*
X51220Y-49068D01*
X51220Y-49068D02*
X51220Y-49368D01*
X51220Y-49368D02*
X51020Y-49368D01*
G54D24*
G36*
X44183Y-50645D02*
X44181Y-50705D01*
X44179Y-50765D01*
X43922Y-50768D01*
X43856Y-50769D01*
X43802Y-50770D01*
X43759Y-50771D01*
X43726Y-50772D01*
X43700Y-50773D01*
X43681Y-50775D01*
X43667Y-50776D01*
X43657Y-50779D01*
X43650Y-50782D01*
X43643Y-50786D01*
X43640Y-50788D01*
X43618Y-50807D01*
X43601Y-50832D01*
X43600Y-50833D01*
X43597Y-50840D01*
X43594Y-50847D01*
X43592Y-50856D01*
X43590Y-50868D01*
X43589Y-50883D01*
X43588Y-50904D01*
X43587Y-50931D01*
X43587Y-50966D01*
X43587Y-51009D01*
X43587Y-51063D01*
X43587Y-51128D01*
X43588Y-51205D01*
X43588Y-51205D01*
X43588Y-51283D01*
X43589Y-51347D01*
X43589Y-51401D01*
X43590Y-51444D01*
X43591Y-51479D01*
X43591Y-51505D01*
X43593Y-51525D01*
X43594Y-51540D01*
X43596Y-51550D01*
X43598Y-51557D01*
X43601Y-51563D01*
X43604Y-51568D01*
X43620Y-51585D01*
X43639Y-51601D01*
X43641Y-51602D01*
X43647Y-51606D01*
X43654Y-51609D01*
X43662Y-51612D01*
X43673Y-51614D01*
X43689Y-51615D01*
X43711Y-51616D01*
X43740Y-51617D01*
X43779Y-51617D01*
X43827Y-51618D01*
X43887Y-51618D01*
X43915Y-51618D01*
X43985Y-51618D01*
X44043Y-51618D01*
X44089Y-51619D01*
X44124Y-51620D01*
X44149Y-51621D01*
X44165Y-51623D01*
X44173Y-51625D01*
X44174Y-51626D01*
X44178Y-51638D01*
X44181Y-51660D01*
X44182Y-51691D01*
X44182Y-51748D01*
X43934Y-51747D01*
X43876Y-51747D01*
X43820Y-51746D01*
X43770Y-51745D01*
X43726Y-51744D01*
X43691Y-51743D01*
X43666Y-51742D01*
X43653Y-51741D01*
X43605Y-51726D01*
X43558Y-51700D01*
X43517Y-51665D01*
X43484Y-51623D01*
X43471Y-51599D01*
X43453Y-51560D01*
X43453Y-51196D01*
X43453Y-50834D01*
X43472Y-50792D01*
X43501Y-50745D01*
X43540Y-50704D01*
X43587Y-50672D01*
X43597Y-50668D01*
X43638Y-50649D01*
X43910Y-50647D01*
X44183Y-50645D01*
X44183Y-50645D01*
X44183Y-50645D01*
G37*
G36*
X45151Y-51546D02*
X45135Y-51587D01*
X45113Y-51628D01*
X45080Y-51667D01*
X45042Y-51700D01*
X45011Y-51719D01*
X45011Y-51294D01*
X45011Y-51216D01*
X45011Y-51193D01*
X45011Y-50846D01*
X44996Y-50822D01*
X44980Y-50805D01*
X44958Y-50789D01*
X44950Y-50784D01*
X44940Y-50779D01*
X44931Y-50776D01*
X44920Y-50773D01*
X44906Y-50771D01*
X44887Y-50770D01*
X44860Y-50769D01*
X44826Y-50769D01*
X44781Y-50768D01*
X44725Y-50768D01*
X44715Y-50768D01*
X44651Y-50769D01*
X44598Y-50769D01*
X44554Y-50770D01*
X44522Y-50772D01*
X44503Y-50774D01*
X44497Y-50775D01*
X44494Y-50777D01*
X44492Y-50780D01*
X44490Y-50786D01*
X44488Y-50794D01*
X44487Y-50807D01*
X44486Y-50826D01*
X44485Y-50850D01*
X44484Y-50883D01*
X44484Y-50923D01*
X44484Y-50973D01*
X44484Y-51034D01*
X44484Y-51107D01*
X44484Y-51192D01*
X44484Y-51283D01*
X44484Y-51360D01*
X44484Y-51426D01*
X44485Y-51480D01*
X44486Y-51524D01*
X44486Y-51557D01*
X44488Y-51582D01*
X44489Y-51599D01*
X44491Y-51608D01*
X44492Y-51609D01*
X44498Y-51612D01*
X44513Y-51614D01*
X44537Y-51615D01*
X44572Y-51617D01*
X44617Y-51617D01*
X44674Y-51617D01*
X44716Y-51618D01*
X44776Y-51617D01*
X44824Y-51617D01*
X44862Y-51617D01*
X44890Y-51616D01*
X44912Y-51615D01*
X44927Y-51613D01*
X44938Y-51611D01*
X44947Y-51608D01*
X44955Y-51604D01*
X44959Y-51602D01*
X44970Y-51596D01*
X44980Y-51590D01*
X44987Y-51583D01*
X44994Y-51574D01*
X44999Y-51562D01*
X45003Y-51545D01*
X45006Y-51524D01*
X45008Y-51495D01*
X45010Y-51459D01*
X45010Y-51415D01*
X45011Y-51360D01*
X45011Y-51294D01*
X45011Y-51719D01*
X45002Y-51724D01*
X44994Y-51728D01*
X44983Y-51732D01*
X44973Y-51735D01*
X44962Y-51738D01*
X44948Y-51740D01*
X44930Y-51742D01*
X44907Y-51743D01*
X44877Y-51744D01*
X44839Y-51745D01*
X44791Y-51745D01*
X44732Y-51746D01*
X44686Y-51746D01*
X44617Y-51747D01*
X44561Y-51747D01*
X44516Y-51747D01*
X44481Y-51746D01*
X44454Y-51746D01*
X44433Y-51744D01*
X44418Y-51743D01*
X44408Y-51741D01*
X44400Y-51738D01*
X44395Y-51736D01*
X44376Y-51722D01*
X44360Y-51705D01*
X44359Y-51704D01*
X44357Y-51699D01*
X44355Y-51694D01*
X44353Y-51686D01*
X44351Y-51676D01*
X44350Y-51661D01*
X44349Y-51642D01*
X44349Y-51617D01*
X44348Y-51585D01*
X44348Y-51545D01*
X44348Y-51497D01*
X44348Y-51438D01*
X44348Y-51369D01*
X44348Y-51289D01*
X44348Y-51195D01*
X44348Y-51187D01*
X44350Y-50692D01*
X44376Y-50669D01*
X44401Y-50645D01*
X44671Y-50645D01*
X44744Y-50645D01*
X44805Y-50646D01*
X44855Y-50646D01*
X44896Y-50647D01*
X44928Y-50649D01*
X44955Y-50652D01*
X44976Y-50656D01*
X44993Y-50661D01*
X45009Y-50668D01*
X45023Y-50676D01*
X45038Y-50685D01*
X45041Y-50687D01*
X45081Y-50721D01*
X45114Y-50766D01*
X45136Y-50808D01*
X45139Y-50817D01*
X45142Y-50826D01*
X45145Y-50836D01*
X45147Y-50847D01*
X45148Y-50863D01*
X45149Y-50883D01*
X45150Y-50909D01*
X45151Y-50942D01*
X45151Y-50983D01*
X45151Y-51034D01*
X45151Y-51096D01*
X45151Y-51170D01*
X45151Y-51196D01*
X45151Y-51546D01*
X45151Y-51546D01*
X45151Y-51546D01*
G37*
G36*
X46127Y-51748D02*
X46067Y-51748D01*
X46034Y-51747D01*
X46010Y-51744D01*
X45999Y-51740D01*
X45996Y-51733D01*
X45994Y-51719D01*
X45993Y-51696D01*
X45992Y-51662D01*
X45991Y-51618D01*
X45991Y-51562D01*
X45991Y-51493D01*
X45991Y-51493D01*
X45991Y-51255D01*
X45729Y-51256D01*
X45467Y-51258D01*
X45465Y-51497D01*
X45464Y-51565D01*
X45463Y-51620D01*
X45462Y-51664D01*
X45461Y-51697D01*
X45459Y-51720D01*
X45458Y-51735D01*
X45455Y-51742D01*
X45454Y-51742D01*
X45444Y-51745D01*
X45424Y-51747D01*
X45397Y-51748D01*
X45386Y-51748D01*
X45326Y-51748D01*
X45326Y-51196D01*
X45326Y-50645D01*
X45393Y-50647D01*
X45460Y-50649D01*
X45461Y-50890D01*
X45463Y-51132D01*
X45727Y-51132D01*
X45991Y-51132D01*
X45991Y-50899D01*
X45991Y-50844D01*
X45991Y-50792D01*
X45991Y-50747D01*
X45992Y-50709D01*
X45993Y-50680D01*
X45994Y-50661D01*
X45995Y-50656D01*
X45999Y-50651D01*
X46009Y-50647D01*
X46028Y-50646D01*
X46057Y-50645D01*
X46063Y-50645D01*
X46127Y-50645D01*
X46127Y-51196D01*
X46127Y-51748D01*
X46127Y-51748D01*
X46127Y-51748D01*
G37*
G36*
X47082Y-51419D02*
X47082Y-51440D01*
X47082Y-51490D01*
X47080Y-51530D01*
X47077Y-51561D01*
X47071Y-51586D01*
X47063Y-51608D01*
X47051Y-51629D01*
X47035Y-51651D01*
X47035Y-51652D01*
X46998Y-51691D01*
X46951Y-51721D01*
X46927Y-51733D01*
X46918Y-51735D01*
X46907Y-51738D01*
X46892Y-51740D01*
X46871Y-51741D01*
X46845Y-51743D01*
X46810Y-51744D01*
X46766Y-51744D01*
X46712Y-51745D01*
X46647Y-51746D01*
X46593Y-51746D01*
X46530Y-51747D01*
X46471Y-51747D01*
X46417Y-51747D01*
X46371Y-51747D01*
X46333Y-51746D01*
X46305Y-51745D01*
X46287Y-51744D01*
X46283Y-51744D01*
X46281Y-51735D01*
X46279Y-51716D01*
X46278Y-51691D01*
X46278Y-51689D01*
X46279Y-51659D01*
X46283Y-51639D01*
X46289Y-51629D01*
X46293Y-51626D01*
X46300Y-51624D01*
X46311Y-51622D01*
X46328Y-51620D01*
X46351Y-51619D01*
X46382Y-51619D01*
X46422Y-51618D01*
X46473Y-51618D01*
X46536Y-51618D01*
X46584Y-51618D01*
X46658Y-51618D01*
X46719Y-51617D01*
X46770Y-51617D01*
X46810Y-51616D01*
X46842Y-51614D01*
X46867Y-51612D01*
X46885Y-51608D01*
X46899Y-51604D01*
X46910Y-51598D01*
X46918Y-51591D01*
X46925Y-51582D01*
X46931Y-51574D01*
X46937Y-51564D01*
X46941Y-51553D01*
X46944Y-51538D01*
X46946Y-51517D01*
X46947Y-51486D01*
X46948Y-51457D01*
X46949Y-51418D01*
X46949Y-51391D01*
X46948Y-51372D01*
X46945Y-51361D01*
X46942Y-51353D01*
X46938Y-51350D01*
X46929Y-51345D01*
X46908Y-51337D01*
X46877Y-51326D01*
X46838Y-51312D01*
X46791Y-51295D01*
X46737Y-51277D01*
X46680Y-51257D01*
X46641Y-51245D01*
X46568Y-51220D01*
X46508Y-51200D01*
X46457Y-51182D01*
X46417Y-51168D01*
X46384Y-51155D01*
X46359Y-51144D01*
X46339Y-51134D01*
X46325Y-51124D01*
X46314Y-51115D01*
X46305Y-51105D01*
X46297Y-51093D01*
X46295Y-51090D01*
X46290Y-51080D01*
X46286Y-51068D01*
X46284Y-51053D01*
X46283Y-51032D01*
X46282Y-51003D01*
X46282Y-50962D01*
X46282Y-50950D01*
X46282Y-50893D01*
X46284Y-50849D01*
X46288Y-50817D01*
X46291Y-50803D01*
X46311Y-50755D01*
X46343Y-50715D01*
X46385Y-50683D01*
X46436Y-50660D01*
X46440Y-50659D01*
X46452Y-50656D01*
X46464Y-50653D01*
X46478Y-50650D01*
X46495Y-50649D01*
X46516Y-50647D01*
X46544Y-50646D01*
X46579Y-50646D01*
X46622Y-50645D01*
X46677Y-50645D01*
X46742Y-50645D01*
X46769Y-50645D01*
X47053Y-50645D01*
X47051Y-50705D01*
X47049Y-50765D01*
X46771Y-50768D01*
X46699Y-50769D01*
X46639Y-50770D01*
X46590Y-50771D01*
X46551Y-50773D01*
X46520Y-50775D01*
X46496Y-50778D01*
X46479Y-50782D01*
X46466Y-50787D01*
X46456Y-50793D01*
X46447Y-50801D01*
X46440Y-50811D01*
X46434Y-50818D01*
X46428Y-50829D01*
X46423Y-50840D01*
X46420Y-50856D01*
X46418Y-50879D01*
X46417Y-50911D01*
X46416Y-50928D01*
X46415Y-50966D01*
X46416Y-50993D01*
X46418Y-51012D01*
X46421Y-51025D01*
X46425Y-51032D01*
X46429Y-51037D01*
X46437Y-51042D01*
X46451Y-51048D01*
X46470Y-51056D01*
X46496Y-51066D01*
X46531Y-51079D01*
X46576Y-51094D01*
X46630Y-51112D01*
X46696Y-51134D01*
X46721Y-51142D01*
X46794Y-51166D01*
X46855Y-51186D01*
X46906Y-51203D01*
X46947Y-51218D01*
X46979Y-51230D01*
X47005Y-51241D01*
X47024Y-51251D01*
X47039Y-51261D01*
X47050Y-51270D01*
X47059Y-51280D01*
X47066Y-51292D01*
X47069Y-51297D01*
X47074Y-51306D01*
X47078Y-51317D01*
X47080Y-51332D01*
X47082Y-51352D01*
X47082Y-51380D01*
X47082Y-51419D01*
X47082Y-51419D01*
X47082Y-51419D01*
G37*
G36*
X44188Y-50379D02*
X44187Y-50415D01*
X44186Y-50443D01*
X44183Y-50463D01*
X44178Y-50478D01*
X44171Y-50491D01*
X44163Y-50501D01*
X44158Y-50506D01*
X44136Y-50529D01*
X44053Y-50529D01*
X43970Y-50529D01*
X43970Y-50509D01*
X43970Y-50489D01*
X44045Y-50487D01*
X44083Y-50484D01*
X44110Y-50481D01*
X44126Y-50477D01*
X44128Y-50476D01*
X44133Y-50465D01*
X44138Y-50445D01*
X44140Y-50425D01*
X44141Y-50402D01*
X44141Y-50390D01*
X44137Y-50387D01*
X44130Y-50388D01*
X44127Y-50389D01*
X44106Y-50393D01*
X44078Y-50395D01*
X44049Y-50394D01*
X44022Y-50391D01*
X44003Y-50386D01*
X44002Y-50385D01*
X43987Y-50376D01*
X43976Y-50366D01*
X43968Y-50351D01*
X43963Y-50331D01*
X43960Y-50303D01*
X43958Y-50265D01*
X43957Y-50233D01*
X43955Y-50125D01*
X43980Y-50125D01*
X44004Y-50125D01*
X44004Y-50222D01*
X44004Y-50267D01*
X44006Y-50300D01*
X44010Y-50323D01*
X44016Y-50338D01*
X44027Y-50346D01*
X44043Y-50350D01*
X44065Y-50350D01*
X44073Y-50351D01*
X44096Y-50350D01*
X44114Y-50347D01*
X44126Y-50341D01*
X44134Y-50328D01*
X44139Y-50308D01*
X44141Y-50278D01*
X44141Y-50237D01*
X44141Y-50222D01*
X44141Y-50124D01*
X44163Y-50126D01*
X44186Y-50128D01*
X44188Y-50275D01*
X44188Y-50333D01*
X44188Y-50379D01*
X44188Y-50379D01*
X44188Y-50379D01*
G37*
G36*
X43621Y-50305D02*
X43619Y-50336D01*
X43612Y-50359D01*
X43598Y-50376D01*
X43577Y-50387D01*
X43547Y-50394D01*
X43505Y-50398D01*
X43464Y-50399D01*
X43387Y-50399D01*
X43389Y-50376D01*
X43391Y-50354D01*
X43479Y-50351D01*
X43518Y-50349D01*
X43546Y-50346D01*
X43564Y-50342D01*
X43574Y-50335D01*
X43578Y-50325D01*
X43578Y-50312D01*
X43578Y-50310D01*
X43576Y-50303D01*
X43571Y-50297D01*
X43561Y-50292D01*
X43544Y-50286D01*
X43517Y-50278D01*
X43490Y-50272D01*
X43457Y-50263D01*
X43428Y-50255D01*
X43407Y-50249D01*
X43396Y-50245D01*
X43396Y-50245D01*
X43391Y-50236D01*
X43388Y-50217D01*
X43388Y-50202D01*
X43389Y-50179D01*
X43393Y-50163D01*
X43403Y-50151D01*
X43409Y-50144D01*
X43430Y-50125D01*
X43523Y-50125D01*
X43615Y-50125D01*
X43613Y-50143D01*
X43610Y-50162D01*
X43532Y-50164D01*
X43498Y-50166D01*
X43470Y-50168D01*
X43451Y-50171D01*
X43444Y-50174D01*
X43438Y-50186D01*
X43437Y-50199D01*
X43439Y-50207D01*
X43444Y-50214D01*
X43456Y-50219D01*
X43475Y-50225D01*
X43504Y-50232D01*
X43536Y-50240D01*
X43565Y-50247D01*
X43588Y-50253D01*
X43595Y-50255D01*
X43621Y-50262D01*
X43621Y-50305D01*
X43621Y-50305D01*
X43621Y-50305D01*
G37*
G36*
X43915Y-50395D02*
X43909Y-50397D01*
X43894Y-50399D01*
X43891Y-50399D01*
X43880Y-50398D01*
X43871Y-50395D01*
X43863Y-50386D01*
X43854Y-50371D01*
X43841Y-50346D01*
X43838Y-50340D01*
X43809Y-50282D01*
X43773Y-50282D01*
X43738Y-50282D01*
X43736Y-50339D01*
X43734Y-50395D01*
X43711Y-50397D01*
X43689Y-50399D01*
X43689Y-50193D01*
X43689Y-49987D01*
X43711Y-49989D01*
X43734Y-49991D01*
X43735Y-50117D01*
X43737Y-50243D01*
X43785Y-50240D01*
X43810Y-50237D01*
X43830Y-50233D01*
X43841Y-50229D01*
X43841Y-50229D01*
X43846Y-50218D01*
X43850Y-50198D01*
X43852Y-50173D01*
X43852Y-50172D01*
X43855Y-50125D01*
X43878Y-50125D01*
X43901Y-50125D01*
X43901Y-50161D01*
X43898Y-50206D01*
X43886Y-50241D01*
X43873Y-50259D01*
X43857Y-50276D01*
X43886Y-50334D01*
X43899Y-50359D01*
X43908Y-50380D01*
X43914Y-50393D01*
X43915Y-50395D01*
X43915Y-50395D01*
X43915Y-50395D01*
G37*
G36*
X44429Y-50399D02*
X44376Y-50398D01*
X44349Y-50397D01*
X44327Y-50396D01*
X44313Y-50394D01*
X44312Y-50394D01*
X44289Y-50385D01*
X44273Y-50373D01*
X44262Y-50357D01*
X44255Y-50335D01*
X44252Y-50303D01*
X44251Y-50259D01*
X44251Y-50258D01*
X44252Y-50212D01*
X44257Y-50178D01*
X44267Y-50153D01*
X44284Y-50138D01*
X44309Y-50129D01*
X44344Y-50125D01*
X44370Y-50125D01*
X44429Y-50125D01*
X44429Y-50145D01*
X44429Y-50166D01*
X44381Y-50166D01*
X44354Y-50167D01*
X44331Y-50169D01*
X44316Y-50172D01*
X44309Y-50176D01*
X44304Y-50181D01*
X44301Y-50189D01*
X44299Y-50205D01*
X44299Y-50229D01*
X44299Y-50257D01*
X44299Y-50298D01*
X44302Y-50326D01*
X44306Y-50341D01*
X44307Y-50342D01*
X44319Y-50347D01*
X44341Y-50350D01*
X44372Y-50351D01*
X44429Y-50351D01*
X44429Y-50375D01*
X44429Y-50399D01*
X44429Y-50399D01*
X44429Y-50399D01*
G37*
G36*
X44710Y-50284D02*
X44709Y-50330D01*
X44708Y-50362D01*
X44705Y-50382D01*
X44701Y-50390D01*
X44692Y-50393D01*
X44672Y-50396D01*
X44662Y-50396D01*
X44662Y-50351D01*
X44662Y-50308D01*
X44662Y-50265D01*
X44605Y-50267D01*
X44578Y-50269D01*
X44555Y-50272D01*
X44542Y-50276D01*
X44540Y-50277D01*
X44533Y-50290D01*
X44531Y-50309D01*
X44534Y-50328D01*
X44541Y-50342D01*
X44544Y-50343D01*
X44556Y-50347D01*
X44578Y-50349D01*
X44604Y-50350D01*
X44609Y-50350D01*
X44662Y-50351D01*
X44662Y-50396D01*
X44645Y-50397D01*
X44615Y-50398D01*
X44585Y-50398D01*
X44559Y-50396D01*
X44541Y-50394D01*
X44519Y-50383D01*
X44501Y-50362D01*
X44488Y-50335D01*
X44485Y-50318D01*
X44486Y-50283D01*
X44496Y-50257D01*
X44516Y-50238D01*
X44547Y-50226D01*
X44589Y-50221D01*
X44607Y-50220D01*
X44634Y-50220D01*
X44650Y-50219D01*
X44658Y-50216D01*
X44661Y-50211D01*
X44662Y-50204D01*
X44658Y-50187D01*
X44646Y-50176D01*
X44624Y-50169D01*
X44590Y-50166D01*
X44571Y-50166D01*
X44511Y-50166D01*
X44511Y-50145D01*
X44511Y-50125D01*
X44583Y-50125D01*
X44623Y-50125D01*
X44654Y-50129D01*
X44677Y-50138D01*
X44692Y-50152D01*
X44702Y-50174D01*
X44707Y-50206D01*
X44709Y-50248D01*
X44710Y-50284D01*
X44710Y-50284D01*
X44710Y-50284D01*
G37*
G36*
X45004Y-50399D02*
X44982Y-50397D01*
X44960Y-50395D01*
X44958Y-50287D01*
X44957Y-50244D01*
X44955Y-50212D01*
X44952Y-50190D01*
X44945Y-50176D01*
X44934Y-50169D01*
X44917Y-50166D01*
X44893Y-50166D01*
X44876Y-50167D01*
X44823Y-50169D01*
X44821Y-50284D01*
X44819Y-50399D01*
X44795Y-50399D01*
X44771Y-50399D01*
X44771Y-50277D01*
X44771Y-50227D01*
X44772Y-50190D01*
X44775Y-50163D01*
X44780Y-50145D01*
X44789Y-50133D01*
X44803Y-50127D01*
X44824Y-50125D01*
X44851Y-50124D01*
X44868Y-50125D01*
X44911Y-50125D01*
X44943Y-50128D01*
X44967Y-50136D01*
X44984Y-50149D01*
X44995Y-50169D01*
X45001Y-50198D01*
X45004Y-50238D01*
X45004Y-50289D01*
X45004Y-50399D01*
X45004Y-50399D01*
X45004Y-50399D01*
G37*
G36*
X45127Y-50390D02*
X45123Y-50397D01*
X45110Y-50399D01*
X45105Y-50399D01*
X45088Y-50397D01*
X45078Y-50394D01*
X45077Y-50394D01*
X45074Y-50385D01*
X45073Y-50368D01*
X45073Y-50366D01*
X45073Y-50351D01*
X45079Y-50345D01*
X45092Y-50345D01*
X45098Y-50345D01*
X45115Y-50348D01*
X45123Y-50354D01*
X45126Y-50369D01*
X45126Y-50373D01*
X45127Y-50390D01*
X45127Y-50390D01*
X45127Y-50390D01*
G37*
G36*
X45244Y-50399D02*
X45220Y-50399D01*
X45196Y-50399D01*
X45196Y-50262D01*
X45196Y-50125D01*
X45220Y-50125D01*
X45244Y-50125D01*
X45244Y-50262D01*
X45244Y-50399D01*
X45244Y-50399D01*
X45244Y-50399D01*
G37*
G36*
X45544Y-50243D02*
X45544Y-50275D01*
X45541Y-50319D01*
X45534Y-50352D01*
X45523Y-50374D01*
X45504Y-50388D01*
X45497Y-50390D01*
X45497Y-50260D01*
X45497Y-50223D01*
X45494Y-50197D01*
X45487Y-50180D01*
X45475Y-50171D01*
X45456Y-50167D01*
X45429Y-50166D01*
X45426Y-50166D01*
X45398Y-50167D01*
X45377Y-50170D01*
X45369Y-50174D01*
X45364Y-50185D01*
X45361Y-50207D01*
X45360Y-50235D01*
X45360Y-50266D01*
X45361Y-50296D01*
X45364Y-50322D01*
X45368Y-50341D01*
X45371Y-50347D01*
X45386Y-50354D01*
X45410Y-50358D01*
X45437Y-50358D01*
X45462Y-50354D01*
X45480Y-50347D01*
X45484Y-50344D01*
X45490Y-50336D01*
X45494Y-50325D01*
X45496Y-50309D01*
X45497Y-50283D01*
X45497Y-50260D01*
X45497Y-50390D01*
X45477Y-50396D01*
X45439Y-50398D01*
X45424Y-50399D01*
X45394Y-50398D01*
X45374Y-50396D01*
X45360Y-50392D01*
X45349Y-50386D01*
X45346Y-50383D01*
X45332Y-50370D01*
X45323Y-50356D01*
X45317Y-50338D01*
X45314Y-50313D01*
X45312Y-50279D01*
X45312Y-50258D01*
X45313Y-50211D01*
X45318Y-50176D01*
X45327Y-50152D01*
X45343Y-50135D01*
X45366Y-50126D01*
X45399Y-50122D01*
X45429Y-50121D01*
X45460Y-50122D01*
X45481Y-50124D01*
X45496Y-50128D01*
X45508Y-50135D01*
X45509Y-50136D01*
X45525Y-50152D01*
X45536Y-50173D01*
X45542Y-50203D01*
X45544Y-50243D01*
X45544Y-50243D01*
X45544Y-50243D01*
G37*
G36*
X45244Y-50025D02*
X45243Y-50041D01*
X45237Y-50048D01*
X45222Y-50049D01*
X45220Y-50049D01*
X45204Y-50048D01*
X45197Y-50042D01*
X45196Y-50027D01*
X45196Y-50025D01*
X45197Y-50009D01*
X45203Y-50003D01*
X45218Y-50001D01*
X45220Y-50001D01*
X45236Y-50002D01*
X45243Y-50008D01*
X45244Y-50023D01*
X45244Y-50025D01*
X45244Y-50025D01*
X45244Y-50025D01*
G37*
G54D11*
X42400Y-40985D02*
X42400Y-41200D01*
X42385Y-41242D01*
X42357Y-41271D01*
X42314Y-41285D01*
X42285Y-41285D01*
X42700Y-41285D02*
X42528Y-41285D01*
X42614Y-41285D02*
X42614Y-40985D01*
X42585Y-41028D01*
X42557Y-41057D01*
X42528Y-41071D01*
X55820Y-40753D02*
X55820Y-40968D01*
X55805Y-41010D01*
X55777Y-41039D01*
X55734Y-41053D01*
X55705Y-41053D01*
X55934Y-40753D02*
X56120Y-40753D01*
X56020Y-40868D01*
X56062Y-40868D01*
X56091Y-40882D01*
X56105Y-40896D01*
X56120Y-40925D01*
X56120Y-40996D01*
X56105Y-41025D01*
X56091Y-41039D01*
X56062Y-41053D01*
X55977Y-41053D01*
X55948Y-41039D01*
X55934Y-41025D01*
X46621Y-43335D02*
X46621Y-43578D01*
X46635Y-43607D01*
X46650Y-43621D01*
X46678Y-43635D01*
X46735Y-43635D01*
X46764Y-43621D01*
X46778Y-43607D01*
X46792Y-43578D01*
X46792Y-43335D01*
X47092Y-43635D02*
X46921Y-43635D01*
X47007Y-43635D02*
X47007Y-43335D01*
X46978Y-43378D01*
X46950Y-43407D01*
X46921Y-43421D01*
X40779Y-41189D02*
X40765Y-41203D01*
X40722Y-41217D01*
X40694Y-41217D01*
X40651Y-41203D01*
X40622Y-41174D01*
X40608Y-41146D01*
X40594Y-41089D01*
X40594Y-41046D01*
X40608Y-40989D01*
X40622Y-40960D01*
X40651Y-40931D01*
X40694Y-40917D01*
X40722Y-40917D01*
X40765Y-40931D01*
X40779Y-40946D01*
X41065Y-41217D02*
X40894Y-41217D01*
X40979Y-41217D02*
X40979Y-40917D01*
X40951Y-40960D01*
X40922Y-40989D01*
X40894Y-41003D01*
X46400Y-44857D02*
X46385Y-44871D01*
X46342Y-44885D01*
X46314Y-44885D01*
X46271Y-44871D01*
X46242Y-44842D01*
X46228Y-44814D01*
X46214Y-44757D01*
X46214Y-44714D01*
X46228Y-44657D01*
X46242Y-44628D01*
X46271Y-44600D01*
X46314Y-44585D01*
X46342Y-44585D01*
X46385Y-44600D01*
X46400Y-44614D01*
X46657Y-44685D02*
X46657Y-44885D01*
X46585Y-44571D02*
X46514Y-44785D01*
X46700Y-44785D01*
X46400Y-45257D02*
X46385Y-45271D01*
X46342Y-45285D01*
X46314Y-45285D01*
X46271Y-45271D01*
X46242Y-45242D01*
X46228Y-45214D01*
X46214Y-45157D01*
X46214Y-45114D01*
X46228Y-45057D01*
X46242Y-45028D01*
X46271Y-45000D01*
X46314Y-44985D01*
X46342Y-44985D01*
X46385Y-45000D01*
X46400Y-45014D01*
X46671Y-44985D02*
X46528Y-44985D01*
X46514Y-45128D01*
X46528Y-45114D01*
X46557Y-45100D01*
X46628Y-45100D01*
X46657Y-45114D01*
X46671Y-45128D01*
X46685Y-45157D01*
X46685Y-45228D01*
X46671Y-45257D01*
X46657Y-45271D01*
X46628Y-45285D01*
X46557Y-45285D01*
X46528Y-45271D01*
X46514Y-45257D01*
X46300Y-47707D02*
X46285Y-47721D01*
X46242Y-47735D01*
X46214Y-47735D01*
X46171Y-47721D01*
X46142Y-47692D01*
X46128Y-47664D01*
X46114Y-47607D01*
X46114Y-47564D01*
X46128Y-47507D01*
X46142Y-47478D01*
X46171Y-47450D01*
X46214Y-47435D01*
X46242Y-47435D01*
X46285Y-47450D01*
X46300Y-47464D01*
X46557Y-47435D02*
X46500Y-47435D01*
X46471Y-47450D01*
X46457Y-47464D01*
X46428Y-47507D01*
X46414Y-47564D01*
X46414Y-47678D01*
X46428Y-47707D01*
X46442Y-47721D01*
X46471Y-47735D01*
X46528Y-47735D01*
X46557Y-47721D01*
X46571Y-47707D01*
X46585Y-47678D01*
X46585Y-47607D01*
X46571Y-47578D01*
X46557Y-47564D01*
X46528Y-47550D01*
X46471Y-47550D01*
X46442Y-47564D01*
X46428Y-47578D01*
X46414Y-47607D01*
X46850Y-46507D02*
X46835Y-46521D01*
X46792Y-46535D01*
X46764Y-46535D01*
X46721Y-46521D01*
X46692Y-46492D01*
X46678Y-46464D01*
X46664Y-46407D01*
X46664Y-46364D01*
X46678Y-46307D01*
X46692Y-46278D01*
X46721Y-46250D01*
X46764Y-46235D01*
X46792Y-46235D01*
X46835Y-46250D01*
X46850Y-46264D01*
X46950Y-46235D02*
X47150Y-46235D01*
X47021Y-46535D01*
X47300Y-48407D02*
X47285Y-48421D01*
X47242Y-48435D01*
X47214Y-48435D01*
X47171Y-48421D01*
X47142Y-48392D01*
X47128Y-48364D01*
X47114Y-48307D01*
X47114Y-48264D01*
X47128Y-48207D01*
X47142Y-48178D01*
X47171Y-48150D01*
X47214Y-48135D01*
X47242Y-48135D01*
X47285Y-48150D01*
X47300Y-48164D01*
X47471Y-48264D02*
X47442Y-48250D01*
X47428Y-48235D01*
X47414Y-48207D01*
X47414Y-48192D01*
X47428Y-48164D01*
X47442Y-48150D01*
X47471Y-48135D01*
X47528Y-48135D01*
X47557Y-48150D01*
X47571Y-48164D01*
X47585Y-48192D01*
X47585Y-48207D01*
X47571Y-48235D01*
X47557Y-48250D01*
X47528Y-48264D01*
X47471Y-48264D01*
X47442Y-48278D01*
X47428Y-48292D01*
X47414Y-48321D01*
X47414Y-48378D01*
X47428Y-48407D01*
X47442Y-48421D01*
X47471Y-48435D01*
X47528Y-48435D01*
X47557Y-48421D01*
X47571Y-48407D01*
X47585Y-48378D01*
X47585Y-48321D01*
X47571Y-48292D01*
X47557Y-48278D01*
X47528Y-48264D01*
X49157Y-43000D02*
X49171Y-43014D01*
X49185Y-43057D01*
X49185Y-43085D01*
X49171Y-43128D01*
X49142Y-43157D01*
X49114Y-43171D01*
X49057Y-43185D01*
X49014Y-43185D01*
X48957Y-43171D01*
X48928Y-43157D01*
X48900Y-43128D01*
X48885Y-43085D01*
X48885Y-43057D01*
X48900Y-43014D01*
X48914Y-43000D01*
X49185Y-42857D02*
X49185Y-42800D01*
X49171Y-42771D01*
X49157Y-42757D01*
X49114Y-42728D01*
X49057Y-42714D01*
X48942Y-42714D01*
X48914Y-42728D01*
X48900Y-42742D01*
X48885Y-42771D01*
X48885Y-42828D01*
X48900Y-42857D01*
X48914Y-42871D01*
X48942Y-42885D01*
X49014Y-42885D01*
X49042Y-42871D01*
X49057Y-42857D01*
X49071Y-42828D01*
X49071Y-42771D01*
X49057Y-42742D01*
X49042Y-42728D01*
X49014Y-42714D01*
X51257Y-42057D02*
X51242Y-42071D01*
X51200Y-42085D01*
X51171Y-42085D01*
X51128Y-42071D01*
X51100Y-42042D01*
X51085Y-42014D01*
X51071Y-41957D01*
X51071Y-41914D01*
X51085Y-41857D01*
X51100Y-41828D01*
X51128Y-41800D01*
X51171Y-41785D01*
X51200Y-41785D01*
X51242Y-41800D01*
X51257Y-41814D01*
X51542Y-42085D02*
X51371Y-42085D01*
X51457Y-42085D02*
X51457Y-41785D01*
X51428Y-41828D01*
X51400Y-41857D01*
X51371Y-41871D01*
X51728Y-41785D02*
X51757Y-41785D01*
X51785Y-41800D01*
X51800Y-41814D01*
X51814Y-41842D01*
X51828Y-41900D01*
X51828Y-41971D01*
X51814Y-42028D01*
X51800Y-42057D01*
X51785Y-42071D01*
X51757Y-42085D01*
X51728Y-42085D01*
X51700Y-42071D01*
X51685Y-42057D01*
X51671Y-42028D01*
X51657Y-41971D01*
X51657Y-41900D01*
X51671Y-41842D01*
X51685Y-41814D01*
X51700Y-41800D01*
X51728Y-41785D01*
X50007Y-43307D02*
X49992Y-43321D01*
X49950Y-43335D01*
X49921Y-43335D01*
X49878Y-43321D01*
X49850Y-43292D01*
X49835Y-43264D01*
X49821Y-43207D01*
X49821Y-43164D01*
X49835Y-43107D01*
X49850Y-43078D01*
X49878Y-43050D01*
X49921Y-43035D01*
X49950Y-43035D01*
X49992Y-43050D01*
X50007Y-43064D01*
X50292Y-43335D02*
X50121Y-43335D01*
X50207Y-43335D02*
X50207Y-43035D01*
X50178Y-43078D01*
X50150Y-43107D01*
X50121Y-43121D01*
X50578Y-43335D02*
X50407Y-43335D01*
X50492Y-43335D02*
X50492Y-43035D01*
X50464Y-43078D01*
X50435Y-43107D01*
X50407Y-43121D01*
X50907Y-42557D02*
X50892Y-42571D01*
X50850Y-42585D01*
X50821Y-42585D01*
X50778Y-42571D01*
X50750Y-42542D01*
X50735Y-42514D01*
X50721Y-42457D01*
X50721Y-42414D01*
X50735Y-42357D01*
X50750Y-42328D01*
X50778Y-42300D01*
X50821Y-42285D01*
X50850Y-42285D01*
X50892Y-42300D01*
X50907Y-42314D01*
X51192Y-42585D02*
X51021Y-42585D01*
X51107Y-42585D02*
X51107Y-42285D01*
X51078Y-42328D01*
X51050Y-42357D01*
X51021Y-42371D01*
X51307Y-42314D02*
X51321Y-42300D01*
X51350Y-42285D01*
X51421Y-42285D01*
X51450Y-42300D01*
X51464Y-42314D01*
X51478Y-42342D01*
X51478Y-42371D01*
X51464Y-42414D01*
X51292Y-42585D01*
X51478Y-42585D01*
X40779Y-41617D02*
X40679Y-41474D01*
X40608Y-41617D02*
X40608Y-41317D01*
X40722Y-41317D01*
X40751Y-41331D01*
X40765Y-41346D01*
X40779Y-41374D01*
X40779Y-41417D01*
X40765Y-41446D01*
X40751Y-41460D01*
X40722Y-41474D01*
X40608Y-41474D01*
X41065Y-41617D02*
X40894Y-41617D01*
X40979Y-41617D02*
X40979Y-41317D01*
X40951Y-41360D01*
X40922Y-41389D01*
X40894Y-41403D01*
X44907Y-45292D02*
X44921Y-45307D01*
X44935Y-45350D01*
X44935Y-45378D01*
X44921Y-45421D01*
X44892Y-45450D01*
X44864Y-45464D01*
X44807Y-45478D01*
X44764Y-45478D01*
X44707Y-45464D01*
X44678Y-45450D01*
X44650Y-45421D01*
X44635Y-45378D01*
X44635Y-45350D01*
X44650Y-45307D01*
X44664Y-45292D01*
X44935Y-45007D02*
X44935Y-45178D01*
X44935Y-45092D02*
X44635Y-45092D01*
X44678Y-45121D01*
X44707Y-45150D01*
X44721Y-45178D01*
X44635Y-44907D02*
X44635Y-44721D01*
X44750Y-44821D01*
X44750Y-44778D01*
X44764Y-44750D01*
X44778Y-44735D01*
X44807Y-44721D01*
X44878Y-44721D01*
X44907Y-44735D01*
X44921Y-44750D01*
X44935Y-44778D01*
X44935Y-44864D01*
X44921Y-44892D01*
X44907Y-44907D01*
X44907Y-47992D02*
X44921Y-48007D01*
X44935Y-48050D01*
X44935Y-48078D01*
X44921Y-48121D01*
X44892Y-48150D01*
X44864Y-48164D01*
X44807Y-48178D01*
X44764Y-48178D01*
X44707Y-48164D01*
X44678Y-48150D01*
X44650Y-48121D01*
X44635Y-48078D01*
X44635Y-48050D01*
X44650Y-48007D01*
X44664Y-47992D01*
X44935Y-47707D02*
X44935Y-47878D01*
X44935Y-47792D02*
X44635Y-47792D01*
X44678Y-47821D01*
X44707Y-47850D01*
X44721Y-47878D01*
X44735Y-47450D02*
X44935Y-47450D01*
X44621Y-47521D02*
X44835Y-47592D01*
X44835Y-47407D01*
X51689Y-40189D02*
X51677Y-40201D01*
X51641Y-40213D01*
X51617Y-40213D01*
X51582Y-40201D01*
X51558Y-40177D01*
X51546Y-40153D01*
X51534Y-40105D01*
X51534Y-40070D01*
X51546Y-40022D01*
X51558Y-39998D01*
X51582Y-39975D01*
X51617Y-39963D01*
X51641Y-39963D01*
X51677Y-39975D01*
X51689Y-39986D01*
X51927Y-40213D02*
X51784Y-40213D01*
X51855Y-40213D02*
X51855Y-39963D01*
X51832Y-39998D01*
X51808Y-40022D01*
X51784Y-40034D01*
X52153Y-39963D02*
X52034Y-39963D01*
X52022Y-40082D01*
X52034Y-40070D01*
X52058Y-40058D01*
X52117Y-40058D01*
X52141Y-40070D01*
X52153Y-40082D01*
X52165Y-40105D01*
X52165Y-40165D01*
X52153Y-40189D01*
X52141Y-40201D01*
X52117Y-40213D01*
X52058Y-40213D01*
X52034Y-40201D01*
X52022Y-40189D01*
X52607Y-40607D02*
X52592Y-40621D01*
X52550Y-40635D01*
X52521Y-40635D01*
X52478Y-40621D01*
X52450Y-40592D01*
X52435Y-40564D01*
X52421Y-40507D01*
X52421Y-40464D01*
X52435Y-40407D01*
X52450Y-40378D01*
X52478Y-40350D01*
X52521Y-40335D01*
X52550Y-40335D01*
X52592Y-40350D01*
X52607Y-40364D01*
X52892Y-40635D02*
X52721Y-40635D01*
X52807Y-40635D02*
X52807Y-40335D01*
X52778Y-40378D01*
X52750Y-40407D01*
X52721Y-40421D01*
X53150Y-40335D02*
X53092Y-40335D01*
X53064Y-40350D01*
X53050Y-40364D01*
X53021Y-40407D01*
X53007Y-40464D01*
X53007Y-40578D01*
X53021Y-40607D01*
X53035Y-40621D01*
X53064Y-40635D01*
X53121Y-40635D01*
X53150Y-40621D01*
X53164Y-40607D01*
X53178Y-40578D01*
X53178Y-40507D01*
X53164Y-40478D01*
X53150Y-40464D01*
X53121Y-40450D01*
X53064Y-40450D01*
X53035Y-40464D01*
X53021Y-40478D01*
X53007Y-40507D01*
X50107Y-39607D02*
X50092Y-39621D01*
X50050Y-39635D01*
X50021Y-39635D01*
X49978Y-39621D01*
X49950Y-39592D01*
X49935Y-39564D01*
X49921Y-39507D01*
X49921Y-39464D01*
X49935Y-39407D01*
X49950Y-39378D01*
X49978Y-39350D01*
X50021Y-39335D01*
X50050Y-39335D01*
X50092Y-39350D01*
X50107Y-39364D01*
X50392Y-39635D02*
X50221Y-39635D01*
X50307Y-39635D02*
X50307Y-39335D01*
X50278Y-39378D01*
X50250Y-39407D01*
X50221Y-39421D01*
X50492Y-39335D02*
X50692Y-39335D01*
X50564Y-39635D01*
X47457Y-39607D02*
X47442Y-39621D01*
X47400Y-39635D01*
X47371Y-39635D01*
X47328Y-39621D01*
X47300Y-39592D01*
X47285Y-39564D01*
X47271Y-39507D01*
X47271Y-39464D01*
X47285Y-39407D01*
X47300Y-39378D01*
X47328Y-39350D01*
X47371Y-39335D01*
X47400Y-39335D01*
X47442Y-39350D01*
X47457Y-39364D01*
X47742Y-39635D02*
X47571Y-39635D01*
X47657Y-39635D02*
X47657Y-39335D01*
X47628Y-39378D01*
X47600Y-39407D01*
X47571Y-39421D01*
X47914Y-39464D02*
X47885Y-39450D01*
X47871Y-39435D01*
X47857Y-39407D01*
X47857Y-39392D01*
X47871Y-39364D01*
X47885Y-39350D01*
X47914Y-39335D01*
X47971Y-39335D01*
X48000Y-39350D01*
X48014Y-39364D01*
X48028Y-39392D01*
X48028Y-39407D01*
X48014Y-39435D01*
X48000Y-39450D01*
X47971Y-39464D01*
X47914Y-39464D01*
X47885Y-39478D01*
X47871Y-39492D01*
X47857Y-39521D01*
X47857Y-39578D01*
X47871Y-39607D01*
X47885Y-39621D01*
X47914Y-39635D01*
X47971Y-39635D01*
X48000Y-39621D01*
X48014Y-39607D01*
X48028Y-39578D01*
X48028Y-39521D01*
X48014Y-39492D01*
X48000Y-39478D01*
X47971Y-39464D01*
X52207Y-45607D02*
X52192Y-45621D01*
X52150Y-45635D01*
X52121Y-45635D01*
X52078Y-45621D01*
X52050Y-45592D01*
X52035Y-45564D01*
X52021Y-45507D01*
X52021Y-45464D01*
X52035Y-45407D01*
X52050Y-45378D01*
X52078Y-45350D01*
X52121Y-45335D01*
X52150Y-45335D01*
X52192Y-45350D01*
X52207Y-45364D01*
X52492Y-45635D02*
X52321Y-45635D01*
X52407Y-45635D02*
X52407Y-45335D01*
X52378Y-45378D01*
X52350Y-45407D01*
X52321Y-45421D01*
X52635Y-45635D02*
X52692Y-45635D01*
X52721Y-45621D01*
X52735Y-45607D01*
X52764Y-45564D01*
X52778Y-45507D01*
X52778Y-45392D01*
X52764Y-45364D01*
X52750Y-45350D01*
X52721Y-45335D01*
X52664Y-45335D01*
X52635Y-45350D01*
X52621Y-45364D01*
X52607Y-45392D01*
X52607Y-45464D01*
X52621Y-45492D01*
X52635Y-45507D01*
X52664Y-45521D01*
X52721Y-45521D01*
X52750Y-45507D01*
X52764Y-45492D01*
X52778Y-45464D01*
X52578Y-42335D02*
X52578Y-42035D01*
X52650Y-42035D01*
X52692Y-42050D01*
X52721Y-42078D01*
X52735Y-42107D01*
X52750Y-42164D01*
X52750Y-42207D01*
X52735Y-42264D01*
X52721Y-42292D01*
X52692Y-42321D01*
X52650Y-42335D01*
X52578Y-42335D01*
X53035Y-42335D02*
X52864Y-42335D01*
X52950Y-42335D02*
X52950Y-42035D01*
X52921Y-42078D01*
X52892Y-42107D01*
X52864Y-42121D01*
X42328Y-37985D02*
X42328Y-37685D01*
X42442Y-37685D01*
X42471Y-37700D01*
X42485Y-37714D01*
X42500Y-37742D01*
X42500Y-37785D01*
X42485Y-37814D01*
X42471Y-37828D01*
X42442Y-37842D01*
X42328Y-37842D01*
X42785Y-37985D02*
X42614Y-37985D01*
X42700Y-37985D02*
X42700Y-37685D01*
X42671Y-37728D01*
X42642Y-37757D01*
X42614Y-37771D01*
X52785Y-39100D02*
X52642Y-39200D01*
X52785Y-39271D02*
X52485Y-39271D01*
X52485Y-39157D01*
X52500Y-39128D01*
X52514Y-39114D01*
X52542Y-39100D01*
X52585Y-39100D01*
X52614Y-39114D01*
X52628Y-39128D01*
X52642Y-39157D01*
X52642Y-39271D01*
X52514Y-38985D02*
X52500Y-38971D01*
X52485Y-38942D01*
X52485Y-38871D01*
X52500Y-38842D01*
X52514Y-38828D01*
X52542Y-38814D01*
X52571Y-38814D01*
X52614Y-38828D01*
X52785Y-39000D01*
X52785Y-38814D01*
X52385Y-39100D02*
X52242Y-39200D01*
X52385Y-39271D02*
X52085Y-39271D01*
X52085Y-39157D01*
X52100Y-39128D01*
X52114Y-39114D01*
X52142Y-39100D01*
X52185Y-39100D01*
X52214Y-39114D01*
X52228Y-39128D01*
X52242Y-39157D01*
X52242Y-39271D01*
X52085Y-39000D02*
X52085Y-38814D01*
X52200Y-38914D01*
X52200Y-38871D01*
X52214Y-38842D01*
X52228Y-38828D01*
X52257Y-38814D01*
X52328Y-38814D01*
X52357Y-38828D01*
X52371Y-38842D01*
X52385Y-38871D01*
X52385Y-38957D01*
X52371Y-38985D01*
X52357Y-39000D01*
X49185Y-42350D02*
X49042Y-42450D01*
X49185Y-42521D02*
X48885Y-42521D01*
X48885Y-42407D01*
X48900Y-42378D01*
X48914Y-42364D01*
X48942Y-42350D01*
X48985Y-42350D01*
X49014Y-42364D01*
X49028Y-42378D01*
X49042Y-42407D01*
X49042Y-42521D01*
X48985Y-42092D02*
X49185Y-42092D01*
X48871Y-42164D02*
X49085Y-42235D01*
X49085Y-42050D01*
X51650Y-38935D02*
X51550Y-38792D01*
X51478Y-38935D02*
X51478Y-38635D01*
X51592Y-38635D01*
X51621Y-38650D01*
X51635Y-38664D01*
X51650Y-38692D01*
X51650Y-38735D01*
X51635Y-38764D01*
X51621Y-38778D01*
X51592Y-38792D01*
X51478Y-38792D01*
X51921Y-38635D02*
X51778Y-38635D01*
X51764Y-38778D01*
X51778Y-38764D01*
X51807Y-38750D01*
X51878Y-38750D01*
X51907Y-38764D01*
X51921Y-38778D01*
X51935Y-38807D01*
X51935Y-38878D01*
X51921Y-38907D01*
X51907Y-38921D01*
X51878Y-38935D01*
X51807Y-38935D01*
X51778Y-38921D01*
X51764Y-38907D01*
X51650Y-38535D02*
X51550Y-38392D01*
X51478Y-38535D02*
X51478Y-38235D01*
X51592Y-38235D01*
X51621Y-38250D01*
X51635Y-38264D01*
X51650Y-38292D01*
X51650Y-38335D01*
X51635Y-38364D01*
X51621Y-38378D01*
X51592Y-38392D01*
X51478Y-38392D01*
X51907Y-38235D02*
X51850Y-38235D01*
X51821Y-38250D01*
X51807Y-38264D01*
X51778Y-38307D01*
X51764Y-38364D01*
X51764Y-38478D01*
X51778Y-38507D01*
X51792Y-38521D01*
X51821Y-38535D01*
X51878Y-38535D01*
X51907Y-38521D01*
X51921Y-38507D01*
X51935Y-38478D01*
X51935Y-38407D01*
X51921Y-38378D01*
X51907Y-38364D01*
X51878Y-38350D01*
X51821Y-38350D01*
X51792Y-38364D01*
X51778Y-38378D01*
X51764Y-38407D01*
X48835Y-52600D02*
X48692Y-52700D01*
X48835Y-52771D02*
X48535Y-52771D01*
X48535Y-52657D01*
X48550Y-52628D01*
X48564Y-52614D01*
X48592Y-52600D01*
X48635Y-52600D01*
X48664Y-52614D01*
X48678Y-52628D01*
X48692Y-52657D01*
X48692Y-52771D01*
X48535Y-52500D02*
X48535Y-52300D01*
X48835Y-52428D01*
X49385Y-52600D02*
X49242Y-52700D01*
X49385Y-52771D02*
X49085Y-52771D01*
X49085Y-52657D01*
X49100Y-52628D01*
X49114Y-52614D01*
X49142Y-52600D01*
X49185Y-52600D01*
X49214Y-52614D01*
X49228Y-52628D01*
X49242Y-52657D01*
X49242Y-52771D01*
X49214Y-52428D02*
X49200Y-52457D01*
X49185Y-52471D01*
X49157Y-52485D01*
X49142Y-52485D01*
X49114Y-52471D01*
X49100Y-52457D01*
X49085Y-52428D01*
X49085Y-52371D01*
X49100Y-52342D01*
X49114Y-52328D01*
X49142Y-52314D01*
X49157Y-52314D01*
X49185Y-52328D01*
X49200Y-52342D01*
X49214Y-52371D01*
X49214Y-52428D01*
X49228Y-52457D01*
X49242Y-52471D01*
X49271Y-52485D01*
X49328Y-52485D01*
X49357Y-52471D01*
X49371Y-52457D01*
X49385Y-52428D01*
X49385Y-52371D01*
X49371Y-52342D01*
X49357Y-52328D01*
X49328Y-52314D01*
X49271Y-52314D01*
X49242Y-52328D01*
X49228Y-52342D01*
X49214Y-52371D01*
X49935Y-52600D02*
X49792Y-52700D01*
X49935Y-52771D02*
X49635Y-52771D01*
X49635Y-52657D01*
X49650Y-52628D01*
X49664Y-52614D01*
X49692Y-52600D01*
X49735Y-52600D01*
X49764Y-52614D01*
X49778Y-52628D01*
X49792Y-52657D01*
X49792Y-52771D01*
X49935Y-52457D02*
X49935Y-52400D01*
X49921Y-52371D01*
X49907Y-52357D01*
X49864Y-52328D01*
X49807Y-52314D01*
X49692Y-52314D01*
X49664Y-52328D01*
X49650Y-52342D01*
X49635Y-52371D01*
X49635Y-52428D01*
X49650Y-52457D01*
X49664Y-52471D01*
X49692Y-52485D01*
X49764Y-52485D01*
X49792Y-52471D01*
X49807Y-52457D01*
X49821Y-52428D01*
X49821Y-52371D01*
X49807Y-52342D01*
X49792Y-52328D01*
X49764Y-52314D01*
X46770Y-38689D02*
X46812Y-38703D01*
X46884Y-38703D01*
X46912Y-38689D01*
X46927Y-38675D01*
X46941Y-38646D01*
X46941Y-38618D01*
X46927Y-38589D01*
X46912Y-38575D01*
X46884Y-38560D01*
X46827Y-38546D01*
X46798Y-38532D01*
X46784Y-38518D01*
X46770Y-38489D01*
X46770Y-38460D01*
X46784Y-38432D01*
X46798Y-38418D01*
X46827Y-38403D01*
X46898Y-38403D01*
X46941Y-38418D01*
X47041Y-38403D02*
X47112Y-38703D01*
X47170Y-38489D01*
X47227Y-38703D01*
X47298Y-38403D01*
X47570Y-38703D02*
X47398Y-38703D01*
X47484Y-38703D02*
X47484Y-38403D01*
X47455Y-38446D01*
X47427Y-38475D01*
X47398Y-38489D01*
X52921Y-38235D02*
X52921Y-38478D01*
X52935Y-38507D01*
X52950Y-38521D01*
X52978Y-38535D01*
X53035Y-38535D01*
X53064Y-38521D01*
X53078Y-38507D01*
X53092Y-38478D01*
X53092Y-38235D01*
X53221Y-38264D02*
X53235Y-38250D01*
X53264Y-38235D01*
X53335Y-38235D01*
X53364Y-38250D01*
X53378Y-38264D01*
X53392Y-38292D01*
X53392Y-38321D01*
X53378Y-38364D01*
X53207Y-38535D01*
X53392Y-38535D01*
X50021Y-52335D02*
X50021Y-52578D01*
X50035Y-52607D01*
X50050Y-52621D01*
X50078Y-52635D01*
X50135Y-52635D01*
X50164Y-52621D01*
X50178Y-52607D01*
X50192Y-52578D01*
X50192Y-52335D01*
X50307Y-52335D02*
X50492Y-52335D01*
X50392Y-52450D01*
X50435Y-52450D01*
X50464Y-52464D01*
X50478Y-52478D01*
X50492Y-52507D01*
X50492Y-52578D01*
X50478Y-52607D01*
X50464Y-52621D01*
X50435Y-52635D01*
X50350Y-52635D01*
X50321Y-52621D01*
X50307Y-52607D01*
X52571Y-52335D02*
X52571Y-52578D01*
X52585Y-52607D01*
X52600Y-52621D01*
X52628Y-52635D01*
X52685Y-52635D01*
X52714Y-52621D01*
X52728Y-52607D01*
X52742Y-52578D01*
X52742Y-52335D01*
X53014Y-52435D02*
X53014Y-52635D01*
X52942Y-52321D02*
X52871Y-52535D01*
X53057Y-52535D01*
X45257Y-47585D02*
X45457Y-47885D01*
X45457Y-47585D02*
X45257Y-47885D01*
X45728Y-47885D02*
X45557Y-47885D01*
X45642Y-47885D02*
X45642Y-47585D01*
X45614Y-47628D01*
X45585Y-47657D01*
X45557Y-47671D01*
X47307Y-41785D02*
X47507Y-42085D01*
X47507Y-41785D02*
X47307Y-42085D01*
X47607Y-41814D02*
X47621Y-41800D01*
X47650Y-41785D01*
X47721Y-41785D01*
X47750Y-41800D01*
X47764Y-41814D01*
X47778Y-41842D01*
X47778Y-41871D01*
X47764Y-41914D01*
X47592Y-42085D01*
X47778Y-42085D01*
X51457Y-48935D02*
X51357Y-48792D01*
X51285Y-48935D02*
X51285Y-48635D01*
X51400Y-48635D01*
X51428Y-48650D01*
X51442Y-48664D01*
X51457Y-48692D01*
X51457Y-48735D01*
X51442Y-48764D01*
X51428Y-48778D01*
X51400Y-48792D01*
X51285Y-48792D01*
X51742Y-48935D02*
X51571Y-48935D01*
X51657Y-48935D02*
X51657Y-48635D01*
X51628Y-48678D01*
X51600Y-48707D01*
X51571Y-48721D01*
X51928Y-48635D02*
X51957Y-48635D01*
X51985Y-48650D01*
X52000Y-48664D01*
X52014Y-48692D01*
X52028Y-48750D01*
X52028Y-48821D01*
X52014Y-48878D01*
X52000Y-48907D01*
X51985Y-48921D01*
X51957Y-48935D01*
X51928Y-48935D01*
X51900Y-48921D01*
X51885Y-48907D01*
X51871Y-48878D01*
X51857Y-48821D01*
X51857Y-48750D01*
X51871Y-48692D01*
X51885Y-48664D01*
X51900Y-48650D01*
X51928Y-48635D01*
X51457Y-49335D02*
X51357Y-49192D01*
X51285Y-49335D02*
X51285Y-49035D01*
X51400Y-49035D01*
X51428Y-49050D01*
X51442Y-49064D01*
X51457Y-49092D01*
X51457Y-49135D01*
X51442Y-49164D01*
X51428Y-49178D01*
X51400Y-49192D01*
X51285Y-49192D01*
X51742Y-49335D02*
X51571Y-49335D01*
X51657Y-49335D02*
X51657Y-49035D01*
X51628Y-49078D01*
X51600Y-49107D01*
X51571Y-49121D01*
X52028Y-49335D02*
X51857Y-49335D01*
X51942Y-49335D02*
X51942Y-49035D01*
X51914Y-49078D01*
X51885Y-49107D01*
X51857Y-49121D01*
M02*
