G04 (created by PCBNEW (2013-mar-13)-testing) date Tue 20 Aug 2013 02:58:42 PM EEST*
%MOIN*%
G04 Gerber Fmt 3.4, Leading zero omitted, Abs format*
%FSLAX34Y34*%
G01*
G70*
G90*
G04 APERTURE LIST*
%ADD10C,0.000787*%
%ADD11C,0.005000*%
%ADD12C,0.007874*%
%ADD13C,0.004500*%
%ADD14C,0.001000*%
%ADD15C,0.005906*%
%ADD16C,0.001969*%
%ADD17C,0.011811*%
%ADD18C,0.002800*%
%ADD19C,0.004700*%
%ADD20C,0.003100*%
%ADD21C,0.002600*%
%ADD22C,0.004000*%
%ADD23C,0.003900*%
%ADD24C,0.000100*%
G04 APERTURE END LIST*
G54D10*
G54D11*
X57400Y-46135D02*
X57571Y-46135D01*
X57485Y-46435D02*
X57485Y-46135D01*
X57642Y-46135D02*
X57842Y-46435D01*
X57842Y-46135D02*
X57642Y-46435D01*
X57942Y-46350D02*
X58085Y-46350D01*
X57914Y-46435D02*
X58014Y-46135D01*
X58114Y-46435D01*
X58371Y-46435D02*
X58200Y-46435D01*
X58285Y-46435D02*
X58285Y-46135D01*
X58257Y-46178D01*
X58228Y-46207D01*
X58200Y-46221D01*
X57578Y-46035D02*
X57478Y-45892D01*
X57407Y-46035D02*
X57407Y-45735D01*
X57521Y-45735D01*
X57550Y-45750D01*
X57564Y-45764D01*
X57578Y-45792D01*
X57578Y-45835D01*
X57564Y-45864D01*
X57550Y-45878D01*
X57521Y-45892D01*
X57407Y-45892D01*
X57678Y-45735D02*
X57878Y-46035D01*
X57878Y-45735D02*
X57678Y-46035D01*
X57978Y-45950D02*
X58121Y-45950D01*
X57950Y-46035D02*
X58050Y-45735D01*
X58150Y-46035D01*
X58407Y-46035D02*
X58235Y-46035D01*
X58321Y-46035D02*
X58321Y-45735D01*
X58292Y-45778D01*
X58264Y-45807D01*
X58235Y-45821D01*
X57542Y-45435D02*
X57542Y-45635D01*
X57471Y-45321D02*
X57400Y-45535D01*
X57585Y-45535D01*
X57700Y-45607D02*
X57714Y-45621D01*
X57700Y-45635D01*
X57685Y-45621D01*
X57700Y-45607D01*
X57700Y-45635D01*
X57814Y-45335D02*
X58014Y-45335D01*
X57885Y-45635D01*
X57542Y-45035D02*
X57542Y-45235D01*
X57471Y-44921D02*
X57400Y-45135D01*
X57585Y-45135D01*
X57700Y-45207D02*
X57714Y-45221D01*
X57700Y-45235D01*
X57685Y-45221D01*
X57700Y-45207D01*
X57700Y-45235D01*
X57971Y-44935D02*
X57914Y-44935D01*
X57885Y-44950D01*
X57871Y-44964D01*
X57842Y-45007D01*
X57828Y-45064D01*
X57828Y-45178D01*
X57842Y-45207D01*
X57857Y-45221D01*
X57885Y-45235D01*
X57942Y-45235D01*
X57971Y-45221D01*
X57985Y-45207D01*
X58000Y-45178D01*
X58000Y-45107D01*
X57985Y-45078D01*
X57971Y-45064D01*
X57942Y-45050D01*
X57885Y-45050D01*
X57857Y-45064D01*
X57842Y-45078D01*
X57828Y-45107D01*
X53375Y-46607D02*
X53360Y-46621D01*
X53317Y-46635D01*
X53289Y-46635D01*
X53246Y-46621D01*
X53217Y-46592D01*
X53203Y-46564D01*
X53189Y-46507D01*
X53189Y-46464D01*
X53203Y-46407D01*
X53217Y-46378D01*
X53246Y-46350D01*
X53289Y-46335D01*
X53317Y-46335D01*
X53360Y-46350D01*
X53375Y-46364D01*
X53646Y-46635D02*
X53503Y-46635D01*
X53503Y-46335D01*
X53746Y-46635D02*
X53746Y-46335D01*
X53917Y-46635D02*
X53789Y-46464D01*
X53917Y-46335D02*
X53746Y-46507D01*
X54032Y-46550D02*
X54175Y-46550D01*
X54003Y-46635D02*
X54103Y-46335D01*
X54203Y-46635D01*
X54360Y-46335D02*
X54389Y-46335D01*
X54417Y-46350D01*
X54432Y-46364D01*
X54446Y-46392D01*
X54460Y-46450D01*
X54460Y-46521D01*
X54446Y-46578D01*
X54432Y-46607D01*
X54417Y-46621D01*
X54389Y-46635D01*
X54360Y-46635D01*
X54332Y-46621D01*
X54317Y-46607D01*
X54303Y-46578D01*
X54289Y-46521D01*
X54289Y-46450D01*
X54303Y-46392D01*
X54317Y-46364D01*
X54332Y-46350D01*
X54360Y-46335D01*
X53142Y-46221D02*
X53185Y-46235D01*
X53257Y-46235D01*
X53285Y-46221D01*
X53300Y-46207D01*
X53314Y-46178D01*
X53314Y-46150D01*
X53300Y-46121D01*
X53285Y-46107D01*
X53257Y-46092D01*
X53200Y-46078D01*
X53171Y-46064D01*
X53157Y-46050D01*
X53142Y-46021D01*
X53142Y-45992D01*
X53157Y-45964D01*
X53171Y-45950D01*
X53200Y-45935D01*
X53271Y-45935D01*
X53314Y-45950D01*
X53442Y-46235D02*
X53442Y-45935D01*
X53514Y-45935D01*
X53557Y-45950D01*
X53585Y-45978D01*
X53600Y-46007D01*
X53614Y-46064D01*
X53614Y-46107D01*
X53600Y-46164D01*
X53585Y-46192D01*
X53557Y-46221D01*
X53514Y-46235D01*
X53442Y-46235D01*
X53728Y-46150D02*
X53871Y-46150D01*
X53700Y-46235D02*
X53800Y-45935D01*
X53900Y-46235D01*
X54100Y-46078D02*
X54142Y-46092D01*
X54157Y-46107D01*
X54171Y-46135D01*
X54171Y-46178D01*
X54157Y-46207D01*
X54142Y-46221D01*
X54114Y-46235D01*
X54000Y-46235D01*
X54000Y-45935D01*
X54100Y-45935D01*
X54128Y-45950D01*
X54142Y-45964D01*
X54157Y-45992D01*
X54157Y-46021D01*
X54142Y-46050D01*
X54128Y-46064D01*
X54100Y-46078D01*
X54000Y-46078D01*
X54357Y-45935D02*
X54385Y-45935D01*
X54414Y-45950D01*
X54428Y-45964D01*
X54442Y-45992D01*
X54457Y-46050D01*
X54457Y-46121D01*
X54442Y-46178D01*
X54428Y-46207D01*
X54414Y-46221D01*
X54385Y-46235D01*
X54357Y-46235D01*
X54328Y-46221D01*
X54314Y-46207D01*
X54300Y-46178D01*
X54285Y-46121D01*
X54285Y-46050D01*
X54300Y-45992D01*
X54314Y-45964D01*
X54328Y-45950D01*
X54357Y-45935D01*
X53150Y-45821D02*
X53192Y-45835D01*
X53264Y-45835D01*
X53292Y-45821D01*
X53307Y-45807D01*
X53321Y-45778D01*
X53321Y-45750D01*
X53307Y-45721D01*
X53292Y-45707D01*
X53264Y-45692D01*
X53207Y-45678D01*
X53178Y-45664D01*
X53164Y-45650D01*
X53150Y-45621D01*
X53150Y-45592D01*
X53164Y-45564D01*
X53178Y-45550D01*
X53207Y-45535D01*
X53278Y-45535D01*
X53321Y-45550D01*
X53621Y-45807D02*
X53607Y-45821D01*
X53564Y-45835D01*
X53535Y-45835D01*
X53492Y-45821D01*
X53464Y-45792D01*
X53450Y-45764D01*
X53435Y-45707D01*
X53435Y-45664D01*
X53450Y-45607D01*
X53464Y-45578D01*
X53492Y-45550D01*
X53535Y-45535D01*
X53564Y-45535D01*
X53607Y-45550D01*
X53621Y-45564D01*
X53892Y-45835D02*
X53750Y-45835D01*
X53750Y-45535D01*
X54092Y-45678D02*
X54135Y-45692D01*
X54150Y-45707D01*
X54164Y-45735D01*
X54164Y-45778D01*
X54150Y-45807D01*
X54135Y-45821D01*
X54107Y-45835D01*
X53992Y-45835D01*
X53992Y-45535D01*
X54092Y-45535D01*
X54121Y-45550D01*
X54135Y-45564D01*
X54150Y-45592D01*
X54150Y-45621D01*
X54135Y-45650D01*
X54121Y-45664D01*
X54092Y-45678D01*
X53992Y-45678D01*
X54350Y-45535D02*
X54378Y-45535D01*
X54407Y-45550D01*
X54421Y-45564D01*
X54435Y-45592D01*
X54450Y-45650D01*
X54450Y-45721D01*
X54435Y-45778D01*
X54421Y-45807D01*
X54407Y-45821D01*
X54378Y-45835D01*
X54350Y-45835D01*
X54321Y-45821D01*
X54307Y-45807D01*
X54292Y-45778D01*
X54278Y-45721D01*
X54278Y-45650D01*
X54292Y-45592D01*
X54307Y-45564D01*
X54321Y-45550D01*
X54350Y-45535D01*
X53242Y-45421D02*
X53285Y-45435D01*
X53357Y-45435D01*
X53385Y-45421D01*
X53400Y-45407D01*
X53414Y-45378D01*
X53414Y-45350D01*
X53400Y-45321D01*
X53385Y-45307D01*
X53357Y-45292D01*
X53300Y-45278D01*
X53271Y-45264D01*
X53257Y-45250D01*
X53242Y-45221D01*
X53242Y-45192D01*
X53257Y-45164D01*
X53271Y-45150D01*
X53300Y-45135D01*
X53371Y-45135D01*
X53414Y-45150D01*
X53500Y-45135D02*
X53671Y-45135D01*
X53585Y-45435D02*
X53585Y-45135D01*
X53771Y-45278D02*
X53871Y-45278D01*
X53914Y-45435D02*
X53771Y-45435D01*
X53771Y-45135D01*
X53914Y-45135D01*
X54028Y-45350D02*
X54171Y-45350D01*
X54000Y-45435D02*
X54100Y-45135D01*
X54200Y-45435D01*
X54357Y-45135D02*
X54385Y-45135D01*
X54414Y-45150D01*
X54428Y-45164D01*
X54442Y-45192D01*
X54457Y-45250D01*
X54457Y-45321D01*
X54442Y-45378D01*
X54428Y-45407D01*
X54414Y-45421D01*
X54385Y-45435D01*
X54357Y-45435D01*
X54328Y-45421D01*
X54314Y-45407D01*
X54300Y-45378D01*
X54285Y-45321D01*
X54285Y-45250D01*
X54300Y-45192D01*
X54314Y-45164D01*
X54328Y-45150D01*
X54357Y-45135D01*
X52957Y-45035D02*
X52957Y-44735D01*
X53057Y-44950D01*
X53157Y-44735D01*
X53157Y-45035D01*
X53357Y-44735D02*
X53414Y-44735D01*
X53442Y-44750D01*
X53471Y-44778D01*
X53485Y-44835D01*
X53485Y-44935D01*
X53471Y-44992D01*
X53442Y-45021D01*
X53414Y-45035D01*
X53357Y-45035D01*
X53328Y-45021D01*
X53300Y-44992D01*
X53285Y-44935D01*
X53285Y-44835D01*
X53300Y-44778D01*
X53328Y-44750D01*
X53357Y-44735D01*
X53600Y-45021D02*
X53642Y-45035D01*
X53714Y-45035D01*
X53742Y-45021D01*
X53757Y-45007D01*
X53771Y-44978D01*
X53771Y-44950D01*
X53757Y-44921D01*
X53742Y-44907D01*
X53714Y-44892D01*
X53657Y-44878D01*
X53628Y-44864D01*
X53614Y-44850D01*
X53600Y-44821D01*
X53600Y-44792D01*
X53614Y-44764D01*
X53628Y-44750D01*
X53657Y-44735D01*
X53728Y-44735D01*
X53771Y-44750D01*
X53900Y-45035D02*
X53900Y-44735D01*
X54028Y-44950D02*
X54171Y-44950D01*
X54000Y-45035D02*
X54100Y-44735D01*
X54200Y-45035D01*
X54357Y-44735D02*
X54385Y-44735D01*
X54414Y-44750D01*
X54428Y-44764D01*
X54442Y-44792D01*
X54457Y-44850D01*
X54457Y-44921D01*
X54442Y-44978D01*
X54428Y-45007D01*
X54414Y-45021D01*
X54385Y-45035D01*
X54357Y-45035D01*
X54328Y-45021D01*
X54314Y-45007D01*
X54300Y-44978D01*
X54285Y-44921D01*
X54285Y-44850D01*
X54300Y-44792D01*
X54314Y-44764D01*
X54328Y-44750D01*
X54357Y-44735D01*
X52957Y-44635D02*
X52957Y-44335D01*
X53057Y-44550D01*
X53157Y-44335D01*
X53157Y-44635D01*
X53300Y-44635D02*
X53300Y-44335D01*
X53428Y-44621D02*
X53471Y-44635D01*
X53542Y-44635D01*
X53571Y-44621D01*
X53585Y-44607D01*
X53600Y-44578D01*
X53600Y-44550D01*
X53585Y-44521D01*
X53571Y-44507D01*
X53542Y-44492D01*
X53485Y-44478D01*
X53457Y-44464D01*
X53442Y-44450D01*
X53428Y-44421D01*
X53428Y-44392D01*
X53442Y-44364D01*
X53457Y-44350D01*
X53485Y-44335D01*
X53557Y-44335D01*
X53600Y-44350D01*
X53785Y-44335D02*
X53842Y-44335D01*
X53871Y-44350D01*
X53900Y-44378D01*
X53914Y-44435D01*
X53914Y-44535D01*
X53900Y-44592D01*
X53871Y-44621D01*
X53842Y-44635D01*
X53785Y-44635D01*
X53757Y-44621D01*
X53728Y-44592D01*
X53714Y-44535D01*
X53714Y-44435D01*
X53728Y-44378D01*
X53757Y-44350D01*
X53785Y-44335D01*
X54028Y-44550D02*
X54171Y-44550D01*
X54000Y-44635D02*
X54100Y-44335D01*
X54200Y-44635D01*
X54357Y-44335D02*
X54385Y-44335D01*
X54414Y-44350D01*
X54428Y-44364D01*
X54442Y-44392D01*
X54457Y-44450D01*
X54457Y-44521D01*
X54442Y-44578D01*
X54428Y-44607D01*
X54414Y-44621D01*
X54385Y-44635D01*
X54357Y-44635D01*
X54328Y-44621D01*
X54314Y-44607D01*
X54300Y-44578D01*
X54285Y-44521D01*
X54285Y-44450D01*
X54300Y-44392D01*
X54314Y-44364D01*
X54328Y-44350D01*
X54357Y-44335D01*
X53221Y-44221D02*
X53264Y-44235D01*
X53335Y-44235D01*
X53364Y-44221D01*
X53378Y-44207D01*
X53392Y-44178D01*
X53392Y-44150D01*
X53378Y-44121D01*
X53364Y-44107D01*
X53335Y-44092D01*
X53278Y-44078D01*
X53250Y-44064D01*
X53235Y-44050D01*
X53221Y-44021D01*
X53221Y-43992D01*
X53235Y-43964D01*
X53250Y-43950D01*
X53278Y-43935D01*
X53350Y-43935D01*
X53392Y-43950D01*
X53478Y-43935D02*
X53650Y-43935D01*
X53564Y-44235D02*
X53564Y-43935D01*
X53750Y-44078D02*
X53850Y-44078D01*
X53892Y-44235D02*
X53750Y-44235D01*
X53750Y-43935D01*
X53892Y-43935D01*
X54121Y-44078D02*
X54164Y-44092D01*
X54178Y-44107D01*
X54192Y-44135D01*
X54192Y-44178D01*
X54178Y-44207D01*
X54164Y-44221D01*
X54135Y-44235D01*
X54021Y-44235D01*
X54021Y-43935D01*
X54121Y-43935D01*
X54150Y-43950D01*
X54164Y-43964D01*
X54178Y-43992D01*
X54178Y-44021D01*
X54164Y-44050D01*
X54150Y-44064D01*
X54121Y-44078D01*
X54021Y-44078D01*
X54478Y-44235D02*
X54307Y-44235D01*
X54392Y-44235D02*
X54392Y-43935D01*
X54364Y-43978D01*
X54335Y-44007D01*
X54307Y-44021D01*
X52935Y-43835D02*
X52935Y-43535D01*
X53035Y-43750D01*
X53135Y-43535D01*
X53135Y-43835D01*
X53335Y-43535D02*
X53392Y-43535D01*
X53421Y-43550D01*
X53450Y-43578D01*
X53464Y-43635D01*
X53464Y-43735D01*
X53450Y-43792D01*
X53421Y-43821D01*
X53392Y-43835D01*
X53335Y-43835D01*
X53307Y-43821D01*
X53278Y-43792D01*
X53264Y-43735D01*
X53264Y-43635D01*
X53278Y-43578D01*
X53307Y-43550D01*
X53335Y-43535D01*
X53578Y-43821D02*
X53621Y-43835D01*
X53692Y-43835D01*
X53721Y-43821D01*
X53735Y-43807D01*
X53750Y-43778D01*
X53750Y-43750D01*
X53735Y-43721D01*
X53721Y-43707D01*
X53692Y-43692D01*
X53635Y-43678D01*
X53607Y-43664D01*
X53592Y-43650D01*
X53578Y-43621D01*
X53578Y-43592D01*
X53592Y-43564D01*
X53607Y-43550D01*
X53635Y-43535D01*
X53707Y-43535D01*
X53750Y-43550D01*
X53878Y-43835D02*
X53878Y-43535D01*
X54121Y-43678D02*
X54164Y-43692D01*
X54178Y-43707D01*
X54192Y-43735D01*
X54192Y-43778D01*
X54178Y-43807D01*
X54164Y-43821D01*
X54135Y-43835D01*
X54021Y-43835D01*
X54021Y-43535D01*
X54121Y-43535D01*
X54150Y-43550D01*
X54164Y-43564D01*
X54178Y-43592D01*
X54178Y-43621D01*
X54164Y-43650D01*
X54150Y-43664D01*
X54121Y-43678D01*
X54021Y-43678D01*
X54478Y-43835D02*
X54307Y-43835D01*
X54392Y-43835D02*
X54392Y-43535D01*
X54364Y-43578D01*
X54335Y-43607D01*
X54307Y-43621D01*
X52935Y-43435D02*
X52935Y-43135D01*
X53035Y-43350D01*
X53135Y-43135D01*
X53135Y-43435D01*
X53278Y-43435D02*
X53278Y-43135D01*
X53407Y-43421D02*
X53450Y-43435D01*
X53521Y-43435D01*
X53550Y-43421D01*
X53564Y-43407D01*
X53578Y-43378D01*
X53578Y-43350D01*
X53564Y-43321D01*
X53550Y-43307D01*
X53521Y-43292D01*
X53464Y-43278D01*
X53435Y-43264D01*
X53421Y-43250D01*
X53407Y-43221D01*
X53407Y-43192D01*
X53421Y-43164D01*
X53435Y-43150D01*
X53464Y-43135D01*
X53535Y-43135D01*
X53578Y-43150D01*
X53764Y-43135D02*
X53821Y-43135D01*
X53850Y-43150D01*
X53878Y-43178D01*
X53892Y-43235D01*
X53892Y-43335D01*
X53878Y-43392D01*
X53850Y-43421D01*
X53821Y-43435D01*
X53764Y-43435D01*
X53735Y-43421D01*
X53707Y-43392D01*
X53692Y-43335D01*
X53692Y-43235D01*
X53707Y-43178D01*
X53735Y-43150D01*
X53764Y-43135D01*
X54121Y-43278D02*
X54164Y-43292D01*
X54178Y-43307D01*
X54192Y-43335D01*
X54192Y-43378D01*
X54178Y-43407D01*
X54164Y-43421D01*
X54135Y-43435D01*
X54021Y-43435D01*
X54021Y-43135D01*
X54121Y-43135D01*
X54150Y-43150D01*
X54164Y-43164D01*
X54178Y-43192D01*
X54178Y-43221D01*
X54164Y-43250D01*
X54150Y-43264D01*
X54121Y-43278D01*
X54021Y-43278D01*
X54478Y-43435D02*
X54307Y-43435D01*
X54392Y-43435D02*
X54392Y-43135D01*
X54364Y-43178D01*
X54335Y-43207D01*
X54307Y-43221D01*
X53328Y-43007D02*
X53314Y-43021D01*
X53271Y-43035D01*
X53242Y-43035D01*
X53200Y-43021D01*
X53171Y-42992D01*
X53157Y-42964D01*
X53142Y-42907D01*
X53142Y-42864D01*
X53157Y-42807D01*
X53171Y-42778D01*
X53200Y-42750D01*
X53242Y-42735D01*
X53271Y-42735D01*
X53314Y-42750D01*
X53328Y-42764D01*
X53600Y-43035D02*
X53457Y-43035D01*
X53457Y-42735D01*
X53700Y-43035D02*
X53700Y-42735D01*
X53871Y-43035D02*
X53742Y-42864D01*
X53871Y-42735D02*
X53700Y-42907D01*
X54100Y-42878D02*
X54142Y-42892D01*
X54157Y-42907D01*
X54171Y-42935D01*
X54171Y-42978D01*
X54157Y-43007D01*
X54142Y-43021D01*
X54114Y-43035D01*
X54000Y-43035D01*
X54000Y-42735D01*
X54100Y-42735D01*
X54128Y-42750D01*
X54142Y-42764D01*
X54157Y-42792D01*
X54157Y-42821D01*
X54142Y-42850D01*
X54128Y-42864D01*
X54100Y-42878D01*
X54000Y-42878D01*
X54457Y-43035D02*
X54285Y-43035D01*
X54371Y-43035D02*
X54371Y-42735D01*
X54342Y-42778D01*
X54314Y-42807D01*
X54285Y-42821D01*
X53835Y-47692D02*
X53835Y-47507D01*
X53950Y-47607D01*
X53950Y-47564D01*
X53964Y-47535D01*
X53978Y-47521D01*
X54007Y-47507D01*
X54078Y-47507D01*
X54107Y-47521D01*
X54121Y-47535D01*
X54135Y-47564D01*
X54135Y-47650D01*
X54121Y-47678D01*
X54107Y-47692D01*
X54107Y-47378D02*
X54121Y-47364D01*
X54135Y-47378D01*
X54121Y-47392D01*
X54107Y-47378D01*
X54135Y-47378D01*
X53835Y-47264D02*
X53835Y-47078D01*
X53950Y-47178D01*
X53950Y-47135D01*
X53964Y-47107D01*
X53978Y-47092D01*
X54007Y-47078D01*
X54078Y-47078D01*
X54107Y-47092D01*
X54121Y-47107D01*
X54135Y-47135D01*
X54135Y-47221D01*
X54121Y-47250D01*
X54107Y-47264D01*
X53835Y-46992D02*
X54135Y-46892D01*
X53835Y-46792D01*
G54D12*
X54300Y-47400D02*
X54500Y-47400D01*
X54300Y-46700D02*
X54300Y-47400D01*
X54500Y-46700D02*
X54300Y-46700D01*
G54D11*
X57650Y-47328D02*
X57635Y-47357D01*
X57635Y-47400D01*
X57650Y-47442D01*
X57678Y-47471D01*
X57707Y-47485D01*
X57764Y-47500D01*
X57807Y-47500D01*
X57864Y-47485D01*
X57892Y-47471D01*
X57921Y-47442D01*
X57935Y-47400D01*
X57935Y-47371D01*
X57921Y-47328D01*
X57907Y-47314D01*
X57807Y-47314D01*
X57807Y-47371D01*
X57935Y-47185D02*
X57635Y-47185D01*
X57935Y-47014D01*
X57635Y-47014D01*
X57935Y-46871D02*
X57635Y-46871D01*
X57635Y-46800D01*
X57650Y-46757D01*
X57678Y-46728D01*
X57707Y-46714D01*
X57764Y-46700D01*
X57807Y-46700D01*
X57864Y-46714D01*
X57892Y-46728D01*
X57921Y-46757D01*
X57935Y-46800D01*
X57935Y-46871D01*
G54D12*
X57500Y-46600D02*
X57300Y-46600D01*
X57500Y-47600D02*
X57500Y-46600D01*
X57300Y-47600D02*
X57500Y-47600D01*
G54D11*
X57650Y-44528D02*
X57635Y-44557D01*
X57635Y-44600D01*
X57650Y-44642D01*
X57678Y-44671D01*
X57707Y-44685D01*
X57764Y-44700D01*
X57807Y-44700D01*
X57864Y-44685D01*
X57892Y-44671D01*
X57921Y-44642D01*
X57935Y-44600D01*
X57935Y-44571D01*
X57921Y-44528D01*
X57907Y-44514D01*
X57807Y-44514D01*
X57807Y-44571D01*
X57935Y-44385D02*
X57635Y-44385D01*
X57935Y-44214D01*
X57635Y-44214D01*
X57935Y-44071D02*
X57635Y-44071D01*
X57635Y-44000D01*
X57650Y-43957D01*
X57678Y-43928D01*
X57707Y-43914D01*
X57764Y-43900D01*
X57807Y-43900D01*
X57864Y-43914D01*
X57892Y-43928D01*
X57921Y-43957D01*
X57935Y-44000D01*
X57935Y-44071D01*
G54D12*
X57500Y-43800D02*
X57300Y-43800D01*
X57500Y-44800D02*
X57500Y-43800D01*
X57300Y-44800D02*
X57500Y-44800D01*
G54D11*
X57635Y-43542D02*
X57635Y-43357D01*
X57750Y-43457D01*
X57750Y-43414D01*
X57764Y-43385D01*
X57778Y-43371D01*
X57807Y-43357D01*
X57878Y-43357D01*
X57907Y-43371D01*
X57921Y-43385D01*
X57935Y-43414D01*
X57935Y-43500D01*
X57921Y-43528D01*
X57907Y-43542D01*
X57907Y-43228D02*
X57921Y-43214D01*
X57935Y-43228D01*
X57921Y-43242D01*
X57907Y-43228D01*
X57935Y-43228D01*
X57635Y-43114D02*
X57635Y-42928D01*
X57750Y-43028D01*
X57750Y-42985D01*
X57764Y-42957D01*
X57778Y-42942D01*
X57807Y-42928D01*
X57878Y-42928D01*
X57907Y-42942D01*
X57921Y-42957D01*
X57935Y-42985D01*
X57935Y-43071D01*
X57921Y-43100D01*
X57907Y-43114D01*
X57635Y-42842D02*
X57935Y-42742D01*
X57635Y-42642D01*
G54D12*
X57500Y-42600D02*
X57300Y-42600D01*
X57500Y-43600D02*
X57500Y-42600D01*
X57300Y-43600D02*
X57500Y-43600D01*
G54D11*
X43985Y-46750D02*
X44128Y-46750D01*
X43957Y-46835D02*
X44057Y-46535D01*
X44157Y-46835D01*
X44385Y-46535D02*
X44328Y-46535D01*
X44300Y-46550D01*
X44285Y-46564D01*
X44257Y-46607D01*
X44242Y-46664D01*
X44242Y-46778D01*
X44257Y-46807D01*
X44271Y-46821D01*
X44300Y-46835D01*
X44357Y-46835D01*
X44385Y-46821D01*
X44400Y-46807D01*
X44414Y-46778D01*
X44414Y-46707D01*
X44400Y-46678D01*
X44385Y-46664D01*
X44357Y-46650D01*
X44300Y-46650D01*
X44271Y-46664D01*
X44257Y-46678D01*
X44242Y-46707D01*
X43985Y-46350D02*
X44128Y-46350D01*
X43957Y-46435D02*
X44057Y-46135D01*
X44157Y-46435D01*
X44400Y-46135D02*
X44257Y-46135D01*
X44242Y-46278D01*
X44257Y-46264D01*
X44285Y-46250D01*
X44357Y-46250D01*
X44385Y-46264D01*
X44400Y-46278D01*
X44414Y-46307D01*
X44414Y-46378D01*
X44400Y-46407D01*
X44385Y-46421D01*
X44357Y-46435D01*
X44285Y-46435D01*
X44257Y-46421D01*
X44242Y-46407D01*
X43985Y-45950D02*
X44128Y-45950D01*
X43957Y-46035D02*
X44057Y-45735D01*
X44157Y-46035D01*
X44385Y-45835D02*
X44385Y-46035D01*
X44314Y-45721D02*
X44242Y-45935D01*
X44428Y-45935D01*
X43985Y-45550D02*
X44128Y-45550D01*
X43957Y-45635D02*
X44057Y-45335D01*
X44157Y-45635D01*
X44228Y-45335D02*
X44414Y-45335D01*
X44314Y-45450D01*
X44357Y-45450D01*
X44385Y-45464D01*
X44400Y-45478D01*
X44414Y-45507D01*
X44414Y-45578D01*
X44400Y-45607D01*
X44385Y-45621D01*
X44357Y-45635D01*
X44271Y-45635D01*
X44242Y-45621D01*
X44228Y-45607D01*
X43985Y-45150D02*
X44128Y-45150D01*
X43957Y-45235D02*
X44057Y-44935D01*
X44157Y-45235D01*
X44242Y-44964D02*
X44257Y-44950D01*
X44285Y-44935D01*
X44357Y-44935D01*
X44385Y-44950D01*
X44400Y-44964D01*
X44414Y-44992D01*
X44414Y-45021D01*
X44400Y-45064D01*
X44228Y-45235D01*
X44414Y-45235D01*
X43985Y-44750D02*
X44128Y-44750D01*
X43957Y-44835D02*
X44057Y-44535D01*
X44157Y-44835D01*
X44414Y-44835D02*
X44242Y-44835D01*
X44328Y-44835D02*
X44328Y-44535D01*
X44300Y-44578D01*
X44271Y-44607D01*
X44242Y-44621D01*
X43985Y-44350D02*
X44128Y-44350D01*
X43957Y-44435D02*
X44057Y-44135D01*
X44157Y-44435D01*
X44314Y-44135D02*
X44342Y-44135D01*
X44371Y-44150D01*
X44385Y-44164D01*
X44400Y-44192D01*
X44414Y-44250D01*
X44414Y-44321D01*
X44400Y-44378D01*
X44385Y-44407D01*
X44371Y-44421D01*
X44342Y-44435D01*
X44314Y-44435D01*
X44285Y-44421D01*
X44271Y-44407D01*
X44257Y-44378D01*
X44242Y-44321D01*
X44242Y-44250D01*
X44257Y-44192D01*
X44271Y-44164D01*
X44285Y-44150D01*
X44314Y-44135D01*
X44235Y-47842D02*
X44235Y-47657D01*
X44350Y-47757D01*
X44350Y-47714D01*
X44364Y-47685D01*
X44378Y-47671D01*
X44407Y-47657D01*
X44478Y-47657D01*
X44507Y-47671D01*
X44521Y-47685D01*
X44535Y-47714D01*
X44535Y-47800D01*
X44521Y-47828D01*
X44507Y-47842D01*
X44507Y-47528D02*
X44521Y-47514D01*
X44535Y-47528D01*
X44521Y-47542D01*
X44507Y-47528D01*
X44535Y-47528D01*
X44235Y-47414D02*
X44235Y-47228D01*
X44350Y-47328D01*
X44350Y-47285D01*
X44364Y-47257D01*
X44378Y-47242D01*
X44407Y-47228D01*
X44478Y-47228D01*
X44507Y-47242D01*
X44521Y-47257D01*
X44535Y-47285D01*
X44535Y-47371D01*
X44521Y-47400D01*
X44507Y-47414D01*
X44235Y-47142D02*
X44535Y-47042D01*
X44235Y-46942D01*
G54D12*
X44150Y-47000D02*
X43950Y-47000D01*
X44150Y-47500D02*
X44150Y-47000D01*
X43950Y-47500D02*
X44150Y-47500D01*
G54D11*
X40500Y-47778D02*
X40485Y-47807D01*
X40485Y-47850D01*
X40500Y-47892D01*
X40528Y-47921D01*
X40557Y-47935D01*
X40614Y-47950D01*
X40657Y-47950D01*
X40714Y-47935D01*
X40742Y-47921D01*
X40771Y-47892D01*
X40785Y-47850D01*
X40785Y-47821D01*
X40771Y-47778D01*
X40757Y-47764D01*
X40657Y-47764D01*
X40657Y-47821D01*
X40785Y-47635D02*
X40485Y-47635D01*
X40785Y-47464D01*
X40485Y-47464D01*
X40785Y-47321D02*
X40485Y-47321D01*
X40485Y-47250D01*
X40500Y-47207D01*
X40528Y-47178D01*
X40557Y-47164D01*
X40614Y-47150D01*
X40657Y-47150D01*
X40714Y-47164D01*
X40742Y-47178D01*
X40771Y-47207D01*
X40785Y-47250D01*
X40785Y-47321D01*
G54D12*
X40900Y-47700D02*
X41100Y-47700D01*
X40900Y-47200D02*
X40900Y-47700D01*
X41100Y-47200D02*
X40900Y-47200D01*
G54D11*
X40671Y-47035D02*
X40500Y-47035D01*
X40585Y-47035D02*
X40585Y-46735D01*
X40557Y-46778D01*
X40528Y-46807D01*
X40500Y-46821D01*
X40800Y-47007D02*
X40814Y-47021D01*
X40800Y-47035D01*
X40785Y-47021D01*
X40800Y-47007D01*
X40800Y-47035D01*
X41000Y-46735D02*
X41028Y-46735D01*
X41057Y-46750D01*
X41071Y-46764D01*
X41085Y-46792D01*
X41100Y-46850D01*
X41100Y-46921D01*
X41085Y-46978D01*
X41071Y-47007D01*
X41057Y-47021D01*
X41028Y-47035D01*
X41000Y-47035D01*
X40971Y-47021D01*
X40957Y-47007D01*
X40942Y-46978D01*
X40928Y-46921D01*
X40928Y-46850D01*
X40942Y-46792D01*
X40957Y-46764D01*
X40971Y-46750D01*
X41000Y-46735D01*
X40671Y-46635D02*
X40500Y-46635D01*
X40585Y-46635D02*
X40585Y-46335D01*
X40557Y-46378D01*
X40528Y-46407D01*
X40500Y-46421D01*
X40800Y-46607D02*
X40814Y-46621D01*
X40800Y-46635D01*
X40785Y-46621D01*
X40800Y-46607D01*
X40800Y-46635D01*
X41100Y-46635D02*
X40928Y-46635D01*
X41014Y-46635D02*
X41014Y-46335D01*
X40985Y-46378D01*
X40957Y-46407D01*
X40928Y-46421D01*
X40671Y-46235D02*
X40500Y-46235D01*
X40585Y-46235D02*
X40585Y-45935D01*
X40557Y-45978D01*
X40528Y-46007D01*
X40500Y-46021D01*
X40800Y-46207D02*
X40814Y-46221D01*
X40800Y-46235D01*
X40785Y-46221D01*
X40800Y-46207D01*
X40800Y-46235D01*
X40928Y-45964D02*
X40942Y-45950D01*
X40971Y-45935D01*
X41042Y-45935D01*
X41071Y-45950D01*
X41085Y-45964D01*
X41100Y-45992D01*
X41100Y-46021D01*
X41085Y-46064D01*
X40914Y-46235D01*
X41100Y-46235D01*
X40671Y-45835D02*
X40500Y-45835D01*
X40585Y-45835D02*
X40585Y-45535D01*
X40557Y-45578D01*
X40528Y-45607D01*
X40500Y-45621D01*
X40800Y-45807D02*
X40814Y-45821D01*
X40800Y-45835D01*
X40785Y-45821D01*
X40800Y-45807D01*
X40800Y-45835D01*
X40914Y-45535D02*
X41100Y-45535D01*
X41000Y-45650D01*
X41042Y-45650D01*
X41071Y-45664D01*
X41085Y-45678D01*
X41100Y-45707D01*
X41100Y-45778D01*
X41085Y-45807D01*
X41071Y-45821D01*
X41042Y-45835D01*
X40957Y-45835D01*
X40928Y-45821D01*
X40914Y-45807D01*
X40671Y-45435D02*
X40500Y-45435D01*
X40585Y-45435D02*
X40585Y-45135D01*
X40557Y-45178D01*
X40528Y-45207D01*
X40500Y-45221D01*
X40800Y-45407D02*
X40814Y-45421D01*
X40800Y-45435D01*
X40785Y-45421D01*
X40800Y-45407D01*
X40800Y-45435D01*
X41071Y-45235D02*
X41071Y-45435D01*
X41000Y-45121D02*
X40928Y-45335D01*
X41114Y-45335D01*
X40671Y-45035D02*
X40500Y-45035D01*
X40585Y-45035D02*
X40585Y-44735D01*
X40557Y-44778D01*
X40528Y-44807D01*
X40500Y-44821D01*
X40800Y-45007D02*
X40814Y-45021D01*
X40800Y-45035D01*
X40785Y-45021D01*
X40800Y-45007D01*
X40800Y-45035D01*
X41085Y-44735D02*
X40942Y-44735D01*
X40928Y-44878D01*
X40942Y-44864D01*
X40971Y-44850D01*
X41042Y-44850D01*
X41071Y-44864D01*
X41085Y-44878D01*
X41100Y-44907D01*
X41100Y-44978D01*
X41085Y-45007D01*
X41071Y-45021D01*
X41042Y-45035D01*
X40971Y-45035D01*
X40942Y-45021D01*
X40928Y-45007D01*
X40671Y-44635D02*
X40500Y-44635D01*
X40585Y-44635D02*
X40585Y-44335D01*
X40557Y-44378D01*
X40528Y-44407D01*
X40500Y-44421D01*
X40800Y-44607D02*
X40814Y-44621D01*
X40800Y-44635D01*
X40785Y-44621D01*
X40800Y-44607D01*
X40800Y-44635D01*
X41071Y-44335D02*
X41014Y-44335D01*
X40985Y-44350D01*
X40971Y-44364D01*
X40942Y-44407D01*
X40928Y-44464D01*
X40928Y-44578D01*
X40942Y-44607D01*
X40957Y-44621D01*
X40985Y-44635D01*
X41042Y-44635D01*
X41071Y-44621D01*
X41085Y-44607D01*
X41100Y-44578D01*
X41100Y-44507D01*
X41085Y-44478D01*
X41071Y-44464D01*
X41042Y-44450D01*
X40985Y-44450D01*
X40957Y-44464D01*
X40942Y-44478D01*
X40928Y-44507D01*
X40671Y-44235D02*
X40500Y-44235D01*
X40585Y-44235D02*
X40585Y-43935D01*
X40557Y-43978D01*
X40528Y-44007D01*
X40500Y-44021D01*
X40800Y-44207D02*
X40814Y-44221D01*
X40800Y-44235D01*
X40785Y-44221D01*
X40800Y-44207D01*
X40800Y-44235D01*
X40914Y-43935D02*
X41114Y-43935D01*
X40985Y-44235D01*
X44250Y-43728D02*
X44235Y-43757D01*
X44235Y-43800D01*
X44250Y-43842D01*
X44278Y-43871D01*
X44307Y-43885D01*
X44364Y-43900D01*
X44407Y-43900D01*
X44464Y-43885D01*
X44492Y-43871D01*
X44521Y-43842D01*
X44535Y-43800D01*
X44535Y-43771D01*
X44521Y-43728D01*
X44507Y-43714D01*
X44407Y-43714D01*
X44407Y-43771D01*
X44535Y-43585D02*
X44235Y-43585D01*
X44535Y-43414D01*
X44235Y-43414D01*
X44535Y-43271D02*
X44235Y-43271D01*
X44235Y-43200D01*
X44250Y-43157D01*
X44278Y-43128D01*
X44307Y-43114D01*
X44364Y-43100D01*
X44407Y-43100D01*
X44464Y-43114D01*
X44492Y-43128D01*
X44521Y-43157D01*
X44535Y-43200D01*
X44535Y-43271D01*
G54D12*
X44150Y-43000D02*
X43950Y-43000D01*
X44150Y-44000D02*
X44150Y-43000D01*
X43950Y-44000D02*
X44150Y-44000D01*
G54D11*
X40435Y-43742D02*
X40435Y-43557D01*
X40550Y-43657D01*
X40550Y-43614D01*
X40564Y-43585D01*
X40578Y-43571D01*
X40607Y-43557D01*
X40678Y-43557D01*
X40707Y-43571D01*
X40721Y-43585D01*
X40735Y-43614D01*
X40735Y-43700D01*
X40721Y-43728D01*
X40707Y-43742D01*
X40707Y-43428D02*
X40721Y-43414D01*
X40735Y-43428D01*
X40721Y-43442D01*
X40707Y-43428D01*
X40735Y-43428D01*
X40435Y-43314D02*
X40435Y-43128D01*
X40550Y-43228D01*
X40550Y-43185D01*
X40564Y-43157D01*
X40578Y-43142D01*
X40607Y-43128D01*
X40678Y-43128D01*
X40707Y-43142D01*
X40721Y-43157D01*
X40735Y-43185D01*
X40735Y-43271D01*
X40721Y-43300D01*
X40707Y-43314D01*
X40435Y-43042D02*
X40735Y-42942D01*
X40435Y-42842D01*
G54D12*
X40900Y-42800D02*
X41100Y-42800D01*
X40900Y-43800D02*
X40900Y-42800D01*
X41100Y-43800D02*
X40900Y-43800D01*
G54D11*
X47692Y-52946D02*
X47752Y-53113D01*
X47811Y-52946D01*
X48038Y-53113D02*
X47895Y-53113D01*
X47966Y-53113D02*
X47966Y-52863D01*
X47942Y-52898D01*
X47919Y-52922D01*
X47895Y-52934D01*
X48145Y-53089D02*
X48157Y-53101D01*
X48145Y-53113D01*
X48133Y-53101D01*
X48145Y-53089D01*
X48145Y-53113D01*
X48311Y-52863D02*
X48335Y-52863D01*
X48359Y-52875D01*
X48371Y-52886D01*
X48383Y-52910D01*
X48395Y-52958D01*
X48395Y-53017D01*
X48383Y-53065D01*
X48371Y-53089D01*
X48359Y-53101D01*
X48335Y-53113D01*
X48311Y-53113D01*
X48288Y-53101D01*
X48276Y-53089D01*
X48264Y-53065D01*
X48252Y-53017D01*
X48252Y-52958D01*
X48264Y-52910D01*
X48276Y-52886D01*
X48288Y-52875D01*
X48311Y-52863D01*
G54D13*
X49712Y-54727D02*
X49722Y-54718D01*
X49741Y-54708D01*
X49789Y-54708D01*
X49808Y-54718D01*
X49817Y-54727D01*
X49827Y-54746D01*
X49827Y-54765D01*
X49817Y-54794D01*
X49703Y-54908D01*
X49827Y-54908D01*
X49277Y-54908D02*
X49162Y-54908D01*
X49220Y-54908D02*
X49220Y-54708D01*
X49201Y-54737D01*
X49181Y-54756D01*
X49162Y-54765D01*
X48660Y-54708D02*
X48679Y-54708D01*
X48698Y-54718D01*
X48708Y-54727D01*
X48717Y-54746D01*
X48727Y-54784D01*
X48727Y-54832D01*
X48717Y-54870D01*
X48708Y-54889D01*
X48698Y-54899D01*
X48679Y-54908D01*
X48660Y-54908D01*
X48641Y-54899D01*
X48631Y-54889D01*
X48622Y-54870D01*
X48612Y-54832D01*
X48612Y-54784D01*
X48622Y-54746D01*
X48631Y-54727D01*
X48641Y-54718D01*
X48660Y-54708D01*
G54D14*
X55118Y-55118D02*
X43307Y-55118D01*
X59055Y-51181D02*
X55118Y-55118D01*
X59055Y-39370D02*
X59055Y-51181D01*
X55118Y-35433D02*
X59055Y-39370D01*
X43307Y-35433D02*
X55118Y-35433D01*
X39370Y-39370D02*
X43307Y-35433D01*
X39370Y-51181D02*
X39370Y-39370D01*
X43307Y-55118D02*
X39370Y-51181D01*
G54D15*
X35433Y-55118D02*
G75*
G03X35433Y-55118I0J0D01*
G74*
G01*
X35432Y-55118D02*
X35434Y-55118D01*
X35433Y-55117D02*
X35433Y-55119D01*
X42000Y-54000D02*
G75*
G03X42000Y-54000I0J0D01*
G74*
G01*
X41999Y-54000D02*
X42000Y-54000D01*
X42000Y-53999D02*
X42000Y-54000D01*
X47000Y-56500D02*
G75*
G03X47000Y-56500I0J0D01*
G74*
G01*
X46999Y-56500D02*
X47000Y-56500D01*
X47000Y-56499D02*
X47000Y-56500D01*
X41535Y-41732D02*
X41732Y-41732D01*
X41535Y-41732D02*
X41141Y-41732D01*
X41141Y-41732D02*
X41141Y-48818D01*
X41141Y-48818D02*
X41732Y-48818D01*
X43307Y-41732D02*
X43897Y-41732D01*
X43897Y-41732D02*
X43897Y-48818D01*
X43897Y-48818D02*
X43307Y-48818D01*
X56889Y-48622D02*
X56692Y-48622D01*
X56889Y-48622D02*
X57283Y-48622D01*
X57283Y-48622D02*
X57283Y-41535D01*
X57283Y-41535D02*
X56692Y-41535D01*
X55118Y-48622D02*
X54527Y-48622D01*
X54527Y-48622D02*
X54527Y-41535D01*
X54527Y-41535D02*
X55118Y-41535D01*
G54D16*
X50941Y-43546D02*
X50941Y-47089D01*
X50941Y-47089D02*
X47398Y-47089D01*
X47398Y-47089D02*
X47398Y-43546D01*
X47398Y-43546D02*
X50941Y-43546D01*
G54D17*
X47073Y-43841D02*
G75*
G03X47073Y-43841I-59J0D01*
G74*
G01*
G54D16*
X47398Y-43940D02*
X47792Y-43546D01*
G54D12*
X50981Y-47129D02*
X50807Y-47129D01*
X50981Y-46955D02*
X50981Y-47129D01*
X47532Y-47129D02*
X47359Y-47129D01*
X47359Y-46955D02*
X47359Y-47129D01*
X47532Y-43507D02*
X47359Y-43507D01*
X47359Y-43507D02*
X47359Y-43680D01*
X50981Y-43507D02*
X50981Y-43680D01*
X50981Y-43507D02*
X50807Y-43507D01*
G54D18*
X41450Y-41200D02*
X41650Y-41200D01*
X41650Y-41200D02*
X41650Y-40900D01*
X41650Y-40900D02*
X41450Y-40900D01*
X41250Y-41200D02*
X41050Y-41200D01*
X41050Y-41200D02*
X41050Y-40900D01*
X41050Y-40900D02*
X41250Y-40900D01*
G54D19*
X46667Y-45874D02*
X46942Y-45874D01*
X46273Y-45874D02*
X45998Y-45874D01*
X46667Y-45362D02*
X46942Y-45362D01*
X45998Y-45362D02*
X46273Y-45362D01*
X46942Y-45368D02*
X46942Y-45868D01*
X45998Y-45868D02*
X45998Y-45368D01*
G54D18*
X46370Y-45868D02*
X46170Y-45868D01*
X46170Y-45868D02*
X46170Y-46168D01*
X46170Y-46168D02*
X46370Y-46168D01*
X46570Y-45868D02*
X46770Y-45868D01*
X46770Y-45868D02*
X46770Y-46168D01*
X46770Y-46168D02*
X46570Y-46168D01*
G54D19*
X46373Y-46862D02*
X46098Y-46862D01*
X46767Y-46862D02*
X47042Y-46862D01*
X46373Y-47374D02*
X46098Y-47374D01*
X47042Y-47374D02*
X46767Y-47374D01*
X46098Y-47368D02*
X46098Y-46868D01*
X47042Y-46868D02*
X47042Y-47368D01*
G54D18*
X46770Y-46868D02*
X46970Y-46868D01*
X46970Y-46868D02*
X46970Y-46568D01*
X46970Y-46568D02*
X46770Y-46568D01*
X46570Y-46868D02*
X46370Y-46868D01*
X46370Y-46868D02*
X46370Y-46568D01*
X46370Y-46568D02*
X46570Y-46568D01*
G54D19*
X47367Y-48074D02*
X47642Y-48074D01*
X46973Y-48074D02*
X46698Y-48074D01*
X47367Y-47562D02*
X47642Y-47562D01*
X46698Y-47562D02*
X46973Y-47562D01*
X47642Y-47568D02*
X47642Y-48068D01*
X46698Y-48068D02*
X46698Y-47568D01*
G54D18*
X49570Y-42918D02*
X49570Y-42718D01*
X49570Y-42718D02*
X49270Y-42718D01*
X49270Y-42718D02*
X49270Y-42918D01*
X49570Y-43118D02*
X49570Y-43318D01*
X49570Y-43318D02*
X49270Y-43318D01*
X49270Y-43318D02*
X49270Y-43118D01*
G54D19*
X50567Y-42174D02*
X50842Y-42174D01*
X50173Y-42174D02*
X49898Y-42174D01*
X50567Y-41662D02*
X50842Y-41662D01*
X49898Y-41662D02*
X50173Y-41662D01*
X50842Y-41668D02*
X50842Y-42168D01*
X49898Y-42168D02*
X49898Y-41668D01*
G54D18*
X50120Y-42668D02*
X49920Y-42668D01*
X49920Y-42668D02*
X49920Y-42968D01*
X49920Y-42968D02*
X50120Y-42968D01*
X50320Y-42668D02*
X50520Y-42668D01*
X50520Y-42668D02*
X50520Y-42968D01*
X50520Y-42968D02*
X50320Y-42968D01*
X50120Y-42268D02*
X49920Y-42268D01*
X49920Y-42268D02*
X49920Y-42568D01*
X49920Y-42568D02*
X50120Y-42568D01*
X50320Y-42268D02*
X50520Y-42268D01*
X50520Y-42268D02*
X50520Y-42568D01*
X50520Y-42568D02*
X50320Y-42568D01*
X41250Y-41300D02*
X41050Y-41300D01*
X41050Y-41300D02*
X41050Y-41600D01*
X41050Y-41600D02*
X41250Y-41600D01*
X41450Y-41300D02*
X41650Y-41300D01*
X41650Y-41300D02*
X41650Y-41600D01*
X41650Y-41600D02*
X41450Y-41600D01*
X44620Y-45918D02*
X44620Y-46118D01*
X44620Y-46118D02*
X44920Y-46118D01*
X44920Y-46118D02*
X44920Y-45918D01*
X44620Y-45718D02*
X44620Y-45518D01*
X44620Y-45518D02*
X44920Y-45518D01*
X44920Y-45518D02*
X44920Y-45718D01*
X44920Y-46918D02*
X44920Y-46718D01*
X44920Y-46718D02*
X44620Y-46718D01*
X44620Y-46718D02*
X44620Y-46918D01*
X44920Y-47118D02*
X44920Y-47318D01*
X44920Y-47318D02*
X44620Y-47318D01*
X44620Y-47318D02*
X44620Y-47118D01*
X51820Y-39968D02*
X52020Y-39968D01*
X52020Y-39968D02*
X52020Y-39668D01*
X52020Y-39668D02*
X51820Y-39668D01*
X51620Y-39968D02*
X51420Y-39968D01*
X51420Y-39968D02*
X51420Y-39668D01*
X51420Y-39668D02*
X51620Y-39668D01*
X52720Y-39968D02*
X52520Y-39968D01*
X52520Y-39968D02*
X52520Y-40268D01*
X52520Y-40268D02*
X52720Y-40268D01*
X52920Y-39968D02*
X53120Y-39968D01*
X53120Y-39968D02*
X53120Y-40268D01*
X53120Y-40268D02*
X52920Y-40268D01*
X51120Y-39618D02*
X51320Y-39618D01*
X51320Y-39618D02*
X51320Y-39318D01*
X51320Y-39318D02*
X51120Y-39318D01*
X50920Y-39618D02*
X50720Y-39618D01*
X50720Y-39618D02*
X50720Y-39318D01*
X50720Y-39318D02*
X50920Y-39318D01*
X46820Y-39318D02*
X46620Y-39318D01*
X46620Y-39318D02*
X46620Y-39618D01*
X46620Y-39618D02*
X46820Y-39618D01*
X47020Y-39318D02*
X47220Y-39318D01*
X47220Y-39318D02*
X47220Y-39618D01*
X47220Y-39618D02*
X47020Y-39618D01*
X51370Y-45368D02*
X51170Y-45368D01*
X51170Y-45368D02*
X51170Y-45668D01*
X51170Y-45668D02*
X51370Y-45668D01*
X51570Y-45368D02*
X51770Y-45368D01*
X51770Y-45368D02*
X51770Y-45668D01*
X51770Y-45668D02*
X51570Y-45668D01*
G54D20*
X52520Y-41881D02*
G75*
G03X52520Y-41881I-62J0D01*
G74*
G01*
X52120Y-40918D02*
X52520Y-40918D01*
X52120Y-41943D02*
X52520Y-41943D01*
X52520Y-40918D02*
X52520Y-41943D01*
X52120Y-41943D02*
X52120Y-40918D01*
G54D21*
X48847Y-54195D02*
X48493Y-54195D01*
X48493Y-54195D02*
X48493Y-54352D01*
X48847Y-54352D02*
X48493Y-54352D01*
X48847Y-54195D02*
X48847Y-54352D01*
X48847Y-53684D02*
X48493Y-53684D01*
X48493Y-53684D02*
X48493Y-53841D01*
X48847Y-53841D02*
X48493Y-53841D01*
X48847Y-53684D02*
X48847Y-53841D01*
X48847Y-54018D02*
X48788Y-54018D01*
X48788Y-54018D02*
X48788Y-54136D01*
X48847Y-54136D02*
X48788Y-54136D01*
X48847Y-54018D02*
X48847Y-54136D01*
X48552Y-54018D02*
X48493Y-54018D01*
X48493Y-54018D02*
X48493Y-54136D01*
X48552Y-54136D02*
X48493Y-54136D01*
X48552Y-54018D02*
X48552Y-54136D01*
X48729Y-54018D02*
X48611Y-54018D01*
X48611Y-54018D02*
X48611Y-54136D01*
X48729Y-54136D02*
X48611Y-54136D01*
X48729Y-54018D02*
X48729Y-54136D01*
G54D22*
X48827Y-54195D02*
X48827Y-53841D01*
X48513Y-54195D02*
X48513Y-53841D01*
G54D21*
X49389Y-54192D02*
X49035Y-54192D01*
X49035Y-54192D02*
X49035Y-54349D01*
X49389Y-54349D02*
X49035Y-54349D01*
X49389Y-54192D02*
X49389Y-54349D01*
X49389Y-53681D02*
X49035Y-53681D01*
X49035Y-53681D02*
X49035Y-53838D01*
X49389Y-53838D02*
X49035Y-53838D01*
X49389Y-53681D02*
X49389Y-53838D01*
X49389Y-54015D02*
X49330Y-54015D01*
X49330Y-54015D02*
X49330Y-54133D01*
X49389Y-54133D02*
X49330Y-54133D01*
X49389Y-54015D02*
X49389Y-54133D01*
X49094Y-54015D02*
X49035Y-54015D01*
X49035Y-54015D02*
X49035Y-54133D01*
X49094Y-54133D02*
X49035Y-54133D01*
X49094Y-54015D02*
X49094Y-54133D01*
X49271Y-54015D02*
X49153Y-54015D01*
X49153Y-54015D02*
X49153Y-54133D01*
X49271Y-54133D02*
X49153Y-54133D01*
X49271Y-54015D02*
X49271Y-54133D01*
G54D22*
X49369Y-54192D02*
X49369Y-53838D01*
X49055Y-54192D02*
X49055Y-53838D01*
G54D21*
X49947Y-54195D02*
X49593Y-54195D01*
X49593Y-54195D02*
X49593Y-54352D01*
X49947Y-54352D02*
X49593Y-54352D01*
X49947Y-54195D02*
X49947Y-54352D01*
X49947Y-53684D02*
X49593Y-53684D01*
X49593Y-53684D02*
X49593Y-53841D01*
X49947Y-53841D02*
X49593Y-53841D01*
X49947Y-53684D02*
X49947Y-53841D01*
X49947Y-54018D02*
X49888Y-54018D01*
X49888Y-54018D02*
X49888Y-54136D01*
X49947Y-54136D02*
X49888Y-54136D01*
X49947Y-54018D02*
X49947Y-54136D01*
X49652Y-54018D02*
X49593Y-54018D01*
X49593Y-54018D02*
X49593Y-54136D01*
X49652Y-54136D02*
X49593Y-54136D01*
X49652Y-54018D02*
X49652Y-54136D01*
X49829Y-54018D02*
X49711Y-54018D01*
X49711Y-54018D02*
X49711Y-54136D01*
X49829Y-54136D02*
X49711Y-54136D01*
X49829Y-54018D02*
X49829Y-54136D01*
G54D22*
X49927Y-54195D02*
X49927Y-53841D01*
X49613Y-54195D02*
X49613Y-53841D01*
G54D18*
X52770Y-39518D02*
X52770Y-39318D01*
X52770Y-39318D02*
X52470Y-39318D01*
X52470Y-39318D02*
X52470Y-39518D01*
X52770Y-39718D02*
X52770Y-39918D01*
X52770Y-39918D02*
X52470Y-39918D01*
X52470Y-39918D02*
X52470Y-39718D01*
X52370Y-39518D02*
X52370Y-39318D01*
X52370Y-39318D02*
X52070Y-39318D01*
X52070Y-39318D02*
X52070Y-39518D01*
X52370Y-39718D02*
X52370Y-39918D01*
X52370Y-39918D02*
X52070Y-39918D01*
X52070Y-39918D02*
X52070Y-39718D01*
X49270Y-42468D02*
X49270Y-42668D01*
X49270Y-42668D02*
X49570Y-42668D01*
X49570Y-42668D02*
X49570Y-42468D01*
X49270Y-42268D02*
X49270Y-42068D01*
X49270Y-42068D02*
X49570Y-42068D01*
X49570Y-42068D02*
X49570Y-42268D01*
X51820Y-39618D02*
X52020Y-39618D01*
X52020Y-39618D02*
X52020Y-39318D01*
X52020Y-39318D02*
X51820Y-39318D01*
X51620Y-39618D02*
X51420Y-39618D01*
X51420Y-39618D02*
X51420Y-39318D01*
X51420Y-39318D02*
X51620Y-39318D01*
X51620Y-38968D02*
X51420Y-38968D01*
X51420Y-38968D02*
X51420Y-39268D01*
X51420Y-39268D02*
X51620Y-39268D01*
X51820Y-38968D02*
X52020Y-38968D01*
X52020Y-38968D02*
X52020Y-39268D01*
X52020Y-39268D02*
X51820Y-39268D01*
X48820Y-53018D02*
X48820Y-52818D01*
X48820Y-52818D02*
X48520Y-52818D01*
X48520Y-52818D02*
X48520Y-53018D01*
X48820Y-53218D02*
X48820Y-53418D01*
X48820Y-53418D02*
X48520Y-53418D01*
X48520Y-53418D02*
X48520Y-53218D01*
X49362Y-53018D02*
X49362Y-52818D01*
X49362Y-52818D02*
X49062Y-52818D01*
X49062Y-52818D02*
X49062Y-53018D01*
X49362Y-53218D02*
X49362Y-53418D01*
X49362Y-53418D02*
X49062Y-53418D01*
X49062Y-53418D02*
X49062Y-53218D01*
X49920Y-53018D02*
X49920Y-52818D01*
X49920Y-52818D02*
X49620Y-52818D01*
X49620Y-52818D02*
X49620Y-53018D01*
X49920Y-53218D02*
X49920Y-53418D01*
X49920Y-53418D02*
X49620Y-53418D01*
X49620Y-53418D02*
X49620Y-53218D01*
G54D15*
X48873Y-38291D02*
X45566Y-38291D01*
X45566Y-38291D02*
X45566Y-36244D01*
X45566Y-36244D02*
X48873Y-36244D01*
X48873Y-36244D02*
X48873Y-38291D01*
G54D23*
X52695Y-35874D02*
X52695Y-35796D01*
X49545Y-35874D02*
X49545Y-35796D01*
X52695Y-38000D02*
X49545Y-38000D01*
X49545Y-38000D02*
X49545Y-35874D01*
X49545Y-35796D02*
X52695Y-35796D01*
X52695Y-35874D02*
X52695Y-38000D01*
G54D11*
X49920Y-51568D02*
X49920Y-51618D01*
X49920Y-51618D02*
X52020Y-51618D01*
X52020Y-50118D02*
X49920Y-50118D01*
X49920Y-50118D02*
X49920Y-51568D01*
X49920Y-50668D02*
X50120Y-50668D01*
X50120Y-50668D02*
X50120Y-51068D01*
X50120Y-51068D02*
X49920Y-51068D01*
X52020Y-50118D02*
X52020Y-51618D01*
X52520Y-51568D02*
X52520Y-51618D01*
X52520Y-51618D02*
X54620Y-51618D01*
X54620Y-50118D02*
X52520Y-50118D01*
X52520Y-50118D02*
X52520Y-51568D01*
X52520Y-50668D02*
X52720Y-50668D01*
X52720Y-50668D02*
X52720Y-51068D01*
X52720Y-51068D02*
X52520Y-51068D01*
X54620Y-50118D02*
X54620Y-51618D01*
G54D15*
X44958Y-47559D02*
X44958Y-45276D01*
X44958Y-45276D02*
X45981Y-45276D01*
X45981Y-45276D02*
X45981Y-47559D01*
X45981Y-47559D02*
X44958Y-47559D01*
X45233Y-46536D02*
X45706Y-46536D01*
X45666Y-46300D02*
X45706Y-46300D01*
X45233Y-46300D02*
X45666Y-46300D01*
X46607Y-40116D02*
X46607Y-40156D01*
X46607Y-41612D02*
X46607Y-41179D01*
X46607Y-41612D02*
X51332Y-41612D01*
X51332Y-41612D02*
X51332Y-41179D01*
X46607Y-39723D02*
X46607Y-40116D01*
X46607Y-39723D02*
X51332Y-39723D01*
X51332Y-39723D02*
X51332Y-40156D01*
G54D18*
X50820Y-48668D02*
X50620Y-48668D01*
X50620Y-48668D02*
X50620Y-48968D01*
X50620Y-48968D02*
X50820Y-48968D01*
X51020Y-48668D02*
X51220Y-48668D01*
X51220Y-48668D02*
X51220Y-48968D01*
X51220Y-48968D02*
X51020Y-48968D01*
X50820Y-49068D02*
X50620Y-49068D01*
X50620Y-49068D02*
X50620Y-49368D01*
X50620Y-49368D02*
X50820Y-49368D01*
X51020Y-49068D02*
X51220Y-49068D01*
X51220Y-49068D02*
X51220Y-49368D01*
X51220Y-49368D02*
X51020Y-49368D01*
G54D24*
G36*
X45583Y-51645D02*
X45581Y-51705D01*
X45579Y-51765D01*
X45322Y-51768D01*
X45256Y-51769D01*
X45202Y-51770D01*
X45159Y-51771D01*
X45126Y-51772D01*
X45100Y-51773D01*
X45081Y-51775D01*
X45067Y-51776D01*
X45057Y-51779D01*
X45050Y-51782D01*
X45043Y-51786D01*
X45040Y-51788D01*
X45018Y-51807D01*
X45001Y-51832D01*
X45000Y-51833D01*
X44997Y-51840D01*
X44994Y-51847D01*
X44992Y-51856D01*
X44990Y-51868D01*
X44989Y-51883D01*
X44988Y-51904D01*
X44987Y-51931D01*
X44987Y-51966D01*
X44987Y-52009D01*
X44987Y-52063D01*
X44987Y-52128D01*
X44988Y-52205D01*
X44988Y-52205D01*
X44988Y-52283D01*
X44989Y-52347D01*
X44989Y-52401D01*
X44990Y-52444D01*
X44991Y-52479D01*
X44991Y-52505D01*
X44993Y-52525D01*
X44994Y-52540D01*
X44996Y-52550D01*
X44998Y-52557D01*
X45001Y-52563D01*
X45004Y-52568D01*
X45020Y-52585D01*
X45039Y-52601D01*
X45041Y-52602D01*
X45047Y-52606D01*
X45054Y-52609D01*
X45062Y-52612D01*
X45073Y-52614D01*
X45089Y-52615D01*
X45111Y-52616D01*
X45140Y-52617D01*
X45179Y-52617D01*
X45227Y-52618D01*
X45287Y-52618D01*
X45315Y-52618D01*
X45385Y-52618D01*
X45443Y-52618D01*
X45489Y-52619D01*
X45524Y-52620D01*
X45549Y-52621D01*
X45565Y-52623D01*
X45573Y-52625D01*
X45574Y-52626D01*
X45578Y-52638D01*
X45581Y-52660D01*
X45582Y-52691D01*
X45582Y-52748D01*
X45334Y-52747D01*
X45276Y-52747D01*
X45220Y-52746D01*
X45170Y-52745D01*
X45126Y-52744D01*
X45091Y-52743D01*
X45066Y-52742D01*
X45053Y-52741D01*
X45005Y-52726D01*
X44958Y-52700D01*
X44917Y-52665D01*
X44884Y-52623D01*
X44871Y-52599D01*
X44853Y-52560D01*
X44853Y-52196D01*
X44853Y-51834D01*
X44872Y-51792D01*
X44901Y-51745D01*
X44940Y-51704D01*
X44987Y-51672D01*
X44997Y-51668D01*
X45038Y-51649D01*
X45310Y-51647D01*
X45583Y-51645D01*
X45583Y-51645D01*
X45583Y-51645D01*
G37*
G36*
X46551Y-52546D02*
X46535Y-52587D01*
X46513Y-52628D01*
X46480Y-52667D01*
X46442Y-52700D01*
X46411Y-52719D01*
X46411Y-52294D01*
X46411Y-52216D01*
X46411Y-52193D01*
X46411Y-51846D01*
X46396Y-51822D01*
X46380Y-51805D01*
X46358Y-51789D01*
X46350Y-51784D01*
X46340Y-51779D01*
X46331Y-51776D01*
X46320Y-51773D01*
X46306Y-51771D01*
X46287Y-51770D01*
X46260Y-51769D01*
X46226Y-51769D01*
X46181Y-51768D01*
X46125Y-51768D01*
X46115Y-51768D01*
X46051Y-51769D01*
X45998Y-51769D01*
X45954Y-51770D01*
X45922Y-51772D01*
X45903Y-51774D01*
X45897Y-51775D01*
X45894Y-51777D01*
X45892Y-51780D01*
X45890Y-51786D01*
X45888Y-51794D01*
X45887Y-51807D01*
X45886Y-51826D01*
X45885Y-51850D01*
X45884Y-51883D01*
X45884Y-51923D01*
X45884Y-51973D01*
X45884Y-52034D01*
X45884Y-52107D01*
X45884Y-52192D01*
X45884Y-52283D01*
X45884Y-52360D01*
X45884Y-52426D01*
X45885Y-52480D01*
X45886Y-52524D01*
X45886Y-52557D01*
X45888Y-52582D01*
X45889Y-52599D01*
X45891Y-52608D01*
X45892Y-52609D01*
X45898Y-52612D01*
X45913Y-52614D01*
X45937Y-52615D01*
X45972Y-52617D01*
X46017Y-52617D01*
X46074Y-52617D01*
X46116Y-52618D01*
X46176Y-52617D01*
X46224Y-52617D01*
X46262Y-52617D01*
X46290Y-52616D01*
X46312Y-52615D01*
X46327Y-52613D01*
X46338Y-52611D01*
X46347Y-52608D01*
X46355Y-52604D01*
X46359Y-52602D01*
X46370Y-52596D01*
X46380Y-52590D01*
X46387Y-52583D01*
X46394Y-52574D01*
X46399Y-52562D01*
X46403Y-52545D01*
X46406Y-52524D01*
X46408Y-52495D01*
X46410Y-52459D01*
X46410Y-52415D01*
X46411Y-52360D01*
X46411Y-52294D01*
X46411Y-52719D01*
X46402Y-52724D01*
X46394Y-52728D01*
X46383Y-52732D01*
X46373Y-52735D01*
X46362Y-52738D01*
X46348Y-52740D01*
X46330Y-52742D01*
X46307Y-52743D01*
X46277Y-52744D01*
X46239Y-52745D01*
X46191Y-52745D01*
X46132Y-52746D01*
X46086Y-52746D01*
X46017Y-52747D01*
X45961Y-52747D01*
X45916Y-52747D01*
X45881Y-52746D01*
X45854Y-52746D01*
X45833Y-52744D01*
X45818Y-52743D01*
X45808Y-52741D01*
X45800Y-52738D01*
X45795Y-52736D01*
X45776Y-52722D01*
X45760Y-52705D01*
X45759Y-52704D01*
X45757Y-52699D01*
X45755Y-52694D01*
X45753Y-52686D01*
X45751Y-52676D01*
X45750Y-52661D01*
X45749Y-52642D01*
X45749Y-52617D01*
X45748Y-52585D01*
X45748Y-52545D01*
X45748Y-52497D01*
X45748Y-52438D01*
X45748Y-52369D01*
X45748Y-52289D01*
X45748Y-52195D01*
X45748Y-52187D01*
X45750Y-51692D01*
X45776Y-51669D01*
X45801Y-51645D01*
X46071Y-51645D01*
X46144Y-51645D01*
X46205Y-51646D01*
X46255Y-51646D01*
X46296Y-51647D01*
X46328Y-51649D01*
X46355Y-51652D01*
X46376Y-51656D01*
X46393Y-51661D01*
X46409Y-51668D01*
X46423Y-51676D01*
X46438Y-51685D01*
X46441Y-51687D01*
X46481Y-51721D01*
X46514Y-51766D01*
X46536Y-51808D01*
X46539Y-51817D01*
X46542Y-51826D01*
X46545Y-51836D01*
X46547Y-51847D01*
X46548Y-51863D01*
X46549Y-51883D01*
X46550Y-51909D01*
X46551Y-51942D01*
X46551Y-51983D01*
X46551Y-52034D01*
X46551Y-52096D01*
X46551Y-52170D01*
X46551Y-52196D01*
X46551Y-52546D01*
X46551Y-52546D01*
X46551Y-52546D01*
G37*
G36*
X47527Y-52748D02*
X47467Y-52748D01*
X47434Y-52747D01*
X47410Y-52744D01*
X47399Y-52740D01*
X47396Y-52733D01*
X47394Y-52719D01*
X47393Y-52696D01*
X47392Y-52662D01*
X47391Y-52618D01*
X47391Y-52562D01*
X47391Y-52493D01*
X47391Y-52493D01*
X47391Y-52255D01*
X47129Y-52256D01*
X46867Y-52258D01*
X46865Y-52497D01*
X46864Y-52565D01*
X46863Y-52620D01*
X46862Y-52664D01*
X46861Y-52697D01*
X46859Y-52720D01*
X46858Y-52735D01*
X46855Y-52742D01*
X46854Y-52742D01*
X46844Y-52745D01*
X46824Y-52747D01*
X46797Y-52748D01*
X46786Y-52748D01*
X46726Y-52748D01*
X46726Y-52196D01*
X46726Y-51645D01*
X46793Y-51647D01*
X46860Y-51649D01*
X46861Y-51890D01*
X46863Y-52132D01*
X47127Y-52132D01*
X47391Y-52132D01*
X47391Y-51899D01*
X47391Y-51844D01*
X47391Y-51792D01*
X47391Y-51747D01*
X47392Y-51709D01*
X47393Y-51680D01*
X47394Y-51661D01*
X47395Y-51656D01*
X47399Y-51651D01*
X47409Y-51647D01*
X47428Y-51646D01*
X47457Y-51645D01*
X47463Y-51645D01*
X47527Y-51645D01*
X47527Y-52196D01*
X47527Y-52748D01*
X47527Y-52748D01*
X47527Y-52748D01*
G37*
G36*
X48482Y-52419D02*
X48482Y-52440D01*
X48482Y-52490D01*
X48480Y-52530D01*
X48477Y-52561D01*
X48471Y-52586D01*
X48463Y-52608D01*
X48451Y-52629D01*
X48435Y-52651D01*
X48435Y-52652D01*
X48398Y-52691D01*
X48351Y-52721D01*
X48327Y-52733D01*
X48318Y-52735D01*
X48307Y-52738D01*
X48292Y-52740D01*
X48271Y-52741D01*
X48245Y-52743D01*
X48210Y-52744D01*
X48166Y-52744D01*
X48112Y-52745D01*
X48047Y-52746D01*
X47993Y-52746D01*
X47930Y-52747D01*
X47871Y-52747D01*
X47817Y-52747D01*
X47771Y-52747D01*
X47733Y-52746D01*
X47705Y-52745D01*
X47687Y-52744D01*
X47683Y-52744D01*
X47681Y-52735D01*
X47679Y-52716D01*
X47678Y-52691D01*
X47678Y-52689D01*
X47679Y-52659D01*
X47683Y-52639D01*
X47689Y-52629D01*
X47693Y-52626D01*
X47700Y-52624D01*
X47711Y-52622D01*
X47728Y-52620D01*
X47751Y-52619D01*
X47782Y-52619D01*
X47822Y-52618D01*
X47873Y-52618D01*
X47936Y-52618D01*
X47984Y-52618D01*
X48058Y-52618D01*
X48119Y-52617D01*
X48170Y-52617D01*
X48210Y-52616D01*
X48242Y-52614D01*
X48267Y-52612D01*
X48285Y-52608D01*
X48299Y-52604D01*
X48310Y-52598D01*
X48318Y-52591D01*
X48325Y-52582D01*
X48331Y-52574D01*
X48337Y-52564D01*
X48341Y-52553D01*
X48344Y-52538D01*
X48346Y-52517D01*
X48347Y-52486D01*
X48348Y-52457D01*
X48349Y-52418D01*
X48349Y-52391D01*
X48348Y-52372D01*
X48345Y-52361D01*
X48342Y-52353D01*
X48338Y-52350D01*
X48329Y-52345D01*
X48308Y-52337D01*
X48277Y-52326D01*
X48238Y-52312D01*
X48191Y-52295D01*
X48137Y-52277D01*
X48080Y-52257D01*
X48041Y-52245D01*
X47968Y-52220D01*
X47908Y-52200D01*
X47857Y-52182D01*
X47817Y-52168D01*
X47784Y-52155D01*
X47759Y-52144D01*
X47739Y-52134D01*
X47725Y-52124D01*
X47714Y-52115D01*
X47705Y-52105D01*
X47697Y-52093D01*
X47695Y-52090D01*
X47690Y-52080D01*
X47686Y-52068D01*
X47684Y-52053D01*
X47683Y-52032D01*
X47682Y-52003D01*
X47682Y-51962D01*
X47682Y-51950D01*
X47682Y-51893D01*
X47684Y-51849D01*
X47688Y-51817D01*
X47691Y-51803D01*
X47711Y-51755D01*
X47743Y-51715D01*
X47785Y-51683D01*
X47836Y-51660D01*
X47840Y-51659D01*
X47852Y-51656D01*
X47864Y-51653D01*
X47878Y-51650D01*
X47895Y-51649D01*
X47916Y-51647D01*
X47944Y-51646D01*
X47979Y-51646D01*
X48022Y-51645D01*
X48077Y-51645D01*
X48142Y-51645D01*
X48169Y-51645D01*
X48453Y-51645D01*
X48451Y-51705D01*
X48449Y-51765D01*
X48171Y-51768D01*
X48099Y-51769D01*
X48039Y-51770D01*
X47990Y-51771D01*
X47951Y-51773D01*
X47920Y-51775D01*
X47896Y-51778D01*
X47879Y-51782D01*
X47866Y-51787D01*
X47856Y-51793D01*
X47847Y-51801D01*
X47840Y-51811D01*
X47834Y-51818D01*
X47828Y-51829D01*
X47823Y-51840D01*
X47820Y-51856D01*
X47818Y-51879D01*
X47817Y-51911D01*
X47816Y-51928D01*
X47815Y-51966D01*
X47816Y-51993D01*
X47818Y-52012D01*
X47821Y-52025D01*
X47825Y-52032D01*
X47829Y-52037D01*
X47837Y-52042D01*
X47851Y-52048D01*
X47870Y-52056D01*
X47896Y-52066D01*
X47931Y-52079D01*
X47976Y-52094D01*
X48030Y-52112D01*
X48096Y-52134D01*
X48121Y-52142D01*
X48194Y-52166D01*
X48255Y-52186D01*
X48306Y-52203D01*
X48347Y-52218D01*
X48379Y-52230D01*
X48405Y-52241D01*
X48424Y-52251D01*
X48439Y-52261D01*
X48450Y-52270D01*
X48459Y-52280D01*
X48466Y-52292D01*
X48469Y-52297D01*
X48474Y-52306D01*
X48478Y-52317D01*
X48480Y-52332D01*
X48482Y-52352D01*
X48482Y-52380D01*
X48482Y-52419D01*
X48482Y-52419D01*
X48482Y-52419D01*
G37*
G36*
X45588Y-51379D02*
X45587Y-51415D01*
X45586Y-51443D01*
X45583Y-51463D01*
X45578Y-51478D01*
X45571Y-51491D01*
X45563Y-51501D01*
X45558Y-51506D01*
X45536Y-51529D01*
X45453Y-51529D01*
X45370Y-51529D01*
X45370Y-51509D01*
X45370Y-51489D01*
X45445Y-51487D01*
X45483Y-51484D01*
X45510Y-51481D01*
X45526Y-51477D01*
X45528Y-51476D01*
X45533Y-51465D01*
X45538Y-51445D01*
X45540Y-51425D01*
X45541Y-51402D01*
X45541Y-51390D01*
X45537Y-51387D01*
X45530Y-51388D01*
X45527Y-51389D01*
X45506Y-51393D01*
X45478Y-51395D01*
X45449Y-51394D01*
X45422Y-51391D01*
X45403Y-51386D01*
X45402Y-51385D01*
X45387Y-51376D01*
X45376Y-51366D01*
X45368Y-51351D01*
X45363Y-51331D01*
X45360Y-51303D01*
X45358Y-51265D01*
X45357Y-51233D01*
X45355Y-51125D01*
X45380Y-51125D01*
X45404Y-51125D01*
X45404Y-51222D01*
X45404Y-51267D01*
X45406Y-51300D01*
X45410Y-51323D01*
X45416Y-51338D01*
X45427Y-51346D01*
X45443Y-51350D01*
X45465Y-51350D01*
X45473Y-51351D01*
X45496Y-51350D01*
X45514Y-51347D01*
X45526Y-51341D01*
X45534Y-51328D01*
X45539Y-51308D01*
X45541Y-51278D01*
X45541Y-51237D01*
X45541Y-51222D01*
X45541Y-51124D01*
X45563Y-51126D01*
X45586Y-51128D01*
X45588Y-51275D01*
X45588Y-51333D01*
X45588Y-51379D01*
X45588Y-51379D01*
X45588Y-51379D01*
G37*
G36*
X45021Y-51305D02*
X45019Y-51336D01*
X45012Y-51359D01*
X44998Y-51376D01*
X44977Y-51387D01*
X44947Y-51394D01*
X44905Y-51398D01*
X44864Y-51399D01*
X44787Y-51399D01*
X44789Y-51376D01*
X44791Y-51354D01*
X44879Y-51351D01*
X44918Y-51349D01*
X44946Y-51346D01*
X44964Y-51342D01*
X44974Y-51335D01*
X44978Y-51325D01*
X44978Y-51312D01*
X44978Y-51310D01*
X44976Y-51303D01*
X44971Y-51297D01*
X44961Y-51292D01*
X44944Y-51286D01*
X44917Y-51278D01*
X44890Y-51272D01*
X44857Y-51263D01*
X44828Y-51255D01*
X44807Y-51249D01*
X44796Y-51245D01*
X44796Y-51245D01*
X44791Y-51236D01*
X44788Y-51217D01*
X44788Y-51202D01*
X44789Y-51179D01*
X44793Y-51163D01*
X44803Y-51151D01*
X44809Y-51144D01*
X44830Y-51125D01*
X44923Y-51125D01*
X45015Y-51125D01*
X45013Y-51143D01*
X45010Y-51162D01*
X44932Y-51164D01*
X44898Y-51166D01*
X44870Y-51168D01*
X44851Y-51171D01*
X44844Y-51174D01*
X44838Y-51186D01*
X44837Y-51199D01*
X44839Y-51207D01*
X44844Y-51214D01*
X44856Y-51219D01*
X44875Y-51225D01*
X44904Y-51232D01*
X44936Y-51240D01*
X44965Y-51247D01*
X44988Y-51253D01*
X44995Y-51255D01*
X45021Y-51262D01*
X45021Y-51305D01*
X45021Y-51305D01*
X45021Y-51305D01*
G37*
G36*
X45315Y-51395D02*
X45309Y-51397D01*
X45294Y-51399D01*
X45291Y-51399D01*
X45280Y-51398D01*
X45271Y-51395D01*
X45263Y-51386D01*
X45254Y-51371D01*
X45241Y-51346D01*
X45238Y-51340D01*
X45209Y-51282D01*
X45173Y-51282D01*
X45138Y-51282D01*
X45136Y-51339D01*
X45134Y-51395D01*
X45111Y-51397D01*
X45089Y-51399D01*
X45089Y-51193D01*
X45089Y-50987D01*
X45111Y-50989D01*
X45134Y-50991D01*
X45135Y-51117D01*
X45137Y-51243D01*
X45185Y-51240D01*
X45210Y-51237D01*
X45230Y-51233D01*
X45241Y-51229D01*
X45241Y-51229D01*
X45246Y-51218D01*
X45250Y-51198D01*
X45252Y-51173D01*
X45252Y-51172D01*
X45255Y-51125D01*
X45278Y-51125D01*
X45301Y-51125D01*
X45301Y-51161D01*
X45298Y-51206D01*
X45286Y-51241D01*
X45273Y-51259D01*
X45257Y-51276D01*
X45286Y-51334D01*
X45299Y-51359D01*
X45308Y-51380D01*
X45314Y-51393D01*
X45315Y-51395D01*
X45315Y-51395D01*
X45315Y-51395D01*
G37*
G36*
X45829Y-51399D02*
X45776Y-51398D01*
X45749Y-51397D01*
X45727Y-51396D01*
X45713Y-51394D01*
X45712Y-51394D01*
X45689Y-51385D01*
X45673Y-51373D01*
X45662Y-51357D01*
X45655Y-51335D01*
X45652Y-51303D01*
X45651Y-51259D01*
X45651Y-51258D01*
X45652Y-51212D01*
X45657Y-51178D01*
X45667Y-51153D01*
X45684Y-51138D01*
X45709Y-51129D01*
X45744Y-51125D01*
X45770Y-51125D01*
X45829Y-51125D01*
X45829Y-51145D01*
X45829Y-51166D01*
X45781Y-51166D01*
X45754Y-51167D01*
X45731Y-51169D01*
X45716Y-51172D01*
X45709Y-51176D01*
X45704Y-51181D01*
X45701Y-51189D01*
X45699Y-51205D01*
X45699Y-51229D01*
X45699Y-51257D01*
X45699Y-51298D01*
X45702Y-51326D01*
X45706Y-51341D01*
X45707Y-51342D01*
X45719Y-51347D01*
X45741Y-51350D01*
X45772Y-51351D01*
X45829Y-51351D01*
X45829Y-51375D01*
X45829Y-51399D01*
X45829Y-51399D01*
X45829Y-51399D01*
G37*
G36*
X46110Y-51284D02*
X46109Y-51330D01*
X46108Y-51362D01*
X46105Y-51382D01*
X46101Y-51390D01*
X46092Y-51393D01*
X46072Y-51396D01*
X46062Y-51396D01*
X46062Y-51351D01*
X46062Y-51308D01*
X46062Y-51265D01*
X46005Y-51267D01*
X45978Y-51269D01*
X45955Y-51272D01*
X45942Y-51276D01*
X45940Y-51277D01*
X45933Y-51290D01*
X45931Y-51309D01*
X45934Y-51328D01*
X45941Y-51342D01*
X45944Y-51343D01*
X45956Y-51347D01*
X45978Y-51349D01*
X46004Y-51350D01*
X46009Y-51350D01*
X46062Y-51351D01*
X46062Y-51396D01*
X46045Y-51397D01*
X46015Y-51398D01*
X45985Y-51398D01*
X45959Y-51396D01*
X45941Y-51394D01*
X45919Y-51383D01*
X45901Y-51362D01*
X45888Y-51335D01*
X45885Y-51318D01*
X45886Y-51283D01*
X45896Y-51257D01*
X45916Y-51238D01*
X45947Y-51226D01*
X45989Y-51221D01*
X46007Y-51220D01*
X46034Y-51220D01*
X46050Y-51219D01*
X46058Y-51216D01*
X46061Y-51211D01*
X46062Y-51204D01*
X46058Y-51187D01*
X46046Y-51176D01*
X46024Y-51169D01*
X45990Y-51166D01*
X45971Y-51166D01*
X45911Y-51166D01*
X45911Y-51145D01*
X45911Y-51125D01*
X45983Y-51125D01*
X46023Y-51125D01*
X46054Y-51129D01*
X46077Y-51138D01*
X46092Y-51152D01*
X46102Y-51174D01*
X46107Y-51206D01*
X46109Y-51248D01*
X46110Y-51284D01*
X46110Y-51284D01*
X46110Y-51284D01*
G37*
G36*
X46404Y-51399D02*
X46382Y-51397D01*
X46360Y-51395D01*
X46358Y-51287D01*
X46357Y-51244D01*
X46355Y-51212D01*
X46352Y-51190D01*
X46345Y-51176D01*
X46334Y-51169D01*
X46317Y-51166D01*
X46293Y-51166D01*
X46276Y-51167D01*
X46223Y-51169D01*
X46221Y-51284D01*
X46219Y-51399D01*
X46195Y-51399D01*
X46171Y-51399D01*
X46171Y-51277D01*
X46171Y-51227D01*
X46172Y-51190D01*
X46175Y-51163D01*
X46180Y-51145D01*
X46189Y-51133D01*
X46203Y-51127D01*
X46224Y-51125D01*
X46251Y-51124D01*
X46268Y-51125D01*
X46311Y-51125D01*
X46343Y-51128D01*
X46367Y-51136D01*
X46384Y-51149D01*
X46395Y-51169D01*
X46401Y-51198D01*
X46404Y-51238D01*
X46404Y-51289D01*
X46404Y-51399D01*
X46404Y-51399D01*
X46404Y-51399D01*
G37*
G36*
X46527Y-51390D02*
X46523Y-51397D01*
X46510Y-51399D01*
X46505Y-51399D01*
X46488Y-51397D01*
X46478Y-51394D01*
X46477Y-51394D01*
X46474Y-51385D01*
X46473Y-51368D01*
X46473Y-51366D01*
X46473Y-51351D01*
X46479Y-51345D01*
X46492Y-51345D01*
X46498Y-51345D01*
X46515Y-51348D01*
X46523Y-51354D01*
X46526Y-51369D01*
X46526Y-51373D01*
X46527Y-51390D01*
X46527Y-51390D01*
X46527Y-51390D01*
G37*
G36*
X46644Y-51399D02*
X46620Y-51399D01*
X46596Y-51399D01*
X46596Y-51262D01*
X46596Y-51125D01*
X46620Y-51125D01*
X46644Y-51125D01*
X46644Y-51262D01*
X46644Y-51399D01*
X46644Y-51399D01*
X46644Y-51399D01*
G37*
G36*
X46944Y-51243D02*
X46944Y-51275D01*
X46941Y-51319D01*
X46934Y-51352D01*
X46923Y-51374D01*
X46904Y-51388D01*
X46897Y-51390D01*
X46897Y-51260D01*
X46897Y-51223D01*
X46894Y-51197D01*
X46887Y-51180D01*
X46875Y-51171D01*
X46856Y-51167D01*
X46829Y-51166D01*
X46826Y-51166D01*
X46798Y-51167D01*
X46777Y-51170D01*
X46769Y-51174D01*
X46764Y-51185D01*
X46761Y-51207D01*
X46760Y-51235D01*
X46760Y-51266D01*
X46761Y-51296D01*
X46764Y-51322D01*
X46768Y-51341D01*
X46771Y-51347D01*
X46786Y-51354D01*
X46810Y-51358D01*
X46837Y-51358D01*
X46862Y-51354D01*
X46880Y-51347D01*
X46884Y-51344D01*
X46890Y-51336D01*
X46894Y-51325D01*
X46896Y-51309D01*
X46897Y-51283D01*
X46897Y-51260D01*
X46897Y-51390D01*
X46877Y-51396D01*
X46839Y-51398D01*
X46824Y-51399D01*
X46794Y-51398D01*
X46774Y-51396D01*
X46760Y-51392D01*
X46749Y-51386D01*
X46746Y-51383D01*
X46732Y-51370D01*
X46723Y-51356D01*
X46717Y-51338D01*
X46714Y-51313D01*
X46712Y-51279D01*
X46712Y-51258D01*
X46713Y-51211D01*
X46718Y-51176D01*
X46727Y-51152D01*
X46743Y-51135D01*
X46766Y-51126D01*
X46799Y-51122D01*
X46829Y-51121D01*
X46860Y-51122D01*
X46881Y-51124D01*
X46896Y-51128D01*
X46908Y-51135D01*
X46909Y-51136D01*
X46925Y-51152D01*
X46936Y-51173D01*
X46942Y-51203D01*
X46944Y-51243D01*
X46944Y-51243D01*
X46944Y-51243D01*
G37*
G36*
X46644Y-51025D02*
X46643Y-51041D01*
X46637Y-51048D01*
X46622Y-51049D01*
X46620Y-51049D01*
X46604Y-51048D01*
X46597Y-51042D01*
X46596Y-51027D01*
X46596Y-51025D01*
X46597Y-51009D01*
X46603Y-51003D01*
X46618Y-51001D01*
X46620Y-51001D01*
X46636Y-51002D01*
X46643Y-51008D01*
X46644Y-51023D01*
X46644Y-51025D01*
X46644Y-51025D01*
X46644Y-51025D01*
G37*
G54D11*
X42400Y-40985D02*
X42400Y-41200D01*
X42385Y-41242D01*
X42357Y-41271D01*
X42314Y-41285D01*
X42285Y-41285D01*
X42700Y-41285D02*
X42528Y-41285D01*
X42614Y-41285D02*
X42614Y-40985D01*
X42585Y-41028D01*
X42557Y-41057D01*
X42528Y-41071D01*
X55820Y-40753D02*
X55820Y-40968D01*
X55805Y-41010D01*
X55777Y-41039D01*
X55734Y-41053D01*
X55705Y-41053D01*
X55934Y-40753D02*
X56120Y-40753D01*
X56020Y-40868D01*
X56062Y-40868D01*
X56091Y-40882D01*
X56105Y-40896D01*
X56120Y-40925D01*
X56120Y-40996D01*
X56105Y-41025D01*
X56091Y-41039D01*
X56062Y-41053D01*
X55977Y-41053D01*
X55948Y-41039D01*
X55934Y-41025D01*
X46621Y-43335D02*
X46621Y-43578D01*
X46635Y-43607D01*
X46650Y-43621D01*
X46678Y-43635D01*
X46735Y-43635D01*
X46764Y-43621D01*
X46778Y-43607D01*
X46792Y-43578D01*
X46792Y-43335D01*
X47092Y-43635D02*
X46921Y-43635D01*
X47007Y-43635D02*
X47007Y-43335D01*
X46978Y-43378D01*
X46950Y-43407D01*
X46921Y-43421D01*
X40779Y-41189D02*
X40765Y-41203D01*
X40722Y-41217D01*
X40694Y-41217D01*
X40651Y-41203D01*
X40622Y-41174D01*
X40608Y-41146D01*
X40594Y-41089D01*
X40594Y-41046D01*
X40608Y-40989D01*
X40622Y-40960D01*
X40651Y-40931D01*
X40694Y-40917D01*
X40722Y-40917D01*
X40765Y-40931D01*
X40779Y-40946D01*
X41065Y-41217D02*
X40894Y-41217D01*
X40979Y-41217D02*
X40979Y-40917D01*
X40951Y-40960D01*
X40922Y-40989D01*
X40894Y-41003D01*
X46400Y-44857D02*
X46385Y-44871D01*
X46342Y-44885D01*
X46314Y-44885D01*
X46271Y-44871D01*
X46242Y-44842D01*
X46228Y-44814D01*
X46214Y-44757D01*
X46214Y-44714D01*
X46228Y-44657D01*
X46242Y-44628D01*
X46271Y-44600D01*
X46314Y-44585D01*
X46342Y-44585D01*
X46385Y-44600D01*
X46400Y-44614D01*
X46657Y-44685D02*
X46657Y-44885D01*
X46585Y-44571D02*
X46514Y-44785D01*
X46700Y-44785D01*
X46400Y-45257D02*
X46385Y-45271D01*
X46342Y-45285D01*
X46314Y-45285D01*
X46271Y-45271D01*
X46242Y-45242D01*
X46228Y-45214D01*
X46214Y-45157D01*
X46214Y-45114D01*
X46228Y-45057D01*
X46242Y-45028D01*
X46271Y-45000D01*
X46314Y-44985D01*
X46342Y-44985D01*
X46385Y-45000D01*
X46400Y-45014D01*
X46671Y-44985D02*
X46528Y-44985D01*
X46514Y-45128D01*
X46528Y-45114D01*
X46557Y-45100D01*
X46628Y-45100D01*
X46657Y-45114D01*
X46671Y-45128D01*
X46685Y-45157D01*
X46685Y-45228D01*
X46671Y-45257D01*
X46657Y-45271D01*
X46628Y-45285D01*
X46557Y-45285D01*
X46528Y-45271D01*
X46514Y-45257D01*
X46300Y-47707D02*
X46285Y-47721D01*
X46242Y-47735D01*
X46214Y-47735D01*
X46171Y-47721D01*
X46142Y-47692D01*
X46128Y-47664D01*
X46114Y-47607D01*
X46114Y-47564D01*
X46128Y-47507D01*
X46142Y-47478D01*
X46171Y-47450D01*
X46214Y-47435D01*
X46242Y-47435D01*
X46285Y-47450D01*
X46300Y-47464D01*
X46557Y-47435D02*
X46500Y-47435D01*
X46471Y-47450D01*
X46457Y-47464D01*
X46428Y-47507D01*
X46414Y-47564D01*
X46414Y-47678D01*
X46428Y-47707D01*
X46442Y-47721D01*
X46471Y-47735D01*
X46528Y-47735D01*
X46557Y-47721D01*
X46571Y-47707D01*
X46585Y-47678D01*
X46585Y-47607D01*
X46571Y-47578D01*
X46557Y-47564D01*
X46528Y-47550D01*
X46471Y-47550D01*
X46442Y-47564D01*
X46428Y-47578D01*
X46414Y-47607D01*
X46850Y-46507D02*
X46835Y-46521D01*
X46792Y-46535D01*
X46764Y-46535D01*
X46721Y-46521D01*
X46692Y-46492D01*
X46678Y-46464D01*
X46664Y-46407D01*
X46664Y-46364D01*
X46678Y-46307D01*
X46692Y-46278D01*
X46721Y-46250D01*
X46764Y-46235D01*
X46792Y-46235D01*
X46835Y-46250D01*
X46850Y-46264D01*
X46950Y-46235D02*
X47150Y-46235D01*
X47021Y-46535D01*
X47300Y-48407D02*
X47285Y-48421D01*
X47242Y-48435D01*
X47214Y-48435D01*
X47171Y-48421D01*
X47142Y-48392D01*
X47128Y-48364D01*
X47114Y-48307D01*
X47114Y-48264D01*
X47128Y-48207D01*
X47142Y-48178D01*
X47171Y-48150D01*
X47214Y-48135D01*
X47242Y-48135D01*
X47285Y-48150D01*
X47300Y-48164D01*
X47471Y-48264D02*
X47442Y-48250D01*
X47428Y-48235D01*
X47414Y-48207D01*
X47414Y-48192D01*
X47428Y-48164D01*
X47442Y-48150D01*
X47471Y-48135D01*
X47528Y-48135D01*
X47557Y-48150D01*
X47571Y-48164D01*
X47585Y-48192D01*
X47585Y-48207D01*
X47571Y-48235D01*
X47557Y-48250D01*
X47528Y-48264D01*
X47471Y-48264D01*
X47442Y-48278D01*
X47428Y-48292D01*
X47414Y-48321D01*
X47414Y-48378D01*
X47428Y-48407D01*
X47442Y-48421D01*
X47471Y-48435D01*
X47528Y-48435D01*
X47557Y-48421D01*
X47571Y-48407D01*
X47585Y-48378D01*
X47585Y-48321D01*
X47571Y-48292D01*
X47557Y-48278D01*
X47528Y-48264D01*
X49157Y-43000D02*
X49171Y-43014D01*
X49185Y-43057D01*
X49185Y-43085D01*
X49171Y-43128D01*
X49142Y-43157D01*
X49114Y-43171D01*
X49057Y-43185D01*
X49014Y-43185D01*
X48957Y-43171D01*
X48928Y-43157D01*
X48900Y-43128D01*
X48885Y-43085D01*
X48885Y-43057D01*
X48900Y-43014D01*
X48914Y-43000D01*
X49185Y-42857D02*
X49185Y-42800D01*
X49171Y-42771D01*
X49157Y-42757D01*
X49114Y-42728D01*
X49057Y-42714D01*
X48942Y-42714D01*
X48914Y-42728D01*
X48900Y-42742D01*
X48885Y-42771D01*
X48885Y-42828D01*
X48900Y-42857D01*
X48914Y-42871D01*
X48942Y-42885D01*
X49014Y-42885D01*
X49042Y-42871D01*
X49057Y-42857D01*
X49071Y-42828D01*
X49071Y-42771D01*
X49057Y-42742D01*
X49042Y-42728D01*
X49014Y-42714D01*
X51257Y-42057D02*
X51242Y-42071D01*
X51200Y-42085D01*
X51171Y-42085D01*
X51128Y-42071D01*
X51100Y-42042D01*
X51085Y-42014D01*
X51071Y-41957D01*
X51071Y-41914D01*
X51085Y-41857D01*
X51100Y-41828D01*
X51128Y-41800D01*
X51171Y-41785D01*
X51200Y-41785D01*
X51242Y-41800D01*
X51257Y-41814D01*
X51542Y-42085D02*
X51371Y-42085D01*
X51457Y-42085D02*
X51457Y-41785D01*
X51428Y-41828D01*
X51400Y-41857D01*
X51371Y-41871D01*
X51728Y-41785D02*
X51757Y-41785D01*
X51785Y-41800D01*
X51800Y-41814D01*
X51814Y-41842D01*
X51828Y-41900D01*
X51828Y-41971D01*
X51814Y-42028D01*
X51800Y-42057D01*
X51785Y-42071D01*
X51757Y-42085D01*
X51728Y-42085D01*
X51700Y-42071D01*
X51685Y-42057D01*
X51671Y-42028D01*
X51657Y-41971D01*
X51657Y-41900D01*
X51671Y-41842D01*
X51685Y-41814D01*
X51700Y-41800D01*
X51728Y-41785D01*
X50007Y-43307D02*
X49992Y-43321D01*
X49950Y-43335D01*
X49921Y-43335D01*
X49878Y-43321D01*
X49850Y-43292D01*
X49835Y-43264D01*
X49821Y-43207D01*
X49821Y-43164D01*
X49835Y-43107D01*
X49850Y-43078D01*
X49878Y-43050D01*
X49921Y-43035D01*
X49950Y-43035D01*
X49992Y-43050D01*
X50007Y-43064D01*
X50292Y-43335D02*
X50121Y-43335D01*
X50207Y-43335D02*
X50207Y-43035D01*
X50178Y-43078D01*
X50150Y-43107D01*
X50121Y-43121D01*
X50578Y-43335D02*
X50407Y-43335D01*
X50492Y-43335D02*
X50492Y-43035D01*
X50464Y-43078D01*
X50435Y-43107D01*
X50407Y-43121D01*
X50907Y-42557D02*
X50892Y-42571D01*
X50850Y-42585D01*
X50821Y-42585D01*
X50778Y-42571D01*
X50750Y-42542D01*
X50735Y-42514D01*
X50721Y-42457D01*
X50721Y-42414D01*
X50735Y-42357D01*
X50750Y-42328D01*
X50778Y-42300D01*
X50821Y-42285D01*
X50850Y-42285D01*
X50892Y-42300D01*
X50907Y-42314D01*
X51192Y-42585D02*
X51021Y-42585D01*
X51107Y-42585D02*
X51107Y-42285D01*
X51078Y-42328D01*
X51050Y-42357D01*
X51021Y-42371D01*
X51307Y-42314D02*
X51321Y-42300D01*
X51350Y-42285D01*
X51421Y-42285D01*
X51450Y-42300D01*
X51464Y-42314D01*
X51478Y-42342D01*
X51478Y-42371D01*
X51464Y-42414D01*
X51292Y-42585D01*
X51478Y-42585D01*
X40779Y-41617D02*
X40679Y-41474D01*
X40608Y-41617D02*
X40608Y-41317D01*
X40722Y-41317D01*
X40751Y-41331D01*
X40765Y-41346D01*
X40779Y-41374D01*
X40779Y-41417D01*
X40765Y-41446D01*
X40751Y-41460D01*
X40722Y-41474D01*
X40608Y-41474D01*
X41065Y-41617D02*
X40894Y-41617D01*
X40979Y-41617D02*
X40979Y-41317D01*
X40951Y-41360D01*
X40922Y-41389D01*
X40894Y-41403D01*
X44907Y-45292D02*
X44921Y-45307D01*
X44935Y-45350D01*
X44935Y-45378D01*
X44921Y-45421D01*
X44892Y-45450D01*
X44864Y-45464D01*
X44807Y-45478D01*
X44764Y-45478D01*
X44707Y-45464D01*
X44678Y-45450D01*
X44650Y-45421D01*
X44635Y-45378D01*
X44635Y-45350D01*
X44650Y-45307D01*
X44664Y-45292D01*
X44935Y-45007D02*
X44935Y-45178D01*
X44935Y-45092D02*
X44635Y-45092D01*
X44678Y-45121D01*
X44707Y-45150D01*
X44721Y-45178D01*
X44635Y-44907D02*
X44635Y-44721D01*
X44750Y-44821D01*
X44750Y-44778D01*
X44764Y-44750D01*
X44778Y-44735D01*
X44807Y-44721D01*
X44878Y-44721D01*
X44907Y-44735D01*
X44921Y-44750D01*
X44935Y-44778D01*
X44935Y-44864D01*
X44921Y-44892D01*
X44907Y-44907D01*
X44907Y-47992D02*
X44921Y-48007D01*
X44935Y-48050D01*
X44935Y-48078D01*
X44921Y-48121D01*
X44892Y-48150D01*
X44864Y-48164D01*
X44807Y-48178D01*
X44764Y-48178D01*
X44707Y-48164D01*
X44678Y-48150D01*
X44650Y-48121D01*
X44635Y-48078D01*
X44635Y-48050D01*
X44650Y-48007D01*
X44664Y-47992D01*
X44935Y-47707D02*
X44935Y-47878D01*
X44935Y-47792D02*
X44635Y-47792D01*
X44678Y-47821D01*
X44707Y-47850D01*
X44721Y-47878D01*
X44735Y-47450D02*
X44935Y-47450D01*
X44621Y-47521D02*
X44835Y-47592D01*
X44835Y-47407D01*
X51689Y-40189D02*
X51677Y-40201D01*
X51641Y-40213D01*
X51617Y-40213D01*
X51582Y-40201D01*
X51558Y-40177D01*
X51546Y-40153D01*
X51534Y-40105D01*
X51534Y-40070D01*
X51546Y-40022D01*
X51558Y-39998D01*
X51582Y-39975D01*
X51617Y-39963D01*
X51641Y-39963D01*
X51677Y-39975D01*
X51689Y-39986D01*
X51927Y-40213D02*
X51784Y-40213D01*
X51855Y-40213D02*
X51855Y-39963D01*
X51832Y-39998D01*
X51808Y-40022D01*
X51784Y-40034D01*
X52153Y-39963D02*
X52034Y-39963D01*
X52022Y-40082D01*
X52034Y-40070D01*
X52058Y-40058D01*
X52117Y-40058D01*
X52141Y-40070D01*
X52153Y-40082D01*
X52165Y-40105D01*
X52165Y-40165D01*
X52153Y-40189D01*
X52141Y-40201D01*
X52117Y-40213D01*
X52058Y-40213D01*
X52034Y-40201D01*
X52022Y-40189D01*
X52607Y-40607D02*
X52592Y-40621D01*
X52550Y-40635D01*
X52521Y-40635D01*
X52478Y-40621D01*
X52450Y-40592D01*
X52435Y-40564D01*
X52421Y-40507D01*
X52421Y-40464D01*
X52435Y-40407D01*
X52450Y-40378D01*
X52478Y-40350D01*
X52521Y-40335D01*
X52550Y-40335D01*
X52592Y-40350D01*
X52607Y-40364D01*
X52892Y-40635D02*
X52721Y-40635D01*
X52807Y-40635D02*
X52807Y-40335D01*
X52778Y-40378D01*
X52750Y-40407D01*
X52721Y-40421D01*
X53150Y-40335D02*
X53092Y-40335D01*
X53064Y-40350D01*
X53050Y-40364D01*
X53021Y-40407D01*
X53007Y-40464D01*
X53007Y-40578D01*
X53021Y-40607D01*
X53035Y-40621D01*
X53064Y-40635D01*
X53121Y-40635D01*
X53150Y-40621D01*
X53164Y-40607D01*
X53178Y-40578D01*
X53178Y-40507D01*
X53164Y-40478D01*
X53150Y-40464D01*
X53121Y-40450D01*
X53064Y-40450D01*
X53035Y-40464D01*
X53021Y-40478D01*
X53007Y-40507D01*
X50107Y-39607D02*
X50092Y-39621D01*
X50050Y-39635D01*
X50021Y-39635D01*
X49978Y-39621D01*
X49950Y-39592D01*
X49935Y-39564D01*
X49921Y-39507D01*
X49921Y-39464D01*
X49935Y-39407D01*
X49950Y-39378D01*
X49978Y-39350D01*
X50021Y-39335D01*
X50050Y-39335D01*
X50092Y-39350D01*
X50107Y-39364D01*
X50392Y-39635D02*
X50221Y-39635D01*
X50307Y-39635D02*
X50307Y-39335D01*
X50278Y-39378D01*
X50250Y-39407D01*
X50221Y-39421D01*
X50492Y-39335D02*
X50692Y-39335D01*
X50564Y-39635D01*
X47457Y-39607D02*
X47442Y-39621D01*
X47400Y-39635D01*
X47371Y-39635D01*
X47328Y-39621D01*
X47300Y-39592D01*
X47285Y-39564D01*
X47271Y-39507D01*
X47271Y-39464D01*
X47285Y-39407D01*
X47300Y-39378D01*
X47328Y-39350D01*
X47371Y-39335D01*
X47400Y-39335D01*
X47442Y-39350D01*
X47457Y-39364D01*
X47742Y-39635D02*
X47571Y-39635D01*
X47657Y-39635D02*
X47657Y-39335D01*
X47628Y-39378D01*
X47600Y-39407D01*
X47571Y-39421D01*
X47914Y-39464D02*
X47885Y-39450D01*
X47871Y-39435D01*
X47857Y-39407D01*
X47857Y-39392D01*
X47871Y-39364D01*
X47885Y-39350D01*
X47914Y-39335D01*
X47971Y-39335D01*
X48000Y-39350D01*
X48014Y-39364D01*
X48028Y-39392D01*
X48028Y-39407D01*
X48014Y-39435D01*
X48000Y-39450D01*
X47971Y-39464D01*
X47914Y-39464D01*
X47885Y-39478D01*
X47871Y-39492D01*
X47857Y-39521D01*
X47857Y-39578D01*
X47871Y-39607D01*
X47885Y-39621D01*
X47914Y-39635D01*
X47971Y-39635D01*
X48000Y-39621D01*
X48014Y-39607D01*
X48028Y-39578D01*
X48028Y-39521D01*
X48014Y-39492D01*
X48000Y-39478D01*
X47971Y-39464D01*
X52207Y-45607D02*
X52192Y-45621D01*
X52150Y-45635D01*
X52121Y-45635D01*
X52078Y-45621D01*
X52050Y-45592D01*
X52035Y-45564D01*
X52021Y-45507D01*
X52021Y-45464D01*
X52035Y-45407D01*
X52050Y-45378D01*
X52078Y-45350D01*
X52121Y-45335D01*
X52150Y-45335D01*
X52192Y-45350D01*
X52207Y-45364D01*
X52492Y-45635D02*
X52321Y-45635D01*
X52407Y-45635D02*
X52407Y-45335D01*
X52378Y-45378D01*
X52350Y-45407D01*
X52321Y-45421D01*
X52635Y-45635D02*
X52692Y-45635D01*
X52721Y-45621D01*
X52735Y-45607D01*
X52764Y-45564D01*
X52778Y-45507D01*
X52778Y-45392D01*
X52764Y-45364D01*
X52750Y-45350D01*
X52721Y-45335D01*
X52664Y-45335D01*
X52635Y-45350D01*
X52621Y-45364D01*
X52607Y-45392D01*
X52607Y-45464D01*
X52621Y-45492D01*
X52635Y-45507D01*
X52664Y-45521D01*
X52721Y-45521D01*
X52750Y-45507D01*
X52764Y-45492D01*
X52778Y-45464D01*
X52578Y-42335D02*
X52578Y-42035D01*
X52650Y-42035D01*
X52692Y-42050D01*
X52721Y-42078D01*
X52735Y-42107D01*
X52750Y-42164D01*
X52750Y-42207D01*
X52735Y-42264D01*
X52721Y-42292D01*
X52692Y-42321D01*
X52650Y-42335D01*
X52578Y-42335D01*
X53035Y-42335D02*
X52864Y-42335D01*
X52950Y-42335D02*
X52950Y-42035D01*
X52921Y-42078D01*
X52892Y-42107D01*
X52864Y-42121D01*
X42328Y-37985D02*
X42328Y-37685D01*
X42442Y-37685D01*
X42471Y-37700D01*
X42485Y-37714D01*
X42500Y-37742D01*
X42500Y-37785D01*
X42485Y-37814D01*
X42471Y-37828D01*
X42442Y-37842D01*
X42328Y-37842D01*
X42785Y-37985D02*
X42614Y-37985D01*
X42700Y-37985D02*
X42700Y-37685D01*
X42671Y-37728D01*
X42642Y-37757D01*
X42614Y-37771D01*
X52785Y-39100D02*
X52642Y-39200D01*
X52785Y-39271D02*
X52485Y-39271D01*
X52485Y-39157D01*
X52500Y-39128D01*
X52514Y-39114D01*
X52542Y-39100D01*
X52585Y-39100D01*
X52614Y-39114D01*
X52628Y-39128D01*
X52642Y-39157D01*
X52642Y-39271D01*
X52514Y-38985D02*
X52500Y-38971D01*
X52485Y-38942D01*
X52485Y-38871D01*
X52500Y-38842D01*
X52514Y-38828D01*
X52542Y-38814D01*
X52571Y-38814D01*
X52614Y-38828D01*
X52785Y-39000D01*
X52785Y-38814D01*
X52385Y-39100D02*
X52242Y-39200D01*
X52385Y-39271D02*
X52085Y-39271D01*
X52085Y-39157D01*
X52100Y-39128D01*
X52114Y-39114D01*
X52142Y-39100D01*
X52185Y-39100D01*
X52214Y-39114D01*
X52228Y-39128D01*
X52242Y-39157D01*
X52242Y-39271D01*
X52085Y-39000D02*
X52085Y-38814D01*
X52200Y-38914D01*
X52200Y-38871D01*
X52214Y-38842D01*
X52228Y-38828D01*
X52257Y-38814D01*
X52328Y-38814D01*
X52357Y-38828D01*
X52371Y-38842D01*
X52385Y-38871D01*
X52385Y-38957D01*
X52371Y-38985D01*
X52357Y-39000D01*
X49185Y-42350D02*
X49042Y-42450D01*
X49185Y-42521D02*
X48885Y-42521D01*
X48885Y-42407D01*
X48900Y-42378D01*
X48914Y-42364D01*
X48942Y-42350D01*
X48985Y-42350D01*
X49014Y-42364D01*
X49028Y-42378D01*
X49042Y-42407D01*
X49042Y-42521D01*
X48985Y-42092D02*
X49185Y-42092D01*
X48871Y-42164D02*
X49085Y-42235D01*
X49085Y-42050D01*
X51650Y-38935D02*
X51550Y-38792D01*
X51478Y-38935D02*
X51478Y-38635D01*
X51592Y-38635D01*
X51621Y-38650D01*
X51635Y-38664D01*
X51650Y-38692D01*
X51650Y-38735D01*
X51635Y-38764D01*
X51621Y-38778D01*
X51592Y-38792D01*
X51478Y-38792D01*
X51921Y-38635D02*
X51778Y-38635D01*
X51764Y-38778D01*
X51778Y-38764D01*
X51807Y-38750D01*
X51878Y-38750D01*
X51907Y-38764D01*
X51921Y-38778D01*
X51935Y-38807D01*
X51935Y-38878D01*
X51921Y-38907D01*
X51907Y-38921D01*
X51878Y-38935D01*
X51807Y-38935D01*
X51778Y-38921D01*
X51764Y-38907D01*
X51650Y-38535D02*
X51550Y-38392D01*
X51478Y-38535D02*
X51478Y-38235D01*
X51592Y-38235D01*
X51621Y-38250D01*
X51635Y-38264D01*
X51650Y-38292D01*
X51650Y-38335D01*
X51635Y-38364D01*
X51621Y-38378D01*
X51592Y-38392D01*
X51478Y-38392D01*
X51907Y-38235D02*
X51850Y-38235D01*
X51821Y-38250D01*
X51807Y-38264D01*
X51778Y-38307D01*
X51764Y-38364D01*
X51764Y-38478D01*
X51778Y-38507D01*
X51792Y-38521D01*
X51821Y-38535D01*
X51878Y-38535D01*
X51907Y-38521D01*
X51921Y-38507D01*
X51935Y-38478D01*
X51935Y-38407D01*
X51921Y-38378D01*
X51907Y-38364D01*
X51878Y-38350D01*
X51821Y-38350D01*
X51792Y-38364D01*
X51778Y-38378D01*
X51764Y-38407D01*
X48835Y-52600D02*
X48692Y-52700D01*
X48835Y-52771D02*
X48535Y-52771D01*
X48535Y-52657D01*
X48550Y-52628D01*
X48564Y-52614D01*
X48592Y-52600D01*
X48635Y-52600D01*
X48664Y-52614D01*
X48678Y-52628D01*
X48692Y-52657D01*
X48692Y-52771D01*
X48535Y-52500D02*
X48535Y-52300D01*
X48835Y-52428D01*
X49385Y-52600D02*
X49242Y-52700D01*
X49385Y-52771D02*
X49085Y-52771D01*
X49085Y-52657D01*
X49100Y-52628D01*
X49114Y-52614D01*
X49142Y-52600D01*
X49185Y-52600D01*
X49214Y-52614D01*
X49228Y-52628D01*
X49242Y-52657D01*
X49242Y-52771D01*
X49214Y-52428D02*
X49200Y-52457D01*
X49185Y-52471D01*
X49157Y-52485D01*
X49142Y-52485D01*
X49114Y-52471D01*
X49100Y-52457D01*
X49085Y-52428D01*
X49085Y-52371D01*
X49100Y-52342D01*
X49114Y-52328D01*
X49142Y-52314D01*
X49157Y-52314D01*
X49185Y-52328D01*
X49200Y-52342D01*
X49214Y-52371D01*
X49214Y-52428D01*
X49228Y-52457D01*
X49242Y-52471D01*
X49271Y-52485D01*
X49328Y-52485D01*
X49357Y-52471D01*
X49371Y-52457D01*
X49385Y-52428D01*
X49385Y-52371D01*
X49371Y-52342D01*
X49357Y-52328D01*
X49328Y-52314D01*
X49271Y-52314D01*
X49242Y-52328D01*
X49228Y-52342D01*
X49214Y-52371D01*
X49935Y-52600D02*
X49792Y-52700D01*
X49935Y-52771D02*
X49635Y-52771D01*
X49635Y-52657D01*
X49650Y-52628D01*
X49664Y-52614D01*
X49692Y-52600D01*
X49735Y-52600D01*
X49764Y-52614D01*
X49778Y-52628D01*
X49792Y-52657D01*
X49792Y-52771D01*
X49935Y-52457D02*
X49935Y-52400D01*
X49921Y-52371D01*
X49907Y-52357D01*
X49864Y-52328D01*
X49807Y-52314D01*
X49692Y-52314D01*
X49664Y-52328D01*
X49650Y-52342D01*
X49635Y-52371D01*
X49635Y-52428D01*
X49650Y-52457D01*
X49664Y-52471D01*
X49692Y-52485D01*
X49764Y-52485D01*
X49792Y-52471D01*
X49807Y-52457D01*
X49821Y-52428D01*
X49821Y-52371D01*
X49807Y-52342D01*
X49792Y-52328D01*
X49764Y-52314D01*
X46770Y-38689D02*
X46812Y-38703D01*
X46884Y-38703D01*
X46912Y-38689D01*
X46927Y-38675D01*
X46941Y-38646D01*
X46941Y-38618D01*
X46927Y-38589D01*
X46912Y-38575D01*
X46884Y-38560D01*
X46827Y-38546D01*
X46798Y-38532D01*
X46784Y-38518D01*
X46770Y-38489D01*
X46770Y-38460D01*
X46784Y-38432D01*
X46798Y-38418D01*
X46827Y-38403D01*
X46898Y-38403D01*
X46941Y-38418D01*
X47041Y-38403D02*
X47112Y-38703D01*
X47170Y-38489D01*
X47227Y-38703D01*
X47298Y-38403D01*
X47570Y-38703D02*
X47398Y-38703D01*
X47484Y-38703D02*
X47484Y-38403D01*
X47455Y-38446D01*
X47427Y-38475D01*
X47398Y-38489D01*
X52921Y-38235D02*
X52921Y-38478D01*
X52935Y-38507D01*
X52950Y-38521D01*
X52978Y-38535D01*
X53035Y-38535D01*
X53064Y-38521D01*
X53078Y-38507D01*
X53092Y-38478D01*
X53092Y-38235D01*
X53221Y-38264D02*
X53235Y-38250D01*
X53264Y-38235D01*
X53335Y-38235D01*
X53364Y-38250D01*
X53378Y-38264D01*
X53392Y-38292D01*
X53392Y-38321D01*
X53378Y-38364D01*
X53207Y-38535D01*
X53392Y-38535D01*
X50021Y-52335D02*
X50021Y-52578D01*
X50035Y-52607D01*
X50050Y-52621D01*
X50078Y-52635D01*
X50135Y-52635D01*
X50164Y-52621D01*
X50178Y-52607D01*
X50192Y-52578D01*
X50192Y-52335D01*
X50307Y-52335D02*
X50492Y-52335D01*
X50392Y-52450D01*
X50435Y-52450D01*
X50464Y-52464D01*
X50478Y-52478D01*
X50492Y-52507D01*
X50492Y-52578D01*
X50478Y-52607D01*
X50464Y-52621D01*
X50435Y-52635D01*
X50350Y-52635D01*
X50321Y-52621D01*
X50307Y-52607D01*
X52571Y-52335D02*
X52571Y-52578D01*
X52585Y-52607D01*
X52600Y-52621D01*
X52628Y-52635D01*
X52685Y-52635D01*
X52714Y-52621D01*
X52728Y-52607D01*
X52742Y-52578D01*
X52742Y-52335D01*
X53014Y-52435D02*
X53014Y-52635D01*
X52942Y-52321D02*
X52871Y-52535D01*
X53057Y-52535D01*
X45257Y-47585D02*
X45457Y-47885D01*
X45457Y-47585D02*
X45257Y-47885D01*
X45728Y-47885D02*
X45557Y-47885D01*
X45642Y-47885D02*
X45642Y-47585D01*
X45614Y-47628D01*
X45585Y-47657D01*
X45557Y-47671D01*
X47307Y-41785D02*
X47507Y-42085D01*
X47507Y-41785D02*
X47307Y-42085D01*
X47607Y-41814D02*
X47621Y-41800D01*
X47650Y-41785D01*
X47721Y-41785D01*
X47750Y-41800D01*
X47764Y-41814D01*
X47778Y-41842D01*
X47778Y-41871D01*
X47764Y-41914D01*
X47592Y-42085D01*
X47778Y-42085D01*
X51457Y-48935D02*
X51357Y-48792D01*
X51285Y-48935D02*
X51285Y-48635D01*
X51400Y-48635D01*
X51428Y-48650D01*
X51442Y-48664D01*
X51457Y-48692D01*
X51457Y-48735D01*
X51442Y-48764D01*
X51428Y-48778D01*
X51400Y-48792D01*
X51285Y-48792D01*
X51742Y-48935D02*
X51571Y-48935D01*
X51657Y-48935D02*
X51657Y-48635D01*
X51628Y-48678D01*
X51600Y-48707D01*
X51571Y-48721D01*
X51928Y-48635D02*
X51957Y-48635D01*
X51985Y-48650D01*
X52000Y-48664D01*
X52014Y-48692D01*
X52028Y-48750D01*
X52028Y-48821D01*
X52014Y-48878D01*
X52000Y-48907D01*
X51985Y-48921D01*
X51957Y-48935D01*
X51928Y-48935D01*
X51900Y-48921D01*
X51885Y-48907D01*
X51871Y-48878D01*
X51857Y-48821D01*
X51857Y-48750D01*
X51871Y-48692D01*
X51885Y-48664D01*
X51900Y-48650D01*
X51928Y-48635D01*
X51457Y-49335D02*
X51357Y-49192D01*
X51285Y-49335D02*
X51285Y-49035D01*
X51400Y-49035D01*
X51428Y-49050D01*
X51442Y-49064D01*
X51457Y-49092D01*
X51457Y-49135D01*
X51442Y-49164D01*
X51428Y-49178D01*
X51400Y-49192D01*
X51285Y-49192D01*
X51742Y-49335D02*
X51571Y-49335D01*
X51657Y-49335D02*
X51657Y-49035D01*
X51628Y-49078D01*
X51600Y-49107D01*
X51571Y-49121D01*
X52028Y-49335D02*
X51857Y-49335D01*
X51942Y-49335D02*
X51942Y-49035D01*
X51914Y-49078D01*
X51885Y-49107D01*
X51857Y-49121D01*
M02*
