M48
INCH,TZ

T1C0.012
T2C0.030
T3C0.051
T4C0.122
%
G90
G05
M72
T1
X39595Y-45868

X39595Y-46618

X39595Y-47368

X39595Y-48118

X39595Y-48868

X39600Y-49620

X39620Y-39618

X39620Y-40618

X39620Y-41368

X39620Y-42118

X39620Y-42868

X39620Y-43618

X39620Y-44368

X39620Y-45118

X39620Y-50368

X39620Y-51118

X39970Y-39218

X40120Y-51618

X40200Y-50800

X40250Y-39750

X40250Y-40750

X40250Y-41750

X40250Y-42750

X40250Y-43750

X40250Y-44750

X40370Y-38818

X40620Y-52118

X40870Y-38318

X41000Y-51100

X41000Y-52000

X41120Y-52618

X41200Y-40800

X41220Y-42918

X41220Y-43318

X41220Y-43718

X41370Y-37818

X41420Y-47818

X41440Y-47438

X41500Y-39250

X41500Y-40250

X41620Y-53118

X41870Y-37318

X42000Y-51100

X42000Y-52000

X42000Y-53000

X42120Y-53618

X42320Y-42918

X42320Y-43318

X42320Y-43718

X42320Y-44118

X42320Y-44518

X42320Y-44918

X42320Y-45318

X42320Y-45718

X42320Y-46068

X42320Y-46468

X42320Y-46868

X42320Y-47268

X42320Y-47668

X42370Y-36818

X42620Y-54118

X42670Y-43118

X42670Y-43518

X42670Y-43918

X42670Y-44318

X42670Y-44718

X42670Y-45118

X42670Y-45468

X42670Y-45868

X42670Y-46268

X42670Y-46668

X42670Y-47068

X42670Y-47468

X42870Y-36318

X43000Y-51100

X43000Y-52000

X43000Y-53000

X43120Y-54618

X43270Y-39918

X43270Y-40718

X43370Y-35818

X43500Y-38250

X43500Y-48250

X43500Y-49000

X43500Y-47238

X43620Y-54868

X43770Y-43118

X43770Y-43518

X43770Y-43918

X43820Y-47218

X43870Y-35618

X44000Y-39000

X44000Y-51100

X44000Y-52000

X44250Y-48250

X44250Y-49000

X44370Y-54868

X44620Y-35618

X44770Y-46668

X44820Y-46168

X45000Y-36000

X45000Y-38000

X45000Y-39000

X45000Y-40000

X45000Y-41000

X45000Y-42000

X45120Y-54868

X45200Y-51100

X45200Y-52000

X45250Y-48250

X45250Y-49000

X45370Y-35618

X45870Y-54868

X46000Y-36000

X46000Y-37000

X46000Y-39000

X46000Y-42000

X46000Y-52000

X46000Y-53000

X46000Y-54000

X46120Y-35618

X46120Y-45968

X46250Y-48250

X46250Y-49000

X46320Y-46668

X46470Y-45568

X46520Y-47068

X46570Y-39468

X46620Y-54868

X46670Y-47818

X46870Y-35618

X46870Y-48168

X47000Y-36000

X47000Y-37000

X47000Y-39000

X47000Y-42000

X47000Y-53000

X47000Y-54000

X47100Y-51100

X47300Y-52000

X47320Y-47068

X47370Y-54868

X47620Y-35618

X47770Y-46368

X48000Y-36000

X48000Y-37000

X48000Y-39000

X48000Y-42000

X48000Y-51000

X48000Y-53000

X48000Y-54000

X48120Y-54868

X48300Y-52000

X48370Y-35618

X48670Y-54568

X48900Y-49850

X48900Y-51100

X48900Y-52000

X48900Y-52000

X48920Y-54868

X49000Y-36000

X49000Y-39000

X49000Y-40000

X49120Y-35618

X49220Y-54568

X49270Y-43868

X49420Y-42918

X49500Y-49850

X49500Y-51100

X49500Y-52000

X49520Y-41918

X49520Y-54868

X49770Y-54568

X49870Y-35618

X50000Y-36000

X50070Y-49368

X50070Y-54868

X50200Y-53000

X50200Y-54000

X50220Y-43968

X50420Y-45418

X50520Y-39168

X50570Y-42418

X50570Y-42818

X50570Y-45718

X50570Y-49218

X50570Y-50968

X50620Y-35618

X50620Y-37518

X50620Y-38268

X50620Y-54868

X50650Y-48450

X50700Y-47600

X50720Y-52318

X50820Y-43568

X50920Y-41768

X50920Y-42068

X50920Y-42818

X51000Y-36000

X51000Y-53000

X51000Y-54000

X51170Y-39118

X51220Y-52318

X51250Y-47250

X51250Y-48250

X51370Y-35618

X51370Y-39468

X51370Y-39818

X51370Y-54868

X51420Y-42818

X51720Y-52318

X51750Y-43250

X51820Y-45518

X52000Y-36000

X52000Y-48000

X52000Y-53000

X52000Y-54000

X52120Y-35618

X52120Y-54868

X52250Y-47250

X52500Y-49500

X52500Y-51250

X52620Y-46468

X52620Y-47868

X52750Y-42750

X52870Y-35618

X52870Y-46218

X52870Y-47668

X52870Y-54868

X52920Y-50268

X53000Y-36000

X53000Y-38000

X53000Y-48500

X53000Y-51250

X53000Y-53000

X53000Y-54000

X53020Y-39918

X53120Y-45968

X53120Y-47468

X53370Y-45718

X53370Y-47268

X53500Y-42000

X53620Y-35618

X53620Y-45468

X53620Y-47068

X53620Y-54868

X53750Y-49000

X54000Y-39000

X54000Y-40000

X54000Y-41000

X54000Y-47000

X54250Y-47750

X54370Y-35618

X54370Y-54868

X54500Y-48500

X54520Y-51918

X54570Y-50668

X54570Y-50968

X54720Y-46868

X54720Y-47268

X54870Y-35618

X55000Y-39000

X55000Y-40000

X55000Y-52000

X55120Y-54618

X55250Y-47750

X55250Y-49250

X55250Y-50000

X55250Y-51000

X55370Y-36118

X55570Y-42918

X55570Y-43318

X55570Y-43718

X55570Y-44118

X55570Y-44518

X55570Y-44918

X55570Y-45268

X55570Y-45668

X55570Y-46068

X55570Y-46468

X55570Y-46868

X55570Y-47268

X55620Y-54118

X55870Y-36618

X56000Y-38000

X56000Y-39000

X56000Y-40000

X56000Y-50000

X56000Y-51000

X56000Y-52000

X56000Y-53000

X56120Y-53618

X56270Y-42718

X56270Y-43118

X56270Y-43518

X56270Y-43918

X56270Y-44318

X56270Y-44718

X56270Y-45068

X56270Y-45468

X56270Y-46668

X56270Y-47068

X56270Y-47468

X56370Y-37118

X56620Y-53118

X56870Y-37618

X57000Y-39000

X57000Y-40000

X57000Y-49000

X57000Y-50000

X57000Y-51000

X57000Y-52000

X57120Y-42718

X57120Y-43118

X57120Y-43518

X57120Y-43918

X57120Y-44318

X57120Y-44718

X57120Y-45868

X57120Y-46268

X57120Y-46668

X57120Y-47068

X57120Y-47468

X57120Y-52618

X57370Y-38118

X57620Y-52118

X57870Y-38618

X58000Y-40000

X58000Y-49000

X58000Y-50000

X58000Y-51000

X58120Y-51618

X58250Y-40500

X58250Y-41500

X58250Y-42500

X58250Y-43500

X58250Y-44500

X58250Y-45500

X58250Y-47000

X58250Y-48000

X58370Y-39118

X58620Y-51118

X58770Y-39518

X58770Y-40118

X58770Y-40918

X58770Y-41718

X58770Y-42518

X58770Y-43318

X58770Y-44118

X58770Y-44918

X58770Y-45718

X58770Y-46518

X58770Y-47318

X58770Y-48118

X58770Y-48918

X58770Y-49718

X58770Y-50518

T2
X42504Y-41693

X42504Y-41693

X42504Y-48858

X42504Y-48858

X55921Y-41496

X55921Y-41496

X55921Y-48661

X55921Y-48661

T3
X42504Y-42303

X42504Y-42303

X42504Y-48248

X42504Y-48248

X55921Y-42106

X55921Y-42106

X55921Y-48051

X55921Y-48051

T4
X44094Y-37008

X44094Y-53543

X54331Y-37008

X54331Y-53543

T0
M30
