G04 (created by PCBNEW (2013-mar-13)-testing) date Tue 20 Aug 2013 02:58:42 PM EEST*
%MOIN*%
G04 Gerber Fmt 3.4, Leading zero omitted, Abs format*
%FSLAX34Y34*%
G01*
G70*
G90*
G04 APERTURE LIST*
%ADD10C,0.000787*%
%ADD11C,0.005000*%
%ADD12C,0.001000*%
%ADD13C,0.005906*%
%ADD14C,0.000100*%
G04 APERTURE END LIST*
G54D10*
G54D11*
X51497Y-49928D02*
X51521Y-49952D01*
X51592Y-49976D01*
X51640Y-49976D01*
X51711Y-49952D01*
X51759Y-49904D01*
X51783Y-49857D01*
X51807Y-49761D01*
X51807Y-49690D01*
X51783Y-49595D01*
X51759Y-49547D01*
X51711Y-49500D01*
X51640Y-49476D01*
X51592Y-49476D01*
X51521Y-49500D01*
X51497Y-49523D01*
X50997Y-49928D02*
X51021Y-49952D01*
X51092Y-49976D01*
X51140Y-49976D01*
X51211Y-49952D01*
X51259Y-49904D01*
X51283Y-49857D01*
X51307Y-49761D01*
X51307Y-49690D01*
X51283Y-49595D01*
X51259Y-49547D01*
X51211Y-49500D01*
X51140Y-49476D01*
X51092Y-49476D01*
X51021Y-49500D01*
X50997Y-49523D01*
X50235Y-49714D02*
X50164Y-49738D01*
X50140Y-49761D01*
X50116Y-49809D01*
X50116Y-49880D01*
X50140Y-49928D01*
X50164Y-49952D01*
X50211Y-49976D01*
X50402Y-49976D01*
X50402Y-49476D01*
X50235Y-49476D01*
X50188Y-49500D01*
X50164Y-49523D01*
X50140Y-49571D01*
X50140Y-49619D01*
X50164Y-49666D01*
X50188Y-49690D01*
X50235Y-49714D01*
X50402Y-49714D01*
X49807Y-49738D02*
X49807Y-49976D01*
X49973Y-49476D02*
X49807Y-49738D01*
X49640Y-49476D01*
X49473Y-49785D02*
X49092Y-49785D01*
X48878Y-49952D02*
X48807Y-49976D01*
X48688Y-49976D01*
X48640Y-49952D01*
X48616Y-49928D01*
X48592Y-49880D01*
X48592Y-49833D01*
X48616Y-49785D01*
X48640Y-49761D01*
X48688Y-49738D01*
X48783Y-49714D01*
X48830Y-49690D01*
X48854Y-49666D01*
X48878Y-49619D01*
X48878Y-49571D01*
X48854Y-49523D01*
X48830Y-49500D01*
X48783Y-49476D01*
X48664Y-49476D01*
X48592Y-49500D01*
X48402Y-49833D02*
X48164Y-49833D01*
X48450Y-49976D02*
X48283Y-49476D01*
X48116Y-49976D01*
X47616Y-49476D02*
X47307Y-49476D01*
X47473Y-49666D01*
X47402Y-49666D01*
X47354Y-49690D01*
X47330Y-49714D01*
X47307Y-49761D01*
X47307Y-49880D01*
X47330Y-49928D01*
X47354Y-49952D01*
X47402Y-49976D01*
X47545Y-49976D01*
X47592Y-49952D01*
X47616Y-49928D01*
X47092Y-49928D02*
X47069Y-49952D01*
X47092Y-49976D01*
X47116Y-49952D01*
X47092Y-49928D01*
X47092Y-49976D01*
X46759Y-49476D02*
X46711Y-49476D01*
X46664Y-49500D01*
X46640Y-49523D01*
X46616Y-49571D01*
X46592Y-49666D01*
X46592Y-49785D01*
X46616Y-49880D01*
X46640Y-49928D01*
X46664Y-49952D01*
X46711Y-49976D01*
X46759Y-49976D01*
X46807Y-49952D01*
X46830Y-49928D01*
X46854Y-49880D01*
X46878Y-49785D01*
X46878Y-49666D01*
X46854Y-49571D01*
X46830Y-49523D01*
X46807Y-49500D01*
X46759Y-49476D01*
G54D12*
X55118Y-55118D02*
X43307Y-55118D01*
X59055Y-51181D02*
X55118Y-55118D01*
X59055Y-39370D02*
X59055Y-51181D01*
X55118Y-35433D02*
X59055Y-39370D01*
X43307Y-35433D02*
X55118Y-35433D01*
X39370Y-39370D02*
X43307Y-35433D01*
X39370Y-51181D02*
X39370Y-39370D01*
X43307Y-55118D02*
X39370Y-51181D01*
G54D13*
X35433Y-55118D02*
G75*
G03X35433Y-55118I0J0D01*
G74*
G01*
X35432Y-55118D02*
X35434Y-55118D01*
X35433Y-55117D02*
X35433Y-55119D01*
X42000Y-54000D02*
G75*
G03X42000Y-54000I0J0D01*
G74*
G01*
X41999Y-54000D02*
X42000Y-54000D01*
X42000Y-53999D02*
X42000Y-54000D01*
X47000Y-56500D02*
G75*
G03X47000Y-56500I0J0D01*
G74*
G01*
X46999Y-56500D02*
X47000Y-56500D01*
X47000Y-56499D02*
X47000Y-56500D01*
X41535Y-48818D02*
X41732Y-48818D01*
X41535Y-48818D02*
X41141Y-48818D01*
X41141Y-48818D02*
X41141Y-41732D01*
X41141Y-41732D02*
X41732Y-41732D01*
X43307Y-48818D02*
X43897Y-48818D01*
X43897Y-48818D02*
X43897Y-41732D01*
X43897Y-41732D02*
X43307Y-41732D01*
X56889Y-41535D02*
X56692Y-41535D01*
X56889Y-41535D02*
X57283Y-41535D01*
X57283Y-41535D02*
X57283Y-48622D01*
X57283Y-48622D02*
X56692Y-48622D01*
X55118Y-41535D02*
X54527Y-41535D01*
X54527Y-41535D02*
X54527Y-48622D01*
X54527Y-48622D02*
X55118Y-48622D01*
G54D14*
G36*
X46813Y-48937D02*
X46854Y-48915D01*
X46947Y-48857D01*
X47078Y-48771D01*
X47233Y-48667D01*
X47389Y-48562D01*
X47518Y-48476D01*
X47607Y-48418D01*
X47645Y-48397D01*
X47665Y-48404D01*
X47739Y-48440D01*
X47847Y-48496D01*
X47909Y-48529D01*
X48008Y-48571D01*
X48057Y-48580D01*
X48065Y-48566D01*
X48101Y-48491D01*
X48158Y-48362D01*
X48232Y-48191D01*
X48317Y-47991D01*
X48408Y-47776D01*
X48500Y-47556D01*
X48587Y-47346D01*
X48664Y-47158D01*
X48726Y-47005D01*
X48766Y-46898D01*
X48781Y-46852D01*
X48777Y-46843D01*
X48727Y-46795D01*
X48641Y-46730D01*
X48455Y-46579D01*
X48271Y-46349D01*
X48159Y-46088D01*
X48122Y-45799D01*
X48154Y-45530D01*
X48259Y-45271D01*
X48439Y-45039D01*
X48657Y-44866D01*
X48913Y-44757D01*
X49199Y-44722D01*
X49475Y-44753D01*
X49739Y-44857D01*
X49971Y-45034D01*
X50068Y-45147D01*
X50204Y-45382D01*
X50281Y-45635D01*
X50289Y-45699D01*
X50278Y-45975D01*
X50196Y-46240D01*
X50050Y-46478D01*
X49847Y-46672D01*
X49822Y-46690D01*
X49728Y-46760D01*
X49665Y-46808D01*
X49616Y-46849D01*
X49968Y-47696D01*
X50024Y-47831D01*
X50120Y-48063D01*
X50206Y-48262D01*
X50273Y-48421D01*
X50320Y-48527D01*
X50341Y-48570D01*
X50343Y-48572D01*
X50374Y-48578D01*
X50439Y-48554D01*
X50557Y-48497D01*
X50635Y-48457D01*
X50725Y-48413D01*
X50766Y-48397D01*
X50800Y-48416D01*
X50887Y-48472D01*
X51013Y-48556D01*
X51164Y-48659D01*
X51308Y-48757D01*
X51441Y-48845D01*
X51538Y-48907D01*
X51585Y-48932D01*
X51592Y-48932D01*
X51634Y-48909D01*
X51710Y-48845D01*
X51826Y-48736D01*
X51989Y-48575D01*
X52014Y-48550D01*
X52148Y-48413D01*
X52257Y-48299D01*
X52330Y-48217D01*
X52357Y-48180D01*
X52357Y-48180D01*
X52333Y-48134D01*
X52272Y-48038D01*
X52184Y-47903D01*
X52076Y-47746D01*
X51796Y-47338D01*
X51950Y-46953D01*
X51997Y-46835D01*
X52057Y-46692D01*
X52102Y-46590D01*
X52125Y-46546D01*
X52167Y-46531D01*
X52272Y-46506D01*
X52425Y-46474D01*
X52607Y-46440D01*
X52780Y-46408D01*
X52937Y-46379D01*
X53050Y-46356D01*
X53101Y-46346D01*
X53113Y-46339D01*
X53124Y-46314D01*
X53130Y-46261D01*
X53134Y-46166D01*
X53136Y-46016D01*
X53136Y-45799D01*
X53136Y-45775D01*
X53134Y-45568D01*
X53131Y-45403D01*
X53125Y-45294D01*
X53118Y-45252D01*
X53117Y-45251D01*
X53068Y-45239D01*
X52958Y-45216D01*
X52801Y-45185D01*
X52614Y-45150D01*
X52603Y-45147D01*
X52416Y-45112D01*
X52260Y-45079D01*
X52151Y-45054D01*
X52105Y-45040D01*
X52095Y-45026D01*
X52058Y-44954D01*
X52004Y-44838D01*
X51942Y-44697D01*
X51882Y-44551D01*
X51829Y-44420D01*
X51794Y-44321D01*
X51783Y-44277D01*
X51784Y-44276D01*
X51812Y-44231D01*
X51876Y-44135D01*
X51966Y-44001D01*
X52075Y-43842D01*
X52083Y-43830D01*
X52190Y-43673D01*
X52277Y-43540D01*
X52335Y-43445D01*
X52357Y-43402D01*
X52356Y-43399D01*
X52321Y-43352D01*
X52240Y-43263D01*
X52126Y-43143D01*
X51988Y-43004D01*
X51944Y-42961D01*
X51791Y-42812D01*
X51685Y-42714D01*
X51619Y-42662D01*
X51587Y-42650D01*
X51586Y-42651D01*
X51538Y-42680D01*
X51439Y-42744D01*
X51304Y-42836D01*
X51144Y-42944D01*
X51133Y-42952D01*
X50976Y-43059D01*
X50845Y-43147D01*
X50752Y-43209D01*
X50711Y-43234D01*
X50704Y-43234D01*
X50640Y-43215D01*
X50528Y-43176D01*
X50390Y-43122D01*
X50245Y-43064D01*
X50113Y-43008D01*
X50013Y-42963D01*
X49966Y-42936D01*
X49965Y-42934D01*
X49948Y-42878D01*
X49921Y-42760D01*
X49888Y-42598D01*
X49851Y-42405D01*
X49845Y-42374D01*
X49810Y-42186D01*
X49780Y-42032D01*
X49758Y-41924D01*
X49747Y-41880D01*
X49721Y-41874D01*
X49628Y-41867D01*
X49488Y-41864D01*
X49319Y-41862D01*
X49140Y-41863D01*
X48966Y-41867D01*
X48817Y-41872D01*
X48711Y-41879D01*
X48667Y-41888D01*
X48665Y-41891D01*
X48649Y-41949D01*
X48623Y-42067D01*
X48590Y-42230D01*
X48553Y-42423D01*
X48546Y-42457D01*
X48511Y-42644D01*
X48480Y-42798D01*
X48457Y-42903D01*
X48445Y-42945D01*
X48428Y-42954D01*
X48351Y-42987D01*
X48226Y-43039D01*
X48070Y-43102D01*
X47709Y-43248D01*
X47268Y-42945D01*
X47227Y-42918D01*
X47068Y-42810D01*
X46938Y-42723D01*
X46847Y-42664D01*
X46809Y-42643D01*
X46806Y-42644D01*
X46762Y-42683D01*
X46675Y-42765D01*
X46555Y-42881D01*
X46416Y-43020D01*
X46313Y-43123D01*
X46191Y-43247D01*
X46114Y-43330D01*
X46072Y-43384D01*
X46057Y-43416D01*
X46061Y-43438D01*
X46089Y-43483D01*
X46154Y-43580D01*
X46245Y-43714D01*
X46353Y-43870D01*
X46441Y-44001D01*
X46537Y-44149D01*
X46600Y-44255D01*
X46621Y-44307D01*
X46616Y-44328D01*
X46585Y-44415D01*
X46532Y-44546D01*
X46466Y-44701D01*
X46312Y-45051D01*
X46083Y-45095D01*
X45944Y-45122D01*
X45750Y-45159D01*
X45564Y-45195D01*
X45273Y-45251D01*
X45263Y-46319D01*
X45308Y-46338D01*
X45351Y-46350D01*
X45459Y-46374D01*
X45612Y-46404D01*
X45793Y-46439D01*
X45948Y-46467D01*
X46103Y-46497D01*
X46215Y-46518D01*
X46264Y-46529D01*
X46277Y-46546D01*
X46316Y-46621D01*
X46371Y-46741D01*
X46433Y-46885D01*
X46495Y-47034D01*
X46550Y-47172D01*
X46588Y-47277D01*
X46603Y-47331D01*
X46581Y-47372D01*
X46523Y-47464D01*
X46437Y-47594D01*
X46331Y-47749D01*
X46225Y-47903D01*
X46136Y-48035D01*
X46074Y-48130D01*
X46048Y-48174D01*
X46061Y-48203D01*
X46123Y-48278D01*
X46239Y-48399D01*
X46413Y-48571D01*
X46441Y-48598D01*
X46579Y-48731D01*
X46696Y-48838D01*
X46777Y-48911D01*
X46813Y-48937D01*
X46813Y-48937D01*
G37*
G54D11*
X42620Y-49303D02*
X42620Y-49518D01*
X42634Y-49560D01*
X42662Y-49589D01*
X42705Y-49603D01*
X42734Y-49603D01*
X42491Y-49332D02*
X42477Y-49318D01*
X42448Y-49303D01*
X42377Y-49303D01*
X42348Y-49318D01*
X42334Y-49332D01*
X42320Y-49360D01*
X42320Y-49389D01*
X42334Y-49432D01*
X42505Y-49603D01*
X42320Y-49603D01*
X56070Y-49103D02*
X56070Y-49318D01*
X56084Y-49360D01*
X56112Y-49389D01*
X56155Y-49403D01*
X56184Y-49403D01*
X55798Y-49203D02*
X55798Y-49403D01*
X55870Y-49089D02*
X55941Y-49303D01*
X55755Y-49303D01*
M02*
