G04 (created by PCBNEW (2013-09-06 BZR 4312)-stable) date K 20 nov   2013 22:54:32 EET*
%MOIN*%
G04 Gerber Fmt 3.4, Leading zero omitted, Abs format*
%FSLAX34Y34*%
G01*
G70*
G90*
G04 APERTURE LIST*
%ADD10C,0.000787*%
%ADD11C,0.001000*%
%ADD12R,0.081890X0.015748*%
%ADD13R,0.133858X0.051181*%
%ADD14C,0.196850*%
%ADD15R,0.060000X0.060000*%
%ADD16C,0.060000*%
%ADD17C,0.020000*%
%ADD18C,0.032000*%
%ADD19C,0.016000*%
%ADD20C,0.012000*%
%ADD21C,0.010000*%
%ADD22C,0.008000*%
%ADD23C,0.005000*%
G04 APERTURE END LIST*
G54D10*
G54D11*
X49213Y-56692D02*
G75*
G03X49213Y-56692I0J0D01*
G74*
G01*
X49211Y-56692D02*
X49213Y-56692D01*
X49212Y-56691D02*
X49212Y-56693D01*
X43307Y-55118D02*
X39370Y-51181D01*
X55118Y-55118D02*
X43307Y-55118D01*
X59055Y-51181D02*
X55118Y-55118D01*
X59055Y-39370D02*
X59055Y-51181D01*
X55118Y-35433D02*
X59055Y-39370D01*
X43307Y-35433D02*
X55118Y-35433D01*
X39370Y-39370D02*
X43307Y-35433D01*
X39370Y-51181D02*
X39370Y-39370D01*
G54D12*
X41732Y-42913D03*
X41732Y-43307D03*
X41732Y-43700D03*
X41732Y-44094D03*
X41732Y-44488D03*
X41732Y-44881D03*
X41732Y-45275D03*
X41732Y-45669D03*
X41732Y-46062D03*
X41732Y-46456D03*
X41732Y-46850D03*
X41732Y-47244D03*
X41732Y-47637D03*
X43275Y-47440D03*
X43275Y-47047D03*
X43275Y-46653D03*
X43275Y-46259D03*
X43275Y-45866D03*
X43275Y-45472D03*
X43275Y-45078D03*
X43275Y-44685D03*
X43275Y-44291D03*
X43275Y-43897D03*
X43275Y-43503D03*
X43275Y-43110D03*
G54D13*
X42503Y-41692D03*
X42503Y-48858D03*
X42503Y-48858D03*
X42503Y-41692D03*
G54D12*
X56692Y-47440D03*
X56692Y-47047D03*
X56692Y-46653D03*
X56692Y-46259D03*
X56692Y-45866D03*
X56692Y-45472D03*
X56692Y-45078D03*
X56692Y-44685D03*
X56692Y-44291D03*
X56692Y-43897D03*
X56692Y-43503D03*
X56692Y-43110D03*
X56692Y-42716D03*
X55149Y-42913D03*
X55149Y-43307D03*
X55149Y-43700D03*
X55149Y-44094D03*
X55149Y-44488D03*
X55149Y-44881D03*
X55149Y-45275D03*
X55149Y-45669D03*
X55149Y-46062D03*
X55149Y-46456D03*
X55149Y-46850D03*
X55149Y-47244D03*
G54D13*
X55921Y-48661D03*
X55921Y-41496D03*
X55921Y-41496D03*
X55921Y-48661D03*
G54D14*
X44094Y-37007D03*
X54330Y-37007D03*
X54330Y-53543D03*
X44094Y-53543D03*
G54D15*
X55250Y-49850D03*
G54D16*
X55250Y-50850D03*
X54250Y-49850D03*
X54250Y-50850D03*
X53250Y-49850D03*
X53250Y-50850D03*
X52250Y-49850D03*
X52250Y-50850D03*
X51250Y-49850D03*
X51250Y-50850D03*
X50250Y-49850D03*
X50250Y-50850D03*
X49250Y-49850D03*
X49250Y-50850D03*
X48250Y-49850D03*
X48250Y-50850D03*
X47250Y-49850D03*
X47250Y-50850D03*
X46250Y-49850D03*
X46250Y-50850D03*
X45250Y-49850D03*
X45250Y-50850D03*
X44250Y-49850D03*
X44250Y-50850D03*
X43250Y-49850D03*
X43250Y-50850D03*
G54D15*
X43250Y-40450D03*
G54D16*
X43250Y-39450D03*
X44250Y-40450D03*
X44250Y-39450D03*
X45250Y-40450D03*
X45250Y-39450D03*
X46250Y-40450D03*
X46250Y-39450D03*
X47250Y-40450D03*
X47250Y-39450D03*
X48250Y-40450D03*
X48250Y-39450D03*
X49250Y-40450D03*
X49250Y-39450D03*
X50250Y-40450D03*
X50250Y-39450D03*
X51250Y-40450D03*
X51250Y-39450D03*
X52250Y-40450D03*
X52250Y-39450D03*
X53250Y-40450D03*
X53250Y-39450D03*
X54250Y-40450D03*
X54250Y-39450D03*
X55250Y-40450D03*
X55250Y-39450D03*
G54D17*
X56181Y-43503D03*
X56181Y-43110D03*
X56181Y-42716D03*
X55669Y-47244D03*
X55669Y-46850D03*
X42244Y-42913D03*
X42244Y-43307D03*
X42244Y-43700D03*
X42795Y-47440D03*
X42795Y-47047D03*
X42795Y-44291D03*
X42795Y-44685D03*
X42795Y-45078D03*
X42795Y-45472D03*
X42795Y-45866D03*
X42795Y-46259D03*
X42795Y-46653D03*
X55669Y-46456D03*
X55669Y-42913D03*
X56181Y-47440D03*
X56181Y-47047D03*
X56181Y-46653D03*
X56181Y-44685D03*
X56181Y-44291D03*
X56181Y-43897D03*
X42244Y-47244D03*
X42244Y-47637D03*
X42795Y-43897D03*
X42795Y-43503D03*
X42795Y-43110D03*
X58400Y-51200D03*
X58000Y-51600D03*
X57600Y-52000D03*
X57200Y-52400D03*
X56800Y-52800D03*
X56400Y-53200D03*
X56000Y-53600D03*
X55600Y-54000D03*
X55200Y-54400D03*
X54800Y-54800D03*
X40000Y-39400D03*
X40400Y-39000D03*
X40800Y-38600D03*
X41200Y-38200D03*
X41600Y-37800D03*
X42000Y-37400D03*
X42400Y-37000D03*
X42800Y-36600D03*
X43200Y-36200D03*
X43600Y-35800D03*
X43200Y-54400D03*
X42800Y-54000D03*
X42400Y-53600D03*
X42000Y-53200D03*
X41600Y-52800D03*
X41200Y-52400D03*
X40800Y-52000D03*
X40400Y-51600D03*
X40000Y-51200D03*
X39800Y-50600D03*
X43600Y-54800D03*
X39800Y-39800D03*
X39800Y-40400D03*
X39800Y-41000D03*
X39800Y-41600D03*
X39800Y-42200D03*
X39800Y-42800D03*
X39800Y-43400D03*
X39800Y-44000D03*
X39800Y-44600D03*
X39800Y-45200D03*
X39800Y-45800D03*
X39800Y-46400D03*
X39800Y-47000D03*
X39800Y-47600D03*
X39800Y-48200D03*
X39800Y-48800D03*
X39800Y-49400D03*
X39800Y-50000D03*
X54400Y-35800D03*
X53800Y-35800D03*
X53200Y-35800D03*
X52600Y-35800D03*
X52000Y-35800D03*
X51400Y-35800D03*
X50800Y-35800D03*
X50200Y-35800D03*
X49600Y-35800D03*
X49000Y-35800D03*
X48400Y-35800D03*
X47800Y-35800D03*
X47200Y-35800D03*
X46600Y-35800D03*
X46000Y-35800D03*
X45400Y-35800D03*
X44800Y-35800D03*
X44200Y-35800D03*
X55000Y-35800D03*
X55400Y-36200D03*
X55800Y-36600D03*
X56200Y-37000D03*
X56600Y-37400D03*
X57000Y-37800D03*
X57400Y-38200D03*
X57800Y-38600D03*
X58200Y-39000D03*
X58600Y-39400D03*
X58600Y-50800D03*
X58600Y-50200D03*
X58600Y-49600D03*
X58600Y-49000D03*
X58600Y-48400D03*
X58600Y-47800D03*
X58600Y-47200D03*
X58600Y-46600D03*
X58600Y-46000D03*
X58600Y-45400D03*
X58600Y-44800D03*
X58600Y-44200D03*
X58600Y-43600D03*
X58600Y-43000D03*
X58600Y-42400D03*
X58600Y-41800D03*
X58600Y-41200D03*
X58600Y-40600D03*
X58600Y-40000D03*
X44600Y-54800D03*
X45200Y-54800D03*
X45800Y-54800D03*
X46400Y-54800D03*
X47000Y-54800D03*
X47600Y-54800D03*
X48200Y-54800D03*
X48800Y-54800D03*
X49400Y-54800D03*
X50000Y-54800D03*
X50600Y-54800D03*
X51200Y-54800D03*
X51800Y-54800D03*
X52400Y-54800D03*
X53000Y-54800D03*
X53600Y-54800D03*
X54200Y-54800D03*
X42244Y-46850D03*
X42244Y-46456D03*
X42244Y-46062D03*
X42244Y-45669D03*
X42244Y-45275D03*
X42244Y-44881D03*
X42244Y-44488D03*
X42244Y-44094D03*
X56181Y-45078D03*
X56181Y-45472D03*
X56181Y-45866D03*
X55669Y-45669D03*
X55669Y-46062D03*
X55669Y-44881D03*
X55669Y-43700D03*
X55669Y-44488D03*
X55669Y-43307D03*
X55669Y-45275D03*
X55669Y-44094D03*
X56181Y-46259D03*
G54D18*
X55250Y-40450D02*
X56550Y-40450D01*
X57200Y-42209D02*
X56692Y-42716D01*
X57200Y-41100D02*
X57200Y-42209D01*
X56550Y-40450D02*
X57200Y-41100D01*
X54250Y-40450D02*
X55250Y-40450D01*
X43250Y-39450D02*
X42650Y-39450D01*
X41100Y-42281D02*
X41732Y-42913D01*
X41100Y-41000D02*
X41100Y-42281D01*
X42650Y-39450D02*
X41100Y-41000D01*
X43250Y-39450D02*
X43250Y-40450D01*
X44250Y-39450D02*
X43250Y-39450D01*
X43750Y-49850D02*
X43750Y-47915D01*
X43750Y-47915D02*
X43275Y-47440D01*
X43250Y-49850D02*
X43750Y-49850D01*
X43750Y-49850D02*
X44250Y-49850D01*
X53750Y-49850D02*
X53750Y-48449D01*
X54250Y-47949D02*
X55149Y-47050D01*
X53750Y-48449D02*
X54250Y-47949D01*
X53250Y-49850D02*
X53750Y-49850D01*
X53750Y-49850D02*
X54250Y-49850D01*
G54D19*
X56181Y-43503D02*
X56692Y-43503D01*
X56692Y-43110D02*
X56181Y-43110D01*
X56181Y-42716D02*
X56692Y-42716D01*
X55149Y-47244D02*
X55669Y-47244D01*
X55669Y-46850D02*
X55149Y-46850D01*
X41732Y-42913D02*
X42244Y-42913D01*
X42244Y-43307D02*
X41732Y-43307D01*
X41732Y-43700D02*
X42244Y-43700D01*
X42795Y-47440D02*
X43275Y-47440D01*
X43275Y-47047D02*
X42795Y-47047D01*
G54D20*
X41732Y-42913D02*
X41732Y-43700D01*
G54D19*
X43275Y-47047D02*
X43275Y-47250D01*
X43275Y-47250D02*
X43275Y-47440D01*
G54D21*
X43309Y-47047D02*
X43275Y-47047D01*
G54D19*
X56692Y-43503D02*
X56692Y-43110D01*
X56692Y-43110D02*
X56692Y-42716D01*
X56692Y-42716D02*
X56692Y-43110D01*
X41732Y-43700D02*
X41732Y-43307D01*
X41732Y-43307D02*
X41732Y-42913D01*
X55149Y-46850D02*
X55149Y-47050D01*
X55149Y-47050D02*
X55149Y-47244D01*
X51250Y-49850D02*
X51250Y-49550D01*
X45491Y-44291D02*
X43275Y-44291D01*
X50400Y-49200D02*
X45491Y-44291D01*
X50900Y-49200D02*
X50400Y-49200D01*
X51250Y-49550D02*
X50900Y-49200D01*
X42795Y-44291D02*
X43275Y-44291D01*
X50250Y-49850D02*
X50250Y-49650D01*
X45285Y-44685D02*
X43275Y-44685D01*
X50250Y-49650D02*
X45285Y-44685D01*
X43275Y-44685D02*
X42795Y-44685D01*
X49250Y-49850D02*
X49250Y-49250D01*
X45078Y-45078D02*
X43275Y-45078D01*
X49250Y-49250D02*
X45078Y-45078D01*
X42795Y-45078D02*
X43275Y-45078D01*
X48250Y-49850D02*
X48250Y-48850D01*
X44872Y-45472D02*
X43275Y-45472D01*
X48250Y-48850D02*
X44872Y-45472D01*
X43275Y-45472D02*
X42795Y-45472D01*
X47250Y-49850D02*
X47250Y-48450D01*
X44666Y-45866D02*
X43275Y-45866D01*
X47250Y-48450D02*
X44666Y-45866D01*
X42795Y-45866D02*
X43275Y-45866D01*
X46250Y-49850D02*
X46250Y-48050D01*
X44459Y-46259D02*
X43275Y-46259D01*
X46250Y-48050D02*
X44459Y-46259D01*
X43275Y-46259D02*
X42795Y-46259D01*
X45250Y-49850D02*
X45250Y-47650D01*
X44253Y-46653D02*
X43275Y-46653D01*
X45250Y-47650D02*
X44253Y-46653D01*
X42795Y-46653D02*
X43275Y-46653D01*
X55149Y-46456D02*
X48956Y-46456D01*
X44250Y-41750D02*
X44250Y-40450D01*
X48956Y-46456D02*
X44250Y-41750D01*
X55149Y-46456D02*
X55669Y-46456D01*
X55149Y-42913D02*
X54113Y-42913D01*
X53250Y-42050D02*
X53250Y-40450D01*
X54113Y-42913D02*
X53250Y-42050D01*
X55669Y-42913D02*
X55149Y-42913D01*
X56181Y-47440D02*
X56692Y-47440D01*
X56692Y-47047D02*
X56181Y-47047D01*
X56181Y-46653D02*
X56692Y-46653D01*
X56692Y-44685D02*
X56181Y-44685D01*
X56181Y-44291D02*
X56692Y-44291D01*
X56692Y-43897D02*
X56181Y-43897D01*
X42244Y-47244D02*
X41732Y-47244D01*
X41732Y-47637D02*
X42244Y-47637D01*
X43275Y-43897D02*
X42795Y-43897D01*
X42795Y-43503D02*
X43275Y-43503D01*
X43275Y-43110D02*
X42795Y-43110D01*
G54D22*
X54800Y-54800D02*
X54200Y-54800D01*
X58600Y-51000D02*
X58400Y-51200D01*
X58000Y-51600D02*
X57600Y-52000D01*
X57200Y-52400D02*
X56800Y-52800D01*
X56400Y-53200D02*
X56000Y-53600D01*
X55600Y-54000D02*
X55200Y-54400D01*
X40000Y-39400D02*
X40400Y-39000D01*
X40800Y-38600D02*
X41200Y-38200D01*
X41600Y-37800D02*
X42000Y-37400D01*
X42400Y-37000D02*
X42800Y-36600D01*
X43200Y-36200D02*
X43600Y-35800D01*
X43200Y-54400D02*
X42800Y-54000D01*
X42400Y-53600D02*
X42000Y-53200D01*
X41600Y-52800D02*
X41200Y-52400D01*
X40800Y-52000D02*
X40400Y-51600D01*
X40000Y-51200D02*
X39800Y-51000D01*
X39800Y-51000D02*
X39800Y-50600D01*
X44094Y-53543D02*
X44094Y-54305D01*
X44094Y-54305D02*
X43600Y-54800D01*
X39800Y-40400D02*
X39800Y-39800D01*
X39800Y-41600D02*
X39800Y-41000D01*
X39800Y-42800D02*
X39800Y-42200D01*
X39800Y-44000D02*
X39800Y-43400D01*
X39800Y-45200D02*
X39800Y-44600D01*
X39800Y-46400D02*
X39800Y-45800D01*
X39800Y-47600D02*
X39800Y-47000D01*
X39800Y-48800D02*
X39800Y-48200D01*
X39800Y-50000D02*
X39800Y-49400D01*
X53800Y-35800D02*
X54400Y-35800D01*
X52600Y-35800D02*
X53200Y-35800D01*
X51400Y-35800D02*
X52000Y-35800D01*
X50200Y-35800D02*
X50800Y-35800D01*
X49000Y-35800D02*
X49600Y-35800D01*
X47800Y-35800D02*
X48400Y-35800D01*
X46600Y-35800D02*
X47200Y-35800D01*
X45400Y-35800D02*
X46000Y-35800D01*
X44200Y-35800D02*
X44800Y-35800D01*
X55000Y-35800D02*
X55400Y-36200D01*
X55800Y-36600D02*
X56200Y-37000D01*
X56600Y-37400D02*
X57000Y-37800D01*
X57400Y-38200D02*
X57800Y-38600D01*
X58200Y-39000D02*
X58600Y-39400D01*
X58600Y-49600D02*
X58600Y-50200D01*
X58600Y-48400D02*
X58600Y-49000D01*
X58600Y-47200D02*
X58600Y-47800D01*
X58600Y-46000D02*
X58600Y-46600D01*
X58600Y-44800D02*
X58600Y-45400D01*
X58600Y-43600D02*
X58600Y-44200D01*
X58600Y-42400D02*
X58600Y-43000D01*
X58600Y-41200D02*
X58600Y-41800D01*
X58600Y-40000D02*
X58600Y-40600D01*
X58600Y-50800D02*
X58600Y-51000D01*
X45200Y-54800D02*
X44600Y-54800D01*
X46400Y-54800D02*
X45800Y-54800D01*
X47600Y-54800D02*
X47000Y-54800D01*
X48800Y-54800D02*
X48200Y-54800D01*
X50000Y-54800D02*
X49400Y-54800D01*
X51200Y-54800D02*
X50600Y-54800D01*
X52400Y-54800D02*
X51800Y-54800D01*
X53600Y-54800D02*
X53000Y-54800D01*
G54D19*
X41732Y-47637D02*
X41732Y-47450D01*
X41732Y-47450D02*
X41732Y-47244D01*
G54D21*
X41732Y-47244D02*
X41634Y-47244D01*
G54D19*
X56692Y-46653D02*
X56692Y-47047D01*
X56692Y-47047D02*
X56692Y-47440D01*
X56692Y-43897D02*
X56692Y-44291D01*
X56692Y-44291D02*
X56692Y-44685D01*
G54D22*
X41200Y-48850D02*
X41200Y-49600D01*
G54D21*
X45250Y-50850D02*
X44750Y-50350D01*
X44750Y-50350D02*
X42700Y-50350D01*
G54D22*
X41299Y-46850D02*
X41732Y-46850D01*
X41200Y-46950D02*
X41200Y-48800D01*
X41299Y-46850D02*
X41200Y-46950D01*
X41200Y-48800D02*
X41200Y-48850D01*
X41950Y-50350D02*
X42700Y-50350D01*
X41200Y-49600D02*
X41950Y-50350D01*
G54D19*
X41732Y-46850D02*
X42244Y-46850D01*
G54D22*
X41059Y-49050D02*
X41059Y-49709D01*
G54D21*
X45750Y-51350D02*
X42700Y-51350D01*
X46250Y-50850D02*
X45750Y-51350D01*
G54D22*
X41243Y-46456D02*
X41059Y-46640D01*
X41059Y-46640D02*
X41059Y-49050D01*
X41243Y-46456D02*
X41732Y-46456D01*
X41059Y-49709D02*
X42700Y-51350D01*
G54D19*
X42244Y-46456D02*
X41732Y-46456D01*
G54D22*
X40919Y-49050D02*
X40919Y-49819D01*
G54D21*
X46575Y-51525D02*
X46700Y-51400D01*
X47250Y-50850D02*
X46700Y-51400D01*
X42700Y-51525D02*
X46525Y-51525D01*
X46525Y-51525D02*
X46575Y-51525D01*
G54D22*
X41237Y-46062D02*
X40919Y-46380D01*
X40919Y-46380D02*
X40919Y-49050D01*
X41237Y-46062D02*
X41732Y-46062D01*
X42625Y-51525D02*
X42700Y-51525D01*
X40919Y-49819D02*
X42625Y-51525D01*
G54D19*
X41732Y-46062D02*
X42244Y-46062D01*
G54D22*
X40779Y-49050D02*
X40779Y-49929D01*
G54D21*
X47400Y-51700D02*
X47650Y-51450D01*
X48250Y-50850D02*
X47650Y-51450D01*
X42700Y-51700D02*
X47400Y-51700D01*
G54D22*
X41230Y-45669D02*
X40779Y-46120D01*
X40779Y-46120D02*
X40779Y-49050D01*
X41230Y-45669D02*
X41732Y-45669D01*
X42550Y-51700D02*
X42700Y-51700D01*
X40779Y-49929D02*
X42550Y-51700D01*
G54D19*
X42244Y-45669D02*
X41732Y-45669D01*
G54D22*
X40639Y-49050D02*
X40639Y-50039D01*
G54D21*
X48225Y-51875D02*
X42700Y-51875D01*
X48300Y-51800D02*
X48500Y-51600D01*
X49250Y-50850D02*
X48500Y-51600D01*
X48300Y-51800D02*
X48225Y-51875D01*
G54D22*
X41224Y-45275D02*
X40639Y-45860D01*
X40639Y-45860D02*
X40639Y-49050D01*
X41224Y-45275D02*
X41732Y-45275D01*
X42475Y-51875D02*
X42700Y-51875D01*
X40639Y-50039D02*
X42475Y-51875D01*
G54D19*
X41732Y-45275D02*
X42244Y-45275D01*
G54D22*
X40499Y-49050D02*
X40499Y-50149D01*
G54D21*
X49050Y-52050D02*
X49150Y-51950D01*
X49450Y-51650D02*
X49150Y-51950D01*
X49462Y-51637D02*
X49450Y-51650D01*
X50250Y-50850D02*
X49462Y-51637D01*
X42700Y-52050D02*
X48400Y-52050D01*
X48400Y-52050D02*
X49050Y-52050D01*
G54D22*
X41218Y-44881D02*
X41732Y-44881D01*
X40499Y-45600D02*
X40499Y-46000D01*
X41218Y-44881D02*
X40499Y-45600D01*
X40499Y-49050D02*
X40499Y-46000D01*
X42400Y-52050D02*
X42700Y-52050D01*
X40499Y-50149D02*
X42400Y-52050D01*
G54D19*
X42244Y-44881D02*
X41732Y-44881D01*
G54D22*
X40359Y-49050D02*
X40359Y-50259D01*
G54D21*
X49875Y-52225D02*
X42700Y-52225D01*
X49925Y-52175D02*
X50250Y-51850D01*
X51250Y-50850D02*
X50250Y-51850D01*
X49925Y-52175D02*
X49875Y-52225D01*
G54D22*
X41211Y-44488D02*
X41732Y-44488D01*
X40359Y-45340D02*
X40359Y-45750D01*
X41211Y-44488D02*
X40359Y-45340D01*
X40359Y-49050D02*
X40359Y-45750D01*
X42325Y-52225D02*
X42700Y-52225D01*
X40359Y-50259D02*
X42325Y-52225D01*
G54D19*
X41732Y-44488D02*
X42244Y-44488D01*
G54D22*
X41720Y-44500D02*
X41732Y-44488D01*
X40219Y-49050D02*
X40219Y-50369D01*
G54D21*
X50725Y-52375D02*
X50700Y-52400D01*
X50700Y-52400D02*
X42700Y-52400D01*
X50775Y-52325D02*
X51050Y-52050D01*
X52250Y-50850D02*
X51050Y-52050D01*
X50775Y-52325D02*
X50725Y-52375D01*
G54D22*
X41205Y-44094D02*
X41732Y-44094D01*
X40219Y-45080D02*
X40219Y-45650D01*
X41205Y-44094D02*
X40219Y-45080D01*
X40219Y-49050D02*
X40219Y-45650D01*
X42250Y-52400D02*
X42700Y-52400D01*
X40219Y-50369D02*
X42250Y-52400D01*
G54D19*
X42244Y-44094D02*
X41732Y-44094D01*
G54D21*
X56000Y-40000D02*
X56750Y-40000D01*
X53800Y-40000D02*
X56000Y-40000D01*
X53250Y-39450D02*
X53800Y-40000D01*
X57221Y-45078D02*
X56692Y-45078D01*
X57600Y-44700D02*
X57221Y-45078D01*
X57600Y-40850D02*
X57600Y-44700D01*
X56750Y-40000D02*
X57600Y-40850D01*
G54D19*
X56181Y-45078D02*
X56692Y-45078D01*
G54D21*
X56692Y-45472D02*
X57227Y-45472D01*
X52750Y-38950D02*
X56000Y-38950D01*
X52750Y-38950D02*
X52250Y-39450D01*
X56100Y-38950D02*
X56000Y-38950D01*
X57800Y-40650D02*
X56100Y-38950D01*
X57800Y-41850D02*
X57800Y-40650D01*
X57800Y-44550D02*
X57800Y-41850D01*
X57800Y-44900D02*
X57800Y-44550D01*
X57227Y-45472D02*
X57800Y-44900D01*
G54D19*
X56692Y-45472D02*
X56181Y-45472D01*
G54D21*
X56000Y-38750D02*
X56300Y-38750D01*
X51900Y-38800D02*
X51950Y-38750D01*
X51950Y-38750D02*
X56000Y-38750D01*
X51250Y-39450D02*
X51900Y-38800D01*
X57283Y-45866D02*
X56692Y-45866D01*
X58000Y-45150D02*
X57283Y-45866D01*
X58000Y-40450D02*
X58000Y-45150D01*
X56300Y-38750D02*
X58000Y-40450D01*
G54D19*
X56181Y-45866D02*
X56692Y-45866D01*
X55149Y-45669D02*
X50269Y-45669D01*
X46250Y-41650D02*
X46250Y-40450D01*
X50269Y-45669D02*
X46250Y-41650D01*
X55149Y-45669D02*
X55669Y-45669D01*
X55149Y-46062D02*
X49662Y-46062D01*
X45250Y-41650D02*
X45250Y-40450D01*
X49662Y-46062D02*
X45250Y-41650D01*
X55669Y-46062D02*
X55149Y-46062D01*
X55149Y-44881D02*
X51481Y-44881D01*
X48250Y-41650D02*
X48250Y-40450D01*
X51481Y-44881D02*
X48250Y-41650D01*
X55149Y-44881D02*
X55669Y-44881D01*
X51250Y-40450D02*
X51250Y-41950D01*
X53000Y-43700D02*
X55149Y-43700D01*
X51250Y-41950D02*
X53000Y-43700D01*
X55669Y-43700D02*
X55149Y-43700D01*
X55149Y-44488D02*
X51988Y-44488D01*
X49250Y-41750D02*
X49250Y-40450D01*
X51988Y-44488D02*
X49250Y-41750D01*
X55669Y-44488D02*
X55149Y-44488D01*
X55149Y-43307D02*
X53607Y-43307D01*
X52250Y-41950D02*
X52250Y-40450D01*
X53607Y-43307D02*
X52250Y-41950D01*
X55149Y-43307D02*
X55669Y-43307D01*
X55149Y-45275D02*
X50875Y-45275D01*
X47250Y-41650D02*
X47250Y-40450D01*
X50875Y-45275D02*
X47250Y-41650D01*
X55669Y-45275D02*
X55149Y-45275D01*
X55149Y-44094D02*
X52494Y-44094D01*
X50250Y-41850D02*
X50250Y-40450D01*
X52494Y-44094D02*
X50250Y-41850D01*
X55149Y-44094D02*
X55669Y-44094D01*
G54D21*
X56692Y-46259D02*
X57340Y-46259D01*
X51150Y-38550D02*
X56000Y-38550D01*
X51150Y-38550D02*
X50250Y-39450D01*
X56500Y-38550D02*
X56000Y-38550D01*
X58200Y-40250D02*
X56500Y-38550D01*
X58200Y-45400D02*
X58200Y-40250D01*
X57340Y-46259D02*
X58200Y-45400D01*
G54D19*
X56692Y-46259D02*
X56181Y-46259D01*
G54D10*
G36*
X45052Y-51200D02*
X44626Y-51200D01*
X44626Y-50914D01*
X44622Y-50765D01*
X44573Y-50645D01*
X44524Y-50611D01*
X44285Y-50850D01*
X44524Y-51088D01*
X44573Y-51054D01*
X44626Y-50914D01*
X44626Y-51200D01*
X44388Y-51200D01*
X44454Y-51173D01*
X44488Y-51124D01*
X44250Y-50885D01*
X44214Y-50920D01*
X44214Y-50850D01*
X43975Y-50611D01*
X43926Y-50645D01*
X43873Y-50785D01*
X43877Y-50934D01*
X43926Y-51054D01*
X43975Y-51088D01*
X44214Y-50850D01*
X44214Y-50920D01*
X44011Y-51124D01*
X44045Y-51173D01*
X44116Y-51200D01*
X43626Y-51200D01*
X43626Y-50914D01*
X43622Y-50765D01*
X43573Y-50645D01*
X43524Y-50611D01*
X43285Y-50850D01*
X43524Y-51088D01*
X43573Y-51054D01*
X43626Y-50914D01*
X43626Y-51200D01*
X43388Y-51200D01*
X43454Y-51173D01*
X43488Y-51124D01*
X43250Y-50885D01*
X43214Y-50920D01*
X43214Y-50850D01*
X42975Y-50611D01*
X42926Y-50645D01*
X42873Y-50785D01*
X42877Y-50934D01*
X42926Y-51054D01*
X42975Y-51088D01*
X43214Y-50850D01*
X43214Y-50920D01*
X43011Y-51124D01*
X43045Y-51173D01*
X43116Y-51200D01*
X42747Y-51200D01*
X42036Y-50489D01*
X42649Y-50489D01*
X42700Y-50499D01*
X43111Y-50499D01*
X43045Y-50526D01*
X43011Y-50575D01*
X43250Y-50814D01*
X43488Y-50575D01*
X43454Y-50526D01*
X43383Y-50499D01*
X44111Y-50499D01*
X44045Y-50526D01*
X44011Y-50575D01*
X44250Y-50814D01*
X44488Y-50575D01*
X44454Y-50526D01*
X44383Y-50499D01*
X44688Y-50499D01*
X44882Y-50693D01*
X44850Y-50770D01*
X44850Y-50929D01*
X44911Y-51075D01*
X45023Y-51188D01*
X45052Y-51200D01*
X45052Y-51200D01*
G37*
G54D23*
X45052Y-51200D02*
X44626Y-51200D01*
X44626Y-50914D01*
X44622Y-50765D01*
X44573Y-50645D01*
X44524Y-50611D01*
X44285Y-50850D01*
X44524Y-51088D01*
X44573Y-51054D01*
X44626Y-50914D01*
X44626Y-51200D01*
X44388Y-51200D01*
X44454Y-51173D01*
X44488Y-51124D01*
X44250Y-50885D01*
X44214Y-50920D01*
X44214Y-50850D01*
X43975Y-50611D01*
X43926Y-50645D01*
X43873Y-50785D01*
X43877Y-50934D01*
X43926Y-51054D01*
X43975Y-51088D01*
X44214Y-50850D01*
X44214Y-50920D01*
X44011Y-51124D01*
X44045Y-51173D01*
X44116Y-51200D01*
X43626Y-51200D01*
X43626Y-50914D01*
X43622Y-50765D01*
X43573Y-50645D01*
X43524Y-50611D01*
X43285Y-50850D01*
X43524Y-51088D01*
X43573Y-51054D01*
X43626Y-50914D01*
X43626Y-51200D01*
X43388Y-51200D01*
X43454Y-51173D01*
X43488Y-51124D01*
X43250Y-50885D01*
X43214Y-50920D01*
X43214Y-50850D01*
X42975Y-50611D01*
X42926Y-50645D01*
X42873Y-50785D01*
X42877Y-50934D01*
X42926Y-51054D01*
X42975Y-51088D01*
X43214Y-50850D01*
X43214Y-50920D01*
X43011Y-51124D01*
X43045Y-51173D01*
X43116Y-51200D01*
X42747Y-51200D01*
X42036Y-50489D01*
X42649Y-50489D01*
X42700Y-50499D01*
X43111Y-50499D01*
X43045Y-50526D01*
X43011Y-50575D01*
X43250Y-50814D01*
X43488Y-50575D01*
X43454Y-50526D01*
X43383Y-50499D01*
X44111Y-50499D01*
X44045Y-50526D01*
X44011Y-50575D01*
X44250Y-50814D01*
X44488Y-50575D01*
X44454Y-50526D01*
X44383Y-50499D01*
X44688Y-50499D01*
X44882Y-50693D01*
X44850Y-50770D01*
X44850Y-50929D01*
X44911Y-51075D01*
X45023Y-51188D01*
X45052Y-51200D01*
G54D10*
G36*
X56799Y-39860D02*
X56750Y-39850D01*
X56000Y-39850D01*
X55626Y-39850D01*
X55626Y-39514D01*
X55622Y-39365D01*
X55573Y-39245D01*
X55524Y-39211D01*
X55285Y-39450D01*
X55524Y-39688D01*
X55573Y-39654D01*
X55626Y-39514D01*
X55626Y-39850D01*
X55488Y-39850D01*
X55488Y-39724D01*
X55250Y-39485D01*
X55214Y-39520D01*
X55214Y-39450D01*
X54975Y-39211D01*
X54926Y-39245D01*
X54873Y-39385D01*
X54877Y-39534D01*
X54926Y-39654D01*
X54975Y-39688D01*
X55214Y-39450D01*
X55214Y-39520D01*
X55011Y-39724D01*
X55045Y-39773D01*
X55185Y-39826D01*
X55334Y-39822D01*
X55454Y-39773D01*
X55488Y-39724D01*
X55488Y-39850D01*
X54626Y-39850D01*
X54626Y-39514D01*
X54622Y-39365D01*
X54573Y-39245D01*
X54524Y-39211D01*
X54285Y-39450D01*
X54524Y-39688D01*
X54573Y-39654D01*
X54626Y-39514D01*
X54626Y-39850D01*
X54488Y-39850D01*
X54488Y-39724D01*
X54250Y-39485D01*
X54214Y-39520D01*
X54214Y-39450D01*
X53975Y-39211D01*
X53926Y-39245D01*
X53873Y-39385D01*
X53877Y-39534D01*
X53926Y-39654D01*
X53975Y-39688D01*
X54214Y-39450D01*
X54214Y-39520D01*
X54011Y-39724D01*
X54045Y-39773D01*
X54185Y-39826D01*
X54334Y-39822D01*
X54454Y-39773D01*
X54488Y-39724D01*
X54488Y-39850D01*
X53861Y-39850D01*
X53617Y-39606D01*
X53649Y-39529D01*
X53649Y-39370D01*
X53588Y-39224D01*
X53476Y-39111D01*
X53447Y-39099D01*
X54111Y-39099D01*
X54045Y-39126D01*
X54011Y-39175D01*
X54250Y-39414D01*
X54488Y-39175D01*
X54454Y-39126D01*
X54383Y-39099D01*
X55111Y-39099D01*
X55045Y-39126D01*
X55011Y-39175D01*
X55250Y-39414D01*
X55488Y-39175D01*
X55454Y-39126D01*
X55383Y-39099D01*
X56000Y-39099D01*
X56038Y-39099D01*
X56799Y-39860D01*
X56799Y-39860D01*
G37*
G54D23*
X56799Y-39860D02*
X56750Y-39850D01*
X56000Y-39850D01*
X55626Y-39850D01*
X55626Y-39514D01*
X55622Y-39365D01*
X55573Y-39245D01*
X55524Y-39211D01*
X55285Y-39450D01*
X55524Y-39688D01*
X55573Y-39654D01*
X55626Y-39514D01*
X55626Y-39850D01*
X55488Y-39850D01*
X55488Y-39724D01*
X55250Y-39485D01*
X55214Y-39520D01*
X55214Y-39450D01*
X54975Y-39211D01*
X54926Y-39245D01*
X54873Y-39385D01*
X54877Y-39534D01*
X54926Y-39654D01*
X54975Y-39688D01*
X55214Y-39450D01*
X55214Y-39520D01*
X55011Y-39724D01*
X55045Y-39773D01*
X55185Y-39826D01*
X55334Y-39822D01*
X55454Y-39773D01*
X55488Y-39724D01*
X55488Y-39850D01*
X54626Y-39850D01*
X54626Y-39514D01*
X54622Y-39365D01*
X54573Y-39245D01*
X54524Y-39211D01*
X54285Y-39450D01*
X54524Y-39688D01*
X54573Y-39654D01*
X54626Y-39514D01*
X54626Y-39850D01*
X54488Y-39850D01*
X54488Y-39724D01*
X54250Y-39485D01*
X54214Y-39520D01*
X54214Y-39450D01*
X53975Y-39211D01*
X53926Y-39245D01*
X53873Y-39385D01*
X53877Y-39534D01*
X53926Y-39654D01*
X53975Y-39688D01*
X54214Y-39450D01*
X54214Y-39520D01*
X54011Y-39724D01*
X54045Y-39773D01*
X54185Y-39826D01*
X54334Y-39822D01*
X54454Y-39773D01*
X54488Y-39724D01*
X54488Y-39850D01*
X53861Y-39850D01*
X53617Y-39606D01*
X53649Y-39529D01*
X53649Y-39370D01*
X53588Y-39224D01*
X53476Y-39111D01*
X53447Y-39099D01*
X54111Y-39099D01*
X54045Y-39126D01*
X54011Y-39175D01*
X54250Y-39414D01*
X54488Y-39175D01*
X54454Y-39126D01*
X54383Y-39099D01*
X55111Y-39099D01*
X55045Y-39126D01*
X55011Y-39175D01*
X55250Y-39414D01*
X55488Y-39175D01*
X55454Y-39126D01*
X55383Y-39099D01*
X56000Y-39099D01*
X56038Y-39099D01*
X56799Y-39860D01*
G54D10*
G36*
X58950Y-51137D02*
X58349Y-51739D01*
X58349Y-45400D01*
X58349Y-40250D01*
X58338Y-40192D01*
X58338Y-40192D01*
X58305Y-40144D01*
X56605Y-38444D01*
X56557Y-38411D01*
X56500Y-38400D01*
X56000Y-38400D01*
X51150Y-38400D01*
X51092Y-38411D01*
X51044Y-38444D01*
X50406Y-39082D01*
X50329Y-39050D01*
X50170Y-39050D01*
X50024Y-39111D01*
X49911Y-39223D01*
X49850Y-39370D01*
X49850Y-39529D01*
X49911Y-39675D01*
X50023Y-39788D01*
X50170Y-39849D01*
X50329Y-39849D01*
X50475Y-39788D01*
X50588Y-39676D01*
X50649Y-39529D01*
X50649Y-39370D01*
X50617Y-39293D01*
X51211Y-38699D01*
X51789Y-38699D01*
X51406Y-39082D01*
X51329Y-39050D01*
X51170Y-39050D01*
X51024Y-39111D01*
X50911Y-39223D01*
X50850Y-39370D01*
X50850Y-39529D01*
X50911Y-39675D01*
X51023Y-39788D01*
X51170Y-39849D01*
X51329Y-39849D01*
X51475Y-39788D01*
X51588Y-39676D01*
X51649Y-39529D01*
X51649Y-39370D01*
X51617Y-39293D01*
X52005Y-38905D01*
X52011Y-38899D01*
X52589Y-38899D01*
X52406Y-39082D01*
X52329Y-39050D01*
X52170Y-39050D01*
X52024Y-39111D01*
X51911Y-39223D01*
X51850Y-39370D01*
X51850Y-39529D01*
X51911Y-39675D01*
X52023Y-39788D01*
X52170Y-39849D01*
X52329Y-39849D01*
X52475Y-39788D01*
X52588Y-39676D01*
X52649Y-39529D01*
X52649Y-39370D01*
X52617Y-39293D01*
X52811Y-39099D01*
X53052Y-39099D01*
X53024Y-39111D01*
X52911Y-39223D01*
X52850Y-39370D01*
X52850Y-39529D01*
X52911Y-39675D01*
X53023Y-39788D01*
X53170Y-39849D01*
X53329Y-39849D01*
X53406Y-39817D01*
X53694Y-40105D01*
X53742Y-40138D01*
X53742Y-40138D01*
X53800Y-40149D01*
X53985Y-40149D01*
X53911Y-40223D01*
X53850Y-40370D01*
X53850Y-40529D01*
X53911Y-40675D01*
X54023Y-40788D01*
X54170Y-40849D01*
X54329Y-40849D01*
X54475Y-40788D01*
X54555Y-40709D01*
X54944Y-40709D01*
X55023Y-40788D01*
X55170Y-40849D01*
X55329Y-40849D01*
X55475Y-40788D01*
X55555Y-40709D01*
X56442Y-40709D01*
X56940Y-41207D01*
X56940Y-42101D01*
X56689Y-42352D01*
X56689Y-41771D01*
X56689Y-41732D01*
X56689Y-41220D01*
X56674Y-41183D01*
X56646Y-41155D01*
X56610Y-41140D01*
X56570Y-41140D01*
X55232Y-41140D01*
X55195Y-41155D01*
X55167Y-41183D01*
X55152Y-41220D01*
X55152Y-41259D01*
X55152Y-41771D01*
X55167Y-41808D01*
X55195Y-41836D01*
X55232Y-41851D01*
X55271Y-41851D01*
X55673Y-41851D01*
X55620Y-41904D01*
X55566Y-42035D01*
X55565Y-42176D01*
X55619Y-42307D01*
X55719Y-42407D01*
X55850Y-42461D01*
X55991Y-42461D01*
X56122Y-42407D01*
X56222Y-42307D01*
X56276Y-42177D01*
X56276Y-42035D01*
X56222Y-41905D01*
X56168Y-41851D01*
X56610Y-41851D01*
X56646Y-41836D01*
X56674Y-41808D01*
X56689Y-41771D01*
X56689Y-42352D01*
X56509Y-42533D01*
X56506Y-42537D01*
X56269Y-42537D01*
X56220Y-42517D01*
X56141Y-42517D01*
X56068Y-42547D01*
X56012Y-42603D01*
X55981Y-42676D01*
X55981Y-42756D01*
X56011Y-42829D01*
X56067Y-42885D01*
X56135Y-42913D01*
X56068Y-42941D01*
X56012Y-42997D01*
X55981Y-43070D01*
X55981Y-43149D01*
X56011Y-43223D01*
X56067Y-43279D01*
X56135Y-43307D01*
X56068Y-43334D01*
X56012Y-43390D01*
X55981Y-43464D01*
X55981Y-43543D01*
X56011Y-43616D01*
X56067Y-43672D01*
X56141Y-43703D01*
X56220Y-43703D01*
X56269Y-43683D01*
X56692Y-43683D01*
X56699Y-43682D01*
X57122Y-43682D01*
X57158Y-43666D01*
X57186Y-43638D01*
X57201Y-43602D01*
X57201Y-43562D01*
X57201Y-43405D01*
X57186Y-43368D01*
X57158Y-43340D01*
X57122Y-43325D01*
X57082Y-43325D01*
X56872Y-43325D01*
X56872Y-43288D01*
X57122Y-43288D01*
X57158Y-43273D01*
X57186Y-43245D01*
X57201Y-43208D01*
X57201Y-43169D01*
X57201Y-43011D01*
X57186Y-42975D01*
X57158Y-42947D01*
X57122Y-42932D01*
X57082Y-42932D01*
X56872Y-42932D01*
X56872Y-42902D01*
X56876Y-42899D01*
X56881Y-42894D01*
X57122Y-42894D01*
X57158Y-42879D01*
X57186Y-42851D01*
X57201Y-42815D01*
X57201Y-42775D01*
X57201Y-42618D01*
X57189Y-42587D01*
X57383Y-42392D01*
X57439Y-42308D01*
X57450Y-42253D01*
X57450Y-44638D01*
X57177Y-44911D01*
X57177Y-44778D01*
X57177Y-44728D01*
X57177Y-44641D01*
X57177Y-44591D01*
X57177Y-44384D01*
X57177Y-44335D01*
X57177Y-44247D01*
X57177Y-44197D01*
X57177Y-43991D01*
X57177Y-43941D01*
X57177Y-43853D01*
X57177Y-43803D01*
X57165Y-43776D01*
X57144Y-43755D01*
X57117Y-43743D01*
X57087Y-43743D01*
X56736Y-43743D01*
X56717Y-43762D01*
X56717Y-43872D01*
X57158Y-43872D01*
X57177Y-43853D01*
X57177Y-43941D01*
X57158Y-43922D01*
X56717Y-43922D01*
X56717Y-44032D01*
X56736Y-44051D01*
X57087Y-44051D01*
X57117Y-44051D01*
X57144Y-44039D01*
X57165Y-44018D01*
X57177Y-43991D01*
X57177Y-44197D01*
X57165Y-44170D01*
X57144Y-44149D01*
X57117Y-44137D01*
X57087Y-44137D01*
X56736Y-44137D01*
X56717Y-44156D01*
X56717Y-44266D01*
X57158Y-44266D01*
X57177Y-44247D01*
X57177Y-44335D01*
X57158Y-44316D01*
X56717Y-44316D01*
X56717Y-44426D01*
X56736Y-44445D01*
X57087Y-44445D01*
X57117Y-44445D01*
X57144Y-44433D01*
X57165Y-44412D01*
X57177Y-44384D01*
X57177Y-44591D01*
X57165Y-44563D01*
X57144Y-44542D01*
X57117Y-44531D01*
X57087Y-44531D01*
X56736Y-44531D01*
X56717Y-44550D01*
X56717Y-44660D01*
X57158Y-44660D01*
X57177Y-44641D01*
X57177Y-44728D01*
X57158Y-44710D01*
X56717Y-44710D01*
X56717Y-44820D01*
X56736Y-44838D01*
X57087Y-44838D01*
X57117Y-44838D01*
X57144Y-44827D01*
X57165Y-44806D01*
X57177Y-44778D01*
X57177Y-44911D01*
X57165Y-44922D01*
X57158Y-44915D01*
X57122Y-44900D01*
X57082Y-44900D01*
X56699Y-44900D01*
X56692Y-44899D01*
X56667Y-44899D01*
X56667Y-44820D01*
X56667Y-44710D01*
X56667Y-44660D01*
X56667Y-44550D01*
X56667Y-44426D01*
X56667Y-44316D01*
X56667Y-44266D01*
X56667Y-44156D01*
X56667Y-44032D01*
X56667Y-43922D01*
X56667Y-43872D01*
X56667Y-43762D01*
X56649Y-43743D01*
X56298Y-43743D01*
X56268Y-43743D01*
X56240Y-43755D01*
X56219Y-43776D01*
X56208Y-43803D01*
X56208Y-43853D01*
X56227Y-43872D01*
X56667Y-43872D01*
X56667Y-43922D01*
X56227Y-43922D01*
X56208Y-43941D01*
X56208Y-43991D01*
X56219Y-44018D01*
X56240Y-44039D01*
X56268Y-44051D01*
X56298Y-44051D01*
X56649Y-44051D01*
X56667Y-44032D01*
X56667Y-44156D01*
X56649Y-44137D01*
X56298Y-44137D01*
X56268Y-44137D01*
X56240Y-44149D01*
X56219Y-44170D01*
X56208Y-44197D01*
X56208Y-44247D01*
X56227Y-44266D01*
X56667Y-44266D01*
X56667Y-44316D01*
X56227Y-44316D01*
X56208Y-44335D01*
X56208Y-44384D01*
X56219Y-44412D01*
X56240Y-44433D01*
X56268Y-44445D01*
X56298Y-44445D01*
X56649Y-44445D01*
X56667Y-44426D01*
X56667Y-44550D01*
X56649Y-44531D01*
X56298Y-44531D01*
X56268Y-44531D01*
X56240Y-44542D01*
X56219Y-44563D01*
X56208Y-44591D01*
X56208Y-44641D01*
X56227Y-44660D01*
X56667Y-44660D01*
X56667Y-44710D01*
X56227Y-44710D01*
X56208Y-44728D01*
X56208Y-44778D01*
X56219Y-44806D01*
X56240Y-44827D01*
X56268Y-44838D01*
X56298Y-44838D01*
X56649Y-44838D01*
X56667Y-44820D01*
X56667Y-44899D01*
X56269Y-44899D01*
X56220Y-44879D01*
X56141Y-44879D01*
X56068Y-44909D01*
X56012Y-44965D01*
X55981Y-45038D01*
X55981Y-45118D01*
X56011Y-45191D01*
X56067Y-45247D01*
X56135Y-45275D01*
X56068Y-45303D01*
X56012Y-45359D01*
X55981Y-45432D01*
X55981Y-45511D01*
X56011Y-45585D01*
X56067Y-45641D01*
X56135Y-45669D01*
X56068Y-45696D01*
X56012Y-45753D01*
X55981Y-45826D01*
X55981Y-45905D01*
X56011Y-45978D01*
X56067Y-46035D01*
X56135Y-46063D01*
X56068Y-46090D01*
X56012Y-46146D01*
X55981Y-46220D01*
X55981Y-46299D01*
X56011Y-46372D01*
X56067Y-46428D01*
X56141Y-46459D01*
X56220Y-46459D01*
X56269Y-46439D01*
X56692Y-46439D01*
X56699Y-46437D01*
X57122Y-46437D01*
X57158Y-46422D01*
X57172Y-46409D01*
X57340Y-46409D01*
X57397Y-46397D01*
X57445Y-46365D01*
X58305Y-45505D01*
X58338Y-45457D01*
X58338Y-45457D01*
X58349Y-45400D01*
X58349Y-51739D01*
X57177Y-52911D01*
X57177Y-47534D01*
X57177Y-47484D01*
X57177Y-47397D01*
X57177Y-47347D01*
X57177Y-47140D01*
X57177Y-47090D01*
X57177Y-47003D01*
X57177Y-46953D01*
X57177Y-46747D01*
X57177Y-46697D01*
X57177Y-46609D01*
X57177Y-46559D01*
X57165Y-46532D01*
X57144Y-46511D01*
X57117Y-46499D01*
X57087Y-46499D01*
X56736Y-46499D01*
X56717Y-46518D01*
X56717Y-46628D01*
X57158Y-46628D01*
X57177Y-46609D01*
X57177Y-46697D01*
X57158Y-46678D01*
X56717Y-46678D01*
X56717Y-46788D01*
X56736Y-46807D01*
X57087Y-46807D01*
X57117Y-46807D01*
X57144Y-46795D01*
X57165Y-46774D01*
X57177Y-46747D01*
X57177Y-46953D01*
X57165Y-46926D01*
X57144Y-46904D01*
X57117Y-46893D01*
X57087Y-46893D01*
X56736Y-46893D01*
X56717Y-46912D01*
X56717Y-47022D01*
X57158Y-47022D01*
X57177Y-47003D01*
X57177Y-47090D01*
X57158Y-47072D01*
X56717Y-47072D01*
X56717Y-47182D01*
X56736Y-47200D01*
X57087Y-47200D01*
X57117Y-47200D01*
X57144Y-47189D01*
X57165Y-47168D01*
X57177Y-47140D01*
X57177Y-47347D01*
X57165Y-47319D01*
X57144Y-47298D01*
X57117Y-47287D01*
X57087Y-47287D01*
X56736Y-47287D01*
X56717Y-47305D01*
X56717Y-47415D01*
X57158Y-47415D01*
X57177Y-47397D01*
X57177Y-47484D01*
X57158Y-47465D01*
X56717Y-47465D01*
X56717Y-47575D01*
X56736Y-47594D01*
X57087Y-47594D01*
X57117Y-47594D01*
X57144Y-47583D01*
X57165Y-47562D01*
X57177Y-47534D01*
X57177Y-52911D01*
X56689Y-53398D01*
X56689Y-48937D01*
X56689Y-48897D01*
X56689Y-48385D01*
X56674Y-48349D01*
X56667Y-48342D01*
X56667Y-47575D01*
X56667Y-47465D01*
X56667Y-47415D01*
X56667Y-47305D01*
X56667Y-47182D01*
X56667Y-47072D01*
X56667Y-47022D01*
X56667Y-46912D01*
X56667Y-46788D01*
X56667Y-46678D01*
X56667Y-46628D01*
X56667Y-46518D01*
X56649Y-46499D01*
X56298Y-46499D01*
X56268Y-46499D01*
X56240Y-46511D01*
X56219Y-46532D01*
X56208Y-46559D01*
X56208Y-46609D01*
X56227Y-46628D01*
X56667Y-46628D01*
X56667Y-46678D01*
X56227Y-46678D01*
X56208Y-46697D01*
X56208Y-46747D01*
X56219Y-46774D01*
X56240Y-46795D01*
X56268Y-46807D01*
X56298Y-46807D01*
X56649Y-46807D01*
X56667Y-46788D01*
X56667Y-46912D01*
X56649Y-46893D01*
X56298Y-46893D01*
X56268Y-46893D01*
X56240Y-46904D01*
X56219Y-46926D01*
X56208Y-46953D01*
X56208Y-47003D01*
X56227Y-47022D01*
X56667Y-47022D01*
X56667Y-47072D01*
X56227Y-47072D01*
X56208Y-47090D01*
X56208Y-47140D01*
X56219Y-47168D01*
X56240Y-47189D01*
X56268Y-47200D01*
X56298Y-47200D01*
X56649Y-47200D01*
X56667Y-47182D01*
X56667Y-47305D01*
X56649Y-47287D01*
X56298Y-47287D01*
X56268Y-47287D01*
X56240Y-47298D01*
X56219Y-47319D01*
X56208Y-47347D01*
X56208Y-47397D01*
X56227Y-47415D01*
X56667Y-47415D01*
X56667Y-47465D01*
X56227Y-47465D01*
X56208Y-47484D01*
X56208Y-47534D01*
X56219Y-47562D01*
X56240Y-47583D01*
X56268Y-47594D01*
X56298Y-47594D01*
X56649Y-47594D01*
X56667Y-47575D01*
X56667Y-48342D01*
X56646Y-48321D01*
X56610Y-48306D01*
X56570Y-48306D01*
X56168Y-48306D01*
X56222Y-48252D01*
X56276Y-48122D01*
X56276Y-47980D01*
X56222Y-47850D01*
X56122Y-47750D01*
X55992Y-47695D01*
X55868Y-47695D01*
X55868Y-47204D01*
X55838Y-47131D01*
X55782Y-47075D01*
X55715Y-47047D01*
X55782Y-47019D01*
X55838Y-46963D01*
X55868Y-46890D01*
X55868Y-46810D01*
X55838Y-46737D01*
X55782Y-46681D01*
X55715Y-46653D01*
X55782Y-46625D01*
X55838Y-46569D01*
X55868Y-46496D01*
X55868Y-46417D01*
X55838Y-46343D01*
X55782Y-46287D01*
X55715Y-46259D01*
X55782Y-46232D01*
X55838Y-46176D01*
X55868Y-46102D01*
X55868Y-46023D01*
X55838Y-45950D01*
X55782Y-45894D01*
X55715Y-45866D01*
X55782Y-45838D01*
X55838Y-45782D01*
X55868Y-45709D01*
X55868Y-45629D01*
X55838Y-45556D01*
X55782Y-45500D01*
X55715Y-45472D01*
X55782Y-45444D01*
X55838Y-45388D01*
X55868Y-45315D01*
X55868Y-45236D01*
X55838Y-45162D01*
X55782Y-45106D01*
X55715Y-45078D01*
X55782Y-45051D01*
X55838Y-44994D01*
X55868Y-44921D01*
X55868Y-44842D01*
X55838Y-44769D01*
X55782Y-44712D01*
X55715Y-44685D01*
X55782Y-44657D01*
X55838Y-44601D01*
X55868Y-44528D01*
X55868Y-44448D01*
X55838Y-44375D01*
X55782Y-44319D01*
X55715Y-44291D01*
X55782Y-44263D01*
X55838Y-44207D01*
X55868Y-44134D01*
X55868Y-44054D01*
X55838Y-43981D01*
X55782Y-43925D01*
X55715Y-43897D01*
X55782Y-43869D01*
X55838Y-43813D01*
X55868Y-43740D01*
X55868Y-43661D01*
X55838Y-43587D01*
X55782Y-43531D01*
X55715Y-43503D01*
X55782Y-43476D01*
X55838Y-43420D01*
X55868Y-43346D01*
X55868Y-43267D01*
X55838Y-43194D01*
X55782Y-43138D01*
X55715Y-43110D01*
X55782Y-43082D01*
X55838Y-43026D01*
X55868Y-42953D01*
X55868Y-42873D01*
X55838Y-42800D01*
X55782Y-42744D01*
X55709Y-42714D01*
X55629Y-42713D01*
X55581Y-42733D01*
X55149Y-42733D01*
X54187Y-42733D01*
X53429Y-41975D01*
X53429Y-40808D01*
X53475Y-40788D01*
X53588Y-40676D01*
X53649Y-40529D01*
X53649Y-40370D01*
X53588Y-40224D01*
X53476Y-40111D01*
X53329Y-40050D01*
X53170Y-40050D01*
X53024Y-40111D01*
X52911Y-40223D01*
X52850Y-40370D01*
X52850Y-40529D01*
X52911Y-40675D01*
X53023Y-40788D01*
X53070Y-40807D01*
X53070Y-42049D01*
X53070Y-42050D01*
X53084Y-42118D01*
X53123Y-42176D01*
X53986Y-43040D01*
X53986Y-43040D01*
X54044Y-43079D01*
X54113Y-43092D01*
X55149Y-43092D01*
X55581Y-43092D01*
X55623Y-43110D01*
X55581Y-43127D01*
X55149Y-43127D01*
X53681Y-43127D01*
X52429Y-41875D01*
X52429Y-40808D01*
X52475Y-40788D01*
X52588Y-40676D01*
X52649Y-40529D01*
X52649Y-40370D01*
X52588Y-40224D01*
X52476Y-40111D01*
X52329Y-40050D01*
X52170Y-40050D01*
X52024Y-40111D01*
X51911Y-40223D01*
X51850Y-40370D01*
X51850Y-40529D01*
X51911Y-40675D01*
X52023Y-40788D01*
X52070Y-40807D01*
X52070Y-41949D01*
X52070Y-41950D01*
X52084Y-42018D01*
X52123Y-42076D01*
X53480Y-43433D01*
X53480Y-43433D01*
X53538Y-43472D01*
X53607Y-43486D01*
X53607Y-43486D01*
X53607Y-43486D01*
X55149Y-43486D01*
X55581Y-43486D01*
X55623Y-43503D01*
X55581Y-43521D01*
X55149Y-43521D01*
X53075Y-43521D01*
X51429Y-41875D01*
X51429Y-40808D01*
X51475Y-40788D01*
X51588Y-40676D01*
X51649Y-40529D01*
X51649Y-40370D01*
X51588Y-40224D01*
X51476Y-40111D01*
X51329Y-40050D01*
X51170Y-40050D01*
X51024Y-40111D01*
X50911Y-40223D01*
X50850Y-40370D01*
X50850Y-40529D01*
X50911Y-40675D01*
X51023Y-40788D01*
X51070Y-40807D01*
X51070Y-41949D01*
X51070Y-41950D01*
X51084Y-42018D01*
X51123Y-42076D01*
X52873Y-43827D01*
X52873Y-43827D01*
X52873Y-43827D01*
X52932Y-43866D01*
X53000Y-43880D01*
X53000Y-43880D01*
X53000Y-43880D01*
X55149Y-43880D01*
X55581Y-43880D01*
X55623Y-43897D01*
X55581Y-43915D01*
X55149Y-43915D01*
X52568Y-43915D01*
X50429Y-41775D01*
X50429Y-40808D01*
X50475Y-40788D01*
X50588Y-40676D01*
X50649Y-40529D01*
X50649Y-40370D01*
X50588Y-40224D01*
X50476Y-40111D01*
X50329Y-40050D01*
X50170Y-40050D01*
X50024Y-40111D01*
X49911Y-40223D01*
X49850Y-40370D01*
X49850Y-40529D01*
X49911Y-40675D01*
X50023Y-40788D01*
X50070Y-40807D01*
X50070Y-41849D01*
X50070Y-41850D01*
X50084Y-41918D01*
X50123Y-41976D01*
X52367Y-44221D01*
X52367Y-44221D01*
X52367Y-44221D01*
X52425Y-44260D01*
X52425Y-44260D01*
X52437Y-44262D01*
X52494Y-44273D01*
X52494Y-44273D01*
X52494Y-44273D01*
X55149Y-44273D01*
X55581Y-44273D01*
X55623Y-44291D01*
X55581Y-44308D01*
X55149Y-44308D01*
X52062Y-44308D01*
X49429Y-41675D01*
X49429Y-40808D01*
X49475Y-40788D01*
X49588Y-40676D01*
X49649Y-40529D01*
X49649Y-40370D01*
X49626Y-40316D01*
X49626Y-39514D01*
X49622Y-39365D01*
X49573Y-39245D01*
X49524Y-39211D01*
X49488Y-39246D01*
X49488Y-39175D01*
X49454Y-39126D01*
X49314Y-39073D01*
X49165Y-39077D01*
X49045Y-39126D01*
X49011Y-39175D01*
X49250Y-39414D01*
X49488Y-39175D01*
X49488Y-39246D01*
X49285Y-39450D01*
X49524Y-39688D01*
X49573Y-39654D01*
X49626Y-39514D01*
X49626Y-40316D01*
X49588Y-40224D01*
X49488Y-40123D01*
X49488Y-39724D01*
X49250Y-39485D01*
X49214Y-39520D01*
X49214Y-39450D01*
X48975Y-39211D01*
X48926Y-39245D01*
X48873Y-39385D01*
X48877Y-39534D01*
X48926Y-39654D01*
X48975Y-39688D01*
X49214Y-39450D01*
X49214Y-39520D01*
X49011Y-39724D01*
X49045Y-39773D01*
X49185Y-39826D01*
X49334Y-39822D01*
X49454Y-39773D01*
X49488Y-39724D01*
X49488Y-40123D01*
X49476Y-40111D01*
X49329Y-40050D01*
X49170Y-40050D01*
X49024Y-40111D01*
X48911Y-40223D01*
X48850Y-40370D01*
X48850Y-40529D01*
X48911Y-40675D01*
X49023Y-40788D01*
X49070Y-40807D01*
X49070Y-41749D01*
X49070Y-41750D01*
X49084Y-41818D01*
X49123Y-41876D01*
X51861Y-44615D01*
X51861Y-44615D01*
X51919Y-44653D01*
X51988Y-44667D01*
X55149Y-44667D01*
X55581Y-44667D01*
X55623Y-44685D01*
X55581Y-44702D01*
X55149Y-44702D01*
X51556Y-44702D01*
X48429Y-41575D01*
X48429Y-40808D01*
X48475Y-40788D01*
X48588Y-40676D01*
X48649Y-40529D01*
X48649Y-40370D01*
X48626Y-40316D01*
X48626Y-39514D01*
X48622Y-39365D01*
X48573Y-39245D01*
X48524Y-39211D01*
X48488Y-39246D01*
X48488Y-39175D01*
X48454Y-39126D01*
X48314Y-39073D01*
X48165Y-39077D01*
X48045Y-39126D01*
X48011Y-39175D01*
X48250Y-39414D01*
X48488Y-39175D01*
X48488Y-39246D01*
X48285Y-39450D01*
X48524Y-39688D01*
X48573Y-39654D01*
X48626Y-39514D01*
X48626Y-40316D01*
X48588Y-40224D01*
X48488Y-40123D01*
X48488Y-39724D01*
X48250Y-39485D01*
X48214Y-39520D01*
X48214Y-39450D01*
X47975Y-39211D01*
X47926Y-39245D01*
X47873Y-39385D01*
X47877Y-39534D01*
X47926Y-39654D01*
X47975Y-39688D01*
X48214Y-39450D01*
X48214Y-39520D01*
X48011Y-39724D01*
X48045Y-39773D01*
X48185Y-39826D01*
X48334Y-39822D01*
X48454Y-39773D01*
X48488Y-39724D01*
X48488Y-40123D01*
X48476Y-40111D01*
X48329Y-40050D01*
X48170Y-40050D01*
X48024Y-40111D01*
X47911Y-40223D01*
X47850Y-40370D01*
X47850Y-40529D01*
X47911Y-40675D01*
X48023Y-40788D01*
X48070Y-40807D01*
X48070Y-41649D01*
X48070Y-41650D01*
X48084Y-41718D01*
X48123Y-41776D01*
X51355Y-45008D01*
X51355Y-45008D01*
X51413Y-45047D01*
X51481Y-45061D01*
X51481Y-45061D01*
X51481Y-45061D01*
X55149Y-45061D01*
X55581Y-45061D01*
X55623Y-45078D01*
X55581Y-45096D01*
X55149Y-45096D01*
X50949Y-45096D01*
X47429Y-41575D01*
X47429Y-40808D01*
X47475Y-40788D01*
X47588Y-40676D01*
X47649Y-40529D01*
X47649Y-40370D01*
X47626Y-40316D01*
X47626Y-39514D01*
X47622Y-39365D01*
X47573Y-39245D01*
X47524Y-39211D01*
X47488Y-39246D01*
X47488Y-39175D01*
X47454Y-39126D01*
X47314Y-39073D01*
X47165Y-39077D01*
X47045Y-39126D01*
X47011Y-39175D01*
X47250Y-39414D01*
X47488Y-39175D01*
X47488Y-39246D01*
X47285Y-39450D01*
X47524Y-39688D01*
X47573Y-39654D01*
X47626Y-39514D01*
X47626Y-40316D01*
X47588Y-40224D01*
X47488Y-40123D01*
X47488Y-39724D01*
X47250Y-39485D01*
X47214Y-39520D01*
X47214Y-39450D01*
X46975Y-39211D01*
X46926Y-39245D01*
X46873Y-39385D01*
X46877Y-39534D01*
X46926Y-39654D01*
X46975Y-39688D01*
X47214Y-39450D01*
X47214Y-39520D01*
X47011Y-39724D01*
X47045Y-39773D01*
X47185Y-39826D01*
X47334Y-39822D01*
X47454Y-39773D01*
X47488Y-39724D01*
X47488Y-40123D01*
X47476Y-40111D01*
X47329Y-40050D01*
X47170Y-40050D01*
X47024Y-40111D01*
X46911Y-40223D01*
X46850Y-40370D01*
X46850Y-40529D01*
X46911Y-40675D01*
X47023Y-40788D01*
X47070Y-40807D01*
X47070Y-41649D01*
X47070Y-41650D01*
X47084Y-41718D01*
X47123Y-41776D01*
X50748Y-45402D01*
X50748Y-45402D01*
X50748Y-45402D01*
X50806Y-45441D01*
X50875Y-45455D01*
X50875Y-45455D01*
X50875Y-45455D01*
X55149Y-45455D01*
X55581Y-45455D01*
X55623Y-45472D01*
X55581Y-45489D01*
X55149Y-45489D01*
X50343Y-45489D01*
X46429Y-41575D01*
X46429Y-40808D01*
X46475Y-40788D01*
X46588Y-40676D01*
X46649Y-40529D01*
X46649Y-40370D01*
X46626Y-40316D01*
X46626Y-39514D01*
X46622Y-39365D01*
X46573Y-39245D01*
X46524Y-39211D01*
X46488Y-39246D01*
X46488Y-39175D01*
X46454Y-39126D01*
X46314Y-39073D01*
X46165Y-39077D01*
X46045Y-39126D01*
X46011Y-39175D01*
X46250Y-39414D01*
X46488Y-39175D01*
X46488Y-39246D01*
X46285Y-39450D01*
X46524Y-39688D01*
X46573Y-39654D01*
X46626Y-39514D01*
X46626Y-40316D01*
X46588Y-40224D01*
X46488Y-40123D01*
X46488Y-39724D01*
X46250Y-39485D01*
X46214Y-39520D01*
X46214Y-39450D01*
X45975Y-39211D01*
X45926Y-39245D01*
X45873Y-39385D01*
X45877Y-39534D01*
X45926Y-39654D01*
X45975Y-39688D01*
X46214Y-39450D01*
X46214Y-39520D01*
X46011Y-39724D01*
X46045Y-39773D01*
X46185Y-39826D01*
X46334Y-39822D01*
X46454Y-39773D01*
X46488Y-39724D01*
X46488Y-40123D01*
X46476Y-40111D01*
X46329Y-40050D01*
X46170Y-40050D01*
X46024Y-40111D01*
X45911Y-40223D01*
X45850Y-40370D01*
X45850Y-40529D01*
X45911Y-40675D01*
X46023Y-40788D01*
X46070Y-40807D01*
X46070Y-41649D01*
X46070Y-41650D01*
X46084Y-41718D01*
X46123Y-41776D01*
X50142Y-45796D01*
X50142Y-45796D01*
X50200Y-45835D01*
X50269Y-45848D01*
X55149Y-45848D01*
X55581Y-45848D01*
X55623Y-45866D01*
X55581Y-45883D01*
X55149Y-45883D01*
X49737Y-45883D01*
X45429Y-41575D01*
X45429Y-40808D01*
X45475Y-40788D01*
X45588Y-40676D01*
X45649Y-40529D01*
X45649Y-40370D01*
X45626Y-40316D01*
X45626Y-39514D01*
X45622Y-39365D01*
X45573Y-39245D01*
X45524Y-39211D01*
X45488Y-39246D01*
X45488Y-39175D01*
X45454Y-39126D01*
X45314Y-39073D01*
X45165Y-39077D01*
X45045Y-39126D01*
X45011Y-39175D01*
X45250Y-39414D01*
X45488Y-39175D01*
X45488Y-39246D01*
X45285Y-39450D01*
X45524Y-39688D01*
X45573Y-39654D01*
X45626Y-39514D01*
X45626Y-40316D01*
X45588Y-40224D01*
X45488Y-40123D01*
X45488Y-39724D01*
X45250Y-39485D01*
X45214Y-39520D01*
X45214Y-39450D01*
X44975Y-39211D01*
X44926Y-39245D01*
X44873Y-39385D01*
X44877Y-39534D01*
X44926Y-39654D01*
X44975Y-39688D01*
X45214Y-39450D01*
X45214Y-39520D01*
X45011Y-39724D01*
X45045Y-39773D01*
X45185Y-39826D01*
X45334Y-39822D01*
X45454Y-39773D01*
X45488Y-39724D01*
X45488Y-40123D01*
X45476Y-40111D01*
X45329Y-40050D01*
X45170Y-40050D01*
X45024Y-40111D01*
X44911Y-40223D01*
X44850Y-40370D01*
X44850Y-40529D01*
X44911Y-40675D01*
X45023Y-40788D01*
X45070Y-40807D01*
X45070Y-41649D01*
X45070Y-41650D01*
X45084Y-41718D01*
X45123Y-41776D01*
X49536Y-46189D01*
X49536Y-46189D01*
X49536Y-46189D01*
X49594Y-46228D01*
X49662Y-46242D01*
X49662Y-46242D01*
X49662Y-46242D01*
X55149Y-46242D01*
X55581Y-46242D01*
X55623Y-46259D01*
X55581Y-46277D01*
X55149Y-46277D01*
X49031Y-46277D01*
X44429Y-41675D01*
X44429Y-40808D01*
X44475Y-40788D01*
X44588Y-40676D01*
X44649Y-40529D01*
X44649Y-40370D01*
X44588Y-40224D01*
X44476Y-40111D01*
X44329Y-40050D01*
X44170Y-40050D01*
X44024Y-40111D01*
X43911Y-40223D01*
X43850Y-40370D01*
X43850Y-40529D01*
X43911Y-40675D01*
X44023Y-40788D01*
X44070Y-40807D01*
X44070Y-41749D01*
X44070Y-41750D01*
X44084Y-41818D01*
X44123Y-41876D01*
X48829Y-46583D01*
X48829Y-46583D01*
X48888Y-46622D01*
X48956Y-46636D01*
X48956Y-46636D01*
X48956Y-46636D01*
X55149Y-46636D01*
X55581Y-46636D01*
X55623Y-46653D01*
X55581Y-46670D01*
X55149Y-46670D01*
X55143Y-46672D01*
X54720Y-46672D01*
X54683Y-46687D01*
X54655Y-46715D01*
X54640Y-46751D01*
X54640Y-46791D01*
X54640Y-46948D01*
X54655Y-46985D01*
X54683Y-47013D01*
X54720Y-47028D01*
X54759Y-47028D01*
X54804Y-47028D01*
X54766Y-47065D01*
X54720Y-47065D01*
X54683Y-47081D01*
X54655Y-47109D01*
X54640Y-47145D01*
X54640Y-47185D01*
X54640Y-47191D01*
X54066Y-47766D01*
X54066Y-47766D01*
X53566Y-48266D01*
X53510Y-48350D01*
X53490Y-48449D01*
X53490Y-49525D01*
X53476Y-49511D01*
X53329Y-49450D01*
X53170Y-49450D01*
X53024Y-49511D01*
X52911Y-49623D01*
X52850Y-49770D01*
X52850Y-49929D01*
X52911Y-50075D01*
X53023Y-50188D01*
X53170Y-50249D01*
X53329Y-50249D01*
X53475Y-50188D01*
X53555Y-50109D01*
X53750Y-50109D01*
X53944Y-50109D01*
X54023Y-50188D01*
X54170Y-50249D01*
X54329Y-50249D01*
X54475Y-50188D01*
X54588Y-50076D01*
X54649Y-49929D01*
X54649Y-49770D01*
X54588Y-49624D01*
X54476Y-49511D01*
X54329Y-49450D01*
X54170Y-49450D01*
X54024Y-49511D01*
X54009Y-49525D01*
X54009Y-48557D01*
X54433Y-48133D01*
X54433Y-48133D01*
X54433Y-48133D01*
X55144Y-47422D01*
X55149Y-47423D01*
X55581Y-47423D01*
X55629Y-47443D01*
X55708Y-47443D01*
X55782Y-47413D01*
X55838Y-47357D01*
X55868Y-47283D01*
X55868Y-47204D01*
X55868Y-47695D01*
X55850Y-47695D01*
X55720Y-47749D01*
X55620Y-47849D01*
X55566Y-47980D01*
X55565Y-48121D01*
X55619Y-48252D01*
X55673Y-48306D01*
X55232Y-48306D01*
X55195Y-48321D01*
X55167Y-48349D01*
X55152Y-48385D01*
X55152Y-48425D01*
X55152Y-48937D01*
X55167Y-48973D01*
X55195Y-49001D01*
X55232Y-49016D01*
X55271Y-49016D01*
X56610Y-49016D01*
X56646Y-49001D01*
X56674Y-48973D01*
X56689Y-48937D01*
X56689Y-53398D01*
X55649Y-54439D01*
X55649Y-50169D01*
X55649Y-50130D01*
X55649Y-49530D01*
X55634Y-49493D01*
X55606Y-49465D01*
X55569Y-49450D01*
X55530Y-49450D01*
X54930Y-49450D01*
X54893Y-49465D01*
X54865Y-49493D01*
X54850Y-49530D01*
X54850Y-49569D01*
X54850Y-50169D01*
X54865Y-50206D01*
X54893Y-50234D01*
X54930Y-50249D01*
X54969Y-50249D01*
X55569Y-50249D01*
X55606Y-50234D01*
X55634Y-50206D01*
X55649Y-50169D01*
X55649Y-54439D01*
X55626Y-54461D01*
X55626Y-50914D01*
X55622Y-50765D01*
X55573Y-50645D01*
X55524Y-50611D01*
X55488Y-50646D01*
X55488Y-50575D01*
X55454Y-50526D01*
X55314Y-50473D01*
X55165Y-50477D01*
X55045Y-50526D01*
X55011Y-50575D01*
X55250Y-50814D01*
X55488Y-50575D01*
X55488Y-50646D01*
X55285Y-50850D01*
X55524Y-51088D01*
X55573Y-51054D01*
X55626Y-50914D01*
X55626Y-54461D01*
X55488Y-54599D01*
X55488Y-51124D01*
X55250Y-50885D01*
X55214Y-50920D01*
X55214Y-50850D01*
X54975Y-50611D01*
X54926Y-50645D01*
X54873Y-50785D01*
X54877Y-50934D01*
X54926Y-51054D01*
X54975Y-51088D01*
X55214Y-50850D01*
X55214Y-50920D01*
X55011Y-51124D01*
X55045Y-51173D01*
X55185Y-51226D01*
X55334Y-51222D01*
X55454Y-51173D01*
X55488Y-51124D01*
X55488Y-54599D01*
X55074Y-55013D01*
X54626Y-55013D01*
X54626Y-50914D01*
X54622Y-50765D01*
X54573Y-50645D01*
X54524Y-50611D01*
X54488Y-50646D01*
X54488Y-50575D01*
X54454Y-50526D01*
X54314Y-50473D01*
X54165Y-50477D01*
X54045Y-50526D01*
X54011Y-50575D01*
X54250Y-50814D01*
X54488Y-50575D01*
X54488Y-50646D01*
X54285Y-50850D01*
X54524Y-51088D01*
X54573Y-51054D01*
X54626Y-50914D01*
X54626Y-55013D01*
X54488Y-55013D01*
X54488Y-51124D01*
X54250Y-50885D01*
X54214Y-50920D01*
X54214Y-50850D01*
X53975Y-50611D01*
X53926Y-50645D01*
X53873Y-50785D01*
X53877Y-50934D01*
X53926Y-51054D01*
X53975Y-51088D01*
X54214Y-50850D01*
X54214Y-50920D01*
X54011Y-51124D01*
X54045Y-51173D01*
X54185Y-51226D01*
X54334Y-51222D01*
X54454Y-51173D01*
X54488Y-51124D01*
X54488Y-55013D01*
X53626Y-55013D01*
X53626Y-50914D01*
X53622Y-50765D01*
X53573Y-50645D01*
X53524Y-50611D01*
X53488Y-50646D01*
X53488Y-50575D01*
X53454Y-50526D01*
X53314Y-50473D01*
X53165Y-50477D01*
X53045Y-50526D01*
X53011Y-50575D01*
X53250Y-50814D01*
X53488Y-50575D01*
X53488Y-50646D01*
X53285Y-50850D01*
X53524Y-51088D01*
X53573Y-51054D01*
X53626Y-50914D01*
X53626Y-55013D01*
X53488Y-55013D01*
X53488Y-51124D01*
X53250Y-50885D01*
X53214Y-50920D01*
X53214Y-50850D01*
X52975Y-50611D01*
X52926Y-50645D01*
X52873Y-50785D01*
X52877Y-50934D01*
X52926Y-51054D01*
X52975Y-51088D01*
X53214Y-50850D01*
X53214Y-50920D01*
X53011Y-51124D01*
X53045Y-51173D01*
X53185Y-51226D01*
X53334Y-51222D01*
X53454Y-51173D01*
X53488Y-51124D01*
X53488Y-55013D01*
X52649Y-55013D01*
X52649Y-50770D01*
X52626Y-50716D01*
X52626Y-49914D01*
X52622Y-49765D01*
X52573Y-49645D01*
X52524Y-49611D01*
X52488Y-49646D01*
X52488Y-49575D01*
X52454Y-49526D01*
X52314Y-49473D01*
X52165Y-49477D01*
X52045Y-49526D01*
X52011Y-49575D01*
X52250Y-49814D01*
X52488Y-49575D01*
X52488Y-49646D01*
X52285Y-49850D01*
X52524Y-50088D01*
X52573Y-50054D01*
X52626Y-49914D01*
X52626Y-50716D01*
X52588Y-50624D01*
X52488Y-50523D01*
X52488Y-50124D01*
X52250Y-49885D01*
X52214Y-49920D01*
X52214Y-49850D01*
X51975Y-49611D01*
X51926Y-49645D01*
X51873Y-49785D01*
X51877Y-49934D01*
X51926Y-50054D01*
X51975Y-50088D01*
X52214Y-49850D01*
X52214Y-49920D01*
X52011Y-50124D01*
X52045Y-50173D01*
X52185Y-50226D01*
X52334Y-50222D01*
X52454Y-50173D01*
X52488Y-50124D01*
X52488Y-50523D01*
X52476Y-50511D01*
X52329Y-50450D01*
X52170Y-50450D01*
X52024Y-50511D01*
X51911Y-50623D01*
X51850Y-50770D01*
X51850Y-50929D01*
X51882Y-51006D01*
X50944Y-51944D01*
X50669Y-52219D01*
X50638Y-52250D01*
X50060Y-52250D01*
X50355Y-51955D01*
X51093Y-51217D01*
X51170Y-51249D01*
X51329Y-51249D01*
X51475Y-51188D01*
X51588Y-51076D01*
X51649Y-50929D01*
X51649Y-50770D01*
X51588Y-50624D01*
X51476Y-50511D01*
X51329Y-50450D01*
X51170Y-50450D01*
X51024Y-50511D01*
X50911Y-50623D01*
X50850Y-50770D01*
X50850Y-50929D01*
X50882Y-51006D01*
X50144Y-51744D01*
X49819Y-52069D01*
X49813Y-52075D01*
X49235Y-52075D01*
X49255Y-52055D01*
X49555Y-51755D01*
X49568Y-51743D01*
X50093Y-51217D01*
X50170Y-51249D01*
X50329Y-51249D01*
X50475Y-51188D01*
X50588Y-51076D01*
X50649Y-50929D01*
X50649Y-50770D01*
X50588Y-50624D01*
X50476Y-50511D01*
X50329Y-50450D01*
X50170Y-50450D01*
X50024Y-50511D01*
X49911Y-50623D01*
X49850Y-50770D01*
X49850Y-50929D01*
X49882Y-51006D01*
X49356Y-51531D01*
X49344Y-51544D01*
X49044Y-51844D01*
X48988Y-51900D01*
X48410Y-51900D01*
X48605Y-51705D01*
X49093Y-51217D01*
X49170Y-51249D01*
X49329Y-51249D01*
X49475Y-51188D01*
X49588Y-51076D01*
X49649Y-50929D01*
X49649Y-50770D01*
X49588Y-50624D01*
X49476Y-50511D01*
X49329Y-50450D01*
X49170Y-50450D01*
X49024Y-50511D01*
X48911Y-50623D01*
X48850Y-50770D01*
X48850Y-50929D01*
X48882Y-51006D01*
X48394Y-51494D01*
X48194Y-51694D01*
X48163Y-51725D01*
X47585Y-51725D01*
X47755Y-51555D01*
X48093Y-51217D01*
X48170Y-51249D01*
X48329Y-51249D01*
X48475Y-51188D01*
X48588Y-51076D01*
X48649Y-50929D01*
X48649Y-50770D01*
X48588Y-50624D01*
X48476Y-50511D01*
X48329Y-50450D01*
X48170Y-50450D01*
X48024Y-50511D01*
X47911Y-50623D01*
X47850Y-50770D01*
X47850Y-50929D01*
X47882Y-51006D01*
X47544Y-51344D01*
X47338Y-51550D01*
X46760Y-51550D01*
X46805Y-51505D01*
X47093Y-51217D01*
X47170Y-51249D01*
X47329Y-51249D01*
X47475Y-51188D01*
X47588Y-51076D01*
X47649Y-50929D01*
X47649Y-50770D01*
X47588Y-50624D01*
X47476Y-50511D01*
X47329Y-50450D01*
X47170Y-50450D01*
X47024Y-50511D01*
X46911Y-50623D01*
X46850Y-50770D01*
X46850Y-50929D01*
X46882Y-51006D01*
X46594Y-51294D01*
X46513Y-51375D01*
X45935Y-51375D01*
X46093Y-51217D01*
X46170Y-51249D01*
X46329Y-51249D01*
X46475Y-51188D01*
X46588Y-51076D01*
X46649Y-50929D01*
X46649Y-50770D01*
X46588Y-50624D01*
X46476Y-50511D01*
X46329Y-50450D01*
X46170Y-50450D01*
X46024Y-50511D01*
X45911Y-50623D01*
X45850Y-50770D01*
X45850Y-50929D01*
X45882Y-51006D01*
X45688Y-51200D01*
X45447Y-51200D01*
X45475Y-51188D01*
X45588Y-51076D01*
X45649Y-50929D01*
X45649Y-50770D01*
X45588Y-50624D01*
X45476Y-50511D01*
X45329Y-50450D01*
X45170Y-50450D01*
X45093Y-50482D01*
X44855Y-50244D01*
X44807Y-50211D01*
X44750Y-50200D01*
X44447Y-50200D01*
X44475Y-50188D01*
X44588Y-50076D01*
X44649Y-49929D01*
X44649Y-49770D01*
X44588Y-49624D01*
X44476Y-49511D01*
X44329Y-49450D01*
X44170Y-49450D01*
X44024Y-49511D01*
X44009Y-49525D01*
X44009Y-47915D01*
X43989Y-47816D01*
X43933Y-47731D01*
X43933Y-47731D01*
X43771Y-47570D01*
X43784Y-47539D01*
X43784Y-47499D01*
X43784Y-47342D01*
X43769Y-47305D01*
X43741Y-47277D01*
X43704Y-47262D01*
X43665Y-47262D01*
X43464Y-47262D01*
X43459Y-47257D01*
X43455Y-47254D01*
X43455Y-47250D01*
X43455Y-47225D01*
X43704Y-47225D01*
X43741Y-47210D01*
X43769Y-47182D01*
X43784Y-47145D01*
X43784Y-47106D01*
X43784Y-46948D01*
X43769Y-46912D01*
X43741Y-46884D01*
X43704Y-46869D01*
X43665Y-46869D01*
X43281Y-46869D01*
X43275Y-46867D01*
X42883Y-46867D01*
X42841Y-46850D01*
X42883Y-46832D01*
X43275Y-46832D01*
X44179Y-46832D01*
X45070Y-47724D01*
X45070Y-49491D01*
X45024Y-49511D01*
X44911Y-49623D01*
X44850Y-49770D01*
X44850Y-49929D01*
X44911Y-50075D01*
X45023Y-50188D01*
X45170Y-50249D01*
X45329Y-50249D01*
X45475Y-50188D01*
X45588Y-50076D01*
X45649Y-49929D01*
X45649Y-49770D01*
X45588Y-49624D01*
X45476Y-49511D01*
X45429Y-49492D01*
X45429Y-47650D01*
X45429Y-47650D01*
X45429Y-47650D01*
X45418Y-47592D01*
X45415Y-47581D01*
X45415Y-47581D01*
X45376Y-47523D01*
X45376Y-47523D01*
X45376Y-47523D01*
X44380Y-46526D01*
X44322Y-46487D01*
X44253Y-46474D01*
X44253Y-46474D01*
X43275Y-46474D01*
X42883Y-46474D01*
X42841Y-46456D01*
X42883Y-46439D01*
X43275Y-46439D01*
X44385Y-46439D01*
X46070Y-48124D01*
X46070Y-49491D01*
X46024Y-49511D01*
X45911Y-49623D01*
X45850Y-49770D01*
X45850Y-49929D01*
X45911Y-50075D01*
X46023Y-50188D01*
X46170Y-50249D01*
X46329Y-50249D01*
X46475Y-50188D01*
X46588Y-50076D01*
X46649Y-49929D01*
X46649Y-49770D01*
X46588Y-49624D01*
X46476Y-49511D01*
X46429Y-49492D01*
X46429Y-48050D01*
X46429Y-48050D01*
X46429Y-48050D01*
X46415Y-47981D01*
X46376Y-47923D01*
X44586Y-46132D01*
X44528Y-46094D01*
X44459Y-46080D01*
X44459Y-46080D01*
X43275Y-46080D01*
X42883Y-46080D01*
X42841Y-46062D01*
X42883Y-46045D01*
X43275Y-46045D01*
X44591Y-46045D01*
X47070Y-48524D01*
X47070Y-49491D01*
X47024Y-49511D01*
X46911Y-49623D01*
X46850Y-49770D01*
X46850Y-49929D01*
X46911Y-50075D01*
X47023Y-50188D01*
X47170Y-50249D01*
X47329Y-50249D01*
X47475Y-50188D01*
X47588Y-50076D01*
X47649Y-49929D01*
X47649Y-49770D01*
X47588Y-49624D01*
X47476Y-49511D01*
X47429Y-49492D01*
X47429Y-48450D01*
X47429Y-48450D01*
X47429Y-48450D01*
X47415Y-48381D01*
X47376Y-48323D01*
X47376Y-48323D01*
X47376Y-48323D01*
X44793Y-45739D01*
X44734Y-45700D01*
X44666Y-45686D01*
X44666Y-45686D01*
X43275Y-45686D01*
X42883Y-45686D01*
X42841Y-45669D01*
X42883Y-45651D01*
X43275Y-45651D01*
X44798Y-45651D01*
X48070Y-48924D01*
X48070Y-49491D01*
X48024Y-49511D01*
X47911Y-49623D01*
X47850Y-49770D01*
X47850Y-49929D01*
X47911Y-50075D01*
X48023Y-50188D01*
X48170Y-50249D01*
X48329Y-50249D01*
X48475Y-50188D01*
X48588Y-50076D01*
X48649Y-49929D01*
X48649Y-49770D01*
X48588Y-49624D01*
X48476Y-49511D01*
X48429Y-49492D01*
X48429Y-48850D01*
X48429Y-48850D01*
X48429Y-48850D01*
X48415Y-48781D01*
X48376Y-48723D01*
X48376Y-48723D01*
X44999Y-45345D01*
X44941Y-45306D01*
X44872Y-45293D01*
X44872Y-45293D01*
X43275Y-45293D01*
X42883Y-45293D01*
X42841Y-45275D01*
X42883Y-45258D01*
X43275Y-45258D01*
X45004Y-45258D01*
X49070Y-49324D01*
X49070Y-49491D01*
X49024Y-49511D01*
X48911Y-49623D01*
X48850Y-49770D01*
X48850Y-49929D01*
X48911Y-50075D01*
X49023Y-50188D01*
X49170Y-50249D01*
X49329Y-50249D01*
X49475Y-50188D01*
X49588Y-50076D01*
X49649Y-49929D01*
X49649Y-49770D01*
X49588Y-49624D01*
X49476Y-49511D01*
X49429Y-49492D01*
X49429Y-49250D01*
X49429Y-49250D01*
X49429Y-49250D01*
X49415Y-49181D01*
X49376Y-49123D01*
X49376Y-49123D01*
X49376Y-49123D01*
X45205Y-44951D01*
X45147Y-44912D01*
X45078Y-44899D01*
X45078Y-44899D01*
X43275Y-44899D01*
X42883Y-44899D01*
X42841Y-44881D01*
X42883Y-44864D01*
X43275Y-44864D01*
X45210Y-44864D01*
X49940Y-49594D01*
X49911Y-49623D01*
X49850Y-49770D01*
X49850Y-49929D01*
X49911Y-50075D01*
X50023Y-50188D01*
X50170Y-50249D01*
X50329Y-50249D01*
X50475Y-50188D01*
X50588Y-50076D01*
X50649Y-49929D01*
X50649Y-49770D01*
X50588Y-49624D01*
X50476Y-49511D01*
X50329Y-49450D01*
X50304Y-49450D01*
X45411Y-44558D01*
X45353Y-44519D01*
X45285Y-44505D01*
X45285Y-44505D01*
X43275Y-44505D01*
X42883Y-44505D01*
X42841Y-44488D01*
X42883Y-44470D01*
X43275Y-44470D01*
X45417Y-44470D01*
X50273Y-49326D01*
X50273Y-49326D01*
X50273Y-49326D01*
X50331Y-49365D01*
X50400Y-49379D01*
X50400Y-49379D01*
X50400Y-49379D01*
X50825Y-49379D01*
X50990Y-49544D01*
X50911Y-49623D01*
X50850Y-49770D01*
X50850Y-49929D01*
X50911Y-50075D01*
X51023Y-50188D01*
X51170Y-50249D01*
X51329Y-50249D01*
X51475Y-50188D01*
X51588Y-50076D01*
X51649Y-49929D01*
X51649Y-49770D01*
X51588Y-49624D01*
X51476Y-49511D01*
X51416Y-49486D01*
X51415Y-49481D01*
X51376Y-49423D01*
X51376Y-49423D01*
X51376Y-49423D01*
X51026Y-49073D01*
X50968Y-49034D01*
X50900Y-49020D01*
X50899Y-49020D01*
X50474Y-49020D01*
X45618Y-44164D01*
X45559Y-44125D01*
X45491Y-44111D01*
X45491Y-44111D01*
X43760Y-44111D01*
X43760Y-43991D01*
X43760Y-43941D01*
X43760Y-43853D01*
X43760Y-43803D01*
X43760Y-43597D01*
X43760Y-43547D01*
X43760Y-43460D01*
X43760Y-43410D01*
X43760Y-43203D01*
X43760Y-43153D01*
X43760Y-43066D01*
X43760Y-43016D01*
X43748Y-42989D01*
X43727Y-42967D01*
X43699Y-42956D01*
X43670Y-42956D01*
X43319Y-42956D01*
X43300Y-42975D01*
X43300Y-43085D01*
X43741Y-43085D01*
X43760Y-43066D01*
X43760Y-43153D01*
X43741Y-43135D01*
X43300Y-43135D01*
X43300Y-43245D01*
X43319Y-43263D01*
X43670Y-43263D01*
X43699Y-43263D01*
X43727Y-43252D01*
X43748Y-43231D01*
X43760Y-43203D01*
X43760Y-43410D01*
X43748Y-43382D01*
X43727Y-43361D01*
X43699Y-43350D01*
X43670Y-43350D01*
X43319Y-43350D01*
X43300Y-43368D01*
X43300Y-43478D01*
X43741Y-43478D01*
X43760Y-43460D01*
X43760Y-43547D01*
X43741Y-43528D01*
X43300Y-43528D01*
X43300Y-43638D01*
X43319Y-43657D01*
X43670Y-43657D01*
X43699Y-43657D01*
X43727Y-43646D01*
X43748Y-43625D01*
X43760Y-43597D01*
X43760Y-43803D01*
X43748Y-43776D01*
X43727Y-43755D01*
X43699Y-43743D01*
X43670Y-43743D01*
X43319Y-43743D01*
X43300Y-43762D01*
X43300Y-43872D01*
X43741Y-43872D01*
X43760Y-43853D01*
X43760Y-43941D01*
X43741Y-43922D01*
X43300Y-43922D01*
X43300Y-44032D01*
X43319Y-44051D01*
X43670Y-44051D01*
X43699Y-44051D01*
X43727Y-44039D01*
X43748Y-44018D01*
X43760Y-43991D01*
X43760Y-44111D01*
X43275Y-44111D01*
X43272Y-44111D01*
X43272Y-41968D01*
X43272Y-41929D01*
X43272Y-41417D01*
X43257Y-41380D01*
X43229Y-41352D01*
X43193Y-41337D01*
X43153Y-41337D01*
X41814Y-41337D01*
X41778Y-41352D01*
X41750Y-41380D01*
X41735Y-41417D01*
X41735Y-41456D01*
X41735Y-41968D01*
X41750Y-42005D01*
X41778Y-42033D01*
X41814Y-42048D01*
X41854Y-42048D01*
X42256Y-42048D01*
X42202Y-42101D01*
X42148Y-42232D01*
X42148Y-42373D01*
X42202Y-42504D01*
X42302Y-42604D01*
X42432Y-42658D01*
X42574Y-42658D01*
X42704Y-42604D01*
X42804Y-42504D01*
X42859Y-42374D01*
X42859Y-42232D01*
X42805Y-42102D01*
X42751Y-42048D01*
X43193Y-42048D01*
X43229Y-42033D01*
X43257Y-42005D01*
X43272Y-41968D01*
X43272Y-44111D01*
X43250Y-44111D01*
X43250Y-44032D01*
X43250Y-43922D01*
X43250Y-43872D01*
X43250Y-43762D01*
X43250Y-43638D01*
X43250Y-43528D01*
X43250Y-43478D01*
X43250Y-43368D01*
X43250Y-43245D01*
X43250Y-43135D01*
X43250Y-43085D01*
X43250Y-42975D01*
X43231Y-42956D01*
X42881Y-42956D01*
X42851Y-42956D01*
X42823Y-42967D01*
X42802Y-42989D01*
X42791Y-43016D01*
X42791Y-43066D01*
X42809Y-43085D01*
X43250Y-43085D01*
X43250Y-43135D01*
X42809Y-43135D01*
X42791Y-43153D01*
X42791Y-43203D01*
X42802Y-43231D01*
X42823Y-43252D01*
X42851Y-43263D01*
X42881Y-43263D01*
X43231Y-43263D01*
X43250Y-43245D01*
X43250Y-43368D01*
X43231Y-43350D01*
X42881Y-43350D01*
X42851Y-43350D01*
X42823Y-43361D01*
X42802Y-43382D01*
X42791Y-43410D01*
X42791Y-43460D01*
X42809Y-43478D01*
X43250Y-43478D01*
X43250Y-43528D01*
X42809Y-43528D01*
X42791Y-43547D01*
X42791Y-43597D01*
X42802Y-43625D01*
X42823Y-43646D01*
X42851Y-43657D01*
X42881Y-43657D01*
X43231Y-43657D01*
X43250Y-43638D01*
X43250Y-43762D01*
X43231Y-43743D01*
X42881Y-43743D01*
X42851Y-43743D01*
X42823Y-43755D01*
X42802Y-43776D01*
X42791Y-43803D01*
X42791Y-43853D01*
X42809Y-43872D01*
X43250Y-43872D01*
X43250Y-43922D01*
X42809Y-43922D01*
X42791Y-43941D01*
X42791Y-43991D01*
X42802Y-44018D01*
X42823Y-44039D01*
X42851Y-44051D01*
X42881Y-44051D01*
X43231Y-44051D01*
X43250Y-44032D01*
X43250Y-44111D01*
X42883Y-44111D01*
X42835Y-44091D01*
X42755Y-44091D01*
X42682Y-44122D01*
X42626Y-44178D01*
X42595Y-44251D01*
X42595Y-44330D01*
X42626Y-44404D01*
X42682Y-44460D01*
X42749Y-44488D01*
X42682Y-44515D01*
X42626Y-44571D01*
X42595Y-44645D01*
X42595Y-44724D01*
X42626Y-44797D01*
X42682Y-44853D01*
X42749Y-44881D01*
X42682Y-44909D01*
X42626Y-44965D01*
X42595Y-45038D01*
X42595Y-45118D01*
X42626Y-45191D01*
X42682Y-45247D01*
X42749Y-45275D01*
X42682Y-45303D01*
X42626Y-45359D01*
X42595Y-45432D01*
X42595Y-45511D01*
X42626Y-45585D01*
X42682Y-45641D01*
X42749Y-45669D01*
X42682Y-45696D01*
X42626Y-45753D01*
X42595Y-45826D01*
X42595Y-45905D01*
X42626Y-45978D01*
X42682Y-46035D01*
X42749Y-46063D01*
X42682Y-46090D01*
X42626Y-46146D01*
X42595Y-46220D01*
X42595Y-46299D01*
X42626Y-46372D01*
X42682Y-46428D01*
X42749Y-46456D01*
X42682Y-46484D01*
X42626Y-46540D01*
X42595Y-46613D01*
X42595Y-46693D01*
X42626Y-46766D01*
X42682Y-46822D01*
X42749Y-46850D01*
X42682Y-46878D01*
X42626Y-46934D01*
X42595Y-47007D01*
X42595Y-47086D01*
X42626Y-47160D01*
X42682Y-47216D01*
X42749Y-47244D01*
X42682Y-47271D01*
X42626Y-47327D01*
X42595Y-47401D01*
X42595Y-47480D01*
X42626Y-47553D01*
X42682Y-47609D01*
X42755Y-47640D01*
X42834Y-47640D01*
X42883Y-47620D01*
X43089Y-47620D01*
X43092Y-47624D01*
X43490Y-48022D01*
X43490Y-49525D01*
X43476Y-49511D01*
X43329Y-49450D01*
X43272Y-49450D01*
X43272Y-49133D01*
X43272Y-49094D01*
X43272Y-48582D01*
X43257Y-48546D01*
X43229Y-48518D01*
X43193Y-48502D01*
X43153Y-48502D01*
X42751Y-48502D01*
X42804Y-48449D01*
X42859Y-48319D01*
X42859Y-48177D01*
X42805Y-48047D01*
X42705Y-47946D01*
X42574Y-47892D01*
X42433Y-47892D01*
X42302Y-47946D01*
X42216Y-48032D01*
X42216Y-47731D01*
X42216Y-47681D01*
X42216Y-47594D01*
X42216Y-47544D01*
X42216Y-47337D01*
X42216Y-47287D01*
X42216Y-47200D01*
X42216Y-47150D01*
X42205Y-47122D01*
X42184Y-47101D01*
X42156Y-47090D01*
X42126Y-47090D01*
X41776Y-47090D01*
X41757Y-47109D01*
X41757Y-47219D01*
X42197Y-47219D01*
X42216Y-47200D01*
X42216Y-47287D01*
X42197Y-47269D01*
X41757Y-47269D01*
X41757Y-47379D01*
X41776Y-47397D01*
X42126Y-47397D01*
X42156Y-47397D01*
X42184Y-47386D01*
X42205Y-47365D01*
X42216Y-47337D01*
X42216Y-47544D01*
X42205Y-47516D01*
X42184Y-47495D01*
X42156Y-47484D01*
X42126Y-47484D01*
X41776Y-47484D01*
X41757Y-47502D01*
X41757Y-47612D01*
X42197Y-47612D01*
X42216Y-47594D01*
X42216Y-47681D01*
X42197Y-47662D01*
X41757Y-47662D01*
X41757Y-47772D01*
X41776Y-47791D01*
X42126Y-47791D01*
X42156Y-47791D01*
X42184Y-47780D01*
X42205Y-47759D01*
X42216Y-47731D01*
X42216Y-48032D01*
X42202Y-48046D01*
X42148Y-48177D01*
X42148Y-48318D01*
X42202Y-48449D01*
X42256Y-48502D01*
X41814Y-48502D01*
X41778Y-48518D01*
X41750Y-48546D01*
X41735Y-48582D01*
X41735Y-48622D01*
X41735Y-49133D01*
X41750Y-49170D01*
X41778Y-49198D01*
X41814Y-49213D01*
X41854Y-49213D01*
X43193Y-49213D01*
X43229Y-49198D01*
X43257Y-49170D01*
X43272Y-49133D01*
X43272Y-49450D01*
X43170Y-49450D01*
X43024Y-49511D01*
X42911Y-49623D01*
X42850Y-49770D01*
X42850Y-49929D01*
X42911Y-50075D01*
X43023Y-50188D01*
X43052Y-50200D01*
X42700Y-50200D01*
X42649Y-50210D01*
X42007Y-50210D01*
X41339Y-49542D01*
X41339Y-48850D01*
X41339Y-48800D01*
X41339Y-47791D01*
X41688Y-47791D01*
X41707Y-47772D01*
X41707Y-47662D01*
X41699Y-47662D01*
X41699Y-47612D01*
X41707Y-47612D01*
X41707Y-47502D01*
X41688Y-47484D01*
X41339Y-47484D01*
X41339Y-47397D01*
X41688Y-47397D01*
X41707Y-47379D01*
X41707Y-47269D01*
X41699Y-47269D01*
X41699Y-47219D01*
X41707Y-47219D01*
X41707Y-47109D01*
X41688Y-47090D01*
X41339Y-47090D01*
X41339Y-47028D01*
X41342Y-47028D01*
X41725Y-47028D01*
X41732Y-47029D01*
X42156Y-47029D01*
X42204Y-47049D01*
X42283Y-47049D01*
X42356Y-47019D01*
X42413Y-46963D01*
X42443Y-46890D01*
X42443Y-46810D01*
X42413Y-46737D01*
X42357Y-46681D01*
X42289Y-46653D01*
X42356Y-46625D01*
X42413Y-46569D01*
X42443Y-46496D01*
X42443Y-46417D01*
X42413Y-46343D01*
X42357Y-46287D01*
X42289Y-46259D01*
X42356Y-46232D01*
X42413Y-46176D01*
X42443Y-46102D01*
X42443Y-46023D01*
X42413Y-45950D01*
X42357Y-45894D01*
X42289Y-45866D01*
X42356Y-45838D01*
X42413Y-45782D01*
X42443Y-45709D01*
X42443Y-45629D01*
X42413Y-45556D01*
X42357Y-45500D01*
X42289Y-45472D01*
X42356Y-45444D01*
X42413Y-45388D01*
X42443Y-45315D01*
X42443Y-45236D01*
X42413Y-45162D01*
X42357Y-45106D01*
X42289Y-45078D01*
X42356Y-45051D01*
X42413Y-44994D01*
X42443Y-44921D01*
X42443Y-44842D01*
X42413Y-44769D01*
X42357Y-44712D01*
X42289Y-44685D01*
X42356Y-44657D01*
X42413Y-44601D01*
X42443Y-44528D01*
X42443Y-44448D01*
X42413Y-44375D01*
X42357Y-44319D01*
X42289Y-44291D01*
X42356Y-44263D01*
X42413Y-44207D01*
X42443Y-44134D01*
X42443Y-44054D01*
X42413Y-43981D01*
X42357Y-43925D01*
X42289Y-43897D01*
X42356Y-43869D01*
X42413Y-43813D01*
X42443Y-43740D01*
X42443Y-43661D01*
X42413Y-43587D01*
X42357Y-43531D01*
X42289Y-43503D01*
X42356Y-43476D01*
X42413Y-43420D01*
X42443Y-43346D01*
X42443Y-43267D01*
X42413Y-43194D01*
X42357Y-43138D01*
X42289Y-43110D01*
X42356Y-43082D01*
X42413Y-43026D01*
X42443Y-42953D01*
X42443Y-42873D01*
X42413Y-42800D01*
X42357Y-42744D01*
X42283Y-42714D01*
X42204Y-42713D01*
X42156Y-42733D01*
X41918Y-42733D01*
X41915Y-42729D01*
X41359Y-42173D01*
X41359Y-41107D01*
X42757Y-39709D01*
X42944Y-39709D01*
X42990Y-39755D01*
X42990Y-40050D01*
X42930Y-40050D01*
X42893Y-40065D01*
X42865Y-40093D01*
X42850Y-40130D01*
X42850Y-40169D01*
X42850Y-40769D01*
X42865Y-40806D01*
X42893Y-40834D01*
X42930Y-40849D01*
X42969Y-40849D01*
X43569Y-40849D01*
X43606Y-40834D01*
X43634Y-40806D01*
X43649Y-40769D01*
X43649Y-40730D01*
X43649Y-40130D01*
X43634Y-40093D01*
X43606Y-40065D01*
X43569Y-40050D01*
X43530Y-40050D01*
X43509Y-40050D01*
X43509Y-39755D01*
X43555Y-39709D01*
X43944Y-39709D01*
X44023Y-39788D01*
X44170Y-39849D01*
X44329Y-39849D01*
X44475Y-39788D01*
X44588Y-39676D01*
X44649Y-39529D01*
X44649Y-39370D01*
X44588Y-39224D01*
X44476Y-39111D01*
X44329Y-39050D01*
X44170Y-39050D01*
X44024Y-39111D01*
X43944Y-39190D01*
X43555Y-39190D01*
X43476Y-39111D01*
X43329Y-39050D01*
X43170Y-39050D01*
X43024Y-39111D01*
X42944Y-39190D01*
X42650Y-39190D01*
X42650Y-39190D01*
X42550Y-39210D01*
X42466Y-39266D01*
X40916Y-40816D01*
X40860Y-40900D01*
X40840Y-41000D01*
X40840Y-42281D01*
X40860Y-42380D01*
X40916Y-42464D01*
X41236Y-42784D01*
X41223Y-42814D01*
X41223Y-42854D01*
X41223Y-43011D01*
X41238Y-43048D01*
X41266Y-43076D01*
X41303Y-43091D01*
X41342Y-43091D01*
X41543Y-43091D01*
X41548Y-43096D01*
X41552Y-43099D01*
X41552Y-43128D01*
X41303Y-43128D01*
X41266Y-43144D01*
X41238Y-43172D01*
X41223Y-43208D01*
X41223Y-43248D01*
X41223Y-43405D01*
X41238Y-43442D01*
X41266Y-43470D01*
X41303Y-43485D01*
X41342Y-43485D01*
X41552Y-43485D01*
X41552Y-43522D01*
X41303Y-43522D01*
X41266Y-43537D01*
X41238Y-43565D01*
X41223Y-43602D01*
X41223Y-43641D01*
X41223Y-43799D01*
X41238Y-43835D01*
X41266Y-43863D01*
X41303Y-43878D01*
X41342Y-43878D01*
X41725Y-43878D01*
X41732Y-43880D01*
X42156Y-43880D01*
X42198Y-43897D01*
X42156Y-43915D01*
X41732Y-43915D01*
X41725Y-43916D01*
X41303Y-43916D01*
X41266Y-43931D01*
X41242Y-43955D01*
X41205Y-43955D01*
X41205Y-43955D01*
X41152Y-43965D01*
X41134Y-43977D01*
X41106Y-43995D01*
X41106Y-43995D01*
X40121Y-44981D01*
X40091Y-45026D01*
X40080Y-45080D01*
X40080Y-45080D01*
X40080Y-45650D01*
X40080Y-49050D01*
X40080Y-50369D01*
X40080Y-50369D01*
X40091Y-50423D01*
X40121Y-50468D01*
X42151Y-52498D01*
X42151Y-52498D01*
X42151Y-52498D01*
X42196Y-52528D01*
X42250Y-52539D01*
X42250Y-52539D01*
X42250Y-52539D01*
X42649Y-52539D01*
X42700Y-52549D01*
X50700Y-52549D01*
X50757Y-52538D01*
X50805Y-52505D01*
X50830Y-52480D01*
X50880Y-52430D01*
X51155Y-52155D01*
X52093Y-51217D01*
X52170Y-51249D01*
X52329Y-51249D01*
X52475Y-51188D01*
X52588Y-51076D01*
X52649Y-50929D01*
X52649Y-50770D01*
X52649Y-55013D01*
X43350Y-55013D01*
X39474Y-51137D01*
X39474Y-39413D01*
X43350Y-35537D01*
X55074Y-35537D01*
X58950Y-39413D01*
X58950Y-51137D01*
X58950Y-51137D01*
G37*
G54D23*
X58950Y-51137D02*
X58349Y-51739D01*
X58349Y-45400D01*
X58349Y-40250D01*
X58338Y-40192D01*
X58338Y-40192D01*
X58305Y-40144D01*
X56605Y-38444D01*
X56557Y-38411D01*
X56500Y-38400D01*
X56000Y-38400D01*
X51150Y-38400D01*
X51092Y-38411D01*
X51044Y-38444D01*
X50406Y-39082D01*
X50329Y-39050D01*
X50170Y-39050D01*
X50024Y-39111D01*
X49911Y-39223D01*
X49850Y-39370D01*
X49850Y-39529D01*
X49911Y-39675D01*
X50023Y-39788D01*
X50170Y-39849D01*
X50329Y-39849D01*
X50475Y-39788D01*
X50588Y-39676D01*
X50649Y-39529D01*
X50649Y-39370D01*
X50617Y-39293D01*
X51211Y-38699D01*
X51789Y-38699D01*
X51406Y-39082D01*
X51329Y-39050D01*
X51170Y-39050D01*
X51024Y-39111D01*
X50911Y-39223D01*
X50850Y-39370D01*
X50850Y-39529D01*
X50911Y-39675D01*
X51023Y-39788D01*
X51170Y-39849D01*
X51329Y-39849D01*
X51475Y-39788D01*
X51588Y-39676D01*
X51649Y-39529D01*
X51649Y-39370D01*
X51617Y-39293D01*
X52005Y-38905D01*
X52011Y-38899D01*
X52589Y-38899D01*
X52406Y-39082D01*
X52329Y-39050D01*
X52170Y-39050D01*
X52024Y-39111D01*
X51911Y-39223D01*
X51850Y-39370D01*
X51850Y-39529D01*
X51911Y-39675D01*
X52023Y-39788D01*
X52170Y-39849D01*
X52329Y-39849D01*
X52475Y-39788D01*
X52588Y-39676D01*
X52649Y-39529D01*
X52649Y-39370D01*
X52617Y-39293D01*
X52811Y-39099D01*
X53052Y-39099D01*
X53024Y-39111D01*
X52911Y-39223D01*
X52850Y-39370D01*
X52850Y-39529D01*
X52911Y-39675D01*
X53023Y-39788D01*
X53170Y-39849D01*
X53329Y-39849D01*
X53406Y-39817D01*
X53694Y-40105D01*
X53742Y-40138D01*
X53742Y-40138D01*
X53800Y-40149D01*
X53985Y-40149D01*
X53911Y-40223D01*
X53850Y-40370D01*
X53850Y-40529D01*
X53911Y-40675D01*
X54023Y-40788D01*
X54170Y-40849D01*
X54329Y-40849D01*
X54475Y-40788D01*
X54555Y-40709D01*
X54944Y-40709D01*
X55023Y-40788D01*
X55170Y-40849D01*
X55329Y-40849D01*
X55475Y-40788D01*
X55555Y-40709D01*
X56442Y-40709D01*
X56940Y-41207D01*
X56940Y-42101D01*
X56689Y-42352D01*
X56689Y-41771D01*
X56689Y-41732D01*
X56689Y-41220D01*
X56674Y-41183D01*
X56646Y-41155D01*
X56610Y-41140D01*
X56570Y-41140D01*
X55232Y-41140D01*
X55195Y-41155D01*
X55167Y-41183D01*
X55152Y-41220D01*
X55152Y-41259D01*
X55152Y-41771D01*
X55167Y-41808D01*
X55195Y-41836D01*
X55232Y-41851D01*
X55271Y-41851D01*
X55673Y-41851D01*
X55620Y-41904D01*
X55566Y-42035D01*
X55565Y-42176D01*
X55619Y-42307D01*
X55719Y-42407D01*
X55850Y-42461D01*
X55991Y-42461D01*
X56122Y-42407D01*
X56222Y-42307D01*
X56276Y-42177D01*
X56276Y-42035D01*
X56222Y-41905D01*
X56168Y-41851D01*
X56610Y-41851D01*
X56646Y-41836D01*
X56674Y-41808D01*
X56689Y-41771D01*
X56689Y-42352D01*
X56509Y-42533D01*
X56506Y-42537D01*
X56269Y-42537D01*
X56220Y-42517D01*
X56141Y-42517D01*
X56068Y-42547D01*
X56012Y-42603D01*
X55981Y-42676D01*
X55981Y-42756D01*
X56011Y-42829D01*
X56067Y-42885D01*
X56135Y-42913D01*
X56068Y-42941D01*
X56012Y-42997D01*
X55981Y-43070D01*
X55981Y-43149D01*
X56011Y-43223D01*
X56067Y-43279D01*
X56135Y-43307D01*
X56068Y-43334D01*
X56012Y-43390D01*
X55981Y-43464D01*
X55981Y-43543D01*
X56011Y-43616D01*
X56067Y-43672D01*
X56141Y-43703D01*
X56220Y-43703D01*
X56269Y-43683D01*
X56692Y-43683D01*
X56699Y-43682D01*
X57122Y-43682D01*
X57158Y-43666D01*
X57186Y-43638D01*
X57201Y-43602D01*
X57201Y-43562D01*
X57201Y-43405D01*
X57186Y-43368D01*
X57158Y-43340D01*
X57122Y-43325D01*
X57082Y-43325D01*
X56872Y-43325D01*
X56872Y-43288D01*
X57122Y-43288D01*
X57158Y-43273D01*
X57186Y-43245D01*
X57201Y-43208D01*
X57201Y-43169D01*
X57201Y-43011D01*
X57186Y-42975D01*
X57158Y-42947D01*
X57122Y-42932D01*
X57082Y-42932D01*
X56872Y-42932D01*
X56872Y-42902D01*
X56876Y-42899D01*
X56881Y-42894D01*
X57122Y-42894D01*
X57158Y-42879D01*
X57186Y-42851D01*
X57201Y-42815D01*
X57201Y-42775D01*
X57201Y-42618D01*
X57189Y-42587D01*
X57383Y-42392D01*
X57439Y-42308D01*
X57450Y-42253D01*
X57450Y-44638D01*
X57177Y-44911D01*
X57177Y-44778D01*
X57177Y-44728D01*
X57177Y-44641D01*
X57177Y-44591D01*
X57177Y-44384D01*
X57177Y-44335D01*
X57177Y-44247D01*
X57177Y-44197D01*
X57177Y-43991D01*
X57177Y-43941D01*
X57177Y-43853D01*
X57177Y-43803D01*
X57165Y-43776D01*
X57144Y-43755D01*
X57117Y-43743D01*
X57087Y-43743D01*
X56736Y-43743D01*
X56717Y-43762D01*
X56717Y-43872D01*
X57158Y-43872D01*
X57177Y-43853D01*
X57177Y-43941D01*
X57158Y-43922D01*
X56717Y-43922D01*
X56717Y-44032D01*
X56736Y-44051D01*
X57087Y-44051D01*
X57117Y-44051D01*
X57144Y-44039D01*
X57165Y-44018D01*
X57177Y-43991D01*
X57177Y-44197D01*
X57165Y-44170D01*
X57144Y-44149D01*
X57117Y-44137D01*
X57087Y-44137D01*
X56736Y-44137D01*
X56717Y-44156D01*
X56717Y-44266D01*
X57158Y-44266D01*
X57177Y-44247D01*
X57177Y-44335D01*
X57158Y-44316D01*
X56717Y-44316D01*
X56717Y-44426D01*
X56736Y-44445D01*
X57087Y-44445D01*
X57117Y-44445D01*
X57144Y-44433D01*
X57165Y-44412D01*
X57177Y-44384D01*
X57177Y-44591D01*
X57165Y-44563D01*
X57144Y-44542D01*
X57117Y-44531D01*
X57087Y-44531D01*
X56736Y-44531D01*
X56717Y-44550D01*
X56717Y-44660D01*
X57158Y-44660D01*
X57177Y-44641D01*
X57177Y-44728D01*
X57158Y-44710D01*
X56717Y-44710D01*
X56717Y-44820D01*
X56736Y-44838D01*
X57087Y-44838D01*
X57117Y-44838D01*
X57144Y-44827D01*
X57165Y-44806D01*
X57177Y-44778D01*
X57177Y-44911D01*
X57165Y-44922D01*
X57158Y-44915D01*
X57122Y-44900D01*
X57082Y-44900D01*
X56699Y-44900D01*
X56692Y-44899D01*
X56667Y-44899D01*
X56667Y-44820D01*
X56667Y-44710D01*
X56667Y-44660D01*
X56667Y-44550D01*
X56667Y-44426D01*
X56667Y-44316D01*
X56667Y-44266D01*
X56667Y-44156D01*
X56667Y-44032D01*
X56667Y-43922D01*
X56667Y-43872D01*
X56667Y-43762D01*
X56649Y-43743D01*
X56298Y-43743D01*
X56268Y-43743D01*
X56240Y-43755D01*
X56219Y-43776D01*
X56208Y-43803D01*
X56208Y-43853D01*
X56227Y-43872D01*
X56667Y-43872D01*
X56667Y-43922D01*
X56227Y-43922D01*
X56208Y-43941D01*
X56208Y-43991D01*
X56219Y-44018D01*
X56240Y-44039D01*
X56268Y-44051D01*
X56298Y-44051D01*
X56649Y-44051D01*
X56667Y-44032D01*
X56667Y-44156D01*
X56649Y-44137D01*
X56298Y-44137D01*
X56268Y-44137D01*
X56240Y-44149D01*
X56219Y-44170D01*
X56208Y-44197D01*
X56208Y-44247D01*
X56227Y-44266D01*
X56667Y-44266D01*
X56667Y-44316D01*
X56227Y-44316D01*
X56208Y-44335D01*
X56208Y-44384D01*
X56219Y-44412D01*
X56240Y-44433D01*
X56268Y-44445D01*
X56298Y-44445D01*
X56649Y-44445D01*
X56667Y-44426D01*
X56667Y-44550D01*
X56649Y-44531D01*
X56298Y-44531D01*
X56268Y-44531D01*
X56240Y-44542D01*
X56219Y-44563D01*
X56208Y-44591D01*
X56208Y-44641D01*
X56227Y-44660D01*
X56667Y-44660D01*
X56667Y-44710D01*
X56227Y-44710D01*
X56208Y-44728D01*
X56208Y-44778D01*
X56219Y-44806D01*
X56240Y-44827D01*
X56268Y-44838D01*
X56298Y-44838D01*
X56649Y-44838D01*
X56667Y-44820D01*
X56667Y-44899D01*
X56269Y-44899D01*
X56220Y-44879D01*
X56141Y-44879D01*
X56068Y-44909D01*
X56012Y-44965D01*
X55981Y-45038D01*
X55981Y-45118D01*
X56011Y-45191D01*
X56067Y-45247D01*
X56135Y-45275D01*
X56068Y-45303D01*
X56012Y-45359D01*
X55981Y-45432D01*
X55981Y-45511D01*
X56011Y-45585D01*
X56067Y-45641D01*
X56135Y-45669D01*
X56068Y-45696D01*
X56012Y-45753D01*
X55981Y-45826D01*
X55981Y-45905D01*
X56011Y-45978D01*
X56067Y-46035D01*
X56135Y-46063D01*
X56068Y-46090D01*
X56012Y-46146D01*
X55981Y-46220D01*
X55981Y-46299D01*
X56011Y-46372D01*
X56067Y-46428D01*
X56141Y-46459D01*
X56220Y-46459D01*
X56269Y-46439D01*
X56692Y-46439D01*
X56699Y-46437D01*
X57122Y-46437D01*
X57158Y-46422D01*
X57172Y-46409D01*
X57340Y-46409D01*
X57397Y-46397D01*
X57445Y-46365D01*
X58305Y-45505D01*
X58338Y-45457D01*
X58338Y-45457D01*
X58349Y-45400D01*
X58349Y-51739D01*
X57177Y-52911D01*
X57177Y-47534D01*
X57177Y-47484D01*
X57177Y-47397D01*
X57177Y-47347D01*
X57177Y-47140D01*
X57177Y-47090D01*
X57177Y-47003D01*
X57177Y-46953D01*
X57177Y-46747D01*
X57177Y-46697D01*
X57177Y-46609D01*
X57177Y-46559D01*
X57165Y-46532D01*
X57144Y-46511D01*
X57117Y-46499D01*
X57087Y-46499D01*
X56736Y-46499D01*
X56717Y-46518D01*
X56717Y-46628D01*
X57158Y-46628D01*
X57177Y-46609D01*
X57177Y-46697D01*
X57158Y-46678D01*
X56717Y-46678D01*
X56717Y-46788D01*
X56736Y-46807D01*
X57087Y-46807D01*
X57117Y-46807D01*
X57144Y-46795D01*
X57165Y-46774D01*
X57177Y-46747D01*
X57177Y-46953D01*
X57165Y-46926D01*
X57144Y-46904D01*
X57117Y-46893D01*
X57087Y-46893D01*
X56736Y-46893D01*
X56717Y-46912D01*
X56717Y-47022D01*
X57158Y-47022D01*
X57177Y-47003D01*
X57177Y-47090D01*
X57158Y-47072D01*
X56717Y-47072D01*
X56717Y-47182D01*
X56736Y-47200D01*
X57087Y-47200D01*
X57117Y-47200D01*
X57144Y-47189D01*
X57165Y-47168D01*
X57177Y-47140D01*
X57177Y-47347D01*
X57165Y-47319D01*
X57144Y-47298D01*
X57117Y-47287D01*
X57087Y-47287D01*
X56736Y-47287D01*
X56717Y-47305D01*
X56717Y-47415D01*
X57158Y-47415D01*
X57177Y-47397D01*
X57177Y-47484D01*
X57158Y-47465D01*
X56717Y-47465D01*
X56717Y-47575D01*
X56736Y-47594D01*
X57087Y-47594D01*
X57117Y-47594D01*
X57144Y-47583D01*
X57165Y-47562D01*
X57177Y-47534D01*
X57177Y-52911D01*
X56689Y-53398D01*
X56689Y-48937D01*
X56689Y-48897D01*
X56689Y-48385D01*
X56674Y-48349D01*
X56667Y-48342D01*
X56667Y-47575D01*
X56667Y-47465D01*
X56667Y-47415D01*
X56667Y-47305D01*
X56667Y-47182D01*
X56667Y-47072D01*
X56667Y-47022D01*
X56667Y-46912D01*
X56667Y-46788D01*
X56667Y-46678D01*
X56667Y-46628D01*
X56667Y-46518D01*
X56649Y-46499D01*
X56298Y-46499D01*
X56268Y-46499D01*
X56240Y-46511D01*
X56219Y-46532D01*
X56208Y-46559D01*
X56208Y-46609D01*
X56227Y-46628D01*
X56667Y-46628D01*
X56667Y-46678D01*
X56227Y-46678D01*
X56208Y-46697D01*
X56208Y-46747D01*
X56219Y-46774D01*
X56240Y-46795D01*
X56268Y-46807D01*
X56298Y-46807D01*
X56649Y-46807D01*
X56667Y-46788D01*
X56667Y-46912D01*
X56649Y-46893D01*
X56298Y-46893D01*
X56268Y-46893D01*
X56240Y-46904D01*
X56219Y-46926D01*
X56208Y-46953D01*
X56208Y-47003D01*
X56227Y-47022D01*
X56667Y-47022D01*
X56667Y-47072D01*
X56227Y-47072D01*
X56208Y-47090D01*
X56208Y-47140D01*
X56219Y-47168D01*
X56240Y-47189D01*
X56268Y-47200D01*
X56298Y-47200D01*
X56649Y-47200D01*
X56667Y-47182D01*
X56667Y-47305D01*
X56649Y-47287D01*
X56298Y-47287D01*
X56268Y-47287D01*
X56240Y-47298D01*
X56219Y-47319D01*
X56208Y-47347D01*
X56208Y-47397D01*
X56227Y-47415D01*
X56667Y-47415D01*
X56667Y-47465D01*
X56227Y-47465D01*
X56208Y-47484D01*
X56208Y-47534D01*
X56219Y-47562D01*
X56240Y-47583D01*
X56268Y-47594D01*
X56298Y-47594D01*
X56649Y-47594D01*
X56667Y-47575D01*
X56667Y-48342D01*
X56646Y-48321D01*
X56610Y-48306D01*
X56570Y-48306D01*
X56168Y-48306D01*
X56222Y-48252D01*
X56276Y-48122D01*
X56276Y-47980D01*
X56222Y-47850D01*
X56122Y-47750D01*
X55992Y-47695D01*
X55868Y-47695D01*
X55868Y-47204D01*
X55838Y-47131D01*
X55782Y-47075D01*
X55715Y-47047D01*
X55782Y-47019D01*
X55838Y-46963D01*
X55868Y-46890D01*
X55868Y-46810D01*
X55838Y-46737D01*
X55782Y-46681D01*
X55715Y-46653D01*
X55782Y-46625D01*
X55838Y-46569D01*
X55868Y-46496D01*
X55868Y-46417D01*
X55838Y-46343D01*
X55782Y-46287D01*
X55715Y-46259D01*
X55782Y-46232D01*
X55838Y-46176D01*
X55868Y-46102D01*
X55868Y-46023D01*
X55838Y-45950D01*
X55782Y-45894D01*
X55715Y-45866D01*
X55782Y-45838D01*
X55838Y-45782D01*
X55868Y-45709D01*
X55868Y-45629D01*
X55838Y-45556D01*
X55782Y-45500D01*
X55715Y-45472D01*
X55782Y-45444D01*
X55838Y-45388D01*
X55868Y-45315D01*
X55868Y-45236D01*
X55838Y-45162D01*
X55782Y-45106D01*
X55715Y-45078D01*
X55782Y-45051D01*
X55838Y-44994D01*
X55868Y-44921D01*
X55868Y-44842D01*
X55838Y-44769D01*
X55782Y-44712D01*
X55715Y-44685D01*
X55782Y-44657D01*
X55838Y-44601D01*
X55868Y-44528D01*
X55868Y-44448D01*
X55838Y-44375D01*
X55782Y-44319D01*
X55715Y-44291D01*
X55782Y-44263D01*
X55838Y-44207D01*
X55868Y-44134D01*
X55868Y-44054D01*
X55838Y-43981D01*
X55782Y-43925D01*
X55715Y-43897D01*
X55782Y-43869D01*
X55838Y-43813D01*
X55868Y-43740D01*
X55868Y-43661D01*
X55838Y-43587D01*
X55782Y-43531D01*
X55715Y-43503D01*
X55782Y-43476D01*
X55838Y-43420D01*
X55868Y-43346D01*
X55868Y-43267D01*
X55838Y-43194D01*
X55782Y-43138D01*
X55715Y-43110D01*
X55782Y-43082D01*
X55838Y-43026D01*
X55868Y-42953D01*
X55868Y-42873D01*
X55838Y-42800D01*
X55782Y-42744D01*
X55709Y-42714D01*
X55629Y-42713D01*
X55581Y-42733D01*
X55149Y-42733D01*
X54187Y-42733D01*
X53429Y-41975D01*
X53429Y-40808D01*
X53475Y-40788D01*
X53588Y-40676D01*
X53649Y-40529D01*
X53649Y-40370D01*
X53588Y-40224D01*
X53476Y-40111D01*
X53329Y-40050D01*
X53170Y-40050D01*
X53024Y-40111D01*
X52911Y-40223D01*
X52850Y-40370D01*
X52850Y-40529D01*
X52911Y-40675D01*
X53023Y-40788D01*
X53070Y-40807D01*
X53070Y-42049D01*
X53070Y-42050D01*
X53084Y-42118D01*
X53123Y-42176D01*
X53986Y-43040D01*
X53986Y-43040D01*
X54044Y-43079D01*
X54113Y-43092D01*
X55149Y-43092D01*
X55581Y-43092D01*
X55623Y-43110D01*
X55581Y-43127D01*
X55149Y-43127D01*
X53681Y-43127D01*
X52429Y-41875D01*
X52429Y-40808D01*
X52475Y-40788D01*
X52588Y-40676D01*
X52649Y-40529D01*
X52649Y-40370D01*
X52588Y-40224D01*
X52476Y-40111D01*
X52329Y-40050D01*
X52170Y-40050D01*
X52024Y-40111D01*
X51911Y-40223D01*
X51850Y-40370D01*
X51850Y-40529D01*
X51911Y-40675D01*
X52023Y-40788D01*
X52070Y-40807D01*
X52070Y-41949D01*
X52070Y-41950D01*
X52084Y-42018D01*
X52123Y-42076D01*
X53480Y-43433D01*
X53480Y-43433D01*
X53538Y-43472D01*
X53607Y-43486D01*
X53607Y-43486D01*
X53607Y-43486D01*
X55149Y-43486D01*
X55581Y-43486D01*
X55623Y-43503D01*
X55581Y-43521D01*
X55149Y-43521D01*
X53075Y-43521D01*
X51429Y-41875D01*
X51429Y-40808D01*
X51475Y-40788D01*
X51588Y-40676D01*
X51649Y-40529D01*
X51649Y-40370D01*
X51588Y-40224D01*
X51476Y-40111D01*
X51329Y-40050D01*
X51170Y-40050D01*
X51024Y-40111D01*
X50911Y-40223D01*
X50850Y-40370D01*
X50850Y-40529D01*
X50911Y-40675D01*
X51023Y-40788D01*
X51070Y-40807D01*
X51070Y-41949D01*
X51070Y-41950D01*
X51084Y-42018D01*
X51123Y-42076D01*
X52873Y-43827D01*
X52873Y-43827D01*
X52873Y-43827D01*
X52932Y-43866D01*
X53000Y-43880D01*
X53000Y-43880D01*
X53000Y-43880D01*
X55149Y-43880D01*
X55581Y-43880D01*
X55623Y-43897D01*
X55581Y-43915D01*
X55149Y-43915D01*
X52568Y-43915D01*
X50429Y-41775D01*
X50429Y-40808D01*
X50475Y-40788D01*
X50588Y-40676D01*
X50649Y-40529D01*
X50649Y-40370D01*
X50588Y-40224D01*
X50476Y-40111D01*
X50329Y-40050D01*
X50170Y-40050D01*
X50024Y-40111D01*
X49911Y-40223D01*
X49850Y-40370D01*
X49850Y-40529D01*
X49911Y-40675D01*
X50023Y-40788D01*
X50070Y-40807D01*
X50070Y-41849D01*
X50070Y-41850D01*
X50084Y-41918D01*
X50123Y-41976D01*
X52367Y-44221D01*
X52367Y-44221D01*
X52367Y-44221D01*
X52425Y-44260D01*
X52425Y-44260D01*
X52437Y-44262D01*
X52494Y-44273D01*
X52494Y-44273D01*
X52494Y-44273D01*
X55149Y-44273D01*
X55581Y-44273D01*
X55623Y-44291D01*
X55581Y-44308D01*
X55149Y-44308D01*
X52062Y-44308D01*
X49429Y-41675D01*
X49429Y-40808D01*
X49475Y-40788D01*
X49588Y-40676D01*
X49649Y-40529D01*
X49649Y-40370D01*
X49626Y-40316D01*
X49626Y-39514D01*
X49622Y-39365D01*
X49573Y-39245D01*
X49524Y-39211D01*
X49488Y-39246D01*
X49488Y-39175D01*
X49454Y-39126D01*
X49314Y-39073D01*
X49165Y-39077D01*
X49045Y-39126D01*
X49011Y-39175D01*
X49250Y-39414D01*
X49488Y-39175D01*
X49488Y-39246D01*
X49285Y-39450D01*
X49524Y-39688D01*
X49573Y-39654D01*
X49626Y-39514D01*
X49626Y-40316D01*
X49588Y-40224D01*
X49488Y-40123D01*
X49488Y-39724D01*
X49250Y-39485D01*
X49214Y-39520D01*
X49214Y-39450D01*
X48975Y-39211D01*
X48926Y-39245D01*
X48873Y-39385D01*
X48877Y-39534D01*
X48926Y-39654D01*
X48975Y-39688D01*
X49214Y-39450D01*
X49214Y-39520D01*
X49011Y-39724D01*
X49045Y-39773D01*
X49185Y-39826D01*
X49334Y-39822D01*
X49454Y-39773D01*
X49488Y-39724D01*
X49488Y-40123D01*
X49476Y-40111D01*
X49329Y-40050D01*
X49170Y-40050D01*
X49024Y-40111D01*
X48911Y-40223D01*
X48850Y-40370D01*
X48850Y-40529D01*
X48911Y-40675D01*
X49023Y-40788D01*
X49070Y-40807D01*
X49070Y-41749D01*
X49070Y-41750D01*
X49084Y-41818D01*
X49123Y-41876D01*
X51861Y-44615D01*
X51861Y-44615D01*
X51919Y-44653D01*
X51988Y-44667D01*
X55149Y-44667D01*
X55581Y-44667D01*
X55623Y-44685D01*
X55581Y-44702D01*
X55149Y-44702D01*
X51556Y-44702D01*
X48429Y-41575D01*
X48429Y-40808D01*
X48475Y-40788D01*
X48588Y-40676D01*
X48649Y-40529D01*
X48649Y-40370D01*
X48626Y-40316D01*
X48626Y-39514D01*
X48622Y-39365D01*
X48573Y-39245D01*
X48524Y-39211D01*
X48488Y-39246D01*
X48488Y-39175D01*
X48454Y-39126D01*
X48314Y-39073D01*
X48165Y-39077D01*
X48045Y-39126D01*
X48011Y-39175D01*
X48250Y-39414D01*
X48488Y-39175D01*
X48488Y-39246D01*
X48285Y-39450D01*
X48524Y-39688D01*
X48573Y-39654D01*
X48626Y-39514D01*
X48626Y-40316D01*
X48588Y-40224D01*
X48488Y-40123D01*
X48488Y-39724D01*
X48250Y-39485D01*
X48214Y-39520D01*
X48214Y-39450D01*
X47975Y-39211D01*
X47926Y-39245D01*
X47873Y-39385D01*
X47877Y-39534D01*
X47926Y-39654D01*
X47975Y-39688D01*
X48214Y-39450D01*
X48214Y-39520D01*
X48011Y-39724D01*
X48045Y-39773D01*
X48185Y-39826D01*
X48334Y-39822D01*
X48454Y-39773D01*
X48488Y-39724D01*
X48488Y-40123D01*
X48476Y-40111D01*
X48329Y-40050D01*
X48170Y-40050D01*
X48024Y-40111D01*
X47911Y-40223D01*
X47850Y-40370D01*
X47850Y-40529D01*
X47911Y-40675D01*
X48023Y-40788D01*
X48070Y-40807D01*
X48070Y-41649D01*
X48070Y-41650D01*
X48084Y-41718D01*
X48123Y-41776D01*
X51355Y-45008D01*
X51355Y-45008D01*
X51413Y-45047D01*
X51481Y-45061D01*
X51481Y-45061D01*
X51481Y-45061D01*
X55149Y-45061D01*
X55581Y-45061D01*
X55623Y-45078D01*
X55581Y-45096D01*
X55149Y-45096D01*
X50949Y-45096D01*
X47429Y-41575D01*
X47429Y-40808D01*
X47475Y-40788D01*
X47588Y-40676D01*
X47649Y-40529D01*
X47649Y-40370D01*
X47626Y-40316D01*
X47626Y-39514D01*
X47622Y-39365D01*
X47573Y-39245D01*
X47524Y-39211D01*
X47488Y-39246D01*
X47488Y-39175D01*
X47454Y-39126D01*
X47314Y-39073D01*
X47165Y-39077D01*
X47045Y-39126D01*
X47011Y-39175D01*
X47250Y-39414D01*
X47488Y-39175D01*
X47488Y-39246D01*
X47285Y-39450D01*
X47524Y-39688D01*
X47573Y-39654D01*
X47626Y-39514D01*
X47626Y-40316D01*
X47588Y-40224D01*
X47488Y-40123D01*
X47488Y-39724D01*
X47250Y-39485D01*
X47214Y-39520D01*
X47214Y-39450D01*
X46975Y-39211D01*
X46926Y-39245D01*
X46873Y-39385D01*
X46877Y-39534D01*
X46926Y-39654D01*
X46975Y-39688D01*
X47214Y-39450D01*
X47214Y-39520D01*
X47011Y-39724D01*
X47045Y-39773D01*
X47185Y-39826D01*
X47334Y-39822D01*
X47454Y-39773D01*
X47488Y-39724D01*
X47488Y-40123D01*
X47476Y-40111D01*
X47329Y-40050D01*
X47170Y-40050D01*
X47024Y-40111D01*
X46911Y-40223D01*
X46850Y-40370D01*
X46850Y-40529D01*
X46911Y-40675D01*
X47023Y-40788D01*
X47070Y-40807D01*
X47070Y-41649D01*
X47070Y-41650D01*
X47084Y-41718D01*
X47123Y-41776D01*
X50748Y-45402D01*
X50748Y-45402D01*
X50748Y-45402D01*
X50806Y-45441D01*
X50875Y-45455D01*
X50875Y-45455D01*
X50875Y-45455D01*
X55149Y-45455D01*
X55581Y-45455D01*
X55623Y-45472D01*
X55581Y-45489D01*
X55149Y-45489D01*
X50343Y-45489D01*
X46429Y-41575D01*
X46429Y-40808D01*
X46475Y-40788D01*
X46588Y-40676D01*
X46649Y-40529D01*
X46649Y-40370D01*
X46626Y-40316D01*
X46626Y-39514D01*
X46622Y-39365D01*
X46573Y-39245D01*
X46524Y-39211D01*
X46488Y-39246D01*
X46488Y-39175D01*
X46454Y-39126D01*
X46314Y-39073D01*
X46165Y-39077D01*
X46045Y-39126D01*
X46011Y-39175D01*
X46250Y-39414D01*
X46488Y-39175D01*
X46488Y-39246D01*
X46285Y-39450D01*
X46524Y-39688D01*
X46573Y-39654D01*
X46626Y-39514D01*
X46626Y-40316D01*
X46588Y-40224D01*
X46488Y-40123D01*
X46488Y-39724D01*
X46250Y-39485D01*
X46214Y-39520D01*
X46214Y-39450D01*
X45975Y-39211D01*
X45926Y-39245D01*
X45873Y-39385D01*
X45877Y-39534D01*
X45926Y-39654D01*
X45975Y-39688D01*
X46214Y-39450D01*
X46214Y-39520D01*
X46011Y-39724D01*
X46045Y-39773D01*
X46185Y-39826D01*
X46334Y-39822D01*
X46454Y-39773D01*
X46488Y-39724D01*
X46488Y-40123D01*
X46476Y-40111D01*
X46329Y-40050D01*
X46170Y-40050D01*
X46024Y-40111D01*
X45911Y-40223D01*
X45850Y-40370D01*
X45850Y-40529D01*
X45911Y-40675D01*
X46023Y-40788D01*
X46070Y-40807D01*
X46070Y-41649D01*
X46070Y-41650D01*
X46084Y-41718D01*
X46123Y-41776D01*
X50142Y-45796D01*
X50142Y-45796D01*
X50200Y-45835D01*
X50269Y-45848D01*
X55149Y-45848D01*
X55581Y-45848D01*
X55623Y-45866D01*
X55581Y-45883D01*
X55149Y-45883D01*
X49737Y-45883D01*
X45429Y-41575D01*
X45429Y-40808D01*
X45475Y-40788D01*
X45588Y-40676D01*
X45649Y-40529D01*
X45649Y-40370D01*
X45626Y-40316D01*
X45626Y-39514D01*
X45622Y-39365D01*
X45573Y-39245D01*
X45524Y-39211D01*
X45488Y-39246D01*
X45488Y-39175D01*
X45454Y-39126D01*
X45314Y-39073D01*
X45165Y-39077D01*
X45045Y-39126D01*
X45011Y-39175D01*
X45250Y-39414D01*
X45488Y-39175D01*
X45488Y-39246D01*
X45285Y-39450D01*
X45524Y-39688D01*
X45573Y-39654D01*
X45626Y-39514D01*
X45626Y-40316D01*
X45588Y-40224D01*
X45488Y-40123D01*
X45488Y-39724D01*
X45250Y-39485D01*
X45214Y-39520D01*
X45214Y-39450D01*
X44975Y-39211D01*
X44926Y-39245D01*
X44873Y-39385D01*
X44877Y-39534D01*
X44926Y-39654D01*
X44975Y-39688D01*
X45214Y-39450D01*
X45214Y-39520D01*
X45011Y-39724D01*
X45045Y-39773D01*
X45185Y-39826D01*
X45334Y-39822D01*
X45454Y-39773D01*
X45488Y-39724D01*
X45488Y-40123D01*
X45476Y-40111D01*
X45329Y-40050D01*
X45170Y-40050D01*
X45024Y-40111D01*
X44911Y-40223D01*
X44850Y-40370D01*
X44850Y-40529D01*
X44911Y-40675D01*
X45023Y-40788D01*
X45070Y-40807D01*
X45070Y-41649D01*
X45070Y-41650D01*
X45084Y-41718D01*
X45123Y-41776D01*
X49536Y-46189D01*
X49536Y-46189D01*
X49536Y-46189D01*
X49594Y-46228D01*
X49662Y-46242D01*
X49662Y-46242D01*
X49662Y-46242D01*
X55149Y-46242D01*
X55581Y-46242D01*
X55623Y-46259D01*
X55581Y-46277D01*
X55149Y-46277D01*
X49031Y-46277D01*
X44429Y-41675D01*
X44429Y-40808D01*
X44475Y-40788D01*
X44588Y-40676D01*
X44649Y-40529D01*
X44649Y-40370D01*
X44588Y-40224D01*
X44476Y-40111D01*
X44329Y-40050D01*
X44170Y-40050D01*
X44024Y-40111D01*
X43911Y-40223D01*
X43850Y-40370D01*
X43850Y-40529D01*
X43911Y-40675D01*
X44023Y-40788D01*
X44070Y-40807D01*
X44070Y-41749D01*
X44070Y-41750D01*
X44084Y-41818D01*
X44123Y-41876D01*
X48829Y-46583D01*
X48829Y-46583D01*
X48888Y-46622D01*
X48956Y-46636D01*
X48956Y-46636D01*
X48956Y-46636D01*
X55149Y-46636D01*
X55581Y-46636D01*
X55623Y-46653D01*
X55581Y-46670D01*
X55149Y-46670D01*
X55143Y-46672D01*
X54720Y-46672D01*
X54683Y-46687D01*
X54655Y-46715D01*
X54640Y-46751D01*
X54640Y-46791D01*
X54640Y-46948D01*
X54655Y-46985D01*
X54683Y-47013D01*
X54720Y-47028D01*
X54759Y-47028D01*
X54804Y-47028D01*
X54766Y-47065D01*
X54720Y-47065D01*
X54683Y-47081D01*
X54655Y-47109D01*
X54640Y-47145D01*
X54640Y-47185D01*
X54640Y-47191D01*
X54066Y-47766D01*
X54066Y-47766D01*
X53566Y-48266D01*
X53510Y-48350D01*
X53490Y-48449D01*
X53490Y-49525D01*
X53476Y-49511D01*
X53329Y-49450D01*
X53170Y-49450D01*
X53024Y-49511D01*
X52911Y-49623D01*
X52850Y-49770D01*
X52850Y-49929D01*
X52911Y-50075D01*
X53023Y-50188D01*
X53170Y-50249D01*
X53329Y-50249D01*
X53475Y-50188D01*
X53555Y-50109D01*
X53750Y-50109D01*
X53944Y-50109D01*
X54023Y-50188D01*
X54170Y-50249D01*
X54329Y-50249D01*
X54475Y-50188D01*
X54588Y-50076D01*
X54649Y-49929D01*
X54649Y-49770D01*
X54588Y-49624D01*
X54476Y-49511D01*
X54329Y-49450D01*
X54170Y-49450D01*
X54024Y-49511D01*
X54009Y-49525D01*
X54009Y-48557D01*
X54433Y-48133D01*
X54433Y-48133D01*
X54433Y-48133D01*
X55144Y-47422D01*
X55149Y-47423D01*
X55581Y-47423D01*
X55629Y-47443D01*
X55708Y-47443D01*
X55782Y-47413D01*
X55838Y-47357D01*
X55868Y-47283D01*
X55868Y-47204D01*
X55868Y-47695D01*
X55850Y-47695D01*
X55720Y-47749D01*
X55620Y-47849D01*
X55566Y-47980D01*
X55565Y-48121D01*
X55619Y-48252D01*
X55673Y-48306D01*
X55232Y-48306D01*
X55195Y-48321D01*
X55167Y-48349D01*
X55152Y-48385D01*
X55152Y-48425D01*
X55152Y-48937D01*
X55167Y-48973D01*
X55195Y-49001D01*
X55232Y-49016D01*
X55271Y-49016D01*
X56610Y-49016D01*
X56646Y-49001D01*
X56674Y-48973D01*
X56689Y-48937D01*
X56689Y-53398D01*
X55649Y-54439D01*
X55649Y-50169D01*
X55649Y-50130D01*
X55649Y-49530D01*
X55634Y-49493D01*
X55606Y-49465D01*
X55569Y-49450D01*
X55530Y-49450D01*
X54930Y-49450D01*
X54893Y-49465D01*
X54865Y-49493D01*
X54850Y-49530D01*
X54850Y-49569D01*
X54850Y-50169D01*
X54865Y-50206D01*
X54893Y-50234D01*
X54930Y-50249D01*
X54969Y-50249D01*
X55569Y-50249D01*
X55606Y-50234D01*
X55634Y-50206D01*
X55649Y-50169D01*
X55649Y-54439D01*
X55626Y-54461D01*
X55626Y-50914D01*
X55622Y-50765D01*
X55573Y-50645D01*
X55524Y-50611D01*
X55488Y-50646D01*
X55488Y-50575D01*
X55454Y-50526D01*
X55314Y-50473D01*
X55165Y-50477D01*
X55045Y-50526D01*
X55011Y-50575D01*
X55250Y-50814D01*
X55488Y-50575D01*
X55488Y-50646D01*
X55285Y-50850D01*
X55524Y-51088D01*
X55573Y-51054D01*
X55626Y-50914D01*
X55626Y-54461D01*
X55488Y-54599D01*
X55488Y-51124D01*
X55250Y-50885D01*
X55214Y-50920D01*
X55214Y-50850D01*
X54975Y-50611D01*
X54926Y-50645D01*
X54873Y-50785D01*
X54877Y-50934D01*
X54926Y-51054D01*
X54975Y-51088D01*
X55214Y-50850D01*
X55214Y-50920D01*
X55011Y-51124D01*
X55045Y-51173D01*
X55185Y-51226D01*
X55334Y-51222D01*
X55454Y-51173D01*
X55488Y-51124D01*
X55488Y-54599D01*
X55074Y-55013D01*
X54626Y-55013D01*
X54626Y-50914D01*
X54622Y-50765D01*
X54573Y-50645D01*
X54524Y-50611D01*
X54488Y-50646D01*
X54488Y-50575D01*
X54454Y-50526D01*
X54314Y-50473D01*
X54165Y-50477D01*
X54045Y-50526D01*
X54011Y-50575D01*
X54250Y-50814D01*
X54488Y-50575D01*
X54488Y-50646D01*
X54285Y-50850D01*
X54524Y-51088D01*
X54573Y-51054D01*
X54626Y-50914D01*
X54626Y-55013D01*
X54488Y-55013D01*
X54488Y-51124D01*
X54250Y-50885D01*
X54214Y-50920D01*
X54214Y-50850D01*
X53975Y-50611D01*
X53926Y-50645D01*
X53873Y-50785D01*
X53877Y-50934D01*
X53926Y-51054D01*
X53975Y-51088D01*
X54214Y-50850D01*
X54214Y-50920D01*
X54011Y-51124D01*
X54045Y-51173D01*
X54185Y-51226D01*
X54334Y-51222D01*
X54454Y-51173D01*
X54488Y-51124D01*
X54488Y-55013D01*
X53626Y-55013D01*
X53626Y-50914D01*
X53622Y-50765D01*
X53573Y-50645D01*
X53524Y-50611D01*
X53488Y-50646D01*
X53488Y-50575D01*
X53454Y-50526D01*
X53314Y-50473D01*
X53165Y-50477D01*
X53045Y-50526D01*
X53011Y-50575D01*
X53250Y-50814D01*
X53488Y-50575D01*
X53488Y-50646D01*
X53285Y-50850D01*
X53524Y-51088D01*
X53573Y-51054D01*
X53626Y-50914D01*
X53626Y-55013D01*
X53488Y-55013D01*
X53488Y-51124D01*
X53250Y-50885D01*
X53214Y-50920D01*
X53214Y-50850D01*
X52975Y-50611D01*
X52926Y-50645D01*
X52873Y-50785D01*
X52877Y-50934D01*
X52926Y-51054D01*
X52975Y-51088D01*
X53214Y-50850D01*
X53214Y-50920D01*
X53011Y-51124D01*
X53045Y-51173D01*
X53185Y-51226D01*
X53334Y-51222D01*
X53454Y-51173D01*
X53488Y-51124D01*
X53488Y-55013D01*
X52649Y-55013D01*
X52649Y-50770D01*
X52626Y-50716D01*
X52626Y-49914D01*
X52622Y-49765D01*
X52573Y-49645D01*
X52524Y-49611D01*
X52488Y-49646D01*
X52488Y-49575D01*
X52454Y-49526D01*
X52314Y-49473D01*
X52165Y-49477D01*
X52045Y-49526D01*
X52011Y-49575D01*
X52250Y-49814D01*
X52488Y-49575D01*
X52488Y-49646D01*
X52285Y-49850D01*
X52524Y-50088D01*
X52573Y-50054D01*
X52626Y-49914D01*
X52626Y-50716D01*
X52588Y-50624D01*
X52488Y-50523D01*
X52488Y-50124D01*
X52250Y-49885D01*
X52214Y-49920D01*
X52214Y-49850D01*
X51975Y-49611D01*
X51926Y-49645D01*
X51873Y-49785D01*
X51877Y-49934D01*
X51926Y-50054D01*
X51975Y-50088D01*
X52214Y-49850D01*
X52214Y-49920D01*
X52011Y-50124D01*
X52045Y-50173D01*
X52185Y-50226D01*
X52334Y-50222D01*
X52454Y-50173D01*
X52488Y-50124D01*
X52488Y-50523D01*
X52476Y-50511D01*
X52329Y-50450D01*
X52170Y-50450D01*
X52024Y-50511D01*
X51911Y-50623D01*
X51850Y-50770D01*
X51850Y-50929D01*
X51882Y-51006D01*
X50944Y-51944D01*
X50669Y-52219D01*
X50638Y-52250D01*
X50060Y-52250D01*
X50355Y-51955D01*
X51093Y-51217D01*
X51170Y-51249D01*
X51329Y-51249D01*
X51475Y-51188D01*
X51588Y-51076D01*
X51649Y-50929D01*
X51649Y-50770D01*
X51588Y-50624D01*
X51476Y-50511D01*
X51329Y-50450D01*
X51170Y-50450D01*
X51024Y-50511D01*
X50911Y-50623D01*
X50850Y-50770D01*
X50850Y-50929D01*
X50882Y-51006D01*
X50144Y-51744D01*
X49819Y-52069D01*
X49813Y-52075D01*
X49235Y-52075D01*
X49255Y-52055D01*
X49555Y-51755D01*
X49568Y-51743D01*
X50093Y-51217D01*
X50170Y-51249D01*
X50329Y-51249D01*
X50475Y-51188D01*
X50588Y-51076D01*
X50649Y-50929D01*
X50649Y-50770D01*
X50588Y-50624D01*
X50476Y-50511D01*
X50329Y-50450D01*
X50170Y-50450D01*
X50024Y-50511D01*
X49911Y-50623D01*
X49850Y-50770D01*
X49850Y-50929D01*
X49882Y-51006D01*
X49356Y-51531D01*
X49344Y-51544D01*
X49044Y-51844D01*
X48988Y-51900D01*
X48410Y-51900D01*
X48605Y-51705D01*
X49093Y-51217D01*
X49170Y-51249D01*
X49329Y-51249D01*
X49475Y-51188D01*
X49588Y-51076D01*
X49649Y-50929D01*
X49649Y-50770D01*
X49588Y-50624D01*
X49476Y-50511D01*
X49329Y-50450D01*
X49170Y-50450D01*
X49024Y-50511D01*
X48911Y-50623D01*
X48850Y-50770D01*
X48850Y-50929D01*
X48882Y-51006D01*
X48394Y-51494D01*
X48194Y-51694D01*
X48163Y-51725D01*
X47585Y-51725D01*
X47755Y-51555D01*
X48093Y-51217D01*
X48170Y-51249D01*
X48329Y-51249D01*
X48475Y-51188D01*
X48588Y-51076D01*
X48649Y-50929D01*
X48649Y-50770D01*
X48588Y-50624D01*
X48476Y-50511D01*
X48329Y-50450D01*
X48170Y-50450D01*
X48024Y-50511D01*
X47911Y-50623D01*
X47850Y-50770D01*
X47850Y-50929D01*
X47882Y-51006D01*
X47544Y-51344D01*
X47338Y-51550D01*
X46760Y-51550D01*
X46805Y-51505D01*
X47093Y-51217D01*
X47170Y-51249D01*
X47329Y-51249D01*
X47475Y-51188D01*
X47588Y-51076D01*
X47649Y-50929D01*
X47649Y-50770D01*
X47588Y-50624D01*
X47476Y-50511D01*
X47329Y-50450D01*
X47170Y-50450D01*
X47024Y-50511D01*
X46911Y-50623D01*
X46850Y-50770D01*
X46850Y-50929D01*
X46882Y-51006D01*
X46594Y-51294D01*
X46513Y-51375D01*
X45935Y-51375D01*
X46093Y-51217D01*
X46170Y-51249D01*
X46329Y-51249D01*
X46475Y-51188D01*
X46588Y-51076D01*
X46649Y-50929D01*
X46649Y-50770D01*
X46588Y-50624D01*
X46476Y-50511D01*
X46329Y-50450D01*
X46170Y-50450D01*
X46024Y-50511D01*
X45911Y-50623D01*
X45850Y-50770D01*
X45850Y-50929D01*
X45882Y-51006D01*
X45688Y-51200D01*
X45447Y-51200D01*
X45475Y-51188D01*
X45588Y-51076D01*
X45649Y-50929D01*
X45649Y-50770D01*
X45588Y-50624D01*
X45476Y-50511D01*
X45329Y-50450D01*
X45170Y-50450D01*
X45093Y-50482D01*
X44855Y-50244D01*
X44807Y-50211D01*
X44750Y-50200D01*
X44447Y-50200D01*
X44475Y-50188D01*
X44588Y-50076D01*
X44649Y-49929D01*
X44649Y-49770D01*
X44588Y-49624D01*
X44476Y-49511D01*
X44329Y-49450D01*
X44170Y-49450D01*
X44024Y-49511D01*
X44009Y-49525D01*
X44009Y-47915D01*
X43989Y-47816D01*
X43933Y-47731D01*
X43933Y-47731D01*
X43771Y-47570D01*
X43784Y-47539D01*
X43784Y-47499D01*
X43784Y-47342D01*
X43769Y-47305D01*
X43741Y-47277D01*
X43704Y-47262D01*
X43665Y-47262D01*
X43464Y-47262D01*
X43459Y-47257D01*
X43455Y-47254D01*
X43455Y-47250D01*
X43455Y-47225D01*
X43704Y-47225D01*
X43741Y-47210D01*
X43769Y-47182D01*
X43784Y-47145D01*
X43784Y-47106D01*
X43784Y-46948D01*
X43769Y-46912D01*
X43741Y-46884D01*
X43704Y-46869D01*
X43665Y-46869D01*
X43281Y-46869D01*
X43275Y-46867D01*
X42883Y-46867D01*
X42841Y-46850D01*
X42883Y-46832D01*
X43275Y-46832D01*
X44179Y-46832D01*
X45070Y-47724D01*
X45070Y-49491D01*
X45024Y-49511D01*
X44911Y-49623D01*
X44850Y-49770D01*
X44850Y-49929D01*
X44911Y-50075D01*
X45023Y-50188D01*
X45170Y-50249D01*
X45329Y-50249D01*
X45475Y-50188D01*
X45588Y-50076D01*
X45649Y-49929D01*
X45649Y-49770D01*
X45588Y-49624D01*
X45476Y-49511D01*
X45429Y-49492D01*
X45429Y-47650D01*
X45429Y-47650D01*
X45429Y-47650D01*
X45418Y-47592D01*
X45415Y-47581D01*
X45415Y-47581D01*
X45376Y-47523D01*
X45376Y-47523D01*
X45376Y-47523D01*
X44380Y-46526D01*
X44322Y-46487D01*
X44253Y-46474D01*
X44253Y-46474D01*
X43275Y-46474D01*
X42883Y-46474D01*
X42841Y-46456D01*
X42883Y-46439D01*
X43275Y-46439D01*
X44385Y-46439D01*
X46070Y-48124D01*
X46070Y-49491D01*
X46024Y-49511D01*
X45911Y-49623D01*
X45850Y-49770D01*
X45850Y-49929D01*
X45911Y-50075D01*
X46023Y-50188D01*
X46170Y-50249D01*
X46329Y-50249D01*
X46475Y-50188D01*
X46588Y-50076D01*
X46649Y-49929D01*
X46649Y-49770D01*
X46588Y-49624D01*
X46476Y-49511D01*
X46429Y-49492D01*
X46429Y-48050D01*
X46429Y-48050D01*
X46429Y-48050D01*
X46415Y-47981D01*
X46376Y-47923D01*
X44586Y-46132D01*
X44528Y-46094D01*
X44459Y-46080D01*
X44459Y-46080D01*
X43275Y-46080D01*
X42883Y-46080D01*
X42841Y-46062D01*
X42883Y-46045D01*
X43275Y-46045D01*
X44591Y-46045D01*
X47070Y-48524D01*
X47070Y-49491D01*
X47024Y-49511D01*
X46911Y-49623D01*
X46850Y-49770D01*
X46850Y-49929D01*
X46911Y-50075D01*
X47023Y-50188D01*
X47170Y-50249D01*
X47329Y-50249D01*
X47475Y-50188D01*
X47588Y-50076D01*
X47649Y-49929D01*
X47649Y-49770D01*
X47588Y-49624D01*
X47476Y-49511D01*
X47429Y-49492D01*
X47429Y-48450D01*
X47429Y-48450D01*
X47429Y-48450D01*
X47415Y-48381D01*
X47376Y-48323D01*
X47376Y-48323D01*
X47376Y-48323D01*
X44793Y-45739D01*
X44734Y-45700D01*
X44666Y-45686D01*
X44666Y-45686D01*
X43275Y-45686D01*
X42883Y-45686D01*
X42841Y-45669D01*
X42883Y-45651D01*
X43275Y-45651D01*
X44798Y-45651D01*
X48070Y-48924D01*
X48070Y-49491D01*
X48024Y-49511D01*
X47911Y-49623D01*
X47850Y-49770D01*
X47850Y-49929D01*
X47911Y-50075D01*
X48023Y-50188D01*
X48170Y-50249D01*
X48329Y-50249D01*
X48475Y-50188D01*
X48588Y-50076D01*
X48649Y-49929D01*
X48649Y-49770D01*
X48588Y-49624D01*
X48476Y-49511D01*
X48429Y-49492D01*
X48429Y-48850D01*
X48429Y-48850D01*
X48429Y-48850D01*
X48415Y-48781D01*
X48376Y-48723D01*
X48376Y-48723D01*
X44999Y-45345D01*
X44941Y-45306D01*
X44872Y-45293D01*
X44872Y-45293D01*
X43275Y-45293D01*
X42883Y-45293D01*
X42841Y-45275D01*
X42883Y-45258D01*
X43275Y-45258D01*
X45004Y-45258D01*
X49070Y-49324D01*
X49070Y-49491D01*
X49024Y-49511D01*
X48911Y-49623D01*
X48850Y-49770D01*
X48850Y-49929D01*
X48911Y-50075D01*
X49023Y-50188D01*
X49170Y-50249D01*
X49329Y-50249D01*
X49475Y-50188D01*
X49588Y-50076D01*
X49649Y-49929D01*
X49649Y-49770D01*
X49588Y-49624D01*
X49476Y-49511D01*
X49429Y-49492D01*
X49429Y-49250D01*
X49429Y-49250D01*
X49429Y-49250D01*
X49415Y-49181D01*
X49376Y-49123D01*
X49376Y-49123D01*
X49376Y-49123D01*
X45205Y-44951D01*
X45147Y-44912D01*
X45078Y-44899D01*
X45078Y-44899D01*
X43275Y-44899D01*
X42883Y-44899D01*
X42841Y-44881D01*
X42883Y-44864D01*
X43275Y-44864D01*
X45210Y-44864D01*
X49940Y-49594D01*
X49911Y-49623D01*
X49850Y-49770D01*
X49850Y-49929D01*
X49911Y-50075D01*
X50023Y-50188D01*
X50170Y-50249D01*
X50329Y-50249D01*
X50475Y-50188D01*
X50588Y-50076D01*
X50649Y-49929D01*
X50649Y-49770D01*
X50588Y-49624D01*
X50476Y-49511D01*
X50329Y-49450D01*
X50304Y-49450D01*
X45411Y-44558D01*
X45353Y-44519D01*
X45285Y-44505D01*
X45285Y-44505D01*
X43275Y-44505D01*
X42883Y-44505D01*
X42841Y-44488D01*
X42883Y-44470D01*
X43275Y-44470D01*
X45417Y-44470D01*
X50273Y-49326D01*
X50273Y-49326D01*
X50273Y-49326D01*
X50331Y-49365D01*
X50400Y-49379D01*
X50400Y-49379D01*
X50400Y-49379D01*
X50825Y-49379D01*
X50990Y-49544D01*
X50911Y-49623D01*
X50850Y-49770D01*
X50850Y-49929D01*
X50911Y-50075D01*
X51023Y-50188D01*
X51170Y-50249D01*
X51329Y-50249D01*
X51475Y-50188D01*
X51588Y-50076D01*
X51649Y-49929D01*
X51649Y-49770D01*
X51588Y-49624D01*
X51476Y-49511D01*
X51416Y-49486D01*
X51415Y-49481D01*
X51376Y-49423D01*
X51376Y-49423D01*
X51376Y-49423D01*
X51026Y-49073D01*
X50968Y-49034D01*
X50900Y-49020D01*
X50899Y-49020D01*
X50474Y-49020D01*
X45618Y-44164D01*
X45559Y-44125D01*
X45491Y-44111D01*
X45491Y-44111D01*
X43760Y-44111D01*
X43760Y-43991D01*
X43760Y-43941D01*
X43760Y-43853D01*
X43760Y-43803D01*
X43760Y-43597D01*
X43760Y-43547D01*
X43760Y-43460D01*
X43760Y-43410D01*
X43760Y-43203D01*
X43760Y-43153D01*
X43760Y-43066D01*
X43760Y-43016D01*
X43748Y-42989D01*
X43727Y-42967D01*
X43699Y-42956D01*
X43670Y-42956D01*
X43319Y-42956D01*
X43300Y-42975D01*
X43300Y-43085D01*
X43741Y-43085D01*
X43760Y-43066D01*
X43760Y-43153D01*
X43741Y-43135D01*
X43300Y-43135D01*
X43300Y-43245D01*
X43319Y-43263D01*
X43670Y-43263D01*
X43699Y-43263D01*
X43727Y-43252D01*
X43748Y-43231D01*
X43760Y-43203D01*
X43760Y-43410D01*
X43748Y-43382D01*
X43727Y-43361D01*
X43699Y-43350D01*
X43670Y-43350D01*
X43319Y-43350D01*
X43300Y-43368D01*
X43300Y-43478D01*
X43741Y-43478D01*
X43760Y-43460D01*
X43760Y-43547D01*
X43741Y-43528D01*
X43300Y-43528D01*
X43300Y-43638D01*
X43319Y-43657D01*
X43670Y-43657D01*
X43699Y-43657D01*
X43727Y-43646D01*
X43748Y-43625D01*
X43760Y-43597D01*
X43760Y-43803D01*
X43748Y-43776D01*
X43727Y-43755D01*
X43699Y-43743D01*
X43670Y-43743D01*
X43319Y-43743D01*
X43300Y-43762D01*
X43300Y-43872D01*
X43741Y-43872D01*
X43760Y-43853D01*
X43760Y-43941D01*
X43741Y-43922D01*
X43300Y-43922D01*
X43300Y-44032D01*
X43319Y-44051D01*
X43670Y-44051D01*
X43699Y-44051D01*
X43727Y-44039D01*
X43748Y-44018D01*
X43760Y-43991D01*
X43760Y-44111D01*
X43275Y-44111D01*
X43272Y-44111D01*
X43272Y-41968D01*
X43272Y-41929D01*
X43272Y-41417D01*
X43257Y-41380D01*
X43229Y-41352D01*
X43193Y-41337D01*
X43153Y-41337D01*
X41814Y-41337D01*
X41778Y-41352D01*
X41750Y-41380D01*
X41735Y-41417D01*
X41735Y-41456D01*
X41735Y-41968D01*
X41750Y-42005D01*
X41778Y-42033D01*
X41814Y-42048D01*
X41854Y-42048D01*
X42256Y-42048D01*
X42202Y-42101D01*
X42148Y-42232D01*
X42148Y-42373D01*
X42202Y-42504D01*
X42302Y-42604D01*
X42432Y-42658D01*
X42574Y-42658D01*
X42704Y-42604D01*
X42804Y-42504D01*
X42859Y-42374D01*
X42859Y-42232D01*
X42805Y-42102D01*
X42751Y-42048D01*
X43193Y-42048D01*
X43229Y-42033D01*
X43257Y-42005D01*
X43272Y-41968D01*
X43272Y-44111D01*
X43250Y-44111D01*
X43250Y-44032D01*
X43250Y-43922D01*
X43250Y-43872D01*
X43250Y-43762D01*
X43250Y-43638D01*
X43250Y-43528D01*
X43250Y-43478D01*
X43250Y-43368D01*
X43250Y-43245D01*
X43250Y-43135D01*
X43250Y-43085D01*
X43250Y-42975D01*
X43231Y-42956D01*
X42881Y-42956D01*
X42851Y-42956D01*
X42823Y-42967D01*
X42802Y-42989D01*
X42791Y-43016D01*
X42791Y-43066D01*
X42809Y-43085D01*
X43250Y-43085D01*
X43250Y-43135D01*
X42809Y-43135D01*
X42791Y-43153D01*
X42791Y-43203D01*
X42802Y-43231D01*
X42823Y-43252D01*
X42851Y-43263D01*
X42881Y-43263D01*
X43231Y-43263D01*
X43250Y-43245D01*
X43250Y-43368D01*
X43231Y-43350D01*
X42881Y-43350D01*
X42851Y-43350D01*
X42823Y-43361D01*
X42802Y-43382D01*
X42791Y-43410D01*
X42791Y-43460D01*
X42809Y-43478D01*
X43250Y-43478D01*
X43250Y-43528D01*
X42809Y-43528D01*
X42791Y-43547D01*
X42791Y-43597D01*
X42802Y-43625D01*
X42823Y-43646D01*
X42851Y-43657D01*
X42881Y-43657D01*
X43231Y-43657D01*
X43250Y-43638D01*
X43250Y-43762D01*
X43231Y-43743D01*
X42881Y-43743D01*
X42851Y-43743D01*
X42823Y-43755D01*
X42802Y-43776D01*
X42791Y-43803D01*
X42791Y-43853D01*
X42809Y-43872D01*
X43250Y-43872D01*
X43250Y-43922D01*
X42809Y-43922D01*
X42791Y-43941D01*
X42791Y-43991D01*
X42802Y-44018D01*
X42823Y-44039D01*
X42851Y-44051D01*
X42881Y-44051D01*
X43231Y-44051D01*
X43250Y-44032D01*
X43250Y-44111D01*
X42883Y-44111D01*
X42835Y-44091D01*
X42755Y-44091D01*
X42682Y-44122D01*
X42626Y-44178D01*
X42595Y-44251D01*
X42595Y-44330D01*
X42626Y-44404D01*
X42682Y-44460D01*
X42749Y-44488D01*
X42682Y-44515D01*
X42626Y-44571D01*
X42595Y-44645D01*
X42595Y-44724D01*
X42626Y-44797D01*
X42682Y-44853D01*
X42749Y-44881D01*
X42682Y-44909D01*
X42626Y-44965D01*
X42595Y-45038D01*
X42595Y-45118D01*
X42626Y-45191D01*
X42682Y-45247D01*
X42749Y-45275D01*
X42682Y-45303D01*
X42626Y-45359D01*
X42595Y-45432D01*
X42595Y-45511D01*
X42626Y-45585D01*
X42682Y-45641D01*
X42749Y-45669D01*
X42682Y-45696D01*
X42626Y-45753D01*
X42595Y-45826D01*
X42595Y-45905D01*
X42626Y-45978D01*
X42682Y-46035D01*
X42749Y-46063D01*
X42682Y-46090D01*
X42626Y-46146D01*
X42595Y-46220D01*
X42595Y-46299D01*
X42626Y-46372D01*
X42682Y-46428D01*
X42749Y-46456D01*
X42682Y-46484D01*
X42626Y-46540D01*
X42595Y-46613D01*
X42595Y-46693D01*
X42626Y-46766D01*
X42682Y-46822D01*
X42749Y-46850D01*
X42682Y-46878D01*
X42626Y-46934D01*
X42595Y-47007D01*
X42595Y-47086D01*
X42626Y-47160D01*
X42682Y-47216D01*
X42749Y-47244D01*
X42682Y-47271D01*
X42626Y-47327D01*
X42595Y-47401D01*
X42595Y-47480D01*
X42626Y-47553D01*
X42682Y-47609D01*
X42755Y-47640D01*
X42834Y-47640D01*
X42883Y-47620D01*
X43089Y-47620D01*
X43092Y-47624D01*
X43490Y-48022D01*
X43490Y-49525D01*
X43476Y-49511D01*
X43329Y-49450D01*
X43272Y-49450D01*
X43272Y-49133D01*
X43272Y-49094D01*
X43272Y-48582D01*
X43257Y-48546D01*
X43229Y-48518D01*
X43193Y-48502D01*
X43153Y-48502D01*
X42751Y-48502D01*
X42804Y-48449D01*
X42859Y-48319D01*
X42859Y-48177D01*
X42805Y-48047D01*
X42705Y-47946D01*
X42574Y-47892D01*
X42433Y-47892D01*
X42302Y-47946D01*
X42216Y-48032D01*
X42216Y-47731D01*
X42216Y-47681D01*
X42216Y-47594D01*
X42216Y-47544D01*
X42216Y-47337D01*
X42216Y-47287D01*
X42216Y-47200D01*
X42216Y-47150D01*
X42205Y-47122D01*
X42184Y-47101D01*
X42156Y-47090D01*
X42126Y-47090D01*
X41776Y-47090D01*
X41757Y-47109D01*
X41757Y-47219D01*
X42197Y-47219D01*
X42216Y-47200D01*
X42216Y-47287D01*
X42197Y-47269D01*
X41757Y-47269D01*
X41757Y-47379D01*
X41776Y-47397D01*
X42126Y-47397D01*
X42156Y-47397D01*
X42184Y-47386D01*
X42205Y-47365D01*
X42216Y-47337D01*
X42216Y-47544D01*
X42205Y-47516D01*
X42184Y-47495D01*
X42156Y-47484D01*
X42126Y-47484D01*
X41776Y-47484D01*
X41757Y-47502D01*
X41757Y-47612D01*
X42197Y-47612D01*
X42216Y-47594D01*
X42216Y-47681D01*
X42197Y-47662D01*
X41757Y-47662D01*
X41757Y-47772D01*
X41776Y-47791D01*
X42126Y-47791D01*
X42156Y-47791D01*
X42184Y-47780D01*
X42205Y-47759D01*
X42216Y-47731D01*
X42216Y-48032D01*
X42202Y-48046D01*
X42148Y-48177D01*
X42148Y-48318D01*
X42202Y-48449D01*
X42256Y-48502D01*
X41814Y-48502D01*
X41778Y-48518D01*
X41750Y-48546D01*
X41735Y-48582D01*
X41735Y-48622D01*
X41735Y-49133D01*
X41750Y-49170D01*
X41778Y-49198D01*
X41814Y-49213D01*
X41854Y-49213D01*
X43193Y-49213D01*
X43229Y-49198D01*
X43257Y-49170D01*
X43272Y-49133D01*
X43272Y-49450D01*
X43170Y-49450D01*
X43024Y-49511D01*
X42911Y-49623D01*
X42850Y-49770D01*
X42850Y-49929D01*
X42911Y-50075D01*
X43023Y-50188D01*
X43052Y-50200D01*
X42700Y-50200D01*
X42649Y-50210D01*
X42007Y-50210D01*
X41339Y-49542D01*
X41339Y-48850D01*
X41339Y-48800D01*
X41339Y-47791D01*
X41688Y-47791D01*
X41707Y-47772D01*
X41707Y-47662D01*
X41699Y-47662D01*
X41699Y-47612D01*
X41707Y-47612D01*
X41707Y-47502D01*
X41688Y-47484D01*
X41339Y-47484D01*
X41339Y-47397D01*
X41688Y-47397D01*
X41707Y-47379D01*
X41707Y-47269D01*
X41699Y-47269D01*
X41699Y-47219D01*
X41707Y-47219D01*
X41707Y-47109D01*
X41688Y-47090D01*
X41339Y-47090D01*
X41339Y-47028D01*
X41342Y-47028D01*
X41725Y-47028D01*
X41732Y-47029D01*
X42156Y-47029D01*
X42204Y-47049D01*
X42283Y-47049D01*
X42356Y-47019D01*
X42413Y-46963D01*
X42443Y-46890D01*
X42443Y-46810D01*
X42413Y-46737D01*
X42357Y-46681D01*
X42289Y-46653D01*
X42356Y-46625D01*
X42413Y-46569D01*
X42443Y-46496D01*
X42443Y-46417D01*
X42413Y-46343D01*
X42357Y-46287D01*
X42289Y-46259D01*
X42356Y-46232D01*
X42413Y-46176D01*
X42443Y-46102D01*
X42443Y-46023D01*
X42413Y-45950D01*
X42357Y-45894D01*
X42289Y-45866D01*
X42356Y-45838D01*
X42413Y-45782D01*
X42443Y-45709D01*
X42443Y-45629D01*
X42413Y-45556D01*
X42357Y-45500D01*
X42289Y-45472D01*
X42356Y-45444D01*
X42413Y-45388D01*
X42443Y-45315D01*
X42443Y-45236D01*
X42413Y-45162D01*
X42357Y-45106D01*
X42289Y-45078D01*
X42356Y-45051D01*
X42413Y-44994D01*
X42443Y-44921D01*
X42443Y-44842D01*
X42413Y-44769D01*
X42357Y-44712D01*
X42289Y-44685D01*
X42356Y-44657D01*
X42413Y-44601D01*
X42443Y-44528D01*
X42443Y-44448D01*
X42413Y-44375D01*
X42357Y-44319D01*
X42289Y-44291D01*
X42356Y-44263D01*
X42413Y-44207D01*
X42443Y-44134D01*
X42443Y-44054D01*
X42413Y-43981D01*
X42357Y-43925D01*
X42289Y-43897D01*
X42356Y-43869D01*
X42413Y-43813D01*
X42443Y-43740D01*
X42443Y-43661D01*
X42413Y-43587D01*
X42357Y-43531D01*
X42289Y-43503D01*
X42356Y-43476D01*
X42413Y-43420D01*
X42443Y-43346D01*
X42443Y-43267D01*
X42413Y-43194D01*
X42357Y-43138D01*
X42289Y-43110D01*
X42356Y-43082D01*
X42413Y-43026D01*
X42443Y-42953D01*
X42443Y-42873D01*
X42413Y-42800D01*
X42357Y-42744D01*
X42283Y-42714D01*
X42204Y-42713D01*
X42156Y-42733D01*
X41918Y-42733D01*
X41915Y-42729D01*
X41359Y-42173D01*
X41359Y-41107D01*
X42757Y-39709D01*
X42944Y-39709D01*
X42990Y-39755D01*
X42990Y-40050D01*
X42930Y-40050D01*
X42893Y-40065D01*
X42865Y-40093D01*
X42850Y-40130D01*
X42850Y-40169D01*
X42850Y-40769D01*
X42865Y-40806D01*
X42893Y-40834D01*
X42930Y-40849D01*
X42969Y-40849D01*
X43569Y-40849D01*
X43606Y-40834D01*
X43634Y-40806D01*
X43649Y-40769D01*
X43649Y-40730D01*
X43649Y-40130D01*
X43634Y-40093D01*
X43606Y-40065D01*
X43569Y-40050D01*
X43530Y-40050D01*
X43509Y-40050D01*
X43509Y-39755D01*
X43555Y-39709D01*
X43944Y-39709D01*
X44023Y-39788D01*
X44170Y-39849D01*
X44329Y-39849D01*
X44475Y-39788D01*
X44588Y-39676D01*
X44649Y-39529D01*
X44649Y-39370D01*
X44588Y-39224D01*
X44476Y-39111D01*
X44329Y-39050D01*
X44170Y-39050D01*
X44024Y-39111D01*
X43944Y-39190D01*
X43555Y-39190D01*
X43476Y-39111D01*
X43329Y-39050D01*
X43170Y-39050D01*
X43024Y-39111D01*
X42944Y-39190D01*
X42650Y-39190D01*
X42650Y-39190D01*
X42550Y-39210D01*
X42466Y-39266D01*
X40916Y-40816D01*
X40860Y-40900D01*
X40840Y-41000D01*
X40840Y-42281D01*
X40860Y-42380D01*
X40916Y-42464D01*
X41236Y-42784D01*
X41223Y-42814D01*
X41223Y-42854D01*
X41223Y-43011D01*
X41238Y-43048D01*
X41266Y-43076D01*
X41303Y-43091D01*
X41342Y-43091D01*
X41543Y-43091D01*
X41548Y-43096D01*
X41552Y-43099D01*
X41552Y-43128D01*
X41303Y-43128D01*
X41266Y-43144D01*
X41238Y-43172D01*
X41223Y-43208D01*
X41223Y-43248D01*
X41223Y-43405D01*
X41238Y-43442D01*
X41266Y-43470D01*
X41303Y-43485D01*
X41342Y-43485D01*
X41552Y-43485D01*
X41552Y-43522D01*
X41303Y-43522D01*
X41266Y-43537D01*
X41238Y-43565D01*
X41223Y-43602D01*
X41223Y-43641D01*
X41223Y-43799D01*
X41238Y-43835D01*
X41266Y-43863D01*
X41303Y-43878D01*
X41342Y-43878D01*
X41725Y-43878D01*
X41732Y-43880D01*
X42156Y-43880D01*
X42198Y-43897D01*
X42156Y-43915D01*
X41732Y-43915D01*
X41725Y-43916D01*
X41303Y-43916D01*
X41266Y-43931D01*
X41242Y-43955D01*
X41205Y-43955D01*
X41205Y-43955D01*
X41152Y-43965D01*
X41134Y-43977D01*
X41106Y-43995D01*
X41106Y-43995D01*
X40121Y-44981D01*
X40091Y-45026D01*
X40080Y-45080D01*
X40080Y-45080D01*
X40080Y-45650D01*
X40080Y-49050D01*
X40080Y-50369D01*
X40080Y-50369D01*
X40091Y-50423D01*
X40121Y-50468D01*
X42151Y-52498D01*
X42151Y-52498D01*
X42151Y-52498D01*
X42196Y-52528D01*
X42250Y-52539D01*
X42250Y-52539D01*
X42250Y-52539D01*
X42649Y-52539D01*
X42700Y-52549D01*
X50700Y-52549D01*
X50757Y-52538D01*
X50805Y-52505D01*
X50830Y-52480D01*
X50880Y-52430D01*
X51155Y-52155D01*
X52093Y-51217D01*
X52170Y-51249D01*
X52329Y-51249D01*
X52475Y-51188D01*
X52588Y-51076D01*
X52649Y-50929D01*
X52649Y-50770D01*
X52649Y-55013D01*
X43350Y-55013D01*
X39474Y-51137D01*
X39474Y-39413D01*
X43350Y-35537D01*
X55074Y-35537D01*
X58950Y-39413D01*
X58950Y-51137D01*
M02*
