G04 (created by PCBNEW (2013-09-06 BZR 4312)-stable) date K 20 nov   2013 22:54:32 EET*
%MOIN*%
G04 Gerber Fmt 3.4, Leading zero omitted, Abs format*
%FSLAX34Y34*%
G01*
G70*
G90*
G04 APERTURE LIST*
%ADD10C,0.000787*%
%ADD11C,0.005000*%
%ADD12C,0.001000*%
%ADD13C,0.007874*%
%ADD14C,0.005906*%
%ADD15C,0.008000*%
%ADD16C,0.000100*%
G04 APERTURE END LIST*
G54D10*
G54D11*
X41707Y-39335D02*
X41892Y-39335D01*
X41792Y-39450D01*
X41835Y-39450D01*
X41864Y-39464D01*
X41878Y-39478D01*
X41892Y-39507D01*
X41892Y-39578D01*
X41878Y-39607D01*
X41864Y-39621D01*
X41835Y-39635D01*
X41750Y-39635D01*
X41721Y-39621D01*
X41707Y-39607D01*
X42021Y-39607D02*
X42035Y-39621D01*
X42021Y-39635D01*
X42007Y-39621D01*
X42021Y-39607D01*
X42021Y-39635D01*
X42135Y-39335D02*
X42321Y-39335D01*
X42221Y-39450D01*
X42264Y-39450D01*
X42292Y-39464D01*
X42307Y-39478D01*
X42321Y-39507D01*
X42321Y-39578D01*
X42307Y-39607D01*
X42292Y-39621D01*
X42264Y-39635D01*
X42178Y-39635D01*
X42150Y-39621D01*
X42135Y-39607D01*
X42407Y-39335D02*
X42507Y-39635D01*
X42607Y-39335D01*
X54021Y-38500D02*
X53992Y-38485D01*
X53950Y-38485D01*
X53907Y-38500D01*
X53878Y-38528D01*
X53864Y-38557D01*
X53850Y-38614D01*
X53850Y-38657D01*
X53864Y-38714D01*
X53878Y-38742D01*
X53907Y-38771D01*
X53950Y-38785D01*
X53978Y-38785D01*
X54021Y-38771D01*
X54035Y-38757D01*
X54035Y-38657D01*
X53978Y-38657D01*
X54164Y-38785D02*
X54164Y-38485D01*
X54335Y-38785D01*
X54335Y-38485D01*
X54478Y-38785D02*
X54478Y-38485D01*
X54550Y-38485D01*
X54592Y-38500D01*
X54621Y-38528D01*
X54635Y-38557D01*
X54650Y-38614D01*
X54650Y-38657D01*
X54635Y-38714D01*
X54621Y-38742D01*
X54592Y-38771D01*
X54550Y-38785D01*
X54478Y-38785D01*
X56071Y-39350D02*
X56042Y-39335D01*
X56000Y-39335D01*
X55957Y-39350D01*
X55928Y-39378D01*
X55914Y-39407D01*
X55900Y-39464D01*
X55900Y-39507D01*
X55914Y-39564D01*
X55928Y-39592D01*
X55957Y-39621D01*
X56000Y-39635D01*
X56028Y-39635D01*
X56071Y-39621D01*
X56085Y-39607D01*
X56085Y-39507D01*
X56028Y-39507D01*
X56214Y-39635D02*
X56214Y-39335D01*
X56385Y-39635D01*
X56385Y-39335D01*
X56528Y-39635D02*
X56528Y-39335D01*
X56600Y-39335D01*
X56642Y-39350D01*
X56671Y-39378D01*
X56685Y-39407D01*
X56700Y-39464D01*
X56700Y-39507D01*
X56685Y-39564D01*
X56671Y-39592D01*
X56642Y-39621D01*
X56600Y-39635D01*
X56528Y-39635D01*
X55907Y-40335D02*
X56092Y-40335D01*
X55992Y-40450D01*
X56035Y-40450D01*
X56064Y-40464D01*
X56078Y-40478D01*
X56092Y-40507D01*
X56092Y-40578D01*
X56078Y-40607D01*
X56064Y-40621D01*
X56035Y-40635D01*
X55950Y-40635D01*
X55921Y-40621D01*
X55907Y-40607D01*
X56221Y-40607D02*
X56235Y-40621D01*
X56221Y-40635D01*
X56207Y-40621D01*
X56221Y-40607D01*
X56221Y-40635D01*
X56335Y-40335D02*
X56521Y-40335D01*
X56421Y-40450D01*
X56464Y-40450D01*
X56492Y-40464D01*
X56507Y-40478D01*
X56521Y-40507D01*
X56521Y-40578D01*
X56507Y-40607D01*
X56492Y-40621D01*
X56464Y-40635D01*
X56378Y-40635D01*
X56350Y-40621D01*
X56335Y-40607D01*
X56607Y-40335D02*
X56707Y-40635D01*
X56807Y-40335D01*
X54085Y-42042D02*
X54085Y-41857D01*
X54200Y-41957D01*
X54200Y-41914D01*
X54214Y-41885D01*
X54228Y-41871D01*
X54257Y-41857D01*
X54328Y-41857D01*
X54357Y-41871D01*
X54371Y-41885D01*
X54385Y-41914D01*
X54385Y-42000D01*
X54371Y-42028D01*
X54357Y-42042D01*
X54357Y-41728D02*
X54371Y-41714D01*
X54385Y-41728D01*
X54371Y-41742D01*
X54357Y-41728D01*
X54385Y-41728D01*
X54085Y-41614D02*
X54085Y-41428D01*
X54200Y-41528D01*
X54200Y-41485D01*
X54214Y-41457D01*
X54228Y-41442D01*
X54257Y-41428D01*
X54328Y-41428D01*
X54357Y-41442D01*
X54371Y-41457D01*
X54385Y-41485D01*
X54385Y-41571D01*
X54371Y-41600D01*
X54357Y-41614D01*
X54085Y-41342D02*
X54385Y-41242D01*
X54085Y-41142D01*
X49100Y-38678D02*
X49085Y-38707D01*
X49085Y-38750D01*
X49100Y-38792D01*
X49128Y-38821D01*
X49157Y-38835D01*
X49214Y-38850D01*
X49257Y-38850D01*
X49314Y-38835D01*
X49342Y-38821D01*
X49371Y-38792D01*
X49385Y-38750D01*
X49385Y-38721D01*
X49371Y-38678D01*
X49357Y-38664D01*
X49257Y-38664D01*
X49257Y-38721D01*
X49385Y-38535D02*
X49085Y-38535D01*
X49385Y-38364D01*
X49085Y-38364D01*
X49385Y-38221D02*
X49085Y-38221D01*
X49085Y-38150D01*
X49100Y-38107D01*
X49128Y-38078D01*
X49157Y-38064D01*
X49214Y-38050D01*
X49257Y-38050D01*
X49314Y-38064D01*
X49342Y-38078D01*
X49371Y-38107D01*
X49385Y-38150D01*
X49385Y-38221D01*
X48100Y-38678D02*
X48085Y-38707D01*
X48085Y-38750D01*
X48100Y-38792D01*
X48128Y-38821D01*
X48157Y-38835D01*
X48214Y-38850D01*
X48257Y-38850D01*
X48314Y-38835D01*
X48342Y-38821D01*
X48371Y-38792D01*
X48385Y-38750D01*
X48385Y-38721D01*
X48371Y-38678D01*
X48357Y-38664D01*
X48257Y-38664D01*
X48257Y-38721D01*
X48385Y-38535D02*
X48085Y-38535D01*
X48385Y-38364D01*
X48085Y-38364D01*
X48385Y-38221D02*
X48085Y-38221D01*
X48085Y-38150D01*
X48100Y-38107D01*
X48128Y-38078D01*
X48157Y-38064D01*
X48214Y-38050D01*
X48257Y-38050D01*
X48314Y-38064D01*
X48342Y-38078D01*
X48371Y-38107D01*
X48385Y-38150D01*
X48385Y-38221D01*
X47100Y-38678D02*
X47085Y-38707D01*
X47085Y-38750D01*
X47100Y-38792D01*
X47128Y-38821D01*
X47157Y-38835D01*
X47214Y-38850D01*
X47257Y-38850D01*
X47314Y-38835D01*
X47342Y-38821D01*
X47371Y-38792D01*
X47385Y-38750D01*
X47385Y-38721D01*
X47371Y-38678D01*
X47357Y-38664D01*
X47257Y-38664D01*
X47257Y-38721D01*
X47385Y-38535D02*
X47085Y-38535D01*
X47385Y-38364D01*
X47085Y-38364D01*
X47385Y-38221D02*
X47085Y-38221D01*
X47085Y-38150D01*
X47100Y-38107D01*
X47128Y-38078D01*
X47157Y-38064D01*
X47214Y-38050D01*
X47257Y-38050D01*
X47314Y-38064D01*
X47342Y-38078D01*
X47371Y-38107D01*
X47385Y-38150D01*
X47385Y-38221D01*
X46100Y-38678D02*
X46085Y-38707D01*
X46085Y-38750D01*
X46100Y-38792D01*
X46128Y-38821D01*
X46157Y-38835D01*
X46214Y-38850D01*
X46257Y-38850D01*
X46314Y-38835D01*
X46342Y-38821D01*
X46371Y-38792D01*
X46385Y-38750D01*
X46385Y-38721D01*
X46371Y-38678D01*
X46357Y-38664D01*
X46257Y-38664D01*
X46257Y-38721D01*
X46385Y-38535D02*
X46085Y-38535D01*
X46385Y-38364D01*
X46085Y-38364D01*
X46385Y-38221D02*
X46085Y-38221D01*
X46085Y-38150D01*
X46100Y-38107D01*
X46128Y-38078D01*
X46157Y-38064D01*
X46214Y-38050D01*
X46257Y-38050D01*
X46314Y-38064D01*
X46342Y-38078D01*
X46371Y-38107D01*
X46385Y-38150D01*
X46385Y-38221D01*
X45100Y-38678D02*
X45085Y-38707D01*
X45085Y-38750D01*
X45100Y-38792D01*
X45128Y-38821D01*
X45157Y-38835D01*
X45214Y-38850D01*
X45257Y-38850D01*
X45314Y-38835D01*
X45342Y-38821D01*
X45371Y-38792D01*
X45385Y-38750D01*
X45385Y-38721D01*
X45371Y-38678D01*
X45357Y-38664D01*
X45257Y-38664D01*
X45257Y-38721D01*
X45385Y-38535D02*
X45085Y-38535D01*
X45385Y-38364D01*
X45085Y-38364D01*
X45385Y-38221D02*
X45085Y-38221D01*
X45085Y-38150D01*
X45100Y-38107D01*
X45128Y-38078D01*
X45157Y-38064D01*
X45214Y-38050D01*
X45257Y-38050D01*
X45314Y-38064D01*
X45342Y-38078D01*
X45371Y-38107D01*
X45385Y-38150D01*
X45385Y-38221D01*
X43857Y-38485D02*
X44042Y-38485D01*
X43942Y-38600D01*
X43985Y-38600D01*
X44014Y-38614D01*
X44028Y-38628D01*
X44042Y-38657D01*
X44042Y-38728D01*
X44028Y-38757D01*
X44014Y-38771D01*
X43985Y-38785D01*
X43900Y-38785D01*
X43871Y-38771D01*
X43857Y-38757D01*
X44171Y-38757D02*
X44185Y-38771D01*
X44171Y-38785D01*
X44157Y-38771D01*
X44171Y-38757D01*
X44171Y-38785D01*
X44285Y-38485D02*
X44471Y-38485D01*
X44371Y-38600D01*
X44414Y-38600D01*
X44442Y-38614D01*
X44457Y-38628D01*
X44471Y-38657D01*
X44471Y-38728D01*
X44457Y-38757D01*
X44442Y-38771D01*
X44414Y-38785D01*
X44328Y-38785D01*
X44300Y-38771D01*
X44285Y-38757D01*
X44557Y-38485D02*
X44657Y-38785D01*
X44757Y-38485D01*
X41707Y-40335D02*
X41892Y-40335D01*
X41792Y-40450D01*
X41835Y-40450D01*
X41864Y-40464D01*
X41878Y-40478D01*
X41892Y-40507D01*
X41892Y-40578D01*
X41878Y-40607D01*
X41864Y-40621D01*
X41835Y-40635D01*
X41750Y-40635D01*
X41721Y-40621D01*
X41707Y-40607D01*
X42021Y-40607D02*
X42035Y-40621D01*
X42021Y-40635D01*
X42007Y-40621D01*
X42021Y-40607D01*
X42021Y-40635D01*
X42135Y-40335D02*
X42321Y-40335D01*
X42221Y-40450D01*
X42264Y-40450D01*
X42292Y-40464D01*
X42307Y-40478D01*
X42321Y-40507D01*
X42321Y-40578D01*
X42307Y-40607D01*
X42292Y-40621D01*
X42264Y-40635D01*
X42178Y-40635D01*
X42150Y-40621D01*
X42135Y-40607D01*
X42407Y-40335D02*
X42507Y-40635D01*
X42607Y-40335D01*
X50085Y-38800D02*
X50085Y-38628D01*
X50385Y-38714D02*
X50085Y-38714D01*
X50085Y-38557D02*
X50385Y-38357D01*
X50085Y-38357D02*
X50385Y-38557D01*
X50300Y-38257D02*
X50300Y-38114D01*
X50385Y-38285D02*
X50085Y-38185D01*
X50385Y-38085D01*
X50385Y-37828D02*
X50385Y-38000D01*
X50385Y-37914D02*
X50085Y-37914D01*
X50128Y-37942D01*
X50157Y-37971D01*
X50171Y-38000D01*
X51385Y-38621D02*
X51242Y-38721D01*
X51385Y-38792D02*
X51085Y-38792D01*
X51085Y-38678D01*
X51100Y-38649D01*
X51114Y-38635D01*
X51142Y-38621D01*
X51185Y-38621D01*
X51214Y-38635D01*
X51228Y-38649D01*
X51242Y-38678D01*
X51242Y-38792D01*
X51085Y-38521D02*
X51385Y-38321D01*
X51085Y-38321D02*
X51385Y-38521D01*
X51300Y-38221D02*
X51300Y-38078D01*
X51385Y-38250D02*
X51085Y-38150D01*
X51385Y-38050D01*
X51385Y-37792D02*
X51385Y-37964D01*
X51385Y-37878D02*
X51085Y-37878D01*
X51128Y-37907D01*
X51157Y-37935D01*
X51171Y-37964D01*
X52185Y-38657D02*
X52385Y-38657D01*
X52071Y-38728D02*
X52285Y-38799D01*
X52285Y-38614D01*
X52357Y-38499D02*
X52371Y-38485D01*
X52385Y-38499D01*
X52371Y-38514D01*
X52357Y-38499D01*
X52385Y-38499D01*
X52085Y-38385D02*
X52085Y-38185D01*
X52385Y-38314D01*
X53185Y-38657D02*
X53385Y-38657D01*
X53071Y-38728D02*
X53285Y-38799D01*
X53285Y-38614D01*
X53357Y-38499D02*
X53371Y-38485D01*
X53385Y-38499D01*
X53371Y-38514D01*
X53357Y-38499D01*
X53385Y-38499D01*
X53085Y-38228D02*
X53085Y-38285D01*
X53100Y-38314D01*
X53114Y-38328D01*
X53157Y-38357D01*
X53214Y-38371D01*
X53328Y-38371D01*
X53357Y-38357D01*
X53371Y-38342D01*
X53385Y-38314D01*
X53385Y-38257D01*
X53371Y-38228D01*
X53357Y-38214D01*
X53328Y-38200D01*
X53257Y-38200D01*
X53228Y-38214D01*
X53214Y-38228D01*
X53200Y-38257D01*
X53200Y-38314D01*
X53214Y-38342D01*
X53228Y-38357D01*
X53257Y-38371D01*
X44357Y-42200D02*
X44371Y-42214D01*
X44385Y-42257D01*
X44385Y-42285D01*
X44371Y-42328D01*
X44342Y-42357D01*
X44314Y-42371D01*
X44257Y-42385D01*
X44214Y-42385D01*
X44157Y-42371D01*
X44128Y-42357D01*
X44100Y-42328D01*
X44085Y-42285D01*
X44085Y-42257D01*
X44100Y-42214D01*
X44114Y-42200D01*
X44385Y-41928D02*
X44385Y-42071D01*
X44085Y-42071D01*
X44385Y-41828D02*
X44085Y-41828D01*
X44385Y-41657D02*
X44214Y-41785D01*
X44085Y-41657D02*
X44257Y-41828D01*
X44300Y-41542D02*
X44300Y-41400D01*
X44385Y-41571D02*
X44085Y-41471D01*
X44385Y-41371D01*
X44085Y-41214D02*
X44085Y-41185D01*
X44100Y-41157D01*
X44114Y-41142D01*
X44142Y-41128D01*
X44200Y-41114D01*
X44271Y-41114D01*
X44328Y-41128D01*
X44357Y-41142D01*
X44371Y-41157D01*
X44385Y-41185D01*
X44385Y-41214D01*
X44371Y-41242D01*
X44357Y-41257D01*
X44328Y-41271D01*
X44271Y-41285D01*
X44200Y-41285D01*
X44142Y-41271D01*
X44114Y-41257D01*
X44100Y-41242D01*
X44085Y-41214D01*
X45371Y-42407D02*
X45385Y-42364D01*
X45385Y-42292D01*
X45371Y-42264D01*
X45357Y-42249D01*
X45328Y-42235D01*
X45300Y-42235D01*
X45271Y-42249D01*
X45257Y-42264D01*
X45242Y-42292D01*
X45228Y-42349D01*
X45214Y-42378D01*
X45200Y-42392D01*
X45171Y-42407D01*
X45142Y-42407D01*
X45114Y-42392D01*
X45100Y-42378D01*
X45085Y-42349D01*
X45085Y-42278D01*
X45100Y-42235D01*
X45385Y-42107D02*
X45085Y-42107D01*
X45085Y-42035D01*
X45100Y-41992D01*
X45128Y-41964D01*
X45157Y-41950D01*
X45214Y-41935D01*
X45257Y-41935D01*
X45314Y-41950D01*
X45342Y-41964D01*
X45371Y-41992D01*
X45385Y-42035D01*
X45385Y-42107D01*
X45300Y-41821D02*
X45300Y-41678D01*
X45385Y-41850D02*
X45085Y-41750D01*
X45385Y-41650D01*
X45228Y-41449D02*
X45242Y-41407D01*
X45257Y-41392D01*
X45285Y-41378D01*
X45328Y-41378D01*
X45357Y-41392D01*
X45371Y-41407D01*
X45385Y-41435D01*
X45385Y-41549D01*
X45085Y-41549D01*
X45085Y-41449D01*
X45100Y-41421D01*
X45114Y-41407D01*
X45142Y-41392D01*
X45171Y-41392D01*
X45200Y-41407D01*
X45214Y-41421D01*
X45228Y-41449D01*
X45228Y-41549D01*
X45085Y-41192D02*
X45085Y-41164D01*
X45100Y-41135D01*
X45114Y-41121D01*
X45142Y-41107D01*
X45200Y-41092D01*
X45271Y-41092D01*
X45328Y-41107D01*
X45357Y-41121D01*
X45371Y-41135D01*
X45385Y-41164D01*
X45385Y-41192D01*
X45371Y-41221D01*
X45357Y-41235D01*
X45328Y-41249D01*
X45271Y-41264D01*
X45200Y-41264D01*
X45142Y-41249D01*
X45114Y-41235D01*
X45100Y-41221D01*
X45085Y-41192D01*
X46371Y-42399D02*
X46385Y-42357D01*
X46385Y-42285D01*
X46371Y-42257D01*
X46357Y-42242D01*
X46328Y-42228D01*
X46300Y-42228D01*
X46271Y-42242D01*
X46257Y-42257D01*
X46242Y-42285D01*
X46228Y-42342D01*
X46214Y-42371D01*
X46200Y-42385D01*
X46171Y-42399D01*
X46142Y-42399D01*
X46114Y-42385D01*
X46100Y-42371D01*
X46085Y-42342D01*
X46085Y-42271D01*
X46100Y-42228D01*
X46357Y-41928D02*
X46371Y-41942D01*
X46385Y-41985D01*
X46385Y-42014D01*
X46371Y-42057D01*
X46342Y-42085D01*
X46314Y-42099D01*
X46257Y-42114D01*
X46214Y-42114D01*
X46157Y-42099D01*
X46128Y-42085D01*
X46100Y-42057D01*
X46085Y-42014D01*
X46085Y-41985D01*
X46100Y-41942D01*
X46114Y-41928D01*
X46385Y-41657D02*
X46385Y-41799D01*
X46085Y-41799D01*
X46228Y-41457D02*
X46242Y-41414D01*
X46257Y-41400D01*
X46285Y-41385D01*
X46328Y-41385D01*
X46357Y-41400D01*
X46371Y-41414D01*
X46385Y-41442D01*
X46385Y-41557D01*
X46085Y-41557D01*
X46085Y-41457D01*
X46100Y-41428D01*
X46114Y-41414D01*
X46142Y-41400D01*
X46171Y-41400D01*
X46200Y-41414D01*
X46214Y-41428D01*
X46228Y-41457D01*
X46228Y-41557D01*
X46085Y-41200D02*
X46085Y-41171D01*
X46100Y-41142D01*
X46114Y-41128D01*
X46142Y-41114D01*
X46200Y-41100D01*
X46271Y-41100D01*
X46328Y-41114D01*
X46357Y-41128D01*
X46371Y-41142D01*
X46385Y-41171D01*
X46385Y-41200D01*
X46371Y-41228D01*
X46357Y-41242D01*
X46328Y-41257D01*
X46271Y-41271D01*
X46200Y-41271D01*
X46142Y-41257D01*
X46114Y-41242D01*
X46100Y-41228D01*
X46085Y-41200D01*
X47371Y-42307D02*
X47385Y-42264D01*
X47385Y-42192D01*
X47371Y-42164D01*
X47357Y-42149D01*
X47328Y-42135D01*
X47300Y-42135D01*
X47271Y-42149D01*
X47257Y-42164D01*
X47242Y-42192D01*
X47228Y-42249D01*
X47214Y-42278D01*
X47200Y-42292D01*
X47171Y-42307D01*
X47142Y-42307D01*
X47114Y-42292D01*
X47100Y-42278D01*
X47085Y-42249D01*
X47085Y-42178D01*
X47100Y-42135D01*
X47085Y-42050D02*
X47085Y-41878D01*
X47385Y-41964D02*
X47085Y-41964D01*
X47228Y-41778D02*
X47228Y-41678D01*
X47385Y-41635D02*
X47385Y-41778D01*
X47085Y-41778D01*
X47085Y-41635D01*
X47300Y-41521D02*
X47300Y-41378D01*
X47385Y-41550D02*
X47085Y-41450D01*
X47385Y-41350D01*
X47085Y-41192D02*
X47085Y-41164D01*
X47100Y-41135D01*
X47114Y-41121D01*
X47142Y-41107D01*
X47200Y-41092D01*
X47271Y-41092D01*
X47328Y-41107D01*
X47357Y-41121D01*
X47371Y-41135D01*
X47385Y-41164D01*
X47385Y-41192D01*
X47371Y-41221D01*
X47357Y-41235D01*
X47328Y-41249D01*
X47271Y-41264D01*
X47200Y-41264D01*
X47142Y-41249D01*
X47114Y-41235D01*
X47100Y-41221D01*
X47085Y-41192D01*
X48385Y-42592D02*
X48085Y-42592D01*
X48300Y-42492D01*
X48085Y-42392D01*
X48385Y-42392D01*
X48085Y-42192D02*
X48085Y-42135D01*
X48100Y-42107D01*
X48128Y-42078D01*
X48185Y-42064D01*
X48285Y-42064D01*
X48342Y-42078D01*
X48371Y-42107D01*
X48385Y-42135D01*
X48385Y-42192D01*
X48371Y-42221D01*
X48342Y-42249D01*
X48285Y-42264D01*
X48185Y-42264D01*
X48128Y-42249D01*
X48100Y-42221D01*
X48085Y-42192D01*
X48371Y-41949D02*
X48385Y-41907D01*
X48385Y-41835D01*
X48371Y-41807D01*
X48357Y-41792D01*
X48328Y-41778D01*
X48300Y-41778D01*
X48271Y-41792D01*
X48257Y-41807D01*
X48242Y-41835D01*
X48228Y-41892D01*
X48214Y-41921D01*
X48200Y-41935D01*
X48171Y-41949D01*
X48142Y-41949D01*
X48114Y-41935D01*
X48100Y-41921D01*
X48085Y-41892D01*
X48085Y-41821D01*
X48100Y-41778D01*
X48385Y-41649D02*
X48085Y-41649D01*
X48300Y-41521D02*
X48300Y-41378D01*
X48385Y-41550D02*
X48085Y-41450D01*
X48385Y-41350D01*
X48085Y-41192D02*
X48085Y-41164D01*
X48100Y-41135D01*
X48114Y-41121D01*
X48142Y-41107D01*
X48200Y-41092D01*
X48271Y-41092D01*
X48328Y-41107D01*
X48357Y-41121D01*
X48371Y-41135D01*
X48385Y-41164D01*
X48385Y-41192D01*
X48371Y-41221D01*
X48357Y-41235D01*
X48328Y-41249D01*
X48271Y-41264D01*
X48200Y-41264D01*
X48142Y-41249D01*
X48114Y-41235D01*
X48100Y-41221D01*
X48085Y-41192D01*
X49385Y-42592D02*
X49085Y-42592D01*
X49300Y-42492D01*
X49085Y-42392D01*
X49385Y-42392D01*
X49385Y-42249D02*
X49085Y-42249D01*
X49371Y-42121D02*
X49385Y-42078D01*
X49385Y-42007D01*
X49371Y-41978D01*
X49357Y-41964D01*
X49328Y-41950D01*
X49300Y-41950D01*
X49271Y-41964D01*
X49257Y-41978D01*
X49242Y-42007D01*
X49228Y-42064D01*
X49214Y-42092D01*
X49200Y-42107D01*
X49171Y-42121D01*
X49142Y-42121D01*
X49114Y-42107D01*
X49100Y-42092D01*
X49085Y-42064D01*
X49085Y-41992D01*
X49100Y-41950D01*
X49085Y-41764D02*
X49085Y-41707D01*
X49100Y-41678D01*
X49128Y-41650D01*
X49185Y-41635D01*
X49285Y-41635D01*
X49342Y-41650D01*
X49371Y-41678D01*
X49385Y-41707D01*
X49385Y-41764D01*
X49371Y-41792D01*
X49342Y-41821D01*
X49285Y-41835D01*
X49185Y-41835D01*
X49128Y-41821D01*
X49100Y-41792D01*
X49085Y-41764D01*
X49300Y-41521D02*
X49300Y-41378D01*
X49385Y-41550D02*
X49085Y-41450D01*
X49385Y-41350D01*
X49085Y-41192D02*
X49085Y-41164D01*
X49100Y-41135D01*
X49114Y-41121D01*
X49142Y-41107D01*
X49200Y-41092D01*
X49271Y-41092D01*
X49328Y-41107D01*
X49357Y-41121D01*
X49371Y-41135D01*
X49385Y-41164D01*
X49385Y-41192D01*
X49371Y-41221D01*
X49357Y-41235D01*
X49328Y-41249D01*
X49271Y-41264D01*
X49200Y-41264D01*
X49142Y-41249D01*
X49114Y-41235D01*
X49100Y-41221D01*
X49085Y-41192D01*
X50371Y-42328D02*
X50385Y-42285D01*
X50385Y-42214D01*
X50371Y-42185D01*
X50357Y-42171D01*
X50328Y-42157D01*
X50300Y-42157D01*
X50271Y-42171D01*
X50257Y-42185D01*
X50242Y-42214D01*
X50228Y-42271D01*
X50214Y-42300D01*
X50200Y-42314D01*
X50171Y-42328D01*
X50142Y-42328D01*
X50114Y-42314D01*
X50100Y-42300D01*
X50085Y-42271D01*
X50085Y-42200D01*
X50100Y-42157D01*
X50085Y-42071D02*
X50085Y-41900D01*
X50385Y-41985D02*
X50085Y-41985D01*
X50228Y-41800D02*
X50228Y-41700D01*
X50385Y-41657D02*
X50385Y-41800D01*
X50085Y-41800D01*
X50085Y-41657D01*
X50228Y-41428D02*
X50242Y-41385D01*
X50257Y-41371D01*
X50285Y-41357D01*
X50328Y-41357D01*
X50357Y-41371D01*
X50371Y-41385D01*
X50385Y-41414D01*
X50385Y-41528D01*
X50085Y-41528D01*
X50085Y-41428D01*
X50100Y-41400D01*
X50114Y-41385D01*
X50142Y-41371D01*
X50171Y-41371D01*
X50200Y-41385D01*
X50214Y-41400D01*
X50228Y-41428D01*
X50228Y-41528D01*
X50385Y-41071D02*
X50385Y-41242D01*
X50385Y-41157D02*
X50085Y-41157D01*
X50128Y-41185D01*
X50157Y-41214D01*
X50171Y-41242D01*
X51385Y-42614D02*
X51085Y-42614D01*
X51300Y-42514D01*
X51085Y-42414D01*
X51385Y-42414D01*
X51085Y-42214D02*
X51085Y-42157D01*
X51100Y-42128D01*
X51128Y-42100D01*
X51185Y-42085D01*
X51285Y-42085D01*
X51342Y-42100D01*
X51371Y-42128D01*
X51385Y-42157D01*
X51385Y-42214D01*
X51371Y-42242D01*
X51342Y-42271D01*
X51285Y-42285D01*
X51185Y-42285D01*
X51128Y-42271D01*
X51100Y-42242D01*
X51085Y-42214D01*
X51371Y-41971D02*
X51385Y-41928D01*
X51385Y-41857D01*
X51371Y-41828D01*
X51357Y-41814D01*
X51328Y-41800D01*
X51300Y-41800D01*
X51271Y-41814D01*
X51257Y-41828D01*
X51242Y-41857D01*
X51228Y-41914D01*
X51214Y-41942D01*
X51200Y-41957D01*
X51171Y-41971D01*
X51142Y-41971D01*
X51114Y-41957D01*
X51100Y-41942D01*
X51085Y-41914D01*
X51085Y-41842D01*
X51100Y-41800D01*
X51385Y-41671D02*
X51085Y-41671D01*
X51228Y-41428D02*
X51242Y-41385D01*
X51257Y-41371D01*
X51285Y-41357D01*
X51328Y-41357D01*
X51357Y-41371D01*
X51371Y-41385D01*
X51385Y-41414D01*
X51385Y-41528D01*
X51085Y-41528D01*
X51085Y-41428D01*
X51100Y-41400D01*
X51114Y-41385D01*
X51142Y-41371D01*
X51171Y-41371D01*
X51200Y-41385D01*
X51214Y-41400D01*
X51228Y-41428D01*
X51228Y-41528D01*
X51385Y-41071D02*
X51385Y-41242D01*
X51385Y-41157D02*
X51085Y-41157D01*
X51128Y-41185D01*
X51157Y-41214D01*
X51171Y-41242D01*
X52385Y-42614D02*
X52085Y-42614D01*
X52300Y-42514D01*
X52085Y-42414D01*
X52385Y-42414D01*
X52385Y-42271D02*
X52085Y-42271D01*
X52371Y-42142D02*
X52385Y-42100D01*
X52385Y-42028D01*
X52371Y-42000D01*
X52357Y-41985D01*
X52328Y-41971D01*
X52300Y-41971D01*
X52271Y-41985D01*
X52257Y-42000D01*
X52242Y-42028D01*
X52228Y-42085D01*
X52214Y-42114D01*
X52200Y-42128D01*
X52171Y-42142D01*
X52142Y-42142D01*
X52114Y-42128D01*
X52100Y-42114D01*
X52085Y-42085D01*
X52085Y-42014D01*
X52100Y-41971D01*
X52085Y-41785D02*
X52085Y-41728D01*
X52100Y-41700D01*
X52128Y-41671D01*
X52185Y-41657D01*
X52285Y-41657D01*
X52342Y-41671D01*
X52371Y-41700D01*
X52385Y-41728D01*
X52385Y-41785D01*
X52371Y-41814D01*
X52342Y-41842D01*
X52285Y-41857D01*
X52185Y-41857D01*
X52128Y-41842D01*
X52100Y-41814D01*
X52085Y-41785D01*
X52228Y-41428D02*
X52242Y-41385D01*
X52257Y-41371D01*
X52285Y-41357D01*
X52328Y-41357D01*
X52357Y-41371D01*
X52371Y-41385D01*
X52385Y-41414D01*
X52385Y-41528D01*
X52085Y-41528D01*
X52085Y-41428D01*
X52100Y-41400D01*
X52114Y-41385D01*
X52142Y-41371D01*
X52171Y-41371D01*
X52200Y-41385D01*
X52214Y-41400D01*
X52228Y-41428D01*
X52228Y-41528D01*
X52385Y-41071D02*
X52385Y-41242D01*
X52385Y-41157D02*
X52085Y-41157D01*
X52128Y-41185D01*
X52157Y-41214D01*
X52171Y-41242D01*
X53357Y-42271D02*
X53371Y-42285D01*
X53385Y-42328D01*
X53385Y-42357D01*
X53371Y-42399D01*
X53342Y-42428D01*
X53314Y-42442D01*
X53257Y-42457D01*
X53214Y-42457D01*
X53157Y-42442D01*
X53128Y-42428D01*
X53100Y-42399D01*
X53085Y-42357D01*
X53085Y-42328D01*
X53100Y-42285D01*
X53114Y-42271D01*
X53385Y-41999D02*
X53385Y-42142D01*
X53085Y-42142D01*
X53385Y-41899D02*
X53085Y-41899D01*
X53385Y-41728D02*
X53214Y-41857D01*
X53085Y-41728D02*
X53257Y-41899D01*
X53228Y-41499D02*
X53242Y-41457D01*
X53257Y-41442D01*
X53285Y-41428D01*
X53328Y-41428D01*
X53357Y-41442D01*
X53371Y-41457D01*
X53385Y-41485D01*
X53385Y-41599D01*
X53085Y-41599D01*
X53085Y-41499D01*
X53100Y-41471D01*
X53114Y-41457D01*
X53142Y-41442D01*
X53171Y-41442D01*
X53200Y-41457D01*
X53214Y-41471D01*
X53228Y-41499D01*
X53228Y-41599D01*
X53385Y-41142D02*
X53385Y-41314D01*
X53385Y-41228D02*
X53085Y-41228D01*
X53128Y-41257D01*
X53157Y-41285D01*
X53171Y-41314D01*
X41971Y-50700D02*
X41942Y-50685D01*
X41900Y-50685D01*
X41857Y-50700D01*
X41828Y-50728D01*
X41814Y-50757D01*
X41800Y-50814D01*
X41800Y-50857D01*
X41814Y-50914D01*
X41828Y-50942D01*
X41857Y-50971D01*
X41900Y-50985D01*
X41928Y-50985D01*
X41971Y-50971D01*
X41985Y-50957D01*
X41985Y-50857D01*
X41928Y-50857D01*
X42114Y-50985D02*
X42114Y-50685D01*
X42285Y-50985D01*
X42285Y-50685D01*
X42428Y-50985D02*
X42428Y-50685D01*
X42500Y-50685D01*
X42542Y-50700D01*
X42571Y-50728D01*
X42585Y-50757D01*
X42600Y-50814D01*
X42600Y-50857D01*
X42585Y-50914D01*
X42571Y-50942D01*
X42542Y-50971D01*
X42500Y-50985D01*
X42428Y-50985D01*
X41707Y-49735D02*
X41892Y-49735D01*
X41792Y-49850D01*
X41835Y-49850D01*
X41864Y-49864D01*
X41878Y-49878D01*
X41892Y-49907D01*
X41892Y-49978D01*
X41878Y-50007D01*
X41864Y-50021D01*
X41835Y-50035D01*
X41750Y-50035D01*
X41721Y-50021D01*
X41707Y-50007D01*
X42021Y-50007D02*
X42035Y-50021D01*
X42021Y-50035D01*
X42007Y-50021D01*
X42021Y-50007D01*
X42021Y-50035D01*
X42135Y-49735D02*
X42321Y-49735D01*
X42221Y-49850D01*
X42264Y-49850D01*
X42292Y-49864D01*
X42307Y-49878D01*
X42321Y-49907D01*
X42321Y-49978D01*
X42307Y-50007D01*
X42292Y-50021D01*
X42264Y-50035D01*
X42178Y-50035D01*
X42150Y-50021D01*
X42135Y-50007D01*
X42407Y-49735D02*
X42507Y-50035D01*
X42607Y-49735D01*
X43307Y-48935D02*
X43492Y-48935D01*
X43392Y-49050D01*
X43435Y-49050D01*
X43464Y-49064D01*
X43478Y-49078D01*
X43492Y-49107D01*
X43492Y-49178D01*
X43478Y-49207D01*
X43464Y-49221D01*
X43435Y-49235D01*
X43350Y-49235D01*
X43321Y-49221D01*
X43307Y-49207D01*
X43621Y-49207D02*
X43635Y-49221D01*
X43621Y-49235D01*
X43607Y-49221D01*
X43621Y-49207D01*
X43621Y-49235D01*
X43735Y-48935D02*
X43921Y-48935D01*
X43821Y-49050D01*
X43864Y-49050D01*
X43892Y-49064D01*
X43907Y-49078D01*
X43921Y-49107D01*
X43921Y-49178D01*
X43907Y-49207D01*
X43892Y-49221D01*
X43864Y-49235D01*
X43778Y-49235D01*
X43750Y-49221D01*
X43735Y-49207D01*
X44007Y-48935D02*
X44107Y-49235D01*
X44207Y-48935D01*
X43100Y-52128D02*
X43085Y-52157D01*
X43085Y-52200D01*
X43100Y-52242D01*
X43128Y-52271D01*
X43157Y-52285D01*
X43214Y-52300D01*
X43257Y-52300D01*
X43314Y-52285D01*
X43342Y-52271D01*
X43371Y-52242D01*
X43385Y-52200D01*
X43385Y-52171D01*
X43371Y-52128D01*
X43357Y-52114D01*
X43257Y-52114D01*
X43257Y-52171D01*
X43385Y-51985D02*
X43085Y-51985D01*
X43385Y-51814D01*
X43085Y-51814D01*
X43385Y-51671D02*
X43085Y-51671D01*
X43085Y-51600D01*
X43100Y-51557D01*
X43128Y-51528D01*
X43157Y-51514D01*
X43214Y-51500D01*
X43257Y-51500D01*
X43314Y-51514D01*
X43342Y-51528D01*
X43371Y-51557D01*
X43385Y-51600D01*
X43385Y-51671D01*
X44100Y-52128D02*
X44085Y-52157D01*
X44085Y-52200D01*
X44100Y-52242D01*
X44128Y-52271D01*
X44157Y-52285D01*
X44214Y-52300D01*
X44257Y-52300D01*
X44314Y-52285D01*
X44342Y-52271D01*
X44371Y-52242D01*
X44385Y-52200D01*
X44385Y-52171D01*
X44371Y-52128D01*
X44357Y-52114D01*
X44257Y-52114D01*
X44257Y-52171D01*
X44385Y-51985D02*
X44085Y-51985D01*
X44385Y-51814D01*
X44085Y-51814D01*
X44385Y-51671D02*
X44085Y-51671D01*
X44085Y-51600D01*
X44100Y-51557D01*
X44128Y-51528D01*
X44157Y-51514D01*
X44214Y-51500D01*
X44257Y-51500D01*
X44314Y-51514D01*
X44342Y-51528D01*
X44371Y-51557D01*
X44385Y-51600D01*
X44385Y-51671D01*
X52121Y-51885D02*
X51950Y-51885D01*
X52035Y-51885D02*
X52035Y-51585D01*
X52007Y-51628D01*
X51978Y-51657D01*
X51950Y-51671D01*
X52250Y-51857D02*
X52264Y-51871D01*
X52250Y-51885D01*
X52235Y-51871D01*
X52250Y-51857D01*
X52250Y-51885D01*
X52364Y-51585D02*
X52564Y-51585D01*
X52435Y-51885D01*
X51121Y-51885D02*
X50950Y-51885D01*
X51035Y-51885D02*
X51035Y-51585D01*
X51007Y-51628D01*
X50978Y-51657D01*
X50950Y-51671D01*
X51250Y-51857D02*
X51264Y-51871D01*
X51250Y-51885D01*
X51235Y-51871D01*
X51250Y-51857D01*
X51250Y-51885D01*
X51521Y-51585D02*
X51464Y-51585D01*
X51435Y-51600D01*
X51421Y-51614D01*
X51392Y-51657D01*
X51378Y-51714D01*
X51378Y-51828D01*
X51392Y-51857D01*
X51407Y-51871D01*
X51435Y-51885D01*
X51492Y-51885D01*
X51521Y-51871D01*
X51535Y-51857D01*
X51550Y-51828D01*
X51550Y-51757D01*
X51535Y-51728D01*
X51521Y-51714D01*
X51492Y-51700D01*
X51435Y-51700D01*
X51407Y-51714D01*
X51392Y-51728D01*
X51378Y-51757D01*
X50121Y-51885D02*
X49950Y-51885D01*
X50035Y-51885D02*
X50035Y-51585D01*
X50007Y-51628D01*
X49978Y-51657D01*
X49950Y-51671D01*
X50250Y-51857D02*
X50264Y-51871D01*
X50250Y-51885D01*
X50235Y-51871D01*
X50250Y-51857D01*
X50250Y-51885D01*
X50535Y-51585D02*
X50392Y-51585D01*
X50378Y-51728D01*
X50392Y-51714D01*
X50421Y-51700D01*
X50492Y-51700D01*
X50521Y-51714D01*
X50535Y-51728D01*
X50550Y-51757D01*
X50550Y-51828D01*
X50535Y-51857D01*
X50521Y-51871D01*
X50492Y-51885D01*
X50421Y-51885D01*
X50392Y-51871D01*
X50378Y-51857D01*
X49121Y-51885D02*
X48950Y-51885D01*
X49035Y-51885D02*
X49035Y-51585D01*
X49007Y-51628D01*
X48978Y-51657D01*
X48950Y-51671D01*
X49250Y-51857D02*
X49264Y-51871D01*
X49250Y-51885D01*
X49235Y-51871D01*
X49250Y-51857D01*
X49250Y-51885D01*
X49521Y-51685D02*
X49521Y-51885D01*
X49450Y-51571D02*
X49378Y-51785D01*
X49564Y-51785D01*
X48121Y-51885D02*
X47950Y-51885D01*
X48035Y-51885D02*
X48035Y-51585D01*
X48007Y-51628D01*
X47978Y-51657D01*
X47950Y-51671D01*
X48250Y-51857D02*
X48264Y-51871D01*
X48250Y-51885D01*
X48235Y-51871D01*
X48250Y-51857D01*
X48250Y-51885D01*
X48364Y-51585D02*
X48550Y-51585D01*
X48450Y-51700D01*
X48492Y-51700D01*
X48521Y-51714D01*
X48535Y-51728D01*
X48550Y-51757D01*
X48550Y-51828D01*
X48535Y-51857D01*
X48521Y-51871D01*
X48492Y-51885D01*
X48407Y-51885D01*
X48378Y-51871D01*
X48364Y-51857D01*
X47121Y-51885D02*
X46950Y-51885D01*
X47035Y-51885D02*
X47035Y-51585D01*
X47007Y-51628D01*
X46978Y-51657D01*
X46950Y-51671D01*
X47250Y-51857D02*
X47264Y-51871D01*
X47250Y-51885D01*
X47235Y-51871D01*
X47250Y-51857D01*
X47250Y-51885D01*
X47378Y-51614D02*
X47392Y-51600D01*
X47421Y-51585D01*
X47492Y-51585D01*
X47521Y-51600D01*
X47535Y-51614D01*
X47550Y-51642D01*
X47550Y-51671D01*
X47535Y-51714D01*
X47364Y-51885D01*
X47550Y-51885D01*
X46121Y-51885D02*
X45950Y-51885D01*
X46035Y-51885D02*
X46035Y-51585D01*
X46007Y-51628D01*
X45978Y-51657D01*
X45950Y-51671D01*
X46250Y-51857D02*
X46264Y-51871D01*
X46250Y-51885D01*
X46235Y-51871D01*
X46250Y-51857D01*
X46250Y-51885D01*
X46550Y-51885D02*
X46378Y-51885D01*
X46464Y-51885D02*
X46464Y-51585D01*
X46435Y-51628D01*
X46407Y-51657D01*
X46378Y-51671D01*
X45121Y-51885D02*
X44950Y-51885D01*
X45035Y-51885D02*
X45035Y-51585D01*
X45007Y-51628D01*
X44978Y-51657D01*
X44950Y-51671D01*
X45250Y-51857D02*
X45264Y-51871D01*
X45250Y-51885D01*
X45235Y-51871D01*
X45250Y-51857D01*
X45250Y-51885D01*
X45450Y-51585D02*
X45478Y-51585D01*
X45507Y-51600D01*
X45521Y-51614D01*
X45535Y-51642D01*
X45550Y-51700D01*
X45550Y-51771D01*
X45535Y-51828D01*
X45521Y-51857D01*
X45507Y-51871D01*
X45478Y-51885D01*
X45450Y-51885D01*
X45421Y-51871D01*
X45407Y-51857D01*
X45392Y-51828D01*
X45378Y-51771D01*
X45378Y-51700D01*
X45392Y-51642D01*
X45407Y-51614D01*
X45421Y-51600D01*
X45450Y-51585D01*
X55907Y-49685D02*
X56092Y-49685D01*
X55992Y-49800D01*
X56035Y-49800D01*
X56064Y-49814D01*
X56078Y-49828D01*
X56092Y-49857D01*
X56092Y-49928D01*
X56078Y-49957D01*
X56064Y-49971D01*
X56035Y-49985D01*
X55950Y-49985D01*
X55921Y-49971D01*
X55907Y-49957D01*
X56221Y-49957D02*
X56235Y-49971D01*
X56221Y-49985D01*
X56207Y-49971D01*
X56221Y-49957D01*
X56221Y-49985D01*
X56335Y-49685D02*
X56521Y-49685D01*
X56421Y-49800D01*
X56464Y-49800D01*
X56492Y-49814D01*
X56507Y-49828D01*
X56521Y-49857D01*
X56521Y-49928D01*
X56507Y-49957D01*
X56492Y-49971D01*
X56464Y-49985D01*
X56378Y-49985D01*
X56350Y-49971D01*
X56335Y-49957D01*
X56607Y-49685D02*
X56707Y-49985D01*
X56807Y-49685D01*
X56071Y-50700D02*
X56042Y-50685D01*
X56000Y-50685D01*
X55957Y-50700D01*
X55928Y-50728D01*
X55914Y-50757D01*
X55900Y-50814D01*
X55900Y-50857D01*
X55914Y-50914D01*
X55928Y-50942D01*
X55957Y-50971D01*
X56000Y-50985D01*
X56028Y-50985D01*
X56071Y-50971D01*
X56085Y-50957D01*
X56085Y-50857D01*
X56028Y-50857D01*
X56214Y-50985D02*
X56214Y-50685D01*
X56385Y-50985D01*
X56385Y-50685D01*
X56528Y-50985D02*
X56528Y-50685D01*
X56600Y-50685D01*
X56642Y-50700D01*
X56671Y-50728D01*
X56685Y-50757D01*
X56700Y-50814D01*
X56700Y-50857D01*
X56685Y-50914D01*
X56671Y-50942D01*
X56642Y-50971D01*
X56600Y-50985D01*
X56528Y-50985D01*
X54100Y-52128D02*
X54085Y-52157D01*
X54085Y-52200D01*
X54100Y-52242D01*
X54128Y-52271D01*
X54157Y-52285D01*
X54214Y-52300D01*
X54257Y-52300D01*
X54314Y-52285D01*
X54342Y-52271D01*
X54371Y-52242D01*
X54385Y-52200D01*
X54385Y-52171D01*
X54371Y-52128D01*
X54357Y-52114D01*
X54257Y-52114D01*
X54257Y-52171D01*
X54385Y-51985D02*
X54085Y-51985D01*
X54385Y-51814D01*
X54085Y-51814D01*
X54385Y-51671D02*
X54085Y-51671D01*
X54085Y-51600D01*
X54100Y-51557D01*
X54128Y-51528D01*
X54157Y-51514D01*
X54214Y-51500D01*
X54257Y-51500D01*
X54314Y-51514D01*
X54342Y-51528D01*
X54371Y-51557D01*
X54385Y-51600D01*
X54385Y-51671D01*
X53100Y-52128D02*
X53085Y-52157D01*
X53085Y-52200D01*
X53100Y-52242D01*
X53128Y-52271D01*
X53157Y-52285D01*
X53214Y-52300D01*
X53257Y-52300D01*
X53314Y-52285D01*
X53342Y-52271D01*
X53371Y-52242D01*
X53385Y-52200D01*
X53385Y-52171D01*
X53371Y-52128D01*
X53357Y-52114D01*
X53257Y-52114D01*
X53257Y-52171D01*
X53385Y-51985D02*
X53085Y-51985D01*
X53385Y-51814D01*
X53085Y-51814D01*
X53385Y-51671D02*
X53085Y-51671D01*
X53085Y-51600D01*
X53100Y-51557D01*
X53128Y-51528D01*
X53157Y-51514D01*
X53214Y-51500D01*
X53257Y-51500D01*
X53314Y-51514D01*
X53342Y-51528D01*
X53371Y-51557D01*
X53385Y-51600D01*
X53385Y-51671D01*
X54135Y-49192D02*
X54135Y-49007D01*
X54250Y-49107D01*
X54250Y-49064D01*
X54264Y-49035D01*
X54278Y-49021D01*
X54307Y-49007D01*
X54378Y-49007D01*
X54407Y-49021D01*
X54421Y-49035D01*
X54435Y-49064D01*
X54435Y-49150D01*
X54421Y-49178D01*
X54407Y-49192D01*
X54407Y-48878D02*
X54421Y-48864D01*
X54435Y-48878D01*
X54421Y-48892D01*
X54407Y-48878D01*
X54435Y-48878D01*
X54135Y-48764D02*
X54135Y-48578D01*
X54250Y-48678D01*
X54250Y-48635D01*
X54264Y-48607D01*
X54278Y-48592D01*
X54307Y-48578D01*
X54378Y-48578D01*
X54407Y-48592D01*
X54421Y-48607D01*
X54435Y-48635D01*
X54435Y-48721D01*
X54421Y-48750D01*
X54407Y-48764D01*
X54135Y-48492D02*
X54435Y-48392D01*
X54135Y-48292D01*
X53085Y-49192D02*
X53085Y-49007D01*
X53200Y-49107D01*
X53200Y-49064D01*
X53214Y-49035D01*
X53228Y-49021D01*
X53257Y-49007D01*
X53328Y-49007D01*
X53357Y-49021D01*
X53371Y-49035D01*
X53385Y-49064D01*
X53385Y-49150D01*
X53371Y-49178D01*
X53357Y-49192D01*
X53357Y-48878D02*
X53371Y-48864D01*
X53385Y-48878D01*
X53371Y-48892D01*
X53357Y-48878D01*
X53385Y-48878D01*
X53085Y-48764D02*
X53085Y-48578D01*
X53200Y-48678D01*
X53200Y-48635D01*
X53214Y-48607D01*
X53228Y-48592D01*
X53257Y-48578D01*
X53328Y-48578D01*
X53357Y-48592D01*
X53371Y-48607D01*
X53385Y-48635D01*
X53385Y-48721D01*
X53371Y-48750D01*
X53357Y-48764D01*
X53085Y-48492D02*
X53385Y-48392D01*
X53085Y-48292D01*
X52100Y-49028D02*
X52085Y-49057D01*
X52085Y-49100D01*
X52100Y-49142D01*
X52128Y-49171D01*
X52157Y-49185D01*
X52214Y-49200D01*
X52257Y-49200D01*
X52314Y-49185D01*
X52342Y-49171D01*
X52371Y-49142D01*
X52385Y-49100D01*
X52385Y-49071D01*
X52371Y-49028D01*
X52357Y-49014D01*
X52257Y-49014D01*
X52257Y-49071D01*
X52385Y-48885D02*
X52085Y-48885D01*
X52385Y-48714D01*
X52085Y-48714D01*
X52385Y-48571D02*
X52085Y-48571D01*
X52085Y-48500D01*
X52100Y-48457D01*
X52128Y-48428D01*
X52157Y-48414D01*
X52214Y-48400D01*
X52257Y-48400D01*
X52314Y-48414D01*
X52342Y-48428D01*
X52371Y-48457D01*
X52385Y-48500D01*
X52385Y-48571D01*
X51035Y-49050D02*
X51178Y-49050D01*
X51007Y-49135D02*
X51107Y-48835D01*
X51207Y-49135D01*
X51364Y-48835D02*
X51392Y-48835D01*
X51421Y-48850D01*
X51435Y-48864D01*
X51450Y-48892D01*
X51464Y-48950D01*
X51464Y-49021D01*
X51450Y-49078D01*
X51435Y-49107D01*
X51421Y-49121D01*
X51392Y-49135D01*
X51364Y-49135D01*
X51335Y-49121D01*
X51321Y-49107D01*
X51307Y-49078D01*
X51292Y-49021D01*
X51292Y-48950D01*
X51307Y-48892D01*
X51321Y-48864D01*
X51335Y-48850D01*
X51364Y-48835D01*
X50035Y-49050D02*
X50178Y-49050D01*
X50007Y-49135D02*
X50107Y-48835D01*
X50207Y-49135D01*
X50464Y-49135D02*
X50292Y-49135D01*
X50378Y-49135D02*
X50378Y-48835D01*
X50350Y-48878D01*
X50321Y-48907D01*
X50292Y-48921D01*
X49035Y-49050D02*
X49178Y-49050D01*
X49007Y-49135D02*
X49107Y-48835D01*
X49207Y-49135D01*
X49292Y-48864D02*
X49307Y-48850D01*
X49335Y-48835D01*
X49407Y-48835D01*
X49435Y-48850D01*
X49450Y-48864D01*
X49464Y-48892D01*
X49464Y-48921D01*
X49450Y-48964D01*
X49278Y-49135D01*
X49464Y-49135D01*
X48035Y-49050D02*
X48178Y-49050D01*
X48007Y-49135D02*
X48107Y-48835D01*
X48207Y-49135D01*
X48278Y-48835D02*
X48464Y-48835D01*
X48364Y-48950D01*
X48407Y-48950D01*
X48435Y-48964D01*
X48450Y-48978D01*
X48464Y-49007D01*
X48464Y-49078D01*
X48450Y-49107D01*
X48435Y-49121D01*
X48407Y-49135D01*
X48321Y-49135D01*
X48292Y-49121D01*
X48278Y-49107D01*
X47035Y-49050D02*
X47178Y-49050D01*
X47007Y-49135D02*
X47107Y-48835D01*
X47207Y-49135D01*
X47435Y-48935D02*
X47435Y-49135D01*
X47364Y-48821D02*
X47292Y-49035D01*
X47478Y-49035D01*
X46035Y-49050D02*
X46178Y-49050D01*
X46007Y-49135D02*
X46107Y-48835D01*
X46207Y-49135D01*
X46450Y-48835D02*
X46307Y-48835D01*
X46292Y-48978D01*
X46307Y-48964D01*
X46335Y-48950D01*
X46407Y-48950D01*
X46435Y-48964D01*
X46450Y-48978D01*
X46464Y-49007D01*
X46464Y-49078D01*
X46450Y-49107D01*
X46435Y-49121D01*
X46407Y-49135D01*
X46335Y-49135D01*
X46307Y-49121D01*
X46292Y-49107D01*
X45035Y-49050D02*
X45178Y-49050D01*
X45007Y-49135D02*
X45107Y-48835D01*
X45207Y-49135D01*
X45435Y-48835D02*
X45378Y-48835D01*
X45350Y-48850D01*
X45335Y-48864D01*
X45307Y-48907D01*
X45292Y-48964D01*
X45292Y-49078D01*
X45307Y-49107D01*
X45321Y-49121D01*
X45350Y-49135D01*
X45407Y-49135D01*
X45435Y-49121D01*
X45450Y-49107D01*
X45464Y-49078D01*
X45464Y-49007D01*
X45450Y-48978D01*
X45435Y-48964D01*
X45407Y-48950D01*
X45350Y-48950D01*
X45321Y-48964D01*
X45307Y-48978D01*
X45292Y-49007D01*
G54D12*
X49213Y-56692D02*
G75*
G03X49213Y-56692I0J0D01*
G74*
G01*
X49211Y-56692D02*
X49213Y-56692D01*
X49212Y-56691D02*
X49212Y-56693D01*
X43307Y-55118D02*
X39370Y-51181D01*
X55118Y-55118D02*
X43307Y-55118D01*
G54D11*
X57400Y-46135D02*
X57571Y-46135D01*
X57485Y-46435D02*
X57485Y-46135D01*
X57642Y-46135D02*
X57842Y-46435D01*
X57842Y-46135D02*
X57642Y-46435D01*
X57942Y-46350D02*
X58085Y-46350D01*
X57914Y-46435D02*
X58014Y-46135D01*
X58114Y-46435D01*
X58371Y-46435D02*
X58200Y-46435D01*
X58285Y-46435D02*
X58285Y-46135D01*
X58257Y-46178D01*
X58228Y-46207D01*
X58200Y-46221D01*
X57578Y-46035D02*
X57478Y-45892D01*
X57407Y-46035D02*
X57407Y-45735D01*
X57521Y-45735D01*
X57550Y-45750D01*
X57564Y-45764D01*
X57578Y-45792D01*
X57578Y-45835D01*
X57564Y-45864D01*
X57550Y-45878D01*
X57521Y-45892D01*
X57407Y-45892D01*
X57678Y-45735D02*
X57878Y-46035D01*
X57878Y-45735D02*
X57678Y-46035D01*
X57978Y-45950D02*
X58121Y-45950D01*
X57950Y-46035D02*
X58050Y-45735D01*
X58150Y-46035D01*
X58407Y-46035D02*
X58235Y-46035D01*
X58321Y-46035D02*
X58321Y-45735D01*
X58292Y-45778D01*
X58264Y-45807D01*
X58235Y-45821D01*
X57542Y-45435D02*
X57542Y-45635D01*
X57471Y-45321D02*
X57400Y-45535D01*
X57585Y-45535D01*
X57700Y-45607D02*
X57714Y-45621D01*
X57700Y-45635D01*
X57685Y-45621D01*
X57700Y-45607D01*
X57700Y-45635D01*
X57814Y-45335D02*
X58014Y-45335D01*
X57885Y-45635D01*
X57542Y-45035D02*
X57542Y-45235D01*
X57471Y-44921D02*
X57400Y-45135D01*
X57585Y-45135D01*
X57700Y-45207D02*
X57714Y-45221D01*
X57700Y-45235D01*
X57685Y-45221D01*
X57700Y-45207D01*
X57700Y-45235D01*
X57971Y-44935D02*
X57914Y-44935D01*
X57885Y-44950D01*
X57871Y-44964D01*
X57842Y-45007D01*
X57828Y-45064D01*
X57828Y-45178D01*
X57842Y-45207D01*
X57857Y-45221D01*
X57885Y-45235D01*
X57942Y-45235D01*
X57971Y-45221D01*
X57985Y-45207D01*
X58000Y-45178D01*
X58000Y-45107D01*
X57985Y-45078D01*
X57971Y-45064D01*
X57942Y-45050D01*
X57885Y-45050D01*
X57857Y-45064D01*
X57842Y-45078D01*
X57828Y-45107D01*
X53375Y-46607D02*
X53360Y-46621D01*
X53317Y-46635D01*
X53289Y-46635D01*
X53246Y-46621D01*
X53217Y-46592D01*
X53203Y-46564D01*
X53189Y-46507D01*
X53189Y-46464D01*
X53203Y-46407D01*
X53217Y-46378D01*
X53246Y-46350D01*
X53289Y-46335D01*
X53317Y-46335D01*
X53360Y-46350D01*
X53375Y-46364D01*
X53646Y-46635D02*
X53503Y-46635D01*
X53503Y-46335D01*
X53746Y-46635D02*
X53746Y-46335D01*
X53917Y-46635D02*
X53789Y-46464D01*
X53917Y-46335D02*
X53746Y-46507D01*
X54032Y-46550D02*
X54175Y-46550D01*
X54003Y-46635D02*
X54103Y-46335D01*
X54203Y-46635D01*
X54360Y-46335D02*
X54389Y-46335D01*
X54417Y-46350D01*
X54432Y-46364D01*
X54446Y-46392D01*
X54460Y-46450D01*
X54460Y-46521D01*
X54446Y-46578D01*
X54432Y-46607D01*
X54417Y-46621D01*
X54389Y-46635D01*
X54360Y-46635D01*
X54332Y-46621D01*
X54317Y-46607D01*
X54303Y-46578D01*
X54289Y-46521D01*
X54289Y-46450D01*
X54303Y-46392D01*
X54317Y-46364D01*
X54332Y-46350D01*
X54360Y-46335D01*
X53142Y-46221D02*
X53185Y-46235D01*
X53257Y-46235D01*
X53285Y-46221D01*
X53300Y-46207D01*
X53314Y-46178D01*
X53314Y-46150D01*
X53300Y-46121D01*
X53285Y-46107D01*
X53257Y-46092D01*
X53200Y-46078D01*
X53171Y-46064D01*
X53157Y-46050D01*
X53142Y-46021D01*
X53142Y-45992D01*
X53157Y-45964D01*
X53171Y-45950D01*
X53200Y-45935D01*
X53271Y-45935D01*
X53314Y-45950D01*
X53442Y-46235D02*
X53442Y-45935D01*
X53514Y-45935D01*
X53557Y-45950D01*
X53585Y-45978D01*
X53600Y-46007D01*
X53614Y-46064D01*
X53614Y-46107D01*
X53600Y-46164D01*
X53585Y-46192D01*
X53557Y-46221D01*
X53514Y-46235D01*
X53442Y-46235D01*
X53728Y-46150D02*
X53871Y-46150D01*
X53700Y-46235D02*
X53800Y-45935D01*
X53900Y-46235D01*
X54100Y-46078D02*
X54142Y-46092D01*
X54157Y-46107D01*
X54171Y-46135D01*
X54171Y-46178D01*
X54157Y-46207D01*
X54142Y-46221D01*
X54114Y-46235D01*
X54000Y-46235D01*
X54000Y-45935D01*
X54100Y-45935D01*
X54128Y-45950D01*
X54142Y-45964D01*
X54157Y-45992D01*
X54157Y-46021D01*
X54142Y-46050D01*
X54128Y-46064D01*
X54100Y-46078D01*
X54000Y-46078D01*
X54357Y-45935D02*
X54385Y-45935D01*
X54414Y-45950D01*
X54428Y-45964D01*
X54442Y-45992D01*
X54457Y-46050D01*
X54457Y-46121D01*
X54442Y-46178D01*
X54428Y-46207D01*
X54414Y-46221D01*
X54385Y-46235D01*
X54357Y-46235D01*
X54328Y-46221D01*
X54314Y-46207D01*
X54300Y-46178D01*
X54285Y-46121D01*
X54285Y-46050D01*
X54300Y-45992D01*
X54314Y-45964D01*
X54328Y-45950D01*
X54357Y-45935D01*
X53150Y-45821D02*
X53192Y-45835D01*
X53264Y-45835D01*
X53292Y-45821D01*
X53307Y-45807D01*
X53321Y-45778D01*
X53321Y-45750D01*
X53307Y-45721D01*
X53292Y-45707D01*
X53264Y-45692D01*
X53207Y-45678D01*
X53178Y-45664D01*
X53164Y-45650D01*
X53150Y-45621D01*
X53150Y-45592D01*
X53164Y-45564D01*
X53178Y-45550D01*
X53207Y-45535D01*
X53278Y-45535D01*
X53321Y-45550D01*
X53621Y-45807D02*
X53607Y-45821D01*
X53564Y-45835D01*
X53535Y-45835D01*
X53492Y-45821D01*
X53464Y-45792D01*
X53450Y-45764D01*
X53435Y-45707D01*
X53435Y-45664D01*
X53450Y-45607D01*
X53464Y-45578D01*
X53492Y-45550D01*
X53535Y-45535D01*
X53564Y-45535D01*
X53607Y-45550D01*
X53621Y-45564D01*
X53892Y-45835D02*
X53750Y-45835D01*
X53750Y-45535D01*
X54092Y-45678D02*
X54135Y-45692D01*
X54150Y-45707D01*
X54164Y-45735D01*
X54164Y-45778D01*
X54150Y-45807D01*
X54135Y-45821D01*
X54107Y-45835D01*
X53992Y-45835D01*
X53992Y-45535D01*
X54092Y-45535D01*
X54121Y-45550D01*
X54135Y-45564D01*
X54150Y-45592D01*
X54150Y-45621D01*
X54135Y-45650D01*
X54121Y-45664D01*
X54092Y-45678D01*
X53992Y-45678D01*
X54350Y-45535D02*
X54378Y-45535D01*
X54407Y-45550D01*
X54421Y-45564D01*
X54435Y-45592D01*
X54450Y-45650D01*
X54450Y-45721D01*
X54435Y-45778D01*
X54421Y-45807D01*
X54407Y-45821D01*
X54378Y-45835D01*
X54350Y-45835D01*
X54321Y-45821D01*
X54307Y-45807D01*
X54292Y-45778D01*
X54278Y-45721D01*
X54278Y-45650D01*
X54292Y-45592D01*
X54307Y-45564D01*
X54321Y-45550D01*
X54350Y-45535D01*
X53242Y-45421D02*
X53285Y-45435D01*
X53357Y-45435D01*
X53385Y-45421D01*
X53400Y-45407D01*
X53414Y-45378D01*
X53414Y-45350D01*
X53400Y-45321D01*
X53385Y-45307D01*
X53357Y-45292D01*
X53300Y-45278D01*
X53271Y-45264D01*
X53257Y-45250D01*
X53242Y-45221D01*
X53242Y-45192D01*
X53257Y-45164D01*
X53271Y-45150D01*
X53300Y-45135D01*
X53371Y-45135D01*
X53414Y-45150D01*
X53500Y-45135D02*
X53671Y-45135D01*
X53585Y-45435D02*
X53585Y-45135D01*
X53771Y-45278D02*
X53871Y-45278D01*
X53914Y-45435D02*
X53771Y-45435D01*
X53771Y-45135D01*
X53914Y-45135D01*
X54028Y-45350D02*
X54171Y-45350D01*
X54000Y-45435D02*
X54100Y-45135D01*
X54200Y-45435D01*
X54357Y-45135D02*
X54385Y-45135D01*
X54414Y-45150D01*
X54428Y-45164D01*
X54442Y-45192D01*
X54457Y-45250D01*
X54457Y-45321D01*
X54442Y-45378D01*
X54428Y-45407D01*
X54414Y-45421D01*
X54385Y-45435D01*
X54357Y-45435D01*
X54328Y-45421D01*
X54314Y-45407D01*
X54300Y-45378D01*
X54285Y-45321D01*
X54285Y-45250D01*
X54300Y-45192D01*
X54314Y-45164D01*
X54328Y-45150D01*
X54357Y-45135D01*
X52957Y-45035D02*
X52957Y-44735D01*
X53057Y-44950D01*
X53157Y-44735D01*
X53157Y-45035D01*
X53357Y-44735D02*
X53414Y-44735D01*
X53442Y-44750D01*
X53471Y-44778D01*
X53485Y-44835D01*
X53485Y-44935D01*
X53471Y-44992D01*
X53442Y-45021D01*
X53414Y-45035D01*
X53357Y-45035D01*
X53328Y-45021D01*
X53300Y-44992D01*
X53285Y-44935D01*
X53285Y-44835D01*
X53300Y-44778D01*
X53328Y-44750D01*
X53357Y-44735D01*
X53600Y-45021D02*
X53642Y-45035D01*
X53714Y-45035D01*
X53742Y-45021D01*
X53757Y-45007D01*
X53771Y-44978D01*
X53771Y-44950D01*
X53757Y-44921D01*
X53742Y-44907D01*
X53714Y-44892D01*
X53657Y-44878D01*
X53628Y-44864D01*
X53614Y-44850D01*
X53600Y-44821D01*
X53600Y-44792D01*
X53614Y-44764D01*
X53628Y-44750D01*
X53657Y-44735D01*
X53728Y-44735D01*
X53771Y-44750D01*
X53900Y-45035D02*
X53900Y-44735D01*
X54028Y-44950D02*
X54171Y-44950D01*
X54000Y-45035D02*
X54100Y-44735D01*
X54200Y-45035D01*
X54357Y-44735D02*
X54385Y-44735D01*
X54414Y-44750D01*
X54428Y-44764D01*
X54442Y-44792D01*
X54457Y-44850D01*
X54457Y-44921D01*
X54442Y-44978D01*
X54428Y-45007D01*
X54414Y-45021D01*
X54385Y-45035D01*
X54357Y-45035D01*
X54328Y-45021D01*
X54314Y-45007D01*
X54300Y-44978D01*
X54285Y-44921D01*
X54285Y-44850D01*
X54300Y-44792D01*
X54314Y-44764D01*
X54328Y-44750D01*
X54357Y-44735D01*
X52957Y-44635D02*
X52957Y-44335D01*
X53057Y-44550D01*
X53157Y-44335D01*
X53157Y-44635D01*
X53300Y-44635D02*
X53300Y-44335D01*
X53428Y-44621D02*
X53471Y-44635D01*
X53542Y-44635D01*
X53571Y-44621D01*
X53585Y-44607D01*
X53600Y-44578D01*
X53600Y-44550D01*
X53585Y-44521D01*
X53571Y-44507D01*
X53542Y-44492D01*
X53485Y-44478D01*
X53457Y-44464D01*
X53442Y-44450D01*
X53428Y-44421D01*
X53428Y-44392D01*
X53442Y-44364D01*
X53457Y-44350D01*
X53485Y-44335D01*
X53557Y-44335D01*
X53600Y-44350D01*
X53785Y-44335D02*
X53842Y-44335D01*
X53871Y-44350D01*
X53900Y-44378D01*
X53914Y-44435D01*
X53914Y-44535D01*
X53900Y-44592D01*
X53871Y-44621D01*
X53842Y-44635D01*
X53785Y-44635D01*
X53757Y-44621D01*
X53728Y-44592D01*
X53714Y-44535D01*
X53714Y-44435D01*
X53728Y-44378D01*
X53757Y-44350D01*
X53785Y-44335D01*
X54028Y-44550D02*
X54171Y-44550D01*
X54000Y-44635D02*
X54100Y-44335D01*
X54200Y-44635D01*
X54357Y-44335D02*
X54385Y-44335D01*
X54414Y-44350D01*
X54428Y-44364D01*
X54442Y-44392D01*
X54457Y-44450D01*
X54457Y-44521D01*
X54442Y-44578D01*
X54428Y-44607D01*
X54414Y-44621D01*
X54385Y-44635D01*
X54357Y-44635D01*
X54328Y-44621D01*
X54314Y-44607D01*
X54300Y-44578D01*
X54285Y-44521D01*
X54285Y-44450D01*
X54300Y-44392D01*
X54314Y-44364D01*
X54328Y-44350D01*
X54357Y-44335D01*
X53221Y-44221D02*
X53264Y-44235D01*
X53335Y-44235D01*
X53364Y-44221D01*
X53378Y-44207D01*
X53392Y-44178D01*
X53392Y-44150D01*
X53378Y-44121D01*
X53364Y-44107D01*
X53335Y-44092D01*
X53278Y-44078D01*
X53250Y-44064D01*
X53235Y-44050D01*
X53221Y-44021D01*
X53221Y-43992D01*
X53235Y-43964D01*
X53250Y-43950D01*
X53278Y-43935D01*
X53350Y-43935D01*
X53392Y-43950D01*
X53478Y-43935D02*
X53650Y-43935D01*
X53564Y-44235D02*
X53564Y-43935D01*
X53750Y-44078D02*
X53850Y-44078D01*
X53892Y-44235D02*
X53750Y-44235D01*
X53750Y-43935D01*
X53892Y-43935D01*
X54121Y-44078D02*
X54164Y-44092D01*
X54178Y-44107D01*
X54192Y-44135D01*
X54192Y-44178D01*
X54178Y-44207D01*
X54164Y-44221D01*
X54135Y-44235D01*
X54021Y-44235D01*
X54021Y-43935D01*
X54121Y-43935D01*
X54150Y-43950D01*
X54164Y-43964D01*
X54178Y-43992D01*
X54178Y-44021D01*
X54164Y-44050D01*
X54150Y-44064D01*
X54121Y-44078D01*
X54021Y-44078D01*
X54478Y-44235D02*
X54307Y-44235D01*
X54392Y-44235D02*
X54392Y-43935D01*
X54364Y-43978D01*
X54335Y-44007D01*
X54307Y-44021D01*
X52935Y-43835D02*
X52935Y-43535D01*
X53035Y-43750D01*
X53135Y-43535D01*
X53135Y-43835D01*
X53335Y-43535D02*
X53392Y-43535D01*
X53421Y-43550D01*
X53450Y-43578D01*
X53464Y-43635D01*
X53464Y-43735D01*
X53450Y-43792D01*
X53421Y-43821D01*
X53392Y-43835D01*
X53335Y-43835D01*
X53307Y-43821D01*
X53278Y-43792D01*
X53264Y-43735D01*
X53264Y-43635D01*
X53278Y-43578D01*
X53307Y-43550D01*
X53335Y-43535D01*
X53578Y-43821D02*
X53621Y-43835D01*
X53692Y-43835D01*
X53721Y-43821D01*
X53735Y-43807D01*
X53750Y-43778D01*
X53750Y-43750D01*
X53735Y-43721D01*
X53721Y-43707D01*
X53692Y-43692D01*
X53635Y-43678D01*
X53607Y-43664D01*
X53592Y-43650D01*
X53578Y-43621D01*
X53578Y-43592D01*
X53592Y-43564D01*
X53607Y-43550D01*
X53635Y-43535D01*
X53707Y-43535D01*
X53750Y-43550D01*
X53878Y-43835D02*
X53878Y-43535D01*
X54121Y-43678D02*
X54164Y-43692D01*
X54178Y-43707D01*
X54192Y-43735D01*
X54192Y-43778D01*
X54178Y-43807D01*
X54164Y-43821D01*
X54135Y-43835D01*
X54021Y-43835D01*
X54021Y-43535D01*
X54121Y-43535D01*
X54150Y-43550D01*
X54164Y-43564D01*
X54178Y-43592D01*
X54178Y-43621D01*
X54164Y-43650D01*
X54150Y-43664D01*
X54121Y-43678D01*
X54021Y-43678D01*
X54478Y-43835D02*
X54307Y-43835D01*
X54392Y-43835D02*
X54392Y-43535D01*
X54364Y-43578D01*
X54335Y-43607D01*
X54307Y-43621D01*
X52935Y-43435D02*
X52935Y-43135D01*
X53035Y-43350D01*
X53135Y-43135D01*
X53135Y-43435D01*
X53278Y-43435D02*
X53278Y-43135D01*
X53407Y-43421D02*
X53450Y-43435D01*
X53521Y-43435D01*
X53550Y-43421D01*
X53564Y-43407D01*
X53578Y-43378D01*
X53578Y-43350D01*
X53564Y-43321D01*
X53550Y-43307D01*
X53521Y-43292D01*
X53464Y-43278D01*
X53435Y-43264D01*
X53421Y-43250D01*
X53407Y-43221D01*
X53407Y-43192D01*
X53421Y-43164D01*
X53435Y-43150D01*
X53464Y-43135D01*
X53535Y-43135D01*
X53578Y-43150D01*
X53764Y-43135D02*
X53821Y-43135D01*
X53850Y-43150D01*
X53878Y-43178D01*
X53892Y-43235D01*
X53892Y-43335D01*
X53878Y-43392D01*
X53850Y-43421D01*
X53821Y-43435D01*
X53764Y-43435D01*
X53735Y-43421D01*
X53707Y-43392D01*
X53692Y-43335D01*
X53692Y-43235D01*
X53707Y-43178D01*
X53735Y-43150D01*
X53764Y-43135D01*
X54121Y-43278D02*
X54164Y-43292D01*
X54178Y-43307D01*
X54192Y-43335D01*
X54192Y-43378D01*
X54178Y-43407D01*
X54164Y-43421D01*
X54135Y-43435D01*
X54021Y-43435D01*
X54021Y-43135D01*
X54121Y-43135D01*
X54150Y-43150D01*
X54164Y-43164D01*
X54178Y-43192D01*
X54178Y-43221D01*
X54164Y-43250D01*
X54150Y-43264D01*
X54121Y-43278D01*
X54021Y-43278D01*
X54478Y-43435D02*
X54307Y-43435D01*
X54392Y-43435D02*
X54392Y-43135D01*
X54364Y-43178D01*
X54335Y-43207D01*
X54307Y-43221D01*
X53328Y-43007D02*
X53314Y-43021D01*
X53271Y-43035D01*
X53242Y-43035D01*
X53200Y-43021D01*
X53171Y-42992D01*
X53157Y-42964D01*
X53142Y-42907D01*
X53142Y-42864D01*
X53157Y-42807D01*
X53171Y-42778D01*
X53200Y-42750D01*
X53242Y-42735D01*
X53271Y-42735D01*
X53314Y-42750D01*
X53328Y-42764D01*
X53600Y-43035D02*
X53457Y-43035D01*
X53457Y-42735D01*
X53700Y-43035D02*
X53700Y-42735D01*
X53871Y-43035D02*
X53742Y-42864D01*
X53871Y-42735D02*
X53700Y-42907D01*
X54100Y-42878D02*
X54142Y-42892D01*
X54157Y-42907D01*
X54171Y-42935D01*
X54171Y-42978D01*
X54157Y-43007D01*
X54142Y-43021D01*
X54114Y-43035D01*
X54000Y-43035D01*
X54000Y-42735D01*
X54100Y-42735D01*
X54128Y-42750D01*
X54142Y-42764D01*
X54157Y-42792D01*
X54157Y-42821D01*
X54142Y-42850D01*
X54128Y-42864D01*
X54100Y-42878D01*
X54000Y-42878D01*
X54457Y-43035D02*
X54285Y-43035D01*
X54371Y-43035D02*
X54371Y-42735D01*
X54342Y-42778D01*
X54314Y-42807D01*
X54285Y-42821D01*
X53835Y-47692D02*
X53835Y-47507D01*
X53950Y-47607D01*
X53950Y-47564D01*
X53964Y-47535D01*
X53978Y-47521D01*
X54007Y-47507D01*
X54078Y-47507D01*
X54107Y-47521D01*
X54121Y-47535D01*
X54135Y-47564D01*
X54135Y-47650D01*
X54121Y-47678D01*
X54107Y-47692D01*
X54107Y-47378D02*
X54121Y-47364D01*
X54135Y-47378D01*
X54121Y-47392D01*
X54107Y-47378D01*
X54135Y-47378D01*
X53835Y-47264D02*
X53835Y-47078D01*
X53950Y-47178D01*
X53950Y-47135D01*
X53964Y-47107D01*
X53978Y-47092D01*
X54007Y-47078D01*
X54078Y-47078D01*
X54107Y-47092D01*
X54121Y-47107D01*
X54135Y-47135D01*
X54135Y-47221D01*
X54121Y-47250D01*
X54107Y-47264D01*
X53835Y-46992D02*
X54135Y-46892D01*
X53835Y-46792D01*
G54D13*
X54300Y-47400D02*
X54500Y-47400D01*
X54300Y-46700D02*
X54300Y-47400D01*
X54500Y-46700D02*
X54300Y-46700D01*
G54D11*
X57650Y-47328D02*
X57635Y-47357D01*
X57635Y-47400D01*
X57650Y-47442D01*
X57678Y-47471D01*
X57707Y-47485D01*
X57764Y-47500D01*
X57807Y-47500D01*
X57864Y-47485D01*
X57892Y-47471D01*
X57921Y-47442D01*
X57935Y-47400D01*
X57935Y-47371D01*
X57921Y-47328D01*
X57907Y-47314D01*
X57807Y-47314D01*
X57807Y-47371D01*
X57935Y-47185D02*
X57635Y-47185D01*
X57935Y-47014D01*
X57635Y-47014D01*
X57935Y-46871D02*
X57635Y-46871D01*
X57635Y-46800D01*
X57650Y-46757D01*
X57678Y-46728D01*
X57707Y-46714D01*
X57764Y-46700D01*
X57807Y-46700D01*
X57864Y-46714D01*
X57892Y-46728D01*
X57921Y-46757D01*
X57935Y-46800D01*
X57935Y-46871D01*
G54D13*
X57500Y-46600D02*
X57300Y-46600D01*
X57500Y-47600D02*
X57500Y-46600D01*
X57300Y-47600D02*
X57500Y-47600D01*
G54D11*
X57650Y-44528D02*
X57635Y-44557D01*
X57635Y-44600D01*
X57650Y-44642D01*
X57678Y-44671D01*
X57707Y-44685D01*
X57764Y-44700D01*
X57807Y-44700D01*
X57864Y-44685D01*
X57892Y-44671D01*
X57921Y-44642D01*
X57935Y-44600D01*
X57935Y-44571D01*
X57921Y-44528D01*
X57907Y-44514D01*
X57807Y-44514D01*
X57807Y-44571D01*
X57935Y-44385D02*
X57635Y-44385D01*
X57935Y-44214D01*
X57635Y-44214D01*
X57935Y-44071D02*
X57635Y-44071D01*
X57635Y-44000D01*
X57650Y-43957D01*
X57678Y-43928D01*
X57707Y-43914D01*
X57764Y-43900D01*
X57807Y-43900D01*
X57864Y-43914D01*
X57892Y-43928D01*
X57921Y-43957D01*
X57935Y-44000D01*
X57935Y-44071D01*
G54D13*
X57500Y-43800D02*
X57300Y-43800D01*
X57500Y-44800D02*
X57500Y-43800D01*
X57300Y-44800D02*
X57500Y-44800D01*
G54D11*
X57635Y-43542D02*
X57635Y-43357D01*
X57750Y-43457D01*
X57750Y-43414D01*
X57764Y-43385D01*
X57778Y-43371D01*
X57807Y-43357D01*
X57878Y-43357D01*
X57907Y-43371D01*
X57921Y-43385D01*
X57935Y-43414D01*
X57935Y-43500D01*
X57921Y-43528D01*
X57907Y-43542D01*
X57907Y-43228D02*
X57921Y-43214D01*
X57935Y-43228D01*
X57921Y-43242D01*
X57907Y-43228D01*
X57935Y-43228D01*
X57635Y-43114D02*
X57635Y-42928D01*
X57750Y-43028D01*
X57750Y-42985D01*
X57764Y-42957D01*
X57778Y-42942D01*
X57807Y-42928D01*
X57878Y-42928D01*
X57907Y-42942D01*
X57921Y-42957D01*
X57935Y-42985D01*
X57935Y-43071D01*
X57921Y-43100D01*
X57907Y-43114D01*
X57635Y-42842D02*
X57935Y-42742D01*
X57635Y-42642D01*
G54D13*
X57500Y-42600D02*
X57300Y-42600D01*
X57500Y-43600D02*
X57500Y-42600D01*
X57300Y-43600D02*
X57500Y-43600D01*
G54D11*
X43985Y-46750D02*
X44128Y-46750D01*
X43957Y-46835D02*
X44057Y-46535D01*
X44157Y-46835D01*
X44385Y-46535D02*
X44328Y-46535D01*
X44300Y-46550D01*
X44285Y-46564D01*
X44257Y-46607D01*
X44242Y-46664D01*
X44242Y-46778D01*
X44257Y-46807D01*
X44271Y-46821D01*
X44300Y-46835D01*
X44357Y-46835D01*
X44385Y-46821D01*
X44400Y-46807D01*
X44414Y-46778D01*
X44414Y-46707D01*
X44400Y-46678D01*
X44385Y-46664D01*
X44357Y-46650D01*
X44300Y-46650D01*
X44271Y-46664D01*
X44257Y-46678D01*
X44242Y-46707D01*
X43985Y-46350D02*
X44128Y-46350D01*
X43957Y-46435D02*
X44057Y-46135D01*
X44157Y-46435D01*
X44400Y-46135D02*
X44257Y-46135D01*
X44242Y-46278D01*
X44257Y-46264D01*
X44285Y-46250D01*
X44357Y-46250D01*
X44385Y-46264D01*
X44400Y-46278D01*
X44414Y-46307D01*
X44414Y-46378D01*
X44400Y-46407D01*
X44385Y-46421D01*
X44357Y-46435D01*
X44285Y-46435D01*
X44257Y-46421D01*
X44242Y-46407D01*
X43985Y-45950D02*
X44128Y-45950D01*
X43957Y-46035D02*
X44057Y-45735D01*
X44157Y-46035D01*
X44385Y-45835D02*
X44385Y-46035D01*
X44314Y-45721D02*
X44242Y-45935D01*
X44428Y-45935D01*
X43985Y-45550D02*
X44128Y-45550D01*
X43957Y-45635D02*
X44057Y-45335D01*
X44157Y-45635D01*
X44228Y-45335D02*
X44414Y-45335D01*
X44314Y-45450D01*
X44357Y-45450D01*
X44385Y-45464D01*
X44400Y-45478D01*
X44414Y-45507D01*
X44414Y-45578D01*
X44400Y-45607D01*
X44385Y-45621D01*
X44357Y-45635D01*
X44271Y-45635D01*
X44242Y-45621D01*
X44228Y-45607D01*
X43985Y-45150D02*
X44128Y-45150D01*
X43957Y-45235D02*
X44057Y-44935D01*
X44157Y-45235D01*
X44242Y-44964D02*
X44257Y-44950D01*
X44285Y-44935D01*
X44357Y-44935D01*
X44385Y-44950D01*
X44400Y-44964D01*
X44414Y-44992D01*
X44414Y-45021D01*
X44400Y-45064D01*
X44228Y-45235D01*
X44414Y-45235D01*
X43985Y-44750D02*
X44128Y-44750D01*
X43957Y-44835D02*
X44057Y-44535D01*
X44157Y-44835D01*
X44414Y-44835D02*
X44242Y-44835D01*
X44328Y-44835D02*
X44328Y-44535D01*
X44300Y-44578D01*
X44271Y-44607D01*
X44242Y-44621D01*
X43985Y-44350D02*
X44128Y-44350D01*
X43957Y-44435D02*
X44057Y-44135D01*
X44157Y-44435D01*
X44314Y-44135D02*
X44342Y-44135D01*
X44371Y-44150D01*
X44385Y-44164D01*
X44400Y-44192D01*
X44414Y-44250D01*
X44414Y-44321D01*
X44400Y-44378D01*
X44385Y-44407D01*
X44371Y-44421D01*
X44342Y-44435D01*
X44314Y-44435D01*
X44285Y-44421D01*
X44271Y-44407D01*
X44257Y-44378D01*
X44242Y-44321D01*
X44242Y-44250D01*
X44257Y-44192D01*
X44271Y-44164D01*
X44285Y-44150D01*
X44314Y-44135D01*
X44285Y-47942D02*
X44285Y-47757D01*
X44400Y-47857D01*
X44400Y-47814D01*
X44414Y-47785D01*
X44428Y-47771D01*
X44457Y-47757D01*
X44528Y-47757D01*
X44557Y-47771D01*
X44571Y-47785D01*
X44585Y-47814D01*
X44585Y-47900D01*
X44571Y-47928D01*
X44557Y-47942D01*
X44557Y-47628D02*
X44571Y-47614D01*
X44585Y-47628D01*
X44571Y-47642D01*
X44557Y-47628D01*
X44585Y-47628D01*
X44285Y-47514D02*
X44285Y-47328D01*
X44400Y-47428D01*
X44400Y-47385D01*
X44414Y-47357D01*
X44428Y-47342D01*
X44457Y-47328D01*
X44528Y-47328D01*
X44557Y-47342D01*
X44571Y-47357D01*
X44585Y-47385D01*
X44585Y-47471D01*
X44571Y-47500D01*
X44557Y-47514D01*
X44285Y-47242D02*
X44585Y-47142D01*
X44285Y-47042D01*
G54D13*
X44125Y-47000D02*
X43925Y-47000D01*
X44125Y-47500D02*
X44125Y-47000D01*
X43925Y-47500D02*
X44125Y-47500D01*
G54D11*
X40500Y-47778D02*
X40485Y-47807D01*
X40485Y-47850D01*
X40500Y-47892D01*
X40528Y-47921D01*
X40557Y-47935D01*
X40614Y-47950D01*
X40657Y-47950D01*
X40714Y-47935D01*
X40742Y-47921D01*
X40771Y-47892D01*
X40785Y-47850D01*
X40785Y-47821D01*
X40771Y-47778D01*
X40757Y-47764D01*
X40657Y-47764D01*
X40657Y-47821D01*
X40785Y-47635D02*
X40485Y-47635D01*
X40785Y-47464D01*
X40485Y-47464D01*
X40785Y-47321D02*
X40485Y-47321D01*
X40485Y-47250D01*
X40500Y-47207D01*
X40528Y-47178D01*
X40557Y-47164D01*
X40614Y-47150D01*
X40657Y-47150D01*
X40714Y-47164D01*
X40742Y-47178D01*
X40771Y-47207D01*
X40785Y-47250D01*
X40785Y-47321D01*
G54D13*
X40925Y-47700D02*
X41125Y-47700D01*
X40925Y-47200D02*
X40925Y-47700D01*
X41125Y-47200D02*
X40925Y-47200D01*
G54D11*
X40571Y-47035D02*
X40400Y-47035D01*
X40485Y-47035D02*
X40485Y-46735D01*
X40457Y-46778D01*
X40428Y-46807D01*
X40400Y-46821D01*
X40700Y-47007D02*
X40714Y-47021D01*
X40700Y-47035D01*
X40685Y-47021D01*
X40700Y-47007D01*
X40700Y-47035D01*
X40900Y-46735D02*
X40928Y-46735D01*
X40957Y-46750D01*
X40971Y-46764D01*
X40985Y-46792D01*
X41000Y-46850D01*
X41000Y-46921D01*
X40985Y-46978D01*
X40971Y-47007D01*
X40957Y-47021D01*
X40928Y-47035D01*
X40900Y-47035D01*
X40871Y-47021D01*
X40857Y-47007D01*
X40842Y-46978D01*
X40828Y-46921D01*
X40828Y-46850D01*
X40842Y-46792D01*
X40857Y-46764D01*
X40871Y-46750D01*
X40900Y-46735D01*
X40571Y-46635D02*
X40400Y-46635D01*
X40485Y-46635D02*
X40485Y-46335D01*
X40457Y-46378D01*
X40428Y-46407D01*
X40400Y-46421D01*
X40700Y-46607D02*
X40714Y-46621D01*
X40700Y-46635D01*
X40685Y-46621D01*
X40700Y-46607D01*
X40700Y-46635D01*
X41000Y-46635D02*
X40828Y-46635D01*
X40914Y-46635D02*
X40914Y-46335D01*
X40885Y-46378D01*
X40857Y-46407D01*
X40828Y-46421D01*
X40571Y-46235D02*
X40400Y-46235D01*
X40485Y-46235D02*
X40485Y-45935D01*
X40457Y-45978D01*
X40428Y-46007D01*
X40400Y-46021D01*
X40700Y-46207D02*
X40714Y-46221D01*
X40700Y-46235D01*
X40685Y-46221D01*
X40700Y-46207D01*
X40700Y-46235D01*
X40828Y-45964D02*
X40842Y-45950D01*
X40871Y-45935D01*
X40942Y-45935D01*
X40971Y-45950D01*
X40985Y-45964D01*
X41000Y-45992D01*
X41000Y-46021D01*
X40985Y-46064D01*
X40814Y-46235D01*
X41000Y-46235D01*
X40571Y-45835D02*
X40400Y-45835D01*
X40485Y-45835D02*
X40485Y-45535D01*
X40457Y-45578D01*
X40428Y-45607D01*
X40400Y-45621D01*
X40700Y-45807D02*
X40714Y-45821D01*
X40700Y-45835D01*
X40685Y-45821D01*
X40700Y-45807D01*
X40700Y-45835D01*
X40814Y-45535D02*
X41000Y-45535D01*
X40900Y-45650D01*
X40942Y-45650D01*
X40971Y-45664D01*
X40985Y-45678D01*
X41000Y-45707D01*
X41000Y-45778D01*
X40985Y-45807D01*
X40971Y-45821D01*
X40942Y-45835D01*
X40857Y-45835D01*
X40828Y-45821D01*
X40814Y-45807D01*
X40571Y-45435D02*
X40400Y-45435D01*
X40485Y-45435D02*
X40485Y-45135D01*
X40457Y-45178D01*
X40428Y-45207D01*
X40400Y-45221D01*
X40700Y-45407D02*
X40714Y-45421D01*
X40700Y-45435D01*
X40685Y-45421D01*
X40700Y-45407D01*
X40700Y-45435D01*
X40971Y-45235D02*
X40971Y-45435D01*
X40900Y-45121D02*
X40828Y-45335D01*
X41014Y-45335D01*
X40571Y-45035D02*
X40400Y-45035D01*
X40485Y-45035D02*
X40485Y-44735D01*
X40457Y-44778D01*
X40428Y-44807D01*
X40400Y-44821D01*
X40700Y-45007D02*
X40714Y-45021D01*
X40700Y-45035D01*
X40685Y-45021D01*
X40700Y-45007D01*
X40700Y-45035D01*
X40985Y-44735D02*
X40842Y-44735D01*
X40828Y-44878D01*
X40842Y-44864D01*
X40871Y-44850D01*
X40942Y-44850D01*
X40971Y-44864D01*
X40985Y-44878D01*
X41000Y-44907D01*
X41000Y-44978D01*
X40985Y-45007D01*
X40971Y-45021D01*
X40942Y-45035D01*
X40871Y-45035D01*
X40842Y-45021D01*
X40828Y-45007D01*
X40571Y-44635D02*
X40400Y-44635D01*
X40485Y-44635D02*
X40485Y-44335D01*
X40457Y-44378D01*
X40428Y-44407D01*
X40400Y-44421D01*
X40700Y-44607D02*
X40714Y-44621D01*
X40700Y-44635D01*
X40685Y-44621D01*
X40700Y-44607D01*
X40700Y-44635D01*
X40971Y-44335D02*
X40914Y-44335D01*
X40885Y-44350D01*
X40871Y-44364D01*
X40842Y-44407D01*
X40828Y-44464D01*
X40828Y-44578D01*
X40842Y-44607D01*
X40857Y-44621D01*
X40885Y-44635D01*
X40942Y-44635D01*
X40971Y-44621D01*
X40985Y-44607D01*
X41000Y-44578D01*
X41000Y-44507D01*
X40985Y-44478D01*
X40971Y-44464D01*
X40942Y-44450D01*
X40885Y-44450D01*
X40857Y-44464D01*
X40842Y-44478D01*
X40828Y-44507D01*
X40571Y-44235D02*
X40400Y-44235D01*
X40485Y-44235D02*
X40485Y-43935D01*
X40457Y-43978D01*
X40428Y-44007D01*
X40400Y-44021D01*
X40700Y-44207D02*
X40714Y-44221D01*
X40700Y-44235D01*
X40685Y-44221D01*
X40700Y-44207D01*
X40700Y-44235D01*
X40814Y-43935D02*
X41014Y-43935D01*
X40885Y-44235D01*
X44250Y-43728D02*
X44235Y-43757D01*
X44235Y-43800D01*
X44250Y-43842D01*
X44278Y-43871D01*
X44307Y-43885D01*
X44364Y-43900D01*
X44407Y-43900D01*
X44464Y-43885D01*
X44492Y-43871D01*
X44521Y-43842D01*
X44535Y-43800D01*
X44535Y-43771D01*
X44521Y-43728D01*
X44507Y-43714D01*
X44407Y-43714D01*
X44407Y-43771D01*
X44535Y-43585D02*
X44235Y-43585D01*
X44535Y-43414D01*
X44235Y-43414D01*
X44535Y-43271D02*
X44235Y-43271D01*
X44235Y-43200D01*
X44250Y-43157D01*
X44278Y-43128D01*
X44307Y-43114D01*
X44364Y-43100D01*
X44407Y-43100D01*
X44464Y-43114D01*
X44492Y-43128D01*
X44521Y-43157D01*
X44535Y-43200D01*
X44535Y-43271D01*
G54D13*
X44125Y-43000D02*
X43925Y-43000D01*
X44125Y-44000D02*
X44125Y-43000D01*
X43925Y-44000D02*
X44125Y-44000D01*
G54D11*
X40435Y-43742D02*
X40435Y-43557D01*
X40550Y-43657D01*
X40550Y-43614D01*
X40564Y-43585D01*
X40578Y-43571D01*
X40607Y-43557D01*
X40678Y-43557D01*
X40707Y-43571D01*
X40721Y-43585D01*
X40735Y-43614D01*
X40735Y-43700D01*
X40721Y-43728D01*
X40707Y-43742D01*
X40707Y-43428D02*
X40721Y-43414D01*
X40735Y-43428D01*
X40721Y-43442D01*
X40707Y-43428D01*
X40735Y-43428D01*
X40435Y-43314D02*
X40435Y-43128D01*
X40550Y-43228D01*
X40550Y-43185D01*
X40564Y-43157D01*
X40578Y-43142D01*
X40607Y-43128D01*
X40678Y-43128D01*
X40707Y-43142D01*
X40721Y-43157D01*
X40735Y-43185D01*
X40735Y-43271D01*
X40721Y-43300D01*
X40707Y-43314D01*
X40435Y-43042D02*
X40735Y-42942D01*
X40435Y-42842D01*
G54D13*
X40925Y-42800D02*
X41125Y-42800D01*
X40925Y-43800D02*
X40925Y-42800D01*
X41125Y-43800D02*
X40925Y-43800D01*
G54D11*
X48146Y-46096D02*
X48146Y-46263D01*
X48086Y-46001D02*
X48027Y-46179D01*
X48182Y-46179D01*
X48277Y-46167D02*
X48467Y-46167D01*
X48622Y-46263D02*
X48598Y-46251D01*
X48586Y-46227D01*
X48586Y-46013D01*
X48824Y-46263D02*
X48824Y-46132D01*
X48813Y-46108D01*
X48789Y-46096D01*
X48741Y-46096D01*
X48717Y-46108D01*
X48824Y-46251D02*
X48801Y-46263D01*
X48741Y-46263D01*
X48717Y-46251D01*
X48705Y-46227D01*
X48705Y-46203D01*
X48717Y-46179D01*
X48741Y-46167D01*
X48801Y-46167D01*
X48824Y-46155D01*
X48920Y-46096D02*
X48979Y-46263D01*
X49039Y-46096D02*
X48979Y-46263D01*
X48955Y-46322D01*
X48944Y-46334D01*
X48920Y-46346D01*
X49229Y-46251D02*
X49205Y-46263D01*
X49158Y-46263D01*
X49134Y-46251D01*
X49122Y-46227D01*
X49122Y-46132D01*
X49134Y-46108D01*
X49158Y-46096D01*
X49205Y-46096D01*
X49229Y-46108D01*
X49241Y-46132D01*
X49241Y-46155D01*
X49122Y-46179D01*
X49348Y-46263D02*
X49348Y-46096D01*
X49348Y-46144D02*
X49360Y-46120D01*
X49372Y-46108D01*
X49396Y-46096D01*
X49420Y-46096D01*
X49670Y-46096D02*
X49729Y-46263D01*
X49789Y-46096D01*
X50015Y-46263D02*
X49872Y-46263D01*
X49944Y-46263D02*
X49944Y-46013D01*
X49920Y-46048D01*
X49896Y-46072D01*
X49872Y-46084D01*
X50122Y-46239D02*
X50134Y-46251D01*
X50122Y-46263D01*
X50110Y-46251D01*
X50122Y-46239D01*
X50122Y-46263D01*
X50289Y-46013D02*
X50313Y-46013D01*
X50336Y-46025D01*
X50348Y-46036D01*
X50360Y-46060D01*
X50372Y-46108D01*
X50372Y-46167D01*
X50360Y-46215D01*
X50348Y-46239D01*
X50336Y-46251D01*
X50313Y-46263D01*
X50289Y-46263D01*
X50265Y-46251D01*
X50253Y-46239D01*
X50241Y-46215D01*
X50229Y-46167D01*
X50229Y-46108D01*
X50241Y-46060D01*
X50253Y-46036D01*
X50265Y-46025D01*
X50289Y-46013D01*
G54D12*
X59055Y-51181D02*
X55118Y-55118D01*
X59055Y-39370D02*
X59055Y-51181D01*
X55118Y-35433D02*
X59055Y-39370D01*
X43307Y-35433D02*
X55118Y-35433D01*
X39370Y-39370D02*
X43307Y-35433D01*
X39370Y-51181D02*
X39370Y-39370D01*
G54D14*
X41535Y-41732D02*
X41732Y-41732D01*
X41535Y-41732D02*
X41141Y-41732D01*
X41141Y-41732D02*
X41141Y-48818D01*
X41141Y-48818D02*
X41732Y-48818D01*
X43307Y-41732D02*
X43897Y-41732D01*
X43897Y-41732D02*
X43897Y-48818D01*
X43897Y-48818D02*
X43307Y-48818D01*
X56889Y-48622D02*
X56692Y-48622D01*
X56889Y-48622D02*
X57283Y-48622D01*
X57283Y-48622D02*
X57283Y-41535D01*
X57283Y-41535D02*
X56692Y-41535D01*
X55118Y-48622D02*
X54527Y-48622D01*
X54527Y-48622D02*
X54527Y-41535D01*
X54527Y-41535D02*
X55118Y-41535D01*
G54D15*
X55750Y-49350D02*
X42750Y-49350D01*
X42750Y-51350D02*
X55750Y-51350D01*
X55750Y-51350D02*
X55750Y-49350D01*
X42750Y-49350D02*
X42750Y-51350D01*
X42750Y-40950D02*
X55750Y-40950D01*
X55750Y-38950D02*
X42750Y-38950D01*
X42750Y-38950D02*
X42750Y-40950D01*
X55750Y-40950D02*
X55750Y-38950D01*
G54D16*
G36*
X50360Y-45385D02*
X50360Y-45433D01*
X50359Y-45481D01*
X50358Y-45528D01*
X50357Y-45572D01*
X50356Y-45610D01*
X50355Y-45641D01*
X50353Y-45662D01*
X50352Y-45667D01*
X50336Y-45720D01*
X50310Y-45765D01*
X50273Y-45800D01*
X50226Y-45827D01*
X50170Y-45844D01*
X50150Y-45848D01*
X50128Y-45850D01*
X50094Y-45851D01*
X50052Y-45852D01*
X50005Y-45853D01*
X49955Y-45853D01*
X49906Y-45853D01*
X49859Y-45853D01*
X49818Y-45851D01*
X49786Y-45850D01*
X49766Y-45848D01*
X49714Y-45833D01*
X49666Y-45807D01*
X49624Y-45771D01*
X49591Y-45725D01*
X49584Y-45712D01*
X49562Y-45667D01*
X49562Y-45293D01*
X49562Y-44920D01*
X49580Y-44882D01*
X49611Y-44834D01*
X49653Y-44793D01*
X49702Y-44763D01*
X49747Y-44742D01*
X50029Y-44740D01*
X50312Y-44738D01*
X50312Y-44791D01*
X50311Y-44817D01*
X50309Y-44839D01*
X50307Y-44852D01*
X50306Y-44853D01*
X50301Y-44855D01*
X50287Y-44857D01*
X50265Y-44858D01*
X50233Y-44860D01*
X50189Y-44861D01*
X50135Y-44862D01*
X50068Y-44863D01*
X50038Y-44863D01*
X49967Y-44863D01*
X49909Y-44864D01*
X49862Y-44865D01*
X49824Y-44867D01*
X49795Y-44869D01*
X49772Y-44872D01*
X49756Y-44876D01*
X49743Y-44881D01*
X49733Y-44888D01*
X49725Y-44897D01*
X49718Y-44907D01*
X49715Y-44911D01*
X49699Y-44934D01*
X49697Y-45290D01*
X49695Y-45647D01*
X49710Y-45670D01*
X49726Y-45689D01*
X49744Y-45705D01*
X49745Y-45707D01*
X49752Y-45711D01*
X49759Y-45714D01*
X49768Y-45717D01*
X49782Y-45718D01*
X49802Y-45720D01*
X49829Y-45721D01*
X49865Y-45721D01*
X49912Y-45721D01*
X49958Y-45721D01*
X50152Y-45721D01*
X50180Y-45702D01*
X50196Y-45691D01*
X50209Y-45680D01*
X50218Y-45667D01*
X50225Y-45650D01*
X50229Y-45627D01*
X50232Y-45597D01*
X50234Y-45557D01*
X50235Y-45506D01*
X50235Y-45493D01*
X50237Y-45348D01*
X50095Y-45346D01*
X49952Y-45345D01*
X49950Y-45285D01*
X49948Y-45225D01*
X50150Y-45225D01*
X50208Y-45225D01*
X50254Y-45225D01*
X50290Y-45225D01*
X50316Y-45226D01*
X50334Y-45228D01*
X50346Y-45229D01*
X50352Y-45232D01*
X50355Y-45235D01*
X50355Y-45235D01*
X50357Y-45247D01*
X50358Y-45269D01*
X50359Y-45301D01*
X50360Y-45341D01*
X50360Y-45385D01*
X50360Y-45385D01*
X50360Y-45385D01*
G37*
G36*
X48408Y-45379D02*
X48407Y-45448D01*
X48407Y-45505D01*
X48406Y-45552D01*
X48404Y-45591D01*
X48402Y-45623D01*
X48399Y-45648D01*
X48395Y-45669D01*
X48389Y-45686D01*
X48383Y-45701D01*
X48375Y-45715D01*
X48366Y-45730D01*
X48363Y-45734D01*
X48326Y-45778D01*
X48281Y-45811D01*
X48271Y-45815D01*
X48271Y-45295D01*
X48270Y-45207D01*
X48270Y-45131D01*
X48269Y-45068D01*
X48268Y-45018D01*
X48267Y-44980D01*
X48265Y-44956D01*
X48263Y-44946D01*
X48249Y-44921D01*
X48226Y-44897D01*
X48201Y-44880D01*
X48189Y-44875D01*
X48176Y-44874D01*
X48151Y-44872D01*
X48116Y-44870D01*
X48074Y-44869D01*
X48026Y-44869D01*
X47973Y-44868D01*
X47961Y-44868D01*
X47903Y-44868D01*
X47857Y-44869D01*
X47822Y-44869D01*
X47796Y-44870D01*
X47777Y-44871D01*
X47765Y-44872D01*
X47757Y-44875D01*
X47752Y-44878D01*
X47748Y-44882D01*
X47747Y-44884D01*
X47745Y-44888D01*
X47743Y-44896D01*
X47741Y-44907D01*
X47740Y-44923D01*
X47739Y-44944D01*
X47738Y-44973D01*
X47737Y-45010D01*
X47737Y-45056D01*
X47737Y-45112D01*
X47736Y-45180D01*
X47736Y-45259D01*
X47736Y-45295D01*
X47736Y-45394D01*
X47737Y-45479D01*
X47737Y-45550D01*
X47738Y-45608D01*
X47740Y-45653D01*
X47741Y-45684D01*
X47743Y-45701D01*
X47744Y-45705D01*
X47746Y-45708D01*
X47750Y-45711D01*
X47757Y-45714D01*
X47768Y-45715D01*
X47784Y-45716D01*
X47808Y-45717D01*
X47841Y-45717D01*
X47883Y-45717D01*
X47937Y-45717D01*
X47976Y-45716D01*
X48038Y-45716D01*
X48087Y-45715D01*
X48126Y-45714D01*
X48155Y-45713D01*
X48177Y-45712D01*
X48193Y-45710D01*
X48204Y-45708D01*
X48212Y-45706D01*
X48218Y-45702D01*
X48220Y-45700D01*
X48236Y-45685D01*
X48250Y-45664D01*
X48255Y-45656D01*
X48259Y-45649D01*
X48262Y-45642D01*
X48264Y-45633D01*
X48266Y-45622D01*
X48268Y-45607D01*
X48269Y-45588D01*
X48269Y-45562D01*
X48270Y-45528D01*
X48270Y-45486D01*
X48270Y-45433D01*
X48270Y-45370D01*
X48271Y-45295D01*
X48271Y-45815D01*
X48228Y-45834D01*
X48199Y-45840D01*
X48184Y-45842D01*
X48158Y-45843D01*
X48123Y-45844D01*
X48080Y-45845D01*
X48032Y-45846D01*
X47980Y-45847D01*
X47926Y-45847D01*
X47872Y-45847D01*
X47821Y-45847D01*
X47774Y-45847D01*
X47732Y-45847D01*
X47698Y-45846D01*
X47674Y-45845D01*
X47662Y-45843D01*
X47661Y-45843D01*
X47643Y-45832D01*
X47624Y-45814D01*
X47610Y-45793D01*
X47609Y-45792D01*
X47607Y-45786D01*
X47605Y-45777D01*
X47604Y-45762D01*
X47603Y-45742D01*
X47602Y-45715D01*
X47601Y-45681D01*
X47600Y-45638D01*
X47600Y-45586D01*
X47600Y-45524D01*
X47599Y-45450D01*
X47599Y-45364D01*
X47599Y-45296D01*
X47599Y-45200D01*
X47599Y-45117D01*
X47600Y-45046D01*
X47600Y-44986D01*
X47601Y-44935D01*
X47601Y-44893D01*
X47603Y-44860D01*
X47605Y-44833D01*
X47607Y-44812D01*
X47611Y-44797D01*
X47615Y-44785D01*
X47619Y-44776D01*
X47625Y-44770D01*
X47632Y-44765D01*
X47639Y-44760D01*
X47643Y-44758D01*
X47649Y-44755D01*
X47656Y-44752D01*
X47666Y-44750D01*
X47679Y-44748D01*
X47698Y-44747D01*
X47723Y-44747D01*
X47755Y-44746D01*
X47797Y-44746D01*
X47850Y-44746D01*
X47914Y-44747D01*
X47942Y-44747D01*
X48219Y-44749D01*
X48262Y-44768D01*
X48303Y-44793D01*
X48341Y-44827D01*
X48371Y-44865D01*
X48379Y-44879D01*
X48385Y-44893D01*
X48390Y-44907D01*
X48395Y-44923D01*
X48399Y-44942D01*
X48401Y-44965D01*
X48404Y-44994D01*
X48405Y-45030D01*
X48406Y-45074D01*
X48407Y-45127D01*
X48407Y-45191D01*
X48408Y-45267D01*
X48408Y-45299D01*
X48408Y-45379D01*
X48408Y-45379D01*
X48408Y-45379D01*
G37*
G36*
X49388Y-45512D02*
X49387Y-45557D01*
X49385Y-45601D01*
X49382Y-45639D01*
X49375Y-45669D01*
X49375Y-45671D01*
X49351Y-45721D01*
X49317Y-45766D01*
X49273Y-45803D01*
X49250Y-45817D01*
X49250Y-45045D01*
X49249Y-44997D01*
X49244Y-44960D01*
X49236Y-44932D01*
X49223Y-44911D01*
X49205Y-44894D01*
X49189Y-44884D01*
X49180Y-44880D01*
X49171Y-44876D01*
X49161Y-44873D01*
X49147Y-44872D01*
X49128Y-44870D01*
X49103Y-44869D01*
X49070Y-44869D01*
X49027Y-44868D01*
X48972Y-44868D01*
X48951Y-44868D01*
X48892Y-44868D01*
X48844Y-44869D01*
X48807Y-44869D01*
X48780Y-44870D01*
X48760Y-44872D01*
X48747Y-44873D01*
X48739Y-44876D01*
X48734Y-44879D01*
X48733Y-44879D01*
X48730Y-44884D01*
X48727Y-44893D01*
X48725Y-44907D01*
X48724Y-44928D01*
X48723Y-44958D01*
X48723Y-44998D01*
X48723Y-45050D01*
X48723Y-45053D01*
X48723Y-45099D01*
X48723Y-45140D01*
X48724Y-45175D01*
X48725Y-45201D01*
X48727Y-45217D01*
X48728Y-45220D01*
X48735Y-45222D01*
X48755Y-45222D01*
X48786Y-45223D01*
X48824Y-45223D01*
X48870Y-45224D01*
X48922Y-45223D01*
X48952Y-45223D01*
X49172Y-45221D01*
X49198Y-45204D01*
X49218Y-45188D01*
X49232Y-45169D01*
X49242Y-45145D01*
X49247Y-45114D01*
X49250Y-45072D01*
X49250Y-45045D01*
X49250Y-45817D01*
X49249Y-45817D01*
X49249Y-45503D01*
X49249Y-45474D01*
X49248Y-45453D01*
X49246Y-45437D01*
X49242Y-45425D01*
X49236Y-45412D01*
X49235Y-45409D01*
X49217Y-45383D01*
X49192Y-45365D01*
X49189Y-45363D01*
X49180Y-45359D01*
X49171Y-45356D01*
X49160Y-45353D01*
X49146Y-45351D01*
X49128Y-45350D01*
X49102Y-45349D01*
X49069Y-45348D01*
X49026Y-45348D01*
X48972Y-45348D01*
X48940Y-45348D01*
X48723Y-45348D01*
X48723Y-45520D01*
X48723Y-45575D01*
X48724Y-45623D01*
X48725Y-45661D01*
X48727Y-45688D01*
X48729Y-45703D01*
X48730Y-45705D01*
X48732Y-45708D01*
X48737Y-45711D01*
X48744Y-45713D01*
X48756Y-45715D01*
X48774Y-45716D01*
X48800Y-45717D01*
X48834Y-45717D01*
X48879Y-45718D01*
X48936Y-45718D01*
X48949Y-45718D01*
X49013Y-45718D01*
X49064Y-45717D01*
X49104Y-45716D01*
X49135Y-45715D01*
X49158Y-45713D01*
X49173Y-45711D01*
X49184Y-45708D01*
X49184Y-45708D01*
X49203Y-45697D01*
X49222Y-45679D01*
X49227Y-45673D01*
X49234Y-45662D01*
X49240Y-45653D01*
X49243Y-45641D01*
X49246Y-45625D01*
X49247Y-45602D01*
X49248Y-45570D01*
X49249Y-45544D01*
X49249Y-45503D01*
X49249Y-45817D01*
X49224Y-45831D01*
X49216Y-45834D01*
X49206Y-45837D01*
X49190Y-45839D01*
X49166Y-45841D01*
X49134Y-45842D01*
X49092Y-45844D01*
X49039Y-45845D01*
X48974Y-45846D01*
X48925Y-45846D01*
X48857Y-45847D01*
X48801Y-45847D01*
X48757Y-45847D01*
X48722Y-45847D01*
X48695Y-45846D01*
X48675Y-45845D01*
X48660Y-45844D01*
X48649Y-45842D01*
X48641Y-45839D01*
X48635Y-45836D01*
X48634Y-45836D01*
X48615Y-45820D01*
X48599Y-45801D01*
X48598Y-45799D01*
X48596Y-45794D01*
X48593Y-45788D01*
X48592Y-45780D01*
X48590Y-45769D01*
X48589Y-45753D01*
X48588Y-45733D01*
X48588Y-45707D01*
X48587Y-45673D01*
X48587Y-45632D01*
X48587Y-45582D01*
X48587Y-45522D01*
X48587Y-45451D01*
X48587Y-45368D01*
X48587Y-45286D01*
X48588Y-45190D01*
X48588Y-45107D01*
X48588Y-45036D01*
X48589Y-44976D01*
X48589Y-44925D01*
X48590Y-44884D01*
X48592Y-44850D01*
X48594Y-44824D01*
X48596Y-44804D01*
X48599Y-44788D01*
X48603Y-44778D01*
X48607Y-44770D01*
X48612Y-44765D01*
X48618Y-44761D01*
X48625Y-44758D01*
X48632Y-44755D01*
X48639Y-44753D01*
X48649Y-44750D01*
X48664Y-44749D01*
X48684Y-44747D01*
X48711Y-44747D01*
X48746Y-44746D01*
X48791Y-44746D01*
X48847Y-44746D01*
X48915Y-44747D01*
X48926Y-44747D01*
X49199Y-44749D01*
X49240Y-44768D01*
X49288Y-44797D01*
X49328Y-44836D01*
X49360Y-44882D01*
X49364Y-44892D01*
X49371Y-44908D01*
X49377Y-44922D01*
X49380Y-44937D01*
X49382Y-44956D01*
X49383Y-44981D01*
X49384Y-45015D01*
X49384Y-45043D01*
X49384Y-45084D01*
X49383Y-45115D01*
X49382Y-45137D01*
X49379Y-45153D01*
X49376Y-45166D01*
X49370Y-45178D01*
X49365Y-45188D01*
X49352Y-45209D01*
X49333Y-45231D01*
X49313Y-45252D01*
X49294Y-45269D01*
X49278Y-45278D01*
X49273Y-45279D01*
X49265Y-45283D01*
X49264Y-45286D01*
X49269Y-45292D01*
X49275Y-45293D01*
X49287Y-45298D01*
X49305Y-45312D01*
X49325Y-45333D01*
X49345Y-45356D01*
X49362Y-45379D01*
X49373Y-45400D01*
X49376Y-45406D01*
X49382Y-45433D01*
X49386Y-45469D01*
X49388Y-45512D01*
X49388Y-45512D01*
X49388Y-45512D01*
G37*
G36*
X48338Y-44479D02*
X48337Y-44515D01*
X48336Y-44543D01*
X48333Y-44563D01*
X48328Y-44578D01*
X48321Y-44591D01*
X48313Y-44601D01*
X48308Y-44606D01*
X48286Y-44629D01*
X48203Y-44629D01*
X48120Y-44629D01*
X48120Y-44609D01*
X48120Y-44589D01*
X48195Y-44587D01*
X48233Y-44584D01*
X48260Y-44581D01*
X48276Y-44577D01*
X48278Y-44576D01*
X48283Y-44565D01*
X48288Y-44545D01*
X48290Y-44525D01*
X48291Y-44502D01*
X48291Y-44490D01*
X48287Y-44487D01*
X48280Y-44488D01*
X48277Y-44489D01*
X48256Y-44493D01*
X48228Y-44495D01*
X48199Y-44494D01*
X48172Y-44491D01*
X48153Y-44486D01*
X48152Y-44485D01*
X48137Y-44476D01*
X48126Y-44466D01*
X48118Y-44451D01*
X48113Y-44431D01*
X48110Y-44403D01*
X48108Y-44365D01*
X48107Y-44333D01*
X48105Y-44225D01*
X48130Y-44225D01*
X48154Y-44225D01*
X48154Y-44322D01*
X48154Y-44367D01*
X48156Y-44400D01*
X48160Y-44423D01*
X48166Y-44438D01*
X48177Y-44446D01*
X48193Y-44450D01*
X48215Y-44450D01*
X48223Y-44451D01*
X48246Y-44450D01*
X48264Y-44447D01*
X48276Y-44441D01*
X48284Y-44428D01*
X48289Y-44408D01*
X48291Y-44378D01*
X48291Y-44337D01*
X48291Y-44322D01*
X48291Y-44224D01*
X48313Y-44226D01*
X48336Y-44228D01*
X48338Y-44375D01*
X48338Y-44433D01*
X48338Y-44479D01*
X48338Y-44479D01*
X48338Y-44479D01*
G37*
G36*
X47771Y-44405D02*
X47769Y-44436D01*
X47762Y-44459D01*
X47748Y-44476D01*
X47727Y-44487D01*
X47697Y-44494D01*
X47655Y-44498D01*
X47614Y-44499D01*
X47537Y-44499D01*
X47539Y-44476D01*
X47541Y-44454D01*
X47629Y-44451D01*
X47668Y-44449D01*
X47696Y-44446D01*
X47714Y-44442D01*
X47724Y-44435D01*
X47728Y-44425D01*
X47728Y-44412D01*
X47728Y-44410D01*
X47726Y-44403D01*
X47721Y-44397D01*
X47711Y-44392D01*
X47694Y-44386D01*
X47667Y-44378D01*
X47640Y-44372D01*
X47607Y-44363D01*
X47578Y-44355D01*
X47557Y-44349D01*
X47546Y-44345D01*
X47546Y-44345D01*
X47541Y-44336D01*
X47538Y-44317D01*
X47538Y-44302D01*
X47539Y-44279D01*
X47543Y-44263D01*
X47553Y-44251D01*
X47559Y-44244D01*
X47580Y-44225D01*
X47673Y-44225D01*
X47765Y-44225D01*
X47763Y-44243D01*
X47760Y-44262D01*
X47682Y-44264D01*
X47648Y-44266D01*
X47620Y-44268D01*
X47601Y-44271D01*
X47594Y-44274D01*
X47588Y-44286D01*
X47587Y-44299D01*
X47589Y-44307D01*
X47594Y-44314D01*
X47606Y-44319D01*
X47625Y-44325D01*
X47654Y-44332D01*
X47686Y-44340D01*
X47715Y-44347D01*
X47738Y-44353D01*
X47745Y-44355D01*
X47771Y-44362D01*
X47771Y-44405D01*
X47771Y-44405D01*
X47771Y-44405D01*
G37*
G36*
X48065Y-44495D02*
X48059Y-44497D01*
X48044Y-44499D01*
X48041Y-44499D01*
X48030Y-44498D01*
X48021Y-44495D01*
X48013Y-44486D01*
X48004Y-44471D01*
X47991Y-44446D01*
X47988Y-44440D01*
X47959Y-44382D01*
X47923Y-44382D01*
X47888Y-44382D01*
X47886Y-44439D01*
X47884Y-44495D01*
X47861Y-44497D01*
X47839Y-44499D01*
X47839Y-44293D01*
X47839Y-44087D01*
X47861Y-44089D01*
X47884Y-44091D01*
X47885Y-44217D01*
X47887Y-44343D01*
X47935Y-44340D01*
X47960Y-44337D01*
X47980Y-44333D01*
X47991Y-44329D01*
X47991Y-44329D01*
X47996Y-44318D01*
X48000Y-44298D01*
X48002Y-44273D01*
X48002Y-44272D01*
X48005Y-44225D01*
X48028Y-44225D01*
X48051Y-44225D01*
X48051Y-44261D01*
X48048Y-44306D01*
X48036Y-44341D01*
X48023Y-44359D01*
X48007Y-44376D01*
X48036Y-44434D01*
X48049Y-44459D01*
X48058Y-44480D01*
X48064Y-44493D01*
X48065Y-44495D01*
X48065Y-44495D01*
X48065Y-44495D01*
G37*
G36*
X48579Y-44499D02*
X48526Y-44498D01*
X48499Y-44497D01*
X48477Y-44496D01*
X48463Y-44494D01*
X48462Y-44494D01*
X48439Y-44485D01*
X48423Y-44473D01*
X48412Y-44457D01*
X48405Y-44435D01*
X48402Y-44403D01*
X48401Y-44359D01*
X48401Y-44358D01*
X48402Y-44312D01*
X48407Y-44278D01*
X48417Y-44253D01*
X48434Y-44238D01*
X48459Y-44229D01*
X48494Y-44225D01*
X48520Y-44225D01*
X48579Y-44225D01*
X48579Y-44245D01*
X48579Y-44266D01*
X48531Y-44266D01*
X48504Y-44267D01*
X48481Y-44269D01*
X48466Y-44272D01*
X48459Y-44276D01*
X48454Y-44281D01*
X48451Y-44289D01*
X48449Y-44305D01*
X48449Y-44329D01*
X48449Y-44357D01*
X48449Y-44398D01*
X48452Y-44426D01*
X48456Y-44441D01*
X48457Y-44442D01*
X48469Y-44447D01*
X48491Y-44450D01*
X48522Y-44451D01*
X48579Y-44451D01*
X48579Y-44475D01*
X48579Y-44499D01*
X48579Y-44499D01*
X48579Y-44499D01*
G37*
G36*
X48860Y-44384D02*
X48859Y-44430D01*
X48858Y-44462D01*
X48855Y-44482D01*
X48851Y-44490D01*
X48842Y-44493D01*
X48822Y-44496D01*
X48812Y-44496D01*
X48812Y-44451D01*
X48812Y-44408D01*
X48812Y-44365D01*
X48755Y-44367D01*
X48728Y-44369D01*
X48705Y-44372D01*
X48692Y-44376D01*
X48690Y-44377D01*
X48683Y-44390D01*
X48681Y-44409D01*
X48684Y-44428D01*
X48691Y-44442D01*
X48694Y-44443D01*
X48706Y-44447D01*
X48728Y-44449D01*
X48754Y-44450D01*
X48759Y-44450D01*
X48812Y-44451D01*
X48812Y-44496D01*
X48795Y-44497D01*
X48765Y-44498D01*
X48735Y-44498D01*
X48709Y-44496D01*
X48691Y-44494D01*
X48669Y-44483D01*
X48651Y-44462D01*
X48638Y-44435D01*
X48635Y-44418D01*
X48636Y-44383D01*
X48646Y-44357D01*
X48666Y-44338D01*
X48697Y-44326D01*
X48739Y-44321D01*
X48757Y-44320D01*
X48784Y-44320D01*
X48800Y-44319D01*
X48808Y-44316D01*
X48811Y-44311D01*
X48812Y-44304D01*
X48808Y-44287D01*
X48796Y-44276D01*
X48774Y-44269D01*
X48740Y-44266D01*
X48721Y-44266D01*
X48661Y-44266D01*
X48661Y-44245D01*
X48661Y-44225D01*
X48733Y-44225D01*
X48773Y-44225D01*
X48804Y-44229D01*
X48827Y-44238D01*
X48842Y-44252D01*
X48852Y-44274D01*
X48857Y-44306D01*
X48859Y-44348D01*
X48860Y-44384D01*
X48860Y-44384D01*
X48860Y-44384D01*
G37*
G36*
X49154Y-44499D02*
X49132Y-44497D01*
X49110Y-44495D01*
X49108Y-44387D01*
X49107Y-44344D01*
X49105Y-44312D01*
X49102Y-44290D01*
X49095Y-44276D01*
X49084Y-44269D01*
X49067Y-44266D01*
X49043Y-44266D01*
X49026Y-44267D01*
X48973Y-44269D01*
X48971Y-44384D01*
X48969Y-44499D01*
X48945Y-44499D01*
X48921Y-44499D01*
X48921Y-44377D01*
X48921Y-44327D01*
X48922Y-44290D01*
X48925Y-44263D01*
X48930Y-44245D01*
X48939Y-44233D01*
X48953Y-44227D01*
X48974Y-44225D01*
X49001Y-44224D01*
X49018Y-44225D01*
X49061Y-44225D01*
X49093Y-44228D01*
X49117Y-44236D01*
X49134Y-44249D01*
X49145Y-44269D01*
X49151Y-44298D01*
X49154Y-44338D01*
X49154Y-44389D01*
X49154Y-44499D01*
X49154Y-44499D01*
X49154Y-44499D01*
G37*
G36*
X49277Y-44490D02*
X49273Y-44497D01*
X49260Y-44499D01*
X49255Y-44499D01*
X49238Y-44497D01*
X49228Y-44494D01*
X49227Y-44494D01*
X49224Y-44485D01*
X49223Y-44468D01*
X49223Y-44466D01*
X49223Y-44451D01*
X49229Y-44445D01*
X49242Y-44445D01*
X49248Y-44445D01*
X49265Y-44448D01*
X49273Y-44454D01*
X49276Y-44469D01*
X49276Y-44473D01*
X49277Y-44490D01*
X49277Y-44490D01*
X49277Y-44490D01*
G37*
G36*
X49394Y-44499D02*
X49370Y-44499D01*
X49346Y-44499D01*
X49346Y-44362D01*
X49346Y-44225D01*
X49370Y-44225D01*
X49394Y-44225D01*
X49394Y-44362D01*
X49394Y-44499D01*
X49394Y-44499D01*
X49394Y-44499D01*
G37*
G36*
X49694Y-44343D02*
X49694Y-44375D01*
X49691Y-44419D01*
X49684Y-44452D01*
X49673Y-44474D01*
X49654Y-44488D01*
X49647Y-44490D01*
X49647Y-44360D01*
X49647Y-44323D01*
X49644Y-44297D01*
X49637Y-44280D01*
X49625Y-44271D01*
X49606Y-44267D01*
X49579Y-44266D01*
X49576Y-44266D01*
X49548Y-44267D01*
X49527Y-44270D01*
X49519Y-44274D01*
X49514Y-44285D01*
X49511Y-44307D01*
X49510Y-44335D01*
X49510Y-44366D01*
X49511Y-44396D01*
X49514Y-44422D01*
X49518Y-44441D01*
X49521Y-44447D01*
X49536Y-44454D01*
X49560Y-44458D01*
X49587Y-44458D01*
X49612Y-44454D01*
X49630Y-44447D01*
X49634Y-44444D01*
X49640Y-44436D01*
X49644Y-44425D01*
X49646Y-44409D01*
X49647Y-44383D01*
X49647Y-44360D01*
X49647Y-44490D01*
X49627Y-44496D01*
X49589Y-44498D01*
X49574Y-44499D01*
X49544Y-44498D01*
X49524Y-44496D01*
X49510Y-44492D01*
X49499Y-44486D01*
X49496Y-44483D01*
X49482Y-44470D01*
X49473Y-44456D01*
X49467Y-44438D01*
X49464Y-44413D01*
X49462Y-44379D01*
X49462Y-44358D01*
X49463Y-44311D01*
X49468Y-44276D01*
X49477Y-44252D01*
X49493Y-44235D01*
X49516Y-44226D01*
X49549Y-44222D01*
X49579Y-44221D01*
X49610Y-44222D01*
X49631Y-44224D01*
X49646Y-44228D01*
X49658Y-44235D01*
X49659Y-44236D01*
X49675Y-44252D01*
X49686Y-44273D01*
X49692Y-44303D01*
X49694Y-44343D01*
X49694Y-44343D01*
X49694Y-44343D01*
G37*
G36*
X49394Y-44125D02*
X49393Y-44141D01*
X49387Y-44148D01*
X49372Y-44149D01*
X49370Y-44149D01*
X49354Y-44148D01*
X49347Y-44142D01*
X49346Y-44127D01*
X49346Y-44125D01*
X49347Y-44109D01*
X49353Y-44103D01*
X49368Y-44101D01*
X49370Y-44101D01*
X49386Y-44102D01*
X49393Y-44108D01*
X49394Y-44123D01*
X49394Y-44125D01*
X49394Y-44125D01*
X49394Y-44125D01*
G37*
G54D11*
X41250Y-41335D02*
X41250Y-41550D01*
X41235Y-41592D01*
X41207Y-41621D01*
X41164Y-41635D01*
X41135Y-41635D01*
X41550Y-41635D02*
X41378Y-41635D01*
X41464Y-41635D02*
X41464Y-41335D01*
X41435Y-41378D01*
X41407Y-41407D01*
X41378Y-41421D01*
X56950Y-41135D02*
X56950Y-41350D01*
X56935Y-41392D01*
X56907Y-41421D01*
X56864Y-41435D01*
X56835Y-41435D01*
X57064Y-41135D02*
X57250Y-41135D01*
X57150Y-41250D01*
X57192Y-41250D01*
X57221Y-41264D01*
X57235Y-41278D01*
X57250Y-41307D01*
X57250Y-41378D01*
X57235Y-41407D01*
X57221Y-41421D01*
X57192Y-41435D01*
X57107Y-41435D01*
X57078Y-41421D01*
X57064Y-41407D01*
G54D15*
X55866Y-51480D02*
X55866Y-51766D01*
X55847Y-51823D01*
X55809Y-51861D01*
X55752Y-51880D01*
X55714Y-51880D01*
X56247Y-51480D02*
X56057Y-51480D01*
X56038Y-51671D01*
X56057Y-51652D01*
X56095Y-51633D01*
X56190Y-51633D01*
X56228Y-51652D01*
X56247Y-51671D01*
X56266Y-51709D01*
X56266Y-51804D01*
X56247Y-51842D01*
X56228Y-51861D01*
X56190Y-51880D01*
X56095Y-51880D01*
X56057Y-51861D01*
X56038Y-51842D01*
X42266Y-38480D02*
X42266Y-38766D01*
X42247Y-38823D01*
X42209Y-38861D01*
X42152Y-38880D01*
X42114Y-38880D01*
X42628Y-38480D02*
X42552Y-38480D01*
X42514Y-38500D01*
X42495Y-38519D01*
X42457Y-38576D01*
X42438Y-38652D01*
X42438Y-38804D01*
X42457Y-38842D01*
X42476Y-38861D01*
X42514Y-38880D01*
X42590Y-38880D01*
X42628Y-38861D01*
X42647Y-38842D01*
X42666Y-38804D01*
X42666Y-38709D01*
X42647Y-38671D01*
X42628Y-38652D01*
X42590Y-38633D01*
X42514Y-38633D01*
X42476Y-38652D01*
X42457Y-38671D01*
X42438Y-38709D01*
M02*
