M48
INCH,TZ

T1C0.012
T2C0.030
T3C0.040
T4C0.051
T5C0.122
%
G90
G05
M72
T1
X39800Y-39800

X39800Y-40400

X39800Y-41000

X39800Y-41600

X39800Y-42200

X39800Y-42800

X39800Y-43400

X39800Y-44000

X39800Y-44600

X39800Y-45200

X39800Y-45800

X39800Y-46400

X39800Y-47000

X39800Y-47600

X39800Y-48200

X39800Y-48800

X39800Y-49400

X39800Y-50000

X39800Y-50600

X40000Y-39400

X40000Y-51200

X40400Y-39000

X40400Y-51600

X40800Y-38600

X40800Y-52000

X41200Y-38200

X41200Y-52400

X41600Y-37800

X41600Y-52800

X42000Y-37400

X42000Y-53200

X42244Y-42913

X42244Y-43307

X42244Y-43701

X42244Y-44094

X42244Y-44488

X42244Y-44882

X42244Y-45276

X42244Y-45669

X42244Y-46063

X42244Y-46457

X42244Y-46850

X42244Y-47244

X42244Y-47638

X42400Y-37000

X42400Y-53600

X42795Y-43110

X42795Y-43504

X42795Y-43898

X42795Y-44291

X42795Y-44685

X42795Y-45079

X42795Y-45472

X42795Y-45866

X42795Y-46260

X42795Y-46654

X42795Y-47047

X42795Y-47441

X42800Y-36600

X42800Y-54000

X43200Y-36200

X43200Y-54400

X43600Y-35800

X43600Y-54800

X44200Y-35800

X44600Y-54800

X44800Y-35800

X45200Y-54800

X45400Y-35800

X45800Y-54800

X46000Y-35800

X46400Y-54800

X46600Y-35800

X47000Y-54800

X47200Y-35800

X47600Y-54800

X47800Y-35800

X48200Y-54800

X48400Y-35800

X48800Y-54800

X49000Y-35800

X49400Y-54800

X49600Y-35800

X50000Y-54800

X50200Y-35800

X50600Y-54800

X50800Y-35800

X51200Y-54800

X51400Y-35800

X51800Y-54800

X52000Y-35800

X52400Y-54800

X52600Y-35800

X53000Y-54800

X53200Y-35800

X53600Y-54800

X53800Y-35800

X54200Y-54800

X54400Y-35800

X54800Y-54800

X55000Y-35800

X55200Y-54400

X55400Y-36200

X55600Y-54000

X55669Y-42913

X55669Y-43307

X55669Y-43701

X55669Y-44094

X55669Y-44488

X55669Y-44882

X55669Y-45276

X55669Y-45669

X55669Y-46063

X55669Y-46457

X55669Y-46850

X55669Y-47244

X55800Y-36600

X56000Y-53600

X56181Y-42717

X56181Y-43110

X56181Y-43504

X56181Y-43898

X56181Y-44291

X56181Y-44685

X56181Y-45079

X56181Y-45472

X56181Y-45866

X56181Y-46260

X56181Y-46654

X56181Y-47047

X56181Y-47441

X56200Y-37000

X56400Y-53200

X56600Y-37400

X56800Y-52800

X57000Y-37800

X57200Y-52400

X57400Y-38200

X57600Y-52000

X57800Y-38600

X58000Y-51600

X58200Y-39000

X58400Y-51200

X58600Y-39400

X58600Y-40000

X58600Y-40600

X58600Y-41200

X58600Y-41800

X58600Y-42400

X58600Y-43000

X58600Y-43600

X58600Y-44200

X58600Y-44800

X58600Y-45400

X58600Y-46000

X58600Y-46600

X58600Y-47200

X58600Y-47800

X58600Y-48400

X58600Y-49000

X58600Y-49600

X58600Y-50200

X58600Y-50800

T2
X42504Y-41693

X42504Y-41693

X42504Y-48858

X42504Y-48858

X55921Y-41496

X55921Y-41496

X55921Y-48661

X55921Y-48661

T3
X43250Y-39450

X43250Y-40450

X43250Y-49850

X43250Y-50850

X44250Y-39450

X44250Y-40450

X44250Y-49850

X44250Y-50850

X45250Y-39450

X45250Y-40450

X45250Y-49850

X45250Y-50850

X46250Y-39450

X46250Y-40450

X46250Y-49850

X46250Y-50850

X47250Y-39450

X47250Y-40450

X47250Y-49850

X47250Y-50850

X48250Y-39450

X48250Y-40450

X48250Y-49850

X48250Y-50850

X49250Y-39450

X49250Y-40450

X49250Y-49850

X49250Y-50850

X50250Y-39450

X50250Y-40450

X50250Y-49850

X50250Y-50850

X51250Y-39450

X51250Y-40450

X51250Y-49850

X51250Y-50850

X52250Y-39450

X52250Y-40450

X52250Y-49850

X52250Y-50850

X53250Y-39450

X53250Y-40450

X53250Y-49850

X53250Y-50850

X54250Y-39450

X54250Y-40450

X54250Y-49850

X54250Y-50850

X55250Y-39450

X55250Y-40450

X55250Y-49850

X55250Y-50850

T4
X42504Y-42303

X42504Y-42303

X42504Y-48248

X42504Y-48248

X55921Y-42106

X55921Y-42106

X55921Y-48051

X55921Y-48051

T5
X44094Y-37008

X44094Y-53543

X54331Y-37008

X54331Y-53543

T0
M30
