G04 (created by PCBNEW (2013-09-06 BZR 4312)-stable) date K 20 nov   2013 22:54:32 EET*
%MOIN*%
G04 Gerber Fmt 3.4, Leading zero omitted, Abs format*
%FSLAX34Y34*%
G01*
G70*
G90*
G04 APERTURE LIST*
%ADD10C,0.000787*%
%ADD11C,0.001000*%
%ADD12R,0.133858X0.051181*%
%ADD13C,0.196850*%
%ADD14R,0.060000X0.060000*%
%ADD15C,0.060000*%
%ADD16C,0.020000*%
%ADD17C,0.005000*%
G04 APERTURE END LIST*
G54D10*
G54D11*
X49213Y-56692D02*
G75*
G03X49213Y-56692I0J0D01*
G74*
G01*
X49211Y-56692D02*
X49213Y-56692D01*
X49212Y-56691D02*
X49212Y-56693D01*
X43307Y-55118D02*
X39370Y-51181D01*
X55118Y-55118D02*
X43307Y-55118D01*
X59055Y-51181D02*
X55118Y-55118D01*
X59055Y-39370D02*
X59055Y-51181D01*
X55118Y-35433D02*
X59055Y-39370D01*
X43307Y-35433D02*
X55118Y-35433D01*
X39370Y-39370D02*
X43307Y-35433D01*
X39370Y-51181D02*
X39370Y-39370D01*
G54D12*
X42503Y-41692D03*
X42503Y-48858D03*
X42503Y-48858D03*
X42503Y-41692D03*
X55921Y-48661D03*
X55921Y-41496D03*
X55921Y-41496D03*
X55921Y-48661D03*
G54D13*
X44094Y-37007D03*
X54330Y-37007D03*
X54330Y-53543D03*
X44094Y-53543D03*
G54D14*
X55250Y-49850D03*
G54D15*
X55250Y-50850D03*
X54250Y-49850D03*
X54250Y-50850D03*
X53250Y-49850D03*
X53250Y-50850D03*
X52250Y-49850D03*
X52250Y-50850D03*
X51250Y-49850D03*
X51250Y-50850D03*
X50250Y-49850D03*
X50250Y-50850D03*
X49250Y-49850D03*
X49250Y-50850D03*
X48250Y-49850D03*
X48250Y-50850D03*
X47250Y-49850D03*
X47250Y-50850D03*
X46250Y-49850D03*
X46250Y-50850D03*
X45250Y-49850D03*
X45250Y-50850D03*
X44250Y-49850D03*
X44250Y-50850D03*
X43250Y-49850D03*
X43250Y-50850D03*
G54D14*
X43250Y-40450D03*
G54D15*
X43250Y-39450D03*
X44250Y-40450D03*
X44250Y-39450D03*
X45250Y-40450D03*
X45250Y-39450D03*
X46250Y-40450D03*
X46250Y-39450D03*
X47250Y-40450D03*
X47250Y-39450D03*
X48250Y-40450D03*
X48250Y-39450D03*
X49250Y-40450D03*
X49250Y-39450D03*
X50250Y-40450D03*
X50250Y-39450D03*
X51250Y-40450D03*
X51250Y-39450D03*
X52250Y-40450D03*
X52250Y-39450D03*
X53250Y-40450D03*
X53250Y-39450D03*
X54250Y-40450D03*
X54250Y-39450D03*
X55250Y-40450D03*
X55250Y-39450D03*
G54D16*
X56181Y-43503D03*
X56181Y-43110D03*
X56181Y-42716D03*
X55669Y-47244D03*
X55669Y-46850D03*
X42244Y-42913D03*
X42244Y-43307D03*
X42244Y-43700D03*
X42795Y-47440D03*
X42795Y-47047D03*
X42795Y-44291D03*
X42795Y-44685D03*
X42795Y-45078D03*
X42795Y-45472D03*
X42795Y-45866D03*
X42795Y-46259D03*
X42795Y-46653D03*
X55669Y-46456D03*
X55669Y-42913D03*
X56181Y-47440D03*
X56181Y-47047D03*
X56181Y-46653D03*
X56181Y-44685D03*
X56181Y-44291D03*
X56181Y-43897D03*
X42244Y-47244D03*
X42244Y-47637D03*
X42795Y-43897D03*
X42795Y-43503D03*
X42795Y-43110D03*
X58400Y-51200D03*
X58000Y-51600D03*
X57600Y-52000D03*
X57200Y-52400D03*
X56800Y-52800D03*
X56400Y-53200D03*
X56000Y-53600D03*
X55600Y-54000D03*
X55200Y-54400D03*
X54800Y-54800D03*
X40000Y-39400D03*
X40400Y-39000D03*
X40800Y-38600D03*
X41200Y-38200D03*
X41600Y-37800D03*
X42000Y-37400D03*
X42400Y-37000D03*
X42800Y-36600D03*
X43200Y-36200D03*
X43600Y-35800D03*
X43200Y-54400D03*
X42800Y-54000D03*
X42400Y-53600D03*
X42000Y-53200D03*
X41600Y-52800D03*
X41200Y-52400D03*
X40800Y-52000D03*
X40400Y-51600D03*
X40000Y-51200D03*
X39800Y-50600D03*
X43600Y-54800D03*
X39800Y-39800D03*
X39800Y-40400D03*
X39800Y-41000D03*
X39800Y-41600D03*
X39800Y-42200D03*
X39800Y-42800D03*
X39800Y-43400D03*
X39800Y-44000D03*
X39800Y-44600D03*
X39800Y-45200D03*
X39800Y-45800D03*
X39800Y-46400D03*
X39800Y-47000D03*
X39800Y-47600D03*
X39800Y-48200D03*
X39800Y-48800D03*
X39800Y-49400D03*
X39800Y-50000D03*
X54400Y-35800D03*
X53800Y-35800D03*
X53200Y-35800D03*
X52600Y-35800D03*
X52000Y-35800D03*
X51400Y-35800D03*
X50800Y-35800D03*
X50200Y-35800D03*
X49600Y-35800D03*
X49000Y-35800D03*
X48400Y-35800D03*
X47800Y-35800D03*
X47200Y-35800D03*
X46600Y-35800D03*
X46000Y-35800D03*
X45400Y-35800D03*
X44800Y-35800D03*
X44200Y-35800D03*
X55000Y-35800D03*
X55400Y-36200D03*
X55800Y-36600D03*
X56200Y-37000D03*
X56600Y-37400D03*
X57000Y-37800D03*
X57400Y-38200D03*
X57800Y-38600D03*
X58200Y-39000D03*
X58600Y-39400D03*
X58600Y-50800D03*
X58600Y-50200D03*
X58600Y-49600D03*
X58600Y-49000D03*
X58600Y-48400D03*
X58600Y-47800D03*
X58600Y-47200D03*
X58600Y-46600D03*
X58600Y-46000D03*
X58600Y-45400D03*
X58600Y-44800D03*
X58600Y-44200D03*
X58600Y-43600D03*
X58600Y-43000D03*
X58600Y-42400D03*
X58600Y-41800D03*
X58600Y-41200D03*
X58600Y-40600D03*
X58600Y-40000D03*
X44600Y-54800D03*
X45200Y-54800D03*
X45800Y-54800D03*
X46400Y-54800D03*
X47000Y-54800D03*
X47600Y-54800D03*
X48200Y-54800D03*
X48800Y-54800D03*
X49400Y-54800D03*
X50000Y-54800D03*
X50600Y-54800D03*
X51200Y-54800D03*
X51800Y-54800D03*
X52400Y-54800D03*
X53000Y-54800D03*
X53600Y-54800D03*
X54200Y-54800D03*
X42244Y-46850D03*
X42244Y-46456D03*
X42244Y-46062D03*
X42244Y-45669D03*
X42244Y-45275D03*
X42244Y-44881D03*
X42244Y-44488D03*
X42244Y-44094D03*
X56181Y-45078D03*
X56181Y-45472D03*
X56181Y-45866D03*
X55669Y-45669D03*
X55669Y-46062D03*
X55669Y-44881D03*
X55669Y-43700D03*
X55669Y-44488D03*
X55669Y-43307D03*
X55669Y-45275D03*
X55669Y-44094D03*
X56181Y-46259D03*
G54D10*
G36*
X58950Y-51137D02*
X56689Y-53398D01*
X56689Y-48937D01*
X56689Y-48897D01*
X56689Y-48385D01*
X56689Y-41771D01*
X56689Y-41732D01*
X56689Y-41220D01*
X56674Y-41183D01*
X56646Y-41155D01*
X56610Y-41140D01*
X56570Y-41140D01*
X55649Y-41140D01*
X55649Y-40370D01*
X55626Y-40316D01*
X55626Y-39514D01*
X55622Y-39365D01*
X55573Y-39245D01*
X55524Y-39211D01*
X55488Y-39246D01*
X55488Y-39175D01*
X55454Y-39126D01*
X55314Y-39073D01*
X55165Y-39077D01*
X55045Y-39126D01*
X55011Y-39175D01*
X55250Y-39414D01*
X55488Y-39175D01*
X55488Y-39246D01*
X55285Y-39450D01*
X55524Y-39688D01*
X55573Y-39654D01*
X55626Y-39514D01*
X55626Y-40316D01*
X55588Y-40224D01*
X55488Y-40123D01*
X55488Y-39724D01*
X55250Y-39485D01*
X55214Y-39520D01*
X55214Y-39450D01*
X54975Y-39211D01*
X54926Y-39245D01*
X54873Y-39385D01*
X54877Y-39534D01*
X54926Y-39654D01*
X54975Y-39688D01*
X55214Y-39450D01*
X55214Y-39520D01*
X55011Y-39724D01*
X55045Y-39773D01*
X55185Y-39826D01*
X55334Y-39822D01*
X55454Y-39773D01*
X55488Y-39724D01*
X55488Y-40123D01*
X55476Y-40111D01*
X55329Y-40050D01*
X55170Y-40050D01*
X55024Y-40111D01*
X54911Y-40223D01*
X54850Y-40370D01*
X54850Y-40529D01*
X54911Y-40675D01*
X55023Y-40788D01*
X55170Y-40849D01*
X55329Y-40849D01*
X55475Y-40788D01*
X55588Y-40676D01*
X55649Y-40529D01*
X55649Y-40370D01*
X55649Y-41140D01*
X55232Y-41140D01*
X55195Y-41155D01*
X55167Y-41183D01*
X55152Y-41220D01*
X55152Y-41259D01*
X55152Y-41771D01*
X55167Y-41808D01*
X55195Y-41836D01*
X55232Y-41851D01*
X55271Y-41851D01*
X55673Y-41851D01*
X55620Y-41904D01*
X55566Y-42035D01*
X55565Y-42176D01*
X55619Y-42307D01*
X55719Y-42407D01*
X55850Y-42461D01*
X55991Y-42461D01*
X56122Y-42407D01*
X56222Y-42307D01*
X56276Y-42177D01*
X56276Y-42035D01*
X56222Y-41905D01*
X56168Y-41851D01*
X56610Y-41851D01*
X56646Y-41836D01*
X56674Y-41808D01*
X56689Y-41771D01*
X56689Y-48385D01*
X56674Y-48349D01*
X56646Y-48321D01*
X56610Y-48306D01*
X56570Y-48306D01*
X56380Y-48306D01*
X56380Y-46220D01*
X56350Y-46147D01*
X56294Y-46090D01*
X56226Y-46062D01*
X56293Y-46035D01*
X56350Y-45979D01*
X56380Y-45905D01*
X56380Y-45826D01*
X56350Y-45753D01*
X56294Y-45697D01*
X56226Y-45669D01*
X56293Y-45641D01*
X56350Y-45585D01*
X56380Y-45512D01*
X56380Y-45432D01*
X56350Y-45359D01*
X56294Y-45303D01*
X56226Y-45275D01*
X56293Y-45247D01*
X56350Y-45191D01*
X56380Y-45118D01*
X56380Y-45039D01*
X56380Y-43464D01*
X56350Y-43391D01*
X56294Y-43334D01*
X56226Y-43307D01*
X56293Y-43279D01*
X56350Y-43223D01*
X56380Y-43150D01*
X56380Y-43070D01*
X56350Y-42997D01*
X56294Y-42941D01*
X56226Y-42913D01*
X56293Y-42885D01*
X56350Y-42829D01*
X56380Y-42756D01*
X56380Y-42677D01*
X56350Y-42603D01*
X56294Y-42547D01*
X56220Y-42517D01*
X56141Y-42517D01*
X56068Y-42547D01*
X56012Y-42603D01*
X55981Y-42676D01*
X55981Y-42756D01*
X56011Y-42829D01*
X56067Y-42885D01*
X56135Y-42913D01*
X56068Y-42941D01*
X56012Y-42997D01*
X55981Y-43070D01*
X55981Y-43149D01*
X56011Y-43223D01*
X56067Y-43279D01*
X56135Y-43307D01*
X56068Y-43334D01*
X56012Y-43390D01*
X55981Y-43464D01*
X55981Y-43543D01*
X56011Y-43616D01*
X56067Y-43672D01*
X56141Y-43703D01*
X56220Y-43703D01*
X56293Y-43673D01*
X56350Y-43617D01*
X56380Y-43543D01*
X56380Y-43464D01*
X56380Y-45039D01*
X56350Y-44965D01*
X56294Y-44909D01*
X56220Y-44879D01*
X56141Y-44879D01*
X56068Y-44909D01*
X56012Y-44965D01*
X55981Y-45038D01*
X55981Y-45118D01*
X56011Y-45191D01*
X56067Y-45247D01*
X56135Y-45275D01*
X56068Y-45303D01*
X56012Y-45359D01*
X55981Y-45432D01*
X55981Y-45511D01*
X56011Y-45585D01*
X56067Y-45641D01*
X56135Y-45669D01*
X56068Y-45696D01*
X56012Y-45753D01*
X55981Y-45826D01*
X55981Y-45905D01*
X56011Y-45978D01*
X56067Y-46035D01*
X56135Y-46063D01*
X56068Y-46090D01*
X56012Y-46146D01*
X55981Y-46220D01*
X55981Y-46299D01*
X56011Y-46372D01*
X56067Y-46428D01*
X56141Y-46459D01*
X56220Y-46459D01*
X56293Y-46428D01*
X56350Y-46372D01*
X56380Y-46299D01*
X56380Y-46220D01*
X56380Y-48306D01*
X56168Y-48306D01*
X56222Y-48252D01*
X56276Y-48122D01*
X56276Y-47980D01*
X56222Y-47850D01*
X56122Y-47750D01*
X55992Y-47695D01*
X55868Y-47695D01*
X55868Y-47204D01*
X55838Y-47131D01*
X55782Y-47075D01*
X55715Y-47047D01*
X55782Y-47019D01*
X55838Y-46963D01*
X55868Y-46890D01*
X55868Y-46810D01*
X55838Y-46737D01*
X55782Y-46681D01*
X55715Y-46653D01*
X55782Y-46625D01*
X55838Y-46569D01*
X55868Y-46496D01*
X55868Y-46417D01*
X55838Y-46343D01*
X55782Y-46287D01*
X55715Y-46259D01*
X55782Y-46232D01*
X55838Y-46176D01*
X55868Y-46102D01*
X55868Y-46023D01*
X55838Y-45950D01*
X55782Y-45894D01*
X55715Y-45866D01*
X55782Y-45838D01*
X55838Y-45782D01*
X55868Y-45709D01*
X55868Y-45629D01*
X55838Y-45556D01*
X55782Y-45500D01*
X55715Y-45472D01*
X55782Y-45444D01*
X55838Y-45388D01*
X55868Y-45315D01*
X55868Y-45236D01*
X55838Y-45162D01*
X55782Y-45106D01*
X55715Y-45078D01*
X55782Y-45051D01*
X55838Y-44994D01*
X55868Y-44921D01*
X55868Y-44842D01*
X55838Y-44769D01*
X55782Y-44712D01*
X55715Y-44685D01*
X55782Y-44657D01*
X55838Y-44601D01*
X55868Y-44528D01*
X55868Y-44448D01*
X55838Y-44375D01*
X55782Y-44319D01*
X55715Y-44291D01*
X55782Y-44263D01*
X55838Y-44207D01*
X55868Y-44134D01*
X55868Y-44054D01*
X55838Y-43981D01*
X55782Y-43925D01*
X55715Y-43897D01*
X55782Y-43869D01*
X55838Y-43813D01*
X55868Y-43740D01*
X55868Y-43661D01*
X55838Y-43587D01*
X55782Y-43531D01*
X55715Y-43503D01*
X55782Y-43476D01*
X55838Y-43420D01*
X55868Y-43346D01*
X55868Y-43267D01*
X55838Y-43194D01*
X55782Y-43138D01*
X55715Y-43110D01*
X55782Y-43082D01*
X55838Y-43026D01*
X55868Y-42953D01*
X55868Y-42873D01*
X55838Y-42800D01*
X55782Y-42744D01*
X55709Y-42714D01*
X55629Y-42713D01*
X55556Y-42744D01*
X55500Y-42800D01*
X55469Y-42873D01*
X55469Y-42952D01*
X55500Y-43026D01*
X55556Y-43082D01*
X55623Y-43110D01*
X55556Y-43137D01*
X55500Y-43193D01*
X55469Y-43267D01*
X55469Y-43346D01*
X55500Y-43419D01*
X55556Y-43476D01*
X55623Y-43503D01*
X55556Y-43531D01*
X55500Y-43587D01*
X55469Y-43660D01*
X55469Y-43740D01*
X55500Y-43813D01*
X55556Y-43869D01*
X55623Y-43897D01*
X55556Y-43925D01*
X55500Y-43981D01*
X55469Y-44054D01*
X55469Y-44133D01*
X55500Y-44207D01*
X55556Y-44263D01*
X55623Y-44291D01*
X55556Y-44319D01*
X55500Y-44375D01*
X55469Y-44448D01*
X55469Y-44527D01*
X55500Y-44600D01*
X55556Y-44657D01*
X55623Y-44685D01*
X55556Y-44712D01*
X55500Y-44768D01*
X55469Y-44842D01*
X55469Y-44921D01*
X55500Y-44994D01*
X55556Y-45050D01*
X55623Y-45078D01*
X55556Y-45106D01*
X55500Y-45162D01*
X55469Y-45235D01*
X55469Y-45315D01*
X55500Y-45388D01*
X55556Y-45444D01*
X55623Y-45472D01*
X55556Y-45500D01*
X55500Y-45556D01*
X55469Y-45629D01*
X55469Y-45708D01*
X55500Y-45782D01*
X55556Y-45838D01*
X55623Y-45866D01*
X55556Y-45893D01*
X55500Y-45949D01*
X55469Y-46023D01*
X55469Y-46102D01*
X55500Y-46175D01*
X55556Y-46231D01*
X55623Y-46259D01*
X55556Y-46287D01*
X55500Y-46343D01*
X55469Y-46416D01*
X55469Y-46496D01*
X55500Y-46569D01*
X55556Y-46625D01*
X55623Y-46653D01*
X55556Y-46681D01*
X55500Y-46737D01*
X55469Y-46810D01*
X55469Y-46889D01*
X55500Y-46963D01*
X55556Y-47019D01*
X55623Y-47047D01*
X55556Y-47074D01*
X55500Y-47130D01*
X55469Y-47204D01*
X55469Y-47283D01*
X55500Y-47356D01*
X55556Y-47413D01*
X55629Y-47443D01*
X55708Y-47443D01*
X55782Y-47413D01*
X55838Y-47357D01*
X55868Y-47283D01*
X55868Y-47204D01*
X55868Y-47695D01*
X55850Y-47695D01*
X55720Y-47749D01*
X55620Y-47849D01*
X55566Y-47980D01*
X55565Y-48121D01*
X55619Y-48252D01*
X55673Y-48306D01*
X55232Y-48306D01*
X55195Y-48321D01*
X55167Y-48349D01*
X55152Y-48385D01*
X55152Y-48425D01*
X55152Y-48937D01*
X55167Y-48973D01*
X55195Y-49001D01*
X55232Y-49016D01*
X55271Y-49016D01*
X56610Y-49016D01*
X56646Y-49001D01*
X56674Y-48973D01*
X56689Y-48937D01*
X56689Y-53398D01*
X55649Y-54439D01*
X55649Y-50169D01*
X55649Y-50130D01*
X55649Y-49530D01*
X55634Y-49493D01*
X55606Y-49465D01*
X55569Y-49450D01*
X55530Y-49450D01*
X54930Y-49450D01*
X54893Y-49465D01*
X54865Y-49493D01*
X54850Y-49530D01*
X54850Y-49569D01*
X54850Y-50169D01*
X54865Y-50206D01*
X54893Y-50234D01*
X54930Y-50249D01*
X54969Y-50249D01*
X55569Y-50249D01*
X55606Y-50234D01*
X55634Y-50206D01*
X55649Y-50169D01*
X55649Y-54439D01*
X55626Y-54461D01*
X55626Y-50914D01*
X55622Y-50765D01*
X55573Y-50645D01*
X55524Y-50611D01*
X55488Y-50646D01*
X55488Y-50575D01*
X55454Y-50526D01*
X55314Y-50473D01*
X55165Y-50477D01*
X55045Y-50526D01*
X55011Y-50575D01*
X55250Y-50814D01*
X55488Y-50575D01*
X55488Y-50646D01*
X55285Y-50850D01*
X55524Y-51088D01*
X55573Y-51054D01*
X55626Y-50914D01*
X55626Y-54461D01*
X55488Y-54599D01*
X55488Y-51124D01*
X55250Y-50885D01*
X55214Y-50920D01*
X55214Y-50850D01*
X54975Y-50611D01*
X54926Y-50645D01*
X54873Y-50785D01*
X54877Y-50934D01*
X54926Y-51054D01*
X54975Y-51088D01*
X55214Y-50850D01*
X55214Y-50920D01*
X55011Y-51124D01*
X55045Y-51173D01*
X55185Y-51226D01*
X55334Y-51222D01*
X55454Y-51173D01*
X55488Y-51124D01*
X55488Y-54599D01*
X55074Y-55013D01*
X54649Y-55013D01*
X54649Y-49770D01*
X54649Y-40370D01*
X54626Y-40316D01*
X54626Y-39514D01*
X54622Y-39365D01*
X54573Y-39245D01*
X54524Y-39211D01*
X54488Y-39246D01*
X54488Y-39175D01*
X54454Y-39126D01*
X54314Y-39073D01*
X54165Y-39077D01*
X54045Y-39126D01*
X54011Y-39175D01*
X54250Y-39414D01*
X54488Y-39175D01*
X54488Y-39246D01*
X54285Y-39450D01*
X54524Y-39688D01*
X54573Y-39654D01*
X54626Y-39514D01*
X54626Y-40316D01*
X54588Y-40224D01*
X54488Y-40123D01*
X54488Y-39724D01*
X54250Y-39485D01*
X54214Y-39520D01*
X54214Y-39450D01*
X53975Y-39211D01*
X53926Y-39245D01*
X53873Y-39385D01*
X53877Y-39534D01*
X53926Y-39654D01*
X53975Y-39688D01*
X54214Y-39450D01*
X54214Y-39520D01*
X54011Y-39724D01*
X54045Y-39773D01*
X54185Y-39826D01*
X54334Y-39822D01*
X54454Y-39773D01*
X54488Y-39724D01*
X54488Y-40123D01*
X54476Y-40111D01*
X54329Y-40050D01*
X54170Y-40050D01*
X54024Y-40111D01*
X53911Y-40223D01*
X53850Y-40370D01*
X53850Y-40529D01*
X53911Y-40675D01*
X54023Y-40788D01*
X54170Y-40849D01*
X54329Y-40849D01*
X54475Y-40788D01*
X54588Y-40676D01*
X54649Y-40529D01*
X54649Y-40370D01*
X54649Y-49770D01*
X54588Y-49624D01*
X54476Y-49511D01*
X54329Y-49450D01*
X54170Y-49450D01*
X54024Y-49511D01*
X53911Y-49623D01*
X53850Y-49770D01*
X53850Y-49929D01*
X53911Y-50075D01*
X54023Y-50188D01*
X54170Y-50249D01*
X54329Y-50249D01*
X54475Y-50188D01*
X54588Y-50076D01*
X54649Y-49929D01*
X54649Y-49770D01*
X54649Y-55013D01*
X54626Y-55013D01*
X54626Y-50914D01*
X54622Y-50765D01*
X54573Y-50645D01*
X54524Y-50611D01*
X54488Y-50646D01*
X54488Y-50575D01*
X54454Y-50526D01*
X54314Y-50473D01*
X54165Y-50477D01*
X54045Y-50526D01*
X54011Y-50575D01*
X54250Y-50814D01*
X54488Y-50575D01*
X54488Y-50646D01*
X54285Y-50850D01*
X54524Y-51088D01*
X54573Y-51054D01*
X54626Y-50914D01*
X54626Y-55013D01*
X54488Y-55013D01*
X54488Y-51124D01*
X54250Y-50885D01*
X54214Y-50920D01*
X54214Y-50850D01*
X53975Y-50611D01*
X53926Y-50645D01*
X53873Y-50785D01*
X53877Y-50934D01*
X53926Y-51054D01*
X53975Y-51088D01*
X54214Y-50850D01*
X54214Y-50920D01*
X54011Y-51124D01*
X54045Y-51173D01*
X54185Y-51226D01*
X54334Y-51222D01*
X54454Y-51173D01*
X54488Y-51124D01*
X54488Y-55013D01*
X53649Y-55013D01*
X53649Y-49770D01*
X53649Y-40370D01*
X53649Y-39370D01*
X53588Y-39224D01*
X53476Y-39111D01*
X53329Y-39050D01*
X53170Y-39050D01*
X53024Y-39111D01*
X52911Y-39223D01*
X52850Y-39370D01*
X52850Y-39529D01*
X52911Y-39675D01*
X53023Y-39788D01*
X53170Y-39849D01*
X53329Y-39849D01*
X53475Y-39788D01*
X53588Y-39676D01*
X53649Y-39529D01*
X53649Y-39370D01*
X53649Y-40370D01*
X53588Y-40224D01*
X53476Y-40111D01*
X53329Y-40050D01*
X53170Y-40050D01*
X53024Y-40111D01*
X52911Y-40223D01*
X52850Y-40370D01*
X52850Y-40529D01*
X52911Y-40675D01*
X53023Y-40788D01*
X53170Y-40849D01*
X53329Y-40849D01*
X53475Y-40788D01*
X53588Y-40676D01*
X53649Y-40529D01*
X53649Y-40370D01*
X53649Y-49770D01*
X53588Y-49624D01*
X53476Y-49511D01*
X53329Y-49450D01*
X53170Y-49450D01*
X53024Y-49511D01*
X52911Y-49623D01*
X52850Y-49770D01*
X52850Y-49929D01*
X52911Y-50075D01*
X53023Y-50188D01*
X53170Y-50249D01*
X53329Y-50249D01*
X53475Y-50188D01*
X53588Y-50076D01*
X53649Y-49929D01*
X53649Y-49770D01*
X53649Y-55013D01*
X53626Y-55013D01*
X53626Y-50914D01*
X53622Y-50765D01*
X53573Y-50645D01*
X53524Y-50611D01*
X53488Y-50646D01*
X53488Y-50575D01*
X53454Y-50526D01*
X53314Y-50473D01*
X53165Y-50477D01*
X53045Y-50526D01*
X53011Y-50575D01*
X53250Y-50814D01*
X53488Y-50575D01*
X53488Y-50646D01*
X53285Y-50850D01*
X53524Y-51088D01*
X53573Y-51054D01*
X53626Y-50914D01*
X53626Y-55013D01*
X53488Y-55013D01*
X53488Y-51124D01*
X53250Y-50885D01*
X53214Y-50920D01*
X53214Y-50850D01*
X52975Y-50611D01*
X52926Y-50645D01*
X52873Y-50785D01*
X52877Y-50934D01*
X52926Y-51054D01*
X52975Y-51088D01*
X53214Y-50850D01*
X53214Y-50920D01*
X53011Y-51124D01*
X53045Y-51173D01*
X53185Y-51226D01*
X53334Y-51222D01*
X53454Y-51173D01*
X53488Y-51124D01*
X53488Y-55013D01*
X52649Y-55013D01*
X52649Y-50770D01*
X52649Y-40370D01*
X52649Y-39370D01*
X52588Y-39224D01*
X52476Y-39111D01*
X52329Y-39050D01*
X52170Y-39050D01*
X52024Y-39111D01*
X51911Y-39223D01*
X51850Y-39370D01*
X51850Y-39529D01*
X51911Y-39675D01*
X52023Y-39788D01*
X52170Y-39849D01*
X52329Y-39849D01*
X52475Y-39788D01*
X52588Y-39676D01*
X52649Y-39529D01*
X52649Y-39370D01*
X52649Y-40370D01*
X52588Y-40224D01*
X52476Y-40111D01*
X52329Y-40050D01*
X52170Y-40050D01*
X52024Y-40111D01*
X51911Y-40223D01*
X51850Y-40370D01*
X51850Y-40529D01*
X51911Y-40675D01*
X52023Y-40788D01*
X52170Y-40849D01*
X52329Y-40849D01*
X52475Y-40788D01*
X52588Y-40676D01*
X52649Y-40529D01*
X52649Y-40370D01*
X52649Y-50770D01*
X52626Y-50716D01*
X52626Y-49914D01*
X52622Y-49765D01*
X52573Y-49645D01*
X52524Y-49611D01*
X52488Y-49646D01*
X52488Y-49575D01*
X52454Y-49526D01*
X52314Y-49473D01*
X52165Y-49477D01*
X52045Y-49526D01*
X52011Y-49575D01*
X52250Y-49814D01*
X52488Y-49575D01*
X52488Y-49646D01*
X52285Y-49850D01*
X52524Y-50088D01*
X52573Y-50054D01*
X52626Y-49914D01*
X52626Y-50716D01*
X52588Y-50624D01*
X52488Y-50523D01*
X52488Y-50124D01*
X52250Y-49885D01*
X52214Y-49920D01*
X52214Y-49850D01*
X51975Y-49611D01*
X51926Y-49645D01*
X51873Y-49785D01*
X51877Y-49934D01*
X51926Y-50054D01*
X51975Y-50088D01*
X52214Y-49850D01*
X52214Y-49920D01*
X52011Y-50124D01*
X52045Y-50173D01*
X52185Y-50226D01*
X52334Y-50222D01*
X52454Y-50173D01*
X52488Y-50124D01*
X52488Y-50523D01*
X52476Y-50511D01*
X52329Y-50450D01*
X52170Y-50450D01*
X52024Y-50511D01*
X51911Y-50623D01*
X51850Y-50770D01*
X51850Y-50929D01*
X51911Y-51075D01*
X52023Y-51188D01*
X52170Y-51249D01*
X52329Y-51249D01*
X52475Y-51188D01*
X52588Y-51076D01*
X52649Y-50929D01*
X52649Y-50770D01*
X52649Y-55013D01*
X51649Y-55013D01*
X51649Y-50770D01*
X51649Y-49770D01*
X51649Y-40370D01*
X51649Y-39370D01*
X51588Y-39224D01*
X51476Y-39111D01*
X51329Y-39050D01*
X51170Y-39050D01*
X51024Y-39111D01*
X50911Y-39223D01*
X50850Y-39370D01*
X50850Y-39529D01*
X50911Y-39675D01*
X51023Y-39788D01*
X51170Y-39849D01*
X51329Y-39849D01*
X51475Y-39788D01*
X51588Y-39676D01*
X51649Y-39529D01*
X51649Y-39370D01*
X51649Y-40370D01*
X51588Y-40224D01*
X51476Y-40111D01*
X51329Y-40050D01*
X51170Y-40050D01*
X51024Y-40111D01*
X50911Y-40223D01*
X50850Y-40370D01*
X50850Y-40529D01*
X50911Y-40675D01*
X51023Y-40788D01*
X51170Y-40849D01*
X51329Y-40849D01*
X51475Y-40788D01*
X51588Y-40676D01*
X51649Y-40529D01*
X51649Y-40370D01*
X51649Y-49770D01*
X51588Y-49624D01*
X51476Y-49511D01*
X51329Y-49450D01*
X51170Y-49450D01*
X51024Y-49511D01*
X50911Y-49623D01*
X50850Y-49770D01*
X50850Y-49929D01*
X50911Y-50075D01*
X51023Y-50188D01*
X51170Y-50249D01*
X51329Y-50249D01*
X51475Y-50188D01*
X51588Y-50076D01*
X51649Y-49929D01*
X51649Y-49770D01*
X51649Y-50770D01*
X51588Y-50624D01*
X51476Y-50511D01*
X51329Y-50450D01*
X51170Y-50450D01*
X51024Y-50511D01*
X50911Y-50623D01*
X50850Y-50770D01*
X50850Y-50929D01*
X50911Y-51075D01*
X51023Y-51188D01*
X51170Y-51249D01*
X51329Y-51249D01*
X51475Y-51188D01*
X51588Y-51076D01*
X51649Y-50929D01*
X51649Y-50770D01*
X51649Y-55013D01*
X50649Y-55013D01*
X50649Y-50770D01*
X50649Y-49770D01*
X50649Y-40370D01*
X50649Y-39370D01*
X50588Y-39224D01*
X50476Y-39111D01*
X50329Y-39050D01*
X50170Y-39050D01*
X50024Y-39111D01*
X49911Y-39223D01*
X49850Y-39370D01*
X49850Y-39529D01*
X49911Y-39675D01*
X50023Y-39788D01*
X50170Y-39849D01*
X50329Y-39849D01*
X50475Y-39788D01*
X50588Y-39676D01*
X50649Y-39529D01*
X50649Y-39370D01*
X50649Y-40370D01*
X50588Y-40224D01*
X50476Y-40111D01*
X50329Y-40050D01*
X50170Y-40050D01*
X50024Y-40111D01*
X49911Y-40223D01*
X49850Y-40370D01*
X49850Y-40529D01*
X49911Y-40675D01*
X50023Y-40788D01*
X50170Y-40849D01*
X50329Y-40849D01*
X50475Y-40788D01*
X50588Y-40676D01*
X50649Y-40529D01*
X50649Y-40370D01*
X50649Y-49770D01*
X50588Y-49624D01*
X50476Y-49511D01*
X50329Y-49450D01*
X50170Y-49450D01*
X50024Y-49511D01*
X49911Y-49623D01*
X49850Y-49770D01*
X49850Y-49929D01*
X49911Y-50075D01*
X50023Y-50188D01*
X50170Y-50249D01*
X50329Y-50249D01*
X50475Y-50188D01*
X50588Y-50076D01*
X50649Y-49929D01*
X50649Y-49770D01*
X50649Y-50770D01*
X50588Y-50624D01*
X50476Y-50511D01*
X50329Y-50450D01*
X50170Y-50450D01*
X50024Y-50511D01*
X49911Y-50623D01*
X49850Y-50770D01*
X49850Y-50929D01*
X49911Y-51075D01*
X50023Y-51188D01*
X50170Y-51249D01*
X50329Y-51249D01*
X50475Y-51188D01*
X50588Y-51076D01*
X50649Y-50929D01*
X50649Y-50770D01*
X50649Y-55013D01*
X49649Y-55013D01*
X49649Y-50770D01*
X49649Y-49770D01*
X49649Y-40370D01*
X49626Y-40316D01*
X49626Y-39514D01*
X49622Y-39365D01*
X49573Y-39245D01*
X49524Y-39211D01*
X49488Y-39246D01*
X49488Y-39175D01*
X49454Y-39126D01*
X49314Y-39073D01*
X49165Y-39077D01*
X49045Y-39126D01*
X49011Y-39175D01*
X49250Y-39414D01*
X49488Y-39175D01*
X49488Y-39246D01*
X49285Y-39450D01*
X49524Y-39688D01*
X49573Y-39654D01*
X49626Y-39514D01*
X49626Y-40316D01*
X49588Y-40224D01*
X49488Y-40123D01*
X49488Y-39724D01*
X49250Y-39485D01*
X49214Y-39520D01*
X49214Y-39450D01*
X48975Y-39211D01*
X48926Y-39245D01*
X48873Y-39385D01*
X48877Y-39534D01*
X48926Y-39654D01*
X48975Y-39688D01*
X49214Y-39450D01*
X49214Y-39520D01*
X49011Y-39724D01*
X49045Y-39773D01*
X49185Y-39826D01*
X49334Y-39822D01*
X49454Y-39773D01*
X49488Y-39724D01*
X49488Y-40123D01*
X49476Y-40111D01*
X49329Y-40050D01*
X49170Y-40050D01*
X49024Y-40111D01*
X48911Y-40223D01*
X48850Y-40370D01*
X48850Y-40529D01*
X48911Y-40675D01*
X49023Y-40788D01*
X49170Y-40849D01*
X49329Y-40849D01*
X49475Y-40788D01*
X49588Y-40676D01*
X49649Y-40529D01*
X49649Y-40370D01*
X49649Y-49770D01*
X49588Y-49624D01*
X49476Y-49511D01*
X49329Y-49450D01*
X49170Y-49450D01*
X49024Y-49511D01*
X48911Y-49623D01*
X48850Y-49770D01*
X48850Y-49929D01*
X48911Y-50075D01*
X49023Y-50188D01*
X49170Y-50249D01*
X49329Y-50249D01*
X49475Y-50188D01*
X49588Y-50076D01*
X49649Y-49929D01*
X49649Y-49770D01*
X49649Y-50770D01*
X49588Y-50624D01*
X49476Y-50511D01*
X49329Y-50450D01*
X49170Y-50450D01*
X49024Y-50511D01*
X48911Y-50623D01*
X48850Y-50770D01*
X48850Y-50929D01*
X48911Y-51075D01*
X49023Y-51188D01*
X49170Y-51249D01*
X49329Y-51249D01*
X49475Y-51188D01*
X49588Y-51076D01*
X49649Y-50929D01*
X49649Y-50770D01*
X49649Y-55013D01*
X48649Y-55013D01*
X48649Y-50770D01*
X48649Y-49770D01*
X48649Y-40370D01*
X48626Y-40316D01*
X48626Y-39514D01*
X48622Y-39365D01*
X48573Y-39245D01*
X48524Y-39211D01*
X48488Y-39246D01*
X48488Y-39175D01*
X48454Y-39126D01*
X48314Y-39073D01*
X48165Y-39077D01*
X48045Y-39126D01*
X48011Y-39175D01*
X48250Y-39414D01*
X48488Y-39175D01*
X48488Y-39246D01*
X48285Y-39450D01*
X48524Y-39688D01*
X48573Y-39654D01*
X48626Y-39514D01*
X48626Y-40316D01*
X48588Y-40224D01*
X48488Y-40123D01*
X48488Y-39724D01*
X48250Y-39485D01*
X48214Y-39520D01*
X48214Y-39450D01*
X47975Y-39211D01*
X47926Y-39245D01*
X47873Y-39385D01*
X47877Y-39534D01*
X47926Y-39654D01*
X47975Y-39688D01*
X48214Y-39450D01*
X48214Y-39520D01*
X48011Y-39724D01*
X48045Y-39773D01*
X48185Y-39826D01*
X48334Y-39822D01*
X48454Y-39773D01*
X48488Y-39724D01*
X48488Y-40123D01*
X48476Y-40111D01*
X48329Y-40050D01*
X48170Y-40050D01*
X48024Y-40111D01*
X47911Y-40223D01*
X47850Y-40370D01*
X47850Y-40529D01*
X47911Y-40675D01*
X48023Y-40788D01*
X48170Y-40849D01*
X48329Y-40849D01*
X48475Y-40788D01*
X48588Y-40676D01*
X48649Y-40529D01*
X48649Y-40370D01*
X48649Y-49770D01*
X48588Y-49624D01*
X48476Y-49511D01*
X48329Y-49450D01*
X48170Y-49450D01*
X48024Y-49511D01*
X47911Y-49623D01*
X47850Y-49770D01*
X47850Y-49929D01*
X47911Y-50075D01*
X48023Y-50188D01*
X48170Y-50249D01*
X48329Y-50249D01*
X48475Y-50188D01*
X48588Y-50076D01*
X48649Y-49929D01*
X48649Y-49770D01*
X48649Y-50770D01*
X48588Y-50624D01*
X48476Y-50511D01*
X48329Y-50450D01*
X48170Y-50450D01*
X48024Y-50511D01*
X47911Y-50623D01*
X47850Y-50770D01*
X47850Y-50929D01*
X47911Y-51075D01*
X48023Y-51188D01*
X48170Y-51249D01*
X48329Y-51249D01*
X48475Y-51188D01*
X48588Y-51076D01*
X48649Y-50929D01*
X48649Y-50770D01*
X48649Y-55013D01*
X47649Y-55013D01*
X47649Y-50770D01*
X47649Y-49770D01*
X47649Y-40370D01*
X47626Y-40316D01*
X47626Y-39514D01*
X47622Y-39365D01*
X47573Y-39245D01*
X47524Y-39211D01*
X47488Y-39246D01*
X47488Y-39175D01*
X47454Y-39126D01*
X47314Y-39073D01*
X47165Y-39077D01*
X47045Y-39126D01*
X47011Y-39175D01*
X47250Y-39414D01*
X47488Y-39175D01*
X47488Y-39246D01*
X47285Y-39450D01*
X47524Y-39688D01*
X47573Y-39654D01*
X47626Y-39514D01*
X47626Y-40316D01*
X47588Y-40224D01*
X47488Y-40123D01*
X47488Y-39724D01*
X47250Y-39485D01*
X47214Y-39520D01*
X47214Y-39450D01*
X46975Y-39211D01*
X46926Y-39245D01*
X46873Y-39385D01*
X46877Y-39534D01*
X46926Y-39654D01*
X46975Y-39688D01*
X47214Y-39450D01*
X47214Y-39520D01*
X47011Y-39724D01*
X47045Y-39773D01*
X47185Y-39826D01*
X47334Y-39822D01*
X47454Y-39773D01*
X47488Y-39724D01*
X47488Y-40123D01*
X47476Y-40111D01*
X47329Y-40050D01*
X47170Y-40050D01*
X47024Y-40111D01*
X46911Y-40223D01*
X46850Y-40370D01*
X46850Y-40529D01*
X46911Y-40675D01*
X47023Y-40788D01*
X47170Y-40849D01*
X47329Y-40849D01*
X47475Y-40788D01*
X47588Y-40676D01*
X47649Y-40529D01*
X47649Y-40370D01*
X47649Y-49770D01*
X47588Y-49624D01*
X47476Y-49511D01*
X47329Y-49450D01*
X47170Y-49450D01*
X47024Y-49511D01*
X46911Y-49623D01*
X46850Y-49770D01*
X46850Y-49929D01*
X46911Y-50075D01*
X47023Y-50188D01*
X47170Y-50249D01*
X47329Y-50249D01*
X47475Y-50188D01*
X47588Y-50076D01*
X47649Y-49929D01*
X47649Y-49770D01*
X47649Y-50770D01*
X47588Y-50624D01*
X47476Y-50511D01*
X47329Y-50450D01*
X47170Y-50450D01*
X47024Y-50511D01*
X46911Y-50623D01*
X46850Y-50770D01*
X46850Y-50929D01*
X46911Y-51075D01*
X47023Y-51188D01*
X47170Y-51249D01*
X47329Y-51249D01*
X47475Y-51188D01*
X47588Y-51076D01*
X47649Y-50929D01*
X47649Y-50770D01*
X47649Y-55013D01*
X46649Y-55013D01*
X46649Y-50770D01*
X46649Y-49770D01*
X46649Y-40370D01*
X46626Y-40316D01*
X46626Y-39514D01*
X46622Y-39365D01*
X46573Y-39245D01*
X46524Y-39211D01*
X46488Y-39246D01*
X46488Y-39175D01*
X46454Y-39126D01*
X46314Y-39073D01*
X46165Y-39077D01*
X46045Y-39126D01*
X46011Y-39175D01*
X46250Y-39414D01*
X46488Y-39175D01*
X46488Y-39246D01*
X46285Y-39450D01*
X46524Y-39688D01*
X46573Y-39654D01*
X46626Y-39514D01*
X46626Y-40316D01*
X46588Y-40224D01*
X46488Y-40123D01*
X46488Y-39724D01*
X46250Y-39485D01*
X46214Y-39520D01*
X46214Y-39450D01*
X45975Y-39211D01*
X45926Y-39245D01*
X45873Y-39385D01*
X45877Y-39534D01*
X45926Y-39654D01*
X45975Y-39688D01*
X46214Y-39450D01*
X46214Y-39520D01*
X46011Y-39724D01*
X46045Y-39773D01*
X46185Y-39826D01*
X46334Y-39822D01*
X46454Y-39773D01*
X46488Y-39724D01*
X46488Y-40123D01*
X46476Y-40111D01*
X46329Y-40050D01*
X46170Y-40050D01*
X46024Y-40111D01*
X45911Y-40223D01*
X45850Y-40370D01*
X45850Y-40529D01*
X45911Y-40675D01*
X46023Y-40788D01*
X46170Y-40849D01*
X46329Y-40849D01*
X46475Y-40788D01*
X46588Y-40676D01*
X46649Y-40529D01*
X46649Y-40370D01*
X46649Y-49770D01*
X46588Y-49624D01*
X46476Y-49511D01*
X46329Y-49450D01*
X46170Y-49450D01*
X46024Y-49511D01*
X45911Y-49623D01*
X45850Y-49770D01*
X45850Y-49929D01*
X45911Y-50075D01*
X46023Y-50188D01*
X46170Y-50249D01*
X46329Y-50249D01*
X46475Y-50188D01*
X46588Y-50076D01*
X46649Y-49929D01*
X46649Y-49770D01*
X46649Y-50770D01*
X46588Y-50624D01*
X46476Y-50511D01*
X46329Y-50450D01*
X46170Y-50450D01*
X46024Y-50511D01*
X45911Y-50623D01*
X45850Y-50770D01*
X45850Y-50929D01*
X45911Y-51075D01*
X46023Y-51188D01*
X46170Y-51249D01*
X46329Y-51249D01*
X46475Y-51188D01*
X46588Y-51076D01*
X46649Y-50929D01*
X46649Y-50770D01*
X46649Y-55013D01*
X45649Y-55013D01*
X45649Y-50770D01*
X45649Y-49770D01*
X45649Y-40370D01*
X45626Y-40316D01*
X45626Y-39514D01*
X45622Y-39365D01*
X45573Y-39245D01*
X45524Y-39211D01*
X45488Y-39246D01*
X45488Y-39175D01*
X45454Y-39126D01*
X45314Y-39073D01*
X45165Y-39077D01*
X45045Y-39126D01*
X45011Y-39175D01*
X45250Y-39414D01*
X45488Y-39175D01*
X45488Y-39246D01*
X45285Y-39450D01*
X45524Y-39688D01*
X45573Y-39654D01*
X45626Y-39514D01*
X45626Y-40316D01*
X45588Y-40224D01*
X45488Y-40123D01*
X45488Y-39724D01*
X45250Y-39485D01*
X45214Y-39520D01*
X45214Y-39450D01*
X44975Y-39211D01*
X44926Y-39245D01*
X44873Y-39385D01*
X44877Y-39534D01*
X44926Y-39654D01*
X44975Y-39688D01*
X45214Y-39450D01*
X45214Y-39520D01*
X45011Y-39724D01*
X45045Y-39773D01*
X45185Y-39826D01*
X45334Y-39822D01*
X45454Y-39773D01*
X45488Y-39724D01*
X45488Y-40123D01*
X45476Y-40111D01*
X45329Y-40050D01*
X45170Y-40050D01*
X45024Y-40111D01*
X44911Y-40223D01*
X44850Y-40370D01*
X44850Y-40529D01*
X44911Y-40675D01*
X45023Y-40788D01*
X45170Y-40849D01*
X45329Y-40849D01*
X45475Y-40788D01*
X45588Y-40676D01*
X45649Y-40529D01*
X45649Y-40370D01*
X45649Y-49770D01*
X45588Y-49624D01*
X45476Y-49511D01*
X45329Y-49450D01*
X45170Y-49450D01*
X45024Y-49511D01*
X44911Y-49623D01*
X44850Y-49770D01*
X44850Y-49929D01*
X44911Y-50075D01*
X45023Y-50188D01*
X45170Y-50249D01*
X45329Y-50249D01*
X45475Y-50188D01*
X45588Y-50076D01*
X45649Y-49929D01*
X45649Y-49770D01*
X45649Y-50770D01*
X45588Y-50624D01*
X45476Y-50511D01*
X45329Y-50450D01*
X45170Y-50450D01*
X45024Y-50511D01*
X44911Y-50623D01*
X44850Y-50770D01*
X44850Y-50929D01*
X44911Y-51075D01*
X45023Y-51188D01*
X45170Y-51249D01*
X45329Y-51249D01*
X45475Y-51188D01*
X45588Y-51076D01*
X45649Y-50929D01*
X45649Y-50770D01*
X45649Y-55013D01*
X44649Y-55013D01*
X44649Y-49770D01*
X44649Y-40370D01*
X44649Y-39370D01*
X44588Y-39224D01*
X44476Y-39111D01*
X44329Y-39050D01*
X44170Y-39050D01*
X44024Y-39111D01*
X43911Y-39223D01*
X43850Y-39370D01*
X43850Y-39529D01*
X43911Y-39675D01*
X44023Y-39788D01*
X44170Y-39849D01*
X44329Y-39849D01*
X44475Y-39788D01*
X44588Y-39676D01*
X44649Y-39529D01*
X44649Y-39370D01*
X44649Y-40370D01*
X44588Y-40224D01*
X44476Y-40111D01*
X44329Y-40050D01*
X44170Y-40050D01*
X44024Y-40111D01*
X43911Y-40223D01*
X43850Y-40370D01*
X43850Y-40529D01*
X43911Y-40675D01*
X44023Y-40788D01*
X44170Y-40849D01*
X44329Y-40849D01*
X44475Y-40788D01*
X44588Y-40676D01*
X44649Y-40529D01*
X44649Y-40370D01*
X44649Y-49770D01*
X44588Y-49624D01*
X44476Y-49511D01*
X44329Y-49450D01*
X44170Y-49450D01*
X44024Y-49511D01*
X43911Y-49623D01*
X43850Y-49770D01*
X43850Y-49929D01*
X43911Y-50075D01*
X44023Y-50188D01*
X44170Y-50249D01*
X44329Y-50249D01*
X44475Y-50188D01*
X44588Y-50076D01*
X44649Y-49929D01*
X44649Y-49770D01*
X44649Y-55013D01*
X44626Y-55013D01*
X44626Y-50914D01*
X44622Y-50765D01*
X44573Y-50645D01*
X44524Y-50611D01*
X44488Y-50646D01*
X44488Y-50575D01*
X44454Y-50526D01*
X44314Y-50473D01*
X44165Y-50477D01*
X44045Y-50526D01*
X44011Y-50575D01*
X44250Y-50814D01*
X44488Y-50575D01*
X44488Y-50646D01*
X44285Y-50850D01*
X44524Y-51088D01*
X44573Y-51054D01*
X44626Y-50914D01*
X44626Y-55013D01*
X44488Y-55013D01*
X44488Y-51124D01*
X44250Y-50885D01*
X44214Y-50920D01*
X44214Y-50850D01*
X43975Y-50611D01*
X43926Y-50645D01*
X43873Y-50785D01*
X43877Y-50934D01*
X43926Y-51054D01*
X43975Y-51088D01*
X44214Y-50850D01*
X44214Y-50920D01*
X44011Y-51124D01*
X44045Y-51173D01*
X44185Y-51226D01*
X44334Y-51222D01*
X44454Y-51173D01*
X44488Y-51124D01*
X44488Y-55013D01*
X43649Y-55013D01*
X43649Y-49770D01*
X43649Y-39370D01*
X43588Y-39224D01*
X43476Y-39111D01*
X43329Y-39050D01*
X43170Y-39050D01*
X43024Y-39111D01*
X42911Y-39223D01*
X42850Y-39370D01*
X42850Y-39529D01*
X42911Y-39675D01*
X43023Y-39788D01*
X43170Y-39849D01*
X43329Y-39849D01*
X43475Y-39788D01*
X43588Y-39676D01*
X43649Y-39529D01*
X43649Y-39370D01*
X43649Y-49770D01*
X43649Y-49770D01*
X43649Y-40769D01*
X43649Y-40730D01*
X43649Y-40130D01*
X43634Y-40093D01*
X43606Y-40065D01*
X43569Y-40050D01*
X43530Y-40050D01*
X42930Y-40050D01*
X42893Y-40065D01*
X42865Y-40093D01*
X42850Y-40130D01*
X42850Y-40169D01*
X42850Y-40769D01*
X42865Y-40806D01*
X42893Y-40834D01*
X42930Y-40849D01*
X42969Y-40849D01*
X43569Y-40849D01*
X43606Y-40834D01*
X43634Y-40806D01*
X43649Y-40769D01*
X43649Y-49770D01*
X43588Y-49624D01*
X43476Y-49511D01*
X43329Y-49450D01*
X43272Y-49450D01*
X43272Y-49133D01*
X43272Y-49094D01*
X43272Y-48582D01*
X43272Y-41968D01*
X43272Y-41929D01*
X43272Y-41417D01*
X43257Y-41380D01*
X43229Y-41352D01*
X43193Y-41337D01*
X43153Y-41337D01*
X41814Y-41337D01*
X41778Y-41352D01*
X41750Y-41380D01*
X41735Y-41417D01*
X41735Y-41456D01*
X41735Y-41968D01*
X41750Y-42005D01*
X41778Y-42033D01*
X41814Y-42048D01*
X41854Y-42048D01*
X42256Y-42048D01*
X42202Y-42101D01*
X42148Y-42232D01*
X42148Y-42373D01*
X42202Y-42504D01*
X42302Y-42604D01*
X42432Y-42658D01*
X42574Y-42658D01*
X42704Y-42604D01*
X42804Y-42504D01*
X42859Y-42374D01*
X42859Y-42232D01*
X42805Y-42102D01*
X42751Y-42048D01*
X43193Y-42048D01*
X43229Y-42033D01*
X43257Y-42005D01*
X43272Y-41968D01*
X43272Y-48582D01*
X43257Y-48546D01*
X43229Y-48518D01*
X43193Y-48502D01*
X43153Y-48502D01*
X42994Y-48502D01*
X42994Y-47401D01*
X42964Y-47328D01*
X42908Y-47271D01*
X42841Y-47244D01*
X42908Y-47216D01*
X42964Y-47160D01*
X42994Y-47087D01*
X42994Y-47007D01*
X42964Y-46934D01*
X42908Y-46878D01*
X42841Y-46850D01*
X42908Y-46822D01*
X42964Y-46766D01*
X42994Y-46693D01*
X42994Y-46614D01*
X42964Y-46540D01*
X42908Y-46484D01*
X42841Y-46456D01*
X42908Y-46428D01*
X42964Y-46372D01*
X42994Y-46299D01*
X42994Y-46220D01*
X42964Y-46147D01*
X42908Y-46090D01*
X42841Y-46062D01*
X42908Y-46035D01*
X42964Y-45979D01*
X42994Y-45905D01*
X42994Y-45826D01*
X42964Y-45753D01*
X42908Y-45697D01*
X42841Y-45669D01*
X42908Y-45641D01*
X42964Y-45585D01*
X42994Y-45512D01*
X42994Y-45432D01*
X42964Y-45359D01*
X42908Y-45303D01*
X42841Y-45275D01*
X42908Y-45247D01*
X42964Y-45191D01*
X42994Y-45118D01*
X42994Y-45039D01*
X42964Y-44965D01*
X42908Y-44909D01*
X42841Y-44881D01*
X42908Y-44854D01*
X42964Y-44798D01*
X42994Y-44724D01*
X42994Y-44645D01*
X42964Y-44572D01*
X42908Y-44516D01*
X42841Y-44488D01*
X42908Y-44460D01*
X42964Y-44404D01*
X42994Y-44331D01*
X42994Y-44251D01*
X42964Y-44178D01*
X42908Y-44122D01*
X42835Y-44091D01*
X42755Y-44091D01*
X42682Y-44122D01*
X42626Y-44178D01*
X42595Y-44251D01*
X42595Y-44330D01*
X42626Y-44404D01*
X42682Y-44460D01*
X42749Y-44488D01*
X42682Y-44515D01*
X42626Y-44571D01*
X42595Y-44645D01*
X42595Y-44724D01*
X42626Y-44797D01*
X42682Y-44853D01*
X42749Y-44881D01*
X42682Y-44909D01*
X42626Y-44965D01*
X42595Y-45038D01*
X42595Y-45118D01*
X42626Y-45191D01*
X42682Y-45247D01*
X42749Y-45275D01*
X42682Y-45303D01*
X42626Y-45359D01*
X42595Y-45432D01*
X42595Y-45511D01*
X42626Y-45585D01*
X42682Y-45641D01*
X42749Y-45669D01*
X42682Y-45696D01*
X42626Y-45753D01*
X42595Y-45826D01*
X42595Y-45905D01*
X42626Y-45978D01*
X42682Y-46035D01*
X42749Y-46063D01*
X42682Y-46090D01*
X42626Y-46146D01*
X42595Y-46220D01*
X42595Y-46299D01*
X42626Y-46372D01*
X42682Y-46428D01*
X42749Y-46456D01*
X42682Y-46484D01*
X42626Y-46540D01*
X42595Y-46613D01*
X42595Y-46693D01*
X42626Y-46766D01*
X42682Y-46822D01*
X42749Y-46850D01*
X42682Y-46878D01*
X42626Y-46934D01*
X42595Y-47007D01*
X42595Y-47086D01*
X42626Y-47160D01*
X42682Y-47216D01*
X42749Y-47244D01*
X42682Y-47271D01*
X42626Y-47327D01*
X42595Y-47401D01*
X42595Y-47480D01*
X42626Y-47553D01*
X42682Y-47609D01*
X42755Y-47640D01*
X42834Y-47640D01*
X42908Y-47610D01*
X42964Y-47554D01*
X42994Y-47480D01*
X42994Y-47401D01*
X42994Y-48502D01*
X42751Y-48502D01*
X42804Y-48449D01*
X42859Y-48319D01*
X42859Y-48177D01*
X42805Y-48047D01*
X42705Y-47946D01*
X42574Y-47892D01*
X42443Y-47892D01*
X42443Y-46810D01*
X42413Y-46737D01*
X42357Y-46681D01*
X42289Y-46653D01*
X42356Y-46625D01*
X42413Y-46569D01*
X42443Y-46496D01*
X42443Y-46417D01*
X42413Y-46343D01*
X42357Y-46287D01*
X42289Y-46259D01*
X42356Y-46232D01*
X42413Y-46176D01*
X42443Y-46102D01*
X42443Y-46023D01*
X42413Y-45950D01*
X42357Y-45894D01*
X42289Y-45866D01*
X42356Y-45838D01*
X42413Y-45782D01*
X42443Y-45709D01*
X42443Y-45629D01*
X42413Y-45556D01*
X42357Y-45500D01*
X42289Y-45472D01*
X42356Y-45444D01*
X42413Y-45388D01*
X42443Y-45315D01*
X42443Y-45236D01*
X42413Y-45162D01*
X42357Y-45106D01*
X42289Y-45078D01*
X42356Y-45051D01*
X42413Y-44994D01*
X42443Y-44921D01*
X42443Y-44842D01*
X42413Y-44769D01*
X42357Y-44712D01*
X42289Y-44685D01*
X42356Y-44657D01*
X42413Y-44601D01*
X42443Y-44528D01*
X42443Y-44448D01*
X42413Y-44375D01*
X42357Y-44319D01*
X42289Y-44291D01*
X42356Y-44263D01*
X42413Y-44207D01*
X42443Y-44134D01*
X42443Y-44054D01*
X42413Y-43981D01*
X42357Y-43925D01*
X42289Y-43897D01*
X42356Y-43869D01*
X42413Y-43813D01*
X42443Y-43740D01*
X42443Y-43661D01*
X42413Y-43587D01*
X42357Y-43531D01*
X42289Y-43503D01*
X42356Y-43476D01*
X42413Y-43420D01*
X42443Y-43346D01*
X42443Y-43267D01*
X42413Y-43194D01*
X42357Y-43138D01*
X42289Y-43110D01*
X42356Y-43082D01*
X42413Y-43026D01*
X42443Y-42953D01*
X42443Y-42873D01*
X42413Y-42800D01*
X42357Y-42744D01*
X42283Y-42714D01*
X42204Y-42713D01*
X42131Y-42744D01*
X42075Y-42800D01*
X42044Y-42873D01*
X42044Y-42952D01*
X42074Y-43026D01*
X42130Y-43082D01*
X42198Y-43110D01*
X42131Y-43137D01*
X42075Y-43193D01*
X42044Y-43267D01*
X42044Y-43346D01*
X42074Y-43419D01*
X42130Y-43476D01*
X42198Y-43503D01*
X42131Y-43531D01*
X42075Y-43587D01*
X42044Y-43660D01*
X42044Y-43740D01*
X42074Y-43813D01*
X42130Y-43869D01*
X42198Y-43897D01*
X42131Y-43925D01*
X42075Y-43981D01*
X42044Y-44054D01*
X42044Y-44133D01*
X42074Y-44207D01*
X42130Y-44263D01*
X42198Y-44291D01*
X42131Y-44319D01*
X42075Y-44375D01*
X42044Y-44448D01*
X42044Y-44527D01*
X42074Y-44600D01*
X42130Y-44657D01*
X42198Y-44685D01*
X42131Y-44712D01*
X42075Y-44768D01*
X42044Y-44842D01*
X42044Y-44921D01*
X42074Y-44994D01*
X42130Y-45050D01*
X42198Y-45078D01*
X42131Y-45106D01*
X42075Y-45162D01*
X42044Y-45235D01*
X42044Y-45315D01*
X42074Y-45388D01*
X42130Y-45444D01*
X42198Y-45472D01*
X42131Y-45500D01*
X42075Y-45556D01*
X42044Y-45629D01*
X42044Y-45708D01*
X42074Y-45782D01*
X42130Y-45838D01*
X42198Y-45866D01*
X42131Y-45893D01*
X42075Y-45949D01*
X42044Y-46023D01*
X42044Y-46102D01*
X42074Y-46175D01*
X42130Y-46231D01*
X42198Y-46259D01*
X42131Y-46287D01*
X42075Y-46343D01*
X42044Y-46416D01*
X42044Y-46496D01*
X42074Y-46569D01*
X42130Y-46625D01*
X42198Y-46653D01*
X42131Y-46681D01*
X42075Y-46737D01*
X42044Y-46810D01*
X42044Y-46889D01*
X42074Y-46963D01*
X42130Y-47019D01*
X42204Y-47049D01*
X42283Y-47049D01*
X42356Y-47019D01*
X42413Y-46963D01*
X42443Y-46890D01*
X42443Y-46810D01*
X42443Y-47892D01*
X42433Y-47892D01*
X42302Y-47946D01*
X42202Y-48046D01*
X42148Y-48177D01*
X42148Y-48318D01*
X42202Y-48449D01*
X42256Y-48502D01*
X41814Y-48502D01*
X41778Y-48518D01*
X41750Y-48546D01*
X41735Y-48582D01*
X41735Y-48622D01*
X41735Y-49133D01*
X41750Y-49170D01*
X41778Y-49198D01*
X41814Y-49213D01*
X41854Y-49213D01*
X43193Y-49213D01*
X43229Y-49198D01*
X43257Y-49170D01*
X43272Y-49133D01*
X43272Y-49450D01*
X43170Y-49450D01*
X43024Y-49511D01*
X42911Y-49623D01*
X42850Y-49770D01*
X42850Y-49929D01*
X42911Y-50075D01*
X43023Y-50188D01*
X43170Y-50249D01*
X43329Y-50249D01*
X43475Y-50188D01*
X43588Y-50076D01*
X43649Y-49929D01*
X43649Y-49770D01*
X43649Y-55013D01*
X43626Y-55013D01*
X43626Y-50914D01*
X43622Y-50765D01*
X43573Y-50645D01*
X43524Y-50611D01*
X43488Y-50646D01*
X43488Y-50575D01*
X43454Y-50526D01*
X43314Y-50473D01*
X43165Y-50477D01*
X43045Y-50526D01*
X43011Y-50575D01*
X43250Y-50814D01*
X43488Y-50575D01*
X43488Y-50646D01*
X43285Y-50850D01*
X43524Y-51088D01*
X43573Y-51054D01*
X43626Y-50914D01*
X43626Y-55013D01*
X43488Y-55013D01*
X43488Y-51124D01*
X43250Y-50885D01*
X43214Y-50920D01*
X43214Y-50850D01*
X42975Y-50611D01*
X42926Y-50645D01*
X42873Y-50785D01*
X42877Y-50934D01*
X42926Y-51054D01*
X42975Y-51088D01*
X43214Y-50850D01*
X43214Y-50920D01*
X43011Y-51124D01*
X43045Y-51173D01*
X43185Y-51226D01*
X43334Y-51222D01*
X43454Y-51173D01*
X43488Y-51124D01*
X43488Y-55013D01*
X43350Y-55013D01*
X39474Y-51137D01*
X39474Y-39413D01*
X43350Y-35537D01*
X55074Y-35537D01*
X58950Y-39413D01*
X58950Y-51137D01*
X58950Y-51137D01*
G37*
G54D17*
X58950Y-51137D02*
X56689Y-53398D01*
X56689Y-48937D01*
X56689Y-48897D01*
X56689Y-48385D01*
X56689Y-41771D01*
X56689Y-41732D01*
X56689Y-41220D01*
X56674Y-41183D01*
X56646Y-41155D01*
X56610Y-41140D01*
X56570Y-41140D01*
X55649Y-41140D01*
X55649Y-40370D01*
X55626Y-40316D01*
X55626Y-39514D01*
X55622Y-39365D01*
X55573Y-39245D01*
X55524Y-39211D01*
X55488Y-39246D01*
X55488Y-39175D01*
X55454Y-39126D01*
X55314Y-39073D01*
X55165Y-39077D01*
X55045Y-39126D01*
X55011Y-39175D01*
X55250Y-39414D01*
X55488Y-39175D01*
X55488Y-39246D01*
X55285Y-39450D01*
X55524Y-39688D01*
X55573Y-39654D01*
X55626Y-39514D01*
X55626Y-40316D01*
X55588Y-40224D01*
X55488Y-40123D01*
X55488Y-39724D01*
X55250Y-39485D01*
X55214Y-39520D01*
X55214Y-39450D01*
X54975Y-39211D01*
X54926Y-39245D01*
X54873Y-39385D01*
X54877Y-39534D01*
X54926Y-39654D01*
X54975Y-39688D01*
X55214Y-39450D01*
X55214Y-39520D01*
X55011Y-39724D01*
X55045Y-39773D01*
X55185Y-39826D01*
X55334Y-39822D01*
X55454Y-39773D01*
X55488Y-39724D01*
X55488Y-40123D01*
X55476Y-40111D01*
X55329Y-40050D01*
X55170Y-40050D01*
X55024Y-40111D01*
X54911Y-40223D01*
X54850Y-40370D01*
X54850Y-40529D01*
X54911Y-40675D01*
X55023Y-40788D01*
X55170Y-40849D01*
X55329Y-40849D01*
X55475Y-40788D01*
X55588Y-40676D01*
X55649Y-40529D01*
X55649Y-40370D01*
X55649Y-41140D01*
X55232Y-41140D01*
X55195Y-41155D01*
X55167Y-41183D01*
X55152Y-41220D01*
X55152Y-41259D01*
X55152Y-41771D01*
X55167Y-41808D01*
X55195Y-41836D01*
X55232Y-41851D01*
X55271Y-41851D01*
X55673Y-41851D01*
X55620Y-41904D01*
X55566Y-42035D01*
X55565Y-42176D01*
X55619Y-42307D01*
X55719Y-42407D01*
X55850Y-42461D01*
X55991Y-42461D01*
X56122Y-42407D01*
X56222Y-42307D01*
X56276Y-42177D01*
X56276Y-42035D01*
X56222Y-41905D01*
X56168Y-41851D01*
X56610Y-41851D01*
X56646Y-41836D01*
X56674Y-41808D01*
X56689Y-41771D01*
X56689Y-48385D01*
X56674Y-48349D01*
X56646Y-48321D01*
X56610Y-48306D01*
X56570Y-48306D01*
X56380Y-48306D01*
X56380Y-46220D01*
X56350Y-46147D01*
X56294Y-46090D01*
X56226Y-46062D01*
X56293Y-46035D01*
X56350Y-45979D01*
X56380Y-45905D01*
X56380Y-45826D01*
X56350Y-45753D01*
X56294Y-45697D01*
X56226Y-45669D01*
X56293Y-45641D01*
X56350Y-45585D01*
X56380Y-45512D01*
X56380Y-45432D01*
X56350Y-45359D01*
X56294Y-45303D01*
X56226Y-45275D01*
X56293Y-45247D01*
X56350Y-45191D01*
X56380Y-45118D01*
X56380Y-45039D01*
X56380Y-43464D01*
X56350Y-43391D01*
X56294Y-43334D01*
X56226Y-43307D01*
X56293Y-43279D01*
X56350Y-43223D01*
X56380Y-43150D01*
X56380Y-43070D01*
X56350Y-42997D01*
X56294Y-42941D01*
X56226Y-42913D01*
X56293Y-42885D01*
X56350Y-42829D01*
X56380Y-42756D01*
X56380Y-42677D01*
X56350Y-42603D01*
X56294Y-42547D01*
X56220Y-42517D01*
X56141Y-42517D01*
X56068Y-42547D01*
X56012Y-42603D01*
X55981Y-42676D01*
X55981Y-42756D01*
X56011Y-42829D01*
X56067Y-42885D01*
X56135Y-42913D01*
X56068Y-42941D01*
X56012Y-42997D01*
X55981Y-43070D01*
X55981Y-43149D01*
X56011Y-43223D01*
X56067Y-43279D01*
X56135Y-43307D01*
X56068Y-43334D01*
X56012Y-43390D01*
X55981Y-43464D01*
X55981Y-43543D01*
X56011Y-43616D01*
X56067Y-43672D01*
X56141Y-43703D01*
X56220Y-43703D01*
X56293Y-43673D01*
X56350Y-43617D01*
X56380Y-43543D01*
X56380Y-43464D01*
X56380Y-45039D01*
X56350Y-44965D01*
X56294Y-44909D01*
X56220Y-44879D01*
X56141Y-44879D01*
X56068Y-44909D01*
X56012Y-44965D01*
X55981Y-45038D01*
X55981Y-45118D01*
X56011Y-45191D01*
X56067Y-45247D01*
X56135Y-45275D01*
X56068Y-45303D01*
X56012Y-45359D01*
X55981Y-45432D01*
X55981Y-45511D01*
X56011Y-45585D01*
X56067Y-45641D01*
X56135Y-45669D01*
X56068Y-45696D01*
X56012Y-45753D01*
X55981Y-45826D01*
X55981Y-45905D01*
X56011Y-45978D01*
X56067Y-46035D01*
X56135Y-46063D01*
X56068Y-46090D01*
X56012Y-46146D01*
X55981Y-46220D01*
X55981Y-46299D01*
X56011Y-46372D01*
X56067Y-46428D01*
X56141Y-46459D01*
X56220Y-46459D01*
X56293Y-46428D01*
X56350Y-46372D01*
X56380Y-46299D01*
X56380Y-46220D01*
X56380Y-48306D01*
X56168Y-48306D01*
X56222Y-48252D01*
X56276Y-48122D01*
X56276Y-47980D01*
X56222Y-47850D01*
X56122Y-47750D01*
X55992Y-47695D01*
X55868Y-47695D01*
X55868Y-47204D01*
X55838Y-47131D01*
X55782Y-47075D01*
X55715Y-47047D01*
X55782Y-47019D01*
X55838Y-46963D01*
X55868Y-46890D01*
X55868Y-46810D01*
X55838Y-46737D01*
X55782Y-46681D01*
X55715Y-46653D01*
X55782Y-46625D01*
X55838Y-46569D01*
X55868Y-46496D01*
X55868Y-46417D01*
X55838Y-46343D01*
X55782Y-46287D01*
X55715Y-46259D01*
X55782Y-46232D01*
X55838Y-46176D01*
X55868Y-46102D01*
X55868Y-46023D01*
X55838Y-45950D01*
X55782Y-45894D01*
X55715Y-45866D01*
X55782Y-45838D01*
X55838Y-45782D01*
X55868Y-45709D01*
X55868Y-45629D01*
X55838Y-45556D01*
X55782Y-45500D01*
X55715Y-45472D01*
X55782Y-45444D01*
X55838Y-45388D01*
X55868Y-45315D01*
X55868Y-45236D01*
X55838Y-45162D01*
X55782Y-45106D01*
X55715Y-45078D01*
X55782Y-45051D01*
X55838Y-44994D01*
X55868Y-44921D01*
X55868Y-44842D01*
X55838Y-44769D01*
X55782Y-44712D01*
X55715Y-44685D01*
X55782Y-44657D01*
X55838Y-44601D01*
X55868Y-44528D01*
X55868Y-44448D01*
X55838Y-44375D01*
X55782Y-44319D01*
X55715Y-44291D01*
X55782Y-44263D01*
X55838Y-44207D01*
X55868Y-44134D01*
X55868Y-44054D01*
X55838Y-43981D01*
X55782Y-43925D01*
X55715Y-43897D01*
X55782Y-43869D01*
X55838Y-43813D01*
X55868Y-43740D01*
X55868Y-43661D01*
X55838Y-43587D01*
X55782Y-43531D01*
X55715Y-43503D01*
X55782Y-43476D01*
X55838Y-43420D01*
X55868Y-43346D01*
X55868Y-43267D01*
X55838Y-43194D01*
X55782Y-43138D01*
X55715Y-43110D01*
X55782Y-43082D01*
X55838Y-43026D01*
X55868Y-42953D01*
X55868Y-42873D01*
X55838Y-42800D01*
X55782Y-42744D01*
X55709Y-42714D01*
X55629Y-42713D01*
X55556Y-42744D01*
X55500Y-42800D01*
X55469Y-42873D01*
X55469Y-42952D01*
X55500Y-43026D01*
X55556Y-43082D01*
X55623Y-43110D01*
X55556Y-43137D01*
X55500Y-43193D01*
X55469Y-43267D01*
X55469Y-43346D01*
X55500Y-43419D01*
X55556Y-43476D01*
X55623Y-43503D01*
X55556Y-43531D01*
X55500Y-43587D01*
X55469Y-43660D01*
X55469Y-43740D01*
X55500Y-43813D01*
X55556Y-43869D01*
X55623Y-43897D01*
X55556Y-43925D01*
X55500Y-43981D01*
X55469Y-44054D01*
X55469Y-44133D01*
X55500Y-44207D01*
X55556Y-44263D01*
X55623Y-44291D01*
X55556Y-44319D01*
X55500Y-44375D01*
X55469Y-44448D01*
X55469Y-44527D01*
X55500Y-44600D01*
X55556Y-44657D01*
X55623Y-44685D01*
X55556Y-44712D01*
X55500Y-44768D01*
X55469Y-44842D01*
X55469Y-44921D01*
X55500Y-44994D01*
X55556Y-45050D01*
X55623Y-45078D01*
X55556Y-45106D01*
X55500Y-45162D01*
X55469Y-45235D01*
X55469Y-45315D01*
X55500Y-45388D01*
X55556Y-45444D01*
X55623Y-45472D01*
X55556Y-45500D01*
X55500Y-45556D01*
X55469Y-45629D01*
X55469Y-45708D01*
X55500Y-45782D01*
X55556Y-45838D01*
X55623Y-45866D01*
X55556Y-45893D01*
X55500Y-45949D01*
X55469Y-46023D01*
X55469Y-46102D01*
X55500Y-46175D01*
X55556Y-46231D01*
X55623Y-46259D01*
X55556Y-46287D01*
X55500Y-46343D01*
X55469Y-46416D01*
X55469Y-46496D01*
X55500Y-46569D01*
X55556Y-46625D01*
X55623Y-46653D01*
X55556Y-46681D01*
X55500Y-46737D01*
X55469Y-46810D01*
X55469Y-46889D01*
X55500Y-46963D01*
X55556Y-47019D01*
X55623Y-47047D01*
X55556Y-47074D01*
X55500Y-47130D01*
X55469Y-47204D01*
X55469Y-47283D01*
X55500Y-47356D01*
X55556Y-47413D01*
X55629Y-47443D01*
X55708Y-47443D01*
X55782Y-47413D01*
X55838Y-47357D01*
X55868Y-47283D01*
X55868Y-47204D01*
X55868Y-47695D01*
X55850Y-47695D01*
X55720Y-47749D01*
X55620Y-47849D01*
X55566Y-47980D01*
X55565Y-48121D01*
X55619Y-48252D01*
X55673Y-48306D01*
X55232Y-48306D01*
X55195Y-48321D01*
X55167Y-48349D01*
X55152Y-48385D01*
X55152Y-48425D01*
X55152Y-48937D01*
X55167Y-48973D01*
X55195Y-49001D01*
X55232Y-49016D01*
X55271Y-49016D01*
X56610Y-49016D01*
X56646Y-49001D01*
X56674Y-48973D01*
X56689Y-48937D01*
X56689Y-53398D01*
X55649Y-54439D01*
X55649Y-50169D01*
X55649Y-50130D01*
X55649Y-49530D01*
X55634Y-49493D01*
X55606Y-49465D01*
X55569Y-49450D01*
X55530Y-49450D01*
X54930Y-49450D01*
X54893Y-49465D01*
X54865Y-49493D01*
X54850Y-49530D01*
X54850Y-49569D01*
X54850Y-50169D01*
X54865Y-50206D01*
X54893Y-50234D01*
X54930Y-50249D01*
X54969Y-50249D01*
X55569Y-50249D01*
X55606Y-50234D01*
X55634Y-50206D01*
X55649Y-50169D01*
X55649Y-54439D01*
X55626Y-54461D01*
X55626Y-50914D01*
X55622Y-50765D01*
X55573Y-50645D01*
X55524Y-50611D01*
X55488Y-50646D01*
X55488Y-50575D01*
X55454Y-50526D01*
X55314Y-50473D01*
X55165Y-50477D01*
X55045Y-50526D01*
X55011Y-50575D01*
X55250Y-50814D01*
X55488Y-50575D01*
X55488Y-50646D01*
X55285Y-50850D01*
X55524Y-51088D01*
X55573Y-51054D01*
X55626Y-50914D01*
X55626Y-54461D01*
X55488Y-54599D01*
X55488Y-51124D01*
X55250Y-50885D01*
X55214Y-50920D01*
X55214Y-50850D01*
X54975Y-50611D01*
X54926Y-50645D01*
X54873Y-50785D01*
X54877Y-50934D01*
X54926Y-51054D01*
X54975Y-51088D01*
X55214Y-50850D01*
X55214Y-50920D01*
X55011Y-51124D01*
X55045Y-51173D01*
X55185Y-51226D01*
X55334Y-51222D01*
X55454Y-51173D01*
X55488Y-51124D01*
X55488Y-54599D01*
X55074Y-55013D01*
X54649Y-55013D01*
X54649Y-49770D01*
X54649Y-40370D01*
X54626Y-40316D01*
X54626Y-39514D01*
X54622Y-39365D01*
X54573Y-39245D01*
X54524Y-39211D01*
X54488Y-39246D01*
X54488Y-39175D01*
X54454Y-39126D01*
X54314Y-39073D01*
X54165Y-39077D01*
X54045Y-39126D01*
X54011Y-39175D01*
X54250Y-39414D01*
X54488Y-39175D01*
X54488Y-39246D01*
X54285Y-39450D01*
X54524Y-39688D01*
X54573Y-39654D01*
X54626Y-39514D01*
X54626Y-40316D01*
X54588Y-40224D01*
X54488Y-40123D01*
X54488Y-39724D01*
X54250Y-39485D01*
X54214Y-39520D01*
X54214Y-39450D01*
X53975Y-39211D01*
X53926Y-39245D01*
X53873Y-39385D01*
X53877Y-39534D01*
X53926Y-39654D01*
X53975Y-39688D01*
X54214Y-39450D01*
X54214Y-39520D01*
X54011Y-39724D01*
X54045Y-39773D01*
X54185Y-39826D01*
X54334Y-39822D01*
X54454Y-39773D01*
X54488Y-39724D01*
X54488Y-40123D01*
X54476Y-40111D01*
X54329Y-40050D01*
X54170Y-40050D01*
X54024Y-40111D01*
X53911Y-40223D01*
X53850Y-40370D01*
X53850Y-40529D01*
X53911Y-40675D01*
X54023Y-40788D01*
X54170Y-40849D01*
X54329Y-40849D01*
X54475Y-40788D01*
X54588Y-40676D01*
X54649Y-40529D01*
X54649Y-40370D01*
X54649Y-49770D01*
X54588Y-49624D01*
X54476Y-49511D01*
X54329Y-49450D01*
X54170Y-49450D01*
X54024Y-49511D01*
X53911Y-49623D01*
X53850Y-49770D01*
X53850Y-49929D01*
X53911Y-50075D01*
X54023Y-50188D01*
X54170Y-50249D01*
X54329Y-50249D01*
X54475Y-50188D01*
X54588Y-50076D01*
X54649Y-49929D01*
X54649Y-49770D01*
X54649Y-55013D01*
X54626Y-55013D01*
X54626Y-50914D01*
X54622Y-50765D01*
X54573Y-50645D01*
X54524Y-50611D01*
X54488Y-50646D01*
X54488Y-50575D01*
X54454Y-50526D01*
X54314Y-50473D01*
X54165Y-50477D01*
X54045Y-50526D01*
X54011Y-50575D01*
X54250Y-50814D01*
X54488Y-50575D01*
X54488Y-50646D01*
X54285Y-50850D01*
X54524Y-51088D01*
X54573Y-51054D01*
X54626Y-50914D01*
X54626Y-55013D01*
X54488Y-55013D01*
X54488Y-51124D01*
X54250Y-50885D01*
X54214Y-50920D01*
X54214Y-50850D01*
X53975Y-50611D01*
X53926Y-50645D01*
X53873Y-50785D01*
X53877Y-50934D01*
X53926Y-51054D01*
X53975Y-51088D01*
X54214Y-50850D01*
X54214Y-50920D01*
X54011Y-51124D01*
X54045Y-51173D01*
X54185Y-51226D01*
X54334Y-51222D01*
X54454Y-51173D01*
X54488Y-51124D01*
X54488Y-55013D01*
X53649Y-55013D01*
X53649Y-49770D01*
X53649Y-40370D01*
X53649Y-39370D01*
X53588Y-39224D01*
X53476Y-39111D01*
X53329Y-39050D01*
X53170Y-39050D01*
X53024Y-39111D01*
X52911Y-39223D01*
X52850Y-39370D01*
X52850Y-39529D01*
X52911Y-39675D01*
X53023Y-39788D01*
X53170Y-39849D01*
X53329Y-39849D01*
X53475Y-39788D01*
X53588Y-39676D01*
X53649Y-39529D01*
X53649Y-39370D01*
X53649Y-40370D01*
X53588Y-40224D01*
X53476Y-40111D01*
X53329Y-40050D01*
X53170Y-40050D01*
X53024Y-40111D01*
X52911Y-40223D01*
X52850Y-40370D01*
X52850Y-40529D01*
X52911Y-40675D01*
X53023Y-40788D01*
X53170Y-40849D01*
X53329Y-40849D01*
X53475Y-40788D01*
X53588Y-40676D01*
X53649Y-40529D01*
X53649Y-40370D01*
X53649Y-49770D01*
X53588Y-49624D01*
X53476Y-49511D01*
X53329Y-49450D01*
X53170Y-49450D01*
X53024Y-49511D01*
X52911Y-49623D01*
X52850Y-49770D01*
X52850Y-49929D01*
X52911Y-50075D01*
X53023Y-50188D01*
X53170Y-50249D01*
X53329Y-50249D01*
X53475Y-50188D01*
X53588Y-50076D01*
X53649Y-49929D01*
X53649Y-49770D01*
X53649Y-55013D01*
X53626Y-55013D01*
X53626Y-50914D01*
X53622Y-50765D01*
X53573Y-50645D01*
X53524Y-50611D01*
X53488Y-50646D01*
X53488Y-50575D01*
X53454Y-50526D01*
X53314Y-50473D01*
X53165Y-50477D01*
X53045Y-50526D01*
X53011Y-50575D01*
X53250Y-50814D01*
X53488Y-50575D01*
X53488Y-50646D01*
X53285Y-50850D01*
X53524Y-51088D01*
X53573Y-51054D01*
X53626Y-50914D01*
X53626Y-55013D01*
X53488Y-55013D01*
X53488Y-51124D01*
X53250Y-50885D01*
X53214Y-50920D01*
X53214Y-50850D01*
X52975Y-50611D01*
X52926Y-50645D01*
X52873Y-50785D01*
X52877Y-50934D01*
X52926Y-51054D01*
X52975Y-51088D01*
X53214Y-50850D01*
X53214Y-50920D01*
X53011Y-51124D01*
X53045Y-51173D01*
X53185Y-51226D01*
X53334Y-51222D01*
X53454Y-51173D01*
X53488Y-51124D01*
X53488Y-55013D01*
X52649Y-55013D01*
X52649Y-50770D01*
X52649Y-40370D01*
X52649Y-39370D01*
X52588Y-39224D01*
X52476Y-39111D01*
X52329Y-39050D01*
X52170Y-39050D01*
X52024Y-39111D01*
X51911Y-39223D01*
X51850Y-39370D01*
X51850Y-39529D01*
X51911Y-39675D01*
X52023Y-39788D01*
X52170Y-39849D01*
X52329Y-39849D01*
X52475Y-39788D01*
X52588Y-39676D01*
X52649Y-39529D01*
X52649Y-39370D01*
X52649Y-40370D01*
X52588Y-40224D01*
X52476Y-40111D01*
X52329Y-40050D01*
X52170Y-40050D01*
X52024Y-40111D01*
X51911Y-40223D01*
X51850Y-40370D01*
X51850Y-40529D01*
X51911Y-40675D01*
X52023Y-40788D01*
X52170Y-40849D01*
X52329Y-40849D01*
X52475Y-40788D01*
X52588Y-40676D01*
X52649Y-40529D01*
X52649Y-40370D01*
X52649Y-50770D01*
X52626Y-50716D01*
X52626Y-49914D01*
X52622Y-49765D01*
X52573Y-49645D01*
X52524Y-49611D01*
X52488Y-49646D01*
X52488Y-49575D01*
X52454Y-49526D01*
X52314Y-49473D01*
X52165Y-49477D01*
X52045Y-49526D01*
X52011Y-49575D01*
X52250Y-49814D01*
X52488Y-49575D01*
X52488Y-49646D01*
X52285Y-49850D01*
X52524Y-50088D01*
X52573Y-50054D01*
X52626Y-49914D01*
X52626Y-50716D01*
X52588Y-50624D01*
X52488Y-50523D01*
X52488Y-50124D01*
X52250Y-49885D01*
X52214Y-49920D01*
X52214Y-49850D01*
X51975Y-49611D01*
X51926Y-49645D01*
X51873Y-49785D01*
X51877Y-49934D01*
X51926Y-50054D01*
X51975Y-50088D01*
X52214Y-49850D01*
X52214Y-49920D01*
X52011Y-50124D01*
X52045Y-50173D01*
X52185Y-50226D01*
X52334Y-50222D01*
X52454Y-50173D01*
X52488Y-50124D01*
X52488Y-50523D01*
X52476Y-50511D01*
X52329Y-50450D01*
X52170Y-50450D01*
X52024Y-50511D01*
X51911Y-50623D01*
X51850Y-50770D01*
X51850Y-50929D01*
X51911Y-51075D01*
X52023Y-51188D01*
X52170Y-51249D01*
X52329Y-51249D01*
X52475Y-51188D01*
X52588Y-51076D01*
X52649Y-50929D01*
X52649Y-50770D01*
X52649Y-55013D01*
X51649Y-55013D01*
X51649Y-50770D01*
X51649Y-49770D01*
X51649Y-40370D01*
X51649Y-39370D01*
X51588Y-39224D01*
X51476Y-39111D01*
X51329Y-39050D01*
X51170Y-39050D01*
X51024Y-39111D01*
X50911Y-39223D01*
X50850Y-39370D01*
X50850Y-39529D01*
X50911Y-39675D01*
X51023Y-39788D01*
X51170Y-39849D01*
X51329Y-39849D01*
X51475Y-39788D01*
X51588Y-39676D01*
X51649Y-39529D01*
X51649Y-39370D01*
X51649Y-40370D01*
X51588Y-40224D01*
X51476Y-40111D01*
X51329Y-40050D01*
X51170Y-40050D01*
X51024Y-40111D01*
X50911Y-40223D01*
X50850Y-40370D01*
X50850Y-40529D01*
X50911Y-40675D01*
X51023Y-40788D01*
X51170Y-40849D01*
X51329Y-40849D01*
X51475Y-40788D01*
X51588Y-40676D01*
X51649Y-40529D01*
X51649Y-40370D01*
X51649Y-49770D01*
X51588Y-49624D01*
X51476Y-49511D01*
X51329Y-49450D01*
X51170Y-49450D01*
X51024Y-49511D01*
X50911Y-49623D01*
X50850Y-49770D01*
X50850Y-49929D01*
X50911Y-50075D01*
X51023Y-50188D01*
X51170Y-50249D01*
X51329Y-50249D01*
X51475Y-50188D01*
X51588Y-50076D01*
X51649Y-49929D01*
X51649Y-49770D01*
X51649Y-50770D01*
X51588Y-50624D01*
X51476Y-50511D01*
X51329Y-50450D01*
X51170Y-50450D01*
X51024Y-50511D01*
X50911Y-50623D01*
X50850Y-50770D01*
X50850Y-50929D01*
X50911Y-51075D01*
X51023Y-51188D01*
X51170Y-51249D01*
X51329Y-51249D01*
X51475Y-51188D01*
X51588Y-51076D01*
X51649Y-50929D01*
X51649Y-50770D01*
X51649Y-55013D01*
X50649Y-55013D01*
X50649Y-50770D01*
X50649Y-49770D01*
X50649Y-40370D01*
X50649Y-39370D01*
X50588Y-39224D01*
X50476Y-39111D01*
X50329Y-39050D01*
X50170Y-39050D01*
X50024Y-39111D01*
X49911Y-39223D01*
X49850Y-39370D01*
X49850Y-39529D01*
X49911Y-39675D01*
X50023Y-39788D01*
X50170Y-39849D01*
X50329Y-39849D01*
X50475Y-39788D01*
X50588Y-39676D01*
X50649Y-39529D01*
X50649Y-39370D01*
X50649Y-40370D01*
X50588Y-40224D01*
X50476Y-40111D01*
X50329Y-40050D01*
X50170Y-40050D01*
X50024Y-40111D01*
X49911Y-40223D01*
X49850Y-40370D01*
X49850Y-40529D01*
X49911Y-40675D01*
X50023Y-40788D01*
X50170Y-40849D01*
X50329Y-40849D01*
X50475Y-40788D01*
X50588Y-40676D01*
X50649Y-40529D01*
X50649Y-40370D01*
X50649Y-49770D01*
X50588Y-49624D01*
X50476Y-49511D01*
X50329Y-49450D01*
X50170Y-49450D01*
X50024Y-49511D01*
X49911Y-49623D01*
X49850Y-49770D01*
X49850Y-49929D01*
X49911Y-50075D01*
X50023Y-50188D01*
X50170Y-50249D01*
X50329Y-50249D01*
X50475Y-50188D01*
X50588Y-50076D01*
X50649Y-49929D01*
X50649Y-49770D01*
X50649Y-50770D01*
X50588Y-50624D01*
X50476Y-50511D01*
X50329Y-50450D01*
X50170Y-50450D01*
X50024Y-50511D01*
X49911Y-50623D01*
X49850Y-50770D01*
X49850Y-50929D01*
X49911Y-51075D01*
X50023Y-51188D01*
X50170Y-51249D01*
X50329Y-51249D01*
X50475Y-51188D01*
X50588Y-51076D01*
X50649Y-50929D01*
X50649Y-50770D01*
X50649Y-55013D01*
X49649Y-55013D01*
X49649Y-50770D01*
X49649Y-49770D01*
X49649Y-40370D01*
X49626Y-40316D01*
X49626Y-39514D01*
X49622Y-39365D01*
X49573Y-39245D01*
X49524Y-39211D01*
X49488Y-39246D01*
X49488Y-39175D01*
X49454Y-39126D01*
X49314Y-39073D01*
X49165Y-39077D01*
X49045Y-39126D01*
X49011Y-39175D01*
X49250Y-39414D01*
X49488Y-39175D01*
X49488Y-39246D01*
X49285Y-39450D01*
X49524Y-39688D01*
X49573Y-39654D01*
X49626Y-39514D01*
X49626Y-40316D01*
X49588Y-40224D01*
X49488Y-40123D01*
X49488Y-39724D01*
X49250Y-39485D01*
X49214Y-39520D01*
X49214Y-39450D01*
X48975Y-39211D01*
X48926Y-39245D01*
X48873Y-39385D01*
X48877Y-39534D01*
X48926Y-39654D01*
X48975Y-39688D01*
X49214Y-39450D01*
X49214Y-39520D01*
X49011Y-39724D01*
X49045Y-39773D01*
X49185Y-39826D01*
X49334Y-39822D01*
X49454Y-39773D01*
X49488Y-39724D01*
X49488Y-40123D01*
X49476Y-40111D01*
X49329Y-40050D01*
X49170Y-40050D01*
X49024Y-40111D01*
X48911Y-40223D01*
X48850Y-40370D01*
X48850Y-40529D01*
X48911Y-40675D01*
X49023Y-40788D01*
X49170Y-40849D01*
X49329Y-40849D01*
X49475Y-40788D01*
X49588Y-40676D01*
X49649Y-40529D01*
X49649Y-40370D01*
X49649Y-49770D01*
X49588Y-49624D01*
X49476Y-49511D01*
X49329Y-49450D01*
X49170Y-49450D01*
X49024Y-49511D01*
X48911Y-49623D01*
X48850Y-49770D01*
X48850Y-49929D01*
X48911Y-50075D01*
X49023Y-50188D01*
X49170Y-50249D01*
X49329Y-50249D01*
X49475Y-50188D01*
X49588Y-50076D01*
X49649Y-49929D01*
X49649Y-49770D01*
X49649Y-50770D01*
X49588Y-50624D01*
X49476Y-50511D01*
X49329Y-50450D01*
X49170Y-50450D01*
X49024Y-50511D01*
X48911Y-50623D01*
X48850Y-50770D01*
X48850Y-50929D01*
X48911Y-51075D01*
X49023Y-51188D01*
X49170Y-51249D01*
X49329Y-51249D01*
X49475Y-51188D01*
X49588Y-51076D01*
X49649Y-50929D01*
X49649Y-50770D01*
X49649Y-55013D01*
X48649Y-55013D01*
X48649Y-50770D01*
X48649Y-49770D01*
X48649Y-40370D01*
X48626Y-40316D01*
X48626Y-39514D01*
X48622Y-39365D01*
X48573Y-39245D01*
X48524Y-39211D01*
X48488Y-39246D01*
X48488Y-39175D01*
X48454Y-39126D01*
X48314Y-39073D01*
X48165Y-39077D01*
X48045Y-39126D01*
X48011Y-39175D01*
X48250Y-39414D01*
X48488Y-39175D01*
X48488Y-39246D01*
X48285Y-39450D01*
X48524Y-39688D01*
X48573Y-39654D01*
X48626Y-39514D01*
X48626Y-40316D01*
X48588Y-40224D01*
X48488Y-40123D01*
X48488Y-39724D01*
X48250Y-39485D01*
X48214Y-39520D01*
X48214Y-39450D01*
X47975Y-39211D01*
X47926Y-39245D01*
X47873Y-39385D01*
X47877Y-39534D01*
X47926Y-39654D01*
X47975Y-39688D01*
X48214Y-39450D01*
X48214Y-39520D01*
X48011Y-39724D01*
X48045Y-39773D01*
X48185Y-39826D01*
X48334Y-39822D01*
X48454Y-39773D01*
X48488Y-39724D01*
X48488Y-40123D01*
X48476Y-40111D01*
X48329Y-40050D01*
X48170Y-40050D01*
X48024Y-40111D01*
X47911Y-40223D01*
X47850Y-40370D01*
X47850Y-40529D01*
X47911Y-40675D01*
X48023Y-40788D01*
X48170Y-40849D01*
X48329Y-40849D01*
X48475Y-40788D01*
X48588Y-40676D01*
X48649Y-40529D01*
X48649Y-40370D01*
X48649Y-49770D01*
X48588Y-49624D01*
X48476Y-49511D01*
X48329Y-49450D01*
X48170Y-49450D01*
X48024Y-49511D01*
X47911Y-49623D01*
X47850Y-49770D01*
X47850Y-49929D01*
X47911Y-50075D01*
X48023Y-50188D01*
X48170Y-50249D01*
X48329Y-50249D01*
X48475Y-50188D01*
X48588Y-50076D01*
X48649Y-49929D01*
X48649Y-49770D01*
X48649Y-50770D01*
X48588Y-50624D01*
X48476Y-50511D01*
X48329Y-50450D01*
X48170Y-50450D01*
X48024Y-50511D01*
X47911Y-50623D01*
X47850Y-50770D01*
X47850Y-50929D01*
X47911Y-51075D01*
X48023Y-51188D01*
X48170Y-51249D01*
X48329Y-51249D01*
X48475Y-51188D01*
X48588Y-51076D01*
X48649Y-50929D01*
X48649Y-50770D01*
X48649Y-55013D01*
X47649Y-55013D01*
X47649Y-50770D01*
X47649Y-49770D01*
X47649Y-40370D01*
X47626Y-40316D01*
X47626Y-39514D01*
X47622Y-39365D01*
X47573Y-39245D01*
X47524Y-39211D01*
X47488Y-39246D01*
X47488Y-39175D01*
X47454Y-39126D01*
X47314Y-39073D01*
X47165Y-39077D01*
X47045Y-39126D01*
X47011Y-39175D01*
X47250Y-39414D01*
X47488Y-39175D01*
X47488Y-39246D01*
X47285Y-39450D01*
X47524Y-39688D01*
X47573Y-39654D01*
X47626Y-39514D01*
X47626Y-40316D01*
X47588Y-40224D01*
X47488Y-40123D01*
X47488Y-39724D01*
X47250Y-39485D01*
X47214Y-39520D01*
X47214Y-39450D01*
X46975Y-39211D01*
X46926Y-39245D01*
X46873Y-39385D01*
X46877Y-39534D01*
X46926Y-39654D01*
X46975Y-39688D01*
X47214Y-39450D01*
X47214Y-39520D01*
X47011Y-39724D01*
X47045Y-39773D01*
X47185Y-39826D01*
X47334Y-39822D01*
X47454Y-39773D01*
X47488Y-39724D01*
X47488Y-40123D01*
X47476Y-40111D01*
X47329Y-40050D01*
X47170Y-40050D01*
X47024Y-40111D01*
X46911Y-40223D01*
X46850Y-40370D01*
X46850Y-40529D01*
X46911Y-40675D01*
X47023Y-40788D01*
X47170Y-40849D01*
X47329Y-40849D01*
X47475Y-40788D01*
X47588Y-40676D01*
X47649Y-40529D01*
X47649Y-40370D01*
X47649Y-49770D01*
X47588Y-49624D01*
X47476Y-49511D01*
X47329Y-49450D01*
X47170Y-49450D01*
X47024Y-49511D01*
X46911Y-49623D01*
X46850Y-49770D01*
X46850Y-49929D01*
X46911Y-50075D01*
X47023Y-50188D01*
X47170Y-50249D01*
X47329Y-50249D01*
X47475Y-50188D01*
X47588Y-50076D01*
X47649Y-49929D01*
X47649Y-49770D01*
X47649Y-50770D01*
X47588Y-50624D01*
X47476Y-50511D01*
X47329Y-50450D01*
X47170Y-50450D01*
X47024Y-50511D01*
X46911Y-50623D01*
X46850Y-50770D01*
X46850Y-50929D01*
X46911Y-51075D01*
X47023Y-51188D01*
X47170Y-51249D01*
X47329Y-51249D01*
X47475Y-51188D01*
X47588Y-51076D01*
X47649Y-50929D01*
X47649Y-50770D01*
X47649Y-55013D01*
X46649Y-55013D01*
X46649Y-50770D01*
X46649Y-49770D01*
X46649Y-40370D01*
X46626Y-40316D01*
X46626Y-39514D01*
X46622Y-39365D01*
X46573Y-39245D01*
X46524Y-39211D01*
X46488Y-39246D01*
X46488Y-39175D01*
X46454Y-39126D01*
X46314Y-39073D01*
X46165Y-39077D01*
X46045Y-39126D01*
X46011Y-39175D01*
X46250Y-39414D01*
X46488Y-39175D01*
X46488Y-39246D01*
X46285Y-39450D01*
X46524Y-39688D01*
X46573Y-39654D01*
X46626Y-39514D01*
X46626Y-40316D01*
X46588Y-40224D01*
X46488Y-40123D01*
X46488Y-39724D01*
X46250Y-39485D01*
X46214Y-39520D01*
X46214Y-39450D01*
X45975Y-39211D01*
X45926Y-39245D01*
X45873Y-39385D01*
X45877Y-39534D01*
X45926Y-39654D01*
X45975Y-39688D01*
X46214Y-39450D01*
X46214Y-39520D01*
X46011Y-39724D01*
X46045Y-39773D01*
X46185Y-39826D01*
X46334Y-39822D01*
X46454Y-39773D01*
X46488Y-39724D01*
X46488Y-40123D01*
X46476Y-40111D01*
X46329Y-40050D01*
X46170Y-40050D01*
X46024Y-40111D01*
X45911Y-40223D01*
X45850Y-40370D01*
X45850Y-40529D01*
X45911Y-40675D01*
X46023Y-40788D01*
X46170Y-40849D01*
X46329Y-40849D01*
X46475Y-40788D01*
X46588Y-40676D01*
X46649Y-40529D01*
X46649Y-40370D01*
X46649Y-49770D01*
X46588Y-49624D01*
X46476Y-49511D01*
X46329Y-49450D01*
X46170Y-49450D01*
X46024Y-49511D01*
X45911Y-49623D01*
X45850Y-49770D01*
X45850Y-49929D01*
X45911Y-50075D01*
X46023Y-50188D01*
X46170Y-50249D01*
X46329Y-50249D01*
X46475Y-50188D01*
X46588Y-50076D01*
X46649Y-49929D01*
X46649Y-49770D01*
X46649Y-50770D01*
X46588Y-50624D01*
X46476Y-50511D01*
X46329Y-50450D01*
X46170Y-50450D01*
X46024Y-50511D01*
X45911Y-50623D01*
X45850Y-50770D01*
X45850Y-50929D01*
X45911Y-51075D01*
X46023Y-51188D01*
X46170Y-51249D01*
X46329Y-51249D01*
X46475Y-51188D01*
X46588Y-51076D01*
X46649Y-50929D01*
X46649Y-50770D01*
X46649Y-55013D01*
X45649Y-55013D01*
X45649Y-50770D01*
X45649Y-49770D01*
X45649Y-40370D01*
X45626Y-40316D01*
X45626Y-39514D01*
X45622Y-39365D01*
X45573Y-39245D01*
X45524Y-39211D01*
X45488Y-39246D01*
X45488Y-39175D01*
X45454Y-39126D01*
X45314Y-39073D01*
X45165Y-39077D01*
X45045Y-39126D01*
X45011Y-39175D01*
X45250Y-39414D01*
X45488Y-39175D01*
X45488Y-39246D01*
X45285Y-39450D01*
X45524Y-39688D01*
X45573Y-39654D01*
X45626Y-39514D01*
X45626Y-40316D01*
X45588Y-40224D01*
X45488Y-40123D01*
X45488Y-39724D01*
X45250Y-39485D01*
X45214Y-39520D01*
X45214Y-39450D01*
X44975Y-39211D01*
X44926Y-39245D01*
X44873Y-39385D01*
X44877Y-39534D01*
X44926Y-39654D01*
X44975Y-39688D01*
X45214Y-39450D01*
X45214Y-39520D01*
X45011Y-39724D01*
X45045Y-39773D01*
X45185Y-39826D01*
X45334Y-39822D01*
X45454Y-39773D01*
X45488Y-39724D01*
X45488Y-40123D01*
X45476Y-40111D01*
X45329Y-40050D01*
X45170Y-40050D01*
X45024Y-40111D01*
X44911Y-40223D01*
X44850Y-40370D01*
X44850Y-40529D01*
X44911Y-40675D01*
X45023Y-40788D01*
X45170Y-40849D01*
X45329Y-40849D01*
X45475Y-40788D01*
X45588Y-40676D01*
X45649Y-40529D01*
X45649Y-40370D01*
X45649Y-49770D01*
X45588Y-49624D01*
X45476Y-49511D01*
X45329Y-49450D01*
X45170Y-49450D01*
X45024Y-49511D01*
X44911Y-49623D01*
X44850Y-49770D01*
X44850Y-49929D01*
X44911Y-50075D01*
X45023Y-50188D01*
X45170Y-50249D01*
X45329Y-50249D01*
X45475Y-50188D01*
X45588Y-50076D01*
X45649Y-49929D01*
X45649Y-49770D01*
X45649Y-50770D01*
X45588Y-50624D01*
X45476Y-50511D01*
X45329Y-50450D01*
X45170Y-50450D01*
X45024Y-50511D01*
X44911Y-50623D01*
X44850Y-50770D01*
X44850Y-50929D01*
X44911Y-51075D01*
X45023Y-51188D01*
X45170Y-51249D01*
X45329Y-51249D01*
X45475Y-51188D01*
X45588Y-51076D01*
X45649Y-50929D01*
X45649Y-50770D01*
X45649Y-55013D01*
X44649Y-55013D01*
X44649Y-49770D01*
X44649Y-40370D01*
X44649Y-39370D01*
X44588Y-39224D01*
X44476Y-39111D01*
X44329Y-39050D01*
X44170Y-39050D01*
X44024Y-39111D01*
X43911Y-39223D01*
X43850Y-39370D01*
X43850Y-39529D01*
X43911Y-39675D01*
X44023Y-39788D01*
X44170Y-39849D01*
X44329Y-39849D01*
X44475Y-39788D01*
X44588Y-39676D01*
X44649Y-39529D01*
X44649Y-39370D01*
X44649Y-40370D01*
X44588Y-40224D01*
X44476Y-40111D01*
X44329Y-40050D01*
X44170Y-40050D01*
X44024Y-40111D01*
X43911Y-40223D01*
X43850Y-40370D01*
X43850Y-40529D01*
X43911Y-40675D01*
X44023Y-40788D01*
X44170Y-40849D01*
X44329Y-40849D01*
X44475Y-40788D01*
X44588Y-40676D01*
X44649Y-40529D01*
X44649Y-40370D01*
X44649Y-49770D01*
X44588Y-49624D01*
X44476Y-49511D01*
X44329Y-49450D01*
X44170Y-49450D01*
X44024Y-49511D01*
X43911Y-49623D01*
X43850Y-49770D01*
X43850Y-49929D01*
X43911Y-50075D01*
X44023Y-50188D01*
X44170Y-50249D01*
X44329Y-50249D01*
X44475Y-50188D01*
X44588Y-50076D01*
X44649Y-49929D01*
X44649Y-49770D01*
X44649Y-55013D01*
X44626Y-55013D01*
X44626Y-50914D01*
X44622Y-50765D01*
X44573Y-50645D01*
X44524Y-50611D01*
X44488Y-50646D01*
X44488Y-50575D01*
X44454Y-50526D01*
X44314Y-50473D01*
X44165Y-50477D01*
X44045Y-50526D01*
X44011Y-50575D01*
X44250Y-50814D01*
X44488Y-50575D01*
X44488Y-50646D01*
X44285Y-50850D01*
X44524Y-51088D01*
X44573Y-51054D01*
X44626Y-50914D01*
X44626Y-55013D01*
X44488Y-55013D01*
X44488Y-51124D01*
X44250Y-50885D01*
X44214Y-50920D01*
X44214Y-50850D01*
X43975Y-50611D01*
X43926Y-50645D01*
X43873Y-50785D01*
X43877Y-50934D01*
X43926Y-51054D01*
X43975Y-51088D01*
X44214Y-50850D01*
X44214Y-50920D01*
X44011Y-51124D01*
X44045Y-51173D01*
X44185Y-51226D01*
X44334Y-51222D01*
X44454Y-51173D01*
X44488Y-51124D01*
X44488Y-55013D01*
X43649Y-55013D01*
X43649Y-49770D01*
X43649Y-39370D01*
X43588Y-39224D01*
X43476Y-39111D01*
X43329Y-39050D01*
X43170Y-39050D01*
X43024Y-39111D01*
X42911Y-39223D01*
X42850Y-39370D01*
X42850Y-39529D01*
X42911Y-39675D01*
X43023Y-39788D01*
X43170Y-39849D01*
X43329Y-39849D01*
X43475Y-39788D01*
X43588Y-39676D01*
X43649Y-39529D01*
X43649Y-39370D01*
X43649Y-49770D01*
X43649Y-49770D01*
X43649Y-40769D01*
X43649Y-40730D01*
X43649Y-40130D01*
X43634Y-40093D01*
X43606Y-40065D01*
X43569Y-40050D01*
X43530Y-40050D01*
X42930Y-40050D01*
X42893Y-40065D01*
X42865Y-40093D01*
X42850Y-40130D01*
X42850Y-40169D01*
X42850Y-40769D01*
X42865Y-40806D01*
X42893Y-40834D01*
X42930Y-40849D01*
X42969Y-40849D01*
X43569Y-40849D01*
X43606Y-40834D01*
X43634Y-40806D01*
X43649Y-40769D01*
X43649Y-49770D01*
X43588Y-49624D01*
X43476Y-49511D01*
X43329Y-49450D01*
X43272Y-49450D01*
X43272Y-49133D01*
X43272Y-49094D01*
X43272Y-48582D01*
X43272Y-41968D01*
X43272Y-41929D01*
X43272Y-41417D01*
X43257Y-41380D01*
X43229Y-41352D01*
X43193Y-41337D01*
X43153Y-41337D01*
X41814Y-41337D01*
X41778Y-41352D01*
X41750Y-41380D01*
X41735Y-41417D01*
X41735Y-41456D01*
X41735Y-41968D01*
X41750Y-42005D01*
X41778Y-42033D01*
X41814Y-42048D01*
X41854Y-42048D01*
X42256Y-42048D01*
X42202Y-42101D01*
X42148Y-42232D01*
X42148Y-42373D01*
X42202Y-42504D01*
X42302Y-42604D01*
X42432Y-42658D01*
X42574Y-42658D01*
X42704Y-42604D01*
X42804Y-42504D01*
X42859Y-42374D01*
X42859Y-42232D01*
X42805Y-42102D01*
X42751Y-42048D01*
X43193Y-42048D01*
X43229Y-42033D01*
X43257Y-42005D01*
X43272Y-41968D01*
X43272Y-48582D01*
X43257Y-48546D01*
X43229Y-48518D01*
X43193Y-48502D01*
X43153Y-48502D01*
X42994Y-48502D01*
X42994Y-47401D01*
X42964Y-47328D01*
X42908Y-47271D01*
X42841Y-47244D01*
X42908Y-47216D01*
X42964Y-47160D01*
X42994Y-47087D01*
X42994Y-47007D01*
X42964Y-46934D01*
X42908Y-46878D01*
X42841Y-46850D01*
X42908Y-46822D01*
X42964Y-46766D01*
X42994Y-46693D01*
X42994Y-46614D01*
X42964Y-46540D01*
X42908Y-46484D01*
X42841Y-46456D01*
X42908Y-46428D01*
X42964Y-46372D01*
X42994Y-46299D01*
X42994Y-46220D01*
X42964Y-46147D01*
X42908Y-46090D01*
X42841Y-46062D01*
X42908Y-46035D01*
X42964Y-45979D01*
X42994Y-45905D01*
X42994Y-45826D01*
X42964Y-45753D01*
X42908Y-45697D01*
X42841Y-45669D01*
X42908Y-45641D01*
X42964Y-45585D01*
X42994Y-45512D01*
X42994Y-45432D01*
X42964Y-45359D01*
X42908Y-45303D01*
X42841Y-45275D01*
X42908Y-45247D01*
X42964Y-45191D01*
X42994Y-45118D01*
X42994Y-45039D01*
X42964Y-44965D01*
X42908Y-44909D01*
X42841Y-44881D01*
X42908Y-44854D01*
X42964Y-44798D01*
X42994Y-44724D01*
X42994Y-44645D01*
X42964Y-44572D01*
X42908Y-44516D01*
X42841Y-44488D01*
X42908Y-44460D01*
X42964Y-44404D01*
X42994Y-44331D01*
X42994Y-44251D01*
X42964Y-44178D01*
X42908Y-44122D01*
X42835Y-44091D01*
X42755Y-44091D01*
X42682Y-44122D01*
X42626Y-44178D01*
X42595Y-44251D01*
X42595Y-44330D01*
X42626Y-44404D01*
X42682Y-44460D01*
X42749Y-44488D01*
X42682Y-44515D01*
X42626Y-44571D01*
X42595Y-44645D01*
X42595Y-44724D01*
X42626Y-44797D01*
X42682Y-44853D01*
X42749Y-44881D01*
X42682Y-44909D01*
X42626Y-44965D01*
X42595Y-45038D01*
X42595Y-45118D01*
X42626Y-45191D01*
X42682Y-45247D01*
X42749Y-45275D01*
X42682Y-45303D01*
X42626Y-45359D01*
X42595Y-45432D01*
X42595Y-45511D01*
X42626Y-45585D01*
X42682Y-45641D01*
X42749Y-45669D01*
X42682Y-45696D01*
X42626Y-45753D01*
X42595Y-45826D01*
X42595Y-45905D01*
X42626Y-45978D01*
X42682Y-46035D01*
X42749Y-46063D01*
X42682Y-46090D01*
X42626Y-46146D01*
X42595Y-46220D01*
X42595Y-46299D01*
X42626Y-46372D01*
X42682Y-46428D01*
X42749Y-46456D01*
X42682Y-46484D01*
X42626Y-46540D01*
X42595Y-46613D01*
X42595Y-46693D01*
X42626Y-46766D01*
X42682Y-46822D01*
X42749Y-46850D01*
X42682Y-46878D01*
X42626Y-46934D01*
X42595Y-47007D01*
X42595Y-47086D01*
X42626Y-47160D01*
X42682Y-47216D01*
X42749Y-47244D01*
X42682Y-47271D01*
X42626Y-47327D01*
X42595Y-47401D01*
X42595Y-47480D01*
X42626Y-47553D01*
X42682Y-47609D01*
X42755Y-47640D01*
X42834Y-47640D01*
X42908Y-47610D01*
X42964Y-47554D01*
X42994Y-47480D01*
X42994Y-47401D01*
X42994Y-48502D01*
X42751Y-48502D01*
X42804Y-48449D01*
X42859Y-48319D01*
X42859Y-48177D01*
X42805Y-48047D01*
X42705Y-47946D01*
X42574Y-47892D01*
X42443Y-47892D01*
X42443Y-46810D01*
X42413Y-46737D01*
X42357Y-46681D01*
X42289Y-46653D01*
X42356Y-46625D01*
X42413Y-46569D01*
X42443Y-46496D01*
X42443Y-46417D01*
X42413Y-46343D01*
X42357Y-46287D01*
X42289Y-46259D01*
X42356Y-46232D01*
X42413Y-46176D01*
X42443Y-46102D01*
X42443Y-46023D01*
X42413Y-45950D01*
X42357Y-45894D01*
X42289Y-45866D01*
X42356Y-45838D01*
X42413Y-45782D01*
X42443Y-45709D01*
X42443Y-45629D01*
X42413Y-45556D01*
X42357Y-45500D01*
X42289Y-45472D01*
X42356Y-45444D01*
X42413Y-45388D01*
X42443Y-45315D01*
X42443Y-45236D01*
X42413Y-45162D01*
X42357Y-45106D01*
X42289Y-45078D01*
X42356Y-45051D01*
X42413Y-44994D01*
X42443Y-44921D01*
X42443Y-44842D01*
X42413Y-44769D01*
X42357Y-44712D01*
X42289Y-44685D01*
X42356Y-44657D01*
X42413Y-44601D01*
X42443Y-44528D01*
X42443Y-44448D01*
X42413Y-44375D01*
X42357Y-44319D01*
X42289Y-44291D01*
X42356Y-44263D01*
X42413Y-44207D01*
X42443Y-44134D01*
X42443Y-44054D01*
X42413Y-43981D01*
X42357Y-43925D01*
X42289Y-43897D01*
X42356Y-43869D01*
X42413Y-43813D01*
X42443Y-43740D01*
X42443Y-43661D01*
X42413Y-43587D01*
X42357Y-43531D01*
X42289Y-43503D01*
X42356Y-43476D01*
X42413Y-43420D01*
X42443Y-43346D01*
X42443Y-43267D01*
X42413Y-43194D01*
X42357Y-43138D01*
X42289Y-43110D01*
X42356Y-43082D01*
X42413Y-43026D01*
X42443Y-42953D01*
X42443Y-42873D01*
X42413Y-42800D01*
X42357Y-42744D01*
X42283Y-42714D01*
X42204Y-42713D01*
X42131Y-42744D01*
X42075Y-42800D01*
X42044Y-42873D01*
X42044Y-42952D01*
X42074Y-43026D01*
X42130Y-43082D01*
X42198Y-43110D01*
X42131Y-43137D01*
X42075Y-43193D01*
X42044Y-43267D01*
X42044Y-43346D01*
X42074Y-43419D01*
X42130Y-43476D01*
X42198Y-43503D01*
X42131Y-43531D01*
X42075Y-43587D01*
X42044Y-43660D01*
X42044Y-43740D01*
X42074Y-43813D01*
X42130Y-43869D01*
X42198Y-43897D01*
X42131Y-43925D01*
X42075Y-43981D01*
X42044Y-44054D01*
X42044Y-44133D01*
X42074Y-44207D01*
X42130Y-44263D01*
X42198Y-44291D01*
X42131Y-44319D01*
X42075Y-44375D01*
X42044Y-44448D01*
X42044Y-44527D01*
X42074Y-44600D01*
X42130Y-44657D01*
X42198Y-44685D01*
X42131Y-44712D01*
X42075Y-44768D01*
X42044Y-44842D01*
X42044Y-44921D01*
X42074Y-44994D01*
X42130Y-45050D01*
X42198Y-45078D01*
X42131Y-45106D01*
X42075Y-45162D01*
X42044Y-45235D01*
X42044Y-45315D01*
X42074Y-45388D01*
X42130Y-45444D01*
X42198Y-45472D01*
X42131Y-45500D01*
X42075Y-45556D01*
X42044Y-45629D01*
X42044Y-45708D01*
X42074Y-45782D01*
X42130Y-45838D01*
X42198Y-45866D01*
X42131Y-45893D01*
X42075Y-45949D01*
X42044Y-46023D01*
X42044Y-46102D01*
X42074Y-46175D01*
X42130Y-46231D01*
X42198Y-46259D01*
X42131Y-46287D01*
X42075Y-46343D01*
X42044Y-46416D01*
X42044Y-46496D01*
X42074Y-46569D01*
X42130Y-46625D01*
X42198Y-46653D01*
X42131Y-46681D01*
X42075Y-46737D01*
X42044Y-46810D01*
X42044Y-46889D01*
X42074Y-46963D01*
X42130Y-47019D01*
X42204Y-47049D01*
X42283Y-47049D01*
X42356Y-47019D01*
X42413Y-46963D01*
X42443Y-46890D01*
X42443Y-46810D01*
X42443Y-47892D01*
X42433Y-47892D01*
X42302Y-47946D01*
X42202Y-48046D01*
X42148Y-48177D01*
X42148Y-48318D01*
X42202Y-48449D01*
X42256Y-48502D01*
X41814Y-48502D01*
X41778Y-48518D01*
X41750Y-48546D01*
X41735Y-48582D01*
X41735Y-48622D01*
X41735Y-49133D01*
X41750Y-49170D01*
X41778Y-49198D01*
X41814Y-49213D01*
X41854Y-49213D01*
X43193Y-49213D01*
X43229Y-49198D01*
X43257Y-49170D01*
X43272Y-49133D01*
X43272Y-49450D01*
X43170Y-49450D01*
X43024Y-49511D01*
X42911Y-49623D01*
X42850Y-49770D01*
X42850Y-49929D01*
X42911Y-50075D01*
X43023Y-50188D01*
X43170Y-50249D01*
X43329Y-50249D01*
X43475Y-50188D01*
X43588Y-50076D01*
X43649Y-49929D01*
X43649Y-49770D01*
X43649Y-55013D01*
X43626Y-55013D01*
X43626Y-50914D01*
X43622Y-50765D01*
X43573Y-50645D01*
X43524Y-50611D01*
X43488Y-50646D01*
X43488Y-50575D01*
X43454Y-50526D01*
X43314Y-50473D01*
X43165Y-50477D01*
X43045Y-50526D01*
X43011Y-50575D01*
X43250Y-50814D01*
X43488Y-50575D01*
X43488Y-50646D01*
X43285Y-50850D01*
X43524Y-51088D01*
X43573Y-51054D01*
X43626Y-50914D01*
X43626Y-55013D01*
X43488Y-55013D01*
X43488Y-51124D01*
X43250Y-50885D01*
X43214Y-50920D01*
X43214Y-50850D01*
X42975Y-50611D01*
X42926Y-50645D01*
X42873Y-50785D01*
X42877Y-50934D01*
X42926Y-51054D01*
X42975Y-51088D01*
X43214Y-50850D01*
X43214Y-50920D01*
X43011Y-51124D01*
X43045Y-51173D01*
X43185Y-51226D01*
X43334Y-51222D01*
X43454Y-51173D01*
X43488Y-51124D01*
X43488Y-55013D01*
X43350Y-55013D01*
X39474Y-51137D01*
X39474Y-39413D01*
X43350Y-35537D01*
X55074Y-35537D01*
X58950Y-39413D01*
X58950Y-51137D01*
M02*
