G04 (created by PCBNEW (2013-09-06 BZR 4312)-stable) date K 23 okt   2013 23:04:12 EEST*
%MOIN*%
G04 Gerber Fmt 3.4, Leading zero omitted, Abs format*
%FSLAX34Y34*%
G01*
G70*
G90*
G04 APERTURE LIST*
%ADD10C,0.000787*%
%ADD11C,0.001000*%
%ADD12C,0.005000*%
%ADD13C,0.005906*%
%ADD14C,0.000100*%
%ADD15C,0.015000*%
%ADD16C,0.000000*%
%ADD17C,0.006000*%
%ADD18C,0.012000*%
G04 APERTURE END LIST*
G54D10*
G54D11*
X43307Y-55118D02*
X39370Y-51181D01*
X55118Y-55118D02*
X43307Y-55118D01*
G54D12*
X49792Y-38946D02*
X49852Y-39113D01*
X49911Y-38946D01*
X50138Y-39113D02*
X49995Y-39113D01*
X50066Y-39113D02*
X50066Y-38863D01*
X50042Y-38898D01*
X50019Y-38922D01*
X49995Y-38934D01*
X50245Y-39089D02*
X50257Y-39101D01*
X50245Y-39113D01*
X50233Y-39101D01*
X50245Y-39089D01*
X50245Y-39113D01*
X50411Y-38863D02*
X50435Y-38863D01*
X50459Y-38875D01*
X50471Y-38886D01*
X50483Y-38910D01*
X50495Y-38958D01*
X50495Y-39017D01*
X50483Y-39065D01*
X50471Y-39089D01*
X50459Y-39101D01*
X50435Y-39113D01*
X50411Y-39113D01*
X50388Y-39101D01*
X50376Y-39089D01*
X50364Y-39065D01*
X50352Y-39017D01*
X50352Y-38958D01*
X50364Y-38910D01*
X50376Y-38886D01*
X50388Y-38875D01*
X50411Y-38863D01*
G54D11*
X59055Y-51181D02*
X55118Y-55118D01*
X59055Y-39370D02*
X59055Y-51181D01*
X55118Y-35433D02*
X59055Y-39370D01*
X43307Y-35433D02*
X55118Y-35433D01*
X39370Y-39370D02*
X43307Y-35433D01*
X39370Y-51181D02*
X39370Y-39370D01*
G54D13*
X39566Y-40354D02*
X49409Y-40354D01*
X49409Y-40354D02*
X49409Y-50196D01*
X49409Y-50196D02*
X39566Y-50196D01*
X39566Y-50196D02*
X39566Y-40354D01*
G54D14*
G36*
X48792Y-38486D02*
X48772Y-38526D01*
X48742Y-38570D01*
X48701Y-38606D01*
X48653Y-38632D01*
X48648Y-38633D01*
X48635Y-38638D01*
X48621Y-38641D01*
X48605Y-38644D01*
X48586Y-38646D01*
X48560Y-38648D01*
X48526Y-38649D01*
X48483Y-38649D01*
X48428Y-38650D01*
X48426Y-38650D01*
X48375Y-38650D01*
X48327Y-38650D01*
X48284Y-38650D01*
X48249Y-38649D01*
X48222Y-38647D01*
X48209Y-38646D01*
X48153Y-38631D01*
X48103Y-38603D01*
X48061Y-38565D01*
X48027Y-38517D01*
X48019Y-38502D01*
X47998Y-38458D01*
X47998Y-38094D01*
X47998Y-37732D01*
X48013Y-37692D01*
X48040Y-37644D01*
X48077Y-37603D01*
X48123Y-37569D01*
X48137Y-37562D01*
X48182Y-37540D01*
X48465Y-37538D01*
X48748Y-37536D01*
X48746Y-37596D01*
X48744Y-37656D01*
X48481Y-37660D01*
X48412Y-37660D01*
X48356Y-37661D01*
X48311Y-37663D01*
X48276Y-37664D01*
X48249Y-37665D01*
X48229Y-37667D01*
X48214Y-37669D01*
X48204Y-37671D01*
X48197Y-37674D01*
X48196Y-37674D01*
X48165Y-37698D01*
X48144Y-37727D01*
X48138Y-37742D01*
X48137Y-37754D01*
X48135Y-37779D01*
X48134Y-37815D01*
X48133Y-37862D01*
X48132Y-37918D01*
X48132Y-37981D01*
X48131Y-38052D01*
X48131Y-38098D01*
X48132Y-38174D01*
X48132Y-38238D01*
X48132Y-38291D01*
X48132Y-38334D01*
X48133Y-38368D01*
X48134Y-38394D01*
X48135Y-38415D01*
X48137Y-38430D01*
X48139Y-38441D01*
X48141Y-38450D01*
X48144Y-38457D01*
X48144Y-38458D01*
X48158Y-38480D01*
X48176Y-38499D01*
X48180Y-38503D01*
X48188Y-38508D01*
X48195Y-38512D01*
X48205Y-38514D01*
X48218Y-38517D01*
X48236Y-38518D01*
X48262Y-38519D01*
X48297Y-38520D01*
X48343Y-38521D01*
X48381Y-38521D01*
X48442Y-38522D01*
X48490Y-38522D01*
X48528Y-38521D01*
X48557Y-38519D01*
X48580Y-38516D01*
X48597Y-38511D01*
X48612Y-38505D01*
X48624Y-38497D01*
X48631Y-38491D01*
X48644Y-38479D01*
X48654Y-38468D01*
X48661Y-38455D01*
X48667Y-38438D01*
X48670Y-38415D01*
X48671Y-38385D01*
X48672Y-38345D01*
X48672Y-38293D01*
X48672Y-38290D01*
X48672Y-38146D01*
X48537Y-38146D01*
X48484Y-38146D01*
X48445Y-38145D01*
X48417Y-38143D01*
X48400Y-38140D01*
X48393Y-38138D01*
X48388Y-38126D01*
X48386Y-38104D01*
X48385Y-38076D01*
X48385Y-38022D01*
X48589Y-38024D01*
X48792Y-38026D01*
X48792Y-38256D01*
X48792Y-38486D01*
X48792Y-38486D01*
X48792Y-38486D01*
G37*
G36*
X49768Y-37859D02*
X49766Y-37907D01*
X49762Y-37953D01*
X49756Y-37993D01*
X49748Y-38024D01*
X49748Y-38025D01*
X49726Y-38067D01*
X49693Y-38107D01*
X49654Y-38141D01*
X49624Y-38159D01*
X49624Y-37792D01*
X49623Y-37768D01*
X49622Y-37752D01*
X49620Y-37740D01*
X49615Y-37731D01*
X49610Y-37722D01*
X49609Y-37721D01*
X49593Y-37703D01*
X49571Y-37687D01*
X49563Y-37682D01*
X49554Y-37677D01*
X49544Y-37674D01*
X49533Y-37671D01*
X49519Y-37669D01*
X49499Y-37668D01*
X49472Y-37667D01*
X49437Y-37667D01*
X49391Y-37666D01*
X49335Y-37666D01*
X49273Y-37667D01*
X49221Y-37667D01*
X49179Y-37668D01*
X49148Y-37670D01*
X49129Y-37672D01*
X49124Y-37673D01*
X49120Y-37676D01*
X49117Y-37681D01*
X49115Y-37689D01*
X49113Y-37702D01*
X49112Y-37722D01*
X49111Y-37750D01*
X49111Y-37788D01*
X49111Y-37838D01*
X49111Y-37858D01*
X49111Y-37906D01*
X49111Y-37950D01*
X49112Y-37988D01*
X49113Y-38018D01*
X49114Y-38038D01*
X49115Y-38046D01*
X49117Y-38049D01*
X49123Y-38051D01*
X49134Y-38053D01*
X49150Y-38055D01*
X49174Y-38056D01*
X49207Y-38056D01*
X49250Y-38057D01*
X49305Y-38057D01*
X49331Y-38057D01*
X49392Y-38057D01*
X49442Y-38056D01*
X49480Y-38056D01*
X49509Y-38055D01*
X49531Y-38053D01*
X49547Y-38051D01*
X49558Y-38049D01*
X49567Y-38046D01*
X49567Y-38046D01*
X49587Y-38032D01*
X49605Y-38014D01*
X49606Y-38013D01*
X49611Y-38005D01*
X49615Y-37995D01*
X49618Y-37982D01*
X49620Y-37965D01*
X49622Y-37939D01*
X49623Y-37904D01*
X49623Y-37868D01*
X49624Y-37824D01*
X49624Y-37792D01*
X49624Y-38159D01*
X49616Y-38164D01*
X49573Y-38183D01*
X49392Y-38186D01*
X49329Y-38186D01*
X49278Y-38187D01*
X49237Y-38186D01*
X49206Y-38185D01*
X49182Y-38183D01*
X49164Y-38179D01*
X49150Y-38174D01*
X49140Y-38168D01*
X49131Y-38160D01*
X49130Y-38160D01*
X49111Y-38140D01*
X49111Y-38385D01*
X49111Y-38454D01*
X49110Y-38511D01*
X49110Y-38557D01*
X49108Y-38591D01*
X49107Y-38615D01*
X49105Y-38630D01*
X49103Y-38637D01*
X49103Y-38638D01*
X49091Y-38642D01*
X49067Y-38645D01*
X49034Y-38646D01*
X49034Y-38646D01*
X48974Y-38646D01*
X48974Y-38125D01*
X48974Y-38027D01*
X48974Y-37942D01*
X48974Y-37870D01*
X48974Y-37808D01*
X48975Y-37756D01*
X48975Y-37713D01*
X48976Y-37678D01*
X48977Y-37650D01*
X48978Y-37629D01*
X48979Y-37613D01*
X48980Y-37601D01*
X48982Y-37593D01*
X48984Y-37587D01*
X48985Y-37584D01*
X48992Y-37574D01*
X48998Y-37566D01*
X49006Y-37559D01*
X49017Y-37554D01*
X49031Y-37550D01*
X49052Y-37547D01*
X49079Y-37545D01*
X49114Y-37544D01*
X49158Y-37544D01*
X49213Y-37544D01*
X49280Y-37544D01*
X49309Y-37544D01*
X49580Y-37547D01*
X49618Y-37564D01*
X49667Y-37595D01*
X49707Y-37635D01*
X49737Y-37684D01*
X49757Y-37741D01*
X49763Y-37771D01*
X49767Y-37812D01*
X49768Y-37859D01*
X49768Y-37859D01*
X49768Y-37859D01*
G37*
G36*
X50672Y-38278D02*
X50672Y-38315D01*
X50671Y-38347D01*
X50670Y-38392D01*
X50669Y-38427D01*
X50667Y-38452D01*
X50665Y-38471D01*
X50661Y-38485D01*
X50656Y-38499D01*
X50654Y-38503D01*
X50633Y-38539D01*
X50604Y-38573D01*
X50572Y-38601D01*
X50549Y-38615D01*
X50534Y-38622D01*
X50518Y-38628D01*
X50500Y-38633D01*
X50478Y-38637D01*
X50452Y-38640D01*
X50420Y-38642D01*
X50380Y-38644D01*
X50331Y-38645D01*
X50272Y-38646D01*
X50202Y-38646D01*
X50154Y-38646D01*
X49871Y-38646D01*
X49871Y-38589D01*
X49872Y-38557D01*
X49875Y-38535D01*
X49879Y-38524D01*
X49885Y-38522D01*
X49899Y-38520D01*
X49921Y-38519D01*
X49952Y-38518D01*
X49994Y-38517D01*
X50047Y-38516D01*
X50112Y-38516D01*
X50176Y-38516D01*
X50247Y-38516D01*
X50305Y-38516D01*
X50352Y-38515D01*
X50389Y-38515D01*
X50417Y-38514D01*
X50439Y-38513D01*
X50455Y-38512D01*
X50466Y-38510D01*
X50474Y-38508D01*
X50480Y-38505D01*
X50486Y-38501D01*
X50488Y-38500D01*
X50507Y-38486D01*
X50521Y-38471D01*
X50530Y-38455D01*
X50536Y-38432D01*
X50539Y-38402D01*
X50541Y-38361D01*
X50541Y-38358D01*
X50542Y-38318D01*
X50540Y-38286D01*
X50538Y-38265D01*
X50536Y-38257D01*
X50531Y-38252D01*
X50520Y-38246D01*
X50500Y-38238D01*
X50473Y-38227D01*
X50436Y-38214D01*
X50389Y-38197D01*
X50331Y-38177D01*
X50262Y-38154D01*
X50238Y-38146D01*
X50177Y-38125D01*
X50119Y-38106D01*
X50066Y-38087D01*
X50019Y-38071D01*
X49980Y-38057D01*
X49951Y-38045D01*
X49931Y-38037D01*
X49925Y-38034D01*
X49908Y-38022D01*
X49896Y-38009D01*
X49887Y-37994D01*
X49881Y-37974D01*
X49877Y-37947D01*
X49875Y-37912D01*
X49875Y-37866D01*
X49875Y-37845D01*
X49875Y-37798D01*
X49875Y-37762D01*
X49877Y-37736D01*
X49879Y-37716D01*
X49882Y-37700D01*
X49887Y-37685D01*
X49888Y-37684D01*
X49910Y-37643D01*
X49943Y-37607D01*
X49983Y-37577D01*
X50003Y-37566D01*
X50046Y-37547D01*
X50345Y-37545D01*
X50645Y-37543D01*
X50645Y-37594D01*
X50644Y-37620D01*
X50643Y-37642D01*
X50641Y-37655D01*
X50641Y-37656D01*
X50639Y-37658D01*
X50633Y-37661D01*
X50624Y-37662D01*
X50609Y-37664D01*
X50587Y-37665D01*
X50557Y-37666D01*
X50517Y-37666D01*
X50468Y-37666D01*
X50406Y-37666D01*
X50372Y-37666D01*
X50308Y-37667D01*
X50249Y-37667D01*
X50196Y-37668D01*
X50152Y-37669D01*
X50117Y-37670D01*
X50094Y-37672D01*
X50083Y-37673D01*
X50063Y-37682D01*
X50042Y-37698D01*
X50035Y-37704D01*
X50012Y-37729D01*
X50009Y-37827D01*
X50009Y-37867D01*
X50009Y-37895D01*
X50010Y-37914D01*
X50013Y-37927D01*
X50017Y-37934D01*
X50018Y-37935D01*
X50026Y-37940D01*
X50047Y-37948D01*
X50077Y-37959D01*
X50116Y-37973D01*
X50163Y-37990D01*
X50216Y-38008D01*
X50274Y-38028D01*
X50319Y-38043D01*
X50380Y-38063D01*
X50438Y-38083D01*
X50490Y-38101D01*
X50536Y-38118D01*
X50574Y-38132D01*
X50603Y-38143D01*
X50622Y-38151D01*
X50628Y-38154D01*
X50642Y-38169D01*
X50656Y-38189D01*
X50659Y-38195D01*
X50664Y-38206D01*
X50668Y-38218D01*
X50670Y-38232D01*
X50672Y-38251D01*
X50672Y-38278D01*
X50672Y-38278D01*
X50672Y-38278D01*
G37*
G36*
X48733Y-37277D02*
X48732Y-37313D01*
X48731Y-37341D01*
X48728Y-37361D01*
X48723Y-37376D01*
X48716Y-37389D01*
X48708Y-37399D01*
X48703Y-37404D01*
X48681Y-37427D01*
X48598Y-37427D01*
X48515Y-37427D01*
X48515Y-37407D01*
X48515Y-37387D01*
X48590Y-37385D01*
X48628Y-37382D01*
X48655Y-37379D01*
X48671Y-37375D01*
X48673Y-37374D01*
X48678Y-37363D01*
X48683Y-37343D01*
X48685Y-37323D01*
X48686Y-37300D01*
X48686Y-37288D01*
X48682Y-37285D01*
X48675Y-37286D01*
X48672Y-37287D01*
X48651Y-37291D01*
X48623Y-37293D01*
X48594Y-37292D01*
X48567Y-37289D01*
X48548Y-37284D01*
X48547Y-37283D01*
X48532Y-37274D01*
X48521Y-37264D01*
X48513Y-37249D01*
X48508Y-37229D01*
X48505Y-37201D01*
X48503Y-37163D01*
X48502Y-37131D01*
X48500Y-37023D01*
X48525Y-37023D01*
X48549Y-37023D01*
X48549Y-37120D01*
X48549Y-37165D01*
X48551Y-37198D01*
X48555Y-37221D01*
X48561Y-37236D01*
X48572Y-37244D01*
X48588Y-37248D01*
X48610Y-37248D01*
X48618Y-37249D01*
X48641Y-37248D01*
X48659Y-37245D01*
X48671Y-37239D01*
X48679Y-37226D01*
X48684Y-37206D01*
X48686Y-37176D01*
X48686Y-37135D01*
X48686Y-37120D01*
X48686Y-37022D01*
X48708Y-37024D01*
X48731Y-37026D01*
X48733Y-37173D01*
X48733Y-37231D01*
X48733Y-37277D01*
X48733Y-37277D01*
X48733Y-37277D01*
G37*
G36*
X48166Y-37203D02*
X48164Y-37234D01*
X48157Y-37257D01*
X48143Y-37274D01*
X48122Y-37285D01*
X48092Y-37292D01*
X48050Y-37296D01*
X48009Y-37297D01*
X47932Y-37297D01*
X47934Y-37274D01*
X47936Y-37252D01*
X48024Y-37249D01*
X48063Y-37247D01*
X48091Y-37244D01*
X48109Y-37240D01*
X48119Y-37233D01*
X48123Y-37223D01*
X48123Y-37210D01*
X48123Y-37208D01*
X48121Y-37201D01*
X48116Y-37195D01*
X48106Y-37190D01*
X48089Y-37184D01*
X48062Y-37176D01*
X48035Y-37170D01*
X48002Y-37161D01*
X47973Y-37153D01*
X47952Y-37147D01*
X47941Y-37143D01*
X47941Y-37143D01*
X47936Y-37134D01*
X47933Y-37115D01*
X47933Y-37100D01*
X47934Y-37077D01*
X47938Y-37061D01*
X47948Y-37049D01*
X47954Y-37042D01*
X47975Y-37023D01*
X48068Y-37023D01*
X48160Y-37023D01*
X48158Y-37041D01*
X48155Y-37060D01*
X48077Y-37062D01*
X48043Y-37064D01*
X48015Y-37066D01*
X47996Y-37069D01*
X47989Y-37072D01*
X47983Y-37084D01*
X47982Y-37097D01*
X47984Y-37105D01*
X47989Y-37112D01*
X48001Y-37117D01*
X48020Y-37123D01*
X48049Y-37130D01*
X48081Y-37138D01*
X48110Y-37145D01*
X48133Y-37151D01*
X48140Y-37153D01*
X48166Y-37160D01*
X48166Y-37203D01*
X48166Y-37203D01*
X48166Y-37203D01*
G37*
G36*
X48460Y-37293D02*
X48454Y-37295D01*
X48439Y-37297D01*
X48436Y-37297D01*
X48425Y-37296D01*
X48416Y-37293D01*
X48408Y-37284D01*
X48399Y-37269D01*
X48386Y-37244D01*
X48383Y-37238D01*
X48354Y-37180D01*
X48318Y-37180D01*
X48283Y-37180D01*
X48281Y-37237D01*
X48279Y-37293D01*
X48256Y-37295D01*
X48234Y-37297D01*
X48234Y-37091D01*
X48234Y-36885D01*
X48256Y-36887D01*
X48279Y-36889D01*
X48280Y-37015D01*
X48282Y-37141D01*
X48330Y-37138D01*
X48355Y-37135D01*
X48375Y-37131D01*
X48386Y-37127D01*
X48386Y-37127D01*
X48391Y-37116D01*
X48395Y-37096D01*
X48397Y-37071D01*
X48397Y-37070D01*
X48400Y-37023D01*
X48423Y-37023D01*
X48446Y-37023D01*
X48446Y-37059D01*
X48443Y-37104D01*
X48431Y-37139D01*
X48418Y-37157D01*
X48402Y-37174D01*
X48431Y-37232D01*
X48444Y-37257D01*
X48453Y-37278D01*
X48459Y-37291D01*
X48460Y-37293D01*
X48460Y-37293D01*
X48460Y-37293D01*
G37*
G36*
X48974Y-37297D02*
X48921Y-37296D01*
X48894Y-37295D01*
X48872Y-37294D01*
X48858Y-37292D01*
X48857Y-37292D01*
X48834Y-37283D01*
X48818Y-37271D01*
X48807Y-37255D01*
X48800Y-37233D01*
X48797Y-37201D01*
X48796Y-37157D01*
X48796Y-37156D01*
X48797Y-37110D01*
X48802Y-37076D01*
X48812Y-37051D01*
X48829Y-37036D01*
X48854Y-37027D01*
X48889Y-37023D01*
X48915Y-37023D01*
X48974Y-37023D01*
X48974Y-37043D01*
X48974Y-37064D01*
X48926Y-37064D01*
X48899Y-37065D01*
X48876Y-37067D01*
X48861Y-37070D01*
X48854Y-37074D01*
X48849Y-37079D01*
X48846Y-37087D01*
X48844Y-37103D01*
X48844Y-37127D01*
X48844Y-37155D01*
X48844Y-37196D01*
X48847Y-37224D01*
X48851Y-37239D01*
X48852Y-37240D01*
X48864Y-37245D01*
X48886Y-37248D01*
X48917Y-37249D01*
X48974Y-37249D01*
X48974Y-37273D01*
X48974Y-37297D01*
X48974Y-37297D01*
X48974Y-37297D01*
G37*
G36*
X49255Y-37182D02*
X49254Y-37228D01*
X49253Y-37260D01*
X49250Y-37280D01*
X49246Y-37288D01*
X49237Y-37291D01*
X49217Y-37294D01*
X49207Y-37294D01*
X49207Y-37249D01*
X49207Y-37206D01*
X49207Y-37163D01*
X49150Y-37165D01*
X49123Y-37167D01*
X49100Y-37170D01*
X49087Y-37174D01*
X49085Y-37175D01*
X49078Y-37188D01*
X49076Y-37207D01*
X49079Y-37226D01*
X49086Y-37240D01*
X49089Y-37241D01*
X49101Y-37245D01*
X49123Y-37247D01*
X49149Y-37248D01*
X49154Y-37248D01*
X49207Y-37249D01*
X49207Y-37294D01*
X49190Y-37295D01*
X49160Y-37296D01*
X49130Y-37296D01*
X49104Y-37294D01*
X49086Y-37292D01*
X49064Y-37281D01*
X49046Y-37260D01*
X49033Y-37233D01*
X49030Y-37216D01*
X49031Y-37181D01*
X49041Y-37155D01*
X49061Y-37136D01*
X49092Y-37124D01*
X49134Y-37119D01*
X49152Y-37118D01*
X49179Y-37118D01*
X49195Y-37117D01*
X49203Y-37114D01*
X49206Y-37109D01*
X49207Y-37102D01*
X49203Y-37085D01*
X49191Y-37074D01*
X49169Y-37067D01*
X49135Y-37064D01*
X49116Y-37064D01*
X49056Y-37064D01*
X49056Y-37043D01*
X49056Y-37023D01*
X49128Y-37023D01*
X49168Y-37023D01*
X49199Y-37027D01*
X49222Y-37036D01*
X49237Y-37050D01*
X49247Y-37072D01*
X49252Y-37104D01*
X49254Y-37146D01*
X49255Y-37182D01*
X49255Y-37182D01*
X49255Y-37182D01*
G37*
G36*
X49549Y-37297D02*
X49527Y-37295D01*
X49505Y-37293D01*
X49503Y-37185D01*
X49502Y-37142D01*
X49500Y-37110D01*
X49497Y-37088D01*
X49490Y-37074D01*
X49479Y-37067D01*
X49462Y-37064D01*
X49438Y-37064D01*
X49421Y-37065D01*
X49368Y-37067D01*
X49366Y-37182D01*
X49364Y-37297D01*
X49340Y-37297D01*
X49316Y-37297D01*
X49316Y-37175D01*
X49316Y-37125D01*
X49317Y-37088D01*
X49320Y-37061D01*
X49325Y-37043D01*
X49334Y-37031D01*
X49348Y-37025D01*
X49369Y-37023D01*
X49396Y-37022D01*
X49413Y-37023D01*
X49456Y-37023D01*
X49488Y-37026D01*
X49512Y-37034D01*
X49529Y-37047D01*
X49540Y-37067D01*
X49546Y-37096D01*
X49549Y-37136D01*
X49549Y-37187D01*
X49549Y-37297D01*
X49549Y-37297D01*
X49549Y-37297D01*
G37*
G36*
X49672Y-37288D02*
X49668Y-37295D01*
X49655Y-37297D01*
X49650Y-37297D01*
X49633Y-37295D01*
X49623Y-37292D01*
X49622Y-37292D01*
X49619Y-37283D01*
X49618Y-37266D01*
X49618Y-37264D01*
X49618Y-37249D01*
X49624Y-37243D01*
X49637Y-37243D01*
X49643Y-37243D01*
X49660Y-37246D01*
X49668Y-37252D01*
X49671Y-37267D01*
X49671Y-37271D01*
X49672Y-37288D01*
X49672Y-37288D01*
X49672Y-37288D01*
G37*
G36*
X49789Y-37297D02*
X49765Y-37297D01*
X49741Y-37297D01*
X49741Y-37160D01*
X49741Y-37023D01*
X49765Y-37023D01*
X49789Y-37023D01*
X49789Y-37160D01*
X49789Y-37297D01*
X49789Y-37297D01*
X49789Y-37297D01*
G37*
G36*
X50089Y-37141D02*
X50089Y-37173D01*
X50086Y-37217D01*
X50079Y-37250D01*
X50068Y-37272D01*
X50049Y-37286D01*
X50042Y-37288D01*
X50042Y-37158D01*
X50042Y-37121D01*
X50039Y-37095D01*
X50032Y-37078D01*
X50020Y-37069D01*
X50001Y-37065D01*
X49974Y-37064D01*
X49971Y-37064D01*
X49943Y-37065D01*
X49922Y-37068D01*
X49914Y-37072D01*
X49909Y-37083D01*
X49906Y-37105D01*
X49905Y-37133D01*
X49905Y-37164D01*
X49906Y-37194D01*
X49909Y-37220D01*
X49913Y-37239D01*
X49916Y-37245D01*
X49931Y-37252D01*
X49955Y-37256D01*
X49982Y-37256D01*
X50007Y-37252D01*
X50025Y-37245D01*
X50029Y-37242D01*
X50035Y-37234D01*
X50039Y-37223D01*
X50041Y-37207D01*
X50042Y-37181D01*
X50042Y-37158D01*
X50042Y-37288D01*
X50022Y-37294D01*
X49984Y-37296D01*
X49969Y-37297D01*
X49939Y-37296D01*
X49919Y-37294D01*
X49905Y-37290D01*
X49894Y-37284D01*
X49891Y-37281D01*
X49877Y-37268D01*
X49868Y-37254D01*
X49862Y-37236D01*
X49859Y-37211D01*
X49857Y-37177D01*
X49857Y-37156D01*
X49858Y-37109D01*
X49863Y-37074D01*
X49872Y-37050D01*
X49888Y-37033D01*
X49911Y-37024D01*
X49944Y-37020D01*
X49974Y-37019D01*
X50005Y-37020D01*
X50026Y-37022D01*
X50041Y-37026D01*
X50053Y-37033D01*
X50054Y-37034D01*
X50070Y-37050D01*
X50081Y-37071D01*
X50087Y-37101D01*
X50089Y-37141D01*
X50089Y-37141D01*
X50089Y-37141D01*
G37*
G36*
X49789Y-36923D02*
X49788Y-36939D01*
X49782Y-36946D01*
X49767Y-36947D01*
X49765Y-36947D01*
X49749Y-36946D01*
X49742Y-36940D01*
X49741Y-36925D01*
X49741Y-36923D01*
X49742Y-36907D01*
X49748Y-36901D01*
X49763Y-36899D01*
X49765Y-36899D01*
X49781Y-36900D01*
X49788Y-36906D01*
X49789Y-36921D01*
X49789Y-36923D01*
X49789Y-36923D01*
X49789Y-36923D01*
G37*
G54D15*
X50728Y-45019D02*
X53208Y-45019D01*
X53208Y-45019D02*
X53208Y-47499D01*
X53208Y-47499D02*
X50728Y-47499D01*
X50728Y-47499D02*
X50728Y-45019D01*
G54D16*
X0Y0D02*
X0Y0D01*
X0Y0D01*
X0Y0D01*
X0Y0D01*
X0Y0D01*
X0Y0D01*
X0Y0D01*
X0Y0D01*
X0Y0D01*
X0Y0D01*
X0Y0D01*
X0Y0D01*
X0Y0D01*
X0Y0D01*
X0Y0D01*
X0Y0D01*
X0Y0D01*
X0Y0D01*
X0Y0D01*
X0Y0D02*
X0Y0D01*
X0Y0D02*
X0Y0D01*
X0Y0D02*
X0Y0D01*
X0Y0D01*
X0Y0D01*
X0Y0D01*
X0Y0D01*
X0Y0D01*
X0Y0D01*
X0Y0D01*
X0Y0D01*
X0Y0D02*
X0Y0D01*
X0Y0D01*
X0Y0D01*
X0Y0D01*
X0Y0D01*
X0Y0D01*
X0Y0D01*
X0Y0D01*
X0Y0D01*
X0Y0D01*
X0Y0D01*
X0Y0D01*
X0Y0D01*
X0Y0D01*
X0Y0D01*
X0Y0D01*
X0Y0D01*
X0Y0D01*
X0Y0D02*
X0Y0D01*
X0Y0D01*
X0Y0D01*
X0Y0D01*
X0Y0D01*
X0Y0D01*
X0Y0D01*
X0Y0D01*
X0Y0D01*
X0Y0D01*
X0Y0D01*
X0Y0D01*
X0Y0D01*
X0Y0D01*
X0Y0D01*
X0Y0D01*
X0Y0D02*
X0Y0D01*
X0Y0D02*
X0Y0D01*
X0Y0D01*
X0Y0D02*
X0Y0D01*
X0Y0D01*
X0Y0D01*
X0Y0D01*
X0Y0D01*
X0Y0D01*
X0Y0D01*
X0Y0D01*
X0Y0D01*
X0Y0D01*
G54D17*
X44283Y-44903D02*
X44283Y-45162D01*
X44298Y-45193D01*
X44314Y-45208D01*
X44344Y-45223D01*
X44405Y-45223D01*
X44436Y-45208D01*
X44451Y-45193D01*
X44466Y-45162D01*
X44466Y-44903D01*
X44786Y-45223D02*
X44603Y-45223D01*
X44695Y-45223D02*
X44695Y-44903D01*
X44664Y-44949D01*
X44634Y-44979D01*
X44603Y-44994D01*
G54D18*
X51768Y-47931D02*
X51768Y-48359D01*
X51739Y-48445D01*
X51682Y-48502D01*
X51597Y-48531D01*
X51539Y-48531D01*
X52368Y-48531D02*
X52025Y-48531D01*
X52197Y-48531D02*
X52197Y-47931D01*
X52139Y-48016D01*
X52082Y-48074D01*
X52025Y-48102D01*
M02*
