G04 (created by PCBNEW (2013-09-06 BZR 4312)-stable) date T 05 nov   2013 22:44:21 EET*
%MOIN*%
G04 Gerber Fmt 3.4, Leading zero omitted, Abs format*
%FSLAX34Y34*%
G01*
G70*
G90*
G04 APERTURE LIST*
%ADD10C,0.000787*%
%ADD11C,0.001000*%
%ADD12C,0.005000*%
%ADD13C,0.000100*%
G04 APERTURE END LIST*
G54D10*
G54D11*
X43307Y-55118D02*
X39370Y-51181D01*
X55118Y-55118D02*
X43307Y-55118D01*
G54D12*
X46785Y-50375D02*
X46809Y-50399D01*
X46881Y-50423D01*
X46928Y-50423D01*
X47000Y-50399D01*
X47047Y-50351D01*
X47071Y-50303D01*
X47095Y-50208D01*
X47095Y-50137D01*
X47071Y-50042D01*
X47047Y-49994D01*
X47000Y-49946D01*
X46928Y-49923D01*
X46881Y-49923D01*
X46809Y-49946D01*
X46785Y-49970D01*
X46285Y-50375D02*
X46309Y-50399D01*
X46381Y-50423D01*
X46428Y-50423D01*
X46500Y-50399D01*
X46547Y-50351D01*
X46571Y-50303D01*
X46595Y-50208D01*
X46595Y-50137D01*
X46571Y-50042D01*
X46547Y-49994D01*
X46500Y-49946D01*
X46428Y-49923D01*
X46381Y-49923D01*
X46309Y-49946D01*
X46285Y-49970D01*
X45523Y-50161D02*
X45452Y-50184D01*
X45428Y-50208D01*
X45404Y-50256D01*
X45404Y-50327D01*
X45428Y-50375D01*
X45452Y-50399D01*
X45500Y-50423D01*
X45690Y-50423D01*
X45690Y-49923D01*
X45523Y-49923D01*
X45476Y-49946D01*
X45452Y-49970D01*
X45428Y-50018D01*
X45428Y-50065D01*
X45452Y-50113D01*
X45476Y-50137D01*
X45523Y-50161D01*
X45690Y-50161D01*
X45095Y-50184D02*
X45095Y-50423D01*
X45261Y-49923D02*
X45095Y-50184D01*
X44928Y-49923D01*
X44761Y-50232D02*
X44381Y-50232D01*
X44166Y-50399D02*
X44095Y-50423D01*
X43976Y-50423D01*
X43928Y-50399D01*
X43904Y-50375D01*
X43881Y-50327D01*
X43881Y-50280D01*
X43904Y-50232D01*
X43928Y-50208D01*
X43976Y-50184D01*
X44071Y-50161D01*
X44119Y-50137D01*
X44142Y-50113D01*
X44166Y-50065D01*
X44166Y-50018D01*
X44142Y-49970D01*
X44119Y-49946D01*
X44071Y-49923D01*
X43952Y-49923D01*
X43881Y-49946D01*
X43690Y-50280D02*
X43452Y-50280D01*
X43738Y-50423D02*
X43571Y-49923D01*
X43404Y-50423D01*
X42904Y-49923D02*
X42595Y-49923D01*
X42761Y-50113D01*
X42690Y-50113D01*
X42642Y-50137D01*
X42619Y-50161D01*
X42595Y-50208D01*
X42595Y-50327D01*
X42619Y-50375D01*
X42642Y-50399D01*
X42690Y-50423D01*
X42833Y-50423D01*
X42881Y-50399D01*
X42904Y-50375D01*
X42381Y-50375D02*
X42357Y-50399D01*
X42381Y-50423D01*
X42404Y-50399D01*
X42381Y-50375D01*
X42381Y-50423D01*
X42047Y-49923D02*
X42000Y-49923D01*
X41952Y-49946D01*
X41928Y-49970D01*
X41904Y-50018D01*
X41881Y-50113D01*
X41881Y-50232D01*
X41904Y-50327D01*
X41928Y-50375D01*
X41952Y-50399D01*
X42000Y-50423D01*
X42047Y-50423D01*
X42095Y-50399D01*
X42119Y-50375D01*
X42142Y-50327D01*
X42166Y-50232D01*
X42166Y-50113D01*
X42142Y-50018D01*
X42119Y-49970D01*
X42095Y-49946D01*
X42047Y-49923D01*
G54D11*
X59055Y-51181D02*
X55118Y-55118D01*
X59055Y-39370D02*
X59055Y-51181D01*
X55118Y-35433D02*
X59055Y-39370D01*
X43307Y-35433D02*
X55118Y-35433D01*
X39370Y-39370D02*
X43307Y-35433D01*
X39370Y-51181D02*
X39370Y-39370D01*
G54D13*
G36*
X42061Y-49403D02*
X42102Y-49381D01*
X42195Y-49323D01*
X42326Y-49237D01*
X42481Y-49133D01*
X42637Y-49028D01*
X42766Y-48942D01*
X42855Y-48884D01*
X42893Y-48863D01*
X42913Y-48870D01*
X42987Y-48906D01*
X43095Y-48962D01*
X43157Y-48995D01*
X43256Y-49037D01*
X43305Y-49046D01*
X43313Y-49032D01*
X43349Y-48957D01*
X43406Y-48828D01*
X43480Y-48657D01*
X43565Y-48457D01*
X43656Y-48242D01*
X43748Y-48022D01*
X43835Y-47812D01*
X43912Y-47624D01*
X43974Y-47471D01*
X44014Y-47364D01*
X44029Y-47318D01*
X44025Y-47309D01*
X43975Y-47261D01*
X43889Y-47196D01*
X43703Y-47045D01*
X43519Y-46815D01*
X43407Y-46554D01*
X43370Y-46265D01*
X43402Y-45996D01*
X43507Y-45737D01*
X43687Y-45505D01*
X43905Y-45332D01*
X44161Y-45223D01*
X44447Y-45188D01*
X44723Y-45219D01*
X44987Y-45323D01*
X45219Y-45500D01*
X45316Y-45613D01*
X45452Y-45848D01*
X45529Y-46101D01*
X45537Y-46165D01*
X45526Y-46441D01*
X45444Y-46706D01*
X45298Y-46944D01*
X45095Y-47138D01*
X45070Y-47156D01*
X44976Y-47226D01*
X44913Y-47274D01*
X44864Y-47315D01*
X45216Y-48162D01*
X45272Y-48297D01*
X45368Y-48529D01*
X45454Y-48728D01*
X45521Y-48887D01*
X45568Y-48993D01*
X45589Y-49036D01*
X45591Y-49038D01*
X45622Y-49044D01*
X45687Y-49020D01*
X45805Y-48963D01*
X45883Y-48923D01*
X45973Y-48879D01*
X46014Y-48863D01*
X46048Y-48882D01*
X46135Y-48938D01*
X46261Y-49022D01*
X46412Y-49125D01*
X46556Y-49223D01*
X46689Y-49311D01*
X46786Y-49373D01*
X46833Y-49398D01*
X46840Y-49398D01*
X46882Y-49375D01*
X46958Y-49311D01*
X47074Y-49202D01*
X47237Y-49041D01*
X47262Y-49016D01*
X47396Y-48879D01*
X47505Y-48765D01*
X47578Y-48683D01*
X47605Y-48646D01*
X47605Y-48646D01*
X47581Y-48600D01*
X47520Y-48504D01*
X47432Y-48369D01*
X47324Y-48212D01*
X47044Y-47804D01*
X47198Y-47419D01*
X47245Y-47301D01*
X47305Y-47158D01*
X47350Y-47056D01*
X47373Y-47012D01*
X47415Y-46997D01*
X47520Y-46972D01*
X47673Y-46940D01*
X47855Y-46906D01*
X48028Y-46874D01*
X48185Y-46845D01*
X48298Y-46822D01*
X48349Y-46812D01*
X48361Y-46805D01*
X48372Y-46780D01*
X48378Y-46727D01*
X48382Y-46632D01*
X48384Y-46482D01*
X48384Y-46265D01*
X48384Y-46241D01*
X48382Y-46034D01*
X48379Y-45869D01*
X48373Y-45760D01*
X48366Y-45718D01*
X48365Y-45717D01*
X48316Y-45705D01*
X48206Y-45682D01*
X48049Y-45651D01*
X47862Y-45616D01*
X47851Y-45613D01*
X47664Y-45578D01*
X47508Y-45545D01*
X47399Y-45520D01*
X47353Y-45506D01*
X47343Y-45492D01*
X47306Y-45420D01*
X47252Y-45304D01*
X47190Y-45163D01*
X47130Y-45017D01*
X47077Y-44886D01*
X47042Y-44787D01*
X47031Y-44743D01*
X47032Y-44742D01*
X47060Y-44697D01*
X47124Y-44601D01*
X47214Y-44467D01*
X47323Y-44308D01*
X47331Y-44296D01*
X47438Y-44139D01*
X47525Y-44006D01*
X47583Y-43911D01*
X47605Y-43868D01*
X47604Y-43865D01*
X47569Y-43818D01*
X47488Y-43729D01*
X47374Y-43609D01*
X47236Y-43470D01*
X47192Y-43427D01*
X47039Y-43278D01*
X46933Y-43180D01*
X46867Y-43128D01*
X46835Y-43116D01*
X46834Y-43117D01*
X46786Y-43146D01*
X46687Y-43210D01*
X46552Y-43302D01*
X46392Y-43410D01*
X46381Y-43418D01*
X46224Y-43525D01*
X46093Y-43613D01*
X46000Y-43675D01*
X45959Y-43700D01*
X45952Y-43700D01*
X45888Y-43681D01*
X45776Y-43642D01*
X45638Y-43588D01*
X45493Y-43530D01*
X45361Y-43474D01*
X45261Y-43429D01*
X45214Y-43402D01*
X45213Y-43400D01*
X45196Y-43344D01*
X45169Y-43226D01*
X45136Y-43064D01*
X45099Y-42871D01*
X45093Y-42840D01*
X45058Y-42652D01*
X45028Y-42498D01*
X45006Y-42390D01*
X44995Y-42346D01*
X44969Y-42340D01*
X44876Y-42333D01*
X44736Y-42330D01*
X44567Y-42328D01*
X44388Y-42329D01*
X44214Y-42333D01*
X44065Y-42338D01*
X43959Y-42345D01*
X43915Y-42354D01*
X43913Y-42357D01*
X43897Y-42415D01*
X43871Y-42533D01*
X43838Y-42696D01*
X43801Y-42889D01*
X43794Y-42923D01*
X43759Y-43110D01*
X43728Y-43264D01*
X43705Y-43369D01*
X43693Y-43411D01*
X43676Y-43420D01*
X43599Y-43453D01*
X43474Y-43505D01*
X43318Y-43568D01*
X42957Y-43714D01*
X42516Y-43411D01*
X42475Y-43384D01*
X42316Y-43276D01*
X42186Y-43189D01*
X42095Y-43130D01*
X42057Y-43109D01*
X42054Y-43110D01*
X42010Y-43149D01*
X41923Y-43231D01*
X41803Y-43347D01*
X41664Y-43486D01*
X41561Y-43589D01*
X41439Y-43713D01*
X41362Y-43796D01*
X41320Y-43850D01*
X41305Y-43882D01*
X41309Y-43904D01*
X41337Y-43949D01*
X41402Y-44046D01*
X41493Y-44180D01*
X41601Y-44336D01*
X41689Y-44467D01*
X41785Y-44615D01*
X41848Y-44721D01*
X41869Y-44773D01*
X41864Y-44794D01*
X41833Y-44881D01*
X41780Y-45012D01*
X41714Y-45167D01*
X41560Y-45517D01*
X41331Y-45561D01*
X41192Y-45588D01*
X40998Y-45625D01*
X40812Y-45661D01*
X40521Y-45717D01*
X40511Y-46785D01*
X40556Y-46804D01*
X40599Y-46816D01*
X40707Y-46840D01*
X40860Y-46870D01*
X41041Y-46905D01*
X41196Y-46933D01*
X41351Y-46963D01*
X41463Y-46984D01*
X41512Y-46995D01*
X41525Y-47012D01*
X41564Y-47087D01*
X41619Y-47207D01*
X41681Y-47351D01*
X41743Y-47500D01*
X41798Y-47638D01*
X41836Y-47743D01*
X41851Y-47797D01*
X41829Y-47838D01*
X41771Y-47930D01*
X41685Y-48060D01*
X41579Y-48215D01*
X41473Y-48369D01*
X41384Y-48501D01*
X41322Y-48596D01*
X41296Y-48640D01*
X41309Y-48669D01*
X41371Y-48744D01*
X41487Y-48865D01*
X41661Y-49037D01*
X41689Y-49064D01*
X41827Y-49197D01*
X41944Y-49304D01*
X42025Y-49377D01*
X42061Y-49403D01*
X42061Y-49403D01*
G37*
M02*
