M48
INCH,TZ

T1C0.012
T2C0.035
T3C0.059
T4C0.067
T5C0.122
T6C0.244
%
G90
G05
M72
T1
X39764Y-40157

X39764Y-40945

X39764Y-41732

X39764Y-42520

X39764Y-43307

X39764Y-44094

X39764Y-44882

X39764Y-45669

X39764Y-46457

X39764Y-47244

X39764Y-48031

X39764Y-48819

X39764Y-49606

X39764Y-50394

X39961Y-39370

X39961Y-51181

X40354Y-38976

X40551Y-51772

X40748Y-38583

X41142Y-38189

X41142Y-52362

X41535Y-37795

X41732Y-52953

X41929Y-37402

X42323Y-37008

X42323Y-53543

X42717Y-36614

X42717Y-53937

X43110Y-36220

X43110Y-54331

X43504Y-35827

X43504Y-54724

X43898Y-45866

X43898Y-46260

X43898Y-46654

X44094Y-35827

X44094Y-54724

X44291Y-45669

X44291Y-46850

X44882Y-35827

X44882Y-45669

X44882Y-46850

X44882Y-54724

X45472Y-45669

X45472Y-46850

X45669Y-35827

X45669Y-54724

X46063Y-45669

X46063Y-46850

X46457Y-35827

X46457Y-54724

X46654Y-45669

X46654Y-46850

X47244Y-35827

X47244Y-45669

X47244Y-46850

X47244Y-54724

X47835Y-45669

X47835Y-46850

X48031Y-35827

X48031Y-54724

X48425Y-45669

X48425Y-46850

X48819Y-35827

X48819Y-54724

X49016Y-45669

X49016Y-46850

X49606Y-35827

X49606Y-45669

X49606Y-46850

X49606Y-54724

X50197Y-45079

X50197Y-45669

X50197Y-46850

X50197Y-47441

X50394Y-35827

X50394Y-44685

X50394Y-47835

X50394Y-54724

X50787Y-44488

X50787Y-48031

X51181Y-35827

X51181Y-54724

X51378Y-44488

X51378Y-48031

X51969Y-35827

X51969Y-44488

X51969Y-48031

X51969Y-54724

X52559Y-44488

X52559Y-48031

X52756Y-35827

X52756Y-54724

X53150Y-44488

X53150Y-48031

X53543Y-35827

X53543Y-44685

X53543Y-47835

X53543Y-54724

X53740Y-45079

X53740Y-45669

X53740Y-46260

X53740Y-46850

X53740Y-47441

X54331Y-35827

X54331Y-54724

X55118Y-36024

X55118Y-54528

X55512Y-36417

X55512Y-54134

X55906Y-36811

X55906Y-53740

X56299Y-37205

X56299Y-53346

X56693Y-37598

X56693Y-52953

X57087Y-37992

X57087Y-52559

X57480Y-38386

X57480Y-52165

X57874Y-38780

X57874Y-51772

X58268Y-39173

X58268Y-51378

X58661Y-39567

X58661Y-40157

X58661Y-40945

X58661Y-41732

X58661Y-42520

X58661Y-43307

X58661Y-44094

X58661Y-44882

X58661Y-45669

X58661Y-46457

X58661Y-47244

X58661Y-48031

X58661Y-48819

X58661Y-49606

X58661Y-50394

X58661Y-50984

T2
X44488Y-46260

T3
X51969Y-46260

T4
X50969Y-45260

X50969Y-47260

X52969Y-45260

X52969Y-47260

T5
X44094Y-37008

X44094Y-53543

X54331Y-37008

X54331Y-53543

T6
X49213Y-52638

T0
M30
