G04 (created by PCBNEW (2013-09-06 BZR 4312)-stable) date K 06 nov   2013 13:55:02 EET*
%MOIN*%
G04 Gerber Fmt 3.4, Leading zero omitted, Abs format*
%FSLAX34Y34*%
G01*
G70*
G90*
G04 APERTURE LIST*
%ADD10C,0.000787*%
%ADD11R,0.006000X0.006000*%
%ADD12R,0.006000X0.078740*%
%ADD13C,0.051181*%
%ADD14C,0.196850*%
%ADD15C,0.354331*%
%ADD16C,0.078740*%
%ADD17C,0.082677*%
%ADD18C,0.020000*%
%ADD19C,0.012165*%
%ADD20C,0.006000*%
%ADD21C,0.008000*%
%ADD22C,0.005000*%
G04 APERTURE END LIST*
G54D10*
G54D11*
X0Y0D03*
G54D12*
X0Y423D03*
G54D11*
X-817Y0D03*
X817Y0D03*
G54D13*
X44488Y-46259D03*
G54D14*
X44094Y-37007D03*
X54330Y-37007D03*
X54330Y-53543D03*
X44094Y-53543D03*
G54D15*
X49212Y-52637D03*
G54D16*
X51968Y-46259D03*
G54D17*
X52968Y-45259D03*
X50968Y-45259D03*
X50968Y-47259D03*
X52968Y-47259D03*
G54D18*
X53740Y-46850D03*
X53740Y-46259D03*
X53740Y-45669D03*
X53740Y-45078D03*
X49015Y-45669D03*
X48425Y-45669D03*
X47834Y-45669D03*
X47244Y-45669D03*
X46653Y-45669D03*
X46062Y-45669D03*
X45472Y-45669D03*
X44881Y-45669D03*
X44291Y-45669D03*
X49606Y-45669D03*
X50196Y-45669D03*
X50196Y-46850D03*
X49606Y-46850D03*
X49015Y-46850D03*
X48425Y-46850D03*
X47834Y-46850D03*
X47244Y-46850D03*
X46653Y-46850D03*
X46062Y-46850D03*
X45472Y-46850D03*
X44881Y-46850D03*
X44291Y-46850D03*
X43897Y-46653D03*
X43897Y-46259D03*
X43897Y-45866D03*
X53740Y-47440D03*
X53543Y-47834D03*
X53149Y-48031D03*
X52559Y-48031D03*
X51968Y-48031D03*
X51377Y-48031D03*
X50787Y-48031D03*
X50393Y-47834D03*
X50196Y-47440D03*
X50393Y-44685D03*
X50196Y-45078D03*
X53543Y-44685D03*
X53149Y-44488D03*
X52559Y-44488D03*
X51968Y-44488D03*
X51377Y-44488D03*
X50787Y-44488D03*
X54330Y-54724D03*
X53543Y-54724D03*
X52755Y-54724D03*
X51968Y-54724D03*
X51181Y-54724D03*
X50393Y-54724D03*
X49606Y-54724D03*
X48818Y-54724D03*
X48031Y-54724D03*
X47244Y-54724D03*
X46456Y-54724D03*
X45669Y-54724D03*
X44881Y-54724D03*
X44094Y-54724D03*
X58661Y-50984D03*
X58267Y-51377D03*
X57874Y-51771D03*
X57480Y-52165D03*
X57086Y-52559D03*
X56692Y-52952D03*
X56299Y-53346D03*
X55905Y-53740D03*
X55511Y-54133D03*
X55118Y-54527D03*
X55118Y-36023D03*
X55511Y-36417D03*
X55905Y-36811D03*
X56299Y-37204D03*
X56692Y-37598D03*
X57086Y-37992D03*
X57480Y-38385D03*
X57874Y-38779D03*
X58267Y-39173D03*
X39763Y-50393D03*
X39763Y-49606D03*
X39763Y-48818D03*
X39763Y-48031D03*
X39763Y-47244D03*
X39763Y-46456D03*
X39763Y-45669D03*
X39763Y-44881D03*
X39763Y-44094D03*
X39763Y-43307D03*
X39763Y-42519D03*
X39763Y-41732D03*
X39763Y-40944D03*
X39763Y-40157D03*
X42322Y-53543D03*
X41732Y-52952D03*
X41141Y-52362D03*
X40551Y-51771D03*
X39960Y-51181D03*
X43503Y-35826D03*
X43110Y-36220D03*
X42716Y-36614D03*
X42322Y-37007D03*
X41929Y-37401D03*
X41535Y-37795D03*
X41141Y-38188D03*
X40748Y-38582D03*
X40354Y-38976D03*
X39960Y-39370D03*
X54330Y-35826D03*
X53543Y-35826D03*
X52755Y-35826D03*
X51968Y-35826D03*
X51181Y-35826D03*
X50393Y-35826D03*
X49606Y-35826D03*
X48818Y-35826D03*
X48031Y-35826D03*
X47244Y-35826D03*
X46456Y-35826D03*
X45669Y-35826D03*
X44881Y-35826D03*
X44094Y-35826D03*
X58661Y-39566D03*
X58661Y-50393D03*
X58661Y-49606D03*
X58661Y-48818D03*
X58661Y-48031D03*
X58661Y-47244D03*
X58661Y-46456D03*
X58661Y-45669D03*
X58661Y-44881D03*
X58661Y-44094D03*
X58661Y-43307D03*
X58661Y-42519D03*
X58661Y-41732D03*
X58661Y-40944D03*
X58661Y-40157D03*
X42716Y-53937D03*
X43110Y-54330D03*
X43503Y-54724D03*
G54D19*
X44488Y-46259D02*
X51968Y-46259D01*
G54D20*
X50196Y-45669D02*
X50559Y-45669D01*
G54D21*
X53740Y-46850D02*
X53740Y-46259D01*
X53740Y-45669D02*
X53740Y-45275D01*
X53740Y-45078D02*
X53740Y-45275D01*
X50196Y-46850D02*
X50196Y-47440D01*
X43897Y-45866D02*
X44094Y-45669D01*
X48425Y-45669D02*
X47834Y-45669D01*
X47244Y-45669D02*
X46653Y-45669D01*
X46062Y-45669D02*
X45472Y-45669D01*
X44881Y-45669D02*
X44291Y-45669D01*
X49606Y-45669D02*
X49015Y-45669D01*
X49606Y-46850D02*
X50196Y-46850D01*
X48425Y-46850D02*
X49015Y-46850D01*
X47244Y-46850D02*
X47834Y-46850D01*
X46062Y-46850D02*
X46653Y-46850D01*
X44881Y-46850D02*
X45472Y-46850D01*
X43897Y-45866D02*
X43897Y-46259D01*
X44094Y-45669D02*
X44291Y-45669D01*
X53740Y-47637D02*
X53740Y-47440D01*
X53543Y-47834D02*
X53740Y-47637D01*
X52559Y-48031D02*
X53149Y-48031D01*
X51377Y-48031D02*
X51968Y-48031D01*
X50590Y-48031D02*
X50787Y-48031D01*
X50393Y-47834D02*
X50590Y-48031D01*
G54D20*
X50559Y-45669D02*
X50968Y-45259D01*
G54D21*
X50393Y-44685D02*
X50196Y-44881D01*
X50196Y-45078D02*
X50196Y-44881D01*
X53346Y-44488D02*
X53543Y-44685D01*
X53149Y-44488D02*
X53346Y-44488D01*
X51968Y-44488D02*
X52559Y-44488D01*
X50787Y-44488D02*
X51377Y-44488D01*
X43700Y-54724D02*
X43503Y-54724D01*
X53543Y-54724D02*
X52755Y-54724D01*
X51968Y-54724D02*
X51181Y-54724D01*
X50393Y-54724D02*
X49606Y-54724D01*
X48818Y-54724D02*
X48031Y-54724D01*
X47244Y-54724D02*
X46456Y-54724D01*
X45669Y-54724D02*
X44881Y-54724D01*
X44094Y-54724D02*
X43700Y-54724D01*
X54724Y-54724D02*
X54921Y-54724D01*
X58267Y-51377D02*
X57874Y-51771D01*
X57480Y-52165D02*
X57086Y-52559D01*
X56692Y-52952D02*
X56299Y-53346D01*
X55905Y-53740D02*
X55511Y-54133D01*
X55118Y-54527D02*
X54921Y-54724D01*
X58661Y-39763D02*
X58661Y-40157D01*
X54921Y-35826D02*
X55118Y-36023D01*
X55511Y-36417D02*
X55905Y-36811D01*
X56299Y-37204D02*
X56692Y-37598D01*
X57086Y-37992D02*
X57480Y-38385D01*
X57874Y-38779D02*
X58267Y-39173D01*
X43700Y-35826D02*
X44094Y-35826D01*
X39763Y-50393D02*
X39763Y-49606D01*
X39763Y-48818D02*
X39763Y-48031D01*
X39763Y-47244D02*
X39763Y-46456D01*
X39763Y-45669D02*
X39763Y-44881D01*
X39763Y-44094D02*
X39763Y-43307D01*
X39763Y-42519D02*
X39763Y-41732D01*
X39763Y-40944D02*
X39763Y-40157D01*
X41732Y-52952D02*
X41141Y-52362D01*
X40551Y-51771D02*
X39960Y-51181D01*
X44094Y-53543D02*
X42322Y-53543D01*
X43110Y-36220D02*
X43503Y-35826D01*
X42322Y-37007D02*
X42716Y-36614D01*
X41535Y-37795D02*
X41929Y-37401D01*
X40748Y-38582D02*
X41141Y-38188D01*
X39960Y-39370D02*
X40354Y-38976D01*
X43700Y-35826D02*
X43503Y-35826D01*
X54330Y-35826D02*
X54724Y-35826D01*
X52755Y-35826D02*
X53543Y-35826D01*
X51181Y-35826D02*
X51968Y-35826D01*
X49606Y-35826D02*
X50393Y-35826D01*
X48031Y-35826D02*
X48818Y-35826D01*
X46456Y-35826D02*
X47244Y-35826D01*
X44881Y-35826D02*
X45669Y-35826D01*
X54724Y-35826D02*
X54921Y-35826D01*
X58661Y-39763D02*
X58661Y-39566D01*
X58661Y-48818D02*
X58661Y-49606D01*
X58661Y-47244D02*
X58661Y-48031D01*
X58661Y-45669D02*
X58661Y-46456D01*
X58661Y-44094D02*
X58661Y-44881D01*
X58661Y-42519D02*
X58661Y-43307D01*
X58661Y-40944D02*
X58661Y-41732D01*
X58661Y-50393D02*
X58661Y-50984D01*
X54724Y-54724D02*
X54330Y-54724D01*
X43110Y-54330D02*
X43503Y-54724D01*
X42322Y-53543D02*
X42716Y-53937D01*
G54D10*
G36*
X58946Y-51136D02*
X55073Y-55009D01*
X53457Y-55009D01*
X53457Y-47351D01*
X53457Y-45351D01*
X53455Y-45157D01*
X53385Y-44987D01*
X53324Y-44939D01*
X53289Y-44974D01*
X53289Y-44903D01*
X53240Y-44842D01*
X53060Y-44770D01*
X52866Y-44772D01*
X52696Y-44842D01*
X52647Y-44903D01*
X52968Y-45224D01*
X53289Y-44903D01*
X53289Y-44974D01*
X53003Y-45259D01*
X53324Y-45580D01*
X53385Y-45531D01*
X53457Y-45351D01*
X53457Y-47351D01*
X53455Y-47157D01*
X53385Y-46987D01*
X53324Y-46939D01*
X53289Y-46974D01*
X53289Y-46903D01*
X53289Y-45615D01*
X52968Y-45295D01*
X52933Y-45330D01*
X52933Y-45259D01*
X52612Y-44939D01*
X52551Y-44987D01*
X52479Y-45168D01*
X52481Y-45362D01*
X52551Y-45531D01*
X52612Y-45580D01*
X52933Y-45259D01*
X52933Y-45330D01*
X52647Y-45615D01*
X52696Y-45676D01*
X52876Y-45749D01*
X53070Y-45747D01*
X53240Y-45676D01*
X53289Y-45615D01*
X53289Y-46903D01*
X53240Y-46842D01*
X53060Y-46770D01*
X52866Y-46772D01*
X52696Y-46842D01*
X52647Y-46903D01*
X52968Y-47224D01*
X53289Y-46903D01*
X53289Y-46974D01*
X53003Y-47259D01*
X53324Y-47580D01*
X53385Y-47531D01*
X53457Y-47351D01*
X53457Y-55009D01*
X53289Y-55009D01*
X53289Y-47615D01*
X52968Y-47295D01*
X52933Y-47330D01*
X52933Y-47259D01*
X52612Y-46939D01*
X52551Y-46987D01*
X52479Y-47168D01*
X52481Y-47362D01*
X52551Y-47531D01*
X52612Y-47580D01*
X52933Y-47259D01*
X52933Y-47330D01*
X52647Y-47615D01*
X52696Y-47676D01*
X52876Y-47749D01*
X53070Y-47747D01*
X53240Y-47676D01*
X53289Y-47615D01*
X53289Y-55009D01*
X52466Y-55009D01*
X52466Y-46161D01*
X52390Y-45978D01*
X52250Y-45838D01*
X52067Y-45762D01*
X51869Y-45762D01*
X51687Y-45837D01*
X51547Y-45977D01*
X51498Y-46095D01*
X51457Y-46095D01*
X51457Y-45351D01*
X51455Y-45157D01*
X51385Y-44987D01*
X51324Y-44939D01*
X51289Y-44974D01*
X51289Y-44903D01*
X51240Y-44842D01*
X51060Y-44770D01*
X50866Y-44772D01*
X50696Y-44842D01*
X50647Y-44903D01*
X50968Y-45224D01*
X51289Y-44903D01*
X51289Y-44974D01*
X51003Y-45259D01*
X51324Y-45580D01*
X51385Y-45531D01*
X51457Y-45351D01*
X51457Y-46095D01*
X51289Y-46095D01*
X51289Y-45615D01*
X50968Y-45295D01*
X50933Y-45330D01*
X50933Y-45259D01*
X50612Y-44939D01*
X50551Y-44987D01*
X50479Y-45168D01*
X50481Y-45362D01*
X50551Y-45531D01*
X50612Y-45580D01*
X50933Y-45259D01*
X50933Y-45330D01*
X50647Y-45615D01*
X50696Y-45676D01*
X50876Y-45749D01*
X51070Y-45747D01*
X51240Y-45676D01*
X51289Y-45615D01*
X51289Y-46095D01*
X44809Y-46095D01*
X44793Y-46056D01*
X44692Y-45955D01*
X44560Y-45900D01*
X44416Y-45900D01*
X44284Y-45954D01*
X44183Y-46055D01*
X44128Y-46187D01*
X44128Y-46331D01*
X44183Y-46463D01*
X44284Y-46564D01*
X44416Y-46619D01*
X44559Y-46619D01*
X44691Y-46564D01*
X44792Y-46463D01*
X44809Y-46424D01*
X51498Y-46424D01*
X51546Y-46541D01*
X51686Y-46681D01*
X51869Y-46757D01*
X52067Y-46757D01*
X52249Y-46681D01*
X52389Y-46541D01*
X52465Y-46359D01*
X52466Y-46161D01*
X52466Y-55009D01*
X51457Y-55009D01*
X51457Y-47351D01*
X51455Y-47157D01*
X51385Y-46987D01*
X51324Y-46939D01*
X51289Y-46974D01*
X51289Y-46903D01*
X51240Y-46842D01*
X51060Y-46770D01*
X50866Y-46772D01*
X50696Y-46842D01*
X50647Y-46903D01*
X50968Y-47224D01*
X51289Y-46903D01*
X51289Y-46974D01*
X51003Y-47259D01*
X51324Y-47580D01*
X51385Y-47531D01*
X51457Y-47351D01*
X51457Y-55009D01*
X51289Y-55009D01*
X51289Y-47615D01*
X50968Y-47295D01*
X50933Y-47330D01*
X50933Y-47259D01*
X50612Y-46939D01*
X50551Y-46987D01*
X50479Y-47168D01*
X50481Y-47362D01*
X50551Y-47531D01*
X50612Y-47580D01*
X50933Y-47259D01*
X50933Y-47330D01*
X50647Y-47615D01*
X50696Y-47676D01*
X50876Y-47749D01*
X51070Y-47747D01*
X51240Y-47676D01*
X51289Y-47615D01*
X51289Y-55009D01*
X51088Y-55009D01*
X51088Y-52266D01*
X50803Y-51576D01*
X50276Y-51048D01*
X49587Y-50762D01*
X48841Y-50762D01*
X48151Y-51046D01*
X47623Y-51574D01*
X47337Y-52263D01*
X47336Y-53009D01*
X47621Y-53698D01*
X48148Y-54226D01*
X48837Y-54512D01*
X49584Y-54513D01*
X50273Y-54228D01*
X50801Y-53701D01*
X51087Y-53012D01*
X51088Y-52266D01*
X51088Y-55009D01*
X43352Y-55009D01*
X39478Y-51136D01*
X39478Y-39415D01*
X43352Y-35541D01*
X55073Y-35541D01*
X58946Y-39415D01*
X58946Y-51136D01*
X58946Y-51136D01*
G37*
G54D22*
X58946Y-51136D02*
X55073Y-55009D01*
X53457Y-55009D01*
X53457Y-47351D01*
X53457Y-45351D01*
X53455Y-45157D01*
X53385Y-44987D01*
X53324Y-44939D01*
X53289Y-44974D01*
X53289Y-44903D01*
X53240Y-44842D01*
X53060Y-44770D01*
X52866Y-44772D01*
X52696Y-44842D01*
X52647Y-44903D01*
X52968Y-45224D01*
X53289Y-44903D01*
X53289Y-44974D01*
X53003Y-45259D01*
X53324Y-45580D01*
X53385Y-45531D01*
X53457Y-45351D01*
X53457Y-47351D01*
X53455Y-47157D01*
X53385Y-46987D01*
X53324Y-46939D01*
X53289Y-46974D01*
X53289Y-46903D01*
X53289Y-45615D01*
X52968Y-45295D01*
X52933Y-45330D01*
X52933Y-45259D01*
X52612Y-44939D01*
X52551Y-44987D01*
X52479Y-45168D01*
X52481Y-45362D01*
X52551Y-45531D01*
X52612Y-45580D01*
X52933Y-45259D01*
X52933Y-45330D01*
X52647Y-45615D01*
X52696Y-45676D01*
X52876Y-45749D01*
X53070Y-45747D01*
X53240Y-45676D01*
X53289Y-45615D01*
X53289Y-46903D01*
X53240Y-46842D01*
X53060Y-46770D01*
X52866Y-46772D01*
X52696Y-46842D01*
X52647Y-46903D01*
X52968Y-47224D01*
X53289Y-46903D01*
X53289Y-46974D01*
X53003Y-47259D01*
X53324Y-47580D01*
X53385Y-47531D01*
X53457Y-47351D01*
X53457Y-55009D01*
X53289Y-55009D01*
X53289Y-47615D01*
X52968Y-47295D01*
X52933Y-47330D01*
X52933Y-47259D01*
X52612Y-46939D01*
X52551Y-46987D01*
X52479Y-47168D01*
X52481Y-47362D01*
X52551Y-47531D01*
X52612Y-47580D01*
X52933Y-47259D01*
X52933Y-47330D01*
X52647Y-47615D01*
X52696Y-47676D01*
X52876Y-47749D01*
X53070Y-47747D01*
X53240Y-47676D01*
X53289Y-47615D01*
X53289Y-55009D01*
X52466Y-55009D01*
X52466Y-46161D01*
X52390Y-45978D01*
X52250Y-45838D01*
X52067Y-45762D01*
X51869Y-45762D01*
X51687Y-45837D01*
X51547Y-45977D01*
X51498Y-46095D01*
X51457Y-46095D01*
X51457Y-45351D01*
X51455Y-45157D01*
X51385Y-44987D01*
X51324Y-44939D01*
X51289Y-44974D01*
X51289Y-44903D01*
X51240Y-44842D01*
X51060Y-44770D01*
X50866Y-44772D01*
X50696Y-44842D01*
X50647Y-44903D01*
X50968Y-45224D01*
X51289Y-44903D01*
X51289Y-44974D01*
X51003Y-45259D01*
X51324Y-45580D01*
X51385Y-45531D01*
X51457Y-45351D01*
X51457Y-46095D01*
X51289Y-46095D01*
X51289Y-45615D01*
X50968Y-45295D01*
X50933Y-45330D01*
X50933Y-45259D01*
X50612Y-44939D01*
X50551Y-44987D01*
X50479Y-45168D01*
X50481Y-45362D01*
X50551Y-45531D01*
X50612Y-45580D01*
X50933Y-45259D01*
X50933Y-45330D01*
X50647Y-45615D01*
X50696Y-45676D01*
X50876Y-45749D01*
X51070Y-45747D01*
X51240Y-45676D01*
X51289Y-45615D01*
X51289Y-46095D01*
X44809Y-46095D01*
X44793Y-46056D01*
X44692Y-45955D01*
X44560Y-45900D01*
X44416Y-45900D01*
X44284Y-45954D01*
X44183Y-46055D01*
X44128Y-46187D01*
X44128Y-46331D01*
X44183Y-46463D01*
X44284Y-46564D01*
X44416Y-46619D01*
X44559Y-46619D01*
X44691Y-46564D01*
X44792Y-46463D01*
X44809Y-46424D01*
X51498Y-46424D01*
X51546Y-46541D01*
X51686Y-46681D01*
X51869Y-46757D01*
X52067Y-46757D01*
X52249Y-46681D01*
X52389Y-46541D01*
X52465Y-46359D01*
X52466Y-46161D01*
X52466Y-55009D01*
X51457Y-55009D01*
X51457Y-47351D01*
X51455Y-47157D01*
X51385Y-46987D01*
X51324Y-46939D01*
X51289Y-46974D01*
X51289Y-46903D01*
X51240Y-46842D01*
X51060Y-46770D01*
X50866Y-46772D01*
X50696Y-46842D01*
X50647Y-46903D01*
X50968Y-47224D01*
X51289Y-46903D01*
X51289Y-46974D01*
X51003Y-47259D01*
X51324Y-47580D01*
X51385Y-47531D01*
X51457Y-47351D01*
X51457Y-55009D01*
X51289Y-55009D01*
X51289Y-47615D01*
X50968Y-47295D01*
X50933Y-47330D01*
X50933Y-47259D01*
X50612Y-46939D01*
X50551Y-46987D01*
X50479Y-47168D01*
X50481Y-47362D01*
X50551Y-47531D01*
X50612Y-47580D01*
X50933Y-47259D01*
X50933Y-47330D01*
X50647Y-47615D01*
X50696Y-47676D01*
X50876Y-47749D01*
X51070Y-47747D01*
X51240Y-47676D01*
X51289Y-47615D01*
X51289Y-55009D01*
X51088Y-55009D01*
X51088Y-52266D01*
X50803Y-51576D01*
X50276Y-51048D01*
X49587Y-50762D01*
X48841Y-50762D01*
X48151Y-51046D01*
X47623Y-51574D01*
X47337Y-52263D01*
X47336Y-53009D01*
X47621Y-53698D01*
X48148Y-54226D01*
X48837Y-54512D01*
X49584Y-54513D01*
X50273Y-54228D01*
X50801Y-53701D01*
X51087Y-53012D01*
X51088Y-52266D01*
X51088Y-55009D01*
X43352Y-55009D01*
X39478Y-51136D01*
X39478Y-39415D01*
X43352Y-35541D01*
X55073Y-35541D01*
X58946Y-39415D01*
X58946Y-51136D01*
M02*
